<?xml version='1.0' encoding='utf-8'?>
<svg xmlns="http://www.w3.org/2000/svg" width="1400" height="650" viewBox="0 0 1400 650" role="img" aria-label="艾里图样及径向强度"><defs><marker id="arrow-blue" markerWidth="10" markerHeight="8" refX="9" refY="4" orient="auto" markerUnits="strokeWidth"><path d="M 0 0 L 10 4 L 0 8 z" fill="#3b82b5" /></marker><marker id="arrow-red" markerWidth="10" markerHeight="8" refX="9" refY="4" orient="auto" markerUnits="strokeWidth"><path d="M 0 0 L 10 4 L 0 8 z" fill="#c85b73" /></marker><marker id="arrow-dark" markerWidth="10" markerHeight="8" refX="9" refY="4" orient="auto" markerUnits="strokeWidth"><path d="M 0 0 L 10 4 L 0 8 z" fill="#334e68" /></marker><marker id="arrow-green" markerWidth="10" markerHeight="8" refX="9" refY="4" orient="auto" markerUnits="strokeWidth"><path d="M 0 0 L 10 4 L 0 8 z" fill="#4d8c6a" /></marker></defs><rect width="1400" height="650" fill="#fbfdff" /><text x="700.0" y="43" text-anchor="middle" font-family="Source Han Sans SC, Microsoft YaHei, sans-serif" font-size="30" font-weight="700" fill="#102a43">圆孔衍射：二维艾里环与一维径向强度</text><line x1="620" y1="80" x2="620" y2="585" stroke="#c6d2dc" stroke-width="2" stroke-linecap="round" /><rect x="80" y="100" width="470" height="470" rx="18" fill="#101923" stroke="#50677a" stroke-width="2" /><circle cx="315" cy="335" r="190" fill="#5d7690" fill-opacity="0.14" stroke="none" /><circle cx="315" cy="335" r="160" fill="#0f1720" fill-opacity="1" stroke="none" /><circle cx="315" cy="335" r="140" fill="#718ca6" fill-opacity="0.18" stroke="none" /><circle cx="315" cy="335" r="112" fill="#0f1720" fill-opacity="1" stroke="none" /><circle cx="315" cy="335" r="92" fill="#93adc4" fill-opacity="0.24" stroke="none" /><circle cx="315" cy="335" r="63" fill="#0f1720" fill-opacity="1" stroke="none" /><circle cx="315" cy="335" r="52" fill="#fff8dd" fill-opacity="0.95" stroke="none" /><text x="315" y="600" text-anchor="middle" font-family="Source Han Sans SC, Microsoft YaHei, sans-serif" font-size="20" font-weight="600" fill="#486581">中央主瓣约含 83.8% 能量</text><line x1="700" y1="535" x2="1320" y2="535" stroke="#334e68" stroke-width="2" stroke-linecap="round" marker-end="url(#arrow-dark)" /><line x1="700" y1="535" x2="700" y2="115" stroke="#334e68" stroke-width="2" stroke-linecap="round" marker-end="url(#arrow-dark)" /><text x="1310" y="569" text-anchor="middle" font-family="Source Han Sans SC, Microsoft YaHei, sans-serif" font-size="20" font-weight="400" fill="#627d98">ρ = r/(λN)</text><text x="682" y="125" text-anchor="middle" font-family="Source Han Sans SC, Microsoft YaHei, sans-serif" font-size="20" font-weight="400" fill="#627d98">I/I₀</text><polyline points="700.00,135.00 701.24,135.07 702.48,135.28 703.73,135.63 704.97,136.12 706.21,136.74 707.45,137.51 708.70,138.41 709.94,139.45 711.18,140.63 712.42,141.94 713.67,143.39 714.91,144.96 716.15,146.67 717.39,148.51 718.64,150.48 719.88,152.57 721.12,154.79 722.36,157.13 723.61,159.59 724.85,162.17 726.09,164.86 727.33,167.67 728.58,170.59 729.82,173.62 731.06,176.76 732.30,180.00 733.55,183.34 734.79,186.78 736.03,190.32 737.27,193.95 738.52,197.67 739.76,201.47 741.00,205.36 742.24,209.33 743.49,213.38 744.73,217.50 745.97,221.69 747.21,225.95 748.46,230.27 749.70,234.65 750.94,239.09 752.18,243.58 753.43,248.12 754.67,252.71 755.91,257.34 757.15,262.01 758.40,266.72 759.64,271.45 760.88,276.22 762.12,281.01 763.37,285.83 764.61,290.66 765.85,295.50 767.09,300.36 768.34,305.22 769.58,310.09 770.82,314.96 772.06,319.83 773.31,324.69 774.55,329.55 775.79,334.39 777.03,339.21 778.28,344.02 779.52,348.80 780.76,353.56 782.00,358.30 783.25,363.00 784.49,367.67 785.73,372.30 786.97,376.90 788.22,381.45 789.46,385.96 790.70,390.42 791.94,394.84 793.19,399.20 794.43,403.52 795.67,407.77 796.91,411.97 798.16,416.11 799.40,420.19 800.64,424.21 801.88,428.16 803.13,432.05 804.37,435.87 805.61,439.62 806.85,443.30 808.10,446.91 809.34,450.45 810.58,453.91 811.82,457.30 813.07,460.61 814.31,463.85 815.55,467.01 816.79,470.09 818.04,473.10 819.28,476.02 820.52,478.87 821.76,481.64 823.01,484.34 824.25,486.95 825.49,489.48 826.73,491.94 827.98,494.31 829.22,496.61 830.46,498.83 831.70,500.97 832.95,503.04 834.19,505.03 835.43,506.94 836.67,508.78 837.92,510.54 839.16,512.23 840.40,513.85 841.64,515.40 842.89,516.87 844.13,518.28 845.37,519.62 846.61,520.89 847.86,522.09 849.10,523.23 850.34,524.31 851.58,525.32 852.83,526.28 854.07,527.17 855.31,528.01 856.55,528.79 857.80,529.51 859.04,530.19 860.28,530.81 861.52,531.38 862.77,531.90 864.01,532.37 865.25,532.80 866.49,533.19 867.74,533.53 868.98,533.83 870.22,534.10 871.46,534.32 872.71,534.51 873.95,534.67 875.19,534.80 876.43,534.89 877.68,534.95 878.92,534.99 880.16,535.00 881.40,534.99 882.65,534.95 883.89,534.89 885.13,534.81 886.37,534.71 887.62,534.60 888.86,534.47 890.10,534.32 891.34,534.16 892.59,533.99 893.83,533.81 895.07,533.62 896.31,533.43 897.56,533.22 898.80,533.01 900.04,532.80 901.28,532.58 902.53,532.36 903.77,532.14 905.01,531.91 906.25,531.69 907.49,531.47 908.74,531.25 909.98,531.03 911.22,530.82 912.46,530.61 913.71,530.41 914.95,530.21 916.19,530.02 917.43,529.83 918.68,529.65 919.92,529.48 921.16,529.32 922.40,529.16 923.65,529.02 924.89,528.88 926.13,528.75 927.37,528.64 928.62,528.53 929.86,528.43 931.10,528.34 932.34,528.26 933.59,528.19 934.83,528.14 936.07,528.09 937.31,528.05 938.56,528.03 939.80,528.01 941.04,528.00 942.28,528.00 943.53,528.02 944.77,528.04 946.01,528.07 947.25,528.11 948.50,528.16 949.74,528.22 950.98,528.28 952.22,528.36 953.47,528.44 954.71,528.53 955.95,528.62 957.19,528.72 958.44,528.83 959.68,528.95 960.92,529.07 962.16,529.20 963.41,529.33 964.65,529.46 965.89,529.60 967.13,529.74 968.38,529.89 969.62,530.04 970.86,530.19 972.10,530.35 973.35,530.50 974.59,530.66 975.83,530.82 977.07,530.98 978.32,531.14 979.56,531.29 980.80,531.45 982.04,531.61 983.29,531.77 984.53,531.93 985.77,532.08 987.01,532.23 988.26,532.38 989.50,532.53 990.74,532.67 991.98,532.82 993.23,532.95 994.47,533.09 995.71,533.22 996.95,533.35 998.20,533.47 999.44,533.59 1000.68,533.71 1001.92,533.82 1003.17,533.92 1004.41,534.02 1005.65,534.12 1006.89,534.21 1008.14,534.30 1009.38,534.38 1010.62,534.46 1011.86,534.53 1013.11,534.59 1014.35,534.65 1015.59,534.71 1016.83,534.76 1018.08,534.81 1019.32,534.85 1020.56,534.88 1021.80,534.91 1023.05,534.94 1024.29,534.96 1025.53,534.98 1026.77,534.99 1028.02,535.00 1029.26,535.00 1030.50,535.00 1031.74,534.99 1032.99,534.99 1034.23,534.97 1035.47,534.96 1036.71,534.94 1037.96,534.92 1039.20,534.89 1040.44,534.86 1041.68,534.83 1042.93,534.80 1044.17,534.76 1045.41,534.72 1046.65,534.68 1047.90,534.64 1049.14,534.60 1050.38,534.56 1051.62,534.51 1052.87,534.46 1054.11,534.42 1055.35,534.37 1056.59,534.32 1057.84,534.27 1059.08,534.22 1060.32,534.17 1061.56,534.12 1062.81,534.07 1064.05,534.03 1065.29,533.98 1066.53,533.93 1067.78,533.89 1069.02,533.84 1070.26,533.80 1071.50,533.76 1072.75,533.72 1073.99,533.68 1075.23,533.64 1076.47,533.61 1077.72,533.57 1078.96,533.54 1080.20,533.51 1081.44,533.49 1082.69,533.46 1083.93,533.44 1085.17,533.42 1086.41,533.40 1087.66,533.38 1088.90,533.37 1090.14,533.36 1091.38,533.35 1092.63,533.34 1093.87,533.34 1095.11,533.34 1096.35,533.34 1097.60,533.34 1098.84,533.35 1100.08,533.35 1101.32,533.36 1102.57,533.37 1103.81,533.39 1105.05,533.40 1106.29,533.42 1107.54,533.44 1108.78,533.46 1110.02,533.49 1111.26,533.51 1112.51,533.54 1113.75,533.56 1114.99,533.59 1116.23,533.63 1117.47,533.66 1118.72,533.69 1119.96,533.73 1121.20,533.76 1122.44,533.80 1123.69,533.84 1124.93,533.87 1126.17,533.91 1127.41,533.95 1128.66,533.99 1129.90,534.03 1131.14,534.07 1132.38,534.11 1133.63,534.15 1134.87,534.19 1136.11,534.23 1137.35,534.27 1138.60,534.31 1139.84,534.35 1141.08,534.38 1142.32,534.42 1143.57,534.46 1144.81,534.49 1146.05,534.53 1147.29,534.56 1148.54,534.60 1149.78,534.63 1151.02,534.66 1152.26,534.69 1153.51,534.72 1154.75,534.75 1155.99,534.77 1157.23,534.80 1158.48,534.82 1159.72,534.84 1160.96,534.86 1162.20,534.88 1163.45,534.90 1164.69,534.92 1165.93,534.93 1167.17,534.95 1168.42,534.96 1169.66,534.97 1170.90,534.98 1172.14,534.98 1173.39,534.99 1174.63,534.99 1175.87,535.00 1177.11,535.00 1178.36,535.00 1179.60,535.00 1180.84,535.00 1182.08,534.99 1183.33,534.99 1184.57,534.98 1185.81,534.98 1187.05,534.97 1188.30,534.96 1189.54,534.95 1190.78,534.94 1192.02,534.92 1193.27,534.91 1194.51,534.90 1195.75,534.88 1196.99,534.87 1198.24,534.85 1199.48,534.84 1200.72,534.82 1201.96,534.80 1203.21,534.78 1204.45,534.77 1205.69,534.75 1206.93,534.73 1208.18,534.71 1209.42,534.69 1210.66,534.68 1211.90,534.66 1213.15,534.64 1214.39,534.62 1215.63,534.60 1216.87,534.59 1218.12,534.57 1219.36,534.55 1220.60,534.54 1221.84,534.52 1223.09,534.51 1224.33,534.49 1225.57,534.48 1226.81,534.46 1228.06,534.45 1229.30,534.44 1230.54,534.43 1231.78,534.42 1233.03,534.41 1234.27,534.40 1235.51,534.39 1236.75,534.38 1238.00,534.38 1239.24,534.37 1240.48,534.37 1241.72,534.37 1242.97,534.36 1244.21,534.36 1245.45,534.36 1246.69,534.36 1247.94,534.36 1249.18,534.36 1250.42,534.37 1251.66,534.37 1252.91,534.37 1254.15,534.38 1255.39,534.38 1256.63,534.39 1257.88,534.40 1259.12,534.41 1260.36,534.42 1261.60,534.43 1262.85,534.44 1264.09,534.45 1265.33,534.46 1266.57,534.47 1267.82,534.48 1269.06,534.50 1270.30,534.51 1271.54,534.52 1272.79,534.54 1274.03,534.55 1275.27,534.57 1276.51,534.58 1277.76,534.60 1279.00,534.61 1280.24,534.63 1281.48,534.65 1282.73,534.66 1283.97,534.68 1285.21,534.69 1286.45,534.71 1287.70,534.72 1288.94,534.74 1290.18,534.75 1291.42,534.77 1292.67,534.78 1293.91,534.80 1295.15,534.81 1296.39,534.83 1297.64,534.84 1298.88,534.85 1300.12,534.87 1301.36,534.88 1302.61,534.89 1303.85,534.90 1305.09,534.91 1306.33,534.92 1307.58,534.93 1308.82,534.94 1310.06,534.95 1311.30,534.96 1312.55,534.96 1313.79,534.97 1315.03,534.98 1316.27,534.98 1317.52,534.99 1318.76,534.99 1320.00,534.99" stroke="#3b82b5" stroke-width="4" fill="none" stroke-linejoin="round" stroke-linecap="round" /><line x1="880.0952380952381" y1="535" x2="880.0952380952381" y2="200" stroke="#c85b73" stroke-width="2" stroke-linecap="round" stroke-dasharray="9 7" /><text x="888.0952380952381" y="187" text-anchor="start" font-family="Source Han Sans SC, Microsoft YaHei, sans-serif" font-size="18" font-weight="700" fill="#a24862">第一暗环 1.22λN</text><line x1="700.0" y1="529" x2="700.0" y2="541" stroke="#334e68" stroke-width="2" stroke-linecap="round" /><text x="700.0" y="559" text-anchor="middle" font-family="Source Han Sans SC, Microsoft YaHei, sans-serif" font-size="16" font-weight="400" fill="#486581">0</text><line x1="847.6190476190476" y1="529" x2="847.6190476190476" y2="541" stroke="#334e68" stroke-width="2" stroke-linecap="round" /><text x="847.6190476190476" y="559" text-anchor="middle" font-family="Source Han Sans SC, Microsoft YaHei, sans-serif" font-size="16" font-weight="400" fill="#486581">1</text><line x1="995.2380952380952" y1="529" x2="995.2380952380952" y2="541" stroke="#334e68" stroke-width="2" stroke-linecap="round" /><text x="995.2380952380952" y="559" text-anchor="middle" font-family="Source Han Sans SC, Microsoft YaHei, sans-serif" font-size="16" font-weight="400" fill="#486581">2</text><line x1="1142.857142857143" y1="529" x2="1142.857142857143" y2="541" stroke="#334e68" stroke-width="2" stroke-linecap="round" /><text x="1142.857142857143" y="559" text-anchor="middle" font-family="Source Han Sans SC, Microsoft YaHei, sans-serif" font-size="16" font-weight="400" fill="#486581">3</text><line x1="1290.4761904761904" y1="529" x2="1290.4761904761904" y2="541" stroke="#334e68" stroke-width="2" stroke-linecap="round" /><text x="1290.4761904761904" y="559" text-anchor="middle" font-family="Source Han Sans SC, Microsoft YaHei, sans-serif" font-size="16" font-weight="400" fill="#486581">4</text></svg>