<?xml version='1.0' encoding='utf-8'?>
<svg xmlns="http://www.w3.org/2000/svg" width="1350" height="680" viewBox="0 0 1350 680" role="img" aria-label="孔径光阑与入瞳出瞳"><defs><marker id="arrow-blue" markerWidth="10" markerHeight="8" refX="9" refY="4" orient="auto" markerUnits="strokeWidth"><path d="M 0 0 L 10 4 L 0 8 z" fill="#3b82b5" /></marker><marker id="arrow-red" markerWidth="10" markerHeight="8" refX="9" refY="4" orient="auto" markerUnits="strokeWidth"><path d="M 0 0 L 10 4 L 0 8 z" fill="#c85b73" /></marker><marker id="arrow-dark" markerWidth="10" markerHeight="8" refX="9" refY="4" orient="auto" markerUnits="strokeWidth"><path d="M 0 0 L 10 4 L 0 8 z" fill="#334e68" /></marker></defs><rect width="1350" height="680" fill="#fbfdff" /><line x1="70" y1="290" x2="1280" y2="290" stroke="#9fb3c2" stroke-width="2" stroke-linecap="round" marker-end="url(#arrow-dark)" /><text x="105" y="260" text-anchor="middle" font-family="Source Han Sans SC, Microsoft YaHei, sans-serif" font-size="19" font-weight="600" fill="#627d98">物方</text><text x="1245" y="260" text-anchor="middle" font-family="Source Han Sans SC, Microsoft YaHei, sans-serif" font-size="19" font-weight="600" fill="#627d98">像方</text><path d="M 360 85 C 315 155 315 425 360 495 C 405 425 405 155 360 85 Z" fill="#eef6fb" stroke="#5a9bcc" stroke-width="3" /><text x="360" y="535" text-anchor="middle" font-family="Source Han Sans SC, Microsoft YaHei, sans-serif" font-size="21" font-weight="700" fill="#5a9bcc">前透镜组</text><path d="M 860 85 C 815 155 815 425 860 495 C 905 425 905 155 860 85 Z" fill="#f5effb" stroke="#8d6bb4" stroke-width="3" /><text x="860" y="535" text-anchor="middle" font-family="Source Han Sans SC, Microsoft YaHei, sans-serif" font-size="21" font-weight="700" fill="#8d6bb4">后透镜组</text><line x1="650" y1="70" x2="650" y2="190" stroke="#334e68" stroke-width="8" stroke-linecap="round" /><line x1="650" y1="390" x2="650" y2="510" stroke="#334e68" stroke-width="8" stroke-linecap="round" /><text x="650" y="48" text-anchor="middle" font-family="Source Han Sans SC, Microsoft YaHei, sans-serif" font-size="22" font-weight="700" fill="#243b53">孔径光阑</text><text x="650" y="325" text-anchor="middle" font-family="Source Han Sans SC, Microsoft YaHei, sans-serif" font-size="18" font-weight="400" fill="#627d98">真实机械开口</text><ellipse cx="480" cy="290" rx="22" ry="118" fill="none" stroke="#2f7ba8" stroke-width="4" stroke-dasharray="12 8" /><text x="480" y="122" text-anchor="middle" font-family="Source Han Sans SC, Microsoft YaHei, sans-serif" font-size="24" font-weight="700" fill="#2f7ba8">入瞳</text><text x="480" y="154" text-anchor="middle" font-family="Source Han Sans SC, Microsoft YaHei, sans-serif" font-size="18" font-weight="600" fill="#2f7ba8">物方看到的光阑像</text><ellipse cx="1025" cy="290" rx="24" ry="138" fill="none" stroke="#a24862" stroke-width="4" stroke-dasharray="12 8" /><text x="1025" y="112" text-anchor="middle" font-family="Source Han Sans SC, Microsoft YaHei, sans-serif" font-size="24" font-weight="700" fill="#a24862">出瞳</text><text x="1025" y="144" text-anchor="middle" font-family="Source Han Sans SC, Microsoft YaHei, sans-serif" font-size="18" font-weight="600" fill="#a24862">像方看到的光阑像</text><line x1="430" y1="172" x2="430" y2="408" stroke="#2f7ba8" stroke-width="2" stroke-linecap="round" /><line x1="420" y1="172" x2="440" y2="172" stroke="#2f7ba8" stroke-width="2" stroke-linecap="round" /><line x1="420" y1="408" x2="440" y2="408" stroke="#2f7ba8" stroke-width="2" stroke-linecap="round" /><text x="405" y="295" text-anchor="middle" font-family="Source Han Sans SC, Microsoft YaHei, sans-serif" font-size="20" font-weight="600" fill="#2f7ba8">Dₑₙ</text><line x1="1070" y1="152" x2="1070" y2="428" stroke="#a24862" stroke-width="2" stroke-linecap="round" /><line x1="1060" y1="152" x2="1080" y2="152" stroke="#a24862" stroke-width="2" stroke-linecap="round" /><line x1="1060" y1="428" x2="1080" y2="428" stroke="#a24862" stroke-width="2" stroke-linecap="round" /><text x="1100" y="295" text-anchor="middle" font-family="Source Han Sans SC, Microsoft YaHei, sans-serif" font-size="20" font-weight="600" fill="#a24862">Dₑₓ</text><text x="120" y="200" text-anchor="middle" font-family="Source Han Sans SC, Microsoft YaHei, sans-serif" font-size="20" font-weight="600" fill="#2f7ba8">从物方看进去</text><line x1="130" y1="225" x2="454" y2="172" stroke="#3b82b5" stroke-width="3" stroke-linecap="round" marker-end="url(#arrow-blue)" /><line x1="130" y1="355" x2="454" y2="408" stroke="#3b82b5" stroke-width="3" stroke-linecap="round" /><line x1="506" y1="172" x2="650" y2="190" stroke="#3b82b5" stroke-width="2" stroke-linecap="round" stroke-dasharray="8 6" /><line x1="506" y1="408" x2="650" y2="390" stroke="#3b82b5" stroke-width="2" stroke-linecap="round" stroke-dasharray="8 6" /><text x="1220" y="200" text-anchor="middle" font-family="Source Han Sans SC, Microsoft YaHei, sans-serif" font-size="20" font-weight="600" fill="#a24862">从像方看回来</text><line x1="1210" y1="225" x2="1052" y2="152" stroke="#c85b73" stroke-width="3" stroke-linecap="round" marker-end="url(#arrow-red)" /><line x1="1210" y1="355" x2="1052" y2="428" stroke="#c85b73" stroke-width="3" stroke-linecap="round" /><line x1="998" y1="152" x2="650" y2="190" stroke="#c85b73" stroke-width="2" stroke-linecap="round" stroke-dasharray="8 6" /><line x1="998" y1="428" x2="650" y2="390" stroke="#c85b73" stroke-width="2" stroke-linecap="round" stroke-dasharray="8 6" /><text x="675" y="600" text-anchor="middle" font-family="Source Han Sans SC, Microsoft YaHei, sans-serif" font-size="19" font-weight="400" fill="#627d98">虚线椭圆是同一个孔径光阑经前后镜组形成的像，位置和直径可与机械开口不同</text></svg>