<?xml version='1.0' encoding='utf-8'?>
<svg xmlns="http://www.w3.org/2000/svg" width="1400" height="650" viewBox="0 0 1400 650" role="img" aria-label="光圈形状与衍射星芒"><defs><marker id="arrow-blue" markerWidth="10" markerHeight="8" refX="9" refY="4" orient="auto" markerUnits="strokeWidth"><path d="M 0 0 L 10 4 L 0 8 z" fill="#3b82b5" /></marker><marker id="arrow-red" markerWidth="10" markerHeight="8" refX="9" refY="4" orient="auto" markerUnits="strokeWidth"><path d="M 0 0 L 10 4 L 0 8 z" fill="#c85b73" /></marker><marker id="arrow-dark" markerWidth="10" markerHeight="8" refX="9" refY="4" orient="auto" markerUnits="strokeWidth"><path d="M 0 0 L 10 4 L 0 8 z" fill="#334e68" /></marker><marker id="arrow-green" markerWidth="10" markerHeight="8" refX="9" refY="4" orient="auto" markerUnits="strokeWidth"><path d="M 0 0 L 10 4 L 0 8 z" fill="#4d8c6a" /></marker></defs><rect width="1400" height="650" fill="#fbfdff" /><text x="700.0" y="43" text-anchor="middle" font-family="Source Han Sans SC, Microsoft YaHei, sans-serif" font-size="30" font-weight="700" fill="#102a43">孔径边缘决定远场方向结构</text><circle cx="240" cy="245" r="105" fill="#d9edf9" stroke="#4b8bbd" stroke-width="4" /><text x="240" y="90" text-anchor="middle" font-family="Source Han Sans SC, Microsoft YaHei, sans-serif" font-size="24" font-weight="700" fill="#243b53">圆孔</text><circle cx="240" cy="470" r="16" fill="#fff3b0" stroke="#d5962d" stroke-width="3" /><circle cx="240" cy="470" r="38" fill="none" stroke="#d5962d" stroke-width="3" stroke-opacity="0.4" /><circle cx="240" cy="470" r="62" fill="none" stroke="#d5962d" stroke-width="3" stroke-opacity="0.25" /><circle cx="240" cy="470" r="88" fill="none" stroke="#d5962d" stroke-width="3" stroke-opacity="0.14" /><text x="240" y="610" text-anchor="middle" font-family="Source Han Sans SC, Microsoft YaHei, sans-serif" font-size="20" font-weight="700" fill="#7b4b74">艾里环</text><polygon points="700.0,137.0 793.5,191.0 793.5,299.0 700.0,353.0 606.5,299.0 606.5,191.0" fill="#e8f5ec" stroke="#4d8c6a" stroke-width="4" /><text x="700" y="90" text-anchor="middle" font-family="Source Han Sans SC, Microsoft YaHei, sans-serif" font-size="24" font-weight="700" fill="#243b53">六边形</text><circle cx="700" cy="470" r="16" fill="#fff3b0" stroke="#d5962d" stroke-width="3" /><line x1="700" y1="470" x2="805.0" y2="470.0" stroke="#d5962d" stroke-width="3" stroke-linecap="round" /><line x1="700" y1="470" x2="741.0" y2="541.014083110324" stroke="#d5962d" stroke-width="3" stroke-linecap="round" /><line x1="700" y1="470" x2="647.5" y2="560.932667397366" stroke="#d5962d" stroke-width="3" stroke-linecap="round" /><line x1="700" y1="470" x2="618.0" y2="470.0" stroke="#d5962d" stroke-width="3" stroke-linecap="round" /><line x1="700" y1="470" x2="647.5" y2="379.06733260263394" stroke="#d5962d" stroke-width="3" stroke-linecap="round" /><line x1="700" y1="470" x2="741.0" y2="398.98591688967605" stroke="#d5962d" stroke-width="3" stroke-linecap="round" /><text x="700" y="610" text-anchor="middle" font-family="Source Han Sans SC, Microsoft YaHei, sans-serif" font-size="20" font-weight="700" fill="#7b4b74">6 条主星芒</text><polygon points="1160.0,137.0 1244.4,177.7 1265.3,269.0 1206.9,342.3 1113.1,342.3 1054.7,269.0 1075.6,177.7" fill="#fbe9ee" stroke="#c2677e" stroke-width="4" /><text x="1160" y="90" text-anchor="middle" font-family="Source Han Sans SC, Microsoft YaHei, sans-serif" font-size="24" font-weight="700" fill="#243b53">七边形</text><circle cx="1160" cy="470" r="16" fill="#fff3b0" stroke="#d5962d" stroke-width="3" /><line x1="1160" y1="470" x2="1265.0" y2="470.0" stroke="#d5962d" stroke-width="3" stroke-linecap="round" /><line x1="1160" y1="470" x2="1233.8794471679985" y2="505.57846660763977" stroke="#d5962d" stroke-width="3" stroke-linecap="round" /><line x1="1160" y1="470" x2="1225.466429195167" y2="552.0923056591431" stroke="#d5962d" stroke-width="3" stroke-linecap="round" /><line x1="1160" y1="470" x2="1178.2467165844178" y2="549.9440887989095" stroke="#d5962d" stroke-width="3" stroke-linecap="round" /><line x1="1160" y1="470" x2="1136.635301934587" y2="572.3674307790915" stroke="#d5962d" stroke-width="3" stroke-linecap="round" /><line x1="1160" y1="470" x2="1108.8738362475838" y2="534.1101815623784" stroke="#d5962d" stroke-width="3" stroke-linecap="round" /><line x1="1160" y1="470" x2="1065.398268870246" y2="515.5577926073436" stroke="#d5962d" stroke-width="3" stroke-linecap="round" /><line x1="1160" y1="470" x2="1078.0" y2="470.0" stroke="#d5962d" stroke-width="3" stroke-linecap="round" /><line x1="1160" y1="470" x2="1065.398268870246" y2="424.4422073926564" stroke="#d5962d" stroke-width="3" stroke-linecap="round" /><line x1="1160" y1="470" x2="1108.8738362475838" y2="405.88981843762156" stroke="#d5962d" stroke-width="3" stroke-linecap="round" /><line x1="1160" y1="470" x2="1136.635301934587" y2="367.6325692209085" stroke="#d5962d" stroke-width="3" stroke-linecap="round" /><line x1="1160" y1="470" x2="1178.2467165844178" y2="390.05591120109045" stroke="#d5962d" stroke-width="3" stroke-linecap="round" /><line x1="1160" y1="470" x2="1225.466429195167" y2="387.9076943408569" stroke="#d5962d" stroke-width="3" stroke-linecap="round" /><line x1="1160" y1="470" x2="1233.8794471679985" y2="434.4215333923603" stroke="#d5962d" stroke-width="3" stroke-linecap="round" /><text x="1160" y="610" text-anchor="middle" font-family="Source Han Sans SC, Microsoft YaHei, sans-serif" font-size="20" font-weight="700" fill="#7b4b74">14 条主星芒</text><line x1="470" y1="75" x2="470" y2="620" stroke="#d7e0e7" stroke-width="2" stroke-linecap="round" /><line x1="930" y1="75" x2="930" y2="620" stroke="#d7e0e7" stroke-width="2" stroke-linecap="round" /></svg>