<?xml version='1.0' encoding='utf-8'?>
<svg xmlns="http://www.w3.org/2000/svg" width="1400" height="630" viewBox="0 0 1400 630" role="img" aria-label="离轴像散与场曲"><defs><marker id="arrow-blue" markerWidth="10" markerHeight="8" refX="9" refY="4" orient="auto" markerUnits="strokeWidth"><path d="M 0 0 L 10 4 L 0 8 z" fill="#3b82b5" /></marker><marker id="arrow-red" markerWidth="10" markerHeight="8" refX="9" refY="4" orient="auto" markerUnits="strokeWidth"><path d="M 0 0 L 10 4 L 0 8 z" fill="#c85b73" /></marker><marker id="arrow-dark" markerWidth="10" markerHeight="8" refX="9" refY="4" orient="auto" markerUnits="strokeWidth"><path d="M 0 0 L 10 4 L 0 8 z" fill="#334e68" /></marker><marker id="arrow-green" markerWidth="10" markerHeight="8" refX="9" refY="4" orient="auto" markerUnits="strokeWidth"><path d="M 0 0 L 10 4 L 0 8 z" fill="#4d8c6a" /></marker></defs><rect width="1400" height="630" fill="#fbfdff" /><text x="700.0" y="42" text-anchor="middle" font-family="Source Han Sans SC, Microsoft YaHei, sans-serif" font-size="30" font-weight="700" fill="#102a43">弧矢、切向焦面与平面传感器</text><text x="340" y="92" text-anchor="middle" font-family="Source Han Sans SC, Microsoft YaHei, sans-serif" font-size="23" font-weight="700" fill="#7b4b74">像散：两个正交焦线</text><ellipse cx="130" cy="325" rx="24" ry="145" fill="#eef2fa" stroke="#8a69b4" stroke-width="3" /><line x1="130" y1="200" x2="590" y2="315.0" stroke="#8a69b4" stroke-width="2" stroke-linecap="round" /><line x1="130" y1="250" x2="590" y2="319.0" stroke="#8a69b4" stroke-width="2" stroke-linecap="round" /><line x1="130" y1="400" x2="590" y2="331.0" stroke="#8a69b4" stroke-width="2" stroke-linecap="round" /><line x1="130" y1="450" x2="590" y2="335.0" stroke="#8a69b4" stroke-width="2" stroke-linecap="round" /><line x1="420" y1="260" x2="420" y2="390" stroke="#3b82b5" stroke-width="9" stroke-linecap="round" /><line x1="505" y1="325" x2="610" y2="325" stroke="#c85b73" stroke-width="9" stroke-linecap="round" /><text x="420" y="235" text-anchor="middle" font-family="Source Han Sans SC, Microsoft YaHei, sans-serif" font-size="18" font-weight="700" fill="#285b7a">切向焦线</text><text x="555" y="355" text-anchor="middle" font-family="Source Han Sans SC, Microsoft YaHei, sans-serif" font-size="18" font-weight="700" fill="#a24862">弧矢焦线</text><circle cx="465" cy="325" r="22" fill="#cbb8df" fill-opacity=".7" stroke="#8a69b4" stroke-width="2" /><text x="465" y="375" text-anchor="middle" font-family="Source Han Sans SC, Microsoft YaHei, sans-serif" font-size="17" font-weight="400" fill="#7b4b74">最小弥散圆</text><line x1="700" y1="80" x2="700" y2="560" stroke="#d7e0e7" stroke-width="2" stroke-linecap="round" /><text x="1050" y="92" text-anchor="middle" font-family="Source Han Sans SC, Microsoft YaHei, sans-serif" font-size="23" font-weight="700" fill="#397456">场曲：最佳焦面不平</text><line x1="1225" y1="150" x2="1225" y2="515" stroke="#334e68" stroke-width="6" stroke-linecap="round" /><text x="1225" y="540" text-anchor="middle" font-family="Source Han Sans SC, Microsoft YaHei, sans-serif" font-size="19" font-weight="700" fill="#243b53">平面传感器</text><polyline points="1119.16,170.00 1115.70,173.03 1112.32,176.06 1109.00,179.09 1105.76,182.12 1102.58,185.15 1099.47,188.18 1096.42,191.21 1093.45,194.24 1090.54,197.27 1087.70,200.30 1084.93,203.33 1082.23,206.36 1079.60,209.39 1077.03,212.42 1074.53,215.45 1072.10,218.48 1069.74,221.52 1067.45,224.55 1065.22,227.58 1063.07,230.61 1060.98,233.64 1058.96,236.67 1057.00,239.70 1055.12,242.73 1053.30,245.76 1051.55,248.79 1049.87,251.82 1048.26,254.85 1046.72,257.88 1045.24,260.91 1043.84,263.94 1042.50,266.97 1041.23,270.00 1040.02,273.03 1038.89,276.06 1037.82,279.09 1036.82,282.12 1035.89,285.15 1035.03,288.18 1034.24,291.21 1033.51,294.24 1032.85,297.27 1032.26,300.30 1031.74,303.33 1031.29,306.36 1030.90,309.39 1030.59,312.42 1030.34,315.45 1030.16,318.48 1030.05,321.52 1030.00,324.55 1030.02,327.58 1030.12,330.61 1030.28,333.64 1030.51,336.67 1030.80,339.70 1031.17,342.73 1031.60,345.76 1032.10,348.79 1032.67,351.82 1033.31,354.85 1034.01,357.88 1034.79,360.91 1035.63,363.94 1036.54,366.97 1037.51,370.00 1038.56,373.03 1039.68,376.06 1040.86,379.09 1042.11,382.12 1043.43,385.15 1044.81,388.18 1046.27,391.21 1047.79,394.24 1049.38,397.27 1051.04,400.30 1052.77,403.33 1054.57,406.36 1056.43,409.39 1058.36,412.42 1060.36,415.45 1062.43,418.48 1064.57,421.52 1066.77,424.55 1069.05,427.58 1071.39,430.61 1073.80,433.64 1076.27,436.67 1078.82,439.70 1081.43,442.73 1084.11,445.76 1086.86,448.79 1089.68,451.82 1092.57,454.85 1095.52,457.88 1098.55,460.91 1101.64,463.94 1104.80,466.97 1108.02,470.00" stroke="#3b82b5" stroke-width="4" fill="none" stroke-linejoin="round" stroke-linecap="round" /><polyline points="1087.31,170.00 1082.77,173.03 1078.32,176.06 1073.95,179.09 1069.68,182.12 1065.50,185.15 1061.40,188.18 1057.40,191.21 1053.48,194.24 1049.66,197.27 1045.92,200.30 1042.28,203.33 1038.72,206.36 1035.26,209.39 1031.88,212.42 1028.59,215.45 1025.40,218.48 1022.29,221.52 1019.27,224.55 1016.35,227.58 1013.51,230.61 1010.76,233.64 1008.10,236.67 1005.53,239.70 1003.05,242.73 1000.66,245.76 998.36,248.79 996.15,251.82 994.03,254.85 992.00,257.88 990.06,260.91 988.21,263.94 986.44,266.97 984.77,270.00 983.19,273.03 981.69,276.06 980.29,279.09 978.98,282.12 977.75,285.15 976.62,288.18 975.57,291.21 974.62,294.24 973.75,297.27 972.98,300.30 972.29,303.33 971.70,306.36 971.19,309.39 970.77,312.42 970.44,315.45 970.21,318.48 970.06,321.52 970.00,324.55 970.03,327.58 970.15,330.61 970.36,333.64 970.66,336.67 971.05,339.70 971.53,342.73 972.10,345.76 972.76,348.79 973.51,351.82 974.35,354.85 975.28,357.88 976.30,360.91 977.40,363.94 978.60,366.97 979.89,370.00 981.26,373.03 982.73,376.06 984.29,379.09 985.93,382.12 987.67,385.15 989.49,388.18 991.41,391.21 993.41,394.24 995.50,397.27 997.69,400.30 999.96,403.33 1002.32,406.36 1004.78,409.39 1007.32,412.42 1009.95,415.45 1012.67,418.48 1015.48,421.52 1018.39,424.55 1021.38,427.58 1024.46,430.61 1027.63,433.64 1030.89,436.67 1034.24,439.70 1037.67,442.73 1041.20,445.76 1044.82,448.79 1048.53,451.82 1052.33,454.85 1056.21,457.88 1060.19,460.91 1064.26,463.94 1068.42,466.97 1072.66,470.00" stroke="#c85b73" stroke-width="4" fill="none" stroke-linejoin="round" stroke-linecap="round" /><polyline points="1103.23,170.00 1099.24,173.03 1095.32,176.06 1091.48,179.09 1087.72,182.12 1084.04,185.15 1080.43,188.18 1076.91,191.21 1073.47,194.24 1070.10,197.27 1066.81,200.30 1063.61,203.33 1060.48,206.36 1057.43,209.39 1054.46,212.42 1051.56,215.45 1048.75,218.48 1046.02,221.52 1043.36,224.55 1040.78,227.58 1038.29,230.61 1035.87,233.64 1033.53,236.67 1031.27,239.70 1029.08,242.73 1026.98,245.76 1024.96,248.79 1023.01,251.82 1021.15,254.85 1019.36,257.88 1017.65,260.91 1016.02,263.94 1014.47,266.97 1013.00,270.00 1011.61,273.03 1010.29,276.06 1009.06,279.09 1007.90,282.12 1006.82,285.15 1005.82,288.18 1004.91,291.21 1004.06,294.24 1003.30,297.27 1002.62,300.30 1002.02,303.33 1001.49,306.36 1001.05,309.39 1000.68,312.42 1000.39,315.45 1000.18,318.48 1000.05,321.52 1000.00,324.55 1000.03,327.58 1000.14,330.61 1000.32,333.64 1000.58,336.67 1000.93,339.70 1001.35,342.73 1001.85,345.76 1002.43,348.79 1003.09,351.82 1003.83,354.85 1004.64,357.88 1005.54,360.91 1006.52,363.94 1007.57,366.97 1008.70,370.00 1009.91,373.03 1011.20,376.06 1012.57,379.09 1014.02,382.12 1015.55,385.15 1017.15,388.18 1018.84,391.21 1020.60,394.24 1022.44,397.27 1024.37,400.30 1026.37,403.33 1028.45,406.36 1030.60,409.39 1032.84,412.42 1035.16,415.45 1037.55,418.48 1040.03,421.52 1042.58,424.55 1045.21,427.58 1047.92,430.61 1050.71,433.64 1053.58,436.67 1056.53,439.70 1059.55,442.73 1062.66,445.76 1065.84,448.79 1069.11,451.82 1072.45,454.85 1075.87,457.88 1079.37,460.91 1082.95,463.94 1086.61,466.97 1090.34,470.00" stroke="#4d8c6a" stroke-width="4" fill="none" stroke-linejoin="round" stroke-linecap="round" stroke-dasharray="10 7" /><text x="1100" y="185" text-anchor="middle" font-family="Source Han Sans SC, Microsoft YaHei, sans-serif" font-size="18" font-weight="700" fill="#285b7a">弧矢面</text><text x="1010" y="215" text-anchor="middle" font-family="Source Han Sans SC, Microsoft YaHei, sans-serif" font-size="18" font-weight="700" fill="#a24862">切向面</text><text x="1055" y="490" text-anchor="middle" font-family="Source Han Sans SC, Microsoft YaHei, sans-serif" font-size="18" font-weight="700" fill="#397456">平均 / Petzval 趋势</text></svg>