<?xml version='1.0' encoding='utf-8'?>
<svg xmlns="http://www.w3.org/2000/svg" width="1400" height="650" viewBox="0 0 1400 650" role="img" aria-label="反差与相位自动对焦模型"><defs><marker id="arrow-blue" markerWidth="10" markerHeight="8" refX="9" refY="4" orient="auto" markerUnits="strokeWidth"><path d="M 0 0 L 10 4 L 0 8 z" fill="#3b82b5" /></marker><marker id="arrow-red" markerWidth="10" markerHeight="8" refX="9" refY="4" orient="auto" markerUnits="strokeWidth"><path d="M 0 0 L 10 4 L 0 8 z" fill="#c85b73" /></marker><marker id="arrow-dark" markerWidth="10" markerHeight="8" refX="9" refY="4" orient="auto" markerUnits="strokeWidth"><path d="M 0 0 L 10 4 L 0 8 z" fill="#334e68" /></marker><marker id="arrow-green" markerWidth="10" markerHeight="8" refX="9" refY="4" orient="auto" markerUnits="strokeWidth"><path d="M 0 0 L 10 4 L 0 8 z" fill="#4d8c6a" /></marker></defs><rect width="1400" height="650" fill="#fbfdff" /><text x="700.0" y="43" text-anchor="middle" font-family="Source Han Sans SC, Microsoft YaHei, sans-serif" font-size="30" font-weight="700" fill="#102a43">自动对焦：极值搜索与子孔径视差</text><line x1="700" y1="80" x2="700" y2="590" stroke="#c6d2dc" stroke-width="2" stroke-linecap="round" /><text x="350" y="92" text-anchor="middle" font-family="Source Han Sans SC, Microsoft YaHei, sans-serif" font-size="25" font-weight="700" fill="#285b7a">反差检测</text><line x1="100" y1="500" x2="640" y2="500" stroke="#334e68" stroke-width="2" stroke-linecap="round" marker-end="url(#arrow-dark)" /><line x1="100" y1="500" x2="100" y2="145" stroke="#334e68" stroke-width="2" stroke-linecap="round" marker-end="url(#arrow-dark)" /><text x="630" y="532" text-anchor="middle" font-family="Source Han Sans SC, Microsoft YaHei, sans-serif" font-size="19" font-weight="400" fill="#627d98">镜头位置 a</text><text x="80" y="155" text-anchor="middle" font-family="Source Han Sans SC, Microsoft YaHei, sans-serif" font-size="19" font-weight="400" fill="#627d98">J(a)</text><polyline points="100.00,488.60 102.26,488.45 104.52,488.30 106.78,488.14 109.04,487.95 111.30,487.70 113.56,487.38 115.82,486.97 118.08,486.44 120.33,485.78 122.59,484.98 124.85,484.03 127.11,482.92 129.37,481.67 131.63,480.27 133.89,478.73 136.15,477.07 138.41,475.31 140.67,473.46 142.93,471.57 145.19,469.64 147.45,467.71 149.71,465.80 151.97,463.94 154.23,462.14 156.49,460.41 158.74,458.78 161.00,457.25 163.26,455.81 165.52,454.46 167.78,453.19 170.04,451.97 172.30,450.78 174.56,449.60 176.82,448.38 179.08,447.11 181.34,445.73 183.60,444.22 185.86,442.54 188.12,440.66 190.38,438.56 192.64,436.22 194.90,433.63 197.15,430.79 199.41,427.69 201.67,424.36 203.93,420.82 206.19,417.09 208.45,413.20 210.71,409.21 212.97,405.15 215.23,401.07 217.49,397.02 219.75,393.04 222.01,389.17 224.27,385.46 226.53,381.92 228.79,378.58 231.05,375.46 233.31,372.55 235.56,369.84 237.82,367.31 240.08,364.94 242.34,362.67 244.60,360.48 246.86,358.30 249.12,356.07 251.38,353.75 253.64,351.28 255.90,348.59 258.16,345.65 260.42,342.43 262.68,338.88 264.94,335.01 267.20,330.80 269.46,326.27 271.72,321.44 273.97,316.36 276.23,311.08 278.49,305.66 280.75,300.18 283.01,294.71 285.27,289.33 287.53,284.13 289.79,279.18 292.05,274.56 294.31,270.33 296.57,266.54 298.83,263.22 301.09,260.39 303.35,258.05 305.61,256.19 307.87,254.76 310.13,253.71 312.38,252.99 314.64,252.49 316.90,252.14 319.16,251.84 321.42,251.49 323.68,250.98 325.94,250.24 328.20,249.19 330.46,247.75 332.72,245.89 334.98,243.58 337.24,240.80 339.50,237.60 341.76,234.00 344.02,230.08 346.28,225.92 348.54,221.62 350.79,217.32 353.05,213.13 355.31,209.19 357.57,205.64 359.83,202.60 362.09,200.19 364.35,198.50 366.61,197.61 368.87,197.57 371.13,198.69 373.39,200.85 375.65,203.67 377.91,207.01 380.17,210.74 382.43,214.72 384.69,218.81 386.95,222.87 389.21,226.78 391.46,230.44 393.72,233.74 395.98,236.62 398.24,239.05 400.50,240.99 402.76,242.46 405.02,243.49 407.28,244.12 409.54,244.43 411.80,244.50 414.06,244.43 416.32,244.31 418.58,244.26 420.84,244.38 423.10,244.76 425.36,245.48 427.62,246.62 429.87,248.23 432.13,250.35 434.39,253.00 436.65,256.18 438.91,259.86 441.17,264.01 443.43,268.57 445.69,273.48 447.95,278.66 450.21,284.03 452.47,289.51 454.73,295.00 456.99,300.42 459.25,305.71 461.51,310.79 463.77,315.61 466.03,320.12 468.28,324.31 470.54,328.16 472.80,331.67 475.06,334.85 477.32,337.75 479.58,340.39 481.84,342.82 484.10,345.11 486.36,347.32 488.62,349.49 490.88,351.69 493.14,353.97 495.40,356.39 497.66,358.98 499.92,361.77 502.18,364.79 504.44,368.04 506.69,371.53 508.95,375.23 511.21,379.12 513.47,383.18 515.73,387.36 517.99,391.63 520.25,395.92 522.51,400.20 524.77,404.41 527.03,408.50 529.29,412.44 531.55,416.19 533.81,419.71 536.07,422.98 538.33,426.00 540.59,428.75 542.85,431.24 545.10,433.48 547.36,435.50 549.62,437.31 551.88,438.95 554.14,440.46 556.40,441.87 558.66,443.21 560.92,444.53 563.18,445.85 565.44,447.22 567.70,448.64 569.96,450.15 572.22,451.75 574.48,453.45 576.74,455.26 579.00,457.16 581.26,459.15 583.51,461.20 585.77,463.29 588.03,465.41 590.29,467.52 592.55,469.59 594.81,471.61 597.07,473.53 599.33,475.35 601.59,477.04 603.85,478.58 606.11,479.97 608.37,481.19 610.63,482.25 612.89,483.15 615.15,483.90 617.41,484.52 619.67,485.02 621.92,485.41 624.18,485.73 626.44,485.99 628.70,486.22 630.96,486.43 633.22,486.66 635.48,486.91 637.74,487.21 640.00,487.56" stroke="#3b82b5" stroke-width="4" fill="none" stroke-linejoin="round" stroke-linecap="round" /><line x1="370.0" y1="500" x2="370.0" y2="210" stroke="#4d8c6a" stroke-width="2" stroke-linecap="round" stroke-dasharray="8 7" /><text x="370.0" y="185" text-anchor="middle" font-family="Source Han Sans SC, Microsoft YaHei, sans-serif" font-size="20" font-weight="700" fill="#397456">arg max J</text><text x="350" y="570" text-anchor="middle" font-family="Source Han Sans SC, Microsoft YaHei, sans-serif" font-size="20" font-weight="400" fill="#486581">需要搜索；局部峰值会误导</text><text x="1050" y="92" text-anchor="middle" font-family="Source Han Sans SC, Microsoft YaHei, sans-serif" font-size="25" font-weight="700" fill="#a24862">相位检测</text><line x1="760" y1="320" x2="1340" y2="320" stroke="#9fb3c2" stroke-width="2" stroke-linecap="round" /><ellipse cx="830" cy="320" rx="28" ry="150" fill="#eef6fb" stroke="#5595c5" stroke-width="3" /><circle cx="830" cy="245" r="13" fill="#3b82b5" /><line x1="830" y1="245" x2="1280" y2="320" stroke="#3b82b5" stroke-width="3" stroke-linecap="round" /><circle cx="830" cy="395" r="13" fill="#c85b73" /><line x1="830" y1="395" x2="1280" y2="320" stroke="#c85b73" stroke-width="3" stroke-linecap="round" /><line x1="1170" y1="135" x2="1170" y2="515" stroke="#334e68" stroke-width="5" stroke-linecap="round" /><circle cx="1170" cy="301.7" r="9" fill="#3b82b5" /><circle cx="1170" cy="338.3" r="9" fill="#c85b73" /><line x1="1200" y1="301.6666666666667" x2="1200" y2="338.3333333333333" stroke="#7b4b74" stroke-width="3" stroke-linecap="round" /><text x="1220" y="325" text-anchor="start" font-family="Source Han Sans SC, Microsoft YaHei, sans-serif" font-size="23" font-weight="700" fill="#7b4b74">δ</text><text x="1170" y="120" text-anchor="middle" font-family="Source Han Sans SC, Microsoft YaHei, sans-serif" font-size="20" font-weight="700" fill="#243b53">传感器 v₀</text><text x="1280" y="295" text-anchor="middle" font-family="Source Han Sans SC, Microsoft YaHei, sans-serif" font-size="20" font-weight="700" fill="#486581">真实焦点 v</text><text x="1050" y="570" text-anchor="middle" font-family="Source Han Sans SC, Microsoft YaHei, sans-serif" font-size="20" font-weight="400" fill="#7b4b74">位移符号给出方向，幅度估计离焦量</text></svg>