<?xml version='1.0' encoding='utf-8'?>
<svg xmlns="http://www.w3.org/2000/svg" width="1500" height="780" viewBox="0 0 1500 780" role="img" aria-label="多帧平均的信噪比收益和失效方式"><defs><marker id="arrow-blue" markerWidth="10" markerHeight="8" refX="9" refY="4" orient="auto" markerUnits="strokeWidth"><path d="M 0 0 L 10 4 L 0 8 z" fill="#3b82b5" /></marker><marker id="arrow-dark" markerWidth="10" markerHeight="8" refX="9" refY="4" orient="auto" markerUnits="strokeWidth"><path d="M 0 0 L 10 4 L 0 8 z" fill="#334e68" /></marker><marker id="arrow-red" markerWidth="10" markerHeight="8" refX="9" refY="4" orient="auto" markerUnits="strokeWidth"><path d="M 0 0 L 10 4 L 0 8 z" fill="#c85b73" /></marker><marker id="arrow-green" markerWidth="10" markerHeight="8" refX="9" refY="4" orient="auto" markerUnits="strokeWidth"><path d="M 0 0 L 10 4 L 0 8 z" fill="#4d8c6a" /></marker><marker id="arrow-gold" markerWidth="10" markerHeight="8" refX="9" refY="4" orient="auto" markerUnits="strokeWidth"><path d="M 0 0 L 10 4 L 0 8 z" fill="#c58a2d" /></marker><marker id="arrow-purple" markerWidth="10" markerHeight="8" refX="9" refY="4" orient="auto" markerUnits="strokeWidth"><path d="M 0 0 L 10 4 L 0 8 z" fill="#7b4b74" /></marker></defs><rect width="1500" height="780" fill="#fbfdff" /><text x="750" y="43" text-anchor="middle" font-family="Source Han Sans SC, Microsoft YaHei, sans-serif" font-size="30" font-weight="700" fill="#102a43">独立噪声按 1/√N 下降；相关误差、错位和运动不会自动平均掉</text><line x1="100" y1="570" x2="770" y2="570" stroke="#334e68" stroke-width="2" stroke-linecap="round" marker-end="url(#arrow-dark)" /><line x1="100" y1="570" x2="100" y2="135" stroke="#334e68" stroke-width="2" stroke-linecap="round" marker-end="url(#arrow-dark)" /><text x="770" y="601" text-anchor="end" font-family="Source Han Sans SC, Microsoft YaHei, sans-serif" font-size="15" font-weight="400" fill="#627d98">帧数 N</text><text x="96" y="123" text-anchor="start" font-family="Source Han Sans SC, Microsoft YaHei, sans-serif" font-size="15" font-weight="400" fill="#627d98">输出噪声标准差</text><polyline points="100.00,155.00 110.63,276.55 121.27,330.40 131.90,362.50 142.54,384.41 153.17,400.58 163.81,413.14 174.44,423.28 185.08,431.67 195.71,438.77 206.35,444.87 216.98,450.20 227.62,454.90 238.25,459.09 248.89,462.85 259.52,466.25 270.16,469.35 280.79,472.18 291.43,474.79 302.06,477.20 312.70,479.44 323.33,481.52 333.97,483.47 344.60,485.29 355.24,487.00 365.87,488.61 376.51,490.13 387.14,491.57 397.78,492.94 408.41,494.23 419.05,495.46 429.68,496.64 440.32,497.76 450.95,498.83 461.59,499.85 472.22,500.83 482.86,501.77 493.49,502.68 504.13,503.55 514.76,504.38 525.40,505.19 536.03,505.96 546.67,506.71 557.30,507.44 567.94,508.14 578.57,508.81 589.21,509.47 599.84,510.10 610.48,510.71 621.11,511.31 631.75,511.89 642.38,512.45 653.02,513.00 663.65,513.53 674.29,514.04 684.92,514.54 695.56,515.03 706.19,515.51 716.83,515.97 727.46,516.42 738.10,516.86 748.73,517.29 759.37,517.71 770.00,518.12" stroke="#3b82b5" stroke-width="6" fill="none" stroke-linejoin="round" stroke-linecap="round" /><polyline points="100.00,155.00 110.63,262.23 121.27,307.53 131.90,333.41 142.54,350.40 153.17,362.50 163.81,371.59 174.44,378.69 185.08,384.41 195.71,389.11 206.35,393.04 216.98,396.39 227.62,399.28 238.25,401.79 248.89,404.00 259.52,405.96 270.16,407.70 280.79,409.27 291.43,410.69 302.06,411.97 312.70,413.14 323.33,414.22 333.97,415.20 344.60,416.11 355.24,416.96 365.87,417.74 376.51,418.46 387.14,419.14 397.78,419.78 408.41,420.37 419.05,420.93 429.68,421.45 440.32,421.95 450.95,422.41 461.59,422.86 472.22,423.28 482.86,423.67 493.49,424.05 504.13,424.41 514.76,424.75 525.40,425.08 536.03,425.39 546.67,425.68 557.30,425.97 567.94,426.24 578.57,426.50 589.21,426.75 599.84,426.99 610.48,427.22 621.11,427.44 631.75,427.66 642.38,427.86 653.02,428.06 663.65,428.25 674.29,428.43 684.92,428.61 695.56,428.78 706.19,428.95 716.83,429.11 727.46,429.27 738.10,429.42 748.73,429.56 759.37,429.70 770.00,429.84" stroke="#c85b73" stroke-width="6" fill="none" stroke-linejoin="round" stroke-linecap="round" /><line x1="500" y1="185" x2="570" y2="185" stroke="#3b82b5" stroke-width="6" stroke-linecap="round" /><text x="590" y="192" text-anchor="start" font-family="Source Han Sans SC, Microsoft YaHei, sans-serif" font-size="17" font-weight="700" fill="#3b82b5">独立噪声</text><line x1="500" y1="230" x2="570" y2="230" stroke="#c85b73" stroke-width="6" stroke-linecap="round" /><text x="590" y="237" text-anchor="start" font-family="Source Han Sans SC, Microsoft YaHei, sans-serif" font-size="17" font-weight="700" fill="#c85b73">含相关/固定项</text><text x="140" y="615" text-anchor="start" font-family="Source Han Sans SC, Microsoft YaHei, sans-serif" font-size="16" font-weight="400" fill="#486581">4 帧约降 1 档标准差；16 帧约降 2 档，但帧数翻倍收益递减</text><rect x="875" y="125" width="270" height="165" rx="16" fill="#ffffff" stroke="#b9c7d3" stroke-width="2.5" /><text x="1010.0" y="167" text-anchor="middle" font-family="Source Han Sans SC, Microsoft YaHei, sans-serif" font-size="19" font-weight="700" fill="#102a43">静态且配准</text><text x="1010.0" y="201" text-anchor="middle" font-family="Source Han Sans SC, Microsoft YaHei, sans-serif" font-size="15" font-weight="400" fill="#486581">随机颗粒变细</text><circle cx="1010.0" cy="237" r="42" fill="#4d8c6a" fill-opacity="0.08" /><circle cx="1010.0" cy="237" r="27" fill="#4d8c6a" fill-opacity="0.16" /><circle cx="1010.0" cy="237" r="13" fill="#4d8c6a" fill-opacity="0.68" /><rect x="875" y="330" width="250" height="165" rx="16" fill="#ffffff" stroke="#b9c7d3" stroke-width="2.5" /><text x="1000.0" y="372" text-anchor="middle" font-family="Source Han Sans SC, Microsoft YaHei, sans-serif" font-size="19" font-weight="700" fill="#102a43">主体运动</text><text x="1000.0" y="406" text-anchor="middle" font-family="Source Han Sans SC, Microsoft YaHei, sans-serif" font-size="15" font-weight="400" fill="#486581">出现重影或被抹除</text><circle cx="975.0" cy="442" r="23" fill="#c85b73" fill-opacity="0.35" /><circle cx="1000.0" cy="442" r="23" fill="#c85b73" fill-opacity="0.75" /><circle cx="1028.0" cy="442" r="23" fill="#c85b73" fill-opacity="0.35" /><rect x="1180" y="330" width="250" height="165" rx="16" fill="#ffffff" stroke="#b9c7d3" stroke-width="2.5" /><text x="1305.0" y="372" text-anchor="middle" font-family="Source Han Sans SC, Microsoft YaHei, sans-serif" font-size="19" font-weight="700" fill="#102a43">视差 / 错配</text><text x="1305.0" y="406" text-anchor="middle" font-family="Source Han Sans SC, Microsoft YaHei, sans-serif" font-size="15" font-weight="400" fill="#486581">不同深度双边缘</text><rect x="1249.0" y="417" width="76" height="50" rx="7" fill="#3b82b5" fill-opacity=".38" /><rect x="1285.0" y="417" width="76" height="50" rx="7" fill="#7b4b74" fill-opacity=".38" /><line x1="1145" y1="207" x2="1280" y2="310" stroke="#9ab3c6" stroke-width="3" stroke-linecap="round" marker-end="url(#arrow-blue)" /><rect x="915" y="600" width="460" height="90" rx="16" fill="#fff7e8" stroke="#e8c77d" stroke-width="2.5" /><text x="1145.0" y="642" text-anchor="middle" font-family="Source Han Sans SC, Microsoft YaHei, sans-serif" font-size="18" font-weight="700" fill="#8a5f19">平均只消除帧间变化的零均值部分</text><text x="1145.0" y="676" text-anchor="middle" font-family="Source Han Sans SC, Microsoft YaHei, sans-serif" font-size="15" font-weight="400" fill="#486581">固定图样、模型偏差和稳定重影会留下来</text></svg>