<?xml version='1.0' encoding='utf-8'?>
<svg xmlns="http://www.w3.org/2000/svg" width="1500" height="760" viewBox="0 0 1500 760" role="img" aria-label="降噪强度的偏差方差权衡"><defs><marker id="arrow-blue" markerWidth="10" markerHeight="8" refX="9" refY="4" orient="auto" markerUnits="strokeWidth"><path d="M 0 0 L 10 4 L 0 8 z" fill="#3b82b5" /></marker><marker id="arrow-dark" markerWidth="10" markerHeight="8" refX="9" refY="4" orient="auto" markerUnits="strokeWidth"><path d="M 0 0 L 10 4 L 0 8 z" fill="#334e68" /></marker><marker id="arrow-red" markerWidth="10" markerHeight="8" refX="9" refY="4" orient="auto" markerUnits="strokeWidth"><path d="M 0 0 L 10 4 L 0 8 z" fill="#c85b73" /></marker><marker id="arrow-green" markerWidth="10" markerHeight="8" refX="9" refY="4" orient="auto" markerUnits="strokeWidth"><path d="M 0 0 L 10 4 L 0 8 z" fill="#4d8c6a" /></marker><marker id="arrow-gold" markerWidth="10" markerHeight="8" refX="9" refY="4" orient="auto" markerUnits="strokeWidth"><path d="M 0 0 L 10 4 L 0 8 z" fill="#c58a2d" /></marker><marker id="arrow-purple" markerWidth="10" markerHeight="8" refX="9" refY="4" orient="auto" markerUnits="strokeWidth"><path d="M 0 0 L 10 4 L 0 8 z" fill="#7b4b74" /></marker></defs><rect width="1500" height="760" fill="#fbfdff" /><text x="750" y="43" text-anchor="middle" font-family="Source Han Sans SC, Microsoft YaHei, sans-serif" font-size="30" font-weight="700" fill="#102a43">降噪强度增加时：随机起伏下降，结构偏差上升</text><line x1="125" y1="590" x2="1010" y2="590" stroke="#334e68" stroke-width="2" stroke-linecap="round" marker-end="url(#arrow-dark)" /><line x1="125" y1="590" x2="125" y2="125" stroke="#334e68" stroke-width="2" stroke-linecap="round" marker-end="url(#arrow-dark)" /><text x="1010" y="621" text-anchor="end" font-family="Source Han Sans SC, Microsoft YaHei, sans-serif" font-size="15" font-weight="400" fill="#627d98">降噪强度 λ</text><text x="121" y="113" text-anchor="start" font-family="Source Han Sans SC, Microsoft YaHei, sans-serif" font-size="15" font-weight="400" fill="#627d98">平均误差</text><polyline points="125.00,347.83 129.43,352.28 133.85,356.65 138.28,360.92 142.70,365.12 147.12,369.23 151.55,373.26 155.97,377.21 160.40,381.08 164.82,384.87 169.25,388.59 173.68,392.24 178.10,395.81 182.53,399.31 186.95,402.75 191.38,406.11 195.80,409.41 200.23,412.64 204.65,415.81 209.07,418.92 213.50,421.96 217.93,424.95 222.35,427.87 226.78,430.74 231.20,433.55 235.62,436.31 240.05,439.01 244.48,441.66 248.90,444.25 253.32,446.80 257.75,449.29 262.18,451.73 266.60,454.13 271.02,456.48 275.45,458.78 279.88,461.03 284.30,463.24 288.73,465.41 293.15,467.54 297.58,469.62 302.00,471.66 306.42,473.66 310.85,475.62 315.27,477.54 319.70,479.43 324.12,481.28 328.55,483.09 332.98,484.86 337.40,486.60 341.82,488.30 346.25,489.98 350.68,491.61 355.10,493.22 359.52,494.79 363.95,496.34 368.38,497.85 372.80,499.33 377.22,500.78 381.65,502.21 386.07,503.60 390.50,504.97 394.93,506.31 399.35,507.63 403.77,508.92 408.20,510.18 412.62,511.42 417.05,512.63 421.48,513.82 425.90,514.99 430.32,516.13 434.75,517.25 439.18,518.35 443.60,519.42 448.02,520.48 452.45,521.51 456.88,522.53 461.30,523.52 465.73,524.49 470.15,525.45 474.57,526.38 479.00,527.30 483.43,528.20 487.85,529.08 492.27,529.94 496.70,530.79 501.12,531.62 505.55,532.43 509.98,533.23 514.40,534.01 518.83,534.78 523.25,535.53 527.67,536.27 532.10,536.99 536.53,537.70 540.95,538.39 545.38,539.07 549.80,539.73 554.22,540.39 558.65,541.03 563.08,541.65 567.50,542.27 571.92,542.87 576.35,543.46 580.78,544.04 585.20,544.61 589.62,545.16 594.05,545.71 598.48,546.24 602.90,546.77 607.33,547.28 611.75,547.79 616.18,548.28 620.60,548.76 625.02,549.24 629.45,549.70 633.88,550.16 638.30,550.60 642.73,551.04 647.15,551.47 651.57,551.89 656.00,552.30 660.42,552.71 664.85,553.10 669.27,553.49 673.70,553.87 678.12,554.24 682.55,554.61 686.98,554.97 691.40,555.32 695.83,555.66 700.25,556.00 704.68,556.33 709.10,556.65 713.52,556.97 717.95,557.28 722.38,557.59 726.80,557.89 731.23,558.18 735.65,558.47 740.07,558.75 744.50,559.03 748.92,559.30 753.35,559.56 757.77,559.82 762.20,560.08 766.62,560.33 771.05,560.57 775.48,560.81 779.90,561.05 784.33,561.28 788.75,561.51 793.17,561.73 797.60,561.95 802.02,562.16 806.45,562.37 810.88,562.57 815.30,562.77 819.73,562.97 824.15,563.16 828.58,563.35 833.00,563.54 837.43,563.72 841.85,563.90 846.27,564.07 850.70,564.24 855.12,564.41 859.55,564.57 863.98,564.73 868.40,564.89 872.82,565.05 877.25,565.20 881.67,565.35 886.10,565.49 890.52,565.63 894.95,565.77 899.38,565.91 903.80,566.05 908.23,566.18 912.65,566.31 917.08,566.43 921.50,566.56 925.93,566.68 930.35,566.80 934.77,566.92 939.20,567.03 943.62,567.14 948.05,567.25 952.48,567.36 956.90,567.47 961.32,567.57 965.75,567.67 970.17,567.77 974.60,567.87 979.02,567.96 983.45,568.06 987.88,568.15 992.30,568.24 996.73,568.33 1001.15,568.42 1005.58,568.50 1010.00,568.58" stroke="#3b82b5" stroke-width="5" fill="none" stroke-linejoin="round" stroke-linecap="round" /><polyline points="125.00,575.59 129.43,575.58 133.85,575.58 138.28,575.56 142.70,575.55 147.12,575.52 151.55,575.49 155.97,575.45 160.40,575.41 164.82,575.35 169.25,575.29 173.68,575.22 178.10,575.15 182.53,575.06 186.95,574.97 191.38,574.87 195.80,574.76 200.23,574.64 204.65,574.52 209.07,574.38 213.50,574.24 217.93,574.09 222.35,573.92 226.78,573.75 231.20,573.57 235.62,573.39 240.05,573.19 244.48,572.98 248.90,572.76 253.32,572.54 257.75,572.30 262.18,572.05 266.60,571.80 271.02,571.53 275.45,571.26 279.88,570.97 284.30,570.68 288.73,570.37 293.15,570.06 297.58,569.74 302.00,569.40 306.42,569.05 310.85,568.70 315.27,568.33 319.70,567.96 324.12,567.57 328.55,567.17 332.98,566.77 337.40,566.35 341.82,565.92 346.25,565.48 350.68,565.03 355.10,564.57 359.52,564.10 363.95,563.62 368.38,563.12 372.80,562.62 377.22,562.10 381.65,561.58 386.07,561.04 390.50,560.49 394.93,559.93 399.35,559.36 403.77,558.78 408.20,558.19 412.62,557.59 417.05,556.97 421.48,556.35 425.90,555.71 430.32,555.06 434.75,554.40 439.18,553.73 443.60,553.05 448.02,552.35 452.45,551.65 456.88,550.93 461.30,550.20 465.73,549.46 470.15,548.71 474.57,547.94 479.00,547.17 483.43,546.38 487.85,545.58 492.27,544.77 496.70,543.95 501.12,543.11 505.55,542.26 509.98,541.41 514.40,540.54 518.83,539.65 523.25,538.76 527.67,537.85 532.10,536.94 536.53,536.01 540.95,535.06 545.38,534.11 549.80,533.14 554.22,532.16 558.65,531.17 563.08,530.17 567.50,529.15 571.92,528.13 576.35,527.09 580.78,526.03 585.20,524.97 589.62,523.89 594.05,522.80 598.48,521.70 602.90,520.59 607.33,519.46 611.75,518.32 616.18,517.17 620.60,516.01 625.02,514.83 629.45,513.64 633.88,512.44 638.30,511.22 642.73,510.00 647.15,508.76 651.57,507.51 656.00,506.24 660.42,504.96 664.85,503.67 669.27,502.37 673.70,501.05 678.12,499.73 682.55,498.38 686.98,497.03 691.40,495.66 695.83,494.28 700.25,492.89 704.68,491.48 709.10,490.06 713.52,488.63 717.95,487.19 722.38,485.73 726.80,484.26 731.23,482.77 735.65,481.28 740.07,479.77 744.50,478.24 748.92,476.71 753.35,475.16 757.77,473.60 762.20,472.02 766.62,470.43 771.05,468.83 775.48,467.22 779.90,465.59 784.33,463.94 788.75,462.29 793.17,460.62 797.60,458.94 802.02,457.25 806.45,455.54 810.88,453.82 815.30,452.08 819.73,450.33 824.15,448.57 828.58,446.79 833.00,445.01 837.43,443.20 841.85,441.39 846.27,439.56 850.70,437.72 855.12,435.86 859.55,433.99 863.98,432.11 868.40,430.21 872.82,428.30 877.25,426.37 881.67,424.44 886.10,422.49 890.52,420.52 894.95,418.54 899.38,416.55 903.80,414.54 908.23,412.52 912.65,410.49 917.08,408.44 921.50,406.38 925.93,404.31 930.35,402.22 934.77,400.12 939.20,398.00 943.62,395.87 948.05,393.72 952.48,391.57 956.90,389.39 961.32,387.21 965.75,385.01 970.17,382.80 974.60,380.57 979.02,378.33 983.45,376.07 987.88,373.80 992.30,371.52 996.73,369.22 1001.15,366.91 1005.58,364.58 1010.00,362.24" stroke="#c85b73" stroke-width="5" fill="none" stroke-linejoin="round" stroke-linecap="round" /><polyline points="125.00,333.41 129.43,337.86 133.85,342.22 138.28,346.49 142.70,350.66 147.12,354.75 151.55,358.75 155.97,362.66 160.40,366.48 164.82,370.22 169.25,373.88 173.68,377.46 178.10,380.96 182.53,384.38 186.95,387.72 191.38,390.98 195.80,394.17 200.23,397.29 204.65,400.33 209.07,403.30 213.50,406.20 217.93,409.04 222.35,411.80 226.78,414.50 231.20,417.13 235.62,419.69 240.05,422.20 244.48,424.64 248.90,427.01 253.32,429.33 257.75,431.59 262.18,433.79 266.60,435.93 271.02,438.01 275.45,440.04 279.88,442.01 284.30,443.92 288.73,445.79 293.15,447.60 297.58,449.35 302.00,451.06 306.42,452.72 310.85,454.32 315.27,455.88 319.70,457.39 324.12,458.85 328.55,460.26 332.98,461.63 337.40,462.95 341.82,464.22 346.25,465.46 350.68,466.64 355.10,467.79 359.52,468.89 363.95,469.95 368.38,470.97 372.80,471.95 377.22,472.89 381.65,473.78 386.07,474.64 390.50,475.46 394.93,476.25 399.35,476.99 403.77,477.70 408.20,478.37 412.62,479.00 417.05,479.60 421.48,480.17 425.90,480.69 430.32,481.19 434.75,481.65 439.18,482.08 443.60,482.47 448.02,482.83 452.45,483.16 456.88,483.45 461.30,483.72 465.73,483.95 470.15,484.15 474.57,484.33 479.00,484.47 483.43,484.58 487.85,484.66 492.27,484.71 496.70,484.74 501.12,484.73 505.55,484.70 509.98,484.64 514.40,484.55 518.83,484.43 523.25,484.29 527.67,484.12 532.10,483.92 536.53,483.70 540.95,483.45 545.38,483.18 549.80,482.88 554.22,482.55 558.65,482.20 563.08,481.82 567.50,481.42 571.92,481.00 576.35,480.55 580.78,480.07 585.20,479.58 589.62,479.06 594.05,478.51 598.48,477.95 602.90,477.36 607.33,476.74 611.75,476.11 616.18,475.45 620.60,474.77 625.02,474.07 629.45,473.34 633.88,472.60 638.30,471.83 642.73,471.04 647.15,470.23 651.57,469.40 656.00,468.54 660.42,467.67 664.85,466.77 669.27,465.86 673.70,464.92 678.12,463.97 682.55,462.99 686.98,462.00 691.40,460.98 695.83,459.94 700.25,458.89 704.68,457.81 709.10,456.72 713.52,455.60 717.95,454.47 722.38,453.32 726.80,452.15 731.23,450.96 735.65,449.75 740.07,448.52 744.50,447.27 748.92,446.01 753.35,444.72 757.77,443.42 762.20,442.10 766.62,440.76 771.05,439.40 775.48,438.03 779.90,436.64 784.33,435.22 788.75,433.80 793.17,432.35 797.60,430.89 802.02,429.40 806.45,427.90 810.88,426.39 815.30,424.85 819.73,423.30 824.15,421.73 828.58,420.14 833.00,418.54 837.43,416.92 841.85,415.28 846.27,413.63 850.70,411.96 855.12,410.27 859.55,408.56 863.98,406.84 868.40,405.10 872.82,403.34 877.25,401.57 881.67,399.78 886.10,397.98 890.52,396.15 894.95,394.32 899.38,392.46 903.80,390.59 908.23,388.70 912.65,386.80 917.08,384.88 921.50,382.94 925.93,380.99 930.35,379.02 934.77,377.03 939.20,375.03 943.62,373.01 948.05,370.98 952.48,368.93 956.90,366.86 961.32,364.78 965.75,362.68 970.17,360.57 974.60,358.44 979.02,356.29 983.45,354.13 987.88,351.95 992.30,349.76 996.73,347.55 1001.15,345.32 1005.58,343.08 1010.00,340.83" stroke="#4d8c6a" stroke-width="6" fill="none" stroke-linejoin="round" stroke-linecap="round" /><line x1="496.7" y1="590" x2="496.7" y2="484.7371889835482" stroke="#c58a2d" stroke-width="3" stroke-linecap="round" stroke-dasharray="9 7" /><circle cx="496.7" cy="484.7371889835482" r="8" fill="#c58a2d" /><text x="514.7" y="464.7371889835482" text-anchor="start" font-family="Source Han Sans SC, Microsoft YaHei, sans-serif" font-size="16" font-weight="700" fill="#8a5f19">示意最小点</text><line x1="1080" y1="190" x2="1160" y2="190" stroke="#3b82b5" stroke-width="6" stroke-linecap="round" /><text x="1180" y="197" text-anchor="start" font-family="Source Han Sans SC, Microsoft YaHei, sans-serif" font-size="18" font-weight="700" fill="#3b82b5">残余噪声 / 方差</text><line x1="1080" y1="252" x2="1160" y2="252" stroke="#c85b73" stroke-width="6" stroke-linecap="round" /><text x="1180" y="259" text-anchor="start" font-family="Source Han Sans SC, Microsoft YaHei, sans-serif" font-size="18" font-weight="700" fill="#c85b73">细节损失 / 偏差²</text><line x1="1080" y1="314" x2="1160" y2="314" stroke="#4d8c6a" stroke-width="6" stroke-linecap="round" /><text x="1180" y="321" text-anchor="start" font-family="Source Han Sans SC, Microsoft YaHei, sans-serif" font-size="18" font-weight="700" fill="#4d8c6a">总均方误差</text><rect x="1060" y="395" width="360" height="160" rx="16" fill="#fff7e8" stroke="#e8c77d" stroke-width="2.5" /><text x="1240.0" y="437" text-anchor="middle" font-family="Source Han Sans SC, Microsoft YaHei, sans-serif" font-size="19" font-weight="700" fill="#8a5f19">不存在脱离任务的最佳 λ</text><text x="1240.0" y="471" text-anchor="middle" font-family="Source Han Sans SC, Microsoft YaHei, sans-serif" font-size="15" font-weight="400" fill="#486581">皮肤、星点、文字与打印输出，对偏差和方差的代价不同</text><rect x="275" y="650" width="950" height="65" rx="16" fill="#ffffff" stroke="#b9c7d3" stroke-width="2.5" /><text x="750.0" y="692" text-anchor="middle" font-family="Source Han Sans SC, Microsoft YaHei, sans-serif" font-size="17" font-weight="700" fill="#334e68">曲线是决策模型，不是所有算法共享的固定形状；正确位置还随输出尺寸改变</text></svg>