<?xml version='1.0' encoding='utf-8'?>
<svg xmlns="http://www.w3.org/2000/svg" width="1400" height="670" viewBox="0 0 1400 670" role="img" aria-label="几何离焦与衍射的光圈折中"><defs><marker id="arrow-blue" markerWidth="10" markerHeight="8" refX="9" refY="4" orient="auto" markerUnits="strokeWidth"><path d="M 0 0 L 10 4 L 0 8 z" fill="#3b82b5" /></marker><marker id="arrow-red" markerWidth="10" markerHeight="8" refX="9" refY="4" orient="auto" markerUnits="strokeWidth"><path d="M 0 0 L 10 4 L 0 8 z" fill="#c85b73" /></marker><marker id="arrow-dark" markerWidth="10" markerHeight="8" refX="9" refY="4" orient="auto" markerUnits="strokeWidth"><path d="M 0 0 L 10 4 L 0 8 z" fill="#334e68" /></marker><marker id="arrow-green" markerWidth="10" markerHeight="8" refX="9" refY="4" orient="auto" markerUnits="strokeWidth"><path d="M 0 0 L 10 4 L 0 8 z" fill="#4d8c6a" /></marker></defs><rect width="1400" height="670" fill="#fbfdff" /><text x="700.0" y="43" text-anchor="middle" font-family="Source Han Sans SC, Microsoft YaHei, sans-serif" font-size="30" font-weight="700" fill="#102a43">缩小光圈：几何离焦下降，衍射上升</text><line x1="110" y1="550" x2="1300" y2="550" stroke="#334e68" stroke-width="2" stroke-linecap="round" marker-end="url(#arrow-dark)" /><line x1="110" y1="550" x2="110" y2="105" stroke="#334e68" stroke-width="2" stroke-linecap="round" marker-end="url(#arrow-dark)" /><text x="1295" y="588" text-anchor="middle" font-family="Source Han Sans SC, Microsoft YaHei, sans-serif" font-size="20" font-weight="400" fill="#627d98">f 数 N</text><text x="85" y="110" text-anchor="middle" font-family="Source Han Sans SC, Microsoft YaHei, sans-serif" font-size="20" font-weight="400" fill="#627d98">模糊尺度</text><polyline points="110.00,158.79 112.98,172.71 115.96,185.66 118.95,197.76 121.93,209.08 124.91,219.70 127.89,229.67 130.88,239.06 133.86,247.91 136.84,256.28 139.82,264.19 142.81,271.69 145.79,278.80 148.77,285.56 151.75,292.00 154.74,298.12 157.72,303.96 160.70,309.54 163.68,314.87 166.67,319.97 169.65,324.85 172.63,329.53 175.61,334.02 178.60,338.33 181.58,342.47 184.56,346.45 187.54,350.28 190.53,353.97 193.51,357.53 196.49,360.96 199.47,364.27 202.46,367.47 205.44,370.55 208.42,373.54 211.40,376.43 214.39,379.22 217.37,381.93 220.35,384.55 223.33,387.09 226.32,389.55 229.30,391.94 232.28,394.26 235.26,396.52 238.25,398.71 241.23,400.83 244.21,402.90 247.19,404.91 250.18,406.87 253.16,408.78 256.14,410.63 259.12,412.44 262.11,414.20 265.09,415.92 268.07,417.59 271.05,419.22 274.04,420.82 277.02,422.37 280.00,423.89 282.98,425.37 285.96,426.82 288.95,428.23 291.93,429.61 294.91,430.96 297.89,432.28 300.88,433.58 303.86,434.84 306.84,436.08 309.82,437.29 312.81,438.47 315.79,439.63 318.77,440.77 321.75,441.88 324.74,442.97 327.72,444.04 330.70,445.09 333.68,446.12 336.67,447.12 339.65,448.11 342.63,449.08 345.61,450.03 348.60,450.97 351.58,451.88 354.56,452.78 357.54,453.66 360.53,454.53 363.51,455.38 366.49,456.22 369.47,457.04 372.46,457.85 375.44,458.64 378.42,459.42 381.40,460.19 384.39,460.94 387.37,461.68 390.35,462.41 393.33,463.13 396.32,463.84 399.30,464.53 402.28,465.21 405.26,465.89 408.25,466.55 411.23,467.20 414.21,467.84 417.19,468.47 420.18,469.09 423.16,469.71 426.14,470.31 429.12,470.90 432.11,471.49 435.09,472.07 438.07,472.63 441.05,473.19 444.04,473.75 447.02,474.29 450.00,474.83 452.98,475.36 455.96,475.88 458.95,476.39 461.93,476.90 464.91,477.40 467.89,477.89 470.88,478.38 473.86,478.86 476.84,479.33 479.82,479.80 482.81,480.26 485.79,480.72 488.77,481.17 491.75,481.61 494.74,482.05 497.72,482.48 500.70,482.91 503.68,483.33 506.67,483.75 509.65,484.16 512.63,484.56 515.61,484.97 518.60,485.36 521.58,485.75 524.56,486.14 527.54,486.52 530.53,486.90 533.51,487.27 536.49,487.64 539.47,488.01 542.46,488.37 545.44,488.72 548.42,489.07 551.40,489.42 554.39,489.77 557.37,490.11 560.35,490.44 563.33,490.77 566.32,491.10 569.30,491.43 572.28,491.75 575.26,492.07 578.25,492.38 581.23,492.69 584.21,493.00 587.19,493.31 590.18,493.61 593.16,493.91 596.14,494.20 599.12,494.49 602.11,494.78 605.09,495.07 608.07,495.35 611.05,495.63 614.04,495.91 617.02,496.18 620.00,496.45 622.98,496.72 625.96,496.99 628.95,497.25 631.93,497.51 634.91,497.77 637.89,498.03 640.88,498.28 643.86,498.53 646.84,498.78 649.82,499.03 652.81,499.27 655.79,499.51 658.77,499.75 661.75,499.99 664.74,500.22 667.72,500.46 670.70,500.69 673.68,500.91 676.67,501.14 679.65,501.36 682.63,501.59 685.61,501.81 688.60,502.02 691.58,502.24 694.56,502.45 697.54,502.67 700.53,502.88 703.51,503.09 706.49,503.29 709.47,503.50 712.46,503.70 715.44,503.90 718.42,504.10 721.40,504.30 724.39,504.49 727.37,504.69 730.35,504.88 733.33,505.07 736.32,505.26 739.30,505.45 742.28,505.64 745.26,505.82 748.25,506.00 751.23,506.19 754.21,506.37 757.19,506.54 760.18,506.72 763.16,506.90 766.14,507.07 769.12,507.25 772.11,507.42 775.09,507.59 778.07,507.76 781.05,507.92 784.04,508.09 787.02,508.25 790.00,508.42 792.98,508.58 795.96,508.74 798.95,508.90 801.93,509.06 804.91,509.22 807.89,509.37 810.88,509.53 813.86,509.68 816.84,509.84 819.82,509.99 822.81,510.14 825.79,510.29 828.77,510.43 831.75,510.58 834.74,510.73 837.72,510.87 840.70,511.02 843.68,511.16 846.67,511.30 849.65,511.44 852.63,511.58 855.61,511.72 858.60,511.86 861.58,511.99 864.56,512.13 867.54,512.26 870.53,512.40 873.51,512.53 876.49,512.66 879.47,512.79 882.46,512.92 885.44,513.05 888.42,513.18 891.40,513.31 894.39,513.43 897.37,513.56 900.35,513.68 903.33,513.81 906.32,513.93 909.30,514.05 912.28,514.18 915.26,514.30 918.25,514.42 921.23,514.53 924.21,514.65 927.19,514.77 930.18,514.89 933.16,515.00 936.14,515.12 939.12,515.23 942.11,515.35 945.09,515.46 948.07,515.57 951.05,515.68 954.04,515.79 957.02,515.90 960.00,516.01 962.98,516.12 965.96,516.23 968.95,516.34 971.93,516.44 974.91,516.55 977.89,516.65 980.88,516.76 983.86,516.86 986.84,516.96 989.82,517.07 992.81,517.17 995.79,517.27 998.77,517.37 1001.75,517.47 1004.74,517.57 1007.72,517.67 1010.70,517.77 1013.68,517.87 1016.67,517.96 1019.65,518.06 1022.63,518.15 1025.61,518.25 1028.60,518.34 1031.58,518.44 1034.56,518.53 1037.54,518.63 1040.53,518.72 1043.51,518.81 1046.49,518.90 1049.47,518.99 1052.46,519.08 1055.44,519.17 1058.42,519.26 1061.40,519.35 1064.39,519.44 1067.37,519.53 1070.35,519.61 1073.33,519.70 1076.32,519.79 1079.30,519.87 1082.28,519.96 1085.26,520.04 1088.25,520.13 1091.23,520.21 1094.21,520.29 1097.19,520.38 1100.18,520.46 1103.16,520.54 1106.14,520.62 1109.12,520.70 1112.11,520.79 1115.09,520.87 1118.07,520.95 1121.05,521.03 1124.04,521.10 1127.02,521.18 1130.00,521.26 1132.98,521.34 1135.96,521.42 1138.95,521.49 1141.93,521.57 1144.91,521.64 1147.89,521.72 1150.88,521.80 1153.86,521.87 1156.84,521.94 1159.82,522.02 1162.81,522.09 1165.79,522.17 1168.77,522.24 1171.75,522.31 1174.74,522.38 1177.72,522.45 1180.70,522.53 1183.68,522.60 1186.67,522.67 1189.65,522.74 1192.63,522.81 1195.61,522.88 1198.60,522.95 1201.58,523.02 1204.56,523.08 1207.54,523.15 1210.53,523.22 1213.51,523.29 1216.49,523.35 1219.47,523.42 1222.46,523.49 1225.44,523.55 1228.42,523.62 1231.40,523.68 1234.39,523.75 1237.37,523.81 1240.35,523.88 1243.33,523.94 1246.32,524.01 1249.30,524.07 1252.28,524.13 1255.26,524.20 1258.25,524.26 1261.23,524.32 1264.21,524.38 1267.19,524.45 1270.18,524.51 1273.16,524.57 1276.14,524.63 1279.12,524.69 1282.11,524.75 1285.09,524.81 1288.07,524.87 1291.05,524.93 1294.04,524.99 1297.02,525.05 1300.00,525.10" stroke="#3b82b5" stroke-width="4" fill="none" stroke-linejoin="round" stroke-linecap="round" /><polyline points="110.00,537.14 112.98,536.66 115.96,536.19 118.95,535.71 121.93,535.24 124.91,534.77 127.89,534.29 130.88,533.82 133.86,533.34 136.84,532.87 139.82,532.39 142.81,531.92 145.79,531.45 148.77,530.97 151.75,530.50 154.74,530.02 157.72,529.55 160.70,529.07 163.68,528.60 166.67,528.12 169.65,527.65 172.63,527.18 175.61,526.70 178.60,526.23 181.58,525.75 184.56,525.28 187.54,524.80 190.53,524.33 193.51,523.86 196.49,523.38 199.47,522.91 202.46,522.43 205.44,521.96 208.42,521.48 211.40,521.01 214.39,520.54 217.37,520.06 220.35,519.59 223.33,519.11 226.32,518.64 229.30,518.16 232.28,517.69 235.26,517.21 238.25,516.74 241.23,516.27 244.21,515.79 247.19,515.32 250.18,514.84 253.16,514.37 256.14,513.89 259.12,513.42 262.11,512.95 265.09,512.47 268.07,512.00 271.05,511.52 274.04,511.05 277.02,510.57 280.00,510.10 282.98,509.63 285.96,509.15 288.95,508.68 291.93,508.20 294.91,507.73 297.89,507.25 300.88,506.78 303.86,506.31 306.84,505.83 309.82,505.36 312.81,504.88 315.79,504.41 318.77,503.93 321.75,503.46 324.74,502.98 327.72,502.51 330.70,502.04 333.68,501.56 336.67,501.09 339.65,500.61 342.63,500.14 345.61,499.66 348.60,499.19 351.58,498.72 354.56,498.24 357.54,497.77 360.53,497.29 363.51,496.82 366.49,496.34 369.47,495.87 372.46,495.40 375.44,494.92 378.42,494.45 381.40,493.97 384.39,493.50 387.37,493.02 390.35,492.55 393.33,492.07 396.32,491.60 399.30,491.13 402.28,490.65 405.26,490.18 408.25,489.70 411.23,489.23 414.21,488.75 417.19,488.28 420.18,487.81 423.16,487.33 426.14,486.86 429.12,486.38 432.11,485.91 435.09,485.43 438.07,484.96 441.05,484.49 444.04,484.01 447.02,483.54 450.00,483.06 452.98,482.59 455.96,482.11 458.95,481.64 461.93,481.16 464.91,480.69 467.89,480.22 470.88,479.74 473.86,479.27 476.84,478.79 479.82,478.32 482.81,477.84 485.79,477.37 488.77,476.90 491.75,476.42 494.74,475.95 497.72,475.47 500.70,475.00 503.68,474.52 506.67,474.05 509.65,473.58 512.63,473.10 515.61,472.63 518.60,472.15 521.58,471.68 524.56,471.20 527.54,470.73 530.53,470.25 533.51,469.78 536.49,469.31 539.47,468.83 542.46,468.36 545.44,467.88 548.42,467.41 551.40,466.93 554.39,466.46 557.37,465.99 560.35,465.51 563.33,465.04 566.32,464.56 569.30,464.09 572.28,463.61 575.26,463.14 578.25,462.67 581.23,462.19 584.21,461.72 587.19,461.24 590.18,460.77 593.16,460.29 596.14,459.82 599.12,459.35 602.11,458.87 605.09,458.40 608.07,457.92 611.05,457.45 614.04,456.97 617.02,456.50 620.00,456.02 622.98,455.55 625.96,455.08 628.95,454.60 631.93,454.13 634.91,453.65 637.89,453.18 640.88,452.70 643.86,452.23 646.84,451.76 649.82,451.28 652.81,450.81 655.79,450.33 658.77,449.86 661.75,449.38 664.74,448.91 667.72,448.44 670.70,447.96 673.68,447.49 676.67,447.01 679.65,446.54 682.63,446.06 685.61,445.59 688.60,445.11 691.58,444.64 694.56,444.17 697.54,443.69 700.53,443.22 703.51,442.74 706.49,442.27 709.47,441.79 712.46,441.32 715.44,440.85 718.42,440.37 721.40,439.90 724.39,439.42 727.37,438.95 730.35,438.47 733.33,438.00 736.32,437.53 739.30,437.05 742.28,436.58 745.26,436.10 748.25,435.63 751.23,435.15 754.21,434.68 757.19,434.20 760.18,433.73 763.16,433.26 766.14,432.78 769.12,432.31 772.11,431.83 775.09,431.36 778.07,430.88 781.05,430.41 784.04,429.94 787.02,429.46 790.00,428.99 792.98,428.51 795.96,428.04 798.95,427.56 801.93,427.09 804.91,426.62 807.89,426.14 810.88,425.67 813.86,425.19 816.84,424.72 819.82,424.24 822.81,423.77 825.79,423.29 828.77,422.82 831.75,422.35 834.74,421.87 837.72,421.40 840.70,420.92 843.68,420.45 846.67,419.97 849.65,419.50 852.63,419.03 855.61,418.55 858.60,418.08 861.58,417.60 864.56,417.13 867.54,416.65 870.53,416.18 873.51,415.71 876.49,415.23 879.47,414.76 882.46,414.28 885.44,413.81 888.42,413.33 891.40,412.86 894.39,412.38 897.37,411.91 900.35,411.44 903.33,410.96 906.32,410.49 909.30,410.01 912.28,409.54 915.26,409.06 918.25,408.59 921.23,408.12 924.21,407.64 927.19,407.17 930.18,406.69 933.16,406.22 936.14,405.74 939.12,405.27 942.11,404.80 945.09,404.32 948.07,403.85 951.05,403.37 954.04,402.90 957.02,402.42 960.00,401.95 962.98,401.48 965.96,401.00 968.95,400.53 971.93,400.05 974.91,399.58 977.89,399.10 980.88,398.63 983.86,398.15 986.84,397.68 989.82,397.21 992.81,396.73 995.79,396.26 998.77,395.78 1001.75,395.31 1004.74,394.83 1007.72,394.36 1010.70,393.89 1013.68,393.41 1016.67,392.94 1019.65,392.46 1022.63,391.99 1025.61,391.51 1028.60,391.04 1031.58,390.57 1034.56,390.09 1037.54,389.62 1040.53,389.14 1043.51,388.67 1046.49,388.19 1049.47,387.72 1052.46,387.24 1055.44,386.77 1058.42,386.30 1061.40,385.82 1064.39,385.35 1067.37,384.87 1070.35,384.40 1073.33,383.92 1076.32,383.45 1079.30,382.98 1082.28,382.50 1085.26,382.03 1088.25,381.55 1091.23,381.08 1094.21,380.60 1097.19,380.13 1100.18,379.66 1103.16,379.18 1106.14,378.71 1109.12,378.23 1112.11,377.76 1115.09,377.28 1118.07,376.81 1121.05,376.33 1124.04,375.86 1127.02,375.39 1130.00,374.91 1132.98,374.44 1135.96,373.96 1138.95,373.49 1141.93,373.01 1144.91,372.54 1147.89,372.07 1150.88,371.59 1153.86,371.12 1156.84,370.64 1159.82,370.17 1162.81,369.69 1165.79,369.22 1168.77,368.75 1171.75,368.27 1174.74,367.80 1177.72,367.32 1180.70,366.85 1183.68,366.37 1186.67,365.90 1189.65,365.42 1192.63,364.95 1195.61,364.48 1198.60,364.00 1201.58,363.53 1204.56,363.05 1207.54,362.58 1210.53,362.10 1213.51,361.63 1216.49,361.16 1219.47,360.68 1222.46,360.21 1225.44,359.73 1228.42,359.26 1231.40,358.78 1234.39,358.31 1237.37,357.84 1240.35,357.36 1243.33,356.89 1246.32,356.41 1249.30,355.94 1252.28,355.46 1255.26,354.99 1258.25,354.51 1261.23,354.04 1264.21,353.57 1267.19,353.09 1270.18,352.62 1273.16,352.14 1276.14,351.67 1279.12,351.19 1282.11,350.72 1285.09,350.25 1288.07,349.77 1291.05,349.30 1294.04,348.82 1297.02,348.35 1300.00,347.87" stroke="#c85b73" stroke-width="4" fill="none" stroke-linejoin="round" stroke-linecap="round" /><polyline points="110.00,158.58 112.98,172.47 115.96,185.40 118.95,197.47 121.93,208.76 124.91,219.34 127.89,229.28 130.88,238.64 133.86,247.45 136.84,255.78 139.82,263.65 142.81,271.10 145.79,278.17 148.77,284.88 151.75,291.26 154.74,297.33 157.72,303.12 160.70,308.63 163.68,313.90 166.67,318.93 169.65,323.74 172.63,328.35 175.61,332.77 178.60,337.00 181.58,341.06 184.56,344.96 187.54,348.70 190.53,352.30 193.51,355.76 196.49,359.10 199.47,362.30 202.46,365.40 205.44,368.38 208.42,371.25 211.40,374.02 214.39,376.70 217.37,379.28 220.35,381.78 223.33,384.19 226.32,386.52 229.30,388.77 232.28,390.95 235.26,393.05 238.25,395.09 241.23,397.07 244.21,398.98 247.19,400.83 250.18,402.62 253.16,404.35 256.14,406.03 259.12,407.66 262.11,409.24 265.09,410.76 268.07,412.24 271.05,413.68 274.04,415.07 277.02,416.42 280.00,417.73 282.98,418.99 285.96,420.22 288.95,421.41 291.93,422.56 294.91,423.68 297.89,424.76 300.88,425.81 303.86,426.83 306.84,427.81 309.82,428.77 312.81,429.69 315.79,430.59 318.77,431.45 321.75,432.29 324.74,433.10 327.72,433.89 330.70,434.64 333.68,435.38 336.67,436.09 339.65,436.77 342.63,437.44 345.61,438.07 348.60,438.69 351.58,439.29 354.56,439.86 357.54,440.41 360.53,440.95 363.51,441.46 366.49,441.95 369.47,442.43 372.46,442.88 375.44,443.32 378.42,443.74 381.40,444.15 384.39,444.53 387.37,444.90 390.35,445.25 393.33,445.59 396.32,445.91 399.30,446.22 402.28,446.51 405.26,446.78 408.25,447.04 411.23,447.29 414.21,447.52 417.19,447.74 420.18,447.95 423.16,448.14 426.14,448.33 429.12,448.49 432.11,448.65 435.09,448.79 438.07,448.93 441.05,449.05 444.04,449.16 447.02,449.26 450.00,449.34 452.98,449.42 455.96,449.49 458.95,449.54 461.93,449.59 464.91,449.63 467.89,449.65 470.88,449.67 473.86,449.68 476.84,449.68 479.82,449.67 482.81,449.65 485.79,449.63 488.77,449.59 491.75,449.55 494.74,449.50 497.72,449.44 500.70,449.37 503.68,449.30 506.67,449.21 509.65,449.12 512.63,449.03 515.61,448.93 518.60,448.82 521.58,448.70 524.56,448.58 527.54,448.45 530.53,448.31 533.51,448.17 536.49,448.02 539.47,447.87 542.46,447.71 545.44,447.54 548.42,447.37 551.40,447.19 554.39,447.01 557.37,446.82 560.35,446.63 563.33,446.43 566.32,446.23 569.30,446.02 572.28,445.81 575.26,445.59 578.25,445.37 581.23,445.15 584.21,444.92 587.19,444.68 590.18,444.44 593.16,444.20 596.14,443.95 599.12,443.70 602.11,443.45 605.09,443.19 608.07,442.93 611.05,442.66 614.04,442.39 617.02,442.12 620.00,441.84 622.98,441.56 625.96,441.28 628.95,440.99 631.93,440.70 634.91,440.41 637.89,440.11 640.88,439.81 643.86,439.51 646.84,439.21 649.82,438.90 652.81,438.59 655.79,438.27 658.77,437.96 661.75,437.64 664.74,437.32 667.72,437.00 670.70,436.67 673.68,436.34 676.67,436.01 679.65,435.68 682.63,435.34 685.61,435.00 688.60,434.66 691.58,434.32 694.56,433.98 697.54,433.63 700.53,433.28 703.51,432.93 706.49,432.58 709.47,432.22 712.46,431.87 715.44,431.51 718.42,431.15 721.40,430.79 724.39,430.43 727.37,430.06 730.35,429.69 733.33,429.32 736.32,428.95 739.30,428.58 742.28,428.21 745.26,427.83 748.25,427.46 751.23,427.08 754.21,426.70 757.19,426.32 760.18,425.94 763.16,425.55 766.14,425.17 769.12,424.78 772.11,424.39 775.09,424.01 778.07,423.62 781.05,423.22 784.04,422.83 787.02,422.44 790.00,422.04 792.98,421.65 795.96,421.25 798.95,420.85 801.93,420.45 804.91,420.05 807.89,419.65 810.88,419.25 813.86,418.84 816.84,418.44 819.82,418.03 822.81,417.62 825.79,417.22 828.77,416.81 831.75,416.40 834.74,415.99 837.72,415.58 840.70,415.16 843.68,414.75 846.67,414.34 849.65,413.92 852.63,413.51 855.61,413.09 858.60,412.67 861.58,412.26 864.56,411.84 867.54,411.42 870.53,411.00 873.51,410.58 876.49,410.15 879.47,409.73 882.46,409.31 885.44,408.89 888.42,408.46 891.40,408.04 894.39,407.61 897.37,407.18 900.35,406.76 903.33,406.33 906.32,405.90 909.30,405.47 912.28,405.04 915.26,404.61 918.25,404.18 921.23,403.75 924.21,403.32 927.19,402.89 930.18,402.45 933.16,402.02 936.14,401.59 939.12,401.15 942.11,400.72 945.09,400.28 948.07,399.85 951.05,399.41 954.04,398.97 957.02,398.54 960.00,398.10 962.98,397.66 965.96,397.22 968.95,396.78 971.93,396.34 974.91,395.90 977.89,395.46 980.88,395.02 983.86,394.58 986.84,394.14 989.82,393.70 992.81,393.25 995.79,392.81 998.77,392.37 1001.75,391.93 1004.74,391.48 1007.72,391.04 1010.70,390.59 1013.68,390.15 1016.67,389.70 1019.65,389.26 1022.63,388.81 1025.61,388.36 1028.60,387.92 1031.58,387.47 1034.56,387.02 1037.54,386.58 1040.53,386.13 1043.51,385.68 1046.49,385.23 1049.47,384.78 1052.46,384.33 1055.44,383.88 1058.42,383.44 1061.40,382.99 1064.39,382.54 1067.37,382.08 1070.35,381.63 1073.33,381.18 1076.32,380.73 1079.30,380.28 1082.28,379.83 1085.26,379.38 1088.25,378.92 1091.23,378.47 1094.21,378.02 1097.19,377.57 1100.18,377.11 1103.16,376.66 1106.14,376.21 1109.12,375.75 1112.11,375.30 1115.09,374.84 1118.07,374.39 1121.05,373.93 1124.04,373.48 1127.02,373.02 1130.00,372.57 1132.98,372.11 1135.96,371.66 1138.95,371.20 1141.93,370.75 1144.91,370.29 1147.89,369.83 1150.88,369.38 1153.86,368.92 1156.84,368.46 1159.82,368.00 1162.81,367.55 1165.79,367.09 1168.77,366.63 1171.75,366.17 1174.74,365.72 1177.72,365.26 1180.70,364.80 1183.68,364.34 1186.67,363.88 1189.65,363.42 1192.63,362.96 1195.61,362.50 1198.60,362.04 1201.58,361.59 1204.56,361.13 1207.54,360.67 1210.53,360.21 1213.51,359.75 1216.49,359.29 1219.47,358.82 1222.46,358.36 1225.44,357.90 1228.42,357.44 1231.40,356.98 1234.39,356.52 1237.37,356.06 1240.35,355.60 1243.33,355.14 1246.32,354.68 1249.30,354.21 1252.28,353.75 1255.26,353.29 1258.25,352.83 1261.23,352.37 1264.21,351.90 1267.19,351.44 1270.18,350.98 1273.16,350.52 1276.14,350.05 1279.12,349.59 1282.11,349.13 1285.09,348.66 1288.07,348.20 1291.05,347.74 1294.04,347.27 1297.02,346.81 1300.00,346.35" stroke="#4d8c6a" stroke-width="4" fill="none" stroke-linejoin="round" stroke-linecap="round" /><text x="260" y="175" text-anchor="middle" font-family="Source Han Sans SC, Microsoft YaHei, sans-serif" font-size="19" font-weight="700" fill="#285b7a">几何离焦 A/N</text><text x="1120" y="250" text-anchor="middle" font-family="Source Han Sans SC, Microsoft YaHei, sans-serif" font-size="19" font-weight="700" fill="#a24862">衍射 BN</text><text x="1030" y="390" text-anchor="middle" font-family="Source Han Sans SC, Microsoft YaHei, sans-serif" font-size="19" font-weight="700" fill="#397456">合成尺度</text><line x1="475.140198744562" y1="550" x2="475.140198744562" y2="449.68106717062994" stroke="#8b5e20" stroke-width="2" stroke-linecap="round" stroke-dasharray="9 7" /><circle cx="475.14" cy="449.68" r="8" fill="#c58a2d" /><text x="475.140198744562" y="429.68106717062994" text-anchor="middle" font-family="Source Han Sans SC, Microsoft YaHei, sans-serif" font-size="19" font-weight="700" fill="#8b5e20">示例最小值 f/7.7</text><line x1="144.6601941747573" y1="544" x2="144.6601941747573" y2="556" stroke="#334e68" stroke-width="2" stroke-linecap="round" /><text x="144.6601941747573" y="575" text-anchor="middle" font-family="Source Han Sans SC, Microsoft YaHei, sans-serif" font-size="16" font-weight="400" fill="#486581">2</text><line x1="260.19417475728153" y1="544" x2="260.19417475728153" y2="556" stroke="#334e68" stroke-width="2" stroke-linecap="round" /><text x="260.19417475728153" y="575" text-anchor="middle" font-family="Source Han Sans SC, Microsoft YaHei, sans-serif" font-size="16" font-weight="400" fill="#486581">4</text><line x1="491.26213592233006" y1="544" x2="491.26213592233006" y2="556" stroke="#334e68" stroke-width="2" stroke-linecap="round" /><text x="491.26213592233006" y="575" text-anchor="middle" font-family="Source Han Sans SC, Microsoft YaHei, sans-serif" font-size="16" font-weight="400" fill="#486581">8</text><line x1="664.5631067961165" y1="544" x2="664.5631067961165" y2="556" stroke="#334e68" stroke-width="2" stroke-linecap="round" /><text x="664.5631067961165" y="575" text-anchor="middle" font-family="Source Han Sans SC, Microsoft YaHei, sans-serif" font-size="16" font-weight="400" fill="#486581">11</text><line x1="953.3980582524272" y1="544" x2="953.3980582524272" y2="556" stroke="#334e68" stroke-width="2" stroke-linecap="round" /><text x="953.3980582524272" y="575" text-anchor="middle" font-family="Source Han Sans SC, Microsoft YaHei, sans-serif" font-size="16" font-weight="400" fill="#486581">16</text><line x1="1300.0" y1="544" x2="1300.0" y2="556" stroke="#334e68" stroke-width="2" stroke-linecap="round" /><text x="1300.0" y="575" text-anchor="middle" font-family="Source Han Sans SC, Microsoft YaHei, sans-serif" font-size="16" font-weight="400" fill="#486581">22</text><text x="700.0" y="630" text-anchor="middle" font-family="Source Han Sans SC, Microsoft YaHei, sans-serif" font-size="20" font-weight="400" fill="#627d98">最小值随离焦量、波长、评价频率和像差状态改变，并非镜头常数</text></svg>