<?xml version='1.0' encoding='utf-8'?>
<svg xmlns="http://www.w3.org/2000/svg" width="1400" height="600" viewBox="0 0 1400 600" role="img" aria-label="焦外点像与出瞳形状"><defs><marker id="arrow-blue" markerWidth="10" markerHeight="8" refX="9" refY="4" orient="auto" markerUnits="strokeWidth"><path d="M 0 0 L 10 4 L 0 8 z" fill="#3b82b5" /></marker><marker id="arrow-red" markerWidth="10" markerHeight="8" refX="9" refY="4" orient="auto" markerUnits="strokeWidth"><path d="M 0 0 L 10 4 L 0 8 z" fill="#c85b73" /></marker><marker id="arrow-dark" markerWidth="10" markerHeight="8" refX="9" refY="4" orient="auto" markerUnits="strokeWidth"><path d="M 0 0 L 10 4 L 0 8 z" fill="#334e68" /></marker><marker id="arrow-green" markerWidth="10" markerHeight="8" refX="9" refY="4" orient="auto" markerUnits="strokeWidth"><path d="M 0 0 L 10 4 L 0 8 z" fill="#4d8c6a" /></marker></defs><rect width="1400" height="600" fill="#fbfdff" /><text x="700.0" y="43" text-anchor="middle" font-family="Source Han Sans SC, Microsoft YaHei, sans-serif" font-size="30" font-weight="700" fill="#102a43">离焦光斑近似携带出瞳的形状与照度分布</text><circle cx="180" cy="290" r="105" fill="#9ec9e8" stroke="#4b8bbd" stroke-width="3" /><polygon points="543.5,344.0 450.0,398.0 356.5,344.0 356.5,236.0 450.0,182.0 543.5,236.0" fill="#b7dfc5" stroke="#5a9d72" stroke-width="3" /><ellipse cx="720" cy="290" rx="72" ry="112" fill="#efc3d0" stroke="#c2677e" stroke-width="3" transform="rotate(-18 720 290)" /><circle cx="990" cy="290" r="108" fill="#9c7ac7" fill-opacity="0.18" stroke="none" /><circle cx="990" cy="290" r="78" fill="#9c7ac7" fill-opacity="0.28" stroke="none" /><circle cx="990" cy="290" r="48" fill="#9c7ac7" fill-opacity="0.45" stroke="none" /><circle cx="990" cy="290" r="22" fill="#9c7ac7" fill-opacity="0.7" stroke="none" /><circle cx="1260" cy="290" r="105" fill="#f8e4b8" stroke="#d5962d" stroke-width="14" /><circle cx="1260" cy="290" r="76" fill="#fff8e8" stroke="none" /><text x="180" y="445" text-anchor="middle" font-family="Source Han Sans SC, Microsoft YaHei, sans-serif" font-size="20" font-weight="700" fill="#486581">圆形均匀</text><text x="450" y="445" text-anchor="middle" font-family="Source Han Sans SC, Microsoft YaHei, sans-serif" font-size="20" font-weight="700" fill="#486581">六边形光圈</text><text x="720" y="445" text-anchor="middle" font-family="Source Han Sans SC, Microsoft YaHei, sans-serif" font-size="20" font-weight="700" fill="#486581">离轴猫眼</text><text x="990" y="445" text-anchor="middle" font-family="Source Han Sans SC, Microsoft YaHei, sans-serif" font-size="20" font-weight="700" fill="#486581">中心加权</text><text x="1260" y="445" text-anchor="middle" font-family="Source Han Sans SC, Microsoft YaHei, sans-serif" font-size="20" font-weight="700" fill="#486581">亮边 / 二线性</text><text x="700.0" y="540" text-anchor="middle" font-family="Source Han Sans SC, Microsoft YaHei, sans-serif" font-size="21" font-weight="600" fill="#7b4b74">光斑直径相同，并不意味着卷积后的纹理与边缘观感相同</text></svg>