<?xml version='1.0' encoding='utf-8'?>
<svg xmlns="http://www.w3.org/2000/svg" width="1500" height="735" viewBox="0 0 1500 735" role="img" aria-label="相关色温Duv与vonKries型色适应变换"><defs><marker id="arrow-blue" markerWidth="10" markerHeight="8" refX="9" refY="4" orient="auto" markerUnits="strokeWidth"><path d="M 0 0 L 10 4 L 0 8 z" fill="#3b82b5" /></marker><marker id="arrow-dark" markerWidth="10" markerHeight="8" refX="9" refY="4" orient="auto" markerUnits="strokeWidth"><path d="M 0 0 L 10 4 L 0 8 z" fill="#334e68" /></marker><marker id="arrow-red" markerWidth="10" markerHeight="8" refX="9" refY="4" orient="auto" markerUnits="strokeWidth"><path d="M 0 0 L 10 4 L 0 8 z" fill="#c85b73" /></marker><marker id="arrow-green" markerWidth="10" markerHeight="8" refX="9" refY="4" orient="auto" markerUnits="strokeWidth"><path d="M 0 0 L 10 4 L 0 8 z" fill="#4d8c6a" /></marker><marker id="arrow-gold" markerWidth="10" markerHeight="8" refX="9" refY="4" orient="auto" markerUnits="strokeWidth"><path d="M 0 0 L 10 4 L 0 8 z" fill="#c58a2d" /></marker><marker id="arrow-purple" markerWidth="10" markerHeight="8" refX="9" refY="4" orient="auto" markerUnits="strokeWidth"><path d="M 0 0 L 10 4 L 0 8 z" fill="#7b4b74" /></marker></defs><rect width="1500" height="735" fill="#fbfdff" /><text x="750.0" y="43" text-anchor="middle" font-family="Source Han Sans SC, Microsoft YaHei, sans-serif" font-size="31" font-weight="700" fill="#102a43">色温只定位黑体轨迹附近的一维方向；色适应还需白点和响应空间</text><line x1="750" y1="85" x2="750" y2="670" stroke="#d7e0e7" stroke-width="2" stroke-linecap="round" /><text x="375" y="103" text-anchor="middle" font-family="Source Han Sans SC, Microsoft YaHei, sans-serif" font-size="24" font-weight="700" fill="#a24862">CCT 与 Duv</text><line x1="90" y1="590" x2="690" y2="590" stroke="#334e68" stroke-width="2" stroke-linecap="round" marker-end="url(#arrow-dark)" /><line x1="90" y1="590" x2="90" y2="160" stroke="#334e68" stroke-width="2" stroke-linecap="round" marker-end="url(#arrow-dark)" /><text x="690" y="622" text-anchor="end" font-family="Source Han Sans SC, Microsoft YaHei, sans-serif" font-size="15" font-weight="400" fill="#627d98">u</text><text x="85" y="148" text-anchor="start" font-family="Source Han Sans SC, Microsoft YaHei, sans-serif" font-size="15" font-weight="400" fill="#627d98">v</text><polyline points="160.00,505.00 162.93,498.77 165.87,494.74 168.80,491.27 171.73,488.13 174.67,485.21 177.60,482.46 180.53,479.85 183.47,477.34 186.40,474.93 189.33,472.60 192.27,470.35 195.20,468.16 198.13,466.03 201.07,463.95 204.00,461.92 206.93,459.94 209.87,458.00 212.80,456.11 215.73,454.25 218.67,452.42 221.60,450.63 224.53,448.87 227.47,447.14 230.40,445.45 233.33,443.78 236.27,442.13 239.20,440.51 242.13,438.92 245.07,437.36 248.00,435.81 250.93,434.29 253.87,432.79 256.80,431.31 259.73,429.86 262.67,428.42 265.60,427.00 268.53,425.61 271.47,424.23 274.40,422.87 277.33,421.53 280.27,420.21 283.20,418.90 286.13,417.61 289.07,416.34 292.00,415.09 294.93,413.85 297.87,412.63 300.80,411.42 303.73,410.23 306.67,409.05 309.60,407.89 312.53,406.75 315.47,405.62 318.40,404.50 321.33,403.40 324.27,402.31 327.20,401.23 330.13,400.17 333.07,399.13 336.00,398.09 338.93,397.07 341.87,396.06 344.80,395.07 347.73,394.09 350.67,393.12 353.60,392.17 356.53,391.22 359.47,390.29 362.40,389.37 365.33,388.47 368.27,387.57 371.20,386.69 374.13,385.82 377.07,384.96 380.00,384.12 382.93,383.28 385.87,382.46 388.80,381.65 391.73,380.85 394.67,380.06 397.60,379.28 400.53,378.52 403.47,377.76 406.40,377.02 409.33,376.28 412.27,375.56 415.20,374.85 418.13,374.15 421.07,373.46 424.00,372.78 426.93,372.11 429.87,371.45 432.80,370.81 435.73,370.17 438.67,369.54 441.60,368.93 444.53,368.32 447.47,367.73 450.40,367.14 453.33,366.57 456.27,366.00 459.20,365.45 462.13,364.90 465.07,364.37 468.00,363.84 470.93,363.33 473.87,362.82 476.80,362.33 479.73,361.84 482.67,361.36 485.60,360.90 488.53,360.44 491.47,360.00 494.40,359.56 497.33,359.13 500.27,358.71 503.20,358.30 506.13,357.91 509.07,357.52 512.00,357.14 514.93,356.77 517.87,356.41 520.80,356.05 523.73,355.71 526.67,355.38 529.60,355.05 532.53,354.74 535.47,354.43 538.40,354.14 541.33,353.85 544.27,353.57 547.20,353.30 550.13,353.04 553.07,352.79 556.00,352.55 558.93,352.32 561.87,352.10 564.80,351.88 567.73,351.68 570.67,351.48 573.60,351.29 576.53,351.11 579.47,350.94 582.40,350.78 585.33,350.63 588.27,350.49 591.20,350.35 594.13,350.23 597.07,350.11 600.00,350.00" stroke="#c58a2d" stroke-width="6" fill="none" stroke-linejoin="round" stroke-linecap="round" /><circle cx="212.8" cy="456.10666501569125" r="7" fill="#c58a2d" /><text x="224.8" y="446.10666501569125" text-anchor="start" font-family="Source Han Sans SC, Microsoft YaHei, sans-serif" font-size="14" font-weight="700" fill="#8a5f19">10000 K</text><circle cx="336.0" cy="398.0920122345575" r="7" fill="#c58a2d" /><text x="348.0" y="388.0920122345575" text-anchor="start" font-family="Source Han Sans SC, Microsoft YaHei, sans-serif" font-size="14" font-weight="700" fill="#8a5f19">6500 K</text><circle cx="459.20000000000005" cy="365.44545997681706" r="7" fill="#c58a2d" /><text x="471.20000000000005" y="355.44545997681706" text-anchor="start" font-family="Source Han Sans SC, Microsoft YaHei, sans-serif" font-size="14" font-weight="700" fill="#8a5f19">4000 K</text><circle cx="556.0" cy="352.55233551690947" r="7" fill="#c58a2d" /><text x="568.0" y="342.55233551690947" text-anchor="start" font-family="Source Han Sans SC, Microsoft YaHei, sans-serif" font-size="14" font-weight="700" fill="#8a5f19">2500 K</text><line x1="288.6" y1="440.16565601646477" x2="418.6" y2="344.16565601646477" stroke="#7b4b74" stroke-width="3" stroke-linecap="round" stroke-dasharray="8 5" /><circle cx="311.6" cy="336.16565601646477" r="8" fill="#4d8c6a" /><text x="323.6" y="341.16565601646477" text-anchor="start" font-family="Source Han Sans SC, Microsoft YaHei, sans-serif" font-size="15" font-weight="700" fill="#4d8c6a">+Duv</text><circle cx="395.6" cy="448.16565601646477" r="8" fill="#c85b73" /><text x="407.6" y="453.16565601646477" text-anchor="start" font-family="Source Han Sans SC, Microsoft YaHei, sans-serif" font-size="15" font-weight="700" fill="#c85b73">−Duv</text><text x="375" y="635" text-anchor="middle" font-family="Source Han Sans SC, Microsoft YaHei, sans-serif" font-size="17" font-weight="400" fill="#7b4b74">同一 CCT 的光源仍可在绿—品红方向显著不同</text><text x="1125" y="103" text-anchor="middle" font-family="Source Han Sans SC, Microsoft YaHei, sans-serif" font-size="24" font-weight="700" fill="#397456">von Kries 型色适应</text><rect x="805" y="175" width="250" height="115" rx="16" fill="#eaf4ff" stroke="#9bc7ee" stroke-width="2.5" /><text x="930.0" y="217" text-anchor="middle" font-family="Source Han Sans SC, Microsoft YaHei, sans-serif" font-size="21" font-weight="700" fill="#102a43">源白点 XYZ</text><text x="930.0" y="252" text-anchor="middle" font-family="Source Han Sans SC, Microsoft YaHei, sans-serif" font-size="16" font-weight="400" fill="#486581">t</text><rect x="1085" y="175" width="250" height="115" rx="16" fill="#fff7e8" stroke="#e8c77d" stroke-width="2.5" /><text x="1210.0" y="217" text-anchor="middle" font-family="Source Han Sans SC, Microsoft YaHei, sans-serif" font-size="21" font-weight="700" fill="#102a43">锥体样空间</text><text x="1210.0" y="252" text-anchor="middle" font-family="Source Han Sans SC, Microsoft YaHei, sans-serif" font-size="16" font-weight="400" fill="#486581">l = M t</text><rect x="945" y="355" width="250" height="115" rx="16" fill="#edf8f2" stroke="#9fd6b7" stroke-width="2.5" /><text x="1070.0" y="397" text-anchor="middle" font-family="Source Han Sans SC, Microsoft YaHei, sans-serif" font-size="21" font-weight="700" fill="#102a43">白点比例缩放</text><text x="1070.0" y="432" text-anchor="middle" font-family="Source Han Sans SC, Microsoft YaHei, sans-serif" font-size="16" font-weight="400" fill="#486581">l′ = D l</text><rect x="1225" y="355" width="220" height="115" rx="16" fill="#f7efff" stroke="#c9a9e8" stroke-width="2.5" /><text x="1335.0" y="397" text-anchor="middle" font-family="Source Han Sans SC, Microsoft YaHei, sans-serif" font-size="21" font-weight="700" fill="#102a43">目标 XYZ</text><text x="1335.0" y="432" text-anchor="middle" font-family="Source Han Sans SC, Microsoft YaHei, sans-serif" font-size="16" font-weight="400" fill="#486581">t′ = M⁻¹l′</text><line x1="1060" y1="232" x2="1075" y2="232" stroke="#3b82b5" stroke-width="3" stroke-linecap="round" marker-end="url(#arrow-blue)" /><line x1="1210" y1="295" x2="1070" y2="345" stroke="#3b82b5" stroke-width="3" stroke-linecap="round" marker-end="url(#arrow-blue)" /><line x1="1200" y1="412" x2="1215" y2="412" stroke="#3b82b5" stroke-width="3" stroke-linecap="round" marker-end="url(#arrow-blue)" /><rect x="845" y="535" width="560" height="105" rx="16" fill="#eef5fb" stroke="#a8c8e0" stroke-width="2.5" /><text x="1125.0" y="577" text-anchor="middle" font-family="Source Han Sans SC, Microsoft YaHei, sans-serif" font-size="21" font-weight="700" fill="#285b7a">适应矩阵</text><text x="1125.0" y="612" text-anchor="middle" font-family="Source Han Sans SC, Microsoft YaHei, sans-serif" font-size="16" font-weight="400" fill="#486581">A = M⁻¹ diag(lw,dst / lw,src) M</text><text x="1125" y="680" text-anchor="middle" font-family="Source Han Sans SC, Microsoft YaHei, sans-serif" font-size="16" font-weight="400" fill="#7b4b74">Bradford 等方法的差别主要在 M 与经验校正；它们都是近似观察者模型</text></svg>