<?xml version='1.0' encoding='utf-8'?>
<svg xmlns="http://www.w3.org/2000/svg" width="1500" height="740" viewBox="0 0 1500 740" role="img" aria-label="彩色滤波阵列将三通道场欠采样为单通道马赛克并通过先验重建"><defs><marker id="arrow-blue" markerWidth="10" markerHeight="8" refX="9" refY="4" orient="auto" markerUnits="strokeWidth"><path d="M 0 0 L 10 4 L 0 8 z" fill="#3b82b5" /></marker><marker id="arrow-dark" markerWidth="10" markerHeight="8" refX="9" refY="4" orient="auto" markerUnits="strokeWidth"><path d="M 0 0 L 10 4 L 0 8 z" fill="#334e68" /></marker><marker id="arrow-red" markerWidth="10" markerHeight="8" refX="9" refY="4" orient="auto" markerUnits="strokeWidth"><path d="M 0 0 L 10 4 L 0 8 z" fill="#c85b73" /></marker><marker id="arrow-green" markerWidth="10" markerHeight="8" refX="9" refY="4" orient="auto" markerUnits="strokeWidth"><path d="M 0 0 L 10 4 L 0 8 z" fill="#4d8c6a" /></marker><marker id="arrow-gold" markerWidth="10" markerHeight="8" refX="9" refY="4" orient="auto" markerUnits="strokeWidth"><path d="M 0 0 L 10 4 L 0 8 z" fill="#c58a2d" /></marker><marker id="arrow-purple" markerWidth="10" markerHeight="8" refX="9" refY="4" orient="auto" markerUnits="strokeWidth"><path d="M 0 0 L 10 4 L 0 8 z" fill="#7b4b74" /></marker><linearGradient id="irradiance" x1="0" x2="1" y1="0" y2="0"><stop offset="0" stop-color="#eaf4ff" /><stop offset="0.45" stop-color="#3b82b5" /><stop offset="0.7" stop-color="#c85b73" /><stop offset="1" stop-color="#fff0f3" /></linearGradient></defs><rect width="1500" height="740" fill="#fbfdff" /><text x="750.0" y="43" text-anchor="middle" font-family="Source Han Sans SC, Microsoft YaHei, sans-serif" font-size="31" font-weight="700" fill="#102a43">CFA 每个位置只给出一个光谱加权值；去马赛克是欠定逆问题</text><rect x="35" y="105" width="285" height="475" rx="16" fill="#f7f9fb" stroke="#9fb3c2" stroke-width="2.5" /><text x="177.5" y="147" text-anchor="middle" font-family="Source Han Sans SC, Microsoft YaHei, sans-serif" font-size="21" font-weight="700" fill="#102a43">未知三通道场</text><text x="177.5" y="182" text-anchor="middle" font-family="Source Han Sans SC, Microsoft YaHei, sans-serif" font-size="16" font-weight="400" fill="#486581">每个位置有 R、G、B 三个未知量</text><circle cx="70" cy="225" r="7" fill="#d76a7d" fill-opacity="0.45" /><circle cx="80" cy="225" r="7" fill="#58a879" fill-opacity="0.55" /><circle cx="90" cy="225" r="7" fill="#4d89bd" fill-opacity="0.65" /><circle cx="117" cy="225" r="7" fill="#d76a7d" fill-opacity="0.55" /><circle cx="127" cy="225" r="7" fill="#58a879" fill-opacity="0.65" /><circle cx="137" cy="225" r="7" fill="#4d89bd" fill-opacity="0.45" /><circle cx="164" cy="225" r="7" fill="#d76a7d" fill-opacity="0.65" /><circle cx="174" cy="225" r="7" fill="#58a879" fill-opacity="0.45" /><circle cx="184" cy="225" r="7" fill="#4d89bd" fill-opacity="0.55" /><circle cx="211" cy="225" r="7" fill="#d76a7d" fill-opacity="0.45" /><circle cx="221" cy="225" r="7" fill="#58a879" fill-opacity="0.55" /><circle cx="231" cy="225" r="7" fill="#4d89bd" fill-opacity="0.65" /><circle cx="258" cy="225" r="7" fill="#d76a7d" fill-opacity="0.55" /><circle cx="268" cy="225" r="7" fill="#58a879" fill-opacity="0.65" /><circle cx="278" cy="225" r="7" fill="#4d89bd" fill-opacity="0.45" /><circle cx="70" cy="280" r="7" fill="#d76a7d" fill-opacity="0.55" /><circle cx="80" cy="280" r="7" fill="#58a879" fill-opacity="0.65" /><circle cx="90" cy="280" r="7" fill="#4d89bd" fill-opacity="0.45" /><circle cx="117" cy="280" r="7" fill="#d76a7d" fill-opacity="0.65" /><circle cx="127" cy="280" r="7" fill="#58a879" fill-opacity="0.45" /><circle cx="137" cy="280" r="7" fill="#4d89bd" fill-opacity="0.55" /><circle cx="164" cy="280" r="7" fill="#d76a7d" fill-opacity="0.45" /><circle cx="174" cy="280" r="7" fill="#58a879" fill-opacity="0.55" /><circle cx="184" cy="280" r="7" fill="#4d89bd" fill-opacity="0.65" /><circle cx="211" cy="280" r="7" fill="#d76a7d" fill-opacity="0.55" /><circle cx="221" cy="280" r="7" fill="#58a879" fill-opacity="0.65" /><circle cx="231" cy="280" r="7" fill="#4d89bd" fill-opacity="0.45" /><circle cx="258" cy="280" r="7" fill="#d76a7d" fill-opacity="0.65" /><circle cx="268" cy="280" r="7" fill="#58a879" fill-opacity="0.45" /><circle cx="278" cy="280" r="7" fill="#4d89bd" fill-opacity="0.55" /><circle cx="70" cy="335" r="7" fill="#d76a7d" fill-opacity="0.65" /><circle cx="80" cy="335" r="7" fill="#58a879" fill-opacity="0.45" /><circle cx="90" cy="335" r="7" fill="#4d89bd" fill-opacity="0.55" /><circle cx="117" cy="335" r="7" fill="#d76a7d" fill-opacity="0.45" /><circle cx="127" cy="335" r="7" fill="#58a879" fill-opacity="0.55" /><circle cx="137" cy="335" r="7" fill="#4d89bd" fill-opacity="0.65" /><circle cx="164" cy="335" r="7" fill="#d76a7d" fill-opacity="0.55" /><circle cx="174" cy="335" r="7" fill="#58a879" fill-opacity="0.65" /><circle cx="184" cy="335" r="7" fill="#4d89bd" fill-opacity="0.45" /><circle cx="211" cy="335" r="7" fill="#d76a7d" fill-opacity="0.65" /><circle cx="221" cy="335" r="7" fill="#58a879" fill-opacity="0.45" /><circle cx="231" cy="335" r="7" fill="#4d89bd" fill-opacity="0.55" /><circle cx="258" cy="335" r="7" fill="#d76a7d" fill-opacity="0.45" /><circle cx="268" cy="335" r="7" fill="#58a879" fill-opacity="0.55" /><circle cx="278" cy="335" r="7" fill="#4d89bd" fill-opacity="0.65" /><circle cx="70" cy="390" r="7" fill="#d76a7d" fill-opacity="0.45" /><circle cx="80" cy="390" r="7" fill="#58a879" fill-opacity="0.55" /><circle cx="90" cy="390" r="7" fill="#4d89bd" fill-opacity="0.65" /><circle cx="117" cy="390" r="7" fill="#d76a7d" fill-opacity="0.55" /><circle cx="127" cy="390" r="7" fill="#58a879" fill-opacity="0.65" /><circle cx="137" cy="390" r="7" fill="#4d89bd" fill-opacity="0.45" /><circle cx="164" cy="390" r="7" fill="#d76a7d" fill-opacity="0.65" /><circle cx="174" cy="390" r="7" fill="#58a879" fill-opacity="0.45" /><circle cx="184" cy="390" r="7" fill="#4d89bd" fill-opacity="0.55" /><circle cx="211" cy="390" r="7" fill="#d76a7d" fill-opacity="0.45" /><circle cx="221" cy="390" r="7" fill="#58a879" fill-opacity="0.55" /><circle cx="231" cy="390" r="7" fill="#4d89bd" fill-opacity="0.65" /><circle cx="258" cy="390" r="7" fill="#d76a7d" fill-opacity="0.55" /><circle cx="268" cy="390" r="7" fill="#58a879" fill-opacity="0.65" /><circle cx="278" cy="390" r="7" fill="#4d89bd" fill-opacity="0.45" /><circle cx="70" cy="445" r="7" fill="#d76a7d" fill-opacity="0.55" /><circle cx="80" cy="445" r="7" fill="#58a879" fill-opacity="0.65" /><circle cx="90" cy="445" r="7" fill="#4d89bd" fill-opacity="0.45" /><circle cx="117" cy="445" r="7" fill="#d76a7d" fill-opacity="0.65" /><circle cx="127" cy="445" r="7" fill="#58a879" fill-opacity="0.45" /><circle cx="137" cy="445" r="7" fill="#4d89bd" fill-opacity="0.55" /><circle cx="164" cy="445" r="7" fill="#d76a7d" fill-opacity="0.45" /><circle cx="174" cy="445" r="7" fill="#58a879" fill-opacity="0.55" /><circle cx="184" cy="445" r="7" fill="#4d89bd" fill-opacity="0.65" /><circle cx="211" cy="445" r="7" fill="#d76a7d" fill-opacity="0.55" /><circle cx="221" cy="445" r="7" fill="#58a879" fill-opacity="0.65" /><circle cx="231" cy="445" r="7" fill="#4d89bd" fill-opacity="0.45" /><circle cx="258" cy="445" r="7" fill="#d76a7d" fill-opacity="0.65" /><circle cx="268" cy="445" r="7" fill="#58a879" fill-opacity="0.45" /><circle cx="278" cy="445" r="7" fill="#4d89bd" fill-opacity="0.55" /><text x="177" y="545" text-anchor="middle" font-family="Source Han Sans SC, Microsoft YaHei, sans-serif" font-size="18" font-weight="700" fill="#7b4b74">3MN 个未知量</text><line x1="325" y1="335" x2="385" y2="335" stroke="#3b82b5" stroke-width="4" stroke-linecap="round" marker-end="url(#arrow-blue)" /><rect x="390" y="105" width="320" height="475" rx="16" fill="#f4f9fd" stroke="#9bc7ee" stroke-width="2.5" /><text x="550.0" y="147" text-anchor="middle" font-family="Source Han Sans SC, Microsoft YaHei, sans-serif" font-size="21" font-weight="700" fill="#285b7a">2×2 Bayer 周期掩模</text><text x="550.0" y="182" text-anchor="middle" font-family="Source Han Sans SC, Microsoft YaHei, sans-serif" font-size="16" font-weight="400" fill="#486581">G 占 1/2；R、B 各占 1/4</text><rect x="435" y="215" width="54" height="54" fill="#d76a7d" fill-opacity="0.78" stroke="#ffffff" stroke-width="2" /><text x="462.0" y="249.02" text-anchor="middle" font-family="Source Han Sans SC, Microsoft YaHei, sans-serif" font-size="18" font-weight="700" fill="#ffffff">R</text><rect x="489" y="215" width="54" height="54" fill="#58a879" fill-opacity="0.78" stroke="#ffffff" stroke-width="2" /><text x="516.0" y="249.02" text-anchor="middle" font-family="Source Han Sans SC, Microsoft YaHei, sans-serif" font-size="18" font-weight="700" fill="#ffffff">G</text><rect x="543" y="215" width="54" height="54" fill="#d76a7d" fill-opacity="0.78" stroke="#ffffff" stroke-width="2" /><text x="570.0" y="249.02" text-anchor="middle" font-family="Source Han Sans SC, Microsoft YaHei, sans-serif" font-size="18" font-weight="700" fill="#ffffff">R</text><rect x="597" y="215" width="54" height="54" fill="#58a879" fill-opacity="0.78" stroke="#ffffff" stroke-width="2" /><text x="624.0" y="249.02" text-anchor="middle" font-family="Source Han Sans SC, Microsoft YaHei, sans-serif" font-size="18" font-weight="700" fill="#ffffff">G</text><rect x="435" y="269" width="54" height="54" fill="#58a879" fill-opacity="0.78" stroke="#ffffff" stroke-width="2" /><text x="462.0" y="303.02" text-anchor="middle" font-family="Source Han Sans SC, Microsoft YaHei, sans-serif" font-size="18" font-weight="700" fill="#ffffff">G</text><rect x="489" y="269" width="54" height="54" fill="#4d89bd" fill-opacity="0.78" stroke="#ffffff" stroke-width="2" /><text x="516.0" y="303.02" text-anchor="middle" font-family="Source Han Sans SC, Microsoft YaHei, sans-serif" font-size="18" font-weight="700" fill="#ffffff">B</text><rect x="543" y="269" width="54" height="54" fill="#58a879" fill-opacity="0.78" stroke="#ffffff" stroke-width="2" /><text x="570.0" y="303.02" text-anchor="middle" font-family="Source Han Sans SC, Microsoft YaHei, sans-serif" font-size="18" font-weight="700" fill="#ffffff">G</text><rect x="597" y="269" width="54" height="54" fill="#4d89bd" fill-opacity="0.78" stroke="#ffffff" stroke-width="2" /><text x="624.0" y="303.02" text-anchor="middle" font-family="Source Han Sans SC, Microsoft YaHei, sans-serif" font-size="18" font-weight="700" fill="#ffffff">B</text><rect x="435" y="323" width="54" height="54" fill="#d76a7d" fill-opacity="0.78" stroke="#ffffff" stroke-width="2" /><text x="462.0" y="357.02" text-anchor="middle" font-family="Source Han Sans SC, Microsoft YaHei, sans-serif" font-size="18" font-weight="700" fill="#ffffff">R</text><rect x="489" y="323" width="54" height="54" fill="#58a879" fill-opacity="0.78" stroke="#ffffff" stroke-width="2" /><text x="516.0" y="357.02" text-anchor="middle" font-family="Source Han Sans SC, Microsoft YaHei, sans-serif" font-size="18" font-weight="700" fill="#ffffff">G</text><rect x="543" y="323" width="54" height="54" fill="#d76a7d" fill-opacity="0.78" stroke="#ffffff" stroke-width="2" /><text x="570.0" y="357.02" text-anchor="middle" font-family="Source Han Sans SC, Microsoft YaHei, sans-serif" font-size="18" font-weight="700" fill="#ffffff">R</text><rect x="597" y="323" width="54" height="54" fill="#58a879" fill-opacity="0.78" stroke="#ffffff" stroke-width="2" /><text x="624.0" y="357.02" text-anchor="middle" font-family="Source Han Sans SC, Microsoft YaHei, sans-serif" font-size="18" font-weight="700" fill="#ffffff">G</text><rect x="435" y="377" width="54" height="54" fill="#58a879" fill-opacity="0.78" stroke="#ffffff" stroke-width="2" /><text x="462.0" y="411.02" text-anchor="middle" font-family="Source Han Sans SC, Microsoft YaHei, sans-serif" font-size="18" font-weight="700" fill="#ffffff">G</text><rect x="489" y="377" width="54" height="54" fill="#4d89bd" fill-opacity="0.78" stroke="#ffffff" stroke-width="2" /><text x="516.0" y="411.02" text-anchor="middle" font-family="Source Han Sans SC, Microsoft YaHei, sans-serif" font-size="18" font-weight="700" fill="#ffffff">B</text><rect x="543" y="377" width="54" height="54" fill="#58a879" fill-opacity="0.78" stroke="#ffffff" stroke-width="2" /><text x="570.0" y="411.02" text-anchor="middle" font-family="Source Han Sans SC, Microsoft YaHei, sans-serif" font-size="18" font-weight="700" fill="#ffffff">G</text><rect x="597" y="377" width="54" height="54" fill="#4d89bd" fill-opacity="0.78" stroke="#ffffff" stroke-width="2" /><text x="624.0" y="411.02" text-anchor="middle" font-family="Source Han Sans SC, Microsoft YaHei, sans-serif" font-size="18" font-weight="700" fill="#ffffff">B</text><rect x="435" y="431" width="54" height="54" fill="#d76a7d" fill-opacity="0.78" stroke="#ffffff" stroke-width="2" /><text x="462.0" y="465.02" text-anchor="middle" font-family="Source Han Sans SC, Microsoft YaHei, sans-serif" font-size="18" font-weight="700" fill="#ffffff">R</text><rect x="489" y="431" width="54" height="54" fill="#58a879" fill-opacity="0.78" stroke="#ffffff" stroke-width="2" /><text x="516.0" y="465.02" text-anchor="middle" font-family="Source Han Sans SC, Microsoft YaHei, sans-serif" font-size="18" font-weight="700" fill="#ffffff">G</text><rect x="543" y="431" width="54" height="54" fill="#d76a7d" fill-opacity="0.78" stroke="#ffffff" stroke-width="2" /><text x="570.0" y="465.02" text-anchor="middle" font-family="Source Han Sans SC, Microsoft YaHei, sans-serif" font-size="18" font-weight="700" fill="#ffffff">R</text><rect x="597" y="431" width="54" height="54" fill="#58a879" fill-opacity="0.78" stroke="#ffffff" stroke-width="2" /><text x="624.0" y="465.02" text-anchor="middle" font-family="Source Han Sans SC, Microsoft YaHei, sans-serif" font-size="18" font-weight="700" fill="#ffffff">G</text><rect x="435" y="485" width="54" height="54" fill="#58a879" fill-opacity="0.78" stroke="#ffffff" stroke-width="2" /><text x="462.0" y="519.02" text-anchor="middle" font-family="Source Han Sans SC, Microsoft YaHei, sans-serif" font-size="18" font-weight="700" fill="#ffffff">G</text><rect x="489" y="485" width="54" height="54" fill="#4d89bd" fill-opacity="0.78" stroke="#ffffff" stroke-width="2" /><text x="516.0" y="519.02" text-anchor="middle" font-family="Source Han Sans SC, Microsoft YaHei, sans-serif" font-size="18" font-weight="700" fill="#ffffff">B</text><rect x="543" y="485" width="54" height="54" fill="#58a879" fill-opacity="0.78" stroke="#ffffff" stroke-width="2" /><text x="570.0" y="519.02" text-anchor="middle" font-family="Source Han Sans SC, Microsoft YaHei, sans-serif" font-size="18" font-weight="700" fill="#ffffff">G</text><rect x="597" y="485" width="54" height="54" fill="#4d89bd" fill-opacity="0.78" stroke="#ffffff" stroke-width="2" /><text x="624.0" y="519.02" text-anchor="middle" font-family="Source Han Sans SC, Microsoft YaHei, sans-serif" font-size="18" font-weight="700" fill="#ffffff">B</text><text x="550" y="560" text-anchor="middle" font-family="Source Han Sans SC, Microsoft YaHei, sans-serif" font-size="18" font-weight="700" fill="#7b4b74">只有 MN 个观测值</text><line x1="715" y1="335" x2="775" y2="335" stroke="#3b82b5" stroke-width="4" stroke-linecap="round" marker-end="url(#arrow-blue)" /><rect x="780" y="105" width="300" height="475" rx="16" fill="#fff7e8" stroke="#e8c77d" stroke-width="2.5" /><text x="930.0" y="147" text-anchor="middle" font-family="Source Han Sans SC, Microsoft YaHei, sans-serif" font-size="21" font-weight="700" fill="#8a5f19">重建先验</text><text x="930.0" y="182" text-anchor="middle" font-family="Source Han Sans SC, Microsoft YaHei, sans-serif" font-size="16" font-weight="400" fill="#486581">决定无观测位置如何补值</text><circle cx="835" cy="225" r="10" fill="#c58a2d" /><text x="860" y="230" text-anchor="start" font-family="Source Han Sans SC, Microsoft YaHei, sans-serif" font-size="18" font-weight="700" fill="#8a5f19">局部平滑</text><text x="860" y="258" text-anchor="start" font-family="Source Han Sans SC, Microsoft YaHei, sans-serif" font-size="15" font-weight="400" fill="#627d98">低频色度</text><circle cx="835" cy="305" r="10" fill="#c58a2d" /><text x="860" y="310" text-anchor="start" font-family="Source Han Sans SC, Microsoft YaHei, sans-serif" font-size="18" font-weight="700" fill="#8a5f19">边缘同向</text><text x="860" y="338" text-anchor="start" font-family="Source Han Sans SC, Microsoft YaHei, sans-serif" font-size="15" font-weight="400" fill="#627d98">避免跨边缘插值</text><circle cx="835" cy="385" r="10" fill="#c58a2d" /><text x="860" y="390" text-anchor="start" font-family="Source Han Sans SC, Microsoft YaHei, sans-serif" font-size="18" font-weight="700" fill="#8a5f19">通道相关</text><text x="860" y="418" text-anchor="start" font-family="Source Han Sans SC, Microsoft YaHei, sans-serif" font-size="15" font-weight="400" fill="#627d98">亮度/色差分解</text><circle cx="835" cy="465" r="10" fill="#c58a2d" /><text x="860" y="470" text-anchor="start" font-family="Source Han Sans SC, Microsoft YaHei, sans-serif" font-size="18" font-weight="700" fill="#8a5f19">数据先验</text><text x="860" y="498" text-anchor="start" font-family="Source Han Sans SC, Microsoft YaHei, sans-serif" font-size="15" font-weight="400" fill="#627d98">学习型统计规律</text><line x1="1085" y1="335" x2="1145" y2="335" stroke="#3b82b5" stroke-width="4" stroke-linecap="round" marker-end="url(#arrow-blue)" /><rect x="1150" y="105" width="315" height="475" rx="16" fill="#f7efff" stroke="#c9a9e8" stroke-width="2.5" /><text x="1307.5" y="147" text-anchor="middle" font-family="Source Han Sans SC, Microsoft YaHei, sans-serif" font-size="21" font-weight="700" fill="#7b4b74">全彩图像估计</text><text x="1307.5" y="182" text-anchor="middle" font-family="Source Han Sans SC, Microsoft YaHei, sans-serif" font-size="16" font-weight="400" fill="#486581">结果依赖算法，不是直接测量</text><rect x="1195" y="225" width="44" height="44" fill="#78aad2" stroke="#ffffff" stroke-width="1" /><rect x="1239" y="225" width="44" height="44" fill="#91aabe" stroke="#ffffff" stroke-width="1" /><rect x="1283" y="225" width="44" height="44" fill="#aaaaaa" stroke="#ffffff" stroke-width="1" /><rect x="1327" y="225" width="44" height="44" fill="#c3aa96" stroke="#ffffff" stroke-width="1" /><rect x="1371" y="225" width="44" height="44" fill="#dcaa82" stroke="#ffffff" stroke-width="1" /><rect x="1195" y="269" width="44" height="44" fill="#78a1d2" stroke="#ffffff" stroke-width="1" /><rect x="1239" y="269" width="44" height="44" fill="#91a1be" stroke="#ffffff" stroke-width="1" /><rect x="1283" y="269" width="44" height="44" fill="#aaa1aa" stroke="#ffffff" stroke-width="1" /><rect x="1327" y="269" width="44" height="44" fill="#c3a196" stroke="#ffffff" stroke-width="1" /><rect x="1371" y="269" width="44" height="44" fill="#dca182" stroke="#ffffff" stroke-width="1" /><rect x="1195" y="313" width="44" height="44" fill="#7898d2" stroke="#ffffff" stroke-width="1" /><rect x="1239" y="313" width="44" height="44" fill="#9198be" stroke="#ffffff" stroke-width="1" /><rect x="1283" y="313" width="44" height="44" fill="#d25591" stroke="#ffffff" stroke-width="1" /><rect x="1327" y="313" width="44" height="44" fill="#d25591" stroke="#ffffff" stroke-width="1" /><rect x="1371" y="313" width="44" height="44" fill="#dc9882" stroke="#ffffff" stroke-width="1" /><rect x="1195" y="357" width="44" height="44" fill="#788fd2" stroke="#ffffff" stroke-width="1" /><rect x="1239" y="357" width="44" height="44" fill="#918fbe" stroke="#ffffff" stroke-width="1" /><rect x="1283" y="357" width="44" height="44" fill="#d25591" stroke="#ffffff" stroke-width="1" /><rect x="1327" y="357" width="44" height="44" fill="#d25591" stroke="#ffffff" stroke-width="1" /><rect x="1371" y="357" width="44" height="44" fill="#dc8f82" stroke="#ffffff" stroke-width="1" /><rect x="1195" y="401" width="44" height="44" fill="#7886d2" stroke="#ffffff" stroke-width="1" /><rect x="1239" y="401" width="44" height="44" fill="#9186be" stroke="#ffffff" stroke-width="1" /><rect x="1283" y="401" width="44" height="44" fill="#aa86aa" stroke="#ffffff" stroke-width="1" /><rect x="1327" y="401" width="44" height="44" fill="#c38696" stroke="#ffffff" stroke-width="1" /><rect x="1371" y="401" width="44" height="44" fill="#dc8682" stroke="#ffffff" stroke-width="1" /><rect x="1195" y="445" width="44" height="44" fill="#787dd2" stroke="#ffffff" stroke-width="1" /><rect x="1239" y="445" width="44" height="44" fill="#917dbe" stroke="#ffffff" stroke-width="1" /><rect x="1283" y="445" width="44" height="44" fill="#aa7daa" stroke="#ffffff" stroke-width="1" /><rect x="1327" y="445" width="44" height="44" fill="#c37d96" stroke="#ffffff" stroke-width="1" /><rect x="1371" y="445" width="44" height="44" fill="#dc7d82" stroke="#ffffff" stroke-width="1" /><text x="1307" y="530" text-anchor="middle" font-family="Source Han Sans SC, Microsoft YaHei, sans-serif" font-size="16" font-weight="700" fill="#a24862">可能出现假色、拉链、迷宫纹</text><rect x="115" y="625" width="1270" height="78" rx="16" fill="#edf8f2" stroke="#9fd6b7" stroke-width="2.5" /><text x="750.0" y="667" text-anchor="middle" font-family="Source Han Sans SC, Microsoft YaHei, sans-serif" font-size="21" font-weight="700" fill="#397456">y[m,n] = MR[m,n]R[m,n] + MG[m,n]G[m,n] + MB[m,n]B[m,n] + ε</text><text x="750" y="727" text-anchor="middle" font-family="Source Han Sans SC, Microsoft YaHei, sans-serif" font-size="18" font-weight="400" fill="#7b4b74">一条标量方程不能逐像素唯一确定三个通道；阵列设计只是在频谱布局、光子效率与重建难度之间换取不同折衷</text></svg>