<?xml version='1.0' encoding='utf-8'?>
<svg xmlns="http://www.w3.org/2000/svg" width="1500" height="720" viewBox="0 0 1500 720" role="img" aria-label="CFA测量并不是低分辨率RGB缩略图"><defs><marker id="arrow-blue" markerWidth="10" markerHeight="8" refX="9" refY="4" orient="auto" markerUnits="strokeWidth"><path d="M 0 0 L 10 4 L 0 8 z" fill="#3b82b5" /></marker><marker id="arrow-dark" markerWidth="10" markerHeight="8" refX="9" refY="4" orient="auto" markerUnits="strokeWidth"><path d="M 0 0 L 10 4 L 0 8 z" fill="#334e68" /></marker><marker id="arrow-red" markerWidth="10" markerHeight="8" refX="9" refY="4" orient="auto" markerUnits="strokeWidth"><path d="M 0 0 L 10 4 L 0 8 z" fill="#c85b73" /></marker><marker id="arrow-green" markerWidth="10" markerHeight="8" refX="9" refY="4" orient="auto" markerUnits="strokeWidth"><path d="M 0 0 L 10 4 L 0 8 z" fill="#4d8c6a" /></marker><marker id="arrow-gold" markerWidth="10" markerHeight="8" refX="9" refY="4" orient="auto" markerUnits="strokeWidth"><path d="M 0 0 L 10 4 L 0 8 z" fill="#c58a2d" /></marker><marker id="arrow-purple" markerWidth="10" markerHeight="8" refX="9" refY="4" orient="auto" markerUnits="strokeWidth"><path d="M 0 0 L 10 4 L 0 8 z" fill="#7b4b74" /></marker></defs><rect width="1500" height="720" fill="#fbfdff" /><text x="750" y="43" text-anchor="middle" font-family="Source Han Sans SC, Microsoft YaHei, sans-serif" font-size="30" font-weight="700" fill="#102a43">去马赛克是在欠采样颜色场上做估计，不是在黑色空格中“补颜色”</text><text x="245" y="105" text-anchor="middle" font-family="Source Han Sans SC, Microsoft YaHei, sans-serif" font-size="23" font-weight="700" fill="#285b7a">连续三通道场</text><text x="245" y="135" text-anchor="middle" font-family="Source Han Sans SC, Microsoft YaHei, sans-serif" font-size="15" font-weight="400" fill="#627d98">每个位置潜在有 R,G,B</text><text x="730" y="105" text-anchor="middle" font-family="Source Han Sans SC, Microsoft YaHei, sans-serif" font-size="23" font-weight="700" fill="#285b7a">CFA 单通道观测</text><text x="730" y="135" text-anchor="middle" font-family="Source Han Sans SC, Microsoft YaHei, sans-serif" font-size="15" font-weight="400" fill="#627d98">每个像素只保留一个投影</text><text x="1215" y="105" text-anchor="middle" font-family="Source Han Sans SC, Microsoft YaHei, sans-serif" font-size="23" font-weight="700" fill="#285b7a">估计的 RGB 场</text><text x="1215" y="135" text-anchor="middle" font-family="Source Han Sans SC, Microsoft YaHei, sans-serif" font-size="15" font-weight="400" fill="#627d98">利用空间与跨通道先验</text><rect x="95" y="180" width="44" height="54" rx="5" fill="rgb(90,145,205)" stroke="#ffffff" /><rect x="143" y="180" width="44" height="54" rx="5" fill="rgb(110,145,195)" stroke="#ffffff" /><rect x="191" y="180" width="44" height="54" rx="5" fill="rgb(130,145,185)" stroke="#ffffff" /><rect x="239" y="180" width="44" height="54" rx="5" fill="rgb(150,145,175)" stroke="#ffffff" /><rect x="287" y="180" width="44" height="54" rx="5" fill="rgb(170,145,165)" stroke="#ffffff" /><rect x="335" y="180" width="44" height="54" rx="5" fill="rgb(190,145,155)" stroke="#ffffff" /><rect x="95" y="238" width="44" height="54" rx="5" fill="rgb(90,157,205)" stroke="#ffffff" /><rect x="143" y="238" width="44" height="54" rx="5" fill="rgb(110,157,195)" stroke="#ffffff" /><rect x="191" y="238" width="44" height="54" rx="5" fill="rgb(130,157,185)" stroke="#ffffff" /><rect x="239" y="238" width="44" height="54" rx="5" fill="rgb(150,157,175)" stroke="#ffffff" /><rect x="287" y="238" width="44" height="54" rx="5" fill="rgb(170,157,165)" stroke="#ffffff" /><rect x="335" y="238" width="44" height="54" rx="5" fill="rgb(190,157,155)" stroke="#ffffff" /><rect x="95" y="296" width="44" height="54" rx="5" fill="rgb(90,169,205)" stroke="#ffffff" /><rect x="143" y="296" width="44" height="54" rx="5" fill="rgb(110,169,195)" stroke="#ffffff" /><rect x="191" y="296" width="44" height="54" rx="5" fill="rgb(130,169,185)" stroke="#ffffff" /><rect x="239" y="296" width="44" height="54" rx="5" fill="rgb(150,169,175)" stroke="#ffffff" /><rect x="287" y="296" width="44" height="54" rx="5" fill="rgb(170,169,165)" stroke="#ffffff" /><rect x="335" y="296" width="44" height="54" rx="5" fill="rgb(190,169,155)" stroke="#ffffff" /><rect x="95" y="354" width="44" height="54" rx="5" fill="rgb(90,181,205)" stroke="#ffffff" /><rect x="143" y="354" width="44" height="54" rx="5" fill="rgb(110,181,195)" stroke="#ffffff" /><rect x="191" y="354" width="44" height="54" rx="5" fill="rgb(130,181,185)" stroke="#ffffff" /><rect x="239" y="354" width="44" height="54" rx="5" fill="rgb(150,181,175)" stroke="#ffffff" /><rect x="287" y="354" width="44" height="54" rx="5" fill="rgb(170,181,165)" stroke="#ffffff" /><rect x="335" y="354" width="44" height="54" rx="5" fill="rgb(190,181,155)" stroke="#ffffff" /><rect x="95" y="412" width="44" height="54" rx="5" fill="rgb(90,193,205)" stroke="#ffffff" /><rect x="143" y="412" width="44" height="54" rx="5" fill="rgb(110,193,195)" stroke="#ffffff" /><rect x="191" y="412" width="44" height="54" rx="5" fill="rgb(130,193,185)" stroke="#ffffff" /><rect x="239" y="412" width="44" height="54" rx="5" fill="rgb(150,193,175)" stroke="#ffffff" /><rect x="287" y="412" width="44" height="54" rx="5" fill="rgb(170,193,165)" stroke="#ffffff" /><rect x="335" y="412" width="44" height="54" rx="5" fill="rgb(190,193,155)" stroke="#ffffff" /><rect x="95" y="470" width="44" height="54" rx="5" fill="rgb(90,205,205)" stroke="#ffffff" /><rect x="143" y="470" width="44" height="54" rx="5" fill="rgb(110,205,195)" stroke="#ffffff" /><rect x="191" y="470" width="44" height="54" rx="5" fill="rgb(130,205,185)" stroke="#ffffff" /><rect x="239" y="470" width="44" height="54" rx="5" fill="rgb(150,205,175)" stroke="#ffffff" /><rect x="287" y="470" width="44" height="54" rx="5" fill="rgb(170,205,165)" stroke="#ffffff" /><rect x="335" y="470" width="44" height="54" rx="5" fill="rgb(190,205,155)" stroke="#ffffff" /><rect x="580" y="180" width="44" height="54" rx="5" fill="#d86b7e" stroke="#ffffff" /><text x="602" y="215" text-anchor="middle" font-family="Source Han Sans SC, Microsoft YaHei, sans-serif" font-size="18" font-weight="700" fill="#ffffff">R</text><rect x="628" y="180" width="44" height="54" rx="5" fill="#68a879" stroke="#ffffff" /><text x="650" y="215" text-anchor="middle" font-family="Source Han Sans SC, Microsoft YaHei, sans-serif" font-size="18" font-weight="700" fill="#ffffff">G</text><rect x="676" y="180" width="44" height="54" rx="5" fill="#d86b7e" stroke="#ffffff" /><text x="698" y="215" text-anchor="middle" font-family="Source Han Sans SC, Microsoft YaHei, sans-serif" font-size="18" font-weight="700" fill="#ffffff">R</text><rect x="724" y="180" width="44" height="54" rx="5" fill="#68a879" stroke="#ffffff" /><text x="746" y="215" text-anchor="middle" font-family="Source Han Sans SC, Microsoft YaHei, sans-serif" font-size="18" font-weight="700" fill="#ffffff">G</text><rect x="772" y="180" width="44" height="54" rx="5" fill="#d86b7e" stroke="#ffffff" /><text x="794" y="215" text-anchor="middle" font-family="Source Han Sans SC, Microsoft YaHei, sans-serif" font-size="18" font-weight="700" fill="#ffffff">R</text><rect x="820" y="180" width="44" height="54" rx="5" fill="#68a879" stroke="#ffffff" /><text x="842" y="215" text-anchor="middle" font-family="Source Han Sans SC, Microsoft YaHei, sans-serif" font-size="18" font-weight="700" fill="#ffffff">G</text><rect x="580" y="238" width="44" height="54" rx="5" fill="#68a879" stroke="#ffffff" /><text x="602" y="273" text-anchor="middle" font-family="Source Han Sans SC, Microsoft YaHei, sans-serif" font-size="18" font-weight="700" fill="#ffffff">G</text><rect x="628" y="238" width="44" height="54" rx="5" fill="#5e8fc7" stroke="#ffffff" /><text x="650" y="273" text-anchor="middle" font-family="Source Han Sans SC, Microsoft YaHei, sans-serif" font-size="18" font-weight="700" fill="#ffffff">B</text><rect x="676" y="238" width="44" height="54" rx="5" fill="#68a879" stroke="#ffffff" /><text x="698" y="273" text-anchor="middle" font-family="Source Han Sans SC, Microsoft YaHei, sans-serif" font-size="18" font-weight="700" fill="#ffffff">G</text><rect x="724" y="238" width="44" height="54" rx="5" fill="#5e8fc7" stroke="#ffffff" /><text x="746" y="273" text-anchor="middle" font-family="Source Han Sans SC, Microsoft YaHei, sans-serif" font-size="18" font-weight="700" fill="#ffffff">B</text><rect x="772" y="238" width="44" height="54" rx="5" fill="#68a879" stroke="#ffffff" /><text x="794" y="273" text-anchor="middle" font-family="Source Han Sans SC, Microsoft YaHei, sans-serif" font-size="18" font-weight="700" fill="#ffffff">G</text><rect x="820" y="238" width="44" height="54" rx="5" fill="#5e8fc7" stroke="#ffffff" /><text x="842" y="273" text-anchor="middle" font-family="Source Han Sans SC, Microsoft YaHei, sans-serif" font-size="18" font-weight="700" fill="#ffffff">B</text><rect x="580" y="296" width="44" height="54" rx="5" fill="#d86b7e" stroke="#ffffff" /><text x="602" y="331" text-anchor="middle" font-family="Source Han Sans SC, Microsoft YaHei, sans-serif" font-size="18" font-weight="700" fill="#ffffff">R</text><rect x="628" y="296" width="44" height="54" rx="5" fill="#68a879" stroke="#ffffff" /><text x="650" y="331" text-anchor="middle" font-family="Source Han Sans SC, Microsoft YaHei, sans-serif" font-size="18" font-weight="700" fill="#ffffff">G</text><rect x="676" y="296" width="44" height="54" rx="5" fill="#d86b7e" stroke="#ffffff" /><text x="698" y="331" text-anchor="middle" font-family="Source Han Sans SC, Microsoft YaHei, sans-serif" font-size="18" font-weight="700" fill="#ffffff">R</text><rect x="724" y="296" width="44" height="54" rx="5" fill="#68a879" stroke="#ffffff" /><text x="746" y="331" text-anchor="middle" font-family="Source Han Sans SC, Microsoft YaHei, sans-serif" font-size="18" font-weight="700" fill="#ffffff">G</text><rect x="772" y="296" width="44" height="54" rx="5" fill="#d86b7e" stroke="#ffffff" /><text x="794" y="331" text-anchor="middle" font-family="Source Han Sans SC, Microsoft YaHei, sans-serif" font-size="18" font-weight="700" fill="#ffffff">R</text><rect x="820" y="296" width="44" height="54" rx="5" fill="#68a879" stroke="#ffffff" /><text x="842" y="331" text-anchor="middle" font-family="Source Han Sans SC, Microsoft YaHei, sans-serif" font-size="18" font-weight="700" fill="#ffffff">G</text><rect x="580" y="354" width="44" height="54" rx="5" fill="#68a879" stroke="#ffffff" /><text x="602" y="389" text-anchor="middle" font-family="Source Han Sans SC, Microsoft YaHei, sans-serif" font-size="18" font-weight="700" fill="#ffffff">G</text><rect x="628" y="354" width="44" height="54" rx="5" fill="#5e8fc7" stroke="#ffffff" /><text x="650" y="389" text-anchor="middle" font-family="Source Han Sans SC, Microsoft YaHei, sans-serif" font-size="18" font-weight="700" fill="#ffffff">B</text><rect x="676" y="354" width="44" height="54" rx="5" fill="#68a879" stroke="#ffffff" /><text x="698" y="389" text-anchor="middle" font-family="Source Han Sans SC, Microsoft YaHei, sans-serif" font-size="18" font-weight="700" fill="#ffffff">G</text><rect x="724" y="354" width="44" height="54" rx="5" fill="#5e8fc7" stroke="#ffffff" /><text x="746" y="389" text-anchor="middle" font-family="Source Han Sans SC, Microsoft YaHei, sans-serif" font-size="18" font-weight="700" fill="#ffffff">B</text><rect x="772" y="354" width="44" height="54" rx="5" fill="#68a879" stroke="#ffffff" /><text x="794" y="389" text-anchor="middle" font-family="Source Han Sans SC, Microsoft YaHei, sans-serif" font-size="18" font-weight="700" fill="#ffffff">G</text><rect x="820" y="354" width="44" height="54" rx="5" fill="#5e8fc7" stroke="#ffffff" /><text x="842" y="389" text-anchor="middle" font-family="Source Han Sans SC, Microsoft YaHei, sans-serif" font-size="18" font-weight="700" fill="#ffffff">B</text><rect x="580" y="412" width="44" height="54" rx="5" fill="#d86b7e" stroke="#ffffff" /><text x="602" y="447" text-anchor="middle" font-family="Source Han Sans SC, Microsoft YaHei, sans-serif" font-size="18" font-weight="700" fill="#ffffff">R</text><rect x="628" y="412" width="44" height="54" rx="5" fill="#68a879" stroke="#ffffff" /><text x="650" y="447" text-anchor="middle" font-family="Source Han Sans SC, Microsoft YaHei, sans-serif" font-size="18" font-weight="700" fill="#ffffff">G</text><rect x="676" y="412" width="44" height="54" rx="5" fill="#d86b7e" stroke="#ffffff" /><text x="698" y="447" text-anchor="middle" font-family="Source Han Sans SC, Microsoft YaHei, sans-serif" font-size="18" font-weight="700" fill="#ffffff">R</text><rect x="724" y="412" width="44" height="54" rx="5" fill="#68a879" stroke="#ffffff" /><text x="746" y="447" text-anchor="middle" font-family="Source Han Sans SC, Microsoft YaHei, sans-serif" font-size="18" font-weight="700" fill="#ffffff">G</text><rect x="772" y="412" width="44" height="54" rx="5" fill="#d86b7e" stroke="#ffffff" /><text x="794" y="447" text-anchor="middle" font-family="Source Han Sans SC, Microsoft YaHei, sans-serif" font-size="18" font-weight="700" fill="#ffffff">R</text><rect x="820" y="412" width="44" height="54" rx="5" fill="#68a879" stroke="#ffffff" /><text x="842" y="447" text-anchor="middle" font-family="Source Han Sans SC, Microsoft YaHei, sans-serif" font-size="18" font-weight="700" fill="#ffffff">G</text><rect x="580" y="470" width="44" height="54" rx="5" fill="#68a879" stroke="#ffffff" /><text x="602" y="505" text-anchor="middle" font-family="Source Han Sans SC, Microsoft YaHei, sans-serif" font-size="18" font-weight="700" fill="#ffffff">G</text><rect x="628" y="470" width="44" height="54" rx="5" fill="#5e8fc7" stroke="#ffffff" /><text x="650" y="505" text-anchor="middle" font-family="Source Han Sans SC, Microsoft YaHei, sans-serif" font-size="18" font-weight="700" fill="#ffffff">B</text><rect x="676" y="470" width="44" height="54" rx="5" fill="#68a879" stroke="#ffffff" /><text x="698" y="505" text-anchor="middle" font-family="Source Han Sans SC, Microsoft YaHei, sans-serif" font-size="18" font-weight="700" fill="#ffffff">G</text><rect x="724" y="470" width="44" height="54" rx="5" fill="#5e8fc7" stroke="#ffffff" /><text x="746" y="505" text-anchor="middle" font-family="Source Han Sans SC, Microsoft YaHei, sans-serif" font-size="18" font-weight="700" fill="#ffffff">B</text><rect x="772" y="470" width="44" height="54" rx="5" fill="#68a879" stroke="#ffffff" /><text x="794" y="505" text-anchor="middle" font-family="Source Han Sans SC, Microsoft YaHei, sans-serif" font-size="18" font-weight="700" fill="#ffffff">G</text><rect x="820" y="470" width="44" height="54" rx="5" fill="#5e8fc7" stroke="#ffffff" /><text x="842" y="505" text-anchor="middle" font-family="Source Han Sans SC, Microsoft YaHei, sans-serif" font-size="18" font-weight="700" fill="#ffffff">B</text><rect x="1065" y="180" width="44" height="54" rx="5" fill="rgb(92,143,202)" stroke="#ffffff" /><rect x="1113" y="180" width="44" height="54" rx="5" fill="rgb(112,143,192)" stroke="#ffffff" /><rect x="1161" y="180" width="44" height="54" rx="5" fill="rgb(132,143,182)" stroke="#ffffff" /><rect x="1209" y="180" width="44" height="54" rx="5" fill="rgb(152,143,172)" stroke="#ffffff" /><rect x="1257" y="180" width="44" height="54" rx="5" fill="rgb(172,143,162)" stroke="#ffffff" /><rect x="1305" y="180" width="44" height="54" rx="5" fill="rgb(192,143,152)" stroke="#ffffff" /><rect x="1065" y="238" width="44" height="54" rx="5" fill="rgb(92,155,202)" stroke="#ffffff" /><rect x="1113" y="238" width="44" height="54" rx="5" fill="rgb(112,155,192)" stroke="#ffffff" /><rect x="1161" y="238" width="44" height="54" rx="5" fill="rgb(132,155,182)" stroke="#ffffff" /><rect x="1209" y="238" width="44" height="54" rx="5" fill="rgb(152,155,172)" stroke="#ffffff" /><rect x="1257" y="238" width="44" height="54" rx="5" fill="rgb(172,155,162)" stroke="#ffffff" /><rect x="1305" y="238" width="44" height="54" rx="5" fill="rgb(192,155,152)" stroke="#ffffff" /><rect x="1065" y="296" width="44" height="54" rx="5" fill="rgb(92,167,202)" stroke="#ffffff" /><rect x="1113" y="296" width="44" height="54" rx="5" fill="rgb(112,167,192)" stroke="#ffffff" /><rect x="1161" y="296" width="44" height="54" rx="5" fill="#bb72b8" stroke="#ffffff" /><rect x="1209" y="296" width="44" height="54" rx="5" fill="#bb72b8" stroke="#ffffff" /><rect x="1257" y="296" width="44" height="54" rx="5" fill="rgb(172,167,162)" stroke="#ffffff" /><rect x="1305" y="296" width="44" height="54" rx="5" fill="rgb(192,167,152)" stroke="#ffffff" /><rect x="1065" y="354" width="44" height="54" rx="5" fill="rgb(92,179,202)" stroke="#ffffff" /><rect x="1113" y="354" width="44" height="54" rx="5" fill="rgb(112,179,192)" stroke="#ffffff" /><rect x="1161" y="354" width="44" height="54" rx="5" fill="rgb(132,179,182)" stroke="#ffffff" /><rect x="1209" y="354" width="44" height="54" rx="5" fill="rgb(152,179,172)" stroke="#ffffff" /><rect x="1257" y="354" width="44" height="54" rx="5" fill="rgb(172,179,162)" stroke="#ffffff" /><rect x="1305" y="354" width="44" height="54" rx="5" fill="rgb(192,179,152)" stroke="#ffffff" /><rect x="1065" y="412" width="44" height="54" rx="5" fill="rgb(92,191,202)" stroke="#ffffff" /><rect x="1113" y="412" width="44" height="54" rx="5" fill="rgb(112,191,192)" stroke="#ffffff" /><rect x="1161" y="412" width="44" height="54" rx="5" fill="rgb(132,191,182)" stroke="#ffffff" /><rect x="1209" y="412" width="44" height="54" rx="5" fill="rgb(152,191,172)" stroke="#ffffff" /><rect x="1257" y="412" width="44" height="54" rx="5" fill="rgb(172,191,162)" stroke="#ffffff" /><rect x="1305" y="412" width="44" height="54" rx="5" fill="rgb(192,191,152)" stroke="#ffffff" /><rect x="1065" y="470" width="44" height="54" rx="5" fill="rgb(92,203,202)" stroke="#ffffff" /><rect x="1113" y="470" width="44" height="54" rx="5" fill="rgb(112,203,192)" stroke="#ffffff" /><rect x="1161" y="470" width="44" height="54" rx="5" fill="rgb(132,203,182)" stroke="#ffffff" /><rect x="1209" y="470" width="44" height="54" rx="5" fill="rgb(152,203,172)" stroke="#ffffff" /><rect x="1257" y="470" width="44" height="54" rx="5" fill="rgb(172,203,162)" stroke="#ffffff" /><rect x="1305" y="470" width="44" height="54" rx="5" fill="rgb(192,203,152)" stroke="#ffffff" /><line x1="390" y1="350" x2="520" y2="350" stroke="#527da3" stroke-width="4" stroke-linecap="round" marker-end="url(#arrow-blue)" /><line x1="875" y1="350" x2="1005" y2="350" stroke="#527da3" stroke-width="4" stroke-linecap="round" marker-end="url(#arrow-blue)" /><rect x="235" y="590" width="1030" height="80" rx="16" fill="#fff7e8" stroke="#e8c77d" stroke-width="2.5" /><text x="750.0" y="632" text-anchor="middle" font-family="Source Han Sans SC, Microsoft YaHei, sans-serif" font-size="18" font-weight="700" fill="#8a5f19">边缘方向、纹理周期与通道相关性构成先验；高频超出采样带宽时，假色和摩尔纹不可被唯一消除</text></svg>