<?xml version='1.0' encoding='utf-8'?>
<svg xmlns="http://www.w3.org/2000/svg" width="1500" height="760" viewBox="0 0 1500 760" role="img" aria-label="CIE xy色度图与多个RGB色域三角形"><defs><marker id="arrow-blue" markerWidth="10" markerHeight="8" refX="9" refY="4" orient="auto" markerUnits="strokeWidth"><path d="M 0 0 L 10 4 L 0 8 z" fill="#3b82b5" /></marker><marker id="arrow-dark" markerWidth="10" markerHeight="8" refX="9" refY="4" orient="auto" markerUnits="strokeWidth"><path d="M 0 0 L 10 4 L 0 8 z" fill="#334e68" /></marker><marker id="arrow-red" markerWidth="10" markerHeight="8" refX="9" refY="4" orient="auto" markerUnits="strokeWidth"><path d="M 0 0 L 10 4 L 0 8 z" fill="#c85b73" /></marker><marker id="arrow-green" markerWidth="10" markerHeight="8" refX="9" refY="4" orient="auto" markerUnits="strokeWidth"><path d="M 0 0 L 10 4 L 0 8 z" fill="#4d8c6a" /></marker><marker id="arrow-gold" markerWidth="10" markerHeight="8" refX="9" refY="4" orient="auto" markerUnits="strokeWidth"><path d="M 0 0 L 10 4 L 0 8 z" fill="#c58a2d" /></marker><marker id="arrow-purple" markerWidth="10" markerHeight="8" refX="9" refY="4" orient="auto" markerUnits="strokeWidth"><path d="M 0 0 L 10 4 L 0 8 z" fill="#7b4b74" /></marker></defs><rect width="1500" height="760" fill="#fbfdff" /><text x="750.0" y="43" text-anchor="middle" font-family="Source Han Sans SC, Microsoft YaHei, sans-serif" font-size="31" font-weight="700" fill="#102a43">xy 色度图压掉亮度；RGB 非负色域在其中形成原色三角形</text><line x1="120" y1="675" x2="850" y2="675" stroke="#334e68" stroke-width="2" stroke-linecap="round" marker-end="url(#arrow-dark)" /><line x1="120" y1="675" x2="120" y2="110" stroke="#334e68" stroke-width="2" stroke-linecap="round" marker-end="url(#arrow-dark)" /><text x="850" y="707" text-anchor="end" font-family="Source Han Sans SC, Microsoft YaHei, sans-serif" font-size="15" font-weight="400" fill="#627d98">x</text><text x="115" y="98" text-anchor="start" font-family="Source Han Sans SC, Microsoft YaHei, sans-serif" font-size="15" font-weight="400" fill="#627d98">y</text><line x1="120.0" y1="110" x2="120.0" y2="675" stroke="#e0e7ec" stroke-width="1" stroke-linecap="round" /><line x1="120" y1="675.0" x2="850" y2="675.0" stroke="#e0e7ec" stroke-width="1" stroke-linecap="round" /><text x="120.0" y="700" text-anchor="middle" font-family="Source Han Sans SC, Microsoft YaHei, sans-serif" font-size="13" font-weight="400" fill="#627d98">0.0</text><text x="108" y="680.0" text-anchor="end" font-family="Source Han Sans SC, Microsoft YaHei, sans-serif" font-size="13" font-weight="400" fill="#627d98">0.0</text><line x1="302.5" y1="110" x2="302.5" y2="675" stroke="#e0e7ec" stroke-width="1" stroke-linecap="round" /><line x1="120" y1="549.4444444444445" x2="850" y2="549.4444444444445" stroke="#e0e7ec" stroke-width="1" stroke-linecap="round" /><text x="302.5" y="700" text-anchor="middle" font-family="Source Han Sans SC, Microsoft YaHei, sans-serif" font-size="13" font-weight="400" fill="#627d98">0.2</text><text x="108" y="554.4444444444445" text-anchor="end" font-family="Source Han Sans SC, Microsoft YaHei, sans-serif" font-size="13" font-weight="400" fill="#627d98">0.2</text><line x1="485.0" y1="110" x2="485.0" y2="675" stroke="#e0e7ec" stroke-width="1" stroke-linecap="round" /><line x1="120" y1="423.8888888888889" x2="850" y2="423.8888888888889" stroke="#e0e7ec" stroke-width="1" stroke-linecap="round" /><text x="485.0" y="700" text-anchor="middle" font-family="Source Han Sans SC, Microsoft YaHei, sans-serif" font-size="13" font-weight="400" fill="#627d98">0.4</text><text x="108" y="428.8888888888889" text-anchor="end" font-family="Source Han Sans SC, Microsoft YaHei, sans-serif" font-size="13" font-weight="400" fill="#627d98">0.4</text><line x1="667.5" y1="110" x2="667.5" y2="675" stroke="#e0e7ec" stroke-width="1" stroke-linecap="round" /><line x1="120" y1="298.3333333333333" x2="850" y2="298.3333333333333" stroke="#e0e7ec" stroke-width="1" stroke-linecap="round" /><text x="667.5" y="700" text-anchor="middle" font-family="Source Han Sans SC, Microsoft YaHei, sans-serif" font-size="13" font-weight="400" fill="#627d98">0.6</text><text x="108" y="303.3333333333333" text-anchor="end" font-family="Source Han Sans SC, Microsoft YaHei, sans-serif" font-size="13" font-weight="400" fill="#627d98">0.6</text><line x1="850.0" y1="110" x2="850.0" y2="675" stroke="#e0e7ec" stroke-width="1" stroke-linecap="round" /><line x1="120" y1="172.77777777777777" x2="850" y2="172.77777777777777" stroke="#e0e7ec" stroke-width="1" stroke-linecap="round" /><text x="850.0" y="700" text-anchor="middle" font-family="Source Han Sans SC, Microsoft YaHei, sans-serif" font-size="13" font-weight="400" fill="#627d98">0.8</text><text x="108" y="177.77777777777777" text-anchor="end" font-family="Source Han Sans SC, Microsoft YaHei, sans-serif" font-size="13" font-weight="400" fill="#627d98">0.8</text><polygon points="278.77,671.86 263.26,663.70 233.15,638.59 203.04,591.51 161.06,489.81 127.30,337.26 132.78,204.17 187.52,151.43 261.44,169.01 329.88,201.66 395.57,240.58 460.36,282.64 525.15,326.58 588.11,369.27 644.69,408.82 692.14,440.84 727.73,465.32 751.45,481.64 766.05,491.69 782.48,503.62 790.69,508.64 278.77,671.86" fill="#eef5fb" stroke="#4f7290" stroke-width="3" stroke-linejoin="round" fill-opacity="0.7" /><line x1="790.6874999999999" y1="508.6388888888889" x2="278.775" y2="671.8611111111111" stroke="#7b4b74" stroke-width="3" stroke-linecap="round" /><text x="308" y="630" text-anchor="middle" font-family="Source Han Sans SC, Microsoft YaHei, sans-serif" font-size="15" font-weight="400" fill="#7b4b74">紫线（非单色光）</text><text x="470" y="132" text-anchor="middle" font-family="Source Han Sans SC, Microsoft YaHei, sans-serif" font-size="17" font-weight="700" fill="#285b7a">光谱轨迹</text><polyline points="704.00,467.83 393.75,298.33 256.88,637.33 704.00,467.83" stroke="#3b82b5" stroke-width="4" fill="none" stroke-linejoin="round" stroke-linecap="round" /><polyline points="740.50,474.11 361.81,241.83 256.88,637.33 740.50,474.11" stroke="#4d8c6a" stroke-width="4" fill="none" stroke-linejoin="round" stroke-linecap="round" /><polyline points="790.41,508.45 265.63,147.42 153.40,674.94 790.41,508.45" stroke="#c85b73" stroke-width="4" fill="none" stroke-linejoin="round" stroke-linecap="round" stroke-dasharray="9 5" /><circle cx="405.33874999999995" cy="468.4611111111111" r="7" fill="#ffffff" stroke="#334e68" stroke-width="3" /><circle cx="435.45125" cy="449.9416666666667" r="7" fill="#ffffff" stroke="#334e68" stroke-width="3" /><text x="393.33874999999995" y="492.4611111111111" text-anchor="end" font-family="Source Han Sans SC, Microsoft YaHei, sans-serif" font-size="13" font-weight="700" fill="#334e68">D65</text><text x="447.45125" y="439.9416666666667" text-anchor="start" font-family="Source Han Sans SC, Microsoft YaHei, sans-serif" font-size="13" font-weight="700" fill="#334e68">D50</text><rect x="930" y="110" width="500" height="155" rx="16" fill="#eaf4ff" stroke="#9bc7ee" stroke-width="2.5" /><text x="1180.0" y="152" text-anchor="middle" font-family="Source Han Sans SC, Microsoft YaHei, sans-serif" font-size="21" font-weight="700" fill="#285b7a">色度图只显示方向</text><text x="1180.0" y="187" text-anchor="middle" font-family="Source Han Sans SC, Microsoft YaHei, sans-serif" font-size="16" font-weight="400" fill="#486581">(X,Y,Z) 与 k(X,Y,Z) 落在同一点</text><rect x="930" y="305" width="500" height="155" rx="16" fill="#edf8f2" stroke="#9fd6b7" stroke-width="2.5" /><text x="1180.0" y="347" text-anchor="middle" font-family="Source Han Sans SC, Microsoft YaHei, sans-serif" font-size="21" font-weight="700" fill="#397456">色域是可表示集合</text><text x="1180.0" y="382" text-anchor="middle" font-family="Source Han Sans SC, Microsoft YaHei, sans-serif" font-size="16" font-weight="400" fill="#486581">三角形面积不是精度、位深或色数</text><rect x="930" y="500" width="500" height="155" rx="16" fill="#fff0f3" stroke="#eab0be" stroke-width="2.5" /><text x="1180.0" y="542" text-anchor="middle" font-family="Source Han Sans SC, Microsoft YaHei, sans-serif" font-size="21" font-weight="700" fill="#a24862">边界外需负 RGB 或映射</text><text x="1180.0" y="577" text-anchor="middle" font-family="Source Han Sans SC, Microsoft YaHei, sans-serif" font-size="16" font-weight="400" fill="#486581">直接裁切会改变色相与明度关系</text><line x1="180" y1="86" x2="230" y2="86" stroke="#3b82b5" stroke-width="4" stroke-linecap="round" /><text x="250" y="92" text-anchor="start" font-family="Source Han Sans SC, Microsoft YaHei, sans-serif" font-size="15" font-weight="700" fill="#3b82b5">sRGB</text><line x1="415" y1="86" x2="465" y2="86" stroke="#4d8c6a" stroke-width="4" stroke-linecap="round" /><text x="485" y="92" text-anchor="start" font-family="Source Han Sans SC, Microsoft YaHei, sans-serif" font-size="15" font-weight="700" fill="#4d8c6a">Display P3</text><line x1="650" y1="86" x2="700" y2="86" stroke="#c85b73" stroke-width="4" stroke-linecap="round" stroke-dasharray="9 5" /><text x="720" y="92" text-anchor="start" font-family="Source Han Sans SC, Microsoft YaHei, sans-serif" font-size="15" font-weight="700" fill="#c85b73">ProPhoto RGB</text></svg>