<?xml version='1.0' encoding='utf-8'?>
<svg xmlns="http://www.w3.org/2000/svg" width="1400" height="620" viewBox="0 0 1400 620" role="img" aria-label="纵向与横向色差"><defs><marker id="arrow-blue" markerWidth="10" markerHeight="8" refX="9" refY="4" orient="auto" markerUnits="strokeWidth"><path d="M 0 0 L 10 4 L 0 8 z" fill="#3b82b5" /></marker><marker id="arrow-red" markerWidth="10" markerHeight="8" refX="9" refY="4" orient="auto" markerUnits="strokeWidth"><path d="M 0 0 L 10 4 L 0 8 z" fill="#c85b73" /></marker><marker id="arrow-dark" markerWidth="10" markerHeight="8" refX="9" refY="4" orient="auto" markerUnits="strokeWidth"><path d="M 0 0 L 10 4 L 0 8 z" fill="#334e68" /></marker><marker id="arrow-green" markerWidth="10" markerHeight="8" refX="9" refY="4" orient="auto" markerUnits="strokeWidth"><path d="M 0 0 L 10 4 L 0 8 z" fill="#4d8c6a" /></marker></defs><rect width="1400" height="620" fill="#fbfdff" /><text x="700.0" y="42" text-anchor="middle" font-family="Source Han Sans SC, Microsoft YaHei, sans-serif" font-size="30" font-weight="700" fill="#102a43">色差：焦点位置与放大率随波长变化</text><line x1="700" y1="80" x2="700" y2="560" stroke="#d7e0e7" stroke-width="2" stroke-linecap="round" /><text x="350" y="92" text-anchor="middle" font-family="Source Han Sans SC, Microsoft YaHei, sans-serif" font-size="24" font-weight="700" fill="#486581">纵向色差 LoCA</text><ellipse cx="180" cy="320" rx="26" ry="150" fill="#eef6fb" stroke="#5595c5" stroke-width="3" /><line x1="180" y1="200" x2="520" y2="320" stroke="#3f6dcc" stroke-width="3" stroke-linecap="round" /><line x1="180" y1="440" x2="520" y2="320" stroke="#3f6dcc" stroke-width="3" stroke-linecap="round" /><circle cx="520" cy="320" r="7" fill="#3f6dcc" /><text x="520" y="356" text-anchor="middle" font-family="Source Han Sans SC, Microsoft YaHei, sans-serif" font-size="18" font-weight="700" fill="#3f6dcc">蓝</text><line x1="180" y1="200" x2="565" y2="320" stroke="#46a36a" stroke-width="3" stroke-linecap="round" /><line x1="180" y1="440" x2="565" y2="320" stroke="#46a36a" stroke-width="3" stroke-linecap="round" /><circle cx="565" cy="320" r="7" fill="#46a36a" /><text x="565" y="356" text-anchor="middle" font-family="Source Han Sans SC, Microsoft YaHei, sans-serif" font-size="18" font-weight="700" fill="#46a36a">绿</text><line x1="180" y1="200" x2="615" y2="320" stroke="#c85b73" stroke-width="3" stroke-linecap="round" /><line x1="180" y1="440" x2="615" y2="320" stroke="#c85b73" stroke-width="3" stroke-linecap="round" /><circle cx="615" cy="320" r="7" fill="#c85b73" /><text x="615" y="356" text-anchor="middle" font-family="Source Han Sans SC, Microsoft YaHei, sans-serif" font-size="18" font-weight="700" fill="#c85b73">红</text><text x="400" y="520" text-anchor="middle" font-family="Source Han Sans SC, Microsoft YaHei, sans-serif" font-size="19" font-weight="400" fill="#486581">蓝光焦点通常更近</text><text x="1050" y="92" text-anchor="middle" font-family="Source Han Sans SC, Microsoft YaHei, sans-serif" font-size="24" font-weight="700" fill="#486581">横向色差 LaCA</text><line x1="1190" y1="135" x2="1190" y2="505" stroke="#334e68" stroke-width="5" stroke-linecap="round" /><line x1="810" y1="320" x2="1190" y2="186.6" stroke="#3f6dcc" stroke-width="3" stroke-linecap="round" /><line x1="1172" y1="186.6" x2="1208" y2="186.6" stroke="#3f6dcc" stroke-width="5" stroke-linecap="round" /><text x="1218" y="191.6" text-anchor="start" font-family="Source Han Sans SC, Microsoft YaHei, sans-serif" font-size="17" font-weight="700" fill="#3f6dcc">B</text><line x1="810" y1="320" x2="1190" y2="175.0" stroke="#46a36a" stroke-width="3" stroke-linecap="round" /><line x1="1172" y1="175.0" x2="1208" y2="175.0" stroke="#46a36a" stroke-width="5" stroke-linecap="round" /><text x="1218" y="180.0" text-anchor="start" font-family="Source Han Sans SC, Microsoft YaHei, sans-serif" font-size="17" font-weight="700" fill="#46a36a">G</text><line x1="810" y1="320" x2="1190" y2="161.95" stroke="#c85b73" stroke-width="3" stroke-linecap="round" /><line x1="1172" y1="161.95" x2="1208" y2="161.95" stroke="#c85b73" stroke-width="5" stroke-linecap="round" /><text x="1218" y="166.95" text-anchor="start" font-family="Source Han Sans SC, Microsoft YaHei, sans-serif" font-size="17" font-weight="700" fill="#c85b73">R</text><text x="1030" y="520" text-anchor="middle" font-family="Source Han Sans SC, Microsoft YaHei, sans-serif" font-size="19" font-weight="400" fill="#486581">轴上重合，边缘通道位置分离</text></svg>