<?xml version='1.0' encoding='utf-8'?>
<svg xmlns="http://www.w3.org/2000/svg" width="1500" height="790" viewBox="0 0 1500 790" role="img" aria-label="对比敏感度观看距离与主观清晰感"><defs><marker id="arrow-blue" markerWidth="10" markerHeight="8" refX="9" refY="4" orient="auto" markerUnits="strokeWidth"><path d="M 0 0 L 10 4 L 0 8 z" fill="#3b82b5" /></marker><marker id="arrow-dark" markerWidth="10" markerHeight="8" refX="9" refY="4" orient="auto" markerUnits="strokeWidth"><path d="M 0 0 L 10 4 L 0 8 z" fill="#334e68" /></marker><marker id="arrow-red" markerWidth="10" markerHeight="8" refX="9" refY="4" orient="auto" markerUnits="strokeWidth"><path d="M 0 0 L 10 4 L 0 8 z" fill="#c85b73" /></marker><marker id="arrow-green" markerWidth="10" markerHeight="8" refX="9" refY="4" orient="auto" markerUnits="strokeWidth"><path d="M 0 0 L 10 4 L 0 8 z" fill="#4d8c6a" /></marker><marker id="arrow-gold" markerWidth="10" markerHeight="8" refX="9" refY="4" orient="auto" markerUnits="strokeWidth"><path d="M 0 0 L 10 4 L 0 8 z" fill="#c58a2d" /></marker><marker id="arrow-purple" markerWidth="10" markerHeight="8" refX="9" refY="4" orient="auto" markerUnits="strokeWidth"><path d="M 0 0 L 10 4 L 0 8 z" fill="#7b4b74" /></marker></defs><rect width="1500" height="790" fill="#fbfdff" /><text x="750" y="43" text-anchor="middle" font-family="Source Han Sans SC, Microsoft YaHei, sans-serif" font-size="30" font-weight="700" fill="#102a43">可见细节由角频率与对比共同决定：文件像素只是中间尺度</text><line x1="110" y1="585" x2="800" y2="585" stroke="#334e68" stroke-width="2" stroke-linecap="round" marker-end="url(#arrow-dark)" /><line x1="110" y1="585" x2="110" y2="130" stroke="#334e68" stroke-width="2" stroke-linecap="round" marker-end="url(#arrow-dark)" /><text x="800" y="616" text-anchor="end" font-family="Source Han Sans SC, Microsoft YaHei, sans-serif" font-size="15" font-weight="400" fill="#627d98">空间频率（cycles/degree，对数）</text><text x="106" y="118" text-anchor="start" font-family="Source Han Sans SC, Microsoft YaHei, sans-serif" font-size="15" font-weight="400" fill="#627d98">对比敏感度</text><polyline points="110.00,455.72 112.88,453.43 115.75,451.11 118.62,448.74 121.50,446.34 124.38,443.89 127.25,441.41 130.12,438.89 133.00,436.32 135.88,433.71 138.75,431.07 141.62,428.37 144.50,425.64 147.38,422.86 150.25,420.04 153.12,417.18 156.00,414.26 158.88,411.31 161.75,408.31 164.62,405.26 167.50,402.16 170.38,399.02 173.25,395.83 176.12,392.59 179.00,389.30 181.88,385.96 184.75,382.57 187.62,379.13 190.50,375.64 193.38,372.10 196.25,368.51 199.12,364.87 202.00,361.17 204.88,357.42 207.75,353.62 210.62,349.76 213.50,345.85 216.38,341.89 219.25,337.87 222.12,333.80 225.00,329.68 227.88,325.49 230.75,321.26 233.62,316.97 236.50,312.62 239.38,308.22 242.25,303.76 245.12,299.24 248.00,294.68 250.88,290.05 253.75,285.37 256.62,280.64 259.50,275.85 262.38,271.00 265.25,266.10 268.12,261.15 271.00,256.14 273.88,251.08 276.75,245.96 279.62,240.79 282.50,235.57 285.38,230.30 288.25,224.98 291.12,219.61 294.00,214.19 296.88,208.72 299.75,203.21 302.62,197.65 305.50,192.04 308.38,186.39 311.25,180.70 314.12,174.97 317.00,169.20 319.88,166.40 322.75,166.40 325.62,166.40 328.50,166.40 331.38,166.40 334.25,166.40 337.12,166.40 340.00,166.40 342.88,166.40 345.75,166.40 348.62,166.40 351.50,166.40 354.38,166.40 357.25,166.40 360.12,166.40 363.00,166.40 365.88,166.40 368.75,166.40 371.62,166.40 374.50,166.40 377.38,166.40 380.25,166.40 383.12,166.40 386.00,166.40 388.88,166.40 391.75,166.40 394.62,166.40 397.50,166.40 400.38,166.40 403.25,166.40 406.12,166.40 409.00,166.40 411.88,166.40 414.75,166.40 417.62,166.40 420.50,166.40 423.38,166.40 426.25,166.40 429.12,166.40 432.00,166.40 434.88,166.40 437.75,166.40 440.62,166.40 443.50,166.40 446.38,166.40 449.25,166.40 452.12,166.40 455.00,166.40 457.88,166.40 460.75,166.40 463.62,166.40 466.50,166.40 469.38,166.40 472.25,166.40 475.12,166.40 478.00,166.40 480.88,166.40 483.75,166.40 486.62,166.40 489.50,166.40 492.38,166.40 495.25,166.40 498.12,166.40 501.00,166.40 503.88,166.40 506.75,166.40 509.63,166.40 512.50,166.40 515.38,166.40 518.25,166.40 521.12,166.40 524.00,166.40 526.88,166.40 529.75,166.40 532.62,166.40 535.50,166.40 538.38,166.40 541.25,166.40 544.12,166.40 547.00,166.40 549.88,166.40 552.75,166.40 555.62,166.40 558.50,166.40 561.38,166.40 564.25,166.40 567.12,166.40 570.00,166.40 572.88,166.40 575.75,166.40 578.62,166.40 581.50,166.40 584.38,166.40 587.25,166.40 590.12,166.40 593.00,166.40 595.88,166.40 598.75,166.40 601.62,166.40 604.50,166.40 607.38,166.40 610.25,166.40 613.12,169.00 616.00,181.42 618.88,193.91 621.75,206.46 624.62,219.04 627.50,231.63 630.38,244.21 633.25,256.77 636.12,269.27 639.00,281.70 641.88,294.04 644.75,306.26 647.62,318.36 650.50,330.30 653.38,342.07 656.25,353.65 659.12,365.03 662.00,376.18 664.88,387.08 667.75,397.74 670.62,408.12 673.50,418.23 676.38,428.04 679.25,437.54 682.12,446.73 685.00,455.59 687.88,464.13 690.75,472.33 693.62,480.19 696.50,487.71 699.38,494.88 702.25,501.71 705.12,508.20 708.00,514.34 710.88,520.15 713.75,525.62 716.62,530.77 719.50,535.60 722.38,540.11 725.25,544.32 728.12,548.24 731.00,551.87 733.88,555.22 736.75,558.32 739.62,561.16 742.50,563.77 745.38,566.15 748.25,568.32 751.12,570.28 754.00,572.06 756.88,573.66 759.75,575.10 762.62,576.39 765.50,577.54 768.38,578.55 771.25,579.46 774.12,580.25 777.00,580.95 779.88,581.55 782.75,582.08 785.62,582.54 788.50,582.94 791.38,583.28 794.25,583.57 797.12,583.82 800.00,584.02" stroke="#3b82b5" stroke-width="6" fill="none" stroke-linejoin="round" stroke-linecap="round" /><text x="375" y="205" text-anchor="middle" font-family="Source Han Sans SC, Microsoft YaHei, sans-serif" font-size="18" font-weight="700" fill="#285b7a">中频最敏感</text><text x="160" y="535" text-anchor="start" font-family="Source Han Sans SC, Microsoft YaHei, sans-serif" font-size="15" font-weight="400" fill="#627d98">低频：需较大对比</text><text x="650" y="535" text-anchor="start" font-family="Source Han Sans SC, Microsoft YaHei, sans-serif" font-size="15" font-weight="400" fill="#627d98">高频：细到不可见</text><rect x="910" y="125" width="485" height="170" rx="16" fill="#eaf4ff" stroke="#9bc7ee" stroke-width="2.5" /><text x="1152.5" y="167" text-anchor="middle" font-family="Source Han Sans SC, Microsoft YaHei, sans-serif" font-size="20" font-weight="700" fill="#285b7a">同一输出，靠近观看</text><text x="1152.5" y="201" text-anchor="middle" font-family="Source Han Sans SC, Microsoft YaHei, sans-serif" font-size="15" font-weight="400" fill="#486581">特征张角增大；细节进入可见频带</text><rect x="910" y="350" width="485" height="170" rx="16" fill="#fff7e8" stroke="#e8c77d" stroke-width="2.5" /><text x="1152.5" y="392" text-anchor="middle" font-family="Source Han Sans SC, Microsoft YaHei, sans-serif" font-size="20" font-weight="700" fill="#8a5f19">同一输出，远离观看</text><text x="1152.5" y="426" text-anchor="middle" font-family="Source Han Sans SC, Microsoft YaHei, sans-serif" font-size="15" font-weight="400" fill="#486581">高频细节合并；噪声和光晕也可能减弱</text><circle cx="975" cy="245" r="12" fill="#3b82b5" /><rect x="1275" y="200" width="12" height="90" fill="#829ab1" /><line x1="990" y1="245" x2="1270" y2="200" stroke="#3b82b5" stroke-width="2" stroke-linecap="round" /><line x1="990" y1="245" x2="1270" y2="290" stroke="#3b82b5" stroke-width="2" stroke-linecap="round" /><circle cx="975" cy="470" r="12" fill="#c58a2d" /><rect x="1365" y="425" width="12" height="90" fill="#829ab1" /><line x1="990" y1="470" x2="1360" y2="425" stroke="#c58a2d" stroke-width="2" stroke-linecap="round" /><line x1="990" y1="470" x2="1360" y2="515" stroke="#c58a2d" stroke-width="2" stroke-linecap="round" /><rect x="870" y="610" width="565" height="105" rx="16" fill="#edf8f2" stroke="#9fd6b7" stroke-width="2.5" /><text x="1152.5" y="652" text-anchor="middle" font-family="Source Han Sans SC, Microsoft YaHei, sans-serif" font-size="19" font-weight="700" fill="#397456">角频率换算</text><text x="1152.5" y="686" text-anchor="middle" font-family="Source Han Sans SC, Microsoft YaHei, sans-serif" font-size="15" font-weight="400" fill="#486581">周期 p、观看距离 d：ν ≈ πd/(180p) cycles/degree</text></svg>