<?xml version='1.0' encoding='utf-8'?>
<svg xmlns="http://www.w3.org/2000/svg" width="1350" height="650" viewBox="0 0 1350 650" role="img" aria-label="离焦光束锥与弥散圆"><defs><marker id="arrow-blue" markerWidth="10" markerHeight="8" refX="9" refY="4" orient="auto" markerUnits="strokeWidth"><path d="M 0 0 L 10 4 L 0 8 z" fill="#3b82b5" /></marker><marker id="arrow-red" markerWidth="10" markerHeight="8" refX="9" refY="4" orient="auto" markerUnits="strokeWidth"><path d="M 0 0 L 10 4 L 0 8 z" fill="#c85b73" /></marker><marker id="arrow-dark" markerWidth="10" markerHeight="8" refX="9" refY="4" orient="auto" markerUnits="strokeWidth"><path d="M 0 0 L 10 4 L 0 8 z" fill="#334e68" /></marker><marker id="arrow-green" markerWidth="10" markerHeight="8" refX="9" refY="4" orient="auto" markerUnits="strokeWidth"><path d="M 0 0 L 10 4 L 0 8 z" fill="#4d8c6a" /></marker></defs><rect width="1350" height="650" fill="#fbfdff" /><text x="675.0" y="44" text-anchor="middle" font-family="Source Han Sans SC, Microsoft YaHei, sans-serif" font-size="30" font-weight="700" fill="#102a43">传感器截取光束锥：轴向误差变成横向离焦圆</text><line x1="70" y1="330" x2="1240" y2="330" stroke="#9fb3c2" stroke-width="2" stroke-linecap="round" marker-end="url(#arrow-dark)" /><path d="M 250 95 C 200 170 200 490 250 565 C 300 490 300 170 250 95 Z" fill="#eaf4ff" stroke="#5595c5" stroke-width="3" /><line x1="250" y1="130" x2="250" y2="530" stroke="#285b7a" stroke-width="3" stroke-linecap="round" /><text x="250" y="600" text-anchor="middle" font-family="Source Han Sans SC, Microsoft YaHei, sans-serif" font-size="21" font-weight="700" fill="#285b7a">入瞳直径 D</text><line x1="250" y1="130" x2="1030" y2="330" stroke="#3b82b5" stroke-width="4" stroke-linecap="round" /><line x1="250" y1="530" x2="1030" y2="330" stroke="#3b82b5" stroke-width="4" stroke-linecap="round" /><circle cx="1030" cy="330" r="8" fill="#285b7a" /><text x="1030" y="306" text-anchor="middle" font-family="Source Han Sans SC, Microsoft YaHei, sans-serif" font-size="20" font-weight="700" fill="#285b7a">真实共轭像面 v(s)</text><line x1="850" y1="95" x2="850" y2="565" stroke="#a24862" stroke-width="6" stroke-linecap="round" /><line x1="832" y1="283.8461538461538" x2="868" y2="283.8461538461538" stroke="#c85b73" stroke-width="4" stroke-linecap="round" /><line x1="832" y1="376.1538461538462" x2="868" y2="376.1538461538462" stroke="#c85b73" stroke-width="4" stroke-linecap="round" /><line x1="875" y1="283.8461538461538" x2="875" y2="376.1538461538462" stroke="#c85b73" stroke-width="3" stroke-linecap="round" /><line x1="866" y1="283.8461538461538" x2="884" y2="283.8461538461538" stroke="#c85b73" stroke-width="3" stroke-linecap="round" /><line x1="866" y1="376.1538461538462" x2="884" y2="376.1538461538462" stroke="#c85b73" stroke-width="3" stroke-linecap="round" /><text x="898" y="336" text-anchor="start" font-family="Source Han Sans SC, Microsoft YaHei, sans-serif" font-size="24" font-weight="700" fill="#a24862">c</text><text x="850" y="82" text-anchor="middle" font-family="Source Han Sans SC, Microsoft YaHei, sans-serif" font-size="22" font-weight="700" fill="#a24862">传感器 v₀</text><line x1="250" y1="620" x2="850" y2="620" stroke="#334e68" stroke-width="2" stroke-linecap="round" /><line x1="250" y1="610" x2="250" y2="632" stroke="#334e68" stroke-width="2" stroke-linecap="round" /><line x1="850" y1="610" x2="850" y2="632" stroke="#334e68" stroke-width="2" stroke-linecap="round" /><text x="550.0" y="645" text-anchor="middle" font-family="Source Han Sans SC, Microsoft YaHei, sans-serif" font-size="21" font-weight="600" fill="#243b53">v₀</text><line x1="850" y1="590" x2="1030" y2="590" stroke="#7b4b74" stroke-width="2" stroke-linecap="round" /><line x1="1030" y1="580" x2="1030" y2="602" stroke="#7b4b74" stroke-width="2" stroke-linecap="round" /><text x="940.0" y="580" text-anchor="middle" font-family="Source Han Sans SC, Microsoft YaHei, sans-serif" font-size="20" font-weight="600" fill="#7b4b74">|Δv|</text><text x="1170" y="510" text-anchor="middle" font-family="Source Han Sans SC, Microsoft YaHei, sans-serif" font-size="22" font-weight="700" fill="#7b3651">c = D |1 - v₀/v|</text></svg>