<?xml version='1.0' encoding='utf-8'?>
<svg xmlns="http://www.w3.org/2000/svg" width="1500" height="780" viewBox="0 0 1500 780" role="img" aria-label="均值双边和非局部降噪的权重来源"><defs><marker id="arrow-blue" markerWidth="10" markerHeight="8" refX="9" refY="4" orient="auto" markerUnits="strokeWidth"><path d="M 0 0 L 10 4 L 0 8 z" fill="#3b82b5" /></marker><marker id="arrow-dark" markerWidth="10" markerHeight="8" refX="9" refY="4" orient="auto" markerUnits="strokeWidth"><path d="M 0 0 L 10 4 L 0 8 z" fill="#334e68" /></marker><marker id="arrow-red" markerWidth="10" markerHeight="8" refX="9" refY="4" orient="auto" markerUnits="strokeWidth"><path d="M 0 0 L 10 4 L 0 8 z" fill="#c85b73" /></marker><marker id="arrow-green" markerWidth="10" markerHeight="8" refX="9" refY="4" orient="auto" markerUnits="strokeWidth"><path d="M 0 0 L 10 4 L 0 8 z" fill="#4d8c6a" /></marker><marker id="arrow-gold" markerWidth="10" markerHeight="8" refX="9" refY="4" orient="auto" markerUnits="strokeWidth"><path d="M 0 0 L 10 4 L 0 8 z" fill="#c58a2d" /></marker><marker id="arrow-purple" markerWidth="10" markerHeight="8" refX="9" refY="4" orient="auto" markerUnits="strokeWidth"><path d="M 0 0 L 10 4 L 0 8 z" fill="#7b4b74" /></marker></defs><rect width="1500" height="780" fill="#fbfdff" /><text x="750" y="43" text-anchor="middle" font-family="Source Han Sans SC, Microsoft YaHei, sans-serif" font-size="30" font-weight="700" fill="#102a43">三类方法的差别，不在于是否平均，而在于把权重给了谁</text><rect x="55" y="105" width="410" height="515" rx="16" fill="#ffffff" stroke="#b9c7d3" stroke-width="2.5" /><text x="260.0" y="147" text-anchor="middle" font-family="Source Han Sans SC, Microsoft YaHei, sans-serif" font-size="21" font-weight="700" fill="#102a43">局部均值 / 高斯</text><text x="260.0" y="181" text-anchor="middle" font-family="Source Han Sans SC, Microsoft YaHei, sans-serif" font-size="15" font-weight="400" fill="#486581">只看空间距离</text><rect x="129" y="250" width="36" height="36" rx="4" fill="rgb(192,202,214)" stroke="#d7e2ea" stroke-width="1" /><rect x="167" y="250" width="36" height="36" rx="4" fill="rgb(216,226,238)" stroke="#d7e2ea" stroke-width="1" /><rect x="205" y="250" width="36" height="36" rx="4" fill="rgb(205,215,227)" stroke="#d7e2ea" stroke-width="1" /><rect x="243" y="250" width="36" height="36" rx="4" fill="rgb(210,220,232)" stroke="#d7e2ea" stroke-width="1" /><rect x="281" y="250" width="36" height="36" rx="4" fill="rgb(152,162,174)" stroke="#d7e2ea" stroke-width="1" /><rect x="319" y="250" width="36" height="36" rx="4" fill="rgb(150,160,172)" stroke="#d7e2ea" stroke-width="1" /><rect x="357" y="250" width="36" height="36" rx="4" fill="rgb(149,159,171)" stroke="#d7e2ea" stroke-width="1" /><rect x="129" y="288" width="36" height="36" rx="4" fill="rgb(208,218,230)" stroke="#d7e2ea" stroke-width="1" /><rect x="167" y="288" width="36" height="36" rx="4" fill="rgb(205,215,227)" stroke="#d7e2ea" stroke-width="1" /><rect x="205" y="288" width="36" height="36" rx="4" fill="rgb(200,210,222)" stroke="#d7e2ea" stroke-width="1" /><rect x="243" y="288" width="36" height="36" rx="4" fill="rgb(206,216,228)" stroke="#d7e2ea" stroke-width="1" /><rect x="281" y="288" width="36" height="36" rx="4" fill="rgb(138,148,160)" stroke="#d7e2ea" stroke-width="1" /><rect x="319" y="288" width="36" height="36" rx="4" fill="rgb(142,152,164)" stroke="#d7e2ea" stroke-width="1" /><rect x="357" y="288" width="36" height="36" rx="4" fill="rgb(145,155,167)" stroke="#d7e2ea" stroke-width="1" /><rect x="129" y="326" width="36" height="36" rx="4" fill="rgb(210,220,232)" stroke="#d7e2ea" stroke-width="1" /><rect x="167" y="326" width="36" height="36" rx="4" fill="rgb(215,225,237)" stroke="#d7e2ea" stroke-width="1" /><rect x="205" y="326" width="36" height="36" rx="4" fill="rgb(220,230,242)" stroke="#d7e2ea" stroke-width="1" /><rect x="243" y="326" width="36" height="36" rx="4" fill="rgb(209,219,231)" stroke="#d7e2ea" stroke-width="1" /><rect x="281" y="326" width="36" height="36" rx="4" fill="rgb(147,157,169)" stroke="#d7e2ea" stroke-width="1" /><rect x="319" y="326" width="36" height="36" rx="4" fill="rgb(144,154,166)" stroke="#d7e2ea" stroke-width="1" /><rect x="357" y="326" width="36" height="36" rx="4" fill="rgb(144,154,166)" stroke="#d7e2ea" stroke-width="1" /><rect x="129" y="364" width="36" height="36" rx="4" fill="rgb(217,227,239)" stroke="#d7e2ea" stroke-width="1" /><rect x="167" y="364" width="36" height="36" rx="4" fill="rgb(213,223,235)" stroke="#d7e2ea" stroke-width="1" /><rect x="205" y="364" width="36" height="36" rx="4" fill="rgb(216,226,238)" stroke="#d7e2ea" stroke-width="1" /><rect x="243" y="364" width="36" height="36" rx="4" fill="rgb(201,211,223)" stroke="#d7e2ea" stroke-width="1" /><rect x="281" y="364" width="36" height="36" rx="4" fill="rgb(147,157,169)" stroke="#d7e2ea" stroke-width="1" /><rect x="319" y="364" width="36" height="36" rx="4" fill="rgb(145,155,167)" stroke="#d7e2ea" stroke-width="1" /><rect x="357" y="364" width="36" height="36" rx="4" fill="rgb(153,163,175)" stroke="#d7e2ea" stroke-width="1" /><rect x="129" y="402" width="36" height="36" rx="4" fill="rgb(218,228,240)" stroke="#d7e2ea" stroke-width="1" /><rect x="167" y="402" width="36" height="36" rx="4" fill="rgb(212,222,234)" stroke="#d7e2ea" stroke-width="1" /><rect x="205" y="402" width="36" height="36" rx="4" fill="rgb(209,219,231)" stroke="#d7e2ea" stroke-width="1" /><rect x="243" y="402" width="36" height="36" rx="4" fill="rgb(205,215,227)" stroke="#d7e2ea" stroke-width="1" /><rect x="281" y="402" width="36" height="36" rx="4" fill="rgb(157,167,179)" stroke="#d7e2ea" stroke-width="1" /><rect x="319" y="402" width="36" height="36" rx="4" fill="rgb(144,154,166)" stroke="#d7e2ea" stroke-width="1" /><rect x="357" y="402" width="36" height="36" rx="4" fill="rgb(152,162,174)" stroke="#d7e2ea" stroke-width="1" /><rect x="129" y="440" width="36" height="36" rx="4" fill="rgb(212,222,234)" stroke="#d7e2ea" stroke-width="1" /><rect x="167" y="440" width="36" height="36" rx="4" fill="rgb(211,221,233)" stroke="#d7e2ea" stroke-width="1" /><rect x="205" y="440" width="36" height="36" rx="4" fill="rgb(211,221,233)" stroke="#d7e2ea" stroke-width="1" /><rect x="243" y="440" width="36" height="36" rx="4" fill="rgb(205,215,227)" stroke="#d7e2ea" stroke-width="1" /><rect x="281" y="440" width="36" height="36" rx="4" fill="rgb(140,150,162)" stroke="#d7e2ea" stroke-width="1" /><rect x="319" y="440" width="36" height="36" rx="4" fill="rgb(144,154,166)" stroke="#d7e2ea" stroke-width="1" /><rect x="357" y="440" width="36" height="36" rx="4" fill="rgb(150,160,172)" stroke="#d7e2ea" stroke-width="1" /><rect x="129" y="478" width="36" height="36" rx="4" fill="rgb(205,215,227)" stroke="#d7e2ea" stroke-width="1" /><rect x="167" y="478" width="36" height="36" rx="4" fill="rgb(205,215,227)" stroke="#d7e2ea" stroke-width="1" /><rect x="205" y="478" width="36" height="36" rx="4" fill="rgb(202,212,224)" stroke="#d7e2ea" stroke-width="1" /><rect x="243" y="478" width="36" height="36" rx="4" fill="rgb(206,216,228)" stroke="#d7e2ea" stroke-width="1" /><rect x="281" y="478" width="36" height="36" rx="4" fill="rgb(158,168,180)" stroke="#d7e2ea" stroke-width="1" /><rect x="319" y="478" width="36" height="36" rx="4" fill="rgb(152,162,174)" stroke="#d7e2ea" stroke-width="1" /><rect x="357" y="478" width="36" height="36" rx="4" fill="rgb(149,159,171)" stroke="#d7e2ea" stroke-width="1" /><circle cx="261.0" cy="382.0" r="13" fill="none" stroke="#c85b73" stroke-width="4" /><circle cx="261.0" cy="382.0" r="82" fill="#3b82b5" fill-opacity=".10" stroke="#3b82b5" stroke-width="3" /><text x="260" y="565" text-anchor="middle" font-family="Source Han Sans SC, Microsoft YaHei, sans-serif" font-size="15" font-weight="400" fill="#486581">邻域内都参与；边缘两侧会混合</text><rect x="520" y="105" width="410" height="515" rx="16" fill="#ffffff" stroke="#b9c7d3" stroke-width="2.5" /><text x="725.0" y="147" text-anchor="middle" font-family="Source Han Sans SC, Microsoft YaHei, sans-serif" font-size="21" font-weight="700" fill="#102a43">双边滤波</text><text x="725.0" y="181" text-anchor="middle" font-family="Source Han Sans SC, Microsoft YaHei, sans-serif" font-size="15" font-weight="400" fill="#486581">空间近且像素值相近</text><rect x="594" y="250" width="36" height="36" rx="4" fill="rgb(201,211,223)" stroke="#d7e2ea" stroke-width="1" /><rect x="632" y="250" width="36" height="36" rx="4" fill="rgb(209,219,231)" stroke="#d7e2ea" stroke-width="1" /><rect x="670" y="250" width="36" height="36" rx="4" fill="rgb(202,212,224)" stroke="#d7e2ea" stroke-width="1" /><rect x="708" y="250" width="36" height="36" rx="4" fill="rgb(206,216,228)" stroke="#d7e2ea" stroke-width="1" /><rect x="746" y="250" width="36" height="36" rx="4" fill="rgb(155,165,177)" stroke="#d7e2ea" stroke-width="1" /><rect x="784" y="250" width="36" height="36" rx="4" fill="rgb(146,156,168)" stroke="#d7e2ea" stroke-width="1" /><rect x="822" y="250" width="36" height="36" rx="4" fill="rgb(142,152,164)" stroke="#d7e2ea" stroke-width="1" /><rect x="594" y="288" width="36" height="36" rx="4" fill="rgb(205,215,227)" stroke="#d7e2ea" stroke-width="1" /><rect x="632" y="288" width="36" height="36" rx="4" fill="rgb(219,229,241)" stroke="#d7e2ea" stroke-width="1" /><rect x="670" y="288" width="36" height="36" rx="4" fill="rgb(205,215,227)" stroke="#d7e2ea" stroke-width="1" /><rect x="708" y="288" width="36" height="36" rx="4" fill="rgb(213,223,235)" stroke="#d7e2ea" stroke-width="1" /><rect x="746" y="288" width="36" height="36" rx="4" fill="rgb(162,172,184)" stroke="#d7e2ea" stroke-width="1" /><rect x="784" y="288" width="36" height="36" rx="4" fill="rgb(150,160,172)" stroke="#d7e2ea" stroke-width="1" /><rect x="822" y="288" width="36" height="36" rx="4" fill="rgb(161,171,183)" stroke="#d7e2ea" stroke-width="1" /><rect x="594" y="326" width="36" height="36" rx="4" fill="rgb(218,228,240)" stroke="#d7e2ea" stroke-width="1" /><rect x="632" y="326" width="36" height="36" rx="4" fill="rgb(198,208,220)" stroke="#d7e2ea" stroke-width="1" /><rect x="670" y="326" width="36" height="36" rx="4" fill="rgb(190,200,212)" stroke="#d7e2ea" stroke-width="1" /><rect x="708" y="326" width="36" height="36" rx="4" fill="rgb(200,210,222)" stroke="#d7e2ea" stroke-width="1" /><rect x="746" y="326" width="36" height="36" rx="4" fill="rgb(143,153,165)" stroke="#d7e2ea" stroke-width="1" /><rect x="784" y="326" width="36" height="36" rx="4" fill="rgb(132,142,154)" stroke="#d7e2ea" stroke-width="1" /><rect x="822" y="326" width="36" height="36" rx="4" fill="rgb(144,154,166)" stroke="#d7e2ea" stroke-width="1" /><rect x="594" y="364" width="36" height="36" rx="4" fill="rgb(215,225,237)" stroke="#d7e2ea" stroke-width="1" /><rect x="632" y="364" width="36" height="36" rx="4" fill="rgb(226,236,248)" stroke="#d7e2ea" stroke-width="1" /><rect x="670" y="364" width="36" height="36" rx="4" fill="rgb(202,212,224)" stroke="#d7e2ea" stroke-width="1" /><rect x="708" y="364" width="36" height="36" rx="4" fill="rgb(225,235,247)" stroke="#d7e2ea" stroke-width="1" /><rect x="746" y="364" width="36" height="36" rx="4" fill="rgb(167,177,189)" stroke="#d7e2ea" stroke-width="1" /><rect x="784" y="364" width="36" height="36" rx="4" fill="rgb(151,161,173)" stroke="#d7e2ea" stroke-width="1" /><rect x="822" y="364" width="36" height="36" rx="4" fill="rgb(146,156,168)" stroke="#d7e2ea" stroke-width="1" /><rect x="594" y="402" width="36" height="36" rx="4" fill="rgb(215,225,237)" stroke="#d7e2ea" stroke-width="1" /><rect x="632" y="402" width="36" height="36" rx="4" fill="rgb(201,211,223)" stroke="#d7e2ea" stroke-width="1" /><rect x="670" y="402" width="36" height="36" rx="4" fill="rgb(209,219,231)" stroke="#d7e2ea" stroke-width="1" /><rect x="708" y="402" width="36" height="36" rx="4" fill="rgb(207,217,229)" stroke="#d7e2ea" stroke-width="1" /><rect x="746" y="402" width="36" height="36" rx="4" fill="rgb(143,153,165)" stroke="#d7e2ea" stroke-width="1" /><rect x="784" y="402" width="36" height="36" rx="4" fill="rgb(150,160,172)" stroke="#d7e2ea" stroke-width="1" /><rect x="822" y="402" width="36" height="36" rx="4" fill="rgb(145,155,167)" stroke="#d7e2ea" stroke-width="1" /><rect x="594" y="440" width="36" height="36" rx="4" fill="rgb(191,201,213)" stroke="#d7e2ea" stroke-width="1" /><rect x="632" y="440" width="36" height="36" rx="4" fill="rgb(215,225,237)" stroke="#d7e2ea" stroke-width="1" /><rect x="670" y="440" width="36" height="36" rx="4" fill="rgb(207,217,229)" stroke="#d7e2ea" stroke-width="1" /><rect x="708" y="440" width="36" height="36" rx="4" fill="rgb(204,214,226)" stroke="#d7e2ea" stroke-width="1" /><rect x="746" y="440" width="36" height="36" rx="4" fill="rgb(150,160,172)" stroke="#d7e2ea" stroke-width="1" /><rect x="784" y="440" width="36" height="36" rx="4" fill="rgb(146,156,168)" stroke="#d7e2ea" stroke-width="1" /><rect x="822" y="440" width="36" height="36" rx="4" fill="rgb(159,169,181)" stroke="#d7e2ea" stroke-width="1" /><rect x="594" y="478" width="36" height="36" rx="4" fill="rgb(211,221,233)" stroke="#d7e2ea" stroke-width="1" /><rect x="632" y="478" width="36" height="36" rx="4" fill="rgb(208,218,230)" stroke="#d7e2ea" stroke-width="1" /><rect x="670" y="478" width="36" height="36" rx="4" fill="rgb(200,210,222)" stroke="#d7e2ea" stroke-width="1" /><rect x="708" y="478" width="36" height="36" rx="4" fill="rgb(201,211,223)" stroke="#d7e2ea" stroke-width="1" /><rect x="746" y="478" width="36" height="36" rx="4" fill="rgb(150,160,172)" stroke="#d7e2ea" stroke-width="1" /><rect x="784" y="478" width="36" height="36" rx="4" fill="rgb(154,164,176)" stroke="#d7e2ea" stroke-width="1" /><rect x="822" y="478" width="36" height="36" rx="4" fill="rgb(133,143,155)" stroke="#d7e2ea" stroke-width="1" /><circle cx="726.0" cy="382.0" r="13" fill="none" stroke="#c85b73" stroke-width="4" /><circle cx="764" cy="306" r="8" fill="#4d8c6a" fill-opacity=".75" /><circle cx="802" cy="306" r="8" fill="#4d8c6a" fill-opacity=".75" /><circle cx="840" cy="306" r="8" fill="#4d8c6a" fill-opacity=".75" /><circle cx="764" cy="344" r="8" fill="#4d8c6a" fill-opacity=".75" /><circle cx="802" cy="344" r="8" fill="#4d8c6a" fill-opacity=".75" /><circle cx="840" cy="344" r="8" fill="#4d8c6a" fill-opacity=".75" /><circle cx="764" cy="382" r="8" fill="#4d8c6a" fill-opacity=".75" /><circle cx="802" cy="382" r="8" fill="#4d8c6a" fill-opacity=".75" /><circle cx="840" cy="382" r="8" fill="#4d8c6a" fill-opacity=".75" /><circle cx="764" cy="420" r="8" fill="#4d8c6a" fill-opacity=".75" /><circle cx="802" cy="420" r="8" fill="#4d8c6a" fill-opacity=".75" /><circle cx="840" cy="420" r="8" fill="#4d8c6a" fill-opacity=".75" /><circle cx="764" cy="458" r="8" fill="#4d8c6a" fill-opacity=".75" /><circle cx="802" cy="458" r="8" fill="#4d8c6a" fill-opacity=".75" /><circle cx="840" cy="458" r="8" fill="#4d8c6a" fill-opacity=".75" /><text x="725" y="565" text-anchor="middle" font-family="Source Han Sans SC, Microsoft YaHei, sans-serif" font-size="15" font-weight="400" fill="#486581">拒绝跨强度边缘，但会误判弱纹理</text><rect x="985" y="105" width="410" height="515" rx="16" fill="#ffffff" stroke="#b9c7d3" stroke-width="2.5" /><text x="1190.0" y="147" text-anchor="middle" font-family="Source Han Sans SC, Microsoft YaHei, sans-serif" font-size="21" font-weight="700" fill="#102a43">非局部平均</text><text x="1190.0" y="181" text-anchor="middle" font-family="Source Han Sans SC, Microsoft YaHei, sans-serif" font-size="15" font-weight="400" fill="#486581">整图寻找相似小块</text><rect x="1059" y="250" width="36" height="36" rx="4" fill="rgb(202,212,224)" stroke="#d7e2ea" stroke-width="1" /><rect x="1097" y="250" width="36" height="36" rx="4" fill="rgb(222,232,244)" stroke="#d7e2ea" stroke-width="1" /><rect x="1135" y="250" width="36" height="36" rx="4" fill="rgb(211,221,233)" stroke="#d7e2ea" stroke-width="1" /><rect x="1173" y="250" width="36" height="36" rx="4" fill="rgb(215,225,237)" stroke="#d7e2ea" stroke-width="1" /><rect x="1211" y="250" width="36" height="36" rx="4" fill="rgb(150,160,172)" stroke="#d7e2ea" stroke-width="1" /><rect x="1249" y="250" width="36" height="36" rx="4" fill="rgb(159,169,181)" stroke="#d7e2ea" stroke-width="1" /><rect x="1287" y="250" width="36" height="36" rx="4" fill="rgb(149,159,171)" stroke="#d7e2ea" stroke-width="1" /><rect x="1059" y="288" width="36" height="36" rx="4" fill="rgb(212,222,234)" stroke="#d7e2ea" stroke-width="1" /><rect x="1097" y="288" width="36" height="36" rx="4" fill="rgb(148,158,170)" stroke="#d7e2ea" stroke-width="1" /><rect x="1135" y="288" width="36" height="36" rx="4" fill="rgb(138,148,160)" stroke="#d7e2ea" stroke-width="1" /><rect x="1173" y="288" width="36" height="36" rx="4" fill="rgb(206,216,228)" stroke="#d7e2ea" stroke-width="1" /><rect x="1211" y="288" width="36" height="36" rx="4" fill="rgb(155,165,177)" stroke="#d7e2ea" stroke-width="1" /><rect x="1249" y="288" width="36" height="36" rx="4" fill="rgb(159,169,181)" stroke="#d7e2ea" stroke-width="1" /><rect x="1287" y="288" width="36" height="36" rx="4" fill="rgb(150,160,172)" stroke="#d7e2ea" stroke-width="1" /><rect x="1059" y="326" width="36" height="36" rx="4" fill="rgb(200,210,222)" stroke="#d7e2ea" stroke-width="1" /><rect x="1097" y="326" width="36" height="36" rx="4" fill="rgb(139,149,161)" stroke="#d7e2ea" stroke-width="1" /><rect x="1135" y="326" width="36" height="36" rx="4" fill="rgb(150,160,172)" stroke="#d7e2ea" stroke-width="1" /><rect x="1173" y="326" width="36" height="36" rx="4" fill="rgb(199,209,221)" stroke="#d7e2ea" stroke-width="1" /><rect x="1211" y="326" width="36" height="36" rx="4" fill="rgb(143,153,165)" stroke="#d7e2ea" stroke-width="1" /><rect x="1249" y="326" width="36" height="36" rx="4" fill="rgb(150,160,172)" stroke="#d7e2ea" stroke-width="1" /><rect x="1287" y="326" width="36" height="36" rx="4" fill="rgb(143,153,165)" stroke="#d7e2ea" stroke-width="1" /><rect x="1059" y="364" width="36" height="36" rx="4" fill="rgb(209,219,231)" stroke="#d7e2ea" stroke-width="1" /><rect x="1097" y="364" width="36" height="36" rx="4" fill="rgb(216,226,238)" stroke="#d7e2ea" stroke-width="1" /><rect x="1135" y="364" width="36" height="36" rx="4" fill="rgb(211,221,233)" stroke="#d7e2ea" stroke-width="1" /><rect x="1173" y="364" width="36" height="36" rx="4" fill="rgb(207,217,229)" stroke="#d7e2ea" stroke-width="1" /><rect x="1211" y="364" width="36" height="36" rx="4" fill="rgb(136,146,158)" stroke="#d7e2ea" stroke-width="1" /><rect x="1249" y="364" width="36" height="36" rx="4" fill="rgb(154,164,176)" stroke="#d7e2ea" stroke-width="1" /><rect x="1287" y="364" width="36" height="36" rx="4" fill="rgb(144,154,166)" stroke="#d7e2ea" stroke-width="1" /><rect x="1059" y="402" width="36" height="36" rx="4" fill="rgb(208,218,230)" stroke="#d7e2ea" stroke-width="1" /><rect x="1097" y="402" width="36" height="36" rx="4" fill="rgb(208,218,230)" stroke="#d7e2ea" stroke-width="1" /><rect x="1135" y="402" width="36" height="36" rx="4" fill="rgb(217,227,239)" stroke="#d7e2ea" stroke-width="1" /><rect x="1173" y="402" width="36" height="36" rx="4" fill="rgb(199,209,221)" stroke="#d7e2ea" stroke-width="1" /><rect x="1211" y="402" width="36" height="36" rx="4" fill="rgb(136,146,158)" stroke="#d7e2ea" stroke-width="1" /><rect x="1249" y="402" width="36" height="36" rx="4" fill="rgb(134,144,156)" stroke="#d7e2ea" stroke-width="1" /><rect x="1287" y="402" width="36" height="36" rx="4" fill="rgb(142,152,164)" stroke="#d7e2ea" stroke-width="1" /><rect x="1059" y="440" width="36" height="36" rx="4" fill="rgb(197,207,219)" stroke="#d7e2ea" stroke-width="1" /><rect x="1097" y="440" width="36" height="36" rx="4" fill="rgb(204,214,226)" stroke="#d7e2ea" stroke-width="1" /><rect x="1135" y="440" width="36" height="36" rx="4" fill="rgb(201,211,223)" stroke="#d7e2ea" stroke-width="1" /><rect x="1173" y="440" width="36" height="36" rx="4" fill="rgb(210,220,232)" stroke="#d7e2ea" stroke-width="1" /><rect x="1211" y="440" width="36" height="36" rx="4" fill="rgb(144,154,166)" stroke="#d7e2ea" stroke-width="1" /><rect x="1249" y="440" width="36" height="36" rx="4" fill="rgb(148,158,170)" stroke="#d7e2ea" stroke-width="1" /><rect x="1287" y="440" width="36" height="36" rx="4" fill="rgb(154,164,176)" stroke="#d7e2ea" stroke-width="1" /><rect x="1059" y="478" width="36" height="36" rx="4" fill="rgb(211,221,233)" stroke="#d7e2ea" stroke-width="1" /><rect x="1097" y="478" width="36" height="36" rx="4" fill="rgb(216,226,238)" stroke="#d7e2ea" stroke-width="1" /><rect x="1135" y="478" width="36" height="36" rx="4" fill="rgb(216,226,238)" stroke="#d7e2ea" stroke-width="1" /><rect x="1173" y="478" width="36" height="36" rx="4" fill="rgb(211,221,233)" stroke="#d7e2ea" stroke-width="1" /><rect x="1211" y="478" width="36" height="36" rx="4" fill="rgb(150,160,172)" stroke="#d7e2ea" stroke-width="1" /><rect x="1249" y="478" width="36" height="36" rx="4" fill="rgb(130,140,152)" stroke="#d7e2ea" stroke-width="1" /><rect x="1287" y="478" width="36" height="36" rx="4" fill="rgb(133,143,155)" stroke="#d7e2ea" stroke-width="1" /><circle cx="1191.0" cy="382.0" r="13" fill="none" stroke="#c85b73" stroke-width="4" /><rect x="1094" y="285" width="80" height="80" rx="7" fill="none" stroke="#7b4b74" stroke-width="3" /><rect x="1132" y="285" width="80" height="80" rx="7" fill="none" stroke="#7b4b74" stroke-width="3" /><rect x="1246" y="399" width="80" height="80" rx="7" fill="none" stroke="#7b4b74" stroke-width="3" /><rect x="1208" y="437" width="80" height="80" rx="7" fill="none" stroke="#7b4b74" stroke-width="3" /><rect x="1246" y="437" width="80" height="80" rx="7" fill="none" stroke="#7b4b74" stroke-width="3" /><text x="1190" y="565" text-anchor="middle" font-family="Source Han Sans SC, Microsoft YaHei, sans-serif" font-size="15" font-weight="400" fill="#486581">重复结构提供更多样本；独特结构收益小</text><rect x="250" y="665" width="1000" height="68" rx="16" fill="#eef5fb" stroke="#a8c8e0" stroke-width="2.5" /><text x="750.0" y="707" text-anchor="middle" font-family="Source Han Sans SC, Microsoft YaHei, sans-serif" font-size="18" font-weight="700" fill="#285b7a">权重越依赖图像内容，边缘保护越强；错误匹配和选择偏差也越值得检查</text></svg>