<?xml version='1.0' encoding='utf-8'?>
<svg xmlns="http://www.w3.org/2000/svg" width="1500" height="720" viewBox="0 0 1500 720" role="img" aria-label="微分锐化对信号与噪声的频率加权"><defs><marker id="arrow-blue" markerWidth="10" markerHeight="8" refX="9" refY="4" orient="auto" markerUnits="strokeWidth"><path d="M 0 0 L 10 4 L 0 8 z" fill="#3b82b5" /></marker><marker id="arrow-dark" markerWidth="10" markerHeight="8" refX="9" refY="4" orient="auto" markerUnits="strokeWidth"><path d="M 0 0 L 10 4 L 0 8 z" fill="#334e68" /></marker><marker id="arrow-red" markerWidth="10" markerHeight="8" refX="9" refY="4" orient="auto" markerUnits="strokeWidth"><path d="M 0 0 L 10 4 L 0 8 z" fill="#c85b73" /></marker><marker id="arrow-green" markerWidth="10" markerHeight="8" refX="9" refY="4" orient="auto" markerUnits="strokeWidth"><path d="M 0 0 L 10 4 L 0 8 z" fill="#4d8c6a" /></marker><marker id="arrow-gold" markerWidth="10" markerHeight="8" refX="9" refY="4" orient="auto" markerUnits="strokeWidth"><path d="M 0 0 L 10 4 L 0 8 z" fill="#c58a2d" /></marker><marker id="arrow-purple" markerWidth="10" markerHeight="8" refX="9" refY="4" orient="auto" markerUnits="strokeWidth"><path d="M 0 0 L 10 4 L 0 8 z" fill="#7b4b74" /></marker></defs><rect width="1500" height="720" fill="#fbfdff" /><text x="750" y="43" text-anchor="middle" font-family="Source Han Sans SC, Microsoft YaHei, sans-serif" font-size="30" font-weight="700" fill="#102a43">微分强调快速变化；白噪声恰好在高频仍有功率，因此二者不可分开增益</text><text x="385.0" y="105" text-anchor="middle" font-family="Source Han Sans SC, Microsoft YaHei, sans-serif" font-size="22" font-weight="700" fill="#285b7a">一阶差分 |D(ν)|</text><line x1="120" y1="530" x2="675" y2="530" stroke="#334e68" stroke-width="2" stroke-linecap="round" marker-end="url(#arrow-dark)" /><line x1="120" y1="530" x2="120" y2="150" stroke="#334e68" stroke-width="2" stroke-linecap="round" marker-end="url(#arrow-dark)" /><text x="675" y="561" text-anchor="end" font-family="Source Han Sans SC, Microsoft YaHei, sans-serif" font-size="15" font-weight="400" fill="#627d98">ν / νN</text><text x="116" y="138" text-anchor="start" font-family="Source Han Sans SC, Microsoft YaHei, sans-serif" font-size="15" font-weight="400" fill="#627d98">幅度</text><polyline points="120.00,530.00 122.78,527.29 125.55,524.58 128.32,521.87 131.10,519.16 133.88,516.46 136.65,513.75 139.43,511.04 142.20,508.34 144.97,505.63 147.75,502.93 150.53,500.23 153.30,497.53 156.07,494.84 158.85,492.14 161.62,489.45 164.40,486.76 167.18,484.07 169.95,481.39 172.72,478.71 175.50,476.03 178.28,473.36 181.05,470.68 183.82,468.02 186.60,465.35 189.38,462.69 192.15,460.04 194.93,457.39 197.70,454.74 200.47,452.10 203.25,449.46 206.03,446.83 208.80,444.20 211.57,441.58 214.35,438.96 217.12,436.35 219.90,433.75 222.68,431.15 225.45,428.56 228.23,425.97 231.00,423.39 233.77,420.82 236.55,418.25 239.32,415.69 242.10,413.14 244.88,410.59 247.65,408.05 250.42,405.52 253.20,403.00 255.97,400.48 258.75,397.97 261.52,395.47 264.30,392.98 267.08,390.50 269.85,388.03 272.62,385.56 275.40,383.11 278.17,380.66 280.95,378.22 283.73,375.79 286.50,373.37 289.27,370.96 292.05,368.56 294.82,366.17 297.60,363.79 300.38,361.43 303.15,359.07 305.93,356.72 308.70,354.38 311.48,352.05 314.25,349.74 317.02,347.43 319.80,345.14 322.57,342.86 325.35,340.59 328.12,338.33 330.90,336.08 333.68,333.85 336.45,331.62 339.23,329.41 342.00,327.21 344.77,325.03 347.55,322.86 350.32,320.69 353.10,318.55 355.88,316.41 358.65,314.29 361.43,312.18 364.20,310.09 366.98,308.01 369.75,305.94 372.52,303.89 375.30,301.85 378.07,299.82 380.85,297.81 383.62,295.81 386.40,293.83 389.18,291.86 391.95,289.91 394.73,287.97 397.50,286.05 400.27,284.14 403.05,282.25 405.82,280.37 408.60,278.51 411.38,276.66 414.15,274.83 416.93,273.01 419.70,271.21 422.48,269.43 425.25,267.66 428.03,265.91 430.80,264.17 433.57,262.45 436.35,260.75 439.12,259.07 441.90,257.40 444.67,255.74 447.45,254.11 450.22,252.49 453.00,250.89 455.77,249.31 458.55,247.74 461.32,246.19 464.10,244.66 466.88,243.14 469.65,241.65 472.43,240.17 475.20,238.71 477.98,237.26 480.75,235.84 483.53,234.43 486.30,233.04 489.08,231.67 491.85,230.32 494.62,228.99 497.40,227.67 500.18,226.38 502.95,225.10 505.72,223.84 508.50,222.60 511.27,221.38 514.05,220.18 516.83,219.00 519.60,217.83 522.38,216.69 525.15,215.57 527.92,214.46 530.70,213.37 533.48,212.31 536.25,211.26 539.02,210.23 541.80,209.23 544.58,208.24 547.35,207.27 550.12,206.32 552.90,205.40 555.67,204.49 558.45,203.60 561.23,202.73 564.00,201.89 566.78,201.06 569.55,200.25 572.33,199.46 575.10,198.70 577.88,197.95 580.65,197.23 583.42,196.52 586.20,195.84 588.97,195.18 591.75,194.53 594.52,193.91 597.30,193.31 600.08,192.73 602.85,192.17 605.62,191.63 608.40,191.11 611.17,190.61 613.95,190.14 616.73,189.68 619.50,189.25 622.28,188.83 625.05,188.44 627.83,188.07 630.60,187.72 633.38,187.39 636.15,187.08 638.93,186.80 641.70,186.53 644.48,186.29 647.25,186.06 650.02,185.86 652.80,185.68 655.57,185.52 658.35,185.38 661.12,185.27 663.90,185.17 666.67,185.10 669.45,185.04 672.23,185.01 675.00,185.00" fill="none" stroke="#3b82b5" stroke-width="5" stroke-linecap="round" stroke-linejoin="round" /><polyline points="120.00,530.00 122.78,529.98 125.55,529.91 128.32,529.81 131.10,529.66 133.88,529.47 136.65,529.23 139.43,528.96 142.20,528.64 144.97,528.28 147.75,527.88 150.53,527.43 153.30,526.94 156.07,526.42 158.85,525.85 161.62,525.23 164.40,524.58 167.18,523.89 169.95,523.15 172.72,522.37 175.50,521.56 178.28,520.70 181.05,519.80 183.82,518.86 186.60,517.89 189.38,516.87 192.15,515.81 194.93,514.72 197.70,513.58 200.47,512.41 203.25,511.20 206.03,509.95 208.80,508.66 211.57,507.34 214.35,505.98 217.12,504.58 219.90,503.15 222.68,501.68 225.45,500.17 228.23,498.63 231.00,497.06 233.77,495.45 236.55,493.80 239.32,492.12 242.10,490.41 244.88,488.67 247.65,486.89 250.42,485.09 253.20,483.25 255.97,481.38 258.75,479.48 261.52,477.54 264.30,475.58 267.08,473.59 269.85,471.58 272.62,469.53 275.40,467.46 278.17,465.35 280.95,463.23 283.73,461.07 286.50,458.89 289.27,456.69 292.05,454.46 294.82,452.21 297.60,449.93 300.38,447.63 303.15,445.31 305.93,442.97 308.70,440.60 311.48,438.22 314.25,435.81 317.02,433.39 319.80,430.95 322.57,428.49 325.35,426.01 328.12,423.51 330.90,421.00 333.68,418.47 336.45,415.93 339.23,413.38 342.00,410.81 344.77,408.22 347.55,405.63 350.32,403.02 353.10,400.40 355.88,397.77 358.65,395.13 361.43,392.48 364.20,389.82 366.98,387.16 369.75,384.48 372.52,381.81 375.30,379.12 378.07,376.43 380.85,373.73 383.62,371.03 386.40,368.33 389.18,365.63 391.95,362.92 394.73,360.21 397.50,357.50 400.27,354.79 403.05,352.08 405.82,349.37 408.60,346.67 411.38,343.97 414.15,341.27 416.93,338.57 419.70,335.88 422.48,333.19 425.25,330.52 428.03,327.84 430.80,325.18 433.57,322.52 436.35,319.87 439.12,317.23 441.90,314.60 444.67,311.98 447.45,309.37 450.22,306.78 453.00,304.19 455.77,301.62 458.55,299.07 461.32,296.53 464.10,294.00 466.88,291.49 469.65,288.99 472.43,286.51 475.20,284.05 477.98,281.61 480.75,279.19 483.53,276.78 486.30,274.40 489.08,272.03 491.85,269.69 494.62,267.37 497.40,265.07 500.18,262.79 502.95,260.54 505.72,258.31 508.50,256.11 511.27,253.93 514.05,251.77 516.83,249.65 519.60,247.54 522.38,245.47 525.15,243.42 527.92,241.41 530.70,239.42 533.48,237.46 536.25,235.52 539.02,233.62 541.80,231.75 544.58,229.91 547.35,228.11 550.12,226.33 552.90,224.59 555.67,222.88 558.45,221.20 561.23,219.55 564.00,217.94 566.78,216.37 569.55,214.83 572.33,213.32 575.10,211.85 577.88,210.42 580.65,209.02 583.42,207.66 586.20,206.34 588.97,205.05 591.75,203.80 594.52,202.59 597.30,201.42 600.08,200.28 602.85,199.19 605.62,198.13 608.40,197.11 611.17,196.14 613.95,195.20 616.73,194.30 619.50,193.44 622.28,192.63 625.05,191.85 627.83,191.11 630.60,190.42 633.38,189.77 636.15,189.15 638.93,188.58 641.70,188.06 644.48,187.57 647.25,187.12 650.02,186.72 652.80,186.36 655.57,186.04 658.35,185.77 661.12,185.53 663.90,185.34 666.67,185.19 669.45,185.09 672.23,185.02 675.00,185.00" fill="none" stroke="#c85b73" stroke-width="3" stroke-linecap="round" stroke-linejoin="round" stroke-dasharray="9 7" /><text x="665" y="195" text-anchor="end" font-family="Source Han Sans SC, Microsoft YaHei, sans-serif" font-size="16" font-weight="700" fill="#3b82b5">算子幅度</text><text x="665" y="228" text-anchor="end" font-family="Source Han Sans SC, Microsoft YaHei, sans-serif" font-size="16" font-weight="700" fill="#c85b73">白噪声输出功率 ∝ |K|²</text><text x="1115.0" y="105" text-anchor="middle" font-family="Source Han Sans SC, Microsoft YaHei, sans-serif" font-size="22" font-weight="700" fill="#285b7a">拉普拉斯 |L(ν)|</text><line x1="850" y1="530" x2="1405" y2="530" stroke="#334e68" stroke-width="2" stroke-linecap="round" marker-end="url(#arrow-dark)" /><line x1="850" y1="530" x2="850" y2="150" stroke="#334e68" stroke-width="2" stroke-linecap="round" marker-end="url(#arrow-dark)" /><text x="1405" y="561" text-anchor="end" font-family="Source Han Sans SC, Microsoft YaHei, sans-serif" font-size="15" font-weight="400" fill="#627d98">ν / νN</text><text x="846" y="138" text-anchor="start" font-family="Source Han Sans SC, Microsoft YaHei, sans-serif" font-size="15" font-weight="400" fill="#627d98">幅度</text><polyline points="850.00,530.00 852.77,529.98 855.55,529.91 858.33,529.81 861.10,529.66 863.88,529.47 866.65,529.23 869.42,528.96 872.20,528.64 874.98,528.28 877.75,527.88 880.52,527.43 883.30,526.94 886.08,526.42 888.85,525.85 891.62,525.23 894.40,524.58 897.17,523.89 899.95,523.15 902.73,522.37 905.50,521.56 908.27,520.70 911.05,519.80 913.83,518.86 916.60,517.89 919.38,516.87 922.15,515.81 924.92,514.72 927.70,513.58 930.48,512.41 933.25,511.20 936.02,509.95 938.80,508.66 941.58,507.34 944.35,505.98 947.12,504.58 949.90,503.15 952.67,501.68 955.45,500.17 958.23,498.63 961.00,497.06 963.77,495.45 966.55,493.80 969.33,492.12 972.10,490.41 974.88,488.67 977.65,486.89 980.42,485.09 983.20,483.25 985.98,481.38 988.75,479.48 991.52,477.54 994.30,475.58 997.08,473.59 999.85,471.58 1002.62,469.53 1005.40,467.46 1008.17,465.35 1010.95,463.23 1013.73,461.07 1016.50,458.89 1019.27,456.69 1022.05,454.46 1024.83,452.21 1027.60,449.93 1030.38,447.63 1033.15,445.31 1035.92,442.97 1038.70,440.60 1041.47,438.22 1044.25,435.81 1047.03,433.39 1049.80,430.95 1052.58,428.49 1055.35,426.01 1058.12,423.51 1060.90,421.00 1063.67,418.47 1066.45,415.93 1069.22,413.38 1072.00,410.81 1074.78,408.22 1077.55,405.63 1080.33,403.02 1083.10,400.40 1085.88,397.77 1088.65,395.13 1091.42,392.48 1094.20,389.82 1096.97,387.16 1099.75,384.48 1102.53,381.81 1105.30,379.12 1108.08,376.43 1110.85,373.73 1113.62,371.03 1116.40,368.33 1119.17,365.63 1121.95,362.92 1124.72,360.21 1127.50,357.50 1130.28,354.79 1133.05,352.08 1135.83,349.37 1138.60,346.67 1141.38,343.97 1144.15,341.27 1146.92,338.57 1149.70,335.88 1152.47,333.19 1155.25,330.52 1158.03,327.84 1160.80,325.18 1163.58,322.52 1166.35,319.87 1169.12,317.23 1171.90,314.60 1174.67,311.98 1177.45,309.37 1180.22,306.78 1183.00,304.19 1185.78,301.62 1188.55,299.07 1191.33,296.53 1194.10,294.00 1196.88,291.49 1199.65,288.99 1202.42,286.51 1205.20,284.05 1207.97,281.61 1210.75,279.19 1213.53,276.78 1216.30,274.40 1219.08,272.03 1221.85,269.69 1224.62,267.37 1227.40,265.07 1230.17,262.79 1232.95,260.54 1235.72,258.31 1238.50,256.11 1241.28,253.93 1244.05,251.77 1246.83,249.65 1249.60,247.54 1252.38,245.47 1255.15,243.42 1257.92,241.41 1260.70,239.42 1263.47,237.46 1266.25,235.52 1269.03,233.62 1271.80,231.75 1274.58,229.91 1277.35,228.11 1280.12,226.33 1282.90,224.59 1285.67,222.88 1288.45,221.20 1291.22,219.55 1294.00,217.94 1296.78,216.37 1299.55,214.83 1302.33,213.32 1305.10,211.85 1307.88,210.42 1310.65,209.02 1313.42,207.66 1316.20,206.34 1318.97,205.05 1321.75,203.80 1324.53,202.59 1327.30,201.42 1330.08,200.28 1332.85,199.19 1335.62,198.13 1338.40,197.11 1341.17,196.14 1343.95,195.20 1346.72,194.30 1349.50,193.44 1352.28,192.63 1355.05,191.85 1357.83,191.11 1360.60,190.42 1363.38,189.77 1366.15,189.15 1368.93,188.58 1371.70,188.06 1374.47,187.57 1377.25,187.12 1380.03,186.72 1382.80,186.36 1385.57,186.04 1388.35,185.77 1391.12,185.53 1393.90,185.34 1396.67,185.19 1399.45,185.09 1402.22,185.02 1405.00,185.00" fill="none" stroke="#3b82b5" stroke-width="5" stroke-linecap="round" stroke-linejoin="round" /><polyline points="850.00,530.00 852.77,530.00 855.55,530.00 858.33,530.00 861.10,530.00 863.88,530.00 866.65,530.00 869.42,530.00 872.20,529.99 874.98,529.99 877.75,529.99 880.52,529.98 883.30,529.97 886.08,529.96 888.85,529.95 891.62,529.93 894.40,529.91 897.17,529.89 899.95,529.86 902.73,529.83 905.50,529.79 908.27,529.75 911.05,529.70 913.83,529.64 916.60,529.57 919.38,529.50 922.15,529.42 924.92,529.32 927.70,529.22 930.48,529.10 933.25,528.98 936.02,528.83 938.80,528.68 941.58,528.51 944.35,528.33 947.12,528.13 949.90,527.91 952.67,527.67 955.45,527.42 958.23,527.15 961.00,526.85 963.77,526.54 966.55,526.20 969.33,525.84 972.10,525.46 974.88,525.05 977.65,524.61 980.42,524.15 983.20,523.66 985.98,523.15 988.75,522.60 991.52,522.02 994.30,521.42 997.08,520.78 999.85,520.11 1002.62,519.40 1005.40,518.66 1008.17,517.89 1010.95,517.08 1013.73,516.23 1016.50,515.34 1019.27,514.42 1022.05,513.46 1024.83,512.46 1027.60,511.42 1030.38,510.33 1033.15,509.21 1035.92,508.04 1038.70,506.84 1041.47,505.58 1044.25,504.29 1047.03,502.95 1049.80,501.56 1052.58,500.13 1055.35,498.65 1058.12,497.13 1060.90,495.56 1063.67,493.95 1066.45,492.29 1069.22,490.58 1072.00,488.82 1074.78,487.01 1077.55,485.16 1080.33,483.26 1083.10,481.31 1085.88,479.32 1088.65,477.28 1091.42,475.18 1094.20,473.04 1096.97,470.86 1099.75,468.62 1102.53,466.34 1105.30,464.02 1108.08,461.64 1110.85,459.22 1113.62,456.75 1116.40,454.24 1119.17,451.68 1121.95,449.08 1124.72,446.44 1127.50,443.75 1130.28,441.02 1133.05,438.25 1135.83,435.43 1138.60,432.58 1141.38,429.68 1144.15,426.75 1146.92,423.78 1149.70,420.78 1152.47,417.73 1155.25,414.65 1158.03,411.54 1160.80,408.40 1163.58,405.22 1166.35,402.02 1169.12,398.78 1171.90,395.52 1174.67,392.23 1177.45,388.91 1180.22,385.57 1183.00,382.21 1185.78,378.82 1188.55,375.42 1191.33,372.00 1194.10,368.56 1196.88,365.11 1199.65,361.64 1202.42,358.16 1205.20,354.67 1207.97,351.17 1210.75,347.66 1213.53,344.15 1216.30,340.63 1219.08,337.11 1221.85,333.59 1224.62,330.07 1227.40,326.56 1230.17,323.05 1232.95,319.54 1235.72,316.04 1238.50,312.56 1241.28,309.08 1244.05,305.62 1246.83,302.18 1249.60,298.75 1252.38,295.34 1255.15,291.95 1257.92,288.59 1260.70,285.25 1263.47,281.93 1266.25,278.65 1269.03,275.39 1271.80,272.17 1274.58,268.98 1277.35,265.83 1280.12,262.71 1282.90,259.63 1285.67,256.59 1288.45,253.60 1291.22,250.65 1294.00,247.74 1296.78,244.89 1299.55,242.08 1302.33,239.32 1305.10,236.62 1307.88,233.97 1310.65,231.37 1313.42,228.83 1316.20,226.35 1318.97,223.94 1321.75,221.58 1324.53,219.28 1327.30,217.05 1330.08,214.89 1332.85,212.79 1335.62,210.76 1338.40,208.80 1341.17,206.91 1343.95,205.09 1346.72,203.35 1349.50,201.68 1352.28,200.08 1355.05,198.56 1357.83,197.12 1360.60,195.75 1363.38,194.47 1366.15,193.26 1368.93,192.13 1371.70,191.08 1374.47,190.12 1377.25,189.23 1380.03,188.43 1382.80,187.72 1385.57,187.08 1388.35,186.53 1391.12,186.06 1393.90,185.68 1396.67,185.38 1399.45,185.17 1402.22,185.04 1405.00,185.00" fill="none" stroke="#c85b73" stroke-width="3" stroke-linecap="round" stroke-linejoin="round" stroke-dasharray="9 7" /><text x="1395" y="195" text-anchor="end" font-family="Source Han Sans SC, Microsoft YaHei, sans-serif" font-size="16" font-weight="700" fill="#3b82b5">算子幅度</text><text x="1395" y="228" text-anchor="end" font-family="Source Han Sans SC, Microsoft YaHei, sans-serif" font-size="16" font-weight="700" fill="#c85b73">白噪声输出功率 ∝ |K|²</text><rect x="250" y="600" width="1000" height="70" rx="16" fill="#fff7e8" stroke="#e8c77d" stroke-width="2.5" /><text x="750.0" y="642" text-anchor="middle" font-family="Source Han Sans SC, Microsoft YaHei, sans-serif" font-size="18" font-weight="700" fill="#8a5f19">边缘与噪声共享高频带；阈值、正则化或多尺度先验只能作统计区分，不能作绝对分离</text></svg>