<?xml version='1.0' encoding='utf-8'?>
<svg xmlns="http://www.w3.org/2000/svg" width="1400" height="650" viewBox="0 0 1400 650" role="img" aria-label="菲涅耳与夫琅禾费衍射区域"><defs><marker id="arrow-blue" markerWidth="10" markerHeight="8" refX="9" refY="4" orient="auto" markerUnits="strokeWidth"><path d="M 0 0 L 10 4 L 0 8 z" fill="#3b82b5" /></marker><marker id="arrow-red" markerWidth="10" markerHeight="8" refX="9" refY="4" orient="auto" markerUnits="strokeWidth"><path d="M 0 0 L 10 4 L 0 8 z" fill="#c85b73" /></marker><marker id="arrow-dark" markerWidth="10" markerHeight="8" refX="9" refY="4" orient="auto" markerUnits="strokeWidth"><path d="M 0 0 L 10 4 L 0 8 z" fill="#334e68" /></marker><marker id="arrow-green" markerWidth="10" markerHeight="8" refX="9" refY="4" orient="auto" markerUnits="strokeWidth"><path d="M 0 0 L 10 4 L 0 8 z" fill="#4d8c6a" /></marker></defs><rect width="1400" height="650" fill="#fbfdff" /><text x="700.0" y="43" text-anchor="middle" font-family="Source Han Sans SC, Microsoft YaHei, sans-serif" font-size="30" font-weight="700" fill="#102a43">有限孔径后的近场与远场</text><line x1="70" y1="330" x2="1320" y2="330" stroke="#9fb3c2" stroke-width="2" stroke-linecap="round" marker-end="url(#arrow-dark)" /><line x1="260" y1="100" x2="260" y2="245" stroke="#334e68" stroke-width="8" stroke-linecap="round" /><line x1="260" y1="415" x2="260" y2="560" stroke="#334e68" stroke-width="8" stroke-linecap="round" /><text x="260" y="80" text-anchor="middle" font-family="Source Han Sans SC, Microsoft YaHei, sans-serif" font-size="22" font-weight="700" fill="#243b53">有限孔径 2a</text><line x1="95" y1="145" x2="95" y2="515" stroke="#6aa6d8" stroke-width="2" stroke-linecap="round" /><line x1="140" y1="145" x2="140" y2="515" stroke="#6aa6d8" stroke-width="2" stroke-linecap="round" /><line x1="185" y1="145" x2="185" y2="515" stroke="#6aa6d8" stroke-width="2" stroke-linecap="round" /><line x1="225" y1="145" x2="225" y2="515" stroke="#6aa6d8" stroke-width="2" stroke-linecap="round" /><path d="M 260 160 A 95 95 0 0 1 260 350" fill="none" stroke="#7ba9ca" stroke-width="1.7" stroke-opacity="0.75" /><path d="M 260 235 A 95 95 0 0 1 260 425" fill="none" stroke="#7ba9ca" stroke-width="1.7" stroke-opacity="0.75" /><path d="M 260 310 A 95 95 0 0 1 260 500" fill="none" stroke="#7ba9ca" stroke-width="1.7" stroke-opacity="0.75" /><path d="M 260 75 A 180 180 0 0 1 260 435" fill="none" stroke="#7ba9ca" stroke-width="1.7" stroke-opacity="0.55" /><path d="M 260 150 A 180 180 0 0 1 260 510" fill="none" stroke="#7ba9ca" stroke-width="1.7" stroke-opacity="0.55" /><path d="M 260 225 A 180 180 0 0 1 260 585" fill="none" stroke="#7ba9ca" stroke-width="1.7" stroke-opacity="0.55" /><path d="M 260 -15 A 270 270 0 0 1 260 525" fill="none" stroke="#7ba9ca" stroke-width="1.7" stroke-opacity="0.38" /><path d="M 260 60 A 270 270 0 0 1 260 600" fill="none" stroke="#7ba9ca" stroke-width="1.7" stroke-opacity="0.38" /><path d="M 260 135 A 270 270 0 0 1 260 675" fill="none" stroke="#7ba9ca" stroke-width="1.7" stroke-opacity="0.38" /><path d="M 260 -105 A 360 360 0 0 1 260 615" fill="none" stroke="#7ba9ca" stroke-width="1.7" stroke-opacity="0.25" /><path d="M 260 -30 A 360 360 0 0 1 260 690" fill="none" stroke="#7ba9ca" stroke-width="1.7" stroke-opacity="0.25" /><path d="M 260 45 A 360 360 0 0 1 260 765" fill="none" stroke="#7ba9ca" stroke-width="1.7" stroke-opacity="0.25" /><line x1="690" y1="105" x2="690" y2="555" stroke="#c58a2d" stroke-width="4" stroke-linecap="round" /><line x1="1210" y1="105" x2="1210" y2="555" stroke="#a24862" stroke-width="5" stroke-linecap="round" /><text x="690" y="85" text-anchor="middle" font-family="Source Han Sans SC, Microsoft YaHei, sans-serif" font-size="23" font-weight="700" fill="#8b5e20">菲涅耳近场</text><text x="1210" y="85" text-anchor="middle" font-family="Source Han Sans SC, Microsoft YaHei, sans-serif" font-size="23" font-weight="700" fill="#a24862">夫琅禾费角谱 / 焦平面</text><line x1="675.0" y1="220" x2="705.0" y2="220" stroke="#d29a45" stroke-width="7" stroke-linecap="round" /><line x1="662.5" y1="275" x2="717.5" y2="275" stroke="#d29a45" stroke-width="7" stroke-linecap="round" /><line x1="645.0" y1="330" x2="735.0" y2="330" stroke="#d29a45" stroke-width="7" stroke-linecap="round" /><line x1="662.5" y1="385" x2="717.5" y2="385" stroke="#d29a45" stroke-width="7" stroke-linecap="round" /><line x1="675.0" y1="440" x2="705.0" y2="440" stroke="#d29a45" stroke-width="7" stroke-linecap="round" /><line x1="1200.0" y1="250" x2="1220.0" y2="250" stroke="#c85b73" stroke-width="8" stroke-linecap="round" /><line x1="1191.0" y1="292" x2="1229.0" y2="292" stroke="#c85b73" stroke-width="8" stroke-linecap="round" /><line x1="1162.5" y1="330" x2="1257.5" y2="330" stroke="#c85b73" stroke-width="8" stroke-linecap="round" /><line x1="1191.0" y1="368" x2="1229.0" y2="368" stroke="#c85b73" stroke-width="8" stroke-linecap="round" /><line x1="1200.0" y1="410" x2="1220.0" y2="410" stroke="#c85b73" stroke-width="8" stroke-linecap="round" /><text x="475" y="602" text-anchor="middle" font-family="Source Han Sans SC, Microsoft YaHei, sans-serif" font-size="20" font-weight="600" fill="#8b5e20">F = a²/(λz) 较大</text><text x="1020" y="602" text-anchor="middle" font-family="Source Han Sans SC, Microsoft YaHei, sans-serif" font-size="20" font-weight="600" fill="#7b4b74">F ≪ 1：角分布近似瞳函数的傅里叶变换</text></svg>