<?xml version='1.0' encoding='utf-8'?>
<svg xmlns="http://www.w3.org/2000/svg" width="1200" height="400" viewBox="0 0 1200 400" role="img" aria-label="桶形理想和枕形畸变网格"><defs><marker id="arrow-blue" markerWidth="10" markerHeight="8" refX="9" refY="4" orient="auto" markerUnits="strokeWidth"><path d="M 0 0 L 10 4 L 0 8 z" fill="#3b82b5" /></marker><marker id="arrow-red" markerWidth="10" markerHeight="8" refX="9" refY="4" orient="auto" markerUnits="strokeWidth"><path d="M 0 0 L 10 4 L 0 8 z" fill="#c85b73" /></marker><marker id="arrow-dark" markerWidth="10" markerHeight="8" refX="9" refY="4" orient="auto" markerUnits="strokeWidth"><path d="M 0 0 L 10 4 L 0 8 z" fill="#334e68" /></marker><marker id="arrow-green" markerWidth="10" markerHeight="8" refX="9" refY="4" orient="auto" markerUnits="strokeWidth"><path d="M 0 0 L 10 4 L 0 8 z" fill="#4d8c6a" /></marker></defs><rect x="40.0" y="20.0" width="320" height="320" fill="#ffffff" stroke="#b8c7d1" stroke-width="2" /><polyline points="74.00,54.00 75.99,52.81 78.08,51.66 80.24,50.53 82.50,49.44 84.83,48.38 87.24,47.34 89.73,46.34 92.29,45.36 94.92,44.41 97.62,43.50 100.40,42.62 103.23,41.76 106.13,40.94 109.09,40.14 112.11,39.38 115.18,38.64 118.31,37.94 121.49,37.26 124.72,36.62 128.00,36.00 131.32,35.41 134.69,34.86 138.09,34.34 141.54,33.84 145.02,33.38 148.53,32.94 152.07,32.53 155.65,32.16 159.25,31.81 162.88,31.50 166.52,31.22 170.19,30.96 173.88,30.74 177.58,30.54 181.30,30.38 185.02,30.24 188.76,30.13 192.50,30.06 196.25,30.01 200.00,30.00 203.75,30.01 207.50,30.06 211.24,30.13 214.98,30.24 218.70,30.38 222.42,30.54 226.12,30.74 229.81,30.96 233.48,31.22 237.12,31.50 240.75,31.81 244.35,32.16 247.93,32.53 251.47,32.94 254.98,33.38 258.46,33.84 261.91,34.34 265.31,34.86 268.68,35.41 272.00,36.00 275.28,36.61 278.51,37.26 281.69,37.94 284.82,38.64 287.89,39.38 290.91,40.14 293.87,40.94 296.77,41.76 299.60,42.62 302.38,43.50 305.08,44.41 307.71,45.36 310.27,46.34 312.76,47.34 315.17,48.38 317.50,49.44 319.76,50.53 321.92,51.66 324.01,52.81 326.00,54.00" stroke="#3b82b5" stroke-width="1.7" fill="none" stroke-linejoin="round" stroke-linecap="round" /><polyline points="74.00,54.00 72.81,55.99 71.66,58.08 70.53,60.24 69.44,62.50 68.38,64.83 67.34,67.24 66.34,69.73 65.36,72.29 64.41,74.92 63.50,77.62 62.62,80.40 61.76,83.23 60.94,86.13 60.14,89.09 59.38,92.11 58.64,95.18 57.94,98.31 57.26,101.49 56.62,104.72 56.00,108.00 55.41,111.32 54.86,114.69 54.34,118.09 53.84,121.54 53.38,125.02 52.94,128.53 52.53,132.07 52.16,135.65 51.81,139.25 51.50,142.88 51.22,146.52 50.96,150.19 50.74,153.88 50.54,157.58 50.38,161.30 50.24,165.02 50.13,168.76 50.06,172.50 50.01,176.25 50.00,180.00 50.01,183.75 50.06,187.50 50.13,191.24 50.24,194.98 50.38,198.70 50.54,202.42 50.74,206.12 50.96,209.81 51.22,213.48 51.50,217.12 51.81,220.75 52.16,224.35 52.53,227.93 52.94,231.47 53.38,234.98 53.84,238.46 54.34,241.91 54.86,245.31 55.41,248.68 56.00,252.00 56.61,255.28 57.26,258.51 57.94,261.69 58.64,264.82 59.38,267.89 60.14,270.91 60.94,273.87 61.76,276.77 62.62,279.60 63.50,282.38 64.41,285.08 65.36,287.71 66.34,290.27 67.34,292.76 68.38,295.17 69.44,297.50 70.53,299.76 71.66,301.92 72.81,304.01 74.00,306.00" stroke="#3b82b5" stroke-width="1.7" fill="none" stroke-linejoin="round" stroke-linecap="round" /><polyline points="65.36,72.29 67.57,71.34 69.87,70.42 72.25,69.52 74.72,68.64 77.27,67.79 79.90,66.96 82.60,66.16 85.38,65.38 88.23,64.62 91.14,63.89 94.13,63.18 97.18,62.50 100.30,61.84 103.47,61.20 106.71,60.59 110.00,60.00 113.34,59.44 116.74,58.90 120.19,58.38 123.68,57.89 127.22,57.42 130.80,56.98 134.42,56.56 138.08,56.16 141.78,55.79 145.50,55.44 149.27,55.12 153.06,54.82 156.87,54.54 160.72,54.29 164.58,54.06 168.46,53.86 172.37,53.68 176.28,53.52 180.22,53.39 184.16,53.28 188.11,53.20 192.07,53.14 196.03,53.10 200.00,53.09 203.97,53.10 207.93,53.14 211.89,53.20 215.84,53.28 219.78,53.39 223.71,53.52 227.63,53.68 231.54,53.86 235.42,54.06 239.28,54.29 243.13,54.54 246.94,54.82 250.73,55.12 254.50,55.44 258.22,55.79 261.92,56.16 265.58,56.56 269.20,56.98 272.78,57.42 276.32,57.89 279.81,58.38 283.26,58.90 286.66,59.44 290.00,60.00 293.29,60.59 296.52,61.20 299.70,61.84 302.82,62.50 305.87,63.18 308.86,63.89 311.77,64.62 314.62,65.38 317.40,66.16 320.11,66.96 322.73,67.79 325.28,68.64 327.75,69.52 330.13,70.42 332.43,71.34 334.64,72.29" stroke="#3b82b5" stroke-width="1.7" fill="none" stroke-linejoin="round" stroke-linecap="round" /><polyline points="92.29,45.36 91.34,47.57 90.42,49.87 89.52,52.25 88.64,54.72 87.79,57.27 86.96,59.90 86.16,62.60 85.38,65.38 84.62,68.23 83.89,71.14 83.18,74.13 82.50,77.18 81.84,80.30 81.20,83.47 80.59,86.71 80.00,90.00 79.44,93.34 78.90,96.74 78.38,100.19 77.89,103.68 77.42,107.22 76.98,110.80 76.56,114.42 76.16,118.08 75.79,121.78 75.44,125.50 75.12,129.27 74.82,133.06 74.54,136.87 74.29,140.72 74.06,144.58 73.86,148.46 73.68,152.37 73.52,156.28 73.39,160.22 73.28,164.16 73.20,168.11 73.14,172.07 73.10,176.03 73.09,180.00 73.10,183.97 73.14,187.93 73.20,191.89 73.28,195.84 73.39,199.78 73.52,203.71 73.68,207.63 73.86,211.54 74.06,215.42 74.29,219.28 74.54,223.13 74.82,226.94 75.12,230.73 75.44,234.50 75.79,238.22 76.16,241.92 76.56,245.58 76.98,249.20 77.42,252.78 77.89,256.32 78.38,259.81 78.90,263.26 79.44,266.66 80.00,270.00 80.59,273.29 81.20,276.52 81.84,279.70 82.50,282.82 83.18,285.87 83.89,288.86 84.62,291.77 85.38,294.62 86.16,297.40 86.96,300.11 87.79,302.73 88.64,305.28 89.52,307.75 90.42,310.13 91.34,312.43 92.29,314.64" stroke="#3b82b5" stroke-width="1.7" fill="none" stroke-linejoin="round" stroke-linecap="round" /><polyline points="58.64,95.18 61.02,94.47 63.49,93.78 66.04,93.11 68.67,92.45 71.39,91.81 74.18,91.19 77.05,90.58 80.00,90.00 83.02,89.43 86.11,88.88 89.26,88.35 92.48,87.84 95.76,87.34 99.11,86.87 102.51,86.41 105.97,85.97 109.48,85.54 113.05,85.14 116.66,84.75 120.32,84.38 124.03,84.03 127.77,83.70 131.56,83.39 135.39,83.09 139.26,82.81 143.15,82.55 147.08,82.31 151.04,82.08 155.03,81.87 159.03,81.68 163.07,81.51 167.12,81.36 171.19,81.23 175.28,81.11 179.38,81.01 183.49,80.93 187.61,80.87 191.73,80.82 195.87,80.79 200.00,80.78 204.13,80.79 208.27,80.82 212.39,80.87 216.51,80.93 220.62,81.01 224.72,81.11 228.81,81.23 232.88,81.36 236.93,81.51 240.97,81.68 244.97,81.87 248.96,82.08 252.92,82.31 256.85,82.55 260.74,82.81 264.61,83.09 268.44,83.39 272.23,83.70 275.97,84.03 279.68,84.38 283.34,84.75 286.95,85.14 290.52,85.54 294.03,85.97 297.49,86.41 300.89,86.87 304.24,87.34 307.52,87.84 310.74,88.35 313.89,88.88 316.98,89.43 320.00,90.00 322.95,90.58 325.82,91.19 328.61,91.81 331.33,92.45 333.96,93.11 336.51,93.78 338.98,94.47 341.36,95.18" stroke="#3b82b5" stroke-width="1.7" fill="none" stroke-linejoin="round" stroke-linecap="round" /><polyline points="115.18,38.64 114.47,41.02 113.78,43.49 113.11,46.04 112.45,48.67 111.81,51.39 111.19,54.18 110.58,57.05 110.00,60.00 109.43,63.02 108.88,66.11 108.35,69.26 107.84,72.48 107.34,75.76 106.87,79.11 106.41,82.51 105.97,85.97 105.54,89.48 105.14,93.05 104.75,96.66 104.38,100.32 104.03,104.03 103.70,107.77 103.39,111.56 103.09,115.39 102.81,119.26 102.55,123.15 102.31,127.08 102.08,131.04 101.87,135.03 101.68,139.03 101.51,143.07 101.36,147.12 101.23,151.19 101.11,155.28 101.01,159.38 100.93,163.49 100.87,167.61 100.82,171.73 100.79,175.87 100.78,180.00 100.79,184.13 100.82,188.27 100.87,192.39 100.93,196.51 101.01,200.62 101.11,204.72 101.23,208.81 101.36,212.88 101.51,216.93 101.68,220.97 101.87,224.97 102.08,228.96 102.31,232.92 102.55,236.85 102.81,240.74 103.09,244.61 103.39,248.44 103.70,252.23 104.03,255.97 104.38,259.68 104.75,263.34 105.14,266.95 105.54,270.52 105.97,274.03 106.41,277.49 106.87,280.89 107.34,284.24 107.84,287.52 108.35,290.74 108.88,293.89 109.43,296.98 110.00,300.00 110.58,302.95 111.19,305.82 111.81,308.61 112.45,311.33 113.11,313.96 113.78,316.51 114.47,318.98 115.18,321.36" stroke="#3b82b5" stroke-width="1.7" fill="none" stroke-linejoin="round" stroke-linecap="round" /><polyline points="53.84,121.54 56.34,121.06 58.93,120.60 61.60,120.15 64.35,119.71 67.19,119.29 70.10,118.87 73.09,118.47 76.16,118.08 79.30,117.70 82.50,117.34 85.78,116.98 89.12,116.64 92.52,116.31 95.99,115.99 99.51,115.69 103.09,115.39 106.72,115.11 110.40,114.84 114.14,114.58 117.92,114.34 121.75,114.10 125.61,113.88 129.52,113.67 133.47,113.47 137.46,113.29 141.47,113.11 145.52,112.95 149.60,112.80 153.71,112.66 157.84,112.54 161.99,112.42 166.16,112.32 170.35,112.23 174.56,112.15 178.78,112.09 183.01,112.03 187.25,111.99 191.50,111.96 195.75,111.94 200.00,111.94 204.25,111.94 208.50,111.96 212.75,111.99 216.99,112.03 221.22,112.09 225.44,112.15 229.65,112.23 233.84,112.32 238.01,112.42 242.16,112.54 246.29,112.66 250.40,112.80 254.48,112.95 258.53,113.11 262.54,113.29 266.53,113.47 270.48,113.67 274.38,113.88 278.25,114.10 282.08,114.34 285.86,114.58 289.60,114.84 293.28,115.11 296.91,115.39 300.49,115.69 304.01,115.99 307.48,116.31 310.88,116.64 314.22,116.98 317.50,117.34 320.70,117.70 323.84,118.08 326.91,118.47 329.90,118.87 332.81,119.29 335.65,119.71 338.40,120.15 341.07,120.60 343.66,121.06 346.16,121.54" stroke="#3b82b5" stroke-width="1.7" fill="none" stroke-linejoin="round" stroke-linecap="round" /><polyline points="141.54,33.84 141.06,36.34 140.60,38.93 140.15,41.60 139.71,44.35 139.29,47.19 138.87,50.10 138.47,53.09 138.08,56.16 137.70,59.30 137.34,62.50 136.98,65.78 136.64,69.12 136.31,72.52 135.99,75.99 135.69,79.51 135.39,83.09 135.11,86.72 134.84,90.40 134.58,94.14 134.34,97.92 134.10,101.75 133.88,105.61 133.67,109.52 133.47,113.47 133.29,117.46 133.11,121.47 132.95,125.52 132.80,129.60 132.66,133.71 132.54,137.84 132.42,141.99 132.32,146.16 132.23,150.35 132.15,154.56 132.09,158.78 132.03,163.01 131.99,167.25 131.96,171.50 131.94,175.75 131.94,180.00 131.94,184.25 131.96,188.50 131.99,192.75 132.03,196.99 132.09,201.22 132.15,205.44 132.23,209.65 132.32,213.84 132.42,218.01 132.54,222.16 132.66,226.29 132.80,230.40 132.95,234.48 133.11,238.53 133.29,242.54 133.47,246.53 133.67,250.48 133.88,254.38 134.10,258.25 134.34,262.08 134.58,265.86 134.84,269.60 135.11,273.28 135.39,276.91 135.69,280.49 135.99,284.01 136.31,287.48 136.64,290.88 136.98,294.22 137.34,297.50 137.70,300.70 138.08,303.84 138.47,306.91 138.87,309.90 139.29,312.81 139.71,315.65 140.15,318.40 140.60,321.07 141.06,323.66 141.54,326.16" stroke="#3b82b5" stroke-width="1.7" fill="none" stroke-linejoin="round" stroke-linecap="round" /><polyline points="50.96,150.19 53.53,149.95 56.19,149.72 58.93,149.50 61.76,149.28 64.67,149.07 67.66,148.86 70.72,148.66 73.86,148.46 77.07,148.28 80.34,148.09 83.69,147.92 87.10,147.74 90.58,147.58 94.11,147.42 97.71,147.27 101.36,147.12 105.06,146.98 108.82,146.84 112.63,146.72 116.48,146.59 120.38,146.47 124.32,146.36 128.30,146.26 132.32,146.16 136.38,146.07 140.47,145.98 144.59,145.90 148.74,145.82 152.91,145.75 157.12,145.69 161.34,145.63 165.58,145.58 169.85,145.54 174.12,145.50 178.42,145.47 182.72,145.44 187.03,145.42 191.35,145.40 195.67,145.40 200.00,145.39 204.33,145.40 208.65,145.40 212.97,145.42 217.28,145.44 221.58,145.47 225.87,145.50 230.15,145.54 234.42,145.58 238.66,145.63 242.88,145.69 247.09,145.75 251.26,145.82 255.41,145.90 259.54,145.98 263.62,146.07 267.68,146.16 271.70,146.26 275.68,146.36 279.62,146.47 283.52,146.59 287.37,146.72 291.18,146.84 294.94,146.98 298.64,147.12 302.29,147.27 305.88,147.42 309.42,147.58 312.90,147.74 316.31,147.92 319.66,148.09 322.93,148.28 326.14,148.46 329.28,148.66 332.35,148.86 335.33,149.07 338.24,149.28 341.07,149.50 343.81,149.72 346.47,149.95 349.04,150.19" stroke="#3b82b5" stroke-width="1.7" fill="none" stroke-linejoin="round" stroke-linecap="round" /><polyline points="170.19,30.96 169.95,33.53 169.72,36.19 169.50,38.93 169.28,41.76 169.07,44.67 168.86,47.66 168.66,50.72 168.46,53.86 168.28,57.07 168.09,60.34 167.92,63.69 167.74,67.10 167.58,70.58 167.42,74.11 167.27,77.71 167.12,81.36 166.98,85.06 166.84,88.82 166.72,92.63 166.59,96.48 166.47,100.38 166.36,104.32 166.26,108.30 166.16,112.32 166.07,116.38 165.98,120.47 165.90,124.59 165.82,128.74 165.75,132.91 165.69,137.12 165.63,141.34 165.58,145.58 165.54,149.85 165.50,154.12 165.47,158.42 165.44,162.72 165.42,167.03 165.40,171.35 165.40,175.67 165.39,180.00 165.40,184.33 165.40,188.65 165.42,192.97 165.44,197.28 165.47,201.58 165.50,205.87 165.54,210.15 165.58,214.42 165.63,218.66 165.69,222.88 165.75,227.09 165.82,231.26 165.90,235.41 165.98,239.54 166.07,243.62 166.16,247.68 166.26,251.70 166.36,255.68 166.47,259.62 166.59,263.52 166.72,267.37 166.84,271.18 166.98,274.94 167.12,278.64 167.27,282.29 167.42,285.88 167.58,289.42 167.74,292.90 167.92,296.31 168.09,299.66 168.28,302.93 168.46,306.14 168.66,309.28 168.86,312.35 169.07,315.33 169.28,318.24 169.50,321.07 169.72,323.81 169.95,326.47 170.19,329.04" stroke="#3b82b5" stroke-width="1.7" fill="none" stroke-linejoin="round" stroke-linecap="round" /><polyline points="50.00,180.00 52.59,180.00 55.28,180.00 58.04,180.00 60.90,180.00 63.83,180.00 66.84,180.00 69.93,180.00 73.09,180.00 76.32,180.00 79.62,180.00 83.00,180.00 86.43,180.00 89.93,180.00 93.49,180.00 97.11,180.00 100.78,180.00 104.51,180.00 108.29,180.00 112.12,180.00 116.00,180.00 119.92,180.00 123.89,180.00 127.89,180.00 131.94,180.00 136.02,180.00 140.13,180.00 144.27,180.00 148.45,180.00 152.65,180.00 156.88,180.00 161.12,180.00 165.39,180.00 169.68,180.00 173.98,180.00 178.30,180.00 182.62,180.00 186.96,180.00 191.30,180.00 195.65,180.00 200.00,180.00 204.35,180.00 208.70,180.00 213.04,180.00 217.38,180.00 221.70,180.00 226.02,180.00 230.32,180.00 234.61,180.00 238.88,180.00 243.12,180.00 247.35,180.00 251.55,180.00 255.73,180.00 259.87,180.00 263.98,180.00 268.06,180.00 272.11,180.00 276.11,180.00 280.08,180.00 284.00,180.00 287.88,180.00 291.71,180.00 295.49,180.00 299.22,180.00 302.89,180.00 306.51,180.00 310.07,180.00 313.57,180.00 317.00,180.00 320.38,180.00 323.68,180.00 326.91,180.00 330.07,180.00 333.16,180.00 336.17,180.00 339.10,180.00 341.96,180.00 344.72,180.00 347.41,180.00 350.00,180.00" stroke="#3b82b5" stroke-width="1.7" fill="none" stroke-linejoin="round" stroke-linecap="round" /><polyline points="200.00,30.00 200.00,32.59 200.00,35.28 200.00,38.04 200.00,40.90 200.00,43.83 200.00,46.84 200.00,49.93 200.00,53.09 200.00,56.32 200.00,59.62 200.00,63.00 200.00,66.43 200.00,69.93 200.00,73.49 200.00,77.11 200.00,80.78 200.00,84.51 200.00,88.29 200.00,92.12 200.00,96.00 200.00,99.92 200.00,103.89 200.00,107.89 200.00,111.94 200.00,116.02 200.00,120.13 200.00,124.27 200.00,128.45 200.00,132.65 200.00,136.88 200.00,141.12 200.00,145.39 200.00,149.68 200.00,153.98 200.00,158.30 200.00,162.62 200.00,166.96 200.00,171.30 200.00,175.65 200.00,180.00 200.00,184.35 200.00,188.70 200.00,193.04 200.00,197.38 200.00,201.70 200.00,206.02 200.00,210.32 200.00,214.61 200.00,218.88 200.00,223.12 200.00,227.35 200.00,231.55 200.00,235.73 200.00,239.87 200.00,243.98 200.00,248.06 200.00,252.11 200.00,256.11 200.00,260.08 200.00,264.00 200.00,267.88 200.00,271.71 200.00,275.49 200.00,279.22 200.00,282.89 200.00,286.51 200.00,290.07 200.00,293.57 200.00,297.00 200.00,300.38 200.00,303.68 200.00,306.91 200.00,310.07 200.00,313.16 200.00,316.17 200.00,319.10 200.00,321.96 200.00,324.72 200.00,327.41 200.00,330.00" stroke="#3b82b5" stroke-width="1.7" fill="none" stroke-linejoin="round" stroke-linecap="round" /><polyline points="50.96,209.81 53.53,210.05 56.19,210.28 58.93,210.50 61.76,210.72 64.67,210.93 67.66,211.14 70.72,211.34 73.86,211.54 77.07,211.72 80.34,211.91 83.69,212.08 87.10,212.26 90.58,212.42 94.11,212.58 97.71,212.73 101.36,212.88 105.06,213.02 108.82,213.16 112.63,213.28 116.48,213.41 120.38,213.53 124.32,213.64 128.30,213.74 132.32,213.84 136.38,213.93 140.47,214.02 144.59,214.10 148.74,214.18 152.91,214.25 157.12,214.31 161.34,214.37 165.58,214.42 169.85,214.46 174.12,214.50 178.42,214.53 182.72,214.56 187.03,214.58 191.35,214.60 195.67,214.60 200.00,214.61 204.33,214.60 208.65,214.60 212.97,214.58 217.28,214.56 221.58,214.53 225.87,214.50 230.15,214.46 234.42,214.42 238.66,214.37 242.88,214.31 247.09,214.25 251.26,214.18 255.41,214.10 259.54,214.02 263.62,213.93 267.68,213.84 271.70,213.74 275.68,213.64 279.62,213.53 283.52,213.41 287.37,213.28 291.18,213.16 294.94,213.02 298.64,212.88 302.29,212.73 305.88,212.58 309.42,212.42 312.90,212.26 316.31,212.08 319.66,211.91 322.93,211.72 326.14,211.54 329.28,211.34 332.35,211.14 335.33,210.93 338.24,210.72 341.07,210.50 343.81,210.28 346.47,210.05 349.04,209.81" stroke="#3b82b5" stroke-width="1.7" fill="none" stroke-linejoin="round" stroke-linecap="round" /><polyline points="229.81,30.96 230.05,33.53 230.28,36.19 230.50,38.93 230.72,41.76 230.93,44.67 231.14,47.66 231.34,50.72 231.54,53.86 231.72,57.07 231.91,60.34 232.08,63.69 232.26,67.10 232.42,70.58 232.58,74.11 232.73,77.71 232.88,81.36 233.02,85.06 233.16,88.82 233.28,92.63 233.41,96.48 233.53,100.38 233.64,104.32 233.74,108.30 233.84,112.32 233.93,116.38 234.02,120.47 234.10,124.59 234.18,128.74 234.25,132.91 234.31,137.12 234.37,141.34 234.42,145.58 234.46,149.85 234.50,154.12 234.53,158.42 234.56,162.72 234.58,167.03 234.60,171.35 234.60,175.67 234.61,180.00 234.60,184.33 234.60,188.65 234.58,192.97 234.56,197.28 234.53,201.58 234.50,205.87 234.46,210.15 234.42,214.42 234.37,218.66 234.31,222.88 234.25,227.09 234.18,231.26 234.10,235.41 234.02,239.54 233.93,243.62 233.84,247.68 233.74,251.70 233.64,255.68 233.53,259.62 233.41,263.52 233.28,267.37 233.16,271.18 233.02,274.94 232.88,278.64 232.73,282.29 232.58,285.88 232.42,289.42 232.26,292.90 232.08,296.31 231.91,299.66 231.72,302.93 231.54,306.14 231.34,309.28 231.14,312.35 230.93,315.33 230.72,318.24 230.50,321.07 230.28,323.81 230.05,326.47 229.81,329.04" stroke="#3b82b5" stroke-width="1.7" fill="none" stroke-linejoin="round" stroke-linecap="round" /><polyline points="53.84,238.46 56.34,238.94 58.93,239.40 61.60,239.85 64.35,240.29 67.19,240.71 70.10,241.13 73.09,241.53 76.16,241.92 79.30,242.30 82.50,242.66 85.78,243.02 89.12,243.36 92.52,243.69 95.99,244.01 99.51,244.31 103.09,244.61 106.72,244.89 110.40,245.16 114.14,245.42 117.92,245.66 121.75,245.90 125.61,246.12 129.52,246.33 133.47,246.53 137.46,246.71 141.47,246.89 145.52,247.05 149.60,247.20 153.71,247.34 157.84,247.46 161.99,247.58 166.16,247.68 170.35,247.77 174.56,247.85 178.78,247.91 183.01,247.97 187.25,248.01 191.50,248.04 195.75,248.06 200.00,248.06 204.25,248.06 208.50,248.04 212.75,248.01 216.99,247.97 221.22,247.91 225.44,247.85 229.65,247.77 233.84,247.68 238.01,247.58 242.16,247.46 246.29,247.34 250.40,247.20 254.48,247.05 258.53,246.89 262.54,246.71 266.53,246.53 270.48,246.33 274.38,246.12 278.25,245.90 282.08,245.66 285.86,245.42 289.60,245.16 293.28,244.89 296.91,244.61 300.49,244.31 304.01,244.01 307.48,243.69 310.88,243.36 314.22,243.02 317.50,242.66 320.70,242.30 323.84,241.92 326.91,241.53 329.90,241.13 332.81,240.71 335.65,240.29 338.40,239.85 341.07,239.40 343.66,238.94 346.16,238.46" stroke="#3b82b5" stroke-width="1.7" fill="none" stroke-linejoin="round" stroke-linecap="round" /><polyline points="258.46,33.84 258.94,36.34 259.40,38.93 259.85,41.60 260.29,44.35 260.71,47.19 261.13,50.10 261.53,53.09 261.92,56.16 262.30,59.30 262.66,62.50 263.02,65.78 263.36,69.12 263.69,72.52 264.01,75.99 264.31,79.51 264.61,83.09 264.89,86.72 265.16,90.40 265.42,94.14 265.66,97.92 265.90,101.75 266.12,105.61 266.33,109.52 266.53,113.47 266.71,117.46 266.89,121.47 267.05,125.52 267.20,129.60 267.34,133.71 267.46,137.84 267.58,141.99 267.68,146.16 267.77,150.35 267.85,154.56 267.91,158.78 267.97,163.01 268.01,167.25 268.04,171.50 268.06,175.75 268.06,180.00 268.06,184.25 268.04,188.50 268.01,192.75 267.97,196.99 267.91,201.22 267.85,205.44 267.77,209.65 267.68,213.84 267.58,218.01 267.46,222.16 267.34,226.29 267.20,230.40 267.05,234.48 266.89,238.53 266.71,242.54 266.53,246.53 266.33,250.48 266.12,254.38 265.90,258.25 265.66,262.08 265.42,265.86 265.16,269.60 264.89,273.28 264.61,276.91 264.31,280.49 264.01,284.01 263.69,287.48 263.36,290.88 263.02,294.22 262.66,297.50 262.30,300.70 261.92,303.84 261.53,306.91 261.13,309.90 260.71,312.81 260.29,315.65 259.85,318.40 259.40,321.07 258.94,323.66 258.46,326.16" stroke="#3b82b5" stroke-width="1.7" fill="none" stroke-linejoin="round" stroke-linecap="round" /><polyline points="58.64,264.82 61.02,265.53 63.49,266.22 66.04,266.89 68.67,267.55 71.39,268.19 74.18,268.81 77.05,269.42 80.00,270.00 83.02,270.57 86.11,271.12 89.26,271.65 92.48,272.16 95.76,272.65 99.11,273.13 102.51,273.59 105.97,274.03 109.48,274.46 113.05,274.86 116.66,275.25 120.32,275.62 124.03,275.97 127.77,276.30 131.56,276.62 135.39,276.91 139.26,277.19 143.15,277.45 147.08,277.69 151.04,277.92 155.03,278.13 159.03,278.32 163.07,278.49 167.12,278.64 171.19,278.77 175.28,278.89 179.38,278.99 183.49,279.07 187.61,279.13 191.73,279.18 195.87,279.21 200.00,279.22 204.13,279.21 208.27,279.18 212.39,279.13 216.51,279.07 220.62,278.99 224.72,278.89 228.81,278.77 232.88,278.64 236.93,278.49 240.97,278.32 244.97,278.13 248.96,277.92 252.92,277.69 256.85,277.45 260.74,277.19 264.61,276.91 268.44,276.62 272.23,276.30 275.97,275.97 279.68,275.62 283.34,275.25 286.95,274.86 290.52,274.46 294.03,274.03 297.49,273.59 300.89,273.13 304.24,272.65 307.52,272.16 310.74,271.65 313.89,271.12 316.98,270.57 320.00,270.00 322.95,269.42 325.82,268.81 328.61,268.19 331.33,267.55 333.96,266.89 336.51,266.22 338.98,265.53 341.36,264.82" stroke="#3b82b5" stroke-width="1.7" fill="none" stroke-linejoin="round" stroke-linecap="round" /><polyline points="284.82,38.64 285.53,41.02 286.22,43.49 286.89,46.04 287.55,48.67 288.19,51.39 288.81,54.18 289.42,57.05 290.00,60.00 290.57,63.02 291.12,66.11 291.65,69.26 292.16,72.48 292.65,75.76 293.13,79.11 293.59,82.51 294.03,85.97 294.46,89.48 294.86,93.05 295.25,96.66 295.62,100.32 295.97,104.03 296.30,107.77 296.62,111.56 296.91,115.39 297.19,119.26 297.45,123.15 297.69,127.08 297.92,131.04 298.13,135.03 298.32,139.03 298.49,143.07 298.64,147.12 298.77,151.19 298.89,155.28 298.99,159.38 299.07,163.49 299.13,167.61 299.18,171.73 299.21,175.87 299.22,180.00 299.21,184.13 299.18,188.27 299.13,192.39 299.07,196.51 298.99,200.62 298.89,204.72 298.77,208.81 298.64,212.88 298.49,216.93 298.32,220.97 298.13,224.97 297.92,228.96 297.69,232.92 297.45,236.85 297.19,240.74 296.91,244.61 296.62,248.44 296.30,252.23 295.97,255.97 295.62,259.68 295.25,263.34 294.86,266.95 294.46,270.52 294.03,274.03 293.59,277.49 293.13,280.89 292.65,284.24 292.16,287.52 291.65,290.74 291.12,293.89 290.57,296.98 290.00,300.00 289.42,302.95 288.81,305.82 288.19,308.61 287.55,311.33 286.89,313.96 286.22,316.51 285.53,318.98 284.82,321.36" stroke="#3b82b5" stroke-width="1.7" fill="none" stroke-linejoin="round" stroke-linecap="round" /><polyline points="65.36,287.71 67.57,288.66 69.87,289.58 72.25,290.48 74.72,291.36 77.27,292.21 79.90,293.04 82.60,293.84 85.38,294.62 88.23,295.38 91.14,296.11 94.13,296.82 97.18,297.50 100.30,298.16 103.47,298.80 106.71,299.41 110.00,300.00 113.34,300.56 116.74,301.10 120.19,301.62 123.68,302.11 127.22,302.58 130.80,303.02 134.42,303.44 138.08,303.84 141.78,304.21 145.50,304.56 149.27,304.88 153.06,305.18 156.87,305.46 160.72,305.71 164.58,305.94 168.46,306.14 172.37,306.32 176.28,306.48 180.22,306.61 184.16,306.72 188.11,306.80 192.07,306.86 196.03,306.90 200.00,306.91 203.97,306.90 207.93,306.86 211.89,306.80 215.84,306.72 219.78,306.61 223.71,306.48 227.63,306.32 231.54,306.14 235.42,305.94 239.28,305.71 243.13,305.46 246.94,305.18 250.73,304.88 254.50,304.56 258.22,304.21 261.92,303.84 265.58,303.44 269.20,303.02 272.78,302.58 276.32,302.11 279.81,301.62 283.26,301.10 286.66,300.56 290.00,300.00 293.29,299.41 296.52,298.80 299.70,298.16 302.82,297.50 305.87,296.82 308.86,296.11 311.77,295.38 314.62,294.62 317.40,293.84 320.11,293.04 322.73,292.21 325.28,291.36 327.75,290.48 330.13,289.58 332.43,288.66 334.64,287.71" stroke="#3b82b5" stroke-width="1.7" fill="none" stroke-linejoin="round" stroke-linecap="round" /><polyline points="307.71,45.36 308.66,47.57 309.58,49.87 310.48,52.25 311.36,54.72 312.21,57.27 313.04,59.90 313.84,62.60 314.62,65.38 315.38,68.23 316.11,71.14 316.82,74.13 317.50,77.18 318.16,80.30 318.80,83.47 319.41,86.71 320.00,90.00 320.56,93.34 321.10,96.74 321.62,100.19 322.11,103.68 322.58,107.22 323.02,110.80 323.44,114.42 323.84,118.08 324.21,121.78 324.56,125.50 324.88,129.27 325.18,133.06 325.46,136.87 325.71,140.72 325.94,144.58 326.14,148.46 326.32,152.37 326.48,156.28 326.61,160.22 326.72,164.16 326.80,168.11 326.86,172.07 326.90,176.03 326.91,180.00 326.90,183.97 326.86,187.93 326.80,191.89 326.72,195.84 326.61,199.78 326.48,203.71 326.32,207.63 326.14,211.54 325.94,215.42 325.71,219.28 325.46,223.13 325.18,226.94 324.88,230.73 324.56,234.50 324.21,238.22 323.84,241.92 323.44,245.58 323.02,249.20 322.58,252.78 322.11,256.32 321.62,259.81 321.10,263.26 320.56,266.66 320.00,270.00 319.41,273.29 318.80,276.52 318.16,279.70 317.50,282.82 316.82,285.87 316.11,288.86 315.38,291.77 314.62,294.62 313.84,297.40 313.04,300.11 312.21,302.73 311.36,305.28 310.48,307.75 309.58,310.13 308.66,312.43 307.71,314.64" stroke="#3b82b5" stroke-width="1.7" fill="none" stroke-linejoin="round" stroke-linecap="round" /><polyline points="74.00,306.00 75.99,307.19 78.08,308.34 80.24,309.47 82.50,310.56 84.83,311.62 87.24,312.66 89.73,313.66 92.29,314.64 94.92,315.59 97.62,316.50 100.40,317.38 103.23,318.24 106.13,319.06 109.09,319.86 112.11,320.62 115.18,321.36 118.31,322.06 121.49,322.74 124.72,323.38 128.00,324.00 131.32,324.59 134.69,325.14 138.09,325.66 141.54,326.16 145.02,326.62 148.53,327.06 152.07,327.47 155.65,327.84 159.25,328.19 162.88,328.50 166.52,328.78 170.19,329.04 173.88,329.26 177.58,329.46 181.30,329.62 185.02,329.76 188.76,329.87 192.50,329.94 196.25,329.99 200.00,330.00 203.75,329.99 207.50,329.94 211.24,329.87 214.98,329.76 218.70,329.62 222.42,329.46 226.12,329.26 229.81,329.04 233.48,328.78 237.12,328.50 240.75,328.19 244.35,327.84 247.93,327.47 251.47,327.06 254.98,326.62 258.46,326.16 261.91,325.66 265.31,325.14 268.68,324.59 272.00,324.00 275.28,323.38 278.51,322.74 281.69,322.06 284.82,321.36 287.89,320.62 290.91,319.86 293.87,319.06 296.77,318.24 299.60,317.38 302.38,316.50 305.08,315.59 307.71,314.64 310.27,313.66 312.76,312.66 315.17,311.62 317.50,310.56 319.76,309.47 321.92,308.34 324.01,307.19 326.00,306.00" stroke="#3b82b5" stroke-width="1.7" fill="none" stroke-linejoin="round" stroke-linecap="round" /><polyline points="326.00,54.00 327.19,55.99 328.34,58.08 329.47,60.24 330.56,62.50 331.62,64.83 332.66,67.24 333.66,69.73 334.64,72.29 335.59,74.92 336.50,77.62 337.38,80.40 338.24,83.23 339.06,86.13 339.86,89.09 340.62,92.11 341.36,95.18 342.06,98.31 342.74,101.49 343.38,104.72 344.00,108.00 344.59,111.32 345.14,114.69 345.66,118.09 346.16,121.54 346.62,125.02 347.06,128.53 347.47,132.07 347.84,135.65 348.19,139.25 348.50,142.88 348.78,146.52 349.04,150.19 349.26,153.88 349.46,157.58 349.62,161.30 349.76,165.02 349.87,168.76 349.94,172.50 349.99,176.25 350.00,180.00 349.99,183.75 349.94,187.50 349.87,191.24 349.76,194.98 349.62,198.70 349.46,202.42 349.26,206.12 349.04,209.81 348.78,213.48 348.50,217.12 348.19,220.75 347.84,224.35 347.47,227.93 347.06,231.47 346.62,234.98 346.16,238.46 345.66,241.91 345.14,245.31 344.59,248.68 344.00,252.00 343.38,255.28 342.74,258.51 342.06,261.69 341.36,264.82 340.62,267.89 339.86,270.91 339.06,273.87 338.24,276.77 337.38,279.60 336.50,282.38 335.59,285.08 334.64,287.71 333.66,290.27 332.66,292.76 331.62,295.17 330.56,297.50 329.47,299.76 328.34,301.92 327.19,304.01 326.00,306.00" stroke="#3b82b5" stroke-width="1.7" fill="none" stroke-linejoin="round" stroke-linecap="round" /><circle cx="200" cy="180" r="5" fill="#102a43" /><text x="200" y="370" text-anchor="middle" font-family="Source Han Sans SC, Microsoft YaHei, sans-serif" font-size="24" font-weight="700" fill="#3b82b5">桶形（负系数）</text><rect x="440.0" y="20.0" width="320" height="320" fill="#ffffff" stroke="#b8c7d1" stroke-width="2" /><polyline points="450.00,30.00 453.75,30.00 457.50,30.00 461.25,30.00 465.00,30.00 468.75,30.00 472.50,30.00 476.25,30.00 480.00,30.00 483.75,30.00 487.50,30.00 491.25,30.00 495.00,30.00 498.75,30.00 502.50,30.00 506.25,30.00 510.00,30.00 513.75,30.00 517.50,30.00 521.25,30.00 525.00,30.00 528.75,30.00 532.50,30.00 536.25,30.00 540.00,30.00 543.75,30.00 547.50,30.00 551.25,30.00 555.00,30.00 558.75,30.00 562.50,30.00 566.25,30.00 570.00,30.00 573.75,30.00 577.50,30.00 581.25,30.00 585.00,30.00 588.75,30.00 592.50,30.00 596.25,30.00 600.00,30.00 603.75,30.00 607.50,30.00 611.25,30.00 615.00,30.00 618.75,30.00 622.50,30.00 626.25,30.00 630.00,30.00 633.75,30.00 637.50,30.00 641.25,30.00 645.00,30.00 648.75,30.00 652.50,30.00 656.25,30.00 660.00,30.00 663.75,30.00 667.50,30.00 671.25,30.00 675.00,30.00 678.75,30.00 682.50,30.00 686.25,30.00 690.00,30.00 693.75,30.00 697.50,30.00 701.25,30.00 705.00,30.00 708.75,30.00 712.50,30.00 716.25,30.00 720.00,30.00 723.75,30.00 727.50,30.00 731.25,30.00 735.00,30.00 738.75,30.00 742.50,30.00 746.25,30.00 750.00,30.00" stroke="#4d8c6a" stroke-width="1.7" fill="none" stroke-linejoin="round" stroke-linecap="round" /><polyline points="450.00,30.00 450.00,33.75 450.00,37.50 450.00,41.25 450.00,45.00 450.00,48.75 450.00,52.50 450.00,56.25 450.00,60.00 450.00,63.75 450.00,67.50 450.00,71.25 450.00,75.00 450.00,78.75 450.00,82.50 450.00,86.25 450.00,90.00 450.00,93.75 450.00,97.50 450.00,101.25 450.00,105.00 450.00,108.75 450.00,112.50 450.00,116.25 450.00,120.00 450.00,123.75 450.00,127.50 450.00,131.25 450.00,135.00 450.00,138.75 450.00,142.50 450.00,146.25 450.00,150.00 450.00,153.75 450.00,157.50 450.00,161.25 450.00,165.00 450.00,168.75 450.00,172.50 450.00,176.25 450.00,180.00 450.00,183.75 450.00,187.50 450.00,191.25 450.00,195.00 450.00,198.75 450.00,202.50 450.00,206.25 450.00,210.00 450.00,213.75 450.00,217.50 450.00,221.25 450.00,225.00 450.00,228.75 450.00,232.50 450.00,236.25 450.00,240.00 450.00,243.75 450.00,247.50 450.00,251.25 450.00,255.00 450.00,258.75 450.00,262.50 450.00,266.25 450.00,270.00 450.00,273.75 450.00,277.50 450.00,281.25 450.00,285.00 450.00,288.75 450.00,292.50 450.00,296.25 450.00,300.00 450.00,303.75 450.00,307.50 450.00,311.25 450.00,315.00 450.00,318.75 450.00,322.50 450.00,326.25 450.00,330.00" stroke="#4d8c6a" stroke-width="1.7" fill="none" stroke-linejoin="round" stroke-linecap="round" /><polyline points="450.00,60.00 453.75,60.00 457.50,60.00 461.25,60.00 465.00,60.00 468.75,60.00 472.50,60.00 476.25,60.00 480.00,60.00 483.75,60.00 487.50,60.00 491.25,60.00 495.00,60.00 498.75,60.00 502.50,60.00 506.25,60.00 510.00,60.00 513.75,60.00 517.50,60.00 521.25,60.00 525.00,60.00 528.75,60.00 532.50,60.00 536.25,60.00 540.00,60.00 543.75,60.00 547.50,60.00 551.25,60.00 555.00,60.00 558.75,60.00 562.50,60.00 566.25,60.00 570.00,60.00 573.75,60.00 577.50,60.00 581.25,60.00 585.00,60.00 588.75,60.00 592.50,60.00 596.25,60.00 600.00,60.00 603.75,60.00 607.50,60.00 611.25,60.00 615.00,60.00 618.75,60.00 622.50,60.00 626.25,60.00 630.00,60.00 633.75,60.00 637.50,60.00 641.25,60.00 645.00,60.00 648.75,60.00 652.50,60.00 656.25,60.00 660.00,60.00 663.75,60.00 667.50,60.00 671.25,60.00 675.00,60.00 678.75,60.00 682.50,60.00 686.25,60.00 690.00,60.00 693.75,60.00 697.50,60.00 701.25,60.00 705.00,60.00 708.75,60.00 712.50,60.00 716.25,60.00 720.00,60.00 723.75,60.00 727.50,60.00 731.25,60.00 735.00,60.00 738.75,60.00 742.50,60.00 746.25,60.00 750.00,60.00" stroke="#4d8c6a" stroke-width="1.7" fill="none" stroke-linejoin="round" stroke-linecap="round" /><polyline points="480.00,30.00 480.00,33.75 480.00,37.50 480.00,41.25 480.00,45.00 480.00,48.75 480.00,52.50 480.00,56.25 480.00,60.00 480.00,63.75 480.00,67.50 480.00,71.25 480.00,75.00 480.00,78.75 480.00,82.50 480.00,86.25 480.00,90.00 480.00,93.75 480.00,97.50 480.00,101.25 480.00,105.00 480.00,108.75 480.00,112.50 480.00,116.25 480.00,120.00 480.00,123.75 480.00,127.50 480.00,131.25 480.00,135.00 480.00,138.75 480.00,142.50 480.00,146.25 480.00,150.00 480.00,153.75 480.00,157.50 480.00,161.25 480.00,165.00 480.00,168.75 480.00,172.50 480.00,176.25 480.00,180.00 480.00,183.75 480.00,187.50 480.00,191.25 480.00,195.00 480.00,198.75 480.00,202.50 480.00,206.25 480.00,210.00 480.00,213.75 480.00,217.50 480.00,221.25 480.00,225.00 480.00,228.75 480.00,232.50 480.00,236.25 480.00,240.00 480.00,243.75 480.00,247.50 480.00,251.25 480.00,255.00 480.00,258.75 480.00,262.50 480.00,266.25 480.00,270.00 480.00,273.75 480.00,277.50 480.00,281.25 480.00,285.00 480.00,288.75 480.00,292.50 480.00,296.25 480.00,300.00 480.00,303.75 480.00,307.50 480.00,311.25 480.00,315.00 480.00,318.75 480.00,322.50 480.00,326.25 480.00,330.00" stroke="#4d8c6a" stroke-width="1.7" fill="none" stroke-linejoin="round" stroke-linecap="round" /><polyline points="450.00,90.00 453.75,90.00 457.50,90.00 461.25,90.00 465.00,90.00 468.75,90.00 472.50,90.00 476.25,90.00 480.00,90.00 483.75,90.00 487.50,90.00 491.25,90.00 495.00,90.00 498.75,90.00 502.50,90.00 506.25,90.00 510.00,90.00 513.75,90.00 517.50,90.00 521.25,90.00 525.00,90.00 528.75,90.00 532.50,90.00 536.25,90.00 540.00,90.00 543.75,90.00 547.50,90.00 551.25,90.00 555.00,90.00 558.75,90.00 562.50,90.00 566.25,90.00 570.00,90.00 573.75,90.00 577.50,90.00 581.25,90.00 585.00,90.00 588.75,90.00 592.50,90.00 596.25,90.00 600.00,90.00 603.75,90.00 607.50,90.00 611.25,90.00 615.00,90.00 618.75,90.00 622.50,90.00 626.25,90.00 630.00,90.00 633.75,90.00 637.50,90.00 641.25,90.00 645.00,90.00 648.75,90.00 652.50,90.00 656.25,90.00 660.00,90.00 663.75,90.00 667.50,90.00 671.25,90.00 675.00,90.00 678.75,90.00 682.50,90.00 686.25,90.00 690.00,90.00 693.75,90.00 697.50,90.00 701.25,90.00 705.00,90.00 708.75,90.00 712.50,90.00 716.25,90.00 720.00,90.00 723.75,90.00 727.50,90.00 731.25,90.00 735.00,90.00 738.75,90.00 742.50,90.00 746.25,90.00 750.00,90.00" stroke="#4d8c6a" stroke-width="1.7" fill="none" stroke-linejoin="round" stroke-linecap="round" /><polyline points="510.00,30.00 510.00,33.75 510.00,37.50 510.00,41.25 510.00,45.00 510.00,48.75 510.00,52.50 510.00,56.25 510.00,60.00 510.00,63.75 510.00,67.50 510.00,71.25 510.00,75.00 510.00,78.75 510.00,82.50 510.00,86.25 510.00,90.00 510.00,93.75 510.00,97.50 510.00,101.25 510.00,105.00 510.00,108.75 510.00,112.50 510.00,116.25 510.00,120.00 510.00,123.75 510.00,127.50 510.00,131.25 510.00,135.00 510.00,138.75 510.00,142.50 510.00,146.25 510.00,150.00 510.00,153.75 510.00,157.50 510.00,161.25 510.00,165.00 510.00,168.75 510.00,172.50 510.00,176.25 510.00,180.00 510.00,183.75 510.00,187.50 510.00,191.25 510.00,195.00 510.00,198.75 510.00,202.50 510.00,206.25 510.00,210.00 510.00,213.75 510.00,217.50 510.00,221.25 510.00,225.00 510.00,228.75 510.00,232.50 510.00,236.25 510.00,240.00 510.00,243.75 510.00,247.50 510.00,251.25 510.00,255.00 510.00,258.75 510.00,262.50 510.00,266.25 510.00,270.00 510.00,273.75 510.00,277.50 510.00,281.25 510.00,285.00 510.00,288.75 510.00,292.50 510.00,296.25 510.00,300.00 510.00,303.75 510.00,307.50 510.00,311.25 510.00,315.00 510.00,318.75 510.00,322.50 510.00,326.25 510.00,330.00" stroke="#4d8c6a" stroke-width="1.7" fill="none" stroke-linejoin="round" stroke-linecap="round" /><polyline points="450.00,120.00 453.75,120.00 457.50,120.00 461.25,120.00 465.00,120.00 468.75,120.00 472.50,120.00 476.25,120.00 480.00,120.00 483.75,120.00 487.50,120.00 491.25,120.00 495.00,120.00 498.75,120.00 502.50,120.00 506.25,120.00 510.00,120.00 513.75,120.00 517.50,120.00 521.25,120.00 525.00,120.00 528.75,120.00 532.50,120.00 536.25,120.00 540.00,120.00 543.75,120.00 547.50,120.00 551.25,120.00 555.00,120.00 558.75,120.00 562.50,120.00 566.25,120.00 570.00,120.00 573.75,120.00 577.50,120.00 581.25,120.00 585.00,120.00 588.75,120.00 592.50,120.00 596.25,120.00 600.00,120.00 603.75,120.00 607.50,120.00 611.25,120.00 615.00,120.00 618.75,120.00 622.50,120.00 626.25,120.00 630.00,120.00 633.75,120.00 637.50,120.00 641.25,120.00 645.00,120.00 648.75,120.00 652.50,120.00 656.25,120.00 660.00,120.00 663.75,120.00 667.50,120.00 671.25,120.00 675.00,120.00 678.75,120.00 682.50,120.00 686.25,120.00 690.00,120.00 693.75,120.00 697.50,120.00 701.25,120.00 705.00,120.00 708.75,120.00 712.50,120.00 716.25,120.00 720.00,120.00 723.75,120.00 727.50,120.00 731.25,120.00 735.00,120.00 738.75,120.00 742.50,120.00 746.25,120.00 750.00,120.00" stroke="#4d8c6a" stroke-width="1.7" fill="none" stroke-linejoin="round" stroke-linecap="round" /><polyline points="540.00,30.00 540.00,33.75 540.00,37.50 540.00,41.25 540.00,45.00 540.00,48.75 540.00,52.50 540.00,56.25 540.00,60.00 540.00,63.75 540.00,67.50 540.00,71.25 540.00,75.00 540.00,78.75 540.00,82.50 540.00,86.25 540.00,90.00 540.00,93.75 540.00,97.50 540.00,101.25 540.00,105.00 540.00,108.75 540.00,112.50 540.00,116.25 540.00,120.00 540.00,123.75 540.00,127.50 540.00,131.25 540.00,135.00 540.00,138.75 540.00,142.50 540.00,146.25 540.00,150.00 540.00,153.75 540.00,157.50 540.00,161.25 540.00,165.00 540.00,168.75 540.00,172.50 540.00,176.25 540.00,180.00 540.00,183.75 540.00,187.50 540.00,191.25 540.00,195.00 540.00,198.75 540.00,202.50 540.00,206.25 540.00,210.00 540.00,213.75 540.00,217.50 540.00,221.25 540.00,225.00 540.00,228.75 540.00,232.50 540.00,236.25 540.00,240.00 540.00,243.75 540.00,247.50 540.00,251.25 540.00,255.00 540.00,258.75 540.00,262.50 540.00,266.25 540.00,270.00 540.00,273.75 540.00,277.50 540.00,281.25 540.00,285.00 540.00,288.75 540.00,292.50 540.00,296.25 540.00,300.00 540.00,303.75 540.00,307.50 540.00,311.25 540.00,315.00 540.00,318.75 540.00,322.50 540.00,326.25 540.00,330.00" stroke="#4d8c6a" stroke-width="1.7" fill="none" stroke-linejoin="round" stroke-linecap="round" /><polyline points="450.00,150.00 453.75,150.00 457.50,150.00 461.25,150.00 465.00,150.00 468.75,150.00 472.50,150.00 476.25,150.00 480.00,150.00 483.75,150.00 487.50,150.00 491.25,150.00 495.00,150.00 498.75,150.00 502.50,150.00 506.25,150.00 510.00,150.00 513.75,150.00 517.50,150.00 521.25,150.00 525.00,150.00 528.75,150.00 532.50,150.00 536.25,150.00 540.00,150.00 543.75,150.00 547.50,150.00 551.25,150.00 555.00,150.00 558.75,150.00 562.50,150.00 566.25,150.00 570.00,150.00 573.75,150.00 577.50,150.00 581.25,150.00 585.00,150.00 588.75,150.00 592.50,150.00 596.25,150.00 600.00,150.00 603.75,150.00 607.50,150.00 611.25,150.00 615.00,150.00 618.75,150.00 622.50,150.00 626.25,150.00 630.00,150.00 633.75,150.00 637.50,150.00 641.25,150.00 645.00,150.00 648.75,150.00 652.50,150.00 656.25,150.00 660.00,150.00 663.75,150.00 667.50,150.00 671.25,150.00 675.00,150.00 678.75,150.00 682.50,150.00 686.25,150.00 690.00,150.00 693.75,150.00 697.50,150.00 701.25,150.00 705.00,150.00 708.75,150.00 712.50,150.00 716.25,150.00 720.00,150.00 723.75,150.00 727.50,150.00 731.25,150.00 735.00,150.00 738.75,150.00 742.50,150.00 746.25,150.00 750.00,150.00" stroke="#4d8c6a" stroke-width="1.7" fill="none" stroke-linejoin="round" stroke-linecap="round" /><polyline points="570.00,30.00 570.00,33.75 570.00,37.50 570.00,41.25 570.00,45.00 570.00,48.75 570.00,52.50 570.00,56.25 570.00,60.00 570.00,63.75 570.00,67.50 570.00,71.25 570.00,75.00 570.00,78.75 570.00,82.50 570.00,86.25 570.00,90.00 570.00,93.75 570.00,97.50 570.00,101.25 570.00,105.00 570.00,108.75 570.00,112.50 570.00,116.25 570.00,120.00 570.00,123.75 570.00,127.50 570.00,131.25 570.00,135.00 570.00,138.75 570.00,142.50 570.00,146.25 570.00,150.00 570.00,153.75 570.00,157.50 570.00,161.25 570.00,165.00 570.00,168.75 570.00,172.50 570.00,176.25 570.00,180.00 570.00,183.75 570.00,187.50 570.00,191.25 570.00,195.00 570.00,198.75 570.00,202.50 570.00,206.25 570.00,210.00 570.00,213.75 570.00,217.50 570.00,221.25 570.00,225.00 570.00,228.75 570.00,232.50 570.00,236.25 570.00,240.00 570.00,243.75 570.00,247.50 570.00,251.25 570.00,255.00 570.00,258.75 570.00,262.50 570.00,266.25 570.00,270.00 570.00,273.75 570.00,277.50 570.00,281.25 570.00,285.00 570.00,288.75 570.00,292.50 570.00,296.25 570.00,300.00 570.00,303.75 570.00,307.50 570.00,311.25 570.00,315.00 570.00,318.75 570.00,322.50 570.00,326.25 570.00,330.00" stroke="#4d8c6a" stroke-width="1.7" fill="none" stroke-linejoin="round" stroke-linecap="round" /><polyline points="450.00,180.00 453.75,180.00 457.50,180.00 461.25,180.00 465.00,180.00 468.75,180.00 472.50,180.00 476.25,180.00 480.00,180.00 483.75,180.00 487.50,180.00 491.25,180.00 495.00,180.00 498.75,180.00 502.50,180.00 506.25,180.00 510.00,180.00 513.75,180.00 517.50,180.00 521.25,180.00 525.00,180.00 528.75,180.00 532.50,180.00 536.25,180.00 540.00,180.00 543.75,180.00 547.50,180.00 551.25,180.00 555.00,180.00 558.75,180.00 562.50,180.00 566.25,180.00 570.00,180.00 573.75,180.00 577.50,180.00 581.25,180.00 585.00,180.00 588.75,180.00 592.50,180.00 596.25,180.00 600.00,180.00 603.75,180.00 607.50,180.00 611.25,180.00 615.00,180.00 618.75,180.00 622.50,180.00 626.25,180.00 630.00,180.00 633.75,180.00 637.50,180.00 641.25,180.00 645.00,180.00 648.75,180.00 652.50,180.00 656.25,180.00 660.00,180.00 663.75,180.00 667.50,180.00 671.25,180.00 675.00,180.00 678.75,180.00 682.50,180.00 686.25,180.00 690.00,180.00 693.75,180.00 697.50,180.00 701.25,180.00 705.00,180.00 708.75,180.00 712.50,180.00 716.25,180.00 720.00,180.00 723.75,180.00 727.50,180.00 731.25,180.00 735.00,180.00 738.75,180.00 742.50,180.00 746.25,180.00 750.00,180.00" stroke="#4d8c6a" stroke-width="1.7" fill="none" stroke-linejoin="round" stroke-linecap="round" /><polyline points="600.00,30.00 600.00,33.75 600.00,37.50 600.00,41.25 600.00,45.00 600.00,48.75 600.00,52.50 600.00,56.25 600.00,60.00 600.00,63.75 600.00,67.50 600.00,71.25 600.00,75.00 600.00,78.75 600.00,82.50 600.00,86.25 600.00,90.00 600.00,93.75 600.00,97.50 600.00,101.25 600.00,105.00 600.00,108.75 600.00,112.50 600.00,116.25 600.00,120.00 600.00,123.75 600.00,127.50 600.00,131.25 600.00,135.00 600.00,138.75 600.00,142.50 600.00,146.25 600.00,150.00 600.00,153.75 600.00,157.50 600.00,161.25 600.00,165.00 600.00,168.75 600.00,172.50 600.00,176.25 600.00,180.00 600.00,183.75 600.00,187.50 600.00,191.25 600.00,195.00 600.00,198.75 600.00,202.50 600.00,206.25 600.00,210.00 600.00,213.75 600.00,217.50 600.00,221.25 600.00,225.00 600.00,228.75 600.00,232.50 600.00,236.25 600.00,240.00 600.00,243.75 600.00,247.50 600.00,251.25 600.00,255.00 600.00,258.75 600.00,262.50 600.00,266.25 600.00,270.00 600.00,273.75 600.00,277.50 600.00,281.25 600.00,285.00 600.00,288.75 600.00,292.50 600.00,296.25 600.00,300.00 600.00,303.75 600.00,307.50 600.00,311.25 600.00,315.00 600.00,318.75 600.00,322.50 600.00,326.25 600.00,330.00" stroke="#4d8c6a" stroke-width="1.7" fill="none" stroke-linejoin="round" stroke-linecap="round" /><polyline points="450.00,210.00 453.75,210.00 457.50,210.00 461.25,210.00 465.00,210.00 468.75,210.00 472.50,210.00 476.25,210.00 480.00,210.00 483.75,210.00 487.50,210.00 491.25,210.00 495.00,210.00 498.75,210.00 502.50,210.00 506.25,210.00 510.00,210.00 513.75,210.00 517.50,210.00 521.25,210.00 525.00,210.00 528.75,210.00 532.50,210.00 536.25,210.00 540.00,210.00 543.75,210.00 547.50,210.00 551.25,210.00 555.00,210.00 558.75,210.00 562.50,210.00 566.25,210.00 570.00,210.00 573.75,210.00 577.50,210.00 581.25,210.00 585.00,210.00 588.75,210.00 592.50,210.00 596.25,210.00 600.00,210.00 603.75,210.00 607.50,210.00 611.25,210.00 615.00,210.00 618.75,210.00 622.50,210.00 626.25,210.00 630.00,210.00 633.75,210.00 637.50,210.00 641.25,210.00 645.00,210.00 648.75,210.00 652.50,210.00 656.25,210.00 660.00,210.00 663.75,210.00 667.50,210.00 671.25,210.00 675.00,210.00 678.75,210.00 682.50,210.00 686.25,210.00 690.00,210.00 693.75,210.00 697.50,210.00 701.25,210.00 705.00,210.00 708.75,210.00 712.50,210.00 716.25,210.00 720.00,210.00 723.75,210.00 727.50,210.00 731.25,210.00 735.00,210.00 738.75,210.00 742.50,210.00 746.25,210.00 750.00,210.00" stroke="#4d8c6a" stroke-width="1.7" fill="none" stroke-linejoin="round" stroke-linecap="round" /><polyline points="630.00,30.00 630.00,33.75 630.00,37.50 630.00,41.25 630.00,45.00 630.00,48.75 630.00,52.50 630.00,56.25 630.00,60.00 630.00,63.75 630.00,67.50 630.00,71.25 630.00,75.00 630.00,78.75 630.00,82.50 630.00,86.25 630.00,90.00 630.00,93.75 630.00,97.50 630.00,101.25 630.00,105.00 630.00,108.75 630.00,112.50 630.00,116.25 630.00,120.00 630.00,123.75 630.00,127.50 630.00,131.25 630.00,135.00 630.00,138.75 630.00,142.50 630.00,146.25 630.00,150.00 630.00,153.75 630.00,157.50 630.00,161.25 630.00,165.00 630.00,168.75 630.00,172.50 630.00,176.25 630.00,180.00 630.00,183.75 630.00,187.50 630.00,191.25 630.00,195.00 630.00,198.75 630.00,202.50 630.00,206.25 630.00,210.00 630.00,213.75 630.00,217.50 630.00,221.25 630.00,225.00 630.00,228.75 630.00,232.50 630.00,236.25 630.00,240.00 630.00,243.75 630.00,247.50 630.00,251.25 630.00,255.00 630.00,258.75 630.00,262.50 630.00,266.25 630.00,270.00 630.00,273.75 630.00,277.50 630.00,281.25 630.00,285.00 630.00,288.75 630.00,292.50 630.00,296.25 630.00,300.00 630.00,303.75 630.00,307.50 630.00,311.25 630.00,315.00 630.00,318.75 630.00,322.50 630.00,326.25 630.00,330.00" stroke="#4d8c6a" stroke-width="1.7" fill="none" stroke-linejoin="round" stroke-linecap="round" /><polyline points="450.00,240.00 453.75,240.00 457.50,240.00 461.25,240.00 465.00,240.00 468.75,240.00 472.50,240.00 476.25,240.00 480.00,240.00 483.75,240.00 487.50,240.00 491.25,240.00 495.00,240.00 498.75,240.00 502.50,240.00 506.25,240.00 510.00,240.00 513.75,240.00 517.50,240.00 521.25,240.00 525.00,240.00 528.75,240.00 532.50,240.00 536.25,240.00 540.00,240.00 543.75,240.00 547.50,240.00 551.25,240.00 555.00,240.00 558.75,240.00 562.50,240.00 566.25,240.00 570.00,240.00 573.75,240.00 577.50,240.00 581.25,240.00 585.00,240.00 588.75,240.00 592.50,240.00 596.25,240.00 600.00,240.00 603.75,240.00 607.50,240.00 611.25,240.00 615.00,240.00 618.75,240.00 622.50,240.00 626.25,240.00 630.00,240.00 633.75,240.00 637.50,240.00 641.25,240.00 645.00,240.00 648.75,240.00 652.50,240.00 656.25,240.00 660.00,240.00 663.75,240.00 667.50,240.00 671.25,240.00 675.00,240.00 678.75,240.00 682.50,240.00 686.25,240.00 690.00,240.00 693.75,240.00 697.50,240.00 701.25,240.00 705.00,240.00 708.75,240.00 712.50,240.00 716.25,240.00 720.00,240.00 723.75,240.00 727.50,240.00 731.25,240.00 735.00,240.00 738.75,240.00 742.50,240.00 746.25,240.00 750.00,240.00" stroke="#4d8c6a" stroke-width="1.7" fill="none" stroke-linejoin="round" stroke-linecap="round" /><polyline points="660.00,30.00 660.00,33.75 660.00,37.50 660.00,41.25 660.00,45.00 660.00,48.75 660.00,52.50 660.00,56.25 660.00,60.00 660.00,63.75 660.00,67.50 660.00,71.25 660.00,75.00 660.00,78.75 660.00,82.50 660.00,86.25 660.00,90.00 660.00,93.75 660.00,97.50 660.00,101.25 660.00,105.00 660.00,108.75 660.00,112.50 660.00,116.25 660.00,120.00 660.00,123.75 660.00,127.50 660.00,131.25 660.00,135.00 660.00,138.75 660.00,142.50 660.00,146.25 660.00,150.00 660.00,153.75 660.00,157.50 660.00,161.25 660.00,165.00 660.00,168.75 660.00,172.50 660.00,176.25 660.00,180.00 660.00,183.75 660.00,187.50 660.00,191.25 660.00,195.00 660.00,198.75 660.00,202.50 660.00,206.25 660.00,210.00 660.00,213.75 660.00,217.50 660.00,221.25 660.00,225.00 660.00,228.75 660.00,232.50 660.00,236.25 660.00,240.00 660.00,243.75 660.00,247.50 660.00,251.25 660.00,255.00 660.00,258.75 660.00,262.50 660.00,266.25 660.00,270.00 660.00,273.75 660.00,277.50 660.00,281.25 660.00,285.00 660.00,288.75 660.00,292.50 660.00,296.25 660.00,300.00 660.00,303.75 660.00,307.50 660.00,311.25 660.00,315.00 660.00,318.75 660.00,322.50 660.00,326.25 660.00,330.00" stroke="#4d8c6a" stroke-width="1.7" fill="none" stroke-linejoin="round" stroke-linecap="round" /><polyline points="450.00,270.00 453.75,270.00 457.50,270.00 461.25,270.00 465.00,270.00 468.75,270.00 472.50,270.00 476.25,270.00 480.00,270.00 483.75,270.00 487.50,270.00 491.25,270.00 495.00,270.00 498.75,270.00 502.50,270.00 506.25,270.00 510.00,270.00 513.75,270.00 517.50,270.00 521.25,270.00 525.00,270.00 528.75,270.00 532.50,270.00 536.25,270.00 540.00,270.00 543.75,270.00 547.50,270.00 551.25,270.00 555.00,270.00 558.75,270.00 562.50,270.00 566.25,270.00 570.00,270.00 573.75,270.00 577.50,270.00 581.25,270.00 585.00,270.00 588.75,270.00 592.50,270.00 596.25,270.00 600.00,270.00 603.75,270.00 607.50,270.00 611.25,270.00 615.00,270.00 618.75,270.00 622.50,270.00 626.25,270.00 630.00,270.00 633.75,270.00 637.50,270.00 641.25,270.00 645.00,270.00 648.75,270.00 652.50,270.00 656.25,270.00 660.00,270.00 663.75,270.00 667.50,270.00 671.25,270.00 675.00,270.00 678.75,270.00 682.50,270.00 686.25,270.00 690.00,270.00 693.75,270.00 697.50,270.00 701.25,270.00 705.00,270.00 708.75,270.00 712.50,270.00 716.25,270.00 720.00,270.00 723.75,270.00 727.50,270.00 731.25,270.00 735.00,270.00 738.75,270.00 742.50,270.00 746.25,270.00 750.00,270.00" stroke="#4d8c6a" stroke-width="1.7" fill="none" stroke-linejoin="round" stroke-linecap="round" /><polyline points="690.00,30.00 690.00,33.75 690.00,37.50 690.00,41.25 690.00,45.00 690.00,48.75 690.00,52.50 690.00,56.25 690.00,60.00 690.00,63.75 690.00,67.50 690.00,71.25 690.00,75.00 690.00,78.75 690.00,82.50 690.00,86.25 690.00,90.00 690.00,93.75 690.00,97.50 690.00,101.25 690.00,105.00 690.00,108.75 690.00,112.50 690.00,116.25 690.00,120.00 690.00,123.75 690.00,127.50 690.00,131.25 690.00,135.00 690.00,138.75 690.00,142.50 690.00,146.25 690.00,150.00 690.00,153.75 690.00,157.50 690.00,161.25 690.00,165.00 690.00,168.75 690.00,172.50 690.00,176.25 690.00,180.00 690.00,183.75 690.00,187.50 690.00,191.25 690.00,195.00 690.00,198.75 690.00,202.50 690.00,206.25 690.00,210.00 690.00,213.75 690.00,217.50 690.00,221.25 690.00,225.00 690.00,228.75 690.00,232.50 690.00,236.25 690.00,240.00 690.00,243.75 690.00,247.50 690.00,251.25 690.00,255.00 690.00,258.75 690.00,262.50 690.00,266.25 690.00,270.00 690.00,273.75 690.00,277.50 690.00,281.25 690.00,285.00 690.00,288.75 690.00,292.50 690.00,296.25 690.00,300.00 690.00,303.75 690.00,307.50 690.00,311.25 690.00,315.00 690.00,318.75 690.00,322.50 690.00,326.25 690.00,330.00" stroke="#4d8c6a" stroke-width="1.7" fill="none" stroke-linejoin="round" stroke-linecap="round" /><polyline points="450.00,300.00 453.75,300.00 457.50,300.00 461.25,300.00 465.00,300.00 468.75,300.00 472.50,300.00 476.25,300.00 480.00,300.00 483.75,300.00 487.50,300.00 491.25,300.00 495.00,300.00 498.75,300.00 502.50,300.00 506.25,300.00 510.00,300.00 513.75,300.00 517.50,300.00 521.25,300.00 525.00,300.00 528.75,300.00 532.50,300.00 536.25,300.00 540.00,300.00 543.75,300.00 547.50,300.00 551.25,300.00 555.00,300.00 558.75,300.00 562.50,300.00 566.25,300.00 570.00,300.00 573.75,300.00 577.50,300.00 581.25,300.00 585.00,300.00 588.75,300.00 592.50,300.00 596.25,300.00 600.00,300.00 603.75,300.00 607.50,300.00 611.25,300.00 615.00,300.00 618.75,300.00 622.50,300.00 626.25,300.00 630.00,300.00 633.75,300.00 637.50,300.00 641.25,300.00 645.00,300.00 648.75,300.00 652.50,300.00 656.25,300.00 660.00,300.00 663.75,300.00 667.50,300.00 671.25,300.00 675.00,300.00 678.75,300.00 682.50,300.00 686.25,300.00 690.00,300.00 693.75,300.00 697.50,300.00 701.25,300.00 705.00,300.00 708.75,300.00 712.50,300.00 716.25,300.00 720.00,300.00 723.75,300.00 727.50,300.00 731.25,300.00 735.00,300.00 738.75,300.00 742.50,300.00 746.25,300.00 750.00,300.00" stroke="#4d8c6a" stroke-width="1.7" fill="none" stroke-linejoin="round" stroke-linecap="round" /><polyline points="720.00,30.00 720.00,33.75 720.00,37.50 720.00,41.25 720.00,45.00 720.00,48.75 720.00,52.50 720.00,56.25 720.00,60.00 720.00,63.75 720.00,67.50 720.00,71.25 720.00,75.00 720.00,78.75 720.00,82.50 720.00,86.25 720.00,90.00 720.00,93.75 720.00,97.50 720.00,101.25 720.00,105.00 720.00,108.75 720.00,112.50 720.00,116.25 720.00,120.00 720.00,123.75 720.00,127.50 720.00,131.25 720.00,135.00 720.00,138.75 720.00,142.50 720.00,146.25 720.00,150.00 720.00,153.75 720.00,157.50 720.00,161.25 720.00,165.00 720.00,168.75 720.00,172.50 720.00,176.25 720.00,180.00 720.00,183.75 720.00,187.50 720.00,191.25 720.00,195.00 720.00,198.75 720.00,202.50 720.00,206.25 720.00,210.00 720.00,213.75 720.00,217.50 720.00,221.25 720.00,225.00 720.00,228.75 720.00,232.50 720.00,236.25 720.00,240.00 720.00,243.75 720.00,247.50 720.00,251.25 720.00,255.00 720.00,258.75 720.00,262.50 720.00,266.25 720.00,270.00 720.00,273.75 720.00,277.50 720.00,281.25 720.00,285.00 720.00,288.75 720.00,292.50 720.00,296.25 720.00,300.00 720.00,303.75 720.00,307.50 720.00,311.25 720.00,315.00 720.00,318.75 720.00,322.50 720.00,326.25 720.00,330.00" stroke="#4d8c6a" stroke-width="1.7" fill="none" stroke-linejoin="round" stroke-linecap="round" /><polyline points="450.00,330.00 453.75,330.00 457.50,330.00 461.25,330.00 465.00,330.00 468.75,330.00 472.50,330.00 476.25,330.00 480.00,330.00 483.75,330.00 487.50,330.00 491.25,330.00 495.00,330.00 498.75,330.00 502.50,330.00 506.25,330.00 510.00,330.00 513.75,330.00 517.50,330.00 521.25,330.00 525.00,330.00 528.75,330.00 532.50,330.00 536.25,330.00 540.00,330.00 543.75,330.00 547.50,330.00 551.25,330.00 555.00,330.00 558.75,330.00 562.50,330.00 566.25,330.00 570.00,330.00 573.75,330.00 577.50,330.00 581.25,330.00 585.00,330.00 588.75,330.00 592.50,330.00 596.25,330.00 600.00,330.00 603.75,330.00 607.50,330.00 611.25,330.00 615.00,330.00 618.75,330.00 622.50,330.00 626.25,330.00 630.00,330.00 633.75,330.00 637.50,330.00 641.25,330.00 645.00,330.00 648.75,330.00 652.50,330.00 656.25,330.00 660.00,330.00 663.75,330.00 667.50,330.00 671.25,330.00 675.00,330.00 678.75,330.00 682.50,330.00 686.25,330.00 690.00,330.00 693.75,330.00 697.50,330.00 701.25,330.00 705.00,330.00 708.75,330.00 712.50,330.00 716.25,330.00 720.00,330.00 723.75,330.00 727.50,330.00 731.25,330.00 735.00,330.00 738.75,330.00 742.50,330.00 746.25,330.00 750.00,330.00" stroke="#4d8c6a" stroke-width="1.7" fill="none" stroke-linejoin="round" stroke-linecap="round" /><polyline points="750.00,30.00 750.00,33.75 750.00,37.50 750.00,41.25 750.00,45.00 750.00,48.75 750.00,52.50 750.00,56.25 750.00,60.00 750.00,63.75 750.00,67.50 750.00,71.25 750.00,75.00 750.00,78.75 750.00,82.50 750.00,86.25 750.00,90.00 750.00,93.75 750.00,97.50 750.00,101.25 750.00,105.00 750.00,108.75 750.00,112.50 750.00,116.25 750.00,120.00 750.00,123.75 750.00,127.50 750.00,131.25 750.00,135.00 750.00,138.75 750.00,142.50 750.00,146.25 750.00,150.00 750.00,153.75 750.00,157.50 750.00,161.25 750.00,165.00 750.00,168.75 750.00,172.50 750.00,176.25 750.00,180.00 750.00,183.75 750.00,187.50 750.00,191.25 750.00,195.00 750.00,198.75 750.00,202.50 750.00,206.25 750.00,210.00 750.00,213.75 750.00,217.50 750.00,221.25 750.00,225.00 750.00,228.75 750.00,232.50 750.00,236.25 750.00,240.00 750.00,243.75 750.00,247.50 750.00,251.25 750.00,255.00 750.00,258.75 750.00,262.50 750.00,266.25 750.00,270.00 750.00,273.75 750.00,277.50 750.00,281.25 750.00,285.00 750.00,288.75 750.00,292.50 750.00,296.25 750.00,300.00 750.00,303.75 750.00,307.50 750.00,311.25 750.00,315.00 750.00,318.75 750.00,322.50 750.00,326.25 750.00,330.00" stroke="#4d8c6a" stroke-width="1.7" fill="none" stroke-linejoin="round" stroke-linecap="round" /><circle cx="600" cy="180" r="5" fill="#102a43" /><text x="600" y="370" text-anchor="middle" font-family="Source Han Sans SC, Microsoft YaHei, sans-serif" font-size="24" font-weight="700" fill="#4d8c6a">理想（零系数）</text><rect x="840.0" y="20.0" width="320" height="320" fill="#ffffff" stroke="#b8c7d1" stroke-width="2" /><polyline points="826.00,6.00 831.51,7.19 836.92,8.34 842.26,9.47 847.50,10.56 852.67,11.62 857.76,12.66 862.77,13.66 867.71,14.64 872.58,15.58 877.38,16.50 882.10,17.38 886.77,18.24 891.37,19.06 895.91,19.86 900.39,20.62 904.82,21.36 909.19,22.06 913.51,22.74 917.78,23.38 922.00,24.00 926.18,24.59 930.31,25.14 934.41,25.67 938.46,26.16 942.48,26.62 946.47,27.06 950.43,27.47 954.35,27.84 958.25,28.19 962.12,28.50 965.98,28.78 969.81,29.04 973.62,29.26 977.42,29.46 981.20,29.62 984.98,29.76 988.74,29.87 992.50,29.94 996.25,29.99 1000.00,30.00 1003.75,29.99 1007.50,29.94 1011.26,29.87 1015.02,29.76 1018.80,29.62 1022.58,29.46 1026.38,29.26 1030.19,29.04 1034.02,28.78 1037.88,28.50 1041.75,28.19 1045.65,27.84 1049.57,27.47 1053.53,27.06 1057.52,26.62 1061.54,26.16 1065.59,25.67 1069.69,25.14 1073.82,24.59 1078.00,24.00 1082.22,23.38 1086.49,22.74 1090.81,22.06 1095.18,21.36 1099.61,20.62 1104.09,19.86 1108.63,19.06 1113.23,18.24 1117.90,17.38 1122.62,16.50 1127.42,15.58 1132.29,14.64 1137.23,13.66 1142.24,12.66 1147.33,11.62 1152.50,10.56 1157.74,9.47 1163.08,8.34 1168.49,7.19 1174.00,6.00" stroke="#c85b73" stroke-width="1.7" fill="none" stroke-linejoin="round" stroke-linecap="round" /><polyline points="826.00,6.00 827.18,11.51 828.34,16.92 829.47,22.26 830.56,27.50 831.62,32.67 832.66,37.76 833.66,42.77 834.64,47.71 835.59,52.58 836.50,57.37 837.38,62.10 838.24,66.77 839.07,71.37 839.86,75.91 840.62,80.39 841.36,84.82 842.07,89.19 842.74,93.51 843.38,97.78 844.00,102.00 844.59,106.18 845.14,110.31 845.66,114.41 846.16,118.46 846.62,122.48 847.06,126.47 847.47,130.43 847.84,134.35 848.18,138.25 848.50,142.12 848.78,145.98 849.04,149.81 849.26,153.62 849.46,157.42 849.62,161.20 849.76,164.98 849.87,168.74 849.94,172.50 849.99,176.25 850.00,180.00 849.99,183.75 849.94,187.50 849.87,191.26 849.76,195.02 849.62,198.80 849.46,202.58 849.26,206.38 849.04,210.19 848.78,214.02 848.50,217.88 848.18,221.75 847.84,225.65 847.47,229.57 847.06,233.53 846.62,237.52 846.16,241.54 845.66,245.59 845.14,249.69 844.59,253.82 844.00,258.00 843.38,262.22 842.74,266.49 842.07,270.81 841.36,275.18 840.62,279.61 839.86,284.09 839.07,288.63 838.24,293.23 837.38,297.90 836.50,302.62 835.59,307.42 834.64,312.29 833.66,317.23 832.66,322.24 831.62,327.33 830.56,332.50 829.47,337.74 828.34,343.08 827.18,348.49 826.00,354.00" stroke="#c85b73" stroke-width="1.7" fill="none" stroke-linejoin="round" stroke-linecap="round" /><polyline points="834.64,47.71 839.93,48.66 845.13,49.58 850.25,50.48 855.28,51.36 860.23,52.21 865.11,53.04 869.90,53.84 874.62,54.62 879.27,55.38 883.86,56.11 888.37,56.82 892.82,57.50 897.20,58.16 901.52,58.80 905.79,59.41 910.00,60.00 914.16,60.56 918.26,61.10 922.31,61.62 926.32,62.11 930.28,62.58 934.20,63.02 938.08,63.44 941.92,63.84 945.72,64.21 949.50,64.56 953.23,64.88 956.94,65.18 960.63,65.46 964.28,65.71 967.92,65.94 971.54,66.14 975.13,66.32 978.72,66.48 982.28,66.61 985.84,66.72 989.39,66.80 992.93,66.86 996.47,66.90 1000.00,66.91 1003.53,66.90 1007.07,66.86 1010.61,66.80 1014.16,66.72 1017.72,66.61 1021.28,66.48 1024.87,66.32 1028.46,66.14 1032.08,65.94 1035.71,65.71 1039.37,65.46 1043.06,65.18 1046.77,64.88 1050.51,64.56 1054.28,64.21 1058.08,63.84 1061.92,63.44 1065.80,63.02 1069.72,62.58 1073.68,62.11 1077.69,61.62 1081.74,61.10 1085.84,60.56 1090.00,60.00 1094.21,59.41 1098.47,58.80 1102.80,58.16 1107.18,57.50 1111.63,56.82 1116.14,56.11 1120.73,55.38 1125.38,54.62 1130.10,53.84 1134.89,53.04 1139.77,52.21 1144.72,51.36 1149.75,50.48 1154.87,49.58 1160.07,48.66 1165.36,47.71" stroke="#c85b73" stroke-width="1.7" fill="none" stroke-linejoin="round" stroke-linecap="round" /><polyline points="867.71,14.64 868.66,19.93 869.58,25.13 870.48,30.25 871.36,35.28 872.21,40.23 873.04,45.10 873.84,49.90 874.62,54.62 875.38,59.27 876.11,63.86 876.82,68.37 877.50,72.82 878.16,77.20 878.80,81.53 879.41,85.79 880.00,90.00 880.56,94.16 881.10,98.26 881.62,102.31 882.11,106.32 882.58,110.28 883.02,114.20 883.44,118.08 883.84,121.92 884.21,125.72 884.56,129.50 884.88,133.23 885.18,136.94 885.46,140.63 885.71,144.28 885.94,147.92 886.14,151.54 886.32,155.13 886.48,158.72 886.61,162.28 886.72,165.84 886.80,169.39 886.86,172.93 886.90,176.47 886.91,180.00 886.90,183.53 886.86,187.07 886.80,190.61 886.72,194.16 886.61,197.72 886.48,201.28 886.32,204.87 886.14,208.46 885.94,212.08 885.71,215.72 885.46,219.37 885.18,223.06 884.88,226.77 884.56,230.51 884.21,234.28 883.84,238.08 883.44,241.92 883.02,245.80 882.58,249.72 882.11,253.68 881.62,257.69 881.10,261.74 880.56,265.84 880.00,270.00 879.41,274.21 878.80,278.47 878.16,282.80 877.50,287.18 876.82,291.63 876.11,296.14 875.38,300.73 874.62,305.38 873.84,310.10 873.04,314.89 872.21,319.77 871.36,324.72 870.48,329.75 869.58,334.87 868.66,340.07 867.71,345.36" stroke="#c85b73" stroke-width="1.7" fill="none" stroke-linejoin="round" stroke-linecap="round" /><polyline points="841.36,84.82 846.48,85.53 851.51,86.22 856.46,86.89 861.33,87.55 866.11,88.19 870.82,88.81 875.45,89.42 880.00,90.00 884.48,90.57 888.89,91.12 893.24,91.65 897.52,92.16 901.74,92.66 905.89,93.13 909.99,93.59 914.03,94.03 918.02,94.45 921.96,94.86 925.84,95.25 929.68,95.62 933.47,95.97 937.23,96.30 940.94,96.61 944.61,96.91 948.24,97.19 951.85,97.45 955.42,97.70 958.96,97.92 962.47,98.13 965.97,98.32 969.43,98.49 972.88,98.64 976.31,98.78 979.72,98.89 983.12,98.99 986.51,99.07 989.89,99.14 993.26,99.18 996.63,99.21 1000.00,99.22 1003.37,99.21 1006.74,99.18 1010.11,99.14 1013.49,99.07 1016.88,98.99 1020.28,98.89 1023.69,98.78 1027.12,98.64 1030.57,98.49 1034.04,98.32 1037.53,98.13 1041.04,97.92 1044.58,97.70 1048.15,97.45 1051.76,97.19 1055.39,96.91 1059.06,96.61 1062.78,96.30 1066.53,95.97 1070.32,95.62 1074.16,95.25 1078.05,94.86 1081.98,94.45 1085.97,94.03 1090.01,93.59 1094.11,93.13 1098.26,92.66 1102.48,92.16 1106.76,91.65 1111.11,91.12 1115.52,90.57 1120.00,90.00 1124.55,89.42 1129.18,88.81 1133.89,88.19 1138.67,87.55 1143.54,86.89 1148.49,86.22 1153.52,85.53 1158.64,84.82" stroke="#c85b73" stroke-width="1.7" fill="none" stroke-linejoin="round" stroke-linecap="round" /><polyline points="904.82,21.36 905.53,26.48 906.22,31.51 906.89,36.46 907.55,41.33 908.19,46.11 908.81,50.82 909.41,55.45 910.00,60.00 910.57,64.48 911.12,68.89 911.65,73.24 912.16,77.52 912.65,81.74 913.13,85.89 913.59,89.99 914.03,94.03 914.46,98.02 914.86,101.95 915.25,105.84 915.62,109.68 915.97,113.47 916.30,117.22 916.62,120.94 916.91,124.61 917.19,128.24 917.45,131.85 917.70,135.42 917.92,138.96 918.13,142.47 918.32,145.97 918.49,149.43 918.64,152.88 918.77,156.31 918.89,159.72 918.99,163.12 919.07,166.51 919.13,169.89 919.18,173.26 919.21,176.63 919.22,180.00 919.21,183.37 919.18,186.74 919.13,190.11 919.07,193.49 918.99,196.88 918.89,200.28 918.77,203.69 918.64,207.12 918.49,210.57 918.32,214.03 918.13,217.53 917.92,221.04 917.70,224.58 917.45,228.15 917.19,231.76 916.91,235.39 916.62,239.06 916.30,242.78 915.97,246.53 915.62,250.32 915.25,254.16 914.86,258.05 914.46,261.98 914.03,265.97 913.59,270.01 913.13,274.11 912.65,278.26 912.16,282.48 911.65,286.76 911.12,291.11 910.57,295.52 910.00,300.00 909.41,304.55 908.81,309.18 908.19,313.89 907.55,318.67 906.89,323.54 906.22,328.49 905.53,333.52 904.82,338.64" stroke="#c85b73" stroke-width="1.7" fill="none" stroke-linejoin="round" stroke-linecap="round" /><polyline points="846.16,118.46 851.16,118.94 856.08,119.40 860.90,119.85 865.65,120.29 870.31,120.71 874.90,121.13 879.41,121.53 883.84,121.92 888.20,122.30 892.50,122.66 896.72,123.02 900.88,123.36 904.98,123.69 909.01,124.01 912.99,124.31 916.91,124.61 920.78,124.89 924.60,125.16 928.36,125.42 932.08,125.66 935.75,125.90 939.38,126.12 942.98,126.33 946.53,126.53 950.04,126.71 953.53,126.89 956.98,127.05 960.40,127.20 963.79,127.34 967.16,127.46 970.51,127.58 973.84,127.68 977.15,127.77 980.44,127.85 983.72,127.91 986.99,127.97 990.25,128.01 993.50,128.04 996.75,128.06 1000.00,128.06 1003.25,128.06 1006.50,128.04 1009.75,128.01 1013.01,127.97 1016.28,127.91 1019.56,127.85 1022.85,127.77 1026.16,127.68 1029.49,127.58 1032.84,127.46 1036.21,127.34 1039.60,127.20 1043.02,127.05 1046.47,126.89 1049.96,126.71 1053.47,126.53 1057.02,126.33 1060.62,126.12 1064.25,125.90 1067.92,125.66 1071.64,125.42 1075.40,125.16 1079.22,124.89 1083.09,124.61 1087.01,124.31 1090.99,124.01 1095.02,123.69 1099.12,123.36 1103.28,123.02 1107.51,122.66 1111.80,122.30 1116.16,121.92 1120.59,121.53 1125.10,121.13 1129.69,120.71 1134.35,120.29 1139.10,119.85 1143.92,119.40 1148.84,118.94 1153.84,118.46" stroke="#c85b73" stroke-width="1.7" fill="none" stroke-linejoin="round" stroke-linecap="round" /><polyline points="938.46,26.16 938.94,31.16 939.40,36.07 939.85,40.90 940.29,45.65 940.71,50.31 941.13,54.90 941.53,59.41 941.92,63.84 942.30,68.20 942.66,72.50 943.02,76.72 943.36,80.88 943.69,84.98 944.01,89.01 944.31,92.99 944.61,96.91 944.89,100.78 945.16,104.59 945.42,108.36 945.66,112.08 945.90,115.75 946.12,119.38 946.33,122.98 946.53,126.53 946.71,130.04 946.89,133.53 947.05,136.98 947.20,140.40 947.34,143.79 947.46,147.16 947.58,150.51 947.68,153.84 947.77,157.15 947.85,160.44 947.91,163.72 947.97,166.99 948.01,170.25 948.04,173.50 948.06,176.75 948.06,180.00 948.06,183.25 948.04,186.50 948.01,189.75 947.97,193.01 947.91,196.28 947.85,199.56 947.77,202.85 947.68,206.16 947.58,209.49 947.46,212.84 947.34,216.21 947.20,219.60 947.05,223.02 946.89,226.47 946.71,229.96 946.53,233.47 946.33,237.02 946.12,240.62 945.90,244.25 945.66,247.92 945.42,251.64 945.16,255.41 944.89,259.22 944.61,263.09 944.31,267.01 944.01,270.99 943.69,275.02 943.36,279.12 943.02,283.28 942.66,287.50 942.30,291.80 941.92,296.16 941.53,300.59 941.13,305.10 940.71,309.69 940.29,314.35 939.85,319.10 939.40,323.93 938.94,328.84 938.46,333.84" stroke="#c85b73" stroke-width="1.7" fill="none" stroke-linejoin="round" stroke-linecap="round" /><polyline points="849.04,149.81 853.97,150.05 858.81,150.28 863.57,150.50 868.24,150.72 872.83,150.93 877.35,151.14 881.78,151.34 886.14,151.54 890.43,151.72 894.65,151.91 898.81,152.09 902.90,152.26 906.92,152.42 910.88,152.58 914.79,152.73 918.64,152.88 922.44,153.02 926.18,153.16 929.87,153.28 933.52,153.41 937.12,153.53 940.68,153.64 944.20,153.74 947.68,153.84 951.12,153.93 954.53,154.02 957.91,154.10 961.26,154.18 964.59,154.25 967.88,154.31 971.16,154.37 974.42,154.42 977.65,154.46 980.88,154.50 984.08,154.53 987.28,154.56 990.47,154.58 993.65,154.60 996.83,154.60 1000.00,154.61 1003.17,154.60 1006.35,154.60 1009.53,154.58 1012.72,154.56 1015.92,154.53 1019.12,154.50 1022.35,154.46 1025.58,154.42 1028.84,154.37 1032.12,154.31 1035.41,154.25 1038.74,154.18 1042.09,154.10 1045.46,154.02 1048.88,153.93 1052.32,153.84 1055.80,153.74 1059.32,153.64 1062.88,153.53 1066.48,153.41 1070.13,153.28 1073.82,153.16 1077.56,153.02 1081.36,152.88 1085.21,152.73 1089.12,152.58 1093.08,152.42 1097.10,152.26 1101.19,152.09 1105.35,151.91 1109.57,151.72 1113.86,151.54 1118.22,151.34 1122.65,151.14 1127.17,150.93 1131.76,150.72 1136.43,150.50 1141.19,150.28 1146.03,150.04 1150.96,149.81" stroke="#c85b73" stroke-width="1.7" fill="none" stroke-linejoin="round" stroke-linecap="round" /><polyline points="969.81,29.04 970.04,33.97 970.28,38.81 970.50,43.57 970.72,48.24 970.93,52.83 971.14,57.34 971.34,61.78 971.54,66.14 971.73,70.43 971.91,74.66 972.09,78.81 972.26,82.90 972.42,86.92 972.58,90.88 972.73,94.79 972.88,98.64 973.02,102.44 973.16,106.18 973.28,109.87 973.41,113.52 973.52,117.12 973.64,120.68 973.74,124.20 973.84,127.68 973.93,131.12 974.02,134.53 974.10,137.91 974.18,141.26 974.25,144.59 974.31,147.88 974.37,151.16 974.42,154.42 974.46,157.65 974.50,160.88 974.53,164.08 974.56,167.28 974.58,170.47 974.60,173.65 974.61,176.83 974.61,180.00 974.61,183.17 974.60,186.35 974.58,189.53 974.56,192.72 974.53,195.92 974.50,199.12 974.46,202.35 974.42,205.58 974.37,208.84 974.31,212.12 974.25,215.41 974.18,218.74 974.10,222.09 974.02,225.47 973.93,228.88 973.84,232.32 973.74,235.80 973.64,239.32 973.52,242.88 973.41,246.48 973.28,250.13 973.16,253.82 973.02,257.56 972.88,261.36 972.73,265.21 972.58,269.12 972.42,273.08 972.26,277.10 972.09,281.19 971.91,285.35 971.73,289.57 971.54,293.86 971.34,298.22 971.14,302.66 970.93,307.17 970.72,311.76 970.50,316.43 970.28,321.19 970.04,326.03 969.81,330.96" stroke="#c85b73" stroke-width="1.7" fill="none" stroke-linejoin="round" stroke-linecap="round" /><polyline points="850.00,180.00 854.91,180.00 859.72,180.00 864.46,180.00 869.10,180.00 873.67,180.00 878.16,180.00 882.57,180.00 886.91,180.00 891.18,180.00 895.38,180.00 899.50,180.00 903.57,180.00 907.57,180.00 911.51,180.00 915.39,180.00 919.22,180.00 922.99,180.00 926.71,180.00 930.38,180.00 934.00,180.00 937.58,180.00 941.11,180.00 944.61,180.00 948.06,180.00 951.48,180.00 954.87,180.00 958.23,180.00 961.55,180.00 964.85,180.00 968.12,180.00 971.38,180.00 974.61,180.00 977.82,180.00 981.02,180.00 984.20,180.00 987.38,180.00 990.54,180.00 993.70,180.00 996.85,180.00 1000.00,180.00 1003.15,180.00 1006.30,180.00 1009.46,180.00 1012.62,180.00 1015.80,180.00 1018.98,180.00 1022.18,180.00 1025.39,180.00 1028.62,180.00 1031.88,180.00 1035.15,180.00 1038.45,180.00 1041.77,180.00 1045.13,180.00 1048.52,180.00 1051.94,180.00 1055.39,180.00 1058.89,180.00 1062.42,180.00 1066.00,180.00 1069.62,180.00 1073.29,180.00 1077.01,180.00 1080.78,180.00 1084.61,180.00 1088.49,180.00 1092.43,180.00 1096.43,180.00 1100.50,180.00 1104.62,180.00 1108.82,180.00 1113.09,180.00 1117.43,180.00 1121.84,180.00 1126.33,180.00 1130.90,180.00 1135.54,180.00 1140.28,180.00 1145.09,180.00 1150.00,180.00" stroke="#c85b73" stroke-width="1.7" fill="none" stroke-linejoin="round" stroke-linecap="round" /><polyline points="1000.00,30.00 1000.00,34.91 1000.00,39.72 1000.00,44.46 1000.00,49.10 1000.00,53.67 1000.00,58.16 1000.00,62.57 1000.00,66.91 1000.00,71.18 1000.00,75.38 1000.00,79.50 1000.00,83.57 1000.00,87.57 1000.00,91.51 1000.00,95.39 1000.00,99.22 1000.00,102.99 1000.00,106.71 1000.00,110.38 1000.00,114.00 1000.00,117.58 1000.00,121.11 1000.00,124.61 1000.00,128.06 1000.00,131.48 1000.00,134.87 1000.00,138.23 1000.00,141.55 1000.00,144.85 1000.00,148.12 1000.00,151.38 1000.00,154.61 1000.00,157.82 1000.00,161.02 1000.00,164.20 1000.00,167.38 1000.00,170.54 1000.00,173.70 1000.00,176.85 1000.00,180.00 1000.00,183.15 1000.00,186.30 1000.00,189.46 1000.00,192.62 1000.00,195.80 1000.00,198.98 1000.00,202.18 1000.00,205.39 1000.00,208.62 1000.00,211.88 1000.00,215.15 1000.00,218.45 1000.00,221.77 1000.00,225.13 1000.00,228.52 1000.00,231.94 1000.00,235.39 1000.00,238.89 1000.00,242.42 1000.00,246.00 1000.00,249.62 1000.00,253.29 1000.00,257.01 1000.00,260.78 1000.00,264.61 1000.00,268.49 1000.00,272.43 1000.00,276.43 1000.00,280.50 1000.00,284.62 1000.00,288.82 1000.00,293.09 1000.00,297.43 1000.00,301.84 1000.00,306.33 1000.00,310.90 1000.00,315.54 1000.00,320.28 1000.00,325.09 1000.00,330.00" stroke="#c85b73" stroke-width="1.7" fill="none" stroke-linejoin="round" stroke-linecap="round" /><polyline points="849.04,210.19 853.97,209.95 858.81,209.72 863.57,209.50 868.24,209.28 872.83,209.07 877.35,208.86 881.78,208.66 886.14,208.46 890.43,208.28 894.65,208.09 898.81,207.91 902.90,207.74 906.92,207.58 910.88,207.42 914.79,207.27 918.64,207.12 922.44,206.98 926.18,206.84 929.87,206.72 933.52,206.59 937.12,206.47 940.68,206.36 944.20,206.26 947.68,206.16 951.12,206.07 954.53,205.98 957.91,205.90 961.26,205.82 964.59,205.75 967.88,205.69 971.16,205.63 974.42,205.58 977.65,205.54 980.88,205.50 984.08,205.47 987.28,205.44 990.47,205.42 993.65,205.40 996.83,205.40 1000.00,205.39 1003.17,205.40 1006.35,205.40 1009.53,205.42 1012.72,205.44 1015.92,205.47 1019.12,205.50 1022.35,205.54 1025.58,205.58 1028.84,205.63 1032.12,205.69 1035.41,205.75 1038.74,205.82 1042.09,205.90 1045.46,205.98 1048.88,206.07 1052.32,206.16 1055.80,206.26 1059.32,206.36 1062.88,206.47 1066.48,206.59 1070.13,206.72 1073.82,206.84 1077.56,206.98 1081.36,207.12 1085.21,207.27 1089.12,207.42 1093.08,207.58 1097.10,207.74 1101.19,207.91 1105.35,208.09 1109.57,208.28 1113.86,208.46 1118.22,208.66 1122.65,208.86 1127.17,209.07 1131.76,209.28 1136.43,209.50 1141.19,209.72 1146.03,209.96 1150.96,210.19" stroke="#c85b73" stroke-width="1.7" fill="none" stroke-linejoin="round" stroke-linecap="round" /><polyline points="1030.19,29.04 1029.95,33.97 1029.72,38.81 1029.50,43.57 1029.28,48.24 1029.07,52.83 1028.86,57.34 1028.66,61.78 1028.46,66.14 1028.28,70.43 1028.09,74.66 1027.91,78.81 1027.74,82.90 1027.58,86.92 1027.42,90.88 1027.27,94.79 1027.12,98.64 1026.98,102.44 1026.84,106.18 1026.71,109.87 1026.59,113.52 1026.47,117.12 1026.36,120.68 1026.26,124.20 1026.16,127.68 1026.07,131.12 1025.98,134.53 1025.90,137.91 1025.82,141.26 1025.76,144.59 1025.69,147.88 1025.63,151.16 1025.58,154.42 1025.54,157.65 1025.50,160.88 1025.47,164.08 1025.44,167.28 1025.42,170.47 1025.40,173.65 1025.39,176.83 1025.39,180.00 1025.39,183.17 1025.40,186.35 1025.42,189.53 1025.44,192.72 1025.47,195.92 1025.50,199.12 1025.54,202.35 1025.58,205.58 1025.63,208.84 1025.69,212.12 1025.76,215.41 1025.82,218.74 1025.90,222.09 1025.98,225.47 1026.07,228.88 1026.16,232.32 1026.26,235.80 1026.36,239.32 1026.47,242.88 1026.59,246.48 1026.71,250.13 1026.84,253.82 1026.98,257.56 1027.12,261.36 1027.27,265.21 1027.42,269.12 1027.58,273.08 1027.74,277.10 1027.91,281.19 1028.09,285.35 1028.28,289.57 1028.46,293.86 1028.66,298.22 1028.86,302.66 1029.07,307.17 1029.28,311.76 1029.50,316.43 1029.72,321.19 1029.95,326.03 1030.19,330.96" stroke="#c85b73" stroke-width="1.7" fill="none" stroke-linejoin="round" stroke-linecap="round" /><polyline points="846.16,241.54 851.16,241.06 856.08,240.60 860.90,240.15 865.65,239.71 870.31,239.29 874.90,238.87 879.41,238.47 883.84,238.08 888.20,237.70 892.50,237.34 896.72,236.98 900.88,236.64 904.98,236.31 909.01,235.99 912.99,235.69 916.91,235.39 920.78,235.11 924.60,234.84 928.36,234.58 932.08,234.34 935.75,234.10 939.38,233.88 942.98,233.67 946.53,233.47 950.04,233.29 953.53,233.11 956.98,232.95 960.40,232.80 963.79,232.66 967.16,232.54 970.51,232.42 973.84,232.32 977.15,232.23 980.44,232.15 983.72,232.09 986.99,232.03 990.25,231.99 993.50,231.96 996.75,231.94 1000.00,231.94 1003.25,231.94 1006.50,231.96 1009.75,231.99 1013.01,232.03 1016.28,232.09 1019.56,232.15 1022.85,232.23 1026.16,232.32 1029.49,232.42 1032.84,232.54 1036.21,232.66 1039.60,232.80 1043.02,232.95 1046.47,233.11 1049.96,233.29 1053.47,233.47 1057.02,233.67 1060.62,233.88 1064.25,234.10 1067.92,234.34 1071.64,234.58 1075.40,234.84 1079.22,235.11 1083.09,235.39 1087.01,235.69 1090.99,235.99 1095.02,236.31 1099.12,236.64 1103.28,236.98 1107.51,237.34 1111.80,237.70 1116.16,238.08 1120.59,238.47 1125.10,238.87 1129.69,239.29 1134.35,239.71 1139.10,240.15 1143.92,240.60 1148.84,241.06 1153.84,241.54" stroke="#c85b73" stroke-width="1.7" fill="none" stroke-linejoin="round" stroke-linecap="round" /><polyline points="1061.54,26.16 1061.06,31.16 1060.60,36.07 1060.15,40.90 1059.71,45.65 1059.29,50.31 1058.87,54.90 1058.47,59.41 1058.08,63.84 1057.70,68.20 1057.34,72.50 1056.98,76.72 1056.64,80.88 1056.31,84.98 1055.99,89.01 1055.69,92.99 1055.39,96.91 1055.11,100.78 1054.84,104.59 1054.58,108.36 1054.34,112.08 1054.10,115.75 1053.88,119.38 1053.67,122.98 1053.47,126.53 1053.29,130.04 1053.11,133.53 1052.95,136.98 1052.80,140.40 1052.66,143.79 1052.54,147.16 1052.42,150.51 1052.32,153.84 1052.23,157.15 1052.15,160.44 1052.09,163.72 1052.03,166.99 1051.99,170.25 1051.96,173.50 1051.94,176.75 1051.94,180.00 1051.94,183.25 1051.96,186.50 1051.99,189.75 1052.03,193.01 1052.09,196.28 1052.15,199.56 1052.23,202.85 1052.32,206.16 1052.42,209.49 1052.54,212.84 1052.66,216.21 1052.80,219.60 1052.95,223.02 1053.11,226.47 1053.29,229.96 1053.47,233.47 1053.67,237.02 1053.88,240.62 1054.10,244.25 1054.34,247.92 1054.58,251.64 1054.84,255.41 1055.11,259.22 1055.39,263.09 1055.69,267.01 1055.99,270.99 1056.31,275.02 1056.64,279.12 1056.98,283.28 1057.34,287.50 1057.70,291.80 1058.08,296.16 1058.47,300.59 1058.87,305.10 1059.29,309.69 1059.71,314.35 1060.15,319.10 1060.60,323.93 1061.06,328.84 1061.54,333.84" stroke="#c85b73" stroke-width="1.7" fill="none" stroke-linejoin="round" stroke-linecap="round" /><polyline points="841.36,275.18 846.48,274.47 851.51,273.78 856.46,273.11 861.33,272.45 866.11,271.81 870.82,271.19 875.45,270.58 880.00,270.00 884.48,269.43 888.89,268.88 893.24,268.35 897.52,267.84 901.74,267.35 905.89,266.87 909.99,266.41 914.03,265.97 918.02,265.55 921.96,265.14 925.84,264.75 929.68,264.38 933.47,264.03 937.23,263.70 940.94,263.38 944.61,263.09 948.24,262.81 951.85,262.55 955.42,262.31 958.96,262.08 962.47,261.87 965.97,261.68 969.43,261.51 972.88,261.36 976.31,261.23 979.72,261.11 983.12,261.01 986.51,260.93 989.89,260.87 993.26,260.82 996.63,260.79 1000.00,260.78 1003.37,260.79 1006.74,260.82 1010.11,260.87 1013.49,260.93 1016.88,261.01 1020.28,261.11 1023.69,261.23 1027.12,261.36 1030.57,261.51 1034.04,261.68 1037.53,261.87 1041.04,262.08 1044.58,262.31 1048.15,262.55 1051.76,262.81 1055.39,263.09 1059.06,263.38 1062.78,263.70 1066.53,264.03 1070.32,264.38 1074.16,264.75 1078.05,265.14 1081.98,265.55 1085.97,265.97 1090.01,266.41 1094.11,266.87 1098.26,267.35 1102.48,267.84 1106.76,268.35 1111.11,268.88 1115.52,269.43 1120.00,270.00 1124.55,270.58 1129.18,271.19 1133.89,271.81 1138.67,272.45 1143.54,273.11 1148.49,273.78 1153.52,274.47 1158.64,275.18" stroke="#c85b73" stroke-width="1.7" fill="none" stroke-linejoin="round" stroke-linecap="round" /><polyline points="1095.18,21.36 1094.47,26.48 1093.78,31.51 1093.11,36.46 1092.45,41.33 1091.81,46.11 1091.19,50.82 1090.59,55.45 1090.00,60.00 1089.43,64.48 1088.88,68.89 1088.35,73.24 1087.84,77.52 1087.35,81.74 1086.87,85.89 1086.41,89.99 1085.97,94.03 1085.55,98.02 1085.14,101.95 1084.75,105.84 1084.38,109.68 1084.03,113.47 1083.70,117.22 1083.38,120.94 1083.09,124.61 1082.81,128.24 1082.55,131.85 1082.31,135.42 1082.08,138.96 1081.87,142.47 1081.68,145.97 1081.51,149.43 1081.36,152.88 1081.22,156.31 1081.11,159.72 1081.01,163.12 1080.93,166.51 1080.87,169.89 1080.82,173.26 1080.79,176.63 1080.78,180.00 1080.79,183.37 1080.82,186.74 1080.87,190.11 1080.93,193.49 1081.01,196.88 1081.11,200.28 1081.22,203.69 1081.36,207.12 1081.51,210.57 1081.68,214.03 1081.87,217.53 1082.08,221.04 1082.31,224.58 1082.55,228.15 1082.81,231.76 1083.09,235.39 1083.38,239.06 1083.70,242.78 1084.03,246.53 1084.38,250.32 1084.75,254.16 1085.14,258.05 1085.55,261.98 1085.97,265.97 1086.41,270.01 1086.87,274.11 1087.35,278.26 1087.84,282.48 1088.35,286.76 1088.88,291.11 1089.43,295.52 1090.00,300.00 1090.59,304.55 1091.19,309.18 1091.81,313.89 1092.45,318.67 1093.11,323.54 1093.78,328.49 1094.47,333.52 1095.18,338.64" stroke="#c85b73" stroke-width="1.7" fill="none" stroke-linejoin="round" stroke-linecap="round" /><polyline points="834.64,312.29 839.93,311.34 845.13,310.42 850.25,309.52 855.28,308.64 860.23,307.79 865.11,306.96 869.90,306.16 874.62,305.38 879.27,304.62 883.86,303.89 888.37,303.18 892.82,302.50 897.20,301.84 901.52,301.20 905.79,300.59 910.00,300.00 914.16,299.44 918.26,298.90 922.31,298.38 926.32,297.89 930.28,297.42 934.20,296.98 938.08,296.56 941.92,296.16 945.72,295.79 949.50,295.44 953.23,295.12 956.94,294.82 960.63,294.54 964.28,294.29 967.92,294.06 971.54,293.86 975.13,293.68 978.72,293.52 982.28,293.39 985.84,293.28 989.39,293.20 992.93,293.14 996.47,293.10 1000.00,293.09 1003.53,293.10 1007.07,293.14 1010.61,293.20 1014.16,293.28 1017.72,293.39 1021.28,293.52 1024.87,293.68 1028.46,293.86 1032.08,294.06 1035.71,294.29 1039.37,294.54 1043.06,294.82 1046.77,295.12 1050.51,295.44 1054.28,295.79 1058.08,296.16 1061.92,296.56 1065.80,296.98 1069.72,297.42 1073.68,297.89 1077.69,298.38 1081.74,298.90 1085.84,299.44 1090.00,300.00 1094.21,300.59 1098.47,301.20 1102.80,301.84 1107.18,302.50 1111.63,303.18 1116.14,303.89 1120.73,304.62 1125.38,305.38 1130.10,306.16 1134.89,306.96 1139.77,307.79 1144.72,308.64 1149.75,309.52 1154.87,310.42 1160.07,311.34 1165.36,312.29" stroke="#c85b73" stroke-width="1.7" fill="none" stroke-linejoin="round" stroke-linecap="round" /><polyline points="1132.29,14.64 1131.34,19.93 1130.42,25.13 1129.52,30.25 1128.64,35.28 1127.79,40.23 1126.96,45.10 1126.16,49.90 1125.38,54.62 1124.62,59.27 1123.89,63.86 1123.18,68.37 1122.50,72.82 1121.84,77.20 1121.20,81.53 1120.59,85.79 1120.00,90.00 1119.44,94.16 1118.90,98.26 1118.38,102.31 1117.89,106.32 1117.42,110.28 1116.98,114.20 1116.56,118.08 1116.16,121.92 1115.79,125.72 1115.44,129.50 1115.12,133.23 1114.82,136.94 1114.54,140.63 1114.29,144.28 1114.06,147.92 1113.86,151.54 1113.68,155.13 1113.52,158.72 1113.39,162.28 1113.28,165.84 1113.20,169.39 1113.14,172.93 1113.10,176.47 1113.09,180.00 1113.10,183.53 1113.14,187.07 1113.20,190.61 1113.28,194.16 1113.39,197.72 1113.52,201.28 1113.68,204.87 1113.86,208.46 1114.06,212.08 1114.29,215.72 1114.54,219.37 1114.82,223.06 1115.12,226.77 1115.44,230.51 1115.79,234.28 1116.16,238.08 1116.56,241.92 1116.98,245.80 1117.42,249.72 1117.89,253.68 1118.38,257.69 1118.90,261.74 1119.44,265.84 1120.00,270.00 1120.59,274.21 1121.20,278.47 1121.84,282.80 1122.50,287.18 1123.18,291.63 1123.89,296.14 1124.62,300.73 1125.38,305.38 1126.16,310.10 1126.96,314.89 1127.79,319.77 1128.64,324.72 1129.52,329.75 1130.42,334.87 1131.34,340.07 1132.29,345.36" stroke="#c85b73" stroke-width="1.7" fill="none" stroke-linejoin="round" stroke-linecap="round" /><polyline points="826.00,354.00 831.51,352.81 836.92,351.66 842.26,350.53 847.50,349.44 852.67,348.38 857.76,347.34 862.77,346.34 867.71,345.36 872.58,344.42 877.38,343.50 882.10,342.62 886.77,341.76 891.37,340.94 895.91,340.14 900.39,339.38 904.82,338.64 909.19,337.94 913.51,337.26 917.78,336.62 922.00,336.00 926.18,335.41 930.31,334.86 934.41,334.33 938.46,333.84 942.48,333.38 946.47,332.94 950.43,332.53 954.35,332.16 958.25,331.81 962.12,331.50 965.98,331.22 969.81,330.96 973.62,330.74 977.42,330.54 981.20,330.38 984.98,330.24 988.74,330.13 992.50,330.06 996.25,330.01 1000.00,330.00 1003.75,330.01 1007.50,330.06 1011.26,330.13 1015.02,330.24 1018.80,330.38 1022.58,330.54 1026.38,330.74 1030.19,330.96 1034.02,331.22 1037.88,331.50 1041.75,331.81 1045.65,332.16 1049.57,332.53 1053.53,332.94 1057.52,333.38 1061.54,333.84 1065.59,334.33 1069.69,334.86 1073.82,335.41 1078.00,336.00 1082.22,336.62 1086.49,337.26 1090.81,337.94 1095.18,338.64 1099.61,339.38 1104.09,340.14 1108.63,340.94 1113.23,341.76 1117.90,342.62 1122.62,343.50 1127.42,344.42 1132.29,345.36 1137.23,346.34 1142.24,347.34 1147.33,348.38 1152.50,349.44 1157.74,350.53 1163.08,351.66 1168.49,352.81 1174.00,354.00" stroke="#c85b73" stroke-width="1.7" fill="none" stroke-linejoin="round" stroke-linecap="round" /><polyline points="1174.00,6.00 1172.82,11.51 1171.66,16.92 1170.54,22.26 1169.44,27.50 1168.38,32.67 1167.34,37.76 1166.34,42.77 1165.36,47.71 1164.41,52.58 1163.50,57.37 1162.62,62.10 1161.76,66.77 1160.93,71.37 1160.14,75.91 1159.38,80.39 1158.64,84.82 1157.93,89.19 1157.26,93.51 1156.62,97.78 1156.00,102.00 1155.41,106.18 1154.86,110.31 1154.34,114.41 1153.84,118.46 1153.38,122.48 1152.94,126.47 1152.54,130.43 1152.16,134.35 1151.82,138.25 1151.50,142.12 1151.21,145.98 1150.96,149.81 1150.74,153.62 1150.54,157.42 1150.38,161.20 1150.24,164.98 1150.13,168.74 1150.06,172.50 1150.01,176.25 1150.00,180.00 1150.01,183.75 1150.06,187.50 1150.13,191.26 1150.24,195.02 1150.38,198.80 1150.54,202.58 1150.74,206.38 1150.96,210.19 1151.21,214.02 1151.50,217.88 1151.82,221.75 1152.16,225.65 1152.54,229.57 1152.94,233.53 1153.38,237.52 1153.84,241.54 1154.34,245.59 1154.86,249.69 1155.41,253.82 1156.00,258.00 1156.62,262.22 1157.26,266.49 1157.93,270.81 1158.64,275.18 1159.38,279.61 1160.14,284.09 1160.93,288.63 1161.76,293.23 1162.62,297.90 1163.50,302.62 1164.41,307.42 1165.36,312.29 1166.34,317.23 1167.34,322.24 1168.38,327.33 1169.44,332.50 1170.54,337.74 1171.66,343.08 1172.82,348.49 1174.00,354.00" stroke="#c85b73" stroke-width="1.7" fill="none" stroke-linejoin="round" stroke-linecap="round" /><circle cx="1000" cy="180" r="5" fill="#102a43" /><text x="1000" y="370" text-anchor="middle" font-family="Source Han Sans SC, Microsoft YaHei, sans-serif" font-size="24" font-weight="700" fill="#c85b73">枕形（正系数）</text></svg>