<?xml version='1.0' encoding='utf-8'?>
<svg xmlns="http://www.w3.org/2000/svg" width="1400" height="690" viewBox="0 0 1400 690" role="img" aria-label="景深边界与离焦阈值"><defs><marker id="arrow-blue" markerWidth="10" markerHeight="8" refX="9" refY="4" orient="auto" markerUnits="strokeWidth"><path d="M 0 0 L 10 4 L 0 8 z" fill="#3b82b5" /></marker><marker id="arrow-red" markerWidth="10" markerHeight="8" refX="9" refY="4" orient="auto" markerUnits="strokeWidth"><path d="M 0 0 L 10 4 L 0 8 z" fill="#c85b73" /></marker><marker id="arrow-dark" markerWidth="10" markerHeight="8" refX="9" refY="4" orient="auto" markerUnits="strokeWidth"><path d="M 0 0 L 10 4 L 0 8 z" fill="#334e68" /></marker><marker id="arrow-green" markerWidth="10" markerHeight="8" refX="9" refY="4" orient="auto" markerUnits="strokeWidth"><path d="M 0 0 L 10 4 L 0 8 z" fill="#4d8c6a" /></marker></defs><rect width="1400" height="690" fill="#fbfdff" /><text x="700.0" y="44" text-anchor="middle" font-family="Source Han Sans SC, Microsoft YaHei, sans-serif" font-size="30" font-weight="700" fill="#102a43">景深是离焦曲线低于容许阈值的区间</text><line x1="110" y1="500" x2="1290" y2="500" stroke="#334e68" stroke-width="2" stroke-linecap="round" marker-end="url(#arrow-dark)" /><line x1="110" y1="500" x2="110" y2="100" stroke="#334e68" stroke-width="2" stroke-linecap="round" marker-end="url(#arrow-dark)" /><text x="1280" y="532" text-anchor="middle" font-family="Source Han Sans SC, Microsoft YaHei, sans-serif" font-size="21" font-weight="400" fill="#486581">物距 s</text><text x="90" y="110" text-anchor="middle" font-family="Source Han Sans SC, Microsoft YaHei, sans-serif" font-size="21" font-weight="400" fill="#486581">c(s)</text><line x1="110" y1="300" x2="1290" y2="300" stroke="#c85b73" stroke-width="3" stroke-linecap="round" stroke-dasharray="12 8" /><text x="1275" y="286" text-anchor="end" font-family="Source Han Sans SC, Microsoft YaHei, sans-serif" font-size="21" font-weight="700" fill="#a24862">阈值 c₀</text><polyline points="110.00,56.17 112.96,59.19 115.91,62.20 118.87,65.22 121.83,68.23 124.79,71.23 127.74,74.24 130.70,77.24 133.66,80.24 136.62,83.23 139.57,86.23 142.53,89.22 145.49,92.20 148.45,95.19 151.40,98.17 154.36,101.15 157.32,104.12 160.28,107.10 163.23,110.07 166.19,113.03 169.15,116.00 172.11,118.96 175.06,121.91 178.02,124.87 180.98,127.82 183.93,130.77 186.89,133.72 189.85,136.66 192.81,139.60 195.76,142.54 198.72,145.47 201.68,148.40 204.64,151.33 207.59,154.25 210.55,157.17 213.51,160.09 216.47,163.00 219.42,165.91 222.38,168.82 225.34,171.72 228.30,174.62 231.25,177.52 234.21,180.42 237.17,183.31 240.13,186.19 243.08,189.08 246.04,191.96 249.00,194.83 251.95,197.71 254.91,200.58 257.87,203.44 260.83,206.31 263.78,209.16 266.74,212.02 269.70,214.87 272.66,217.72 275.61,220.56 278.57,223.40 281.53,226.24 284.49,229.07 287.44,231.90 290.40,234.73 293.36,237.55 296.32,240.36 299.27,243.18 302.23,245.99 305.19,248.79 308.15,251.59 311.10,254.39 314.06,257.18 317.02,259.97 319.97,262.75 322.93,265.53 325.89,268.31 328.85,271.08 331.80,273.85 334.76,276.61 337.72,279.37 340.68,282.12 343.63,284.87 346.59,287.62 349.55,290.36 352.51,293.09 355.46,295.82 358.42,298.55 361.38,301.27 364.34,303.98 367.29,306.69 370.25,309.40 373.21,312.10 376.17,314.80 379.12,317.49 382.08,320.18 385.04,322.86 387.99,325.53 390.95,328.20 393.91,330.87 396.87,333.53 399.82,336.18 402.78,338.83 405.74,341.47 408.70,344.11 411.65,346.74 414.61,349.36 417.57,351.98 420.53,354.59 423.48,357.20 426.44,359.80 429.40,362.40 432.36,364.98 435.31,367.57 438.27,370.14 441.23,372.71 444.19,375.27 447.14,377.83 450.10,380.37 453.06,382.92 456.02,385.45 458.97,387.98 461.93,390.49 464.89,393.01 467.84,395.51 470.80,398.01 473.76,400.49 476.72,402.97 479.67,405.45 482.63,407.91 485.59,410.36 488.55,412.81 491.50,415.25 494.46,417.67 497.42,420.09 500.38,422.50 503.33,424.90 506.29,427.29 509.25,429.67 512.21,432.04 515.16,434.40 518.12,436.74 521.08,439.08 524.04,441.40 526.99,443.72 529.95,446.02 532.91,448.30 535.86,450.58 538.82,452.84 541.78,455.08 544.74,457.32 547.69,459.53 550.65,461.73 553.61,463.92 556.57,466.09 559.52,468.24 562.48,470.37 565.44,472.48 568.40,474.57 571.35,476.63 574.31,478.68 577.27,480.70 580.23,482.69 583.18,484.65 586.14,486.58 589.10,488.48 592.06,490.33 595.01,492.14 597.97,493.89 600.93,495.59 603.88,497.20 606.84,498.69 609.80,499.94 612.76,497.48 615.71,494.80 618.67,492.15 621.63,489.54 624.59,486.95 627.54,484.39 630.50,481.86 633.46,479.36 636.42,476.89 639.37,474.44 642.33,472.03 645.29,469.64 648.25,467.27 651.20,464.94 654.16,462.63 657.12,460.35 660.08,458.09 663.03,455.86 665.99,453.65 668.95,451.47 671.90,449.31 674.86,447.18 677.82,445.07 680.78,442.99 683.73,440.92 686.69,438.89 689.65,436.87 692.61,434.88 695.56,432.91 698.52,430.96 701.48,429.04 704.44,427.14 707.39,425.25 710.35,423.39 713.31,421.55 716.27,419.73 719.22,417.94 722.18,416.16 725.14,414.40 728.10,412.66 731.05,410.95 734.01,409.25 736.97,407.57 739.92,405.91 742.88,404.27 745.84,402.64 748.80,401.04 751.75,399.45 754.71,397.88 757.67,396.33 760.63,394.80 763.58,393.28 766.54,391.78 769.50,390.30 772.46,388.84 775.41,387.39 778.37,385.96 781.33,384.54 784.29,383.14 787.24,381.75 790.20,380.39 793.16,379.03 796.12,377.70 799.07,376.37 802.03,375.07 804.99,373.77 807.94,372.49 810.90,371.23 813.86,369.98 816.82,368.75 819.77,367.52 822.73,366.32 825.69,365.12 828.65,363.94 831.60,362.78 834.56,361.62 837.52,360.48 840.48,359.35 843.43,358.24 846.39,357.14 849.35,356.05 852.31,354.97 855.26,353.90 858.22,352.85 861.18,351.81 864.14,350.78 867.09,349.76 870.05,348.75 873.01,347.76 875.96,346.77 878.92,345.80 881.88,344.84 884.84,343.89 887.79,342.95 890.75,342.02 893.71,341.10 896.67,340.19 899.62,339.29 902.58,338.40 905.54,337.52 908.50,336.66 911.45,335.80 914.41,334.95 917.37,334.11 920.33,333.28 923.28,332.46 926.24,331.65 929.20,330.85 932.16,330.05 935.11,329.27 938.07,328.50 941.03,327.73 943.98,326.97 946.94,326.22 949.90,325.48 952.86,324.75 955.81,324.03 958.77,323.31 961.73,322.60 964.69,321.90 967.64,321.21 970.60,320.53 973.56,319.85 976.52,319.18 979.47,318.52 982.43,317.87 985.39,317.22 988.35,316.59 991.30,315.95 994.26,315.33 997.22,314.71 1000.18,314.10 1003.13,313.50 1006.09,312.90 1009.05,312.31 1012.01,311.73 1014.96,311.15 1017.92,310.58 1020.88,310.02 1023.83,309.46 1026.79,308.91 1029.75,308.37 1032.71,307.83 1035.66,307.30 1038.62,306.77 1041.58,306.25 1044.54,305.74 1047.49,305.23 1050.45,304.72 1053.41,304.23 1056.37,303.73 1059.32,303.25 1062.28,302.77 1065.24,302.29 1068.20,301.82 1071.15,301.36 1074.11,300.90 1077.07,300.45 1080.03,300.00 1082.98,299.55 1085.94,299.11 1088.90,298.68 1091.85,298.25 1094.81,297.83 1097.77,297.41 1100.73,296.99 1103.68,296.58 1106.64,296.18 1109.60,295.78 1112.56,295.38 1115.51,294.99 1118.47,294.60 1121.43,294.22 1124.39,293.84 1127.34,293.47 1130.30,293.10 1133.26,292.73 1136.22,292.37 1139.17,292.01 1142.13,291.66 1145.09,291.31 1148.05,290.96 1151.00,290.62 1153.96,290.28 1156.92,289.95 1159.87,289.62 1162.83,289.29 1165.79,288.97 1168.75,288.65 1171.70,288.34 1174.66,288.02 1177.62,287.72 1180.58,287.41 1183.53,287.11 1186.49,286.81 1189.45,286.52 1192.41,286.23 1195.36,285.94 1198.32,285.65 1201.28,285.37 1204.24,285.09 1207.19,284.82 1210.15,284.55 1213.11,284.28 1216.07,284.01 1219.02,283.75 1221.98,283.49 1224.94,283.23 1227.89,282.98 1230.85,282.72 1233.81,282.48 1236.77,282.23 1239.72,281.99 1242.68,281.75 1245.64,281.51 1248.60,281.28 1251.55,281.04 1254.51,280.81 1257.47,280.59 1260.43,280.36 1263.38,280.14 1266.34,279.92 1269.30,279.70 1272.26,279.49 1275.21,279.28 1278.17,279.07 1281.13,278.86 1284.09,278.66 1287.04,278.45 1290.00,278.25" stroke="#3b82b5" stroke-width="4" fill="none" stroke-linejoin="round" stroke-linecap="round" /><line x1="360" y1="500" x2="360" y2="250" stroke="#397456" stroke-width="2" stroke-linecap="round" stroke-dasharray="7 6" /><text x="360" y="534" text-anchor="middle" font-family="Source Han Sans SC, Microsoft YaHei, sans-serif" font-size="20" font-weight="700" fill="#397456">近界 sₙ</text><line x1="610" y1="500" x2="610" y2="482" stroke="#285b7a" stroke-width="2" stroke-linecap="round" stroke-dasharray="7 6" /><text x="610" y="534" text-anchor="middle" font-family="Source Han Sans SC, Microsoft YaHei, sans-serif" font-size="20" font-weight="700" fill="#285b7a">焦点 s₀</text><line x1="1080" y1="500" x2="1080" y2="250" stroke="#397456" stroke-width="2" stroke-linecap="round" stroke-dasharray="7 6" /><text x="1080" y="534" text-anchor="middle" font-family="Source Han Sans SC, Microsoft YaHei, sans-serif" font-size="20" font-weight="700" fill="#397456">远界 s_f</text><rect x="360" y="555" width="720" height="42" rx="12" fill="#dff5e8" stroke="#78bb90" stroke-width="2" /><text x="720.0" y="584" text-anchor="middle" font-family="Source Han Sans SC, Microsoft YaHei, sans-serif" font-size="21" font-weight="700" fill="#397456">可接受景深区间：c(s) ≤ c₀</text><text x="700" y="650" text-anchor="middle" font-family="Source Han Sans SC, Microsoft YaHei, sans-serif" font-size="20" font-weight="400" fill="#627d98">对焦到超焦距时，右侧交点移到无穷远；曲线仍只在 s₀ 处达到最小</text></svg>