<?xml version='1.0' encoding='utf-8'?>
<svg xmlns="http://www.w3.org/2000/svg" width="1500" height="690" viewBox="0 0 1500 690" role="img" aria-label="ETTR 在饱和约束下提高曝光尺度"><defs><marker id="arrow-blue" markerWidth="10" markerHeight="8" refX="9" refY="4" orient="auto" markerUnits="strokeWidth"><path d="M 0 0 L 10 4 L 0 8 z" fill="#3b82b5" /></marker><marker id="arrow-dark" markerWidth="10" markerHeight="8" refX="9" refY="4" orient="auto" markerUnits="strokeWidth"><path d="M 0 0 L 10 4 L 0 8 z" fill="#334e68" /></marker><marker id="arrow-red" markerWidth="10" markerHeight="8" refX="9" refY="4" orient="auto" markerUnits="strokeWidth"><path d="M 0 0 L 10 4 L 0 8 z" fill="#c85b73" /></marker><marker id="arrow-green" markerWidth="10" markerHeight="8" refX="9" refY="4" orient="auto" markerUnits="strokeWidth"><path d="M 0 0 L 10 4 L 0 8 z" fill="#4d8c6a" /></marker><marker id="arrow-gold" markerWidth="10" markerHeight="8" refX="9" refY="4" orient="auto" markerUnits="strokeWidth"><path d="M 0 0 L 10 4 L 0 8 z" fill="#c58a2d" /></marker><marker id="arrow-purple" markerWidth="10" markerHeight="8" refX="9" refY="4" orient="auto" markerUnits="strokeWidth"><path d="M 0 0 L 10 4 L 0 8 z" fill="#7b4b74" /></marker></defs><rect width="1500" height="690" fill="#fbfdff" /><text x="750.0" y="43" text-anchor="middle" font-family="Source Han Sans SC, Microsoft YaHei, sans-serif" font-size="31" font-weight="700" fill="#102a43">ETTR 是带约束的最大化，不是让直方图无条件碰右</text><text x="250" y="95" text-anchor="middle" font-family="Source Han Sans SC, Microsoft YaHei, sans-serif" font-size="23" font-weight="700" fill="#7b4b74">曝光不足</text><line x1="45" y1="500" x2="455" y2="500" stroke="#334e68" stroke-width="2" stroke-linecap="round" marker-end="url(#arrow-dark)" /><line x1="45" y1="500" x2="45" y2="150" stroke="#334e68" stroke-width="2" stroke-linecap="round" marker-end="url(#arrow-dark)" /><line x1="420" y1="150" x2="420" y2="500" stroke="#c85b73" stroke-width="3" stroke-linecap="round" stroke-dasharray="8 6" /><text x="420" y="135" text-anchor="middle" font-family="Source Han Sans SC, Microsoft YaHei, sans-serif" font-size="16" font-weight="700" fill="#a24862">饱和</text><polyline points="32.54,491.00 33.66,490.19 34.78,489.32 35.91,488.39 37.03,487.38 38.15,486.31 39.28,485.16 40.40,483.92 41.52,482.61 42.65,481.20 43.77,479.71 44.89,478.12 46.02,476.43 47.14,474.63 48.26,472.73 49.39,470.71 50.51,468.58 51.63,466.33 52.76,463.95 53.88,461.45 55.00,458.82 56.13,456.06 57.25,453.16 58.37,450.12 59.49,446.94 60.62,443.61 61.74,440.14 62.86,436.53 63.99,432.76 65.11,428.85 66.23,424.79 67.36,420.59 68.48,416.23 69.60,411.73 70.73,407.09 71.85,402.31 72.97,397.38 74.10,392.33 75.22,387.14 76.34,381.83 77.47,376.40 78.59,370.85 79.71,365.20 80.84,359.45 81.96,353.60 83.08,347.68 84.21,341.68 85.33,335.62 86.45,329.51 87.58,323.36 88.70,317.18 89.82,310.98 90.95,304.78 92.07,298.58 93.19,292.41 94.32,286.27 95.44,280.19 96.56,274.17 97.69,268.23 98.81,262.38 99.93,256.65 101.06,251.04 102.18,245.56 103.30,240.24 104.43,235.09 105.55,230.12 106.67,225.35 107.80,220.79 108.92,216.45 110.04,212.35 111.17,208.49 112.29,204.90 113.41,201.57 114.54,198.53 115.66,195.77 116.78,193.32 117.91,191.17 119.03,189.33 120.15,187.81 121.28,186.62 122.40,185.75 123.52,185.21 124.65,185.00 125.77,185.13 126.89,185.58 128.02,186.37 129.14,187.48 130.26,188.92 131.39,190.68 132.51,192.75 133.63,195.13 134.76,197.81 135.88,200.78 137.00,204.04 138.13,207.57 139.25,211.36 140.37,215.40 141.49,219.68 142.62,224.19 143.74,228.91 144.86,233.83 145.99,238.94 147.11,244.22 148.23,249.65 149.36,255.23 150.48,260.94 151.60,266.76 152.73,272.67 153.85,278.67 154.97,284.74 156.10,290.87 157.22,297.03 158.34,303.21 159.47,309.41 160.59,315.60 161.71,321.78 162.84,327.93 163.96,334.04 165.08,340.09 166.21,346.08 167.33,351.98 168.45,357.80 169.58,363.51 170.70,369.11 171.82,374.58 172.95,379.92 174.07,385.10 175.19,390.12 176.32,394.97 177.44,399.62 178.56,404.06 179.69,408.29 180.81,412.28 181.93,416.01 183.06,419.47 184.18,422.64 185.30,425.49 186.43,428.02 187.55,430.19 188.67,431.98 189.80,433.39 190.92,434.39 192.04,434.96 193.17,435.10 194.29,434.78 195.41,434.02 196.54,432.79 197.66,431.13 198.78,429.02 199.91,426.50 201.03,423.58 202.15,420.32 203.28,416.73 204.40,412.89 205.52,408.84 206.65,404.65 207.77,400.39 208.89,396.13 210.02,391.96 211.14,387.95 212.26,384.19 213.39,380.75 214.51,377.71 215.63,375.14 216.76,373.09 217.88,371.63 219.00,370.79 220.13,370.60 221.25,371.08 222.37,372.24 223.49,374.07 224.62,376.55 225.74,379.65 226.86,383.31 227.99,387.50 229.11,392.15 230.23,397.19 231.36,402.55 232.48,408.16 233.60,413.95 234.73,419.83 235.85,425.74 236.97,431.61 238.10,437.38 239.22,442.99 240.34,448.40 241.47,453.57 242.59,458.46 243.71,463.05 244.84,467.33 245.96,471.27 247.08,474.89 248.21,478.17 249.33,481.14 250.45,483.80 251.58,486.16 252.70,488.25 253.82,490.07 254.95,491.66 256.07,493.04 257.19,494.22 258.32,495.23 259.44,496.08 260.56,496.80 261.69,497.40 262.81,497.90 263.93,498.31 265.06,498.65 266.18,498.93 267.30,499.15 268.43,499.33 269.55,499.47 270.67,499.59 271.80,499.68 272.92,499.75 274.04,499.81 275.17,499.85 276.29,499.89 277.41,499.91 278.54,499.93" stroke="#7b4b74" stroke-width="4" fill="none" stroke-linejoin="round" stroke-linecap="round" /><text x="250" y="555" text-anchor="middle" font-family="Source Han Sans SC, Microsoft YaHei, sans-serif" font-size="17" font-weight="400" fill="#7b4b74">高光安全，但阴影受读出噪声影响更大</text><line x1="500" y1="90" x2="500" y2="590" stroke="#d7e0e7" stroke-width="2" stroke-linecap="round" /><text x="750" y="95" text-anchor="middle" font-family="Source Han Sans SC, Microsoft YaHei, sans-serif" font-size="23" font-weight="700" fill="#4d8c6a">约束内右移</text><line x1="545" y1="500" x2="955" y2="500" stroke="#334e68" stroke-width="2" stroke-linecap="round" marker-end="url(#arrow-dark)" /><line x1="545" y1="500" x2="545" y2="150" stroke="#334e68" stroke-width="2" stroke-linecap="round" marker-end="url(#arrow-dark)" /><line x1="920" y1="150" x2="920" y2="500" stroke="#c85b73" stroke-width="3" stroke-linecap="round" stroke-dasharray="8 6" /><text x="920" y="135" text-anchor="middle" font-family="Source Han Sans SC, Microsoft YaHei, sans-serif" font-size="16" font-weight="700" fill="#a24862">饱和</text><polyline points="596.50,491.00 597.62,490.19 598.74,489.32 599.87,488.39 600.99,487.38 602.11,486.31 603.24,485.16 604.36,483.92 605.48,482.61 606.61,481.20 607.73,479.71 608.85,478.12 609.98,476.43 611.10,474.63 612.22,472.73 613.35,470.71 614.47,468.58 615.59,466.33 616.72,463.95 617.84,461.45 618.96,458.82 620.09,456.06 621.21,453.16 622.33,450.12 623.45,446.94 624.58,443.61 625.70,440.14 626.82,436.53 627.95,432.76 629.07,428.85 630.19,424.79 631.32,420.59 632.44,416.23 633.56,411.73 634.69,407.09 635.81,402.31 636.93,397.38 638.06,392.33 639.18,387.14 640.30,381.83 641.43,376.40 642.55,370.85 643.67,365.20 644.80,359.45 645.92,353.60 647.04,347.68 648.17,341.68 649.29,335.62 650.41,329.51 651.54,323.36 652.66,317.18 653.78,310.98 654.91,304.78 656.03,298.58 657.15,292.41 658.28,286.27 659.40,280.19 660.52,274.17 661.65,268.23 662.77,262.38 663.89,256.65 665.02,251.04 666.14,245.56 667.26,240.24 668.39,235.09 669.51,230.12 670.63,225.35 671.76,220.79 672.88,216.45 674.00,212.35 675.13,208.49 676.25,204.90 677.37,201.57 678.50,198.53 679.62,195.77 680.74,193.32 681.87,191.17 682.99,189.33 684.11,187.81 685.24,186.62 686.36,185.75 687.48,185.21 688.61,185.00 689.73,185.13 690.85,185.58 691.98,186.37 693.10,187.48 694.22,188.92 695.35,190.68 696.47,192.75 697.59,195.13 698.72,197.81 699.84,200.78 700.96,204.04 702.09,207.57 703.21,211.36 704.33,215.40 705.45,219.68 706.58,224.19 707.70,228.91 708.82,233.83 709.95,238.94 711.07,244.22 712.19,249.65 713.32,255.23 714.44,260.94 715.56,266.76 716.69,272.67 717.81,278.67 718.93,284.74 720.06,290.87 721.18,297.03 722.30,303.21 723.43,309.41 724.55,315.60 725.67,321.78 726.80,327.93 727.92,334.04 729.04,340.09 730.17,346.08 731.29,351.98 732.41,357.80 733.54,363.51 734.66,369.11 735.78,374.58 736.91,379.92 738.03,385.10 739.15,390.12 740.28,394.97 741.40,399.62 742.52,404.06 743.65,408.29 744.77,412.28 745.89,416.01 747.02,419.47 748.14,422.64 749.26,425.49 750.39,428.02 751.51,430.19 752.63,431.98 753.76,433.39 754.88,434.39 756.00,434.96 757.13,435.10 758.25,434.78 759.37,434.02 760.50,432.79 761.62,431.13 762.74,429.02 763.87,426.50 764.99,423.58 766.11,420.32 767.24,416.73 768.36,412.89 769.48,408.84 770.61,404.65 771.73,400.39 772.85,396.13 773.98,391.96 775.10,387.95 776.22,384.19 777.35,380.75 778.47,377.71 779.59,375.14 780.72,373.09 781.84,371.63 782.96,370.79 784.09,370.60 785.21,371.08 786.33,372.24 787.45,374.07 788.58,376.55 789.70,379.65 790.82,383.31 791.95,387.50 793.07,392.15 794.19,397.19 795.32,402.55 796.44,408.16 797.56,413.95 798.69,419.83 799.81,425.74 800.93,431.61 802.06,437.38 803.18,442.99 804.30,448.40 805.43,453.57 806.55,458.46 807.67,463.05 808.80,467.33 809.92,471.27 811.04,474.89 812.17,478.17 813.29,481.14 814.41,483.80 815.54,486.16 816.66,488.25 817.78,490.07 818.91,491.66 820.03,493.04 821.15,494.22 822.28,495.23 823.40,496.08 824.52,496.80 825.65,497.40 826.77,497.90 827.89,498.31 829.02,498.65 830.14,498.93 831.26,499.15 832.39,499.33 833.51,499.47 834.63,499.59 835.76,499.68 836.88,499.75 838.00,499.81 839.13,499.85 840.25,499.89 841.37,499.91 842.50,499.93" stroke="#4d8c6a" stroke-width="4" fill="none" stroke-linejoin="round" stroke-linecap="round" /><text x="750" y="555" text-anchor="middle" font-family="Source Han Sans SC, Microsoft YaHei, sans-serif" font-size="17" font-weight="700" fill="#397456">阴影电子数增加，重要高光仍有余量</text><line x1="1000" y1="90" x2="1000" y2="590" stroke="#d7e0e7" stroke-width="2" stroke-linecap="round" /><text x="1250" y="95" text-anchor="middle" font-family="Source Han Sans SC, Microsoft YaHei, sans-serif" font-size="23" font-weight="700" fill="#c85b73">越界裁切</text><line x1="1045" y1="500" x2="1455" y2="500" stroke="#334e68" stroke-width="2" stroke-linecap="round" marker-end="url(#arrow-dark)" /><line x1="1045" y1="500" x2="1045" y2="150" stroke="#334e68" stroke-width="2" stroke-linecap="round" marker-end="url(#arrow-dark)" /><line x1="1420" y1="150" x2="1420" y2="500" stroke="#c85b73" stroke-width="3" stroke-linecap="round" stroke-dasharray="8 6" /><text x="1420" y="135" text-anchor="middle" font-family="Source Han Sans SC, Microsoft YaHei, sans-serif" font-size="16" font-weight="700" fill="#a24862">饱和</text><polyline points="1149.80,491.00 1150.92,490.19 1152.04,489.32 1153.17,488.39 1154.29,487.38 1155.41,486.31 1156.54,485.16 1157.66,483.92 1158.78,482.61 1159.91,481.20 1161.03,479.71 1162.15,478.12 1163.28,476.43 1164.40,474.63 1165.52,472.73 1166.65,470.71 1167.77,468.58 1168.89,466.33 1170.02,463.95 1171.14,461.45 1172.26,458.82 1173.39,456.06 1174.51,453.16 1175.63,450.12 1176.75,446.94 1177.88,443.61 1179.00,440.14 1180.12,436.53 1181.25,432.76 1182.37,428.85 1183.49,424.79 1184.62,420.59 1185.74,416.23 1186.86,411.73 1187.99,407.09 1189.11,402.31 1190.23,397.38 1191.36,392.33 1192.48,387.14 1193.60,381.83 1194.73,376.40 1195.85,370.85 1196.97,365.20 1198.10,359.45 1199.22,353.60 1200.34,347.68 1201.47,341.68 1202.59,335.62 1203.71,329.51 1204.84,323.36 1205.96,317.18 1207.08,310.98 1208.21,304.78 1209.33,298.58 1210.45,292.41 1211.58,286.27 1212.70,280.19 1213.82,274.17 1214.95,268.23 1216.07,262.38 1217.19,256.65 1218.32,251.04 1219.44,245.56 1220.56,240.24 1221.69,235.09 1222.81,230.12 1223.93,225.35 1225.06,220.79 1226.18,216.45 1227.30,212.35 1228.43,208.49 1229.55,204.90 1230.67,201.57 1231.80,198.53 1232.92,195.77 1234.04,193.32 1235.17,191.17 1236.29,189.33 1237.41,187.81 1238.54,186.62 1239.66,185.75 1240.78,185.21 1241.91,185.00 1243.03,185.13 1244.15,185.58 1245.28,186.37 1246.40,187.48 1247.52,188.92 1248.65,190.68 1249.77,192.75 1250.89,195.13 1252.02,197.81 1253.14,200.78 1254.26,204.04 1255.39,207.57 1256.51,211.36 1257.63,215.40 1258.75,219.68 1259.88,224.19 1261.00,228.91 1262.12,233.83 1263.25,238.94 1264.37,244.22 1265.49,249.65 1266.62,255.23 1267.74,260.94 1268.86,266.76 1269.99,272.67 1271.11,278.67 1272.23,284.74 1273.36,290.87 1274.48,297.03 1275.60,303.21 1276.73,309.41 1277.85,315.60 1278.97,321.78 1280.10,327.93 1281.22,334.04 1282.34,340.09 1283.47,346.08 1284.59,351.98 1285.71,357.80 1286.84,363.51 1287.96,369.11 1289.08,374.58 1290.21,379.92 1291.33,385.10 1292.45,390.12 1293.58,394.97 1294.70,399.62 1295.82,404.06 1296.95,408.29 1298.07,412.28 1299.19,416.01 1300.32,419.47 1301.44,422.64 1302.56,425.49 1303.69,428.02 1304.81,430.19 1305.93,431.98 1307.06,433.39 1308.18,434.39 1309.30,434.96 1310.43,435.10 1311.55,434.78 1312.67,434.02 1313.80,432.79 1314.92,431.13 1316.04,429.02 1317.17,426.50 1318.29,423.58 1319.41,420.32 1320.54,416.73 1321.66,412.89 1322.78,408.84 1323.91,404.65 1325.03,400.39 1326.15,396.13 1327.28,391.96 1328.40,387.95 1329.52,384.19 1330.65,380.75 1331.77,377.71 1332.89,375.14 1334.02,373.09 1335.14,371.63 1336.26,370.79 1337.39,370.60 1338.51,371.08 1339.63,372.24 1340.75,374.07 1341.88,376.55 1343.00,379.65 1344.12,383.31 1345.25,387.50 1346.37,392.15 1347.49,397.19 1348.62,402.55 1349.74,408.16 1350.86,413.95 1351.99,419.83 1353.11,425.74 1354.23,431.61 1355.36,437.38 1356.48,442.99 1357.60,448.40 1358.73,453.57 1359.85,458.46 1360.97,463.05 1362.10,467.33 1363.22,471.27 1364.34,474.89 1365.47,478.17 1366.59,481.14 1367.71,483.80 1368.84,486.16 1369.96,488.25 1371.08,490.07 1372.21,491.66 1373.33,493.04 1374.45,494.22 1375.58,495.23 1376.70,496.08 1377.82,496.80 1378.95,497.40 1380.07,497.90 1381.19,498.31 1382.32,498.65 1383.44,498.93 1384.56,499.15 1385.69,499.33 1386.81,499.47 1387.93,499.59 1389.06,499.68 1390.18,499.75 1391.30,499.81 1392.43,499.85 1393.55,499.89 1394.67,499.91 1395.80,499.93" stroke="#c85b73" stroke-width="4" fill="none" stroke-linejoin="round" stroke-linecap="round" /><rect x="1420" y="195" width="35" height="305" fill="#f8dce3" fill-opacity=".65" /><text x="1410" y="245" text-anchor="end" font-family="Source Han Sans SC, Microsoft YaHei, sans-serif" font-size="16" font-weight="700" fill="#a24862">重要高光丢失</text><text x="750.0" y="635" text-anchor="middle" font-family="Source Han Sans SC, Microsoft YaHei, sans-serif" font-size="20" font-weight="400" fill="#627d98">还必须满足运动、景深、衍射、闪烁、温升和测光不确定度等约束</text></svg>