<?xml version='1.0' encoding='utf-8'?>
<svg xmlns="http://www.w3.org/2000/svg" width="1450" height="720" viewBox="0 0 1450 720" role="img" aria-label="光圈值快门值与 EV 的对数格点"><defs><marker id="arrow-blue" markerWidth="10" markerHeight="8" refX="9" refY="4" orient="auto" markerUnits="strokeWidth"><path d="M 0 0 L 10 4 L 0 8 z" fill="#3b82b5" /></marker><marker id="arrow-dark" markerWidth="10" markerHeight="8" refX="9" refY="4" orient="auto" markerUnits="strokeWidth"><path d="M 0 0 L 10 4 L 0 8 z" fill="#334e68" /></marker><marker id="arrow-red" markerWidth="10" markerHeight="8" refX="9" refY="4" orient="auto" markerUnits="strokeWidth"><path d="M 0 0 L 10 4 L 0 8 z" fill="#c85b73" /></marker><marker id="arrow-green" markerWidth="10" markerHeight="8" refX="9" refY="4" orient="auto" markerUnits="strokeWidth"><path d="M 0 0 L 10 4 L 0 8 z" fill="#4d8c6a" /></marker></defs><rect width="1450" height="720" fill="#fbfdff" /><text x="725.0" y="43" text-anchor="middle" font-family="Source Han Sans SC, Microsoft YaHei, sans-serif" font-size="31" font-weight="700" fill="#102a43">APEX 把乘法曝光关系变成加法格点</text><line x1="180" y1="610" x2="1320" y2="610" stroke="#334e68" stroke-width="2" stroke-linecap="round" marker-end="url(#arrow-dark)" /><line x1="180" y1="610" x2="180" y2="130" stroke="#334e68" stroke-width="2" stroke-linecap="round" marker-end="url(#arrow-dark)" /><line x1="180.0" y1="130" x2="180.0" y2="610" stroke="#dbe3e9" stroke-width="1.4" stroke-linecap="round" /><text x="180.0" y="645" text-anchor="middle" font-family="Source Han Sans SC, Microsoft YaHei, sans-serif" font-size="17" font-weight="400" fill="#627d98">1/32</text><text x="180.0" y="671" text-anchor="middle" font-family="Source Han Sans SC, Microsoft YaHei, sans-serif" font-size="14" font-weight="400" fill="#8aa0b2">Tᵥ=5</text><line x1="370.0" y1="130" x2="370.0" y2="610" stroke="#dbe3e9" stroke-width="1.4" stroke-linecap="round" /><text x="370.0" y="645" text-anchor="middle" font-family="Source Han Sans SC, Microsoft YaHei, sans-serif" font-size="17" font-weight="400" fill="#627d98">1/64</text><text x="370.0" y="671" text-anchor="middle" font-family="Source Han Sans SC, Microsoft YaHei, sans-serif" font-size="14" font-weight="400" fill="#8aa0b2">Tᵥ=6</text><line x1="560.0" y1="130" x2="560.0" y2="610" stroke="#dbe3e9" stroke-width="1.4" stroke-linecap="round" /><text x="560.0" y="645" text-anchor="middle" font-family="Source Han Sans SC, Microsoft YaHei, sans-serif" font-size="17" font-weight="400" fill="#627d98">1/128</text><text x="560.0" y="671" text-anchor="middle" font-family="Source Han Sans SC, Microsoft YaHei, sans-serif" font-size="14" font-weight="400" fill="#8aa0b2">Tᵥ=7</text><line x1="750.0" y1="130" x2="750.0" y2="610" stroke="#dbe3e9" stroke-width="1.4" stroke-linecap="round" /><text x="750.0" y="645" text-anchor="middle" font-family="Source Han Sans SC, Microsoft YaHei, sans-serif" font-size="17" font-weight="400" fill="#627d98">1/256</text><text x="750.0" y="671" text-anchor="middle" font-family="Source Han Sans SC, Microsoft YaHei, sans-serif" font-size="14" font-weight="400" fill="#8aa0b2">Tᵥ=8</text><line x1="940.0" y1="130" x2="940.0" y2="610" stroke="#dbe3e9" stroke-width="1.4" stroke-linecap="round" /><text x="940.0" y="645" text-anchor="middle" font-family="Source Han Sans SC, Microsoft YaHei, sans-serif" font-size="17" font-weight="400" fill="#627d98">1/512</text><text x="940.0" y="671" text-anchor="middle" font-family="Source Han Sans SC, Microsoft YaHei, sans-serif" font-size="14" font-weight="400" fill="#8aa0b2">Tᵥ=9</text><line x1="1130.0" y1="130" x2="1130.0" y2="610" stroke="#dbe3e9" stroke-width="1.4" stroke-linecap="round" /><text x="1130.0" y="645" text-anchor="middle" font-family="Source Han Sans SC, Microsoft YaHei, sans-serif" font-size="17" font-weight="400" fill="#627d98">1/1024</text><text x="1130.0" y="671" text-anchor="middle" font-family="Source Han Sans SC, Microsoft YaHei, sans-serif" font-size="14" font-weight="400" fill="#8aa0b2">Tᵥ=10</text><line x1="1320.0" y1="130" x2="1320.0" y2="610" stroke="#dbe3e9" stroke-width="1.4" stroke-linecap="round" /><text x="1320.0" y="645" text-anchor="middle" font-family="Source Han Sans SC, Microsoft YaHei, sans-serif" font-size="17" font-weight="400" fill="#627d98">1/2048</text><text x="1320.0" y="671" text-anchor="middle" font-family="Source Han Sans SC, Microsoft YaHei, sans-serif" font-size="14" font-weight="400" fill="#8aa0b2">Tᵥ=11</text><line x1="180" y1="610.0" x2="1320" y2="610.0" stroke="#dbe3e9" stroke-width="1.4" stroke-linecap="round" /><text x="154" y="616.0" text-anchor="end" font-family="Source Han Sans SC, Microsoft YaHei, sans-serif" font-size="17" font-weight="400" fill="#627d98">f/1.4</text><line x1="180" y1="541.4285714285714" x2="1320" y2="541.4285714285714" stroke="#dbe3e9" stroke-width="1.4" stroke-linecap="round" /><text x="154" y="547.4285714285714" text-anchor="end" font-family="Source Han Sans SC, Microsoft YaHei, sans-serif" font-size="17" font-weight="400" fill="#627d98">f/2</text><line x1="180" y1="472.8571428571429" x2="1320" y2="472.8571428571429" stroke="#dbe3e9" stroke-width="1.4" stroke-linecap="round" /><text x="154" y="478.8571428571429" text-anchor="end" font-family="Source Han Sans SC, Microsoft YaHei, sans-serif" font-size="17" font-weight="400" fill="#627d98">f/2.8</text><line x1="180" y1="404.2857142857143" x2="1320" y2="404.2857142857143" stroke="#dbe3e9" stroke-width="1.4" stroke-linecap="round" /><text x="154" y="410.2857142857143" text-anchor="end" font-family="Source Han Sans SC, Microsoft YaHei, sans-serif" font-size="17" font-weight="400" fill="#627d98">f/4</text><line x1="180" y1="335.7142857142857" x2="1320" y2="335.7142857142857" stroke="#dbe3e9" stroke-width="1.4" stroke-linecap="round" /><text x="154" y="341.7142857142857" text-anchor="end" font-family="Source Han Sans SC, Microsoft YaHei, sans-serif" font-size="17" font-weight="400" fill="#627d98">f/5.6</text><line x1="180" y1="267.14285714285717" x2="1320" y2="267.14285714285717" stroke="#dbe3e9" stroke-width="1.4" stroke-linecap="round" /><text x="154" y="273.14285714285717" text-anchor="end" font-family="Source Han Sans SC, Microsoft YaHei, sans-serif" font-size="17" font-weight="400" fill="#627d98">f/8</text><line x1="180" y1="198.57142857142856" x2="1320" y2="198.57142857142856" stroke="#dbe3e9" stroke-width="1.4" stroke-linecap="round" /><text x="154" y="204.57142857142856" text-anchor="end" font-family="Source Han Sans SC, Microsoft YaHei, sans-serif" font-size="17" font-weight="400" fill="#627d98">f/11</text><line x1="180" y1="130.0" x2="1320" y2="130.0" stroke="#dbe3e9" stroke-width="1.4" stroke-linecap="round" /><text x="154" y="136.0" text-anchor="end" font-family="Source Han Sans SC, Microsoft YaHei, sans-serif" font-size="17" font-weight="400" fill="#627d98">f/16</text><polyline points="180.00,404.29 189.50,407.71 199.00,411.14 208.50,414.57 218.00,418.00 227.50,421.43 237.00,424.86 246.50,428.29 256.00,431.71 265.50,435.14 275.00,438.57 284.50,442.00 294.00,445.43 303.50,448.86 313.00,452.29 322.50,455.71 332.00,459.14 341.50,462.57 351.00,466.00 360.50,469.43 370.00,472.86 379.50,476.29 389.00,479.71 398.50,483.14 408.00,486.57 417.50,490.00 427.00,493.43 436.50,496.86 446.00,500.29 455.50,503.71 465.00,507.14 474.50,510.57 484.00,514.00 493.50,517.43 503.00,520.86 512.50,524.29 522.00,527.71 531.50,531.14 541.00,534.57 550.50,538.00 560.00,541.43 569.50,544.86 579.00,548.29 588.50,551.71 598.00,555.14 607.50,558.57 617.00,562.00 626.50,565.43 636.00,568.86 645.50,572.29 655.00,575.71 664.50,579.14 674.00,582.57 683.50,586.00 693.00,589.43 702.50,592.86 712.00,596.29 721.50,599.71 731.00,603.14 740.50,606.57 750.00,610.00" stroke="#9a7bb8" stroke-width="5" fill="none" stroke-linejoin="round" stroke-linecap="round" /><text x="765.0" y="596.0" text-anchor="end" font-family="Source Han Sans SC, Microsoft YaHei, sans-serif" font-size="18" font-weight="700" fill="#9a7bb8">EV 9</text><polyline points="180.00,267.14 189.50,270.57 199.00,274.00 208.50,277.43 218.00,280.86 227.50,284.29 237.00,287.71 246.50,291.14 256.00,294.57 265.50,298.00 275.00,301.43 284.50,304.86 294.00,308.29 303.50,311.71 313.00,315.14 322.50,318.57 332.00,322.00 341.50,325.43 351.00,328.86 360.50,332.29 370.00,335.71 379.50,339.14 389.00,342.57 398.50,346.00 408.00,349.43 417.50,352.86 427.00,356.29 436.50,359.71 446.00,363.14 455.50,366.57 465.00,370.00 474.50,373.43 484.00,376.86 493.50,380.29 503.00,383.71 512.50,387.14 522.00,390.57 531.50,394.00 541.00,397.43 550.50,400.86 560.00,404.29 569.50,407.71 579.00,411.14 588.50,414.57 598.00,418.00 607.50,421.43 617.00,424.86 626.50,428.29 636.00,431.71 645.50,435.14 655.00,438.57 664.50,442.00 674.00,445.43 683.50,448.86 693.00,452.29 702.50,455.71 712.00,459.14 721.50,462.57 731.00,466.00 740.50,469.43 750.00,472.86 759.50,476.29 769.00,479.71 778.50,483.14 788.00,486.57 797.50,490.00 807.00,493.43 816.50,496.86 826.00,500.29 835.50,503.71 845.00,507.14 854.50,510.57 864.00,514.00 873.50,517.43 883.00,520.86 892.50,524.29 902.00,527.71 911.50,531.14 921.00,534.57 930.50,538.00 940.00,541.43 949.50,544.86 959.00,548.29 968.50,551.71 978.00,555.14 987.50,558.57 997.00,562.00 1006.50,565.43 1016.00,568.86 1025.50,572.29 1035.00,575.71 1044.50,579.14 1054.00,582.57 1063.50,586.00 1073.00,589.43 1082.50,592.86 1092.00,596.29 1101.50,599.71 1111.00,603.14 1120.50,606.57 1130.00,610.00" stroke="#3b82b5" stroke-width="5" fill="none" stroke-linejoin="round" stroke-linecap="round" /><text x="1145.0" y="596.0" text-anchor="end" font-family="Source Han Sans SC, Microsoft YaHei, sans-serif" font-size="18" font-weight="700" fill="#3b82b5">EV 11</text><polyline points="180.00,130.00 189.50,133.43 199.00,136.86 208.50,140.29 218.00,143.71 227.50,147.14 237.00,150.57 246.50,154.00 256.00,157.43 265.50,160.86 275.00,164.29 284.50,167.71 294.00,171.14 303.50,174.57 313.00,178.00 322.50,181.43 332.00,184.86 341.50,188.29 351.00,191.71 360.50,195.14 370.00,198.57 379.50,202.00 389.00,205.43 398.50,208.86 408.00,212.29 417.50,215.71 427.00,219.14 436.50,222.57 446.00,226.00 455.50,229.43 465.00,232.86 474.50,236.29 484.00,239.71 493.50,243.14 503.00,246.57 512.50,250.00 522.00,253.43 531.50,256.86 541.00,260.29 550.50,263.71 560.00,267.14 569.50,270.57 579.00,274.00 588.50,277.43 598.00,280.86 607.50,284.29 617.00,287.71 626.50,291.14 636.00,294.57 645.50,298.00 655.00,301.43 664.50,304.86 674.00,308.29 683.50,311.71 693.00,315.14 702.50,318.57 712.00,322.00 721.50,325.43 731.00,328.86 740.50,332.29 750.00,335.71 759.50,339.14 769.00,342.57 778.50,346.00 788.00,349.43 797.50,352.86 807.00,356.29 816.50,359.71 826.00,363.14 835.50,366.57 845.00,370.00 854.50,373.43 864.00,376.86 873.50,380.29 883.00,383.71 892.50,387.14 902.00,390.57 911.50,394.00 921.00,397.43 930.50,400.86 940.00,404.29 949.50,407.71 959.00,411.14 968.50,414.57 978.00,418.00 987.50,421.43 997.00,424.86 1006.50,428.29 1016.00,431.71 1025.50,435.14 1035.00,438.57 1044.50,442.00 1054.00,445.43 1063.50,448.86 1073.00,452.29 1082.50,455.71 1092.00,459.14 1101.50,462.57 1111.00,466.00 1120.50,469.43 1130.00,472.86 1139.50,476.29 1149.00,479.71 1158.50,483.14 1168.00,486.57 1177.50,490.00 1187.00,493.43 1196.50,496.86 1206.00,500.29 1215.50,503.71 1225.00,507.14 1234.50,510.57 1244.00,514.00 1253.50,517.43 1263.00,520.86 1272.50,524.29 1282.00,527.71 1291.50,531.14 1301.00,534.57 1310.50,538.00 1320.00,541.43" stroke="#4d8c6a" stroke-width="5" fill="none" stroke-linejoin="round" stroke-linecap="round" /><text x="1315" y="527.4285714285714" text-anchor="end" font-family="Source Han Sans SC, Microsoft YaHei, sans-serif" font-size="18" font-weight="700" fill="#4d8c6a">EV 13</text><polyline points="560.00,130.00 569.50,133.43 579.00,136.86 588.50,140.29 598.00,143.71 607.50,147.14 617.00,150.57 626.50,154.00 636.00,157.43 645.50,160.86 655.00,164.29 664.50,167.71 674.00,171.14 683.50,174.57 693.00,178.00 702.50,181.43 712.00,184.86 721.50,188.29 731.00,191.71 740.50,195.14 750.00,198.57 759.50,202.00 769.00,205.43 778.50,208.86 788.00,212.29 797.50,215.71 807.00,219.14 816.50,222.57 826.00,226.00 835.50,229.43 845.00,232.86 854.50,236.29 864.00,239.71 873.50,243.14 883.00,246.57 892.50,250.00 902.00,253.43 911.50,256.86 921.00,260.29 930.50,263.71 940.00,267.14 949.50,270.57 959.00,274.00 968.50,277.43 978.00,280.86 987.50,284.29 997.00,287.71 1006.50,291.14 1016.00,294.57 1025.50,298.00 1035.00,301.43 1044.50,304.86 1054.00,308.29 1063.50,311.71 1073.00,315.14 1082.50,318.57 1092.00,322.00 1101.50,325.43 1111.00,328.86 1120.50,332.29 1130.00,335.71 1139.50,339.14 1149.00,342.57 1158.50,346.00 1168.00,349.43 1177.50,352.86 1187.00,356.29 1196.50,359.71 1206.00,363.14 1215.50,366.57 1225.00,370.00 1234.50,373.43 1244.00,376.86 1253.50,380.29 1263.00,383.71 1272.50,387.14 1282.00,390.57 1291.50,394.00 1301.00,397.43 1310.50,400.86 1320.00,404.29" stroke="#c58a2d" stroke-width="5" fill="none" stroke-linejoin="round" stroke-linecap="round" /><text x="1315" y="390.2857142857143" text-anchor="end" font-family="Source Han Sans SC, Microsoft YaHei, sans-serif" font-size="18" font-weight="700" fill="#c58a2d">EV 15</text><polyline points="940.00,130.00 949.50,133.43 959.00,136.86 968.50,140.29 978.00,143.71 987.50,147.14 997.00,150.57 1006.50,154.00 1016.00,157.43 1025.50,160.86 1035.00,164.29 1044.50,167.71 1054.00,171.14 1063.50,174.57 1073.00,178.00 1082.50,181.43 1092.00,184.86 1101.50,188.29 1111.00,191.71 1120.50,195.14 1130.00,198.57 1139.50,202.00 1149.00,205.43 1158.50,208.86 1168.00,212.29 1177.50,215.71 1187.00,219.14 1196.50,222.57 1206.00,226.00 1215.50,229.43 1225.00,232.86 1234.50,236.29 1244.00,239.71 1253.50,243.14 1263.00,246.57 1272.50,250.00 1282.00,253.43 1291.50,256.86 1301.00,260.29 1310.50,263.71 1320.00,267.14" stroke="#c85b73" stroke-width="5" fill="none" stroke-linejoin="round" stroke-linecap="round" /><text x="1315" y="253.14285714285717" text-anchor="end" font-family="Source Han Sans SC, Microsoft YaHei, sans-serif" font-size="18" font-weight="700" fill="#c85b73">EV 17</text><circle cx="180.0" cy="130.0" r="8" fill="#4d8c6a" /><circle cx="370.0" cy="198.57142857142856" r="8" fill="#4d8c6a" /><circle cx="560.0" cy="267.14285714285717" r="8" fill="#4d8c6a" /><circle cx="750.0" cy="335.7142857142857" r="8" fill="#4d8c6a" /><circle cx="940.0" cy="404.2857142857143" r="8" fill="#4d8c6a" /><circle cx="1130.0" cy="472.8571428571429" r="8" fill="#4d8c6a" /><circle cx="1320.0" cy="541.4285714285714" r="8" fill="#4d8c6a" /><text x="725.0" y="680" text-anchor="middle" font-family="Source Han Sans SC, Microsoft YaHei, sans-serif" font-size="21" font-weight="400" fill="#7b4b74">沿同一条 EV 线移动：快门少一档，光圈多一档；H 近似不变，但运动与景深会改变</text></svg>