<?xml version='1.0' encoding='utf-8'?>
<svg xmlns="http://www.w3.org/2000/svg" width="1500" height="800" viewBox="0 0 1500 800" role="img" aria-label="人像布光中的光位面部法线阴影和眼神光"><defs><marker id="arrow-blue" markerWidth="10" markerHeight="8" refX="9" refY="4" orient="auto" markerUnits="strokeWidth"><path d="M 0 0 L 10 4 L 0 8 z" fill="#3b82b5" /></marker><marker id="arrow-dark" markerWidth="10" markerHeight="8" refX="9" refY="4" orient="auto" markerUnits="strokeWidth"><path d="M 0 0 L 10 4 L 0 8 z" fill="#334e68" /></marker><marker id="arrow-red" markerWidth="10" markerHeight="8" refX="9" refY="4" orient="auto" markerUnits="strokeWidth"><path d="M 0 0 L 10 4 L 0 8 z" fill="#c85b73" /></marker><marker id="arrow-green" markerWidth="10" markerHeight="8" refX="9" refY="4" orient="auto" markerUnits="strokeWidth"><path d="M 0 0 L 10 4 L 0 8 z" fill="#4d8c6a" /></marker><marker id="arrow-gold" markerWidth="10" markerHeight="8" refX="9" refY="4" orient="auto" markerUnits="strokeWidth"><path d="M 0 0 L 10 4 L 0 8 z" fill="#c58a2d" /></marker><marker id="arrow-purple" markerWidth="10" markerHeight="8" refX="9" refY="4" orient="auto" markerUnits="strokeWidth"><path d="M 0 0 L 10 4 L 0 8 z" fill="#7b4b74" /></marker></defs><rect width="1500" height="800" fill="#fbfdff" /><text x="750" y="43" text-anchor="middle" font-family="Source Han Sans SC, Microsoft YaHei, sans-serif" font-size="30" font-weight="700" fill="#102a43">经典布光名称只是几何结果：光位改变面部法线的受光与投影阴影</text><rect x="45" y="105" width="330" height="545" rx="16" fill="#ffffff" stroke="#b9c7d3" stroke-width="2.5" /><text x="210.0" y="147" text-anchor="middle" font-family="Source Han Sans SC, Microsoft YaHei, sans-serif" font-size="20" font-weight="700" fill="#102a43">顺光 / 正面</text><text x="210.0" y="181" text-anchor="middle" font-family="Source Han Sans SC, Microsoft YaHei, sans-serif" font-size="15" font-weight="400" fill="#486581">阴影少，起伏变弱</text><defs><clipPath id="face-clip-0"><ellipse cx="210" cy="420" rx="92" ry="125" /></clipPath></defs><ellipse cx="210" cy="420" rx="92" ry="125" fill="#d9a68f" stroke="#8b6758" stroke-width="3" /><ellipse cx="210" cy="400" rx="70" ry="100" fill="#ffe4c7" fill-opacity=".48" clip-path="url(#face-clip-0)" /><ellipse cx="177" cy="395" rx="9" ry="5" fill="#334e68" /><ellipse cx="243" cy="395" rx="9" ry="5" fill="#334e68" /><line x1="210" y1="405" x2="200" y2="445" stroke="#8b6758" stroke-width="3" stroke-linecap="round" /><path d="M 185 478 Q 210 494 235 478" fill="none" stroke="#8b6758" stroke-width="3" /><circle cx="210" cy="210" r="21" fill="#f1c75b" /><line x1="210" y1="234" x2="210" y2="315" stroke="#c58a2d" stroke-width="4" stroke-linecap="round" marker-end="url(#arrow-gold)" /><text x="210" y="590" text-anchor="middle" font-family="Source Han Sans SC, Microsoft YaHei, sans-serif" font-size="14" font-weight="400" fill="#486581">眼神光位置随光源方向移动</text><rect x="405" y="105" width="330" height="545" rx="16" fill="#ffffff" stroke="#b9c7d3" stroke-width="2.5" /><text x="570.0" y="147" text-anchor="middle" font-family="Source Han Sans SC, Microsoft YaHei, sans-serif" font-size="20" font-weight="700" fill="#102a43">侧前上方</text><text x="570.0" y="181" text-anchor="middle" font-family="Source Han Sans SC, Microsoft YaHei, sans-serif" font-size="15" font-weight="400" fill="#486581">面颊塑形，鼻影落向侧下</text><defs><clipPath id="face-clip-1"><ellipse cx="570" cy="420" rx="92" ry="125" /></clipPath></defs><ellipse cx="570" cy="420" rx="92" ry="125" fill="#d9a68f" stroke="#8b6758" stroke-width="3" /><rect x="570" y="285" width="110" height="280" fill="#334e68" fill-opacity=".38" clip-path="url(#face-clip-1)" /><path d="M 563 410 L 600 438 L 570 455 Z" fill="#ffe7c2" fill-opacity=".80" /><ellipse cx="537" cy="395" rx="9" ry="5" fill="#334e68" /><ellipse cx="603" cy="395" rx="9" ry="5" fill="#334e68" /><line x1="570" y1="405" x2="560" y2="445" stroke="#8b6758" stroke-width="3" stroke-linecap="round" /><path d="M 545 478 Q 570 494 595 478" fill="none" stroke="#8b6758" stroke-width="3" /><circle cx="470" cy="215" r="21" fill="#f1c75b" /><line x1="470" y1="239" x2="570" y2="315" stroke="#c58a2d" stroke-width="4" stroke-linecap="round" marker-end="url(#arrow-gold)" /><text x="570" y="590" text-anchor="middle" font-family="Source Han Sans SC, Microsoft YaHei, sans-serif" font-size="14" font-weight="400" fill="#486581">眼神光位置随光源方向移动</text><rect x="765" y="105" width="330" height="545" rx="16" fill="#ffffff" stroke="#b9c7d3" stroke-width="2.5" /><text x="930.0" y="147" text-anchor="middle" font-family="Source Han Sans SC, Microsoft YaHei, sans-serif" font-size="20" font-weight="700" fill="#102a43">正前上方</text><text x="930.0" y="181" text-anchor="middle" font-family="Source Han Sans SC, Microsoft YaHei, sans-serif" font-size="15" font-weight="400" fill="#486581">鼻影向下，下颌分离</text><defs><clipPath id="face-clip-2"><ellipse cx="930" cy="420" rx="92" ry="125" /></clipPath></defs><ellipse cx="930" cy="420" rx="92" ry="125" fill="#d9a68f" stroke="#8b6758" stroke-width="3" /><ellipse cx="930" cy="460" rx="45" ry="80" fill="#334e68" fill-opacity=".27" clip-path="url(#face-clip-2)" /><ellipse cx="897" cy="395" rx="9" ry="5" fill="#334e68" /><ellipse cx="963" cy="395" rx="9" ry="5" fill="#334e68" /><line x1="930" y1="405" x2="920" y2="445" stroke="#8b6758" stroke-width="3" stroke-linecap="round" /><path d="M 905 478 Q 930 494 955 478" fill="none" stroke="#8b6758" stroke-width="3" /><circle cx="930" cy="195" r="21" fill="#f1c75b" /><line x1="930" y1="219" x2="930" y2="315" stroke="#c58a2d" stroke-width="4" stroke-linecap="round" marker-end="url(#arrow-gold)" /><text x="930" y="590" text-anchor="middle" font-family="Source Han Sans SC, Microsoft YaHei, sans-serif" font-size="14" font-weight="400" fill="#486581">眼神光位置随光源方向移动</text><rect x="1125" y="105" width="330" height="545" rx="16" fill="#ffffff" stroke="#b9c7d3" stroke-width="2.5" /><text x="1290.0" y="147" text-anchor="middle" font-family="Source Han Sans SC, Microsoft YaHei, sans-serif" font-size="20" font-weight="700" fill="#102a43">侧光</text><text x="1290.0" y="181" text-anchor="middle" font-family="Source Han Sans SC, Microsoft YaHei, sans-serif" font-size="15" font-weight="400" fill="#486581">明暗分割，纹理与轮廓强</text><defs><clipPath id="face-clip-3"><ellipse cx="1290" cy="420" rx="92" ry="125" /></clipPath></defs><ellipse cx="1290" cy="420" rx="92" ry="125" fill="#d9a68f" stroke="#8b6758" stroke-width="3" /><rect x="1290" y="280" width="110" height="290" fill="#243b53" fill-opacity=".58" clip-path="url(#face-clip-3)" /><ellipse cx="1257" cy="395" rx="9" ry="5" fill="#334e68" /><ellipse cx="1323" cy="395" rx="9" ry="5" fill="#334e68" /><line x1="1290" y1="405" x2="1280" y2="445" stroke="#8b6758" stroke-width="3" stroke-linecap="round" /><path d="M 1265 478 Q 1290 494 1315 478" fill="none" stroke="#8b6758" stroke-width="3" /><circle cx="1180" cy="360" r="21" fill="#f1c75b" /><line x1="1180" y1="384" x2="1290" y2="315" stroke="#c58a2d" stroke-width="4" stroke-linecap="round" marker-end="url(#arrow-gold)" /><text x="1290" y="590" text-anchor="middle" font-family="Source Han Sans SC, Microsoft YaHei, sans-serif" font-size="14" font-weight="400" fill="#486581">眼神光位置随光源方向移动</text><rect x="250" y="700" width="1000" height="60" rx="16" fill="#edf8f2" stroke="#9fd6b7" stroke-width="2.5" /><text x="750.0" y="742" text-anchor="middle" font-family="Source Han Sans SC, Microsoft YaHei, sans-serif" font-size="18" font-weight="700" fill="#397456">先观察高光、鼻影、面颊梯度与背景分离，再决定是否需要柔化、补光或移动机位</text></svg>