<?xml version='1.0' encoding='utf-8'?>
<svg xmlns="http://www.w3.org/2000/svg" width="1500" height="720" viewBox="0 0 1500 720" role="img" aria-label="场景曝光范围映射到SDR与HDR显示亮度范围"><defs><marker id="arrow-blue" markerWidth="10" markerHeight="8" refX="9" refY="4" orient="auto" markerUnits="strokeWidth"><path d="M 0 0 L 10 4 L 0 8 z" fill="#3b82b5" /></marker><marker id="arrow-dark" markerWidth="10" markerHeight="8" refX="9" refY="4" orient="auto" markerUnits="strokeWidth"><path d="M 0 0 L 10 4 L 0 8 z" fill="#334e68" /></marker><marker id="arrow-red" markerWidth="10" markerHeight="8" refX="9" refY="4" orient="auto" markerUnits="strokeWidth"><path d="M 0 0 L 10 4 L 0 8 z" fill="#c85b73" /></marker><marker id="arrow-green" markerWidth="10" markerHeight="8" refX="9" refY="4" orient="auto" markerUnits="strokeWidth"><path d="M 0 0 L 10 4 L 0 8 z" fill="#4d8c6a" /></marker><marker id="arrow-gold" markerWidth="10" markerHeight="8" refX="9" refY="4" orient="auto" markerUnits="strokeWidth"><path d="M 0 0 L 10 4 L 0 8 z" fill="#c58a2d" /></marker><marker id="arrow-purple" markerWidth="10" markerHeight="8" refX="9" refY="4" orient="auto" markerUnits="strokeWidth"><path d="M 0 0 L 10 4 L 0 8 z" fill="#7b4b74" /></marker></defs><rect width="1500" height="720" fill="#fbfdff" /><text x="750.0" y="43" text-anchor="middle" font-family="Source Han Sans SC, Microsoft YaHei, sans-serif" font-size="31" font-weight="700" fill="#102a43">色调映射压缩场景范围；它改变表达，不扩展显示器物理对比度</text><text x="190" y="105" text-anchor="middle" font-family="Source Han Sans SC, Microsoft YaHei, sans-serif" font-size="21" font-weight="700" fill="#285b7a">场景相对曝光 / EV</text><line x1="190" y1="625" x2="190" y2="150" stroke="#334e68" stroke-width="4" stroke-linecap="round" marker-end="url(#arrow-dark)" /><line x1="178" y1="625.0" x2="202" y2="625.0" stroke="#334e68" stroke-width="2" stroke-linecap="round" /><text x="166" y="630.0" text-anchor="end" font-family="Source Han Sans SC, Microsoft YaHei, sans-serif" font-size="14" font-weight="400" fill="#627d98">-10</text><line x1="178" y1="565.625" x2="202" y2="565.625" stroke="#334e68" stroke-width="2" stroke-linecap="round" /><text x="166" y="570.625" text-anchor="end" font-family="Source Han Sans SC, Microsoft YaHei, sans-serif" font-size="14" font-weight="400" fill="#627d98">-8</text><line x1="178" y1="506.25" x2="202" y2="506.25" stroke="#334e68" stroke-width="2" stroke-linecap="round" /><text x="166" y="511.25" text-anchor="end" font-family="Source Han Sans SC, Microsoft YaHei, sans-serif" font-size="14" font-weight="400" fill="#627d98">-6</text><line x1="178" y1="446.875" x2="202" y2="446.875" stroke="#334e68" stroke-width="2" stroke-linecap="round" /><text x="166" y="451.875" text-anchor="end" font-family="Source Han Sans SC, Microsoft YaHei, sans-serif" font-size="14" font-weight="400" fill="#627d98">-4</text><line x1="178" y1="387.5" x2="202" y2="387.5" stroke="#334e68" stroke-width="2" stroke-linecap="round" /><text x="166" y="392.5" text-anchor="end" font-family="Source Han Sans SC, Microsoft YaHei, sans-serif" font-size="14" font-weight="400" fill="#627d98">-2</text><line x1="178" y1="328.125" x2="202" y2="328.125" stroke="#334e68" stroke-width="2" stroke-linecap="round" /><text x="166" y="333.125" text-anchor="end" font-family="Source Han Sans SC, Microsoft YaHei, sans-serif" font-size="14" font-weight="400" fill="#627d98">+0</text><line x1="178" y1="268.75" x2="202" y2="268.75" stroke="#334e68" stroke-width="2" stroke-linecap="round" /><text x="166" y="273.75" text-anchor="end" font-family="Source Han Sans SC, Microsoft YaHei, sans-serif" font-size="14" font-weight="400" fill="#627d98">+2</text><line x1="178" y1="209.375" x2="202" y2="209.375" stroke="#334e68" stroke-width="2" stroke-linecap="round" /><text x="166" y="214.375" text-anchor="end" font-family="Source Han Sans SC, Microsoft YaHei, sans-serif" font-size="14" font-weight="400" fill="#627d98">+4</text><line x1="178" y1="150.0" x2="202" y2="150.0" stroke="#334e68" stroke-width="2" stroke-linecap="round" /><text x="166" y="155.0" text-anchor="end" font-family="Source Han Sans SC, Microsoft YaHei, sans-serif" font-size="14" font-weight="400" fill="#627d98">+6</text><text x="650" y="105" text-anchor="middle" font-family="Source Han Sans SC, Microsoft YaHei, sans-serif" font-size="22" font-weight="700" fill="#3b82b5">SDR 显示</text><text x="650" y="132" text-anchor="middle" font-family="Source Han Sans SC, Microsoft YaHei, sans-serif" font-size="15" font-weight="400" fill="#486581">约 0.1–100 cd/m²</text><rect x="602" y="150" width="96" height="475" rx="20" fill="#eef2f5" stroke="#3b82b5" stroke-width="3" /><rect x="608" y="613.2125" width="84" height="6.7875" fill="#121212" /><rect x="608" y="607.425" width="84" height="6.7875" fill="#141414" /><rect x="608" y="601.6375" width="84" height="6.7875" fill="#171717" /><rect x="608" y="595.85" width="84" height="6.7875" fill="#1a1a1a" /><rect x="608" y="590.0625" width="84" height="6.7875" fill="#1d1d1d" /><rect x="608" y="584.275" width="84" height="6.7875" fill="#202020" /><rect x="608" y="578.4875" width="84" height="6.7875" fill="#232323" /><rect x="608" y="572.7" width="84" height="6.7875" fill="#262626" /><rect x="608" y="566.9125" width="84" height="6.7875" fill="#292929" /><rect x="608" y="561.125" width="84" height="6.7875" fill="#2c2c2c" /><rect x="608" y="555.3375" width="84" height="6.7875" fill="#2f2f2f" /><rect x="608" y="549.55" width="84" height="6.7875" fill="#323232" /><rect x="608" y="543.7625" width="84" height="6.7875" fill="#343434" /><rect x="608" y="537.975" width="84" height="6.7875" fill="#373737" /><rect x="608" y="532.1875" width="84" height="6.7875" fill="#3a3a3a" /><rect x="608" y="526.4" width="84" height="6.7875" fill="#3d3d3d" /><rect x="608" y="520.6125" width="84" height="6.7875" fill="#404040" /><rect x="608" y="514.825" width="84" height="6.7875" fill="#434343" /><rect x="608" y="509.0375" width="84" height="6.7875" fill="#464646" /><rect x="608" y="503.25" width="84" height="6.7875" fill="#494949" /><rect x="608" y="497.4625" width="84" height="6.7875" fill="#4c4c4c" /><rect x="608" y="491.675" width="84" height="6.7875" fill="#4f4f4f" /><rect x="608" y="485.8875" width="84" height="6.7875" fill="#525252" /><rect x="608" y="480.1" width="84" height="6.7875" fill="#545454" /><rect x="608" y="474.3125" width="84" height="6.7875" fill="#575757" /><rect x="608" y="468.525" width="84" height="6.7875" fill="#5a5a5a" /><rect x="608" y="462.7375" width="84" height="6.7875" fill="#5d5d5d" /><rect x="608" y="456.95" width="84" height="6.7875" fill="#606060" /><rect x="608" y="451.1625" width="84" height="6.7875" fill="#636363" /><rect x="608" y="445.375" width="84" height="6.7875" fill="#666666" /><rect x="608" y="439.5875" width="84" height="6.7875" fill="#696969" /><rect x="608" y="433.8" width="84" height="6.7875" fill="#6c6c6c" /><rect x="608" y="428.0125" width="84" height="6.7875" fill="#6f6f6f" /><rect x="608" y="422.225" width="84" height="6.7875" fill="#727272" /><rect x="608" y="416.4375" width="84" height="6.7875" fill="#747474" /><rect x="608" y="410.65" width="84" height="6.7875" fill="#777777" /><rect x="608" y="404.8625" width="84" height="6.7875" fill="#7a7a7a" /><rect x="608" y="399.075" width="84" height="6.7875" fill="#7d7d7d" /><rect x="608" y="393.2875" width="84" height="6.7875" fill="#808080" /><rect x="608" y="387.5" width="84" height="6.7875" fill="#838383" /><rect x="608" y="381.7125" width="84" height="6.7875" fill="#868686" /><rect x="608" y="375.925" width="84" height="6.7875" fill="#898989" /><rect x="608" y="370.1375" width="84" height="6.7875" fill="#8c8c8c" /><rect x="608" y="364.35" width="84" height="6.7875" fill="#8f8f8f" /><rect x="608" y="358.5625" width="84" height="6.7875" fill="#929292" /><rect x="608" y="352.775" width="84" height="6.7875" fill="#959595" /><rect x="608" y="346.9875" width="84" height="6.7875" fill="#979797" /><rect x="608" y="341.2" width="84" height="6.7875" fill="#9a9a9a" /><rect x="608" y="335.4125" width="84" height="6.7875" fill="#9d9d9d" /><rect x="608" y="329.625" width="84" height="6.7875" fill="#a0a0a0" /><rect x="608" y="323.8375" width="84" height="6.7875" fill="#a3a3a3" /><rect x="608" y="318.05" width="84" height="6.7875" fill="#a6a6a6" /><rect x="608" y="312.2625" width="84" height="6.7875" fill="#a9a9a9" /><rect x="608" y="306.475" width="84" height="6.7875" fill="#acacac" /><rect x="608" y="300.6875" width="84" height="6.7875" fill="#afafaf" /><rect x="608" y="294.9" width="84" height="6.7875" fill="#b2b2b2" /><rect x="608" y="289.1125" width="84" height="6.7875" fill="#b5b5b5" /><rect x="608" y="283.325" width="84" height="6.7875" fill="#b7b7b7" /><rect x="608" y="277.5375" width="84" height="6.7875" fill="#bababa" /><rect x="608" y="271.75" width="84" height="6.7875" fill="#bdbdbd" /><rect x="608" y="265.9625" width="84" height="6.7875" fill="#c0c0c0" /><rect x="608" y="260.175" width="84" height="6.7875" fill="#c3c3c3" /><rect x="608" y="254.3875" width="84" height="6.7875" fill="#c6c6c6" /><rect x="608" y="248.60000000000002" width="84" height="6.7875" fill="#c9c9c9" /><rect x="608" y="242.8125" width="84" height="6.7875" fill="#cccccc" /><rect x="608" y="237.02499999999998" width="84" height="6.7875" fill="#cfcfcf" /><rect x="608" y="231.2375" width="84" height="6.7875" fill="#d2d2d2" /><rect x="608" y="225.45" width="84" height="6.7875" fill="#d5d5d5" /><rect x="608" y="219.66250000000002" width="84" height="6.7875" fill="#d7d7d7" /><rect x="608" y="213.875" width="84" height="6.7875" fill="#dadada" /><rect x="608" y="208.08749999999998" width="84" height="6.7875" fill="#dddddd" /><rect x="608" y="202.3" width="84" height="6.7875" fill="#e0e0e0" /><rect x="608" y="196.5125" width="84" height="6.7875" fill="#e3e3e3" /><rect x="608" y="190.72500000000002" width="84" height="6.7875" fill="#e6e6e6" /><rect x="608" y="184.9375" width="84" height="6.7875" fill="#e9e9e9" /><rect x="608" y="179.14999999999998" width="84" height="6.7875" fill="#ececec" /><rect x="608" y="173.3625" width="84" height="6.7875" fill="#efefef" /><rect x="608" y="167.575" width="84" height="6.7875" fill="#f2f2f2" /><rect x="608" y="161.78750000000002" width="84" height="6.7875" fill="#f5f5f5" /><rect x="608" y="156.0" width="84" height="6.7875" fill="#f8f8f8" /><line x1="202" y1="565.625" x2="595" y2="595.0876558729267" stroke="#3b82b5" stroke-width="2" stroke-linecap="round" stroke-dasharray="7 5" /><line x1="202" y1="387.5" x2="595" y2="387.5" stroke="#3b82b5" stroke-width="2" stroke-linecap="round" stroke-dasharray="7 5" /><line x1="202" y1="179.6875" x2="595" y2="169.51835714522088" stroke="#3b82b5" stroke-width="2" stroke-linecap="round" stroke-dasharray="7 5" /><text x="1120" y="105" text-anchor="middle" font-family="Source Han Sans SC, Microsoft YaHei, sans-serif" font-size="22" font-weight="700" fill="#7b4b74">HDR 显示</text><text x="1120" y="132" text-anchor="middle" font-family="Source Han Sans SC, Microsoft YaHei, sans-serif" font-size="15" font-weight="400" fill="#486581">约 0.005–1000 cd/m²</text><rect x="1072" y="150" width="96" height="475" rx="20" fill="#eef2f5" stroke="#7b4b74" stroke-width="3" /><rect x="1078" y="613.2125" width="84" height="6.7875" fill="#121212" /><rect x="1078" y="607.425" width="84" height="6.7875" fill="#141414" /><rect x="1078" y="601.6375" width="84" height="6.7875" fill="#171717" /><rect x="1078" y="595.85" width="84" height="6.7875" fill="#1a1a1a" /><rect x="1078" y="590.0625" width="84" height="6.7875" fill="#1d1d1d" /><rect x="1078" y="584.275" width="84" height="6.7875" fill="#202020" /><rect x="1078" y="578.4875" width="84" height="6.7875" fill="#232323" /><rect x="1078" y="572.7" width="84" height="6.7875" fill="#262626" /><rect x="1078" y="566.9125" width="84" height="6.7875" fill="#292929" /><rect x="1078" y="561.125" width="84" height="6.7875" fill="#2c2c2c" /><rect x="1078" y="555.3375" width="84" height="6.7875" fill="#2f2f2f" /><rect x="1078" y="549.55" width="84" height="6.7875" fill="#323232" /><rect x="1078" y="543.7625" width="84" height="6.7875" fill="#343434" /><rect x="1078" y="537.975" width="84" height="6.7875" fill="#373737" /><rect x="1078" y="532.1875" width="84" height="6.7875" fill="#3a3a3a" /><rect x="1078" y="526.4" width="84" height="6.7875" fill="#3d3d3d" /><rect x="1078" y="520.6125" width="84" height="6.7875" fill="#404040" /><rect x="1078" y="514.825" width="84" height="6.7875" fill="#434343" /><rect x="1078" y="509.0375" width="84" height="6.7875" fill="#464646" /><rect x="1078" y="503.25" width="84" height="6.7875" fill="#494949" /><rect x="1078" y="497.4625" width="84" height="6.7875" fill="#4c4c4c" /><rect x="1078" y="491.675" width="84" height="6.7875" fill="#4f4f4f" /><rect x="1078" y="485.8875" width="84" height="6.7875" fill="#525252" /><rect x="1078" y="480.1" width="84" height="6.7875" fill="#545454" /><rect x="1078" y="474.3125" width="84" height="6.7875" fill="#575757" /><rect x="1078" y="468.525" width="84" height="6.7875" fill="#5a5a5a" /><rect x="1078" y="462.7375" width="84" height="6.7875" fill="#5d5d5d" /><rect x="1078" y="456.95" width="84" height="6.7875" fill="#606060" /><rect x="1078" y="451.1625" width="84" height="6.7875" fill="#636363" /><rect x="1078" y="445.375" width="84" height="6.7875" fill="#666666" /><rect x="1078" y="439.5875" width="84" height="6.7875" fill="#696969" /><rect x="1078" y="433.8" width="84" height="6.7875" fill="#6c6c6c" /><rect x="1078" y="428.0125" width="84" height="6.7875" fill="#6f6f6f" /><rect x="1078" y="422.225" width="84" height="6.7875" fill="#727272" /><rect x="1078" y="416.4375" width="84" height="6.7875" fill="#747474" /><rect x="1078" y="410.65" width="84" height="6.7875" fill="#777777" /><rect x="1078" y="404.8625" width="84" height="6.7875" fill="#7a7a7a" /><rect x="1078" y="399.075" width="84" height="6.7875" fill="#7d7d7d" /><rect x="1078" y="393.2875" width="84" height="6.7875" fill="#808080" /><rect x="1078" y="387.5" width="84" height="6.7875" fill="#838383" /><rect x="1078" y="381.7125" width="84" height="6.7875" fill="#868686" /><rect x="1078" y="375.925" width="84" height="6.7875" fill="#898989" /><rect x="1078" y="370.1375" width="84" height="6.7875" fill="#8c8c8c" /><rect x="1078" y="364.35" width="84" height="6.7875" fill="#8f8f8f" /><rect x="1078" y="358.5625" width="84" height="6.7875" fill="#929292" /><rect x="1078" y="352.775" width="84" height="6.7875" fill="#959595" /><rect x="1078" y="346.9875" width="84" height="6.7875" fill="#979797" /><rect x="1078" y="341.2" width="84" height="6.7875" fill="#9a9a9a" /><rect x="1078" y="335.4125" width="84" height="6.7875" fill="#9d9d9d" /><rect x="1078" y="329.625" width="84" height="6.7875" fill="#a0a0a0" /><rect x="1078" y="323.8375" width="84" height="6.7875" fill="#a3a3a3" /><rect x="1078" y="318.05" width="84" height="6.7875" fill="#a6a6a6" /><rect x="1078" y="312.2625" width="84" height="6.7875" fill="#a9a9a9" /><rect x="1078" y="306.475" width="84" height="6.7875" fill="#acacac" /><rect x="1078" y="300.6875" width="84" height="6.7875" fill="#afafaf" /><rect x="1078" y="294.9" width="84" height="6.7875" fill="#b2b2b2" /><rect x="1078" y="289.1125" width="84" height="6.7875" fill="#b5b5b5" /><rect x="1078" y="283.325" width="84" height="6.7875" fill="#b7b7b7" /><rect x="1078" y="277.5375" width="84" height="6.7875" fill="#bababa" /><rect x="1078" y="271.75" width="84" height="6.7875" fill="#bdbdbd" /><rect x="1078" y="265.9625" width="84" height="6.7875" fill="#c0c0c0" /><rect x="1078" y="260.175" width="84" height="6.7875" fill="#c3c3c3" /><rect x="1078" y="254.3875" width="84" height="6.7875" fill="#c6c6c6" /><rect x="1078" y="248.60000000000002" width="84" height="6.7875" fill="#c9c9c9" /><rect x="1078" y="242.8125" width="84" height="6.7875" fill="#cccccc" /><rect x="1078" y="237.02499999999998" width="84" height="6.7875" fill="#cfcfcf" /><rect x="1078" y="231.2375" width="84" height="6.7875" fill="#d2d2d2" /><rect x="1078" y="225.45" width="84" height="6.7875" fill="#d5d5d5" /><rect x="1078" y="219.66250000000002" width="84" height="6.7875" fill="#d7d7d7" /><rect x="1078" y="213.875" width="84" height="6.7875" fill="#dadada" /><rect x="1078" y="208.08749999999998" width="84" height="6.7875" fill="#dddddd" /><rect x="1078" y="202.3" width="84" height="6.7875" fill="#e0e0e0" /><rect x="1078" y="196.5125" width="84" height="6.7875" fill="#e3e3e3" /><rect x="1078" y="190.72500000000002" width="84" height="6.7875" fill="#e6e6e6" /><rect x="1078" y="184.9375" width="84" height="6.7875" fill="#e9e9e9" /><rect x="1078" y="179.14999999999998" width="84" height="6.7875" fill="#ececec" /><rect x="1078" y="173.3625" width="84" height="6.7875" fill="#efefef" /><rect x="1078" y="167.575" width="84" height="6.7875" fill="#f2f2f2" /><rect x="1078" y="161.78750000000002" width="84" height="6.7875" fill="#f5f5f5" /><rect x="1078" y="156.0" width="84" height="6.7875" fill="#f8f8f8" /><line x1="202" y1="565.625" x2="1065" y2="557.6207441722682" stroke="#7b4b74" stroke-width="2" stroke-linecap="round" stroke-dasharray="7 5" /><text x="1190" y="562.6207441722682" text-anchor="start" font-family="Source Han Sans SC, Microsoft YaHei, sans-serif" font-size="14" font-weight="400" fill="#7b4b74">阴影</text><line x1="202" y1="387.5" x2="1065" y2="387.5" stroke="#7b4b74" stroke-width="2" stroke-linecap="round" stroke-dasharray="7 5" /><text x="1190" y="392.5" text-anchor="start" font-family="Source Han Sans SC, Microsoft YaHei, sans-serif" font-size="14" font-weight="400" fill="#7b4b74">中间调</text><line x1="202" y1="179.6875" x2="1065" y2="201.8209900679161" stroke="#7b4b74" stroke-width="2" stroke-linecap="round" stroke-dasharray="7 5" /><text x="1190" y="206.8209900679161" text-anchor="start" font-family="Source Han Sans SC, Microsoft YaHei, sans-serif" font-size="14" font-weight="400" fill="#7b4b74">高光</text><rect x="355" y="640" width="970" height="58" rx="16" fill="#fff0f3" stroke="#eab0be" stroke-width="2.5" /><text x="840.0" y="682" text-anchor="middle" font-family="Source Han Sans SC, Microsoft YaHei, sans-serif" font-size="21" font-weight="700" fill="#a24862">显示黑位还会被环境反射抬高；峰值、黑位与观看环境共同决定有效对比度</text></svg>