<?xml version='1.0' encoding='utf-8'?>
<svg xmlns="http://www.w3.org/2000/svg" width="1500" height="740" viewBox="0 0 1500 740" role="img" aria-label="照明与反射率乘积不可分离及相机白平衡增益"><defs><marker id="arrow-blue" markerWidth="10" markerHeight="8" refX="9" refY="4" orient="auto" markerUnits="strokeWidth"><path d="M 0 0 L 10 4 L 0 8 z" fill="#3b82b5" /></marker><marker id="arrow-dark" markerWidth="10" markerHeight="8" refX="9" refY="4" orient="auto" markerUnits="strokeWidth"><path d="M 0 0 L 10 4 L 0 8 z" fill="#334e68" /></marker><marker id="arrow-red" markerWidth="10" markerHeight="8" refX="9" refY="4" orient="auto" markerUnits="strokeWidth"><path d="M 0 0 L 10 4 L 0 8 z" fill="#c85b73" /></marker><marker id="arrow-green" markerWidth="10" markerHeight="8" refX="9" refY="4" orient="auto" markerUnits="strokeWidth"><path d="M 0 0 L 10 4 L 0 8 z" fill="#4d8c6a" /></marker><marker id="arrow-gold" markerWidth="10" markerHeight="8" refX="9" refY="4" orient="auto" markerUnits="strokeWidth"><path d="M 0 0 L 10 4 L 0 8 z" fill="#c58a2d" /></marker><marker id="arrow-purple" markerWidth="10" markerHeight="8" refX="9" refY="4" orient="auto" markerUnits="strokeWidth"><path d="M 0 0 L 10 4 L 0 8 z" fill="#7b4b74" /></marker></defs><rect width="1500" height="740" fill="#fbfdff" /><text x="750.0" y="43" text-anchor="middle" font-family="Source Han Sans SC, Microsoft YaHei, sans-serif" font-size="31" font-weight="700" fill="#102a43">相机测到照明与反射率的乘积；白平衡选择一种解释</text><line x1="750" y1="85" x2="750" y2="675" stroke="#d7e0e7" stroke-width="2" stroke-linecap="round" /><text x="375" y="103" text-anchor="middle" font-family="Source Han Sans SC, Microsoft YaHei, sans-serif" font-size="23" font-weight="700" fill="#285b7a">同一入射光谱可有不同因子分解</text><rect x="70" y="155" width="180" height="190" rx="16" fill="#f7f9fb" stroke="#b8c5cf" stroke-width="2.5" /><text x="160.0" y="197" text-anchor="middle" font-family="Source Han Sans SC, Microsoft YaHei, sans-serif" font-size="21" font-weight="700" fill="#102a43">照明 E₁</text><line x1="92" y1="315" x2="228" y2="315" stroke="#9fb3c2" stroke-width="1.5" stroke-linecap="round" /><polyline points="92.00,296.25 93.70,295.64 95.40,295.03 97.10,294.42 98.80,293.81 100.50,293.20 102.20,292.59 103.90,291.98 105.60,291.38 107.30,290.77 109.00,290.16 110.70,289.55 112.40,288.94 114.10,288.33 115.80,287.72 117.50,287.11 119.20,286.50 120.90,285.89 122.60,285.28 124.30,284.67 126.00,284.06 127.70,283.45 129.40,282.84 131.10,282.23 132.80,281.62 134.50,281.02 136.20,280.41 137.90,279.80 139.60,279.19 141.30,278.58 143.00,277.97 144.70,277.36 146.40,276.75 148.10,276.14 149.80,275.53 151.50,274.92 153.20,274.31 154.90,273.70 156.60,273.09 158.30,272.48 160.00,271.88 161.70,271.27 163.40,270.66 165.10,270.05 166.80,269.44 168.50,268.83 170.20,268.22 171.90,267.61 173.60,267.00 175.30,266.39 177.00,265.78 178.70,265.17 180.40,264.56 182.10,263.95 183.80,263.34 185.50,262.73 187.20,262.12 188.90,261.52 190.60,260.91 192.30,260.30 194.00,259.69 195.70,259.08 197.40,258.47 199.10,257.86 200.80,257.25 202.50,256.64 204.20,256.03 205.90,255.42 207.60,254.81 209.30,254.20 211.00,253.59 212.70,252.98 214.40,252.38 216.10,251.77 217.80,251.16 219.50,250.55 221.20,249.94 222.90,249.33 224.60,248.72 226.30,248.11 228.00,247.50" stroke="#c58a2d" stroke-width="3.5" fill="none" stroke-linejoin="round" stroke-linecap="round" /><rect x="300" y="155" width="180" height="190" rx="16" fill="#f7f9fb" stroke="#b8c5cf" stroke-width="2.5" /><text x="390.0" y="197" text-anchor="middle" font-family="Source Han Sans SC, Microsoft YaHei, sans-serif" font-size="21" font-weight="700" fill="#102a43">反射率 ρ₁</text><line x1="322" y1="315" x2="458" y2="315" stroke="#9fb3c2" stroke-width="1.5" stroke-linecap="round" /><polyline points="322.00,253.50 323.70,252.86 325.40,252.24 327.10,251.65 328.80,251.10 330.50,250.61 332.20,250.19 333.90,249.84 335.60,249.59 337.30,249.44 339.00,249.40 340.70,249.48 342.40,249.67 344.10,249.99 345.80,250.43 347.50,251.00 349.20,251.69 350.90,252.50 352.60,253.42 354.30,254.45 356.00,255.57 357.70,256.79 359.40,258.08 361.10,259.44 362.80,260.84 364.50,262.29 366.20,263.76 367.90,265.24 369.60,266.72 371.30,268.18 373.00,269.60 374.70,270.98 376.40,272.29 378.10,273.53 379.80,274.69 381.50,275.75 383.20,276.71 384.90,277.55 386.60,278.28 388.30,278.89 390.00,279.38 391.70,279.73 393.40,279.97 395.10,280.08 396.80,280.08 398.50,279.97 400.20,279.75 401.90,279.44 403.60,279.04 405.30,278.57 407.00,278.04 408.70,277.46 410.40,276.85 412.10,276.21 413.80,275.58 415.50,274.95 417.20,274.34 418.90,273.78 420.60,273.27 422.30,272.82 424.00,272.45 425.70,272.17 427.40,271.98 429.10,271.90 430.80,271.94 432.50,272.09 434.20,272.37 435.90,272.77 437.60,273.30 439.30,273.95 441.00,274.72 442.70,275.60 444.40,276.59 446.10,277.69 447.80,278.87 449.50,280.14 451.20,281.48 452.90,282.87 454.60,284.31 456.30,285.77 458.00,287.25" stroke="#4d8c6a" stroke-width="3.5" fill="none" stroke-linejoin="round" stroke-linecap="round" /><rect x="530" y="155" width="180" height="190" rx="16" fill="#f7f9fb" stroke="#b8c5cf" stroke-width="2.5" /><text x="620.0" y="197" text-anchor="middle" font-family="Source Han Sans SC, Microsoft YaHei, sans-serif" font-size="21" font-weight="700" fill="#102a43">乘积 s=Eρ</text><line x1="552" y1="315" x2="688" y2="315" stroke="#9fb3c2" stroke-width="1.5" stroke-linecap="round" /><polyline points="552.00,299.62 553.70,298.96 555.40,298.29 557.10,297.62 558.80,296.95 560.50,296.29 562.20,295.64 563.90,295.01 565.60,294.40 567.30,293.82 569.00,293.27 570.70,292.76 572.40,292.30 574.10,291.88 575.80,291.51 577.50,291.20 579.20,290.94 580.90,290.74 582.60,290.60 584.30,290.51 586.00,290.49 587.70,290.51 589.40,290.60 591.10,290.73 592.80,290.90 594.50,291.12 596.20,291.37 597.90,291.65 599.60,291.95 601.30,292.26 603.00,292.58 604.70,292.91 606.40,293.22 608.10,293.51 609.80,293.79 611.50,294.03 613.20,294.23 614.90,294.38 616.60,294.48 618.30,294.53 620.00,294.52 621.70,294.44 623.40,294.29 625.10,294.07 626.80,293.79 628.50,293.43 630.20,293.01 631.90,292.53 633.60,291.99 635.30,291.39 637.00,290.74 638.70,290.06 640.40,289.34 642.10,288.60 643.80,287.85 645.50,287.09 647.20,286.34 648.90,285.60 650.60,284.90 652.30,284.23 654.00,283.62 655.70,283.06 657.40,282.58 659.10,282.17 660.80,281.84 662.50,281.61 664.20,281.48 665.90,281.46 667.60,281.53 669.30,281.72 671.00,282.02 672.70,282.42 674.40,282.93 676.10,283.54 677.80,284.25 679.50,285.04 681.20,285.92 682.90,286.87 684.60,287.87 686.30,288.93 688.00,290.02" stroke="#3b82b5" stroke-width="3.5" fill="none" stroke-linejoin="round" stroke-linecap="round" /><text x="275" y="255" text-anchor="middle" font-family="Source Han Sans SC, Microsoft YaHei, sans-serif" font-size="30" font-weight="700" fill="#334e68">×</text><text x="505" y="255" text-anchor="middle" font-family="Source Han Sans SC, Microsoft YaHei, sans-serif" font-size="30" font-weight="700" fill="#334e68">=</text><text x="375" y="390" text-anchor="middle" font-family="Source Han Sans SC, Microsoft YaHei, sans-serif" font-size="18" font-weight="700" fill="#7b4b74">取任意正函数 a(λ)：E₂=E₁a，ρ₂=ρ₁/a，乘积不变</text><rect x="75" y="435" width="600" height="145" rx="16" fill="#fff7e8" stroke="#e8c77d" stroke-width="2.5" /><text x="375.0" y="477" text-anchor="middle" font-family="Source Han Sans SC, Microsoft YaHei, sans-serif" font-size="21" font-weight="700" fill="#8a5f19">图像形成的谱模型</text><text x="375.0" y="512" text-anchor="middle" font-family="Source Han Sans SC, Microsoft YaHei, sans-serif" font-size="16" font-weight="400" fill="#486581">cᵢ = ∫E(λ)ρ(λ)qᵢ(λ)dλ</text><text x="375" y="620" text-anchor="middle" font-family="Source Han Sans SC, Microsoft YaHei, sans-serif" font-size="17" font-weight="400" fill="#a24862">即使通道无噪声，也不能由单次观测唯一分离光源与物体</text><text x="1125" y="103" text-anchor="middle" font-family="Source Han Sans SC, Microsoft YaHei, sans-serif" font-size="23" font-weight="700" fill="#397456">白平衡与色适应是通道变换</text><rect x="825" y="150" width="270" height="125" rx="16" fill="#eaf4ff" stroke="#9bc7ee" stroke-width="2.5" /><text x="960.0" y="192" text-anchor="middle" font-family="Source Han Sans SC, Microsoft YaHei, sans-serif" font-size="21" font-weight="700" fill="#285b7a">相机线性响应</text><text x="960.0" y="227" text-anchor="middle" font-family="Source Han Sans SC, Microsoft YaHei, sans-serif" font-size="16" font-weight="400" fill="#486581">c = (cR,cG,cB)ᵀ</text><rect x="1155" y="150" width="270" height="125" rx="16" fill="#edf8f2" stroke="#9fd6b7" stroke-width="2.5" /><text x="1290.0" y="192" text-anchor="middle" font-family="Source Han Sans SC, Microsoft YaHei, sans-serif" font-size="21" font-weight="700" fill="#397456">对角白平衡</text><text x="1290.0" y="227" text-anchor="middle" font-family="Source Han Sans SC, Microsoft YaHei, sans-serif" font-size="16" font-weight="400" fill="#486581">c′ = diag(gR,gG,gB)c</text><line x1="1100" y1="212" x2="1145" y2="212" stroke="#3b82b5" stroke-width="3" stroke-linecap="round" marker-end="url(#arrow-blue)" /><text x="1125" y="315" text-anchor="middle" font-family="Source Han Sans SC, Microsoft YaHei, sans-serif" font-size="17" font-weight="700" fill="#7b4b74">中性参考：令 gᵢcᵢ 相等</text><text x="860" y="375" text-anchor="start" font-family="Source Han Sans SC, Microsoft YaHei, sans-serif" font-size="17" font-weight="700" fill="#c85b73">R</text><rect x="900" y="357" width="187.2" height="25" rx="7" fill="#c85b73" fill-opacity="0.55" /><text x="1180" y="375" text-anchor="start" font-family="Source Han Sans SC, Microsoft YaHei, sans-serif" font-size="16" font-weight="400" fill="#486581">gR</text><text x="860" y="433" text-anchor="start" font-family="Source Han Sans SC, Microsoft YaHei, sans-serif" font-size="17" font-weight="700" fill="#4d8c6a">G</text><rect x="900" y="415" width="109.2" height="25" rx="7" fill="#4d8c6a" fill-opacity="0.55" /><text x="1180" y="433" text-anchor="start" font-family="Source Han Sans SC, Microsoft YaHei, sans-serif" font-size="16" font-weight="400" fill="#486581">gG</text><text x="860" y="491" text-anchor="start" font-family="Source Han Sans SC, Microsoft YaHei, sans-serif" font-size="17" font-weight="700" fill="#3b82b5">B</text><rect x="900" y="473" width="234.0" height="25" rx="7" fill="#3b82b5" fill-opacity="0.55" /><text x="1180" y="491" text-anchor="start" font-family="Source Han Sans SC, Microsoft YaHei, sans-serif" font-size="16" font-weight="400" fill="#486581">gB</text><rect x="835" y="565" width="580" height="100" rx="16" fill="#fff0f3" stroke="#eab0be" stroke-width="2.5" /><text x="1125.0" y="607" text-anchor="middle" font-family="Source Han Sans SC, Microsoft YaHei, sans-serif" font-size="21" font-weight="700" fill="#a24862">局限</text><text x="1125.0" y="642" text-anchor="middle" font-family="Source Han Sans SC, Microsoft YaHei, sans-serif" font-size="16" font-weight="400" fill="#486581">一个全局对角矩阵不能同时校正多种照明，也不能恢复未知反射谱</text></svg>