<?xml version='1.0' encoding='utf-8'?>
<svg xmlns="http://www.w3.org/2000/svg" width="1450" height="660" viewBox="0 0 1450 660" role="img" aria-label="f 数透过率与离轴衰减对像面照度的作用"><defs><marker id="arrow-blue" markerWidth="10" markerHeight="8" refX="9" refY="4" orient="auto" markerUnits="strokeWidth"><path d="M 0 0 L 10 4 L 0 8 z" fill="#3b82b5" /></marker><marker id="arrow-dark" markerWidth="10" markerHeight="8" refX="9" refY="4" orient="auto" markerUnits="strokeWidth"><path d="M 0 0 L 10 4 L 0 8 z" fill="#334e68" /></marker><marker id="arrow-red" markerWidth="10" markerHeight="8" refX="9" refY="4" orient="auto" markerUnits="strokeWidth"><path d="M 0 0 L 10 4 L 0 8 z" fill="#c85b73" /></marker><marker id="arrow-green" markerWidth="10" markerHeight="8" refX="9" refY="4" orient="auto" markerUnits="strokeWidth"><path d="M 0 0 L 10 4 L 0 8 z" fill="#4d8c6a" /></marker></defs><rect width="1450" height="660" fill="#fbfdff" /><text x="725.0" y="43" text-anchor="middle" font-family="Source Han Sans SC, Microsoft YaHei, sans-serif" font-size="31" font-weight="700" fill="#102a43">像面照度的三个乘法因子</text><line x1="725" y1="82" x2="725" y2="590" stroke="#d7e0e7" stroke-width="2" stroke-linecap="round" /><text x="360" y="92" text-anchor="middle" font-family="Source Han Sans SC, Microsoft YaHei, sans-serif" font-size="24" font-weight="700" fill="#285b7a">轴上：E ∝ τ / N²</text><line x1="100" y1="535" x2="660" y2="535" stroke="#334e68" stroke-width="2" stroke-linecap="round" marker-end="url(#arrow-dark)" /><line x1="100" y1="535" x2="100" y2="145" stroke="#334e68" stroke-width="2" stroke-linecap="round" marker-end="url(#arrow-dark)" /><circle cx="135.0" cy="180.0" r="7" fill="#3b82b5" /><text x="135.0" y="567" text-anchor="middle" font-family="Source Han Sans SC, Microsoft YaHei, sans-serif" font-size="16" font-weight="400" fill="#627d98">f/1.4</text><text x="135.0" y="163.0" text-anchor="middle" font-family="Source Han Sans SC, Microsoft YaHei, sans-serif" font-size="15" font-weight="400" fill="#285b7a">1.00</text><circle cx="216.66666666666669" cy="361.05" r="7" fill="#3b82b5" /><text x="216.66666666666669" y="567" text-anchor="middle" font-family="Source Han Sans SC, Microsoft YaHei, sans-serif" font-size="16" font-weight="400" fill="#627d98">f/2</text><text x="216.66666666666669" y="344.05" text-anchor="middle" font-family="Source Han Sans SC, Microsoft YaHei, sans-serif" font-size="15" font-weight="400" fill="#285b7a">0.49</text><circle cx="298.33333333333337" cy="446.25" r="7" fill="#3b82b5" /><text x="298.33333333333337" y="567" text-anchor="middle" font-family="Source Han Sans SC, Microsoft YaHei, sans-serif" font-size="16" font-weight="400" fill="#627d98">f/2.8</text><text x="298.33333333333337" y="429.25" text-anchor="middle" font-family="Source Han Sans SC, Microsoft YaHei, sans-serif" font-size="15" font-weight="400" fill="#285b7a">0.25</text><circle cx="380.0" cy="491.5125" r="7" fill="#3b82b5" /><text x="380.0" y="567" text-anchor="middle" font-family="Source Han Sans SC, Microsoft YaHei, sans-serif" font-size="16" font-weight="400" fill="#627d98">f/4</text><text x="380.0" y="474.5125" text-anchor="middle" font-family="Source Han Sans SC, Microsoft YaHei, sans-serif" font-size="15" font-weight="400" fill="#285b7a">0.12</text><circle cx="461.6666666666667" cy="512.8125" r="7" fill="#3b82b5" /><text x="461.6666666666667" y="567" text-anchor="middle" font-family="Source Han Sans SC, Microsoft YaHei, sans-serif" font-size="16" font-weight="400" fill="#627d98">f/5.6</text><circle cx="543.3333333333333" cy="524.128125" r="7" fill="#3b82b5" /><text x="543.3333333333333" y="567" text-anchor="middle" font-family="Source Han Sans SC, Microsoft YaHei, sans-serif" font-size="16" font-weight="400" fill="#627d98">f/8</text><circle cx="625.0" cy="529.2495867768595" r="7" fill="#3b82b5" /><text x="625.0" y="567" text-anchor="middle" font-family="Source Han Sans SC, Microsoft YaHei, sans-serif" font-size="16" font-weight="400" fill="#627d98">f/11</text><polyline points="135.00,180.00 216.67,361.05 298.33,446.25 380.00,491.51 461.67,512.81 543.33,524.13 625.00,529.25" stroke="#3b82b5" stroke-width="4" fill="none" stroke-linejoin="round" stroke-linecap="round" /><text x="75" y="150" text-anchor="middle" font-family="Source Han Sans SC, Microsoft YaHei, sans-serif" font-size="17" font-weight="400" fill="#627d98">相对 E</text><text x="360" y="585" text-anchor="middle" font-family="Source Han Sans SC, Microsoft YaHei, sans-serif" font-size="19" font-weight="400" fill="#486581">相邻整档 f 数乘 √2，照度减半</text><text x="1085" y="92" text-anchor="middle" font-family="Source Han Sans SC, Microsoft YaHei, sans-serif" font-size="24" font-weight="700" fill="#397456">离轴：cos⁴θ × V(h,λ)</text><line x1="805" y1="535" x2="1370" y2="535" stroke="#334e68" stroke-width="2" stroke-linecap="round" marker-end="url(#arrow-dark)" /><line x1="805" y1="535" x2="805" y2="145" stroke="#334e68" stroke-width="2" stroke-linecap="round" marker-end="url(#arrow-dark)" /><polyline points="805.00,145.00 807.84,145.01 810.68,145.05 813.52,145.11 816.36,145.19 819.20,145.30 822.04,145.44 824.87,145.59 827.71,145.78 830.55,145.98 833.39,146.21 836.23,146.47 839.07,146.75 841.91,147.05 844.75,147.38 847.59,147.73 850.43,148.10 853.27,148.50 856.11,148.92 858.94,149.37 861.78,149.83 864.62,150.33 867.46,150.84 870.30,151.38 873.14,151.95 875.98,152.53 878.82,153.14 881.66,153.77 884.50,154.43 887.34,155.11 890.18,155.81 893.02,156.53 895.85,157.28 898.69,158.05 901.53,158.84 904.37,159.65 907.21,160.48 910.05,161.34 912.89,162.22 915.73,163.12 918.57,164.04 921.41,164.98 924.25,165.95 927.09,166.93 929.92,167.94 932.76,168.97 935.60,170.01 938.44,171.08 941.28,172.17 944.12,173.28 946.96,174.41 949.80,175.55 952.64,176.72 955.48,177.91 958.32,179.11 961.16,180.34 963.99,181.58 966.83,182.85 969.67,184.13 972.51,185.43 975.35,186.75 978.19,188.08 981.03,189.44 983.87,190.81 986.71,192.19 989.55,193.60 992.39,195.02 995.23,196.46 998.07,197.92 1000.90,199.39 1003.74,200.88 1006.58,202.38 1009.42,203.90 1012.26,205.43 1015.10,206.98 1017.94,208.55 1020.78,210.12 1023.62,211.72 1026.46,213.33 1029.30,214.95 1032.14,216.58 1034.97,218.23 1037.81,219.89 1040.65,221.57 1043.49,223.26 1046.33,224.96 1049.17,226.67 1052.01,228.39 1054.85,230.13 1057.69,231.88 1060.53,233.64 1063.37,235.41 1066.21,237.19 1069.05,238.98 1071.88,240.78 1074.72,242.59 1077.56,244.42 1080.40,246.25 1083.24,248.09 1086.08,249.94 1088.92,251.79 1091.76,253.66 1094.60,255.54 1097.44,257.42 1100.28,259.31 1103.12,261.21 1105.95,263.11 1108.79,265.02 1111.63,266.94 1114.47,268.87 1117.31,270.80 1120.15,272.73 1122.99,274.68 1125.83,276.62 1128.67,278.58 1131.51,280.53 1134.35,282.50 1137.19,284.46 1140.03,286.43 1142.86,288.41 1145.70,290.38 1148.54,292.36 1151.38,294.35 1154.22,296.33 1157.06,298.32 1159.90,300.31 1162.74,302.31 1165.58,304.30 1168.42,306.30 1171.26,308.30 1174.10,310.29 1176.93,312.29 1179.77,314.29 1182.61,316.29 1185.45,318.29 1188.29,320.29 1191.13,322.29 1193.97,324.29 1196.81,326.28 1199.65,328.28 1202.49,330.27 1205.33,332.26 1208.17,334.25 1211.01,336.24 1213.84,338.23 1216.68,340.21 1219.52,342.19 1222.36,344.16 1225.20,346.14 1228.04,348.11 1230.88,350.07 1233.72,352.03 1236.56,353.99 1239.40,355.94 1242.24,357.89 1245.08,359.83 1247.91,361.77 1250.75,363.70 1253.59,365.63 1256.43,367.55 1259.27,369.46 1262.11,371.37 1264.95,373.27 1267.79,375.17 1270.63,377.06 1273.47,378.94 1276.31,380.81 1279.15,382.68 1281.98,384.54 1284.82,386.39 1287.66,388.23 1290.50,390.07 1293.34,391.89 1296.18,393.71 1299.02,395.52 1301.86,397.32 1304.70,399.11 1307.54,400.90 1310.38,402.67 1313.22,404.43 1316.06,406.19 1318.89,407.93 1321.73,409.67 1324.57,411.39 1327.41,413.11 1330.25,414.81 1333.09,416.50 1335.93,418.18 1338.77,419.86 1341.61,421.52 1344.45,423.17 1347.29,424.81 1350.13,426.43 1352.96,428.05 1355.80,429.65 1358.64,431.25 1361.48,432.83 1364.32,434.40 1367.16,435.95 1370.00,437.50" stroke="#3b82b5" stroke-width="4" fill="none" stroke-linejoin="round" stroke-linecap="round" /><polyline points="805.00,145.00 807.84,145.01 810.68,145.05 813.52,145.11 816.36,145.20 819.20,145.31 822.04,145.44 824.87,145.60 827.71,145.79 830.55,146.00 833.39,146.23 836.23,146.50 839.07,146.78 841.91,147.09 844.75,147.43 847.59,147.80 850.43,148.18 853.27,148.60 856.11,149.04 858.94,149.51 861.78,150.00 864.62,150.52 867.46,151.06 870.30,151.63 873.14,152.23 875.98,152.85 878.82,153.50 881.66,154.17 884.50,154.87 887.34,155.60 890.18,156.35 893.02,157.13 895.85,157.94 898.69,158.77 901.53,159.62 904.37,160.51 907.21,161.41 910.05,162.35 912.89,163.31 915.73,164.29 918.57,165.31 921.41,166.34 924.25,167.40 927.09,168.49 929.92,169.61 932.76,170.74 935.60,171.91 938.44,173.09 941.28,174.31 944.12,175.55 946.96,176.81 949.80,178.10 952.64,179.41 955.48,180.74 958.32,182.10 961.16,183.49 963.99,184.89 966.83,186.32 969.67,187.78 972.51,189.25 975.35,190.76 978.19,192.28 981.03,193.82 983.87,195.39 986.71,196.98 989.55,198.60 992.39,200.23 995.23,201.89 998.07,203.57 1000.90,205.26 1003.74,206.98 1006.58,208.72 1009.42,210.48 1012.26,212.27 1015.10,214.07 1017.94,215.89 1020.78,217.73 1023.62,219.58 1026.46,221.46 1029.30,223.36 1032.14,225.27 1034.97,227.20 1037.81,229.15 1040.65,231.12 1043.49,233.10 1046.33,235.10 1049.17,237.12 1052.01,239.15 1054.85,241.20 1057.69,243.27 1060.53,245.35 1063.37,247.44 1066.21,249.55 1069.05,251.67 1071.88,253.81 1074.72,255.96 1077.56,258.12 1080.40,260.29 1083.24,262.48 1086.08,264.68 1088.92,266.89 1091.76,269.11 1094.60,271.34 1097.44,273.58 1100.28,275.84 1103.12,278.10 1105.95,280.37 1108.79,282.65 1111.63,284.94 1114.47,287.23 1117.31,289.54 1120.15,291.85 1122.99,294.17 1125.83,296.49 1128.67,298.82 1131.51,301.16 1134.35,303.50 1137.19,305.85 1140.03,308.20 1142.86,310.55 1145.70,312.91 1148.54,315.27 1151.38,317.64 1154.22,320.00 1157.06,322.37 1159.90,324.74 1162.74,327.11 1165.58,329.49 1168.42,331.86 1171.26,334.23 1174.10,336.60 1176.93,338.98 1179.77,341.35 1182.61,343.71 1185.45,346.08 1188.29,348.44 1191.13,350.81 1193.97,353.16 1196.81,355.52 1199.65,357.87 1202.49,360.21 1205.33,362.55 1208.17,364.89 1211.01,367.22 1213.84,369.54 1216.68,371.86 1219.52,374.17 1222.36,376.47 1225.20,378.77 1228.04,381.06 1230.88,383.34 1233.72,385.61 1236.56,387.87 1239.40,390.12 1242.24,392.36 1245.08,394.60 1247.91,396.82 1250.75,399.03 1253.59,401.23 1256.43,403.42 1259.27,405.60 1262.11,407.76 1264.95,409.92 1267.79,412.06 1270.63,414.19 1273.47,416.30 1276.31,418.40 1279.15,420.49 1281.98,422.56 1284.82,424.62 1287.66,426.66 1290.50,428.69 1293.34,430.70 1296.18,432.70 1299.02,434.68 1301.86,436.65 1304.70,438.60 1307.54,440.53 1310.38,442.44 1313.22,444.34 1316.06,446.22 1318.89,448.09 1321.73,449.94 1324.57,451.76 1327.41,453.57 1330.25,455.37 1333.09,457.14 1335.93,458.90 1338.77,460.63 1341.61,462.35 1344.45,464.05 1347.29,465.73 1350.13,467.39 1352.96,469.03 1355.80,470.65 1358.64,472.25 1361.48,473.83 1364.32,475.39 1367.16,476.93 1370.00,478.45" stroke="#c85b73" stroke-width="4" fill="none" stroke-linejoin="round" stroke-linecap="round" stroke-dasharray="10 7" /><polyline points="805.00,145.00 807.84,145.00 810.68,145.00 813.52,145.01 816.36,145.02 819.20,145.02 822.04,145.04 824.87,145.05 827.71,145.06 830.55,145.08 833.39,145.10 836.23,145.12 839.07,145.14 841.91,145.17 844.75,145.19 847.59,145.22 850.43,145.25 853.27,145.28 856.11,145.32 858.94,145.36 861.78,145.39 864.62,145.43 867.46,145.48 870.30,145.52 873.14,145.57 875.98,145.62 878.82,145.67 881.66,145.72 884.50,145.77 887.34,145.83 890.18,145.89 893.02,145.95 895.85,146.01 898.69,146.07 901.53,146.14 904.37,146.21 907.21,146.28 910.05,146.35 912.89,146.42 915.73,146.50 918.57,146.58 921.41,146.66 924.25,146.74 927.09,146.82 929.92,146.91 932.76,146.99 935.60,147.08 938.44,147.18 941.28,147.27 944.12,147.36 946.96,147.46 949.80,147.56 952.64,147.66 955.48,147.77 958.32,147.87 961.16,147.98 963.99,148.09 966.83,148.20 969.67,148.31 972.51,148.43 975.35,148.55 978.19,148.66 981.03,148.79 983.87,148.91 986.71,149.03 989.55,149.16 992.39,149.29 995.23,149.42 998.07,149.55 1000.90,149.69 1003.74,149.83 1006.58,149.96 1009.42,150.11 1012.26,150.25 1015.10,150.39 1017.94,150.54 1020.78,150.69 1023.62,150.84 1026.46,150.99 1029.30,151.15 1032.14,151.30 1034.97,151.46 1037.81,151.62 1040.65,151.78 1043.49,151.95 1046.33,152.12 1049.17,152.28 1052.01,152.45 1054.85,152.63 1057.69,152.80 1060.53,152.98 1063.37,153.16 1066.21,153.34 1069.05,153.52 1071.88,153.70 1074.72,153.89 1077.56,154.08 1080.40,154.27 1083.24,154.46 1086.08,154.65 1088.92,154.85 1091.76,155.05 1094.60,155.25 1097.44,155.45 1100.28,155.65 1103.12,155.86 1105.95,156.07 1108.79,156.28 1111.63,156.49 1114.47,156.70 1117.31,156.92 1120.15,157.13 1122.99,157.35 1125.83,157.58 1128.67,157.80 1131.51,158.02 1134.35,158.25 1137.19,158.48 1140.03,158.71 1142.86,158.95 1145.70,159.18 1148.54,159.42 1151.38,159.66 1154.22,159.90 1157.06,160.14 1159.90,160.39 1162.74,160.64 1165.58,160.88 1168.42,161.14 1171.26,161.39 1174.10,161.64 1176.93,161.90 1179.77,162.16 1182.61,162.42 1185.45,162.68 1188.29,162.95 1191.13,163.22 1193.97,163.48 1196.81,163.75 1199.65,164.03 1202.49,164.30 1205.33,164.58 1208.17,164.86 1211.01,165.14 1213.84,165.42 1216.68,165.71 1219.52,165.99 1222.36,166.28 1225.20,166.57 1228.04,166.86 1230.88,167.16 1233.72,167.45 1236.56,167.75 1239.40,168.05 1242.24,168.36 1245.08,168.66 1247.91,168.97 1250.75,169.27 1253.59,169.59 1256.43,169.90 1259.27,170.21 1262.11,170.53 1264.95,170.85 1267.79,171.17 1270.63,171.49 1273.47,171.81 1276.31,172.14 1279.15,172.47 1281.98,172.80 1284.82,173.13 1287.66,173.46 1290.50,173.80 1293.34,174.14 1296.18,174.47 1299.02,174.82 1301.86,175.16 1304.70,175.51 1307.54,175.85 1310.38,176.20 1313.22,176.55 1316.06,176.91 1318.89,177.26 1321.73,177.62 1324.57,177.98 1327.41,178.34 1330.25,178.71 1333.09,179.07 1335.93,179.44 1338.77,179.81 1341.61,180.18 1344.45,180.55 1347.29,180.93 1350.13,181.30 1352.96,181.68 1355.80,182.06 1358.64,182.45 1361.48,182.83 1364.32,183.22 1367.16,183.61 1370.00,184.00" stroke="#4d8c6a" stroke-width="4" fill="none" stroke-linejoin="round" stroke-linecap="round" /><text x="1060" y="235" text-anchor="middle" font-family="Source Han Sans SC, Microsoft YaHei, sans-serif" font-size="17" font-weight="700" fill="#397456">数字补偿后</text><text x="1110" y="325" text-anchor="middle" font-family="Source Han Sans SC, Microsoft YaHei, sans-serif" font-size="17" font-weight="700" fill="#285b7a">仅 cos⁴θ</text><text x="1155" y="425" text-anchor="middle" font-family="Source Han Sans SC, Microsoft YaHei, sans-serif" font-size="17" font-weight="700" fill="#a24862">含机械渐晕</text><text x="1370" y="569" text-anchor="middle" font-family="Source Han Sans SC, Microsoft YaHei, sans-serif" font-size="17" font-weight="400" fill="#627d98">归一化像高 h</text><text x="780" y="150" text-anchor="middle" font-family="Source Han Sans SC, Microsoft YaHei, sans-serif" font-size="17" font-weight="400" fill="#627d98">相对 E</text><text x="1085" y="585" text-anchor="middle" font-family="Source Han Sans SC, Microsoft YaHei, sans-serif" font-size="19" font-weight="400" fill="#7b4b74">补偿能抬高数值，也会同时放大边缘噪声</text></svg>