<?xml version='1.0' encoding='utf-8'?>
<svg xmlns="http://www.w3.org/2000/svg" width="1500" height="680" viewBox="0 0 1500 680" role="img" aria-label="主体运动相机转动与平移产生像面速度"><defs><marker id="arrow-blue" markerWidth="10" markerHeight="8" refX="9" refY="4" orient="auto" markerUnits="strokeWidth"><path d="M 0 0 L 10 4 L 0 8 z" fill="#3b82b5" /></marker><marker id="arrow-dark" markerWidth="10" markerHeight="8" refX="9" refY="4" orient="auto" markerUnits="strokeWidth"><path d="M 0 0 L 10 4 L 0 8 z" fill="#334e68" /></marker><marker id="arrow-red" markerWidth="10" markerHeight="8" refX="9" refY="4" orient="auto" markerUnits="strokeWidth"><path d="M 0 0 L 10 4 L 0 8 z" fill="#c85b73" /></marker><marker id="arrow-green" markerWidth="10" markerHeight="8" refX="9" refY="4" orient="auto" markerUnits="strokeWidth"><path d="M 0 0 L 10 4 L 0 8 z" fill="#4d8c6a" /></marker><marker id="arrow-gold" markerWidth="10" markerHeight="8" refX="9" refY="4" orient="auto" markerUnits="strokeWidth"><path d="M 0 0 L 10 4 L 0 8 z" fill="#c58a2d" /></marker><marker id="arrow-purple" markerWidth="10" markerHeight="8" refX="9" refY="4" orient="auto" markerUnits="strokeWidth"><path d="M 0 0 L 10 4 L 0 8 z" fill="#7b4b74" /></marker></defs><rect width="1500" height="680" fill="#fbfdff" /><text x="750.0" y="43" text-anchor="middle" font-family="Source Han Sans SC, Microsoft YaHei, sans-serif" font-size="31" font-weight="700" fill="#102a43">像面速度取决于角运动；相机平移还带有深度因子 1/Z</text><line x1="750" y1="82" x2="750" y2="610" stroke="#d7e0e7" stroke-width="2" stroke-linecap="round" /><text x="375" y="92" text-anchor="middle" font-family="Source Han Sans SC, Microsoft YaHei, sans-serif" font-size="24" font-weight="700" fill="#285b7a">主体横向运动</text><ellipse cx="420" cy="340" rx="24" ry="105" fill="#eaf4ff" stroke="#3b82b5" stroke-width="3" /><line x1="620" y1="210" x2="620" y2="470" stroke="#334e68" stroke-width="5" stroke-linecap="round" /><text x="620" y="500" text-anchor="middle" font-family="Source Han Sans SC, Microsoft YaHei, sans-serif" font-size="17" font-weight="700" fill="#334e68">像面</text><circle cx="100" cy="245" r="18" fill="#c85b73" /><line x1="85" y1="220" x2="180" y2="220" stroke="#c85b73" stroke-width="4" stroke-linecap="round" marker-end="url(#arrow-red)" /><text x="130" y="195" text-anchor="middle" font-family="Source Han Sans SC, Microsoft YaHei, sans-serif" font-size="18" font-weight="700" fill="#a24862">横向速度 V</text><line x1="100" y1="245" x2="420" y2="340" stroke="#627d98" stroke-width="2" stroke-linecap="round" /><line x1="420" y1="340" x2="620" y2="399" stroke="#627d98" stroke-width="2" stroke-linecap="round" /><line x1="100" y1="245" x2="420" y2="340" stroke="#627d98" stroke-width="2" stroke-linecap="round" /><line x1="100" y1="340" x2="420" y2="340" stroke="#d7e0e7" stroke-width="1.5" stroke-linecap="round" stroke-dasharray="8 6" /><line x1="100" y1="540" x2="420" y2="540" stroke="#334e68" stroke-width="2" stroke-linecap="round" /><line x1="100" y1="530" x2="100" y2="550" stroke="#334e68" stroke-width="2" stroke-linecap="round" /><line x1="420" y1="530" x2="420" y2="550" stroke="#334e68" stroke-width="2" stroke-linecap="round" /><text x="260" y="570" text-anchor="middle" font-family="Source Han Sans SC, Microsoft YaHei, sans-serif" font-size="18" font-weight="700" fill="#486581">物距 Z</text><line x1="620" y1="399" x2="620" y2="350" stroke="#c85b73" stroke-width="7" stroke-linecap="round" marker-end="url(#arrow-red)" /><text x="545" y="320" text-anchor="middle" font-family="Source Han Sans SC, Microsoft YaHei, sans-serif" font-size="20" font-weight="700" fill="#a24862">|vimg|≈f|V|/Z</text><text x="1125" y="92" text-anchor="middle" font-family="Source Han Sans SC, Microsoft YaHei, sans-serif" font-size="24" font-weight="700" fill="#397456">相机旋转与平移</text><rect x="845" y="155" width="560" height="125" rx="16" fill="#edf8f2" stroke="#9fd6b7" stroke-width="2.5" /><text x="1125.0" y="198" text-anchor="middle" font-family="Source Han Sans SC, Microsoft YaHei, sans-serif" font-size="21" font-weight="700" fill="#397456">小角旋转 Ω</text><text x="1125.0" y="233" text-anchor="middle" font-family="Source Han Sans SC, Microsoft YaHei, sans-serif" font-size="16" font-weight="400" fill="#486581">全画面近似共同位移；与景深 Z 无关</text><rect x="845" y="330" width="560" height="125" rx="16" fill="#fff7e8" stroke="#e8c77d" stroke-width="2.5" /><text x="1125.0" y="373" text-anchor="middle" font-family="Source Han Sans SC, Microsoft YaHei, sans-serif" font-size="21" font-weight="700" fill="#8a5f19">相机平移 T</text><text x="1125.0" y="408" text-anchor="middle" font-family="Source Han Sans SC, Microsoft YaHei, sans-serif" font-size="16" font-weight="400" fill="#486581">近物移动更快；光流含 1/Z</text><line x1="920" y1="515" x2="1090" y2="515" stroke="#c85b73" stroke-width="5" stroke-linecap="round" marker-end="url(#arrow-red)" /><text x="900" y="521" text-anchor="end" font-family="Source Han Sans SC, Microsoft YaHei, sans-serif" font-size="17" font-weight="700" fill="#a24862">近处</text><line x1="920" y1="565" x2="1005" y2="565" stroke="#c85b73" stroke-width="5" stroke-linecap="round" marker-end="url(#arrow-red)" /><text x="900" y="571" text-anchor="end" font-family="Source Han Sans SC, Microsoft YaHei, sans-serif" font-size="17" font-weight="700" fill="#a24862">远处</text><line x1="1180" y1="515" x2="1350" y2="515" stroke="#4d8c6a" stroke-width="4" stroke-linecap="round" marker-end="url(#arrow-green)" /><line x1="1180" y1="565" x2="1350" y2="565" stroke="#4d8c6a" stroke-width="4" stroke-linecap="round" marker-end="url(#arrow-green)" /><text x="1265" y="605" text-anchor="middle" font-family="Source Han Sans SC, Microsoft YaHei, sans-serif" font-size="17" font-weight="400" fill="#397456">旋转分量近似同长</text></svg>