<?xml version='1.0' encoding='utf-8'?>
<svg xmlns="http://www.w3.org/2000/svg" width="1500" height="790" viewBox="0 0 1500 790" role="img" aria-label="点光源平方反比和主体内相对衰减"><defs><marker id="arrow-blue" markerWidth="10" markerHeight="8" refX="9" refY="4" orient="auto" markerUnits="strokeWidth"><path d="M 0 0 L 10 4 L 0 8 z" fill="#3b82b5" /></marker><marker id="arrow-dark" markerWidth="10" markerHeight="8" refX="9" refY="4" orient="auto" markerUnits="strokeWidth"><path d="M 0 0 L 10 4 L 0 8 z" fill="#334e68" /></marker><marker id="arrow-red" markerWidth="10" markerHeight="8" refX="9" refY="4" orient="auto" markerUnits="strokeWidth"><path d="M 0 0 L 10 4 L 0 8 z" fill="#c85b73" /></marker><marker id="arrow-green" markerWidth="10" markerHeight="8" refX="9" refY="4" orient="auto" markerUnits="strokeWidth"><path d="M 0 0 L 10 4 L 0 8 z" fill="#4d8c6a" /></marker><marker id="arrow-gold" markerWidth="10" markerHeight="8" refX="9" refY="4" orient="auto" markerUnits="strokeWidth"><path d="M 0 0 L 10 4 L 0 8 z" fill="#c58a2d" /></marker><marker id="arrow-purple" markerWidth="10" markerHeight="8" refX="9" refY="4" orient="auto" markerUnits="strokeWidth"><path d="M 0 0 L 10 4 L 0 8 z" fill="#7b4b74" /></marker></defs><rect width="1500" height="790" fill="#fbfdff" /><text x="750" y="43" text-anchor="middle" font-family="Source Han Sans SC, Microsoft YaHei, sans-serif" font-size="30" font-weight="700" fill="#102a43">近光源的绝对照度高，主体前后相对距离差也更显著</text><line x1="105" y1="570" x2="710" y2="570" stroke="#334e68" stroke-width="2" stroke-linecap="round" marker-end="url(#arrow-dark)" /><line x1="105" y1="570" x2="105" y2="130" stroke="#334e68" stroke-width="2" stroke-linecap="round" marker-end="url(#arrow-dark)" /><text x="710" y="601" text-anchor="end" font-family="Source Han Sans SC, Microsoft YaHei, sans-serif" font-size="15" font-weight="400" fill="#627d98">距离 r</text><text x="101" y="118" text-anchor="start" font-family="Source Han Sans SC, Microsoft YaHei, sans-serif" font-size="15" font-weight="400" fill="#627d98">相对照度 E/I</text><polyline points="108.36,179.98 111.72,214.63 115.08,244.86 118.44,271.39 121.81,294.80 125.17,315.56 128.53,334.06 131.89,350.61 135.25,365.48 138.61,378.89 141.97,391.02 145.33,402.03 148.69,412.06 152.06,421.21 155.42,429.59 158.78,437.28 162.14,444.36 165.50,450.89 168.86,456.92 172.22,462.50 175.58,467.68 178.94,472.49 182.31,476.98 185.67,481.16 189.03,485.06 192.39,488.71 195.75,492.14 199.11,495.35 202.47,498.36 205.83,501.20 209.19,503.87 212.56,506.39 215.92,508.77 219.28,511.02 222.64,513.14 226.00,515.15 229.36,517.06 232.72,518.87 236.08,520.59 239.44,522.22 242.81,523.78 246.17,525.25 249.53,526.66 252.89,528.01 256.25,529.29 259.61,530.51 262.97,531.68 266.33,532.80 269.69,533.87 273.06,534.90 276.42,535.88 279.78,536.82 283.14,537.72 286.50,538.59 289.86,539.42 293.22,540.22 296.58,540.99 299.94,541.73 303.31,542.44 306.67,543.12 310.03,543.78 313.39,544.42 316.75,545.03 320.11,545.62 323.47,546.19 326.83,546.74 330.19,547.28 333.56,547.79 336.92,548.29 340.28,548.77 343.64,549.23 347.00,549.68 350.36,550.11 353.72,550.53 357.08,550.94 360.44,551.34 363.81,551.72 367.17,552.09 370.53,552.45 373.89,552.80 377.25,553.14 380.61,553.47 383.97,553.79 387.33,554.10 390.69,554.40 394.06,554.69 397.42,554.98 400.78,555.25 404.14,555.52 407.50,555.79 410.86,556.04 414.22,556.29 417.58,556.53 420.94,556.77 424.31,556.99 427.67,557.22 431.03,557.44 434.39,557.65 437.75,557.85 441.11,558.06 444.47,558.25 447.83,558.44 451.19,558.63 454.56,558.81 457.92,558.99 461.28,559.17 464.64,559.34 468.00,559.50 471.36,559.66 474.72,559.82 478.08,559.98 481.44,560.13 484.81,560.28 488.17,560.42 491.53,560.56 494.89,560.70 498.25,560.84 501.61,560.97 504.97,561.10 508.33,561.22 511.69,561.35 515.06,561.47 518.42,561.59 521.78,561.71 525.14,561.82 528.50,561.93 531.86,562.04 535.22,562.15 538.58,562.25 541.94,562.36 545.31,562.46 548.67,562.56 552.03,562.65 555.39,562.75 558.75,562.84 562.11,562.93 565.47,563.02 568.83,563.11 572.19,563.20 575.56,563.28 578.92,563.36 582.28,563.45 585.64,563.53 589.00,563.60 592.36,563.68 595.72,563.76 599.08,563.83 602.44,563.91 605.81,563.98 609.17,564.05 612.53,564.12 615.89,564.19 619.25,564.25 622.61,564.32 625.97,564.38 629.33,564.45 632.69,564.51 636.06,564.57 639.42,564.63 642.78,564.69 646.14,564.75 649.50,564.81 652.86,564.86 656.22,564.92 659.58,564.97 662.94,565.03 666.31,565.08 669.67,565.13 673.03,565.18 676.39,565.24 679.75,565.29 683.11,565.33 686.47,565.38 689.83,565.43 693.19,565.48 696.56,565.52 699.92,565.57 703.28,565.61 706.64,565.66 710.00,565.70" stroke="#3b82b5" stroke-width="6" fill="none" stroke-linejoin="round" stroke-linecap="round" /><text x="410" y="210" text-anchor="middle" font-family="Source Han Sans SC, Microsoft YaHei, sans-serif" font-size="24" font-weight="700" fill="#285b7a">E = I cosθ / r²</text><text x="155" y="620" text-anchor="start" font-family="Source Han Sans SC, Microsoft YaHei, sans-serif" font-size="15" font-weight="400" fill="#627d98">只适用于足够小、足够远的光源近似</text><rect x="820" y="135" width="610" height="205" rx="16" fill="#ffffff" stroke="#b9c7d3" stroke-width="2.5" /><text x="1125.0" y="177" text-anchor="middle" font-family="Source Han Sans SC, Microsoft YaHei, sans-serif" font-size="20" font-weight="700" fill="#102a43">近光源</text><text x="1125.0" y="211" text-anchor="middle" font-family="Source Han Sans SC, Microsoft YaHei, sans-serif" font-size="15" font-weight="400" fill="#486581">前后距离 1 m → 2 m</text><circle cx="875" cy="260" r="18" fill="#f1c75b" /><ellipse cx="1035" cy="263" rx="28" ry="48" fill="#c58a2d" fill-opacity="0.9" /><ellipse cx="1130" cy="263" rx="28" ry="48" fill="#c58a2d" fill-opacity="0.42" /><line x1="900" y1="260" x2="1380" y2="260" stroke="#c58a2d" stroke-width="3" stroke-linecap="round" /><text x="1125" y="320" text-anchor="middle" font-family="Source Han Sans SC, Microsoft YaHei, sans-serif" font-size="17" font-weight="700" fill="#c58a2d">照度比 4:1（2 档）</text><rect x="820" y="400" width="610" height="205" rx="16" fill="#ffffff" stroke="#b9c7d3" stroke-width="2.5" /><text x="1125.0" y="442" text-anchor="middle" font-family="Source Han Sans SC, Microsoft YaHei, sans-serif" font-size="20" font-weight="700" fill="#102a43">远光源</text><text x="1125.0" y="476" text-anchor="middle" font-family="Source Han Sans SC, Microsoft YaHei, sans-serif" font-size="15" font-weight="400" fill="#486581">前后距离 4 m → 5 m</text><circle cx="875" cy="525" r="18" fill="#f1c75b" /><ellipse cx="1170" cy="528" rx="28" ry="48" fill="#4d8c6a" fill-opacity="0.9" /><ellipse cx="1230" cy="528" rx="28" ry="48" fill="#4d8c6a" fill-opacity="0.65" /><line x1="900" y1="525" x2="1380" y2="525" stroke="#4d8c6a" stroke-width="3" stroke-linecap="round" /><text x="1125" y="585" text-anchor="middle" font-family="Source Han Sans SC, Microsoft YaHei, sans-serif" font-size="17" font-weight="700" fill="#4d8c6a">照度比约 1.56:1（0.64 档）</text><rect x="850" y="690" width="530" height="58" rx="16" fill="#eef5fb" stroke="#a8c8e0" stroke-width="2.5" /><text x="1115.0" y="732" text-anchor="middle" font-family="Source Han Sans SC, Microsoft YaHei, sans-serif" font-size="17" font-weight="700" fill="#285b7a">大型近距离扩展源需按立体角积分，不能机械套 1/r²</text></svg>