<?xml version='1.0' encoding='utf-8'?>
<svg xmlns="http://www.w3.org/2000/svg" width="1500" height="740" viewBox="0 0 1500 740" role="img" aria-label="逆滤波在传递函数零点附近放大噪声"><defs><marker id="arrow-blue" markerWidth="10" markerHeight="8" refX="9" refY="4" orient="auto" markerUnits="strokeWidth"><path d="M 0 0 L 10 4 L 0 8 z" fill="#3b82b5" /></marker><marker id="arrow-dark" markerWidth="10" markerHeight="8" refX="9" refY="4" orient="auto" markerUnits="strokeWidth"><path d="M 0 0 L 10 4 L 0 8 z" fill="#334e68" /></marker><marker id="arrow-red" markerWidth="10" markerHeight="8" refX="9" refY="4" orient="auto" markerUnits="strokeWidth"><path d="M 0 0 L 10 4 L 0 8 z" fill="#c85b73" /></marker><marker id="arrow-green" markerWidth="10" markerHeight="8" refX="9" refY="4" orient="auto" markerUnits="strokeWidth"><path d="M 0 0 L 10 4 L 0 8 z" fill="#4d8c6a" /></marker><marker id="arrow-gold" markerWidth="10" markerHeight="8" refX="9" refY="4" orient="auto" markerUnits="strokeWidth"><path d="M 0 0 L 10 4 L 0 8 z" fill="#c58a2d" /></marker><marker id="arrow-purple" markerWidth="10" markerHeight="8" refX="9" refY="4" orient="auto" markerUnits="strokeWidth"><path d="M 0 0 L 10 4 L 0 8 z" fill="#7b4b74" /></marker></defs><rect width="1500" height="740" fill="#fbfdff" /><text x="750" y="43" text-anchor="middle" font-family="Source Han Sans SC, Microsoft YaHei, sans-serif" font-size="30" font-weight="700" fill="#102a43">逆滤波的不稳定性：当 |H| 很小时，除法同时放大测量噪声与模型误差</text><text x="385.0" y="105" text-anchor="middle" font-family="Source Han Sans SC, Microsoft YaHei, sans-serif" font-size="22" font-weight="700" fill="#285b7a">模糊传递 |H(ν)|</text><line x1="120" y1="540" x2="675" y2="540" stroke="#334e68" stroke-width="2" stroke-linecap="round" marker-end="url(#arrow-dark)" /><line x1="120" y1="540" x2="120" y2="150" stroke="#334e68" stroke-width="2" stroke-linecap="round" marker-end="url(#arrow-dark)" /><text x="675" y="571" text-anchor="end" font-family="Source Han Sans SC, Microsoft YaHei, sans-serif" font-size="15" font-weight="400" fill="#627d98">ν</text><text x="116" y="138" text-anchor="start" font-family="Source Han Sans SC, Microsoft YaHei, sans-serif" font-size="15" font-weight="400" fill="#627d98">幅度</text><polyline points="120.00,180.00 122.78,180.02 125.55,180.07 128.32,180.16 131.10,180.29 133.88,180.46 136.65,180.66 139.43,180.90 142.20,181.17 144.97,181.48 147.75,181.83 150.53,182.21 153.30,182.63 156.07,183.08 158.85,183.57 161.62,184.10 164.40,184.66 167.18,185.26 169.95,185.89 172.72,186.56 175.50,187.27 178.28,188.00 181.05,188.78 183.82,189.58 186.60,190.43 189.38,191.30 192.15,192.21 194.93,193.16 197.70,194.14 200.47,195.15 203.25,196.19 206.03,197.27 208.80,198.38 211.57,199.52 214.35,200.70 217.12,201.90 219.90,203.14 222.68,204.41 225.45,205.71 228.23,207.04 231.00,208.40 233.77,209.79 236.55,211.22 239.32,212.67 242.10,214.15 244.88,215.66 247.65,217.19 250.42,218.76 253.20,220.35 255.97,221.98 258.75,223.62 261.52,225.30 264.30,227.00 267.08,228.73 269.85,230.48 272.62,232.26 275.40,234.07 278.17,235.89 280.95,237.75 283.73,239.62 286.50,241.52 289.27,243.44 292.05,245.39 294.82,247.35 297.60,249.34 300.38,251.35 303.15,253.38 305.93,255.43 308.70,257.50 311.48,259.59 314.25,261.70 317.02,263.83 319.80,265.98 322.57,268.14 325.35,270.32 328.12,272.52 330.90,274.73 333.68,276.96 336.45,279.21 339.23,281.47 342.00,283.75 344.77,286.04 347.55,288.34 350.32,290.65 353.10,292.98 355.88,295.32 358.65,297.68 361.43,300.04 364.20,302.41 366.98,304.80 369.75,307.19 372.52,309.60 375.30,312.01 378.07,314.43 380.85,316.86 383.62,319.30 386.40,321.75 389.18,324.20 391.95,326.65 394.73,329.12 397.50,331.59 400.27,334.06 403.05,336.54 405.82,339.02 408.60,341.50 411.38,343.99 414.15,346.48 416.93,348.97 419.70,351.46 422.48,353.96 425.25,356.45 428.03,358.95 430.80,361.44 433.57,363.94 436.35,366.43 439.12,368.92 441.90,371.41 444.67,373.90 447.45,376.39 450.22,378.87 453.00,381.35 455.77,383.82 458.55,386.29 461.32,388.76 464.10,391.22 466.88,393.67 469.65,396.12 472.43,398.56 475.20,401.00 477.98,403.43 480.75,405.85 483.53,408.26 486.30,410.67 489.08,413.06 491.85,415.45 494.62,417.83 497.40,420.20 500.18,422.55 502.95,424.90 505.72,427.24 508.50,429.57 511.27,431.88 514.05,434.18 516.83,436.48 519.60,438.75 522.38,441.02 525.15,443.27 527.92,445.52 530.70,447.74 533.48,449.96 536.25,452.16 539.02,454.34 541.80,456.51 544.58,458.67 547.35,460.81 550.12,462.94 552.90,465.05 555.67,467.14 558.45,469.22 561.23,471.28 564.00,473.33 566.78,475.36 569.55,477.37 572.33,479.37 575.10,481.35 577.88,483.31 580.65,485.25 583.42,487.18 586.20,489.09 588.97,490.98 591.75,492.85 594.52,494.71 597.30,496.54 600.08,498.36 602.85,500.16 605.62,501.93 608.40,503.69 611.17,505.44 613.95,507.16 616.73,508.86 619.50,510.54 622.28,512.20 625.05,513.85 627.83,515.47 630.60,517.08 633.38,518.66 636.15,520.22 638.93,521.77 641.70,523.29 644.48,524.80 647.25,526.28 650.02,527.74 652.80,529.19 655.57,530.61 658.35,532.01 661.12,533.39 663.90,534.76 666.67,536.10 669.45,537.42 672.23,538.72 675.00,540.00" fill="none" stroke="#3b82b5" stroke-width="5" stroke-linecap="round" stroke-linejoin="round" /><line x1="640" y1="540" x2="640" y2="165" stroke="#c58a2d" stroke-width="3" stroke-linecap="round" stroke-dasharray="8 7" /><text x="630" y="192" text-anchor="end" font-family="Source Han Sans SC, Microsoft YaHei, sans-serif" font-size="16" font-weight="700" fill="#8a5f19">近零点</text><text x="1115.0" y="105" text-anchor="middle" font-family="Source Han Sans SC, Microsoft YaHei, sans-serif" font-size="22" font-weight="700" fill="#a24862">逆增益 1/|H(ν)|</text><line x1="850" y1="540" x2="1405" y2="540" stroke="#334e68" stroke-width="2" stroke-linecap="round" marker-end="url(#arrow-dark)" /><line x1="850" y1="540" x2="850" y2="150" stroke="#334e68" stroke-width="2" stroke-linecap="round" marker-end="url(#arrow-dark)" /><text x="1405" y="571" text-anchor="end" font-family="Source Han Sans SC, Microsoft YaHei, sans-serif" font-size="15" font-weight="400" fill="#627d98">ν</text><text x="846" y="138" text-anchor="start" font-family="Source Han Sans SC, Microsoft YaHei, sans-serif" font-size="15" font-weight="400" fill="#627d98">幅度</text><polyline points="850.00,495.00 852.77,495.00 855.55,494.99 858.33,494.98 861.10,494.96 863.88,494.94 866.65,494.92 869.42,494.89 872.20,494.85 874.98,494.81 877.75,494.77 880.52,494.72 883.30,494.67 886.08,494.61 888.85,494.55 891.62,494.48 894.40,494.41 897.17,494.33 899.95,494.25 902.73,494.16 905.50,494.07 908.27,493.98 911.05,493.88 913.83,493.77 916.60,493.66 919.38,493.54 922.15,493.42 924.92,493.29 927.70,493.16 930.48,493.02 933.25,492.88 936.02,492.73 938.80,492.58 941.58,492.42 944.35,492.26 947.12,492.08 949.90,491.91 952.67,491.73 955.45,491.54 958.23,491.35 961.00,491.15 963.77,490.94 966.55,490.73 969.33,490.51 972.10,490.28 974.88,490.05 977.65,489.81 980.42,489.57 983.20,489.32 985.98,489.06 988.75,488.80 991.52,488.52 994.30,488.24 997.08,487.96 999.85,487.66 1002.62,487.36 1005.40,487.05 1008.17,486.73 1010.95,486.40 1013.73,486.07 1016.50,485.72 1019.27,485.37 1022.05,485.01 1024.83,484.64 1027.60,484.26 1030.38,483.88 1033.15,483.48 1035.92,483.07 1038.70,482.65 1041.47,482.23 1044.25,481.79 1047.03,481.34 1049.80,480.88 1052.58,480.41 1055.35,479.93 1058.12,479.43 1060.90,478.93 1063.67,478.41 1066.45,477.88 1069.22,477.34 1072.00,476.78 1074.78,476.21 1077.55,475.63 1080.33,475.03 1083.10,474.42 1085.88,473.79 1088.65,473.15 1091.42,472.49 1094.20,471.81 1096.97,471.12 1099.75,470.41 1102.53,469.69 1105.30,468.94 1108.08,468.18 1110.85,467.40 1113.62,466.60 1116.40,465.77 1119.17,464.93 1121.95,464.07 1124.72,463.18 1127.50,462.27 1130.28,461.34 1133.05,460.38 1135.83,459.40 1138.60,458.39 1141.38,457.35 1144.15,456.29 1146.92,455.20 1149.70,454.08 1152.47,452.92 1155.25,451.74 1158.03,450.52 1160.80,449.27 1163.58,447.99 1166.35,446.66 1169.12,445.31 1171.90,443.91 1174.67,442.47 1177.45,440.99 1180.22,439.46 1183.00,437.89 1185.78,436.27 1188.55,434.60 1191.33,432.89 1194.10,431.12 1196.88,429.29 1199.65,427.40 1202.42,425.46 1205.20,423.45 1207.97,421.38 1210.75,419.24 1213.53,417.03 1216.30,414.74 1219.08,412.38 1221.85,409.93 1224.62,407.40 1227.40,404.78 1230.17,402.06 1232.95,399.25 1235.72,396.33 1238.50,393.31 1241.28,390.17 1244.05,386.90 1246.83,383.52 1249.60,379.99 1252.38,376.33 1255.15,372.51 1257.92,368.54 1260.70,364.40 1263.47,360.09 1266.25,355.58 1269.03,350.88 1271.80,345.96 1274.58,340.81 1277.35,335.43 1280.12,329.78 1282.90,323.86 1285.67,317.65 1288.45,311.12 1291.22,304.25 1294.00,297.01 1296.78,289.38 1299.55,281.32 1302.33,272.81 1305.10,263.79 1307.88,254.23 1310.65,244.09 1313.42,233.29 1316.20,221.80 1318.97,209.53 1321.75,196.40 1324.53,182.34 1327.30,180.00 1330.08,180.00 1332.85,180.00 1335.62,180.00 1338.40,180.00 1341.17,180.00 1343.95,180.00 1346.72,180.00 1349.50,180.00 1352.28,180.00 1355.05,180.00 1357.83,180.00 1360.60,180.00 1363.38,180.00 1366.15,180.00 1368.93,180.00 1371.70,180.00 1374.47,180.00 1377.25,180.00 1380.03,180.00 1382.80,180.00 1385.57,180.00 1388.35,180.00 1391.12,180.00 1393.90,180.00 1396.67,180.00 1399.45,180.00 1402.22,180.00 1405.00,180.00" fill="none" stroke="#c85b73" stroke-width="5" stroke-linecap="round" stroke-linejoin="round" /><line x1="1370" y1="540" x2="1370" y2="165" stroke="#c58a2d" stroke-width="3" stroke-linecap="round" stroke-dasharray="8 7" /><text x="1360" y="192" text-anchor="end" font-family="Source Han Sans SC, Microsoft YaHei, sans-serif" font-size="16" font-weight="700" fill="#8a5f19">近零点</text><rect x="210" y="610" width="1080" height="75" rx="16" fill="#fff0f3" stroke="#eab0be" stroke-width="2.5" /><text x="750.0" y="652" text-anchor="middle" font-family="Source Han Sans SC, Microsoft YaHei, sans-serif" font-size="19" font-weight="700" fill="#a24862">G=HF+N  ⇒  G/H = F+N/H；即使 N 很小，N/H 也可在弱响应频带占主导</text></svg>