<?xml version='1.0' encoding='utf-8'?>
<svg xmlns="http://www.w3.org/2000/svg" width="1500" height="735" viewBox="0 0 1500 735" role="img" aria-label="CIELAB非线性变换色相彩度与局部色差度量"><defs><marker id="arrow-blue" markerWidth="10" markerHeight="8" refX="9" refY="4" orient="auto" markerUnits="strokeWidth"><path d="M 0 0 L 10 4 L 0 8 z" fill="#3b82b5" /></marker><marker id="arrow-dark" markerWidth="10" markerHeight="8" refX="9" refY="4" orient="auto" markerUnits="strokeWidth"><path d="M 0 0 L 10 4 L 0 8 z" fill="#334e68" /></marker><marker id="arrow-red" markerWidth="10" markerHeight="8" refX="9" refY="4" orient="auto" markerUnits="strokeWidth"><path d="M 0 0 L 10 4 L 0 8 z" fill="#c85b73" /></marker><marker id="arrow-green" markerWidth="10" markerHeight="8" refX="9" refY="4" orient="auto" markerUnits="strokeWidth"><path d="M 0 0 L 10 4 L 0 8 z" fill="#4d8c6a" /></marker><marker id="arrow-gold" markerWidth="10" markerHeight="8" refX="9" refY="4" orient="auto" markerUnits="strokeWidth"><path d="M 0 0 L 10 4 L 0 8 z" fill="#c58a2d" /></marker><marker id="arrow-purple" markerWidth="10" markerHeight="8" refX="9" refY="4" orient="auto" markerUnits="strokeWidth"><path d="M 0 0 L 10 4 L 0 8 z" fill="#7b4b74" /></marker></defs><rect width="1500" height="735" fill="#fbfdff" /><text x="750.0" y="43" text-anchor="middle" font-family="Source Han Sans SC, Microsoft YaHei, sans-serif" font-size="31" font-weight="700" fill="#102a43">CIELAB 用白点归一化和立方根压缩，近似而非完美地均匀化色差</text><rect x="35" y="105" width="410" height="500" rx="16" fill="#f4f9fd" stroke="#9bc7ee" stroke-width="2.5" /><text x="240.0" y="147" text-anchor="middle" font-family="Source Han Sans SC, Microsoft YaHei, sans-serif" font-size="21" font-weight="700" fill="#285b7a">非线性 f(t)</text><text x="240.0" y="182" text-anchor="middle" font-family="Source Han Sans SC, Microsoft YaHei, sans-serif" font-size="16" font-weight="400" fill="#486581">高亮立方根；暗部线性延拓</text><line x1="90" y1="500" x2="400" y2="500" stroke="#334e68" stroke-width="2" stroke-linecap="round" marker-end="url(#arrow-dark)" /><line x1="90" y1="500" x2="90" y2="220" stroke="#334e68" stroke-width="2" stroke-linecap="round" marker-end="url(#arrow-dark)" /><text x="400" y="532" text-anchor="end" font-family="Source Han Sans SC, Microsoft YaHei, sans-serif" font-size="15" font-weight="400" fill="#627d98">t</text><text x="85" y="208" text-anchor="start" font-family="Source Han Sans SC, Microsoft YaHei, sans-serif" font-size="15" font-weight="400" fill="#627d98">f(t)</text><polyline points="90.00,467.59 91.55,458.44 93.10,449.37 94.65,442.04 96.20,436.21 97.75,431.29 99.30,426.98 100.85,423.13 102.40,419.63 103.95,416.41 105.50,413.43 107.05,410.63 108.60,408.00 110.15,405.51 111.70,403.15 113.25,400.90 114.80,398.74 116.35,396.67 117.90,394.69 119.45,392.77 121.00,390.92 122.55,389.13 124.10,387.40 125.65,385.72 127.20,384.09 128.75,382.50 130.30,380.95 131.85,379.45 133.40,377.98 134.95,376.54 136.50,375.14 138.05,373.77 139.60,372.42 141.15,371.11 142.70,369.82 144.25,368.55 145.80,367.31 147.35,366.10 148.90,364.90 150.45,363.73 152.00,362.57 153.55,361.44 155.10,360.32 156.65,359.22 158.20,358.13 159.75,357.07 161.30,356.02 162.85,354.98 164.40,353.96 165.95,352.95 167.50,351.96 169.05,350.98 170.60,350.01 172.15,349.06 173.70,348.11 175.25,347.18 176.80,346.26 178.35,345.35 179.90,344.45 181.45,343.56 183.00,342.68 184.55,341.81 186.10,340.95 187.65,340.10 189.20,339.26 190.75,338.43 192.30,337.61 193.85,336.79 195.40,335.98 196.95,335.18 198.50,334.39 200.05,333.60 201.60,332.83 203.15,332.06 204.70,331.29 206.25,330.54 207.80,329.79 209.35,329.04 210.90,328.31 212.45,327.58 214.00,326.85 215.55,326.13 217.10,325.42 218.65,324.71 220.20,324.01 221.75,323.32 223.30,322.63 224.85,321.94 226.40,321.26 227.95,320.59 229.50,319.92 231.05,319.25 232.60,318.59 234.15,317.94 235.70,317.29 237.25,316.64 238.80,316.00 240.35,315.36 241.90,314.73 243.45,314.10 245.00,313.48 246.55,312.86 248.10,312.25 249.65,311.63 251.20,311.03 252.75,310.42 254.30,309.82 255.85,309.23 257.40,308.63 258.95,308.04 260.50,307.46 262.05,306.88 263.60,306.30 265.15,305.72 266.70,305.15 268.25,304.59 269.80,304.02 271.35,303.46 272.90,302.90 274.45,302.35 276.00,301.79 277.55,301.24 279.10,300.70 280.65,300.16 282.20,299.62 283.75,299.08 285.30,298.54 286.85,298.01 288.40,297.48 289.95,296.96 291.50,296.43 293.05,295.91 294.60,295.40 296.15,294.88 297.70,294.37 299.25,293.86 300.80,293.35 302.35,292.84 303.90,292.34 305.45,291.84 307.00,291.34 308.55,290.85 310.10,290.35 311.65,289.86 313.20,289.37 314.75,288.89 316.30,288.40 317.85,287.92 319.40,287.44 320.95,286.96 322.50,286.49 324.05,286.01 325.60,285.54 327.15,285.07 328.70,284.61 330.25,284.14 331.80,283.68 333.35,283.22 334.90,282.76 336.45,282.30 338.00,281.85 339.55,281.39 341.10,280.94 342.65,280.49 344.20,280.04 345.75,279.60 347.30,279.15 348.85,278.71 350.40,278.27 351.95,277.83 353.50,277.39 355.05,276.96 356.60,276.52 358.15,276.09 359.70,275.66 361.25,275.23 362.80,274.80 364.35,274.38 365.90,273.95 367.45,273.53 369.00,273.11 370.55,272.69 372.10,272.27 373.65,271.86 375.20,271.44 376.75,271.03 378.30,270.62 379.85,270.21 381.40,269.80 382.95,269.39 384.50,268.98 386.05,268.58 387.60,268.18 389.15,267.77 390.70,267.37 392.25,266.97 393.80,266.58 395.35,266.18 396.90,265.79 398.45,265.39 400.00,265.00" stroke="#3b82b5" stroke-width="5" fill="none" stroke-linejoin="round" stroke-linecap="round" /><line x1="92.74550002050104" y1="220" x2="92.74550002050104" y2="500" stroke="#c85b73" stroke-width="2" stroke-linecap="round" stroke-dasharray="7 5" /><text x="102.74550002050104" y="455" text-anchor="start" font-family="Source Han Sans SC, Microsoft YaHei, sans-serif" font-size="15" font-weight="700" fill="#a24862">δ³</text><text x="240" y="560" text-anchor="middle" font-family="Source Han Sans SC, Microsoft YaHei, sans-serif" font-size="16" font-weight="400" fill="#7b4b74">δ=6/29 保证函数与一阶导数连续</text><rect x="480" y="105" width="480" height="500" rx="16" fill="#fffaf1" stroke="#e8c77d" stroke-width="2.5" /><text x="720.0" y="147" text-anchor="middle" font-family="Source Han Sans SC, Microsoft YaHei, sans-serif" font-size="21" font-weight="700" fill="#8a5f19">Lab 几何</text><text x="720.0" y="182" text-anchor="middle" font-family="Source Han Sans SC, Microsoft YaHei, sans-serif" font-size="16" font-weight="400" fill="#486581">L* 明度；a*、b* 为对手色轴</text><line x1="720" y1="400" x2="720" y2="205" stroke="#334e68" stroke-width="3" stroke-linecap="round" marker-end="url(#arrow-dark)" /><line x1="720" y1="400" x2="535" y2="500" stroke="#4d8c6a" stroke-width="3" stroke-linecap="round" marker-end="url(#arrow-green)" /><line x1="720" y1="400" x2="905" y2="500" stroke="#c85b73" stroke-width="3" stroke-linecap="round" marker-end="url(#arrow-red)" /><text x="732" y="205" text-anchor="start" font-family="Source Han Sans SC, Microsoft YaHei, sans-serif" font-size="18" font-weight="700" fill="#334e68">L*</text><text x="520" y="520" text-anchor="middle" font-family="Source Han Sans SC, Microsoft YaHei, sans-serif" font-size="16" font-weight="700" fill="#397456">−a* 绿</text><text x="920" y="520" text-anchor="middle" font-family="Source Han Sans SC, Microsoft YaHei, sans-serif" font-size="16" font-weight="700" fill="#a24862">+a* 红</text><line x1="720" y1="400" x2="610" y2="300" stroke="#3b82b5" stroke-width="3" stroke-linecap="round" marker-end="url(#arrow-blue)" /><line x1="720" y1="400" x2="830" y2="300" stroke="#c58a2d" stroke-width="3" stroke-linecap="round" marker-end="url(#arrow-gold)" /><text x="595" y="288" text-anchor="middle" font-family="Source Han Sans SC, Microsoft YaHei, sans-serif" font-size="16" font-weight="700" fill="#285b7a">−b* 蓝</text><text x="845" y="288" text-anchor="middle" font-family="Source Han Sans SC, Microsoft YaHei, sans-serif" font-size="16" font-weight="700" fill="#8a5f19">+b* 黄</text><circle cx="720" cy="400" r="78" fill="none" stroke="#7b4b74" stroke-width="2" stroke-dasharray="7 5" /><line x1="720" y1="400" x2="782" y2="353" stroke="#7b4b74" stroke-width="4" stroke-linecap="round" /><circle cx="782" cy="353" r="8" fill="#7b4b74" /><text x="797" y="345" text-anchor="start" font-family="Source Han Sans SC, Microsoft YaHei, sans-serif" font-size="16" font-weight="700" fill="#7b4b74">C*ab</text><text x="720" y="570" text-anchor="middle" font-family="Source Han Sans SC, Microsoft YaHei, sans-serif" font-size="17" font-weight="400" fill="#486581">C* = √(a*²+b*²)，h = atan2(b*,a*)</text><rect x="995" y="105" width="470" height="500" rx="16" fill="#f7efff" stroke="#c9a9e8" stroke-width="2.5" /><text x="1230.0" y="147" text-anchor="middle" font-family="Source Han Sans SC, Microsoft YaHei, sans-serif" font-size="21" font-weight="700" fill="#7b4b74">局部色差度量</text><text x="1230.0" y="182" text-anchor="middle" font-family="Source Han Sans SC, Microsoft YaHei, sans-serif" font-size="16" font-weight="400" fill="#486581">同样数值不一定同样可见</text><ellipse cx="1080" cy="285" rx="52" ry="22" fill="#c9a9e8" fill-opacity="0.25" stroke="#7b4b74" stroke-width="2.5" transform="rotate(-20 1080 285)" /><circle cx="1080" cy="285" r="5" fill="#7b4b74" /><ellipse cx="1260" cy="270" rx="30" ry="58" fill="#c9a9e8" fill-opacity="0.25" stroke="#7b4b74" stroke-width="2.5" transform="rotate(25 1260 270)" /><circle cx="1260" cy="270" r="5" fill="#7b4b74" /><ellipse cx="1160" cy="430" rx="68" ry="30" fill="#c9a9e8" fill-opacity="0.25" stroke="#7b4b74" stroke-width="2.5" transform="rotate(15 1160 430)" /><circle cx="1160" cy="430" r="5" fill="#7b4b74" /><ellipse cx="1350" cy="455" rx="38" ry="18" fill="#c9a9e8" fill-opacity="0.25" stroke="#7b4b74" stroke-width="2.5" transform="rotate(-35 1350 455)" /><circle cx="1350" cy="455" r="5" fill="#7b4b74" /><text x="1230" y="535" text-anchor="middle" font-family="Source Han Sans SC, Microsoft YaHei, sans-serif" font-size="18" font-weight="700" fill="#7b4b74">ΔE*ab = √(ΔL*²+Δa*²+Δb*²)</text><text x="1230" y="570" text-anchor="middle" font-family="Source Han Sans SC, Microsoft YaHei, sans-serif" font-size="16" font-weight="400" fill="#486581">ΔE00 用位置相关权重与旋转项修正</text><rect x="165" y="640" width="1170" height="62" rx="16" fill="#fff0f3" stroke="#eab0be" stroke-width="2.5" /><text x="750.0" y="682" text-anchor="middle" font-family="Source Han Sans SC, Microsoft YaHei, sans-serif" font-size="21" font-weight="700" fill="#a24862">色差阈值依赖亮度、色相、面积、纹理、显示与观察者；不存在跨条件通用的“ΔE&lt;1 绝对不可见”</text></svg>