<?xml version='1.0' encoding='utf-8'?>
<svg xmlns="http://www.w3.org/2000/svg" width="1500" height="720" viewBox="0 0 1500 720" role="img" aria-label="不同光谱落入三刺激映射同一输出形成同色异谱"><defs><marker id="arrow-blue" markerWidth="10" markerHeight="8" refX="9" refY="4" orient="auto" markerUnits="strokeWidth"><path d="M 0 0 L 10 4 L 0 8 z" fill="#3b82b5" /></marker><marker id="arrow-dark" markerWidth="10" markerHeight="8" refX="9" refY="4" orient="auto" markerUnits="strokeWidth"><path d="M 0 0 L 10 4 L 0 8 z" fill="#334e68" /></marker><marker id="arrow-red" markerWidth="10" markerHeight="8" refX="9" refY="4" orient="auto" markerUnits="strokeWidth"><path d="M 0 0 L 10 4 L 0 8 z" fill="#c85b73" /></marker><marker id="arrow-green" markerWidth="10" markerHeight="8" refX="9" refY="4" orient="auto" markerUnits="strokeWidth"><path d="M 0 0 L 10 4 L 0 8 z" fill="#4d8c6a" /></marker><marker id="arrow-gold" markerWidth="10" markerHeight="8" refX="9" refY="4" orient="auto" markerUnits="strokeWidth"><path d="M 0 0 L 10 4 L 0 8 z" fill="#c58a2d" /></marker><marker id="arrow-purple" markerWidth="10" markerHeight="8" refX="9" refY="4" orient="auto" markerUnits="strokeWidth"><path d="M 0 0 L 10 4 L 0 8 z" fill="#7b4b74" /></marker></defs><rect width="1500" height="720" fill="#fbfdff" /><text x="750.0" y="43" text-anchor="middle" font-family="Source Han Sans SC, Microsoft YaHei, sans-serif" font-size="31" font-weight="700" fill="#102a43">同色异谱是线性映射零空间的必然结果</text><rect x="45" y="110" width="310" height="390" rx="16" fill="#f7f9fb" stroke="#b8c5cf" stroke-width="2.5" /><text x="200.0" y="152" text-anchor="middle" font-family="Source Han Sans SC, Microsoft YaHei, sans-serif" font-size="21" font-weight="700" fill="#102a43">光谱 s₁(λ)</text><text x="200.0" y="187" text-anchor="middle" font-family="Source Han Sans SC, Microsoft YaHei, sans-serif" font-size="16" font-weight="400" fill="#486581">形状明显不同</text><line x1="80" y1="430" x2="320" y2="430" stroke="#334e68" stroke-width="2" stroke-linecap="round" marker-end="url(#arrow-dark)" /><line x1="80" y1="430" x2="80" y2="210" stroke="#334e68" stroke-width="2" stroke-linecap="round" marker-end="url(#arrow-dark)" /><text x="320" y="462" text-anchor="end" font-family="Source Han Sans SC, Microsoft YaHei, sans-serif" font-size="15" font-weight="400" fill="#627d98">λ</text><polyline points="80.00,389.42 81.60,388.99 83.20,388.48 84.80,387.89 86.40,387.20 88.00,386.40 89.60,385.48 91.20,384.43 92.80,383.23 94.40,381.87 96.00,380.34 97.60,378.63 99.20,376.72 100.80,374.61 102.40,372.27 104.00,369.72 105.60,366.94 107.20,363.93 108.80,360.69 110.40,357.22 112.00,353.54 113.60,349.65 115.20,345.58 116.80,341.33 118.40,336.94 120.00,332.43 121.60,327.84 123.20,323.21 124.80,318.57 126.40,313.96 128.00,309.44 129.60,305.04 131.20,300.83 132.80,296.84 134.40,293.12 136.00,289.71 137.60,286.67 139.20,284.02 140.80,281.80 142.40,280.05 144.00,278.78 145.60,278.01 147.20,277.75 148.80,278.01 150.40,278.78 152.00,280.05 153.60,281.80 155.20,284.02 156.80,286.66 158.40,289.71 160.00,293.11 161.60,296.83 163.20,300.82 164.80,305.03 166.40,309.42 168.00,313.93 169.60,318.53 171.20,323.16 172.80,327.78 174.40,332.35 176.00,336.84 177.60,341.20 179.20,345.41 180.80,349.45 182.40,353.29 184.00,356.91 185.60,360.30 187.20,363.45 188.80,366.35 190.40,369.00 192.00,371.40 193.60,373.55 195.20,375.45 196.80,377.10 198.40,378.52 200.00,379.71 201.60,380.67 203.20,381.41 204.80,381.95 206.40,382.28 208.00,382.41 209.60,382.35 211.20,382.11 212.80,381.69 214.40,381.09 216.00,380.33 217.60,379.41 219.20,378.33 220.80,377.10 222.40,375.73 224.00,374.23 225.60,372.60 227.20,370.86 228.80,369.02 230.40,367.09 232.00,365.09 233.60,363.03 235.20,360.93 236.80,358.82 238.40,356.70 240.00,354.61 241.60,352.56 243.20,350.58 244.80,348.69 246.40,346.91 248.00,345.27 249.60,343.79 251.20,342.47 252.80,341.35 254.40,340.43 256.00,339.74 257.60,339.26 259.20,339.03 260.80,339.03 262.40,339.27 264.00,339.74 265.60,340.44 267.20,341.36 268.80,342.48 270.40,343.80 272.00,345.29 273.60,346.93 275.20,348.72 276.80,350.61 278.40,352.60 280.00,354.66 281.60,356.77 283.20,358.91 284.80,361.05 286.40,363.18 288.00,365.28 289.60,367.34 291.20,369.33 292.80,371.26 294.40,373.09 296.00,374.84 297.60,376.49 299.20,378.04 300.80,379.48 302.40,380.82 304.00,382.05 305.60,383.18 307.20,384.20 308.80,385.13 310.40,385.97 312.00,386.71 313.60,387.38 315.20,387.97 316.80,388.49 318.40,388.94 320.00,389.34" stroke="#3b82b5" stroke-width="4" fill="none" stroke-linejoin="round" stroke-linecap="round" /><rect x="405" y="110" width="310" height="390" rx="16" fill="#f7f9fb" stroke="#b8c5cf" stroke-width="2.5" /><text x="560.0" y="152" text-anchor="middle" font-family="Source Han Sans SC, Microsoft YaHei, sans-serif" font-size="21" font-weight="700" fill="#102a43">光谱 s₂(λ)</text><text x="560.0" y="187" text-anchor="middle" font-family="Source Han Sans SC, Microsoft YaHei, sans-serif" font-size="16" font-weight="400" fill="#486581">形状明显不同</text><line x1="440" y1="430" x2="680" y2="430" stroke="#334e68" stroke-width="2" stroke-linecap="round" marker-end="url(#arrow-dark)" /><line x1="440" y1="430" x2="440" y2="210" stroke="#334e68" stroke-width="2" stroke-linecap="round" marker-end="url(#arrow-dark)" /><text x="680" y="462" text-anchor="end" font-family="Source Han Sans SC, Microsoft YaHei, sans-serif" font-size="15" font-weight="400" fill="#627d98">λ</text><polyline points="440.00,358.89 441.60,353.87 443.20,348.72 444.80,343.53 446.40,338.37 448.00,333.33 449.60,328.48 451.20,323.92 452.80,319.72 454.40,315.97 456.00,312.75 457.60,310.11 459.20,308.12 460.80,306.82 462.40,306.25 464.00,306.43 465.60,307.36 467.20,309.02 468.80,311.38 470.40,314.39 472.00,317.99 473.60,322.09 475.20,326.60 476.80,331.42 478.40,336.44 480.00,341.54 481.60,346.61 483.20,351.54 484.80,356.21 486.40,360.55 488.00,364.45 489.60,367.84 491.20,370.68 492.80,372.92 494.40,374.53 496.00,375.50 497.60,375.84 499.20,375.58 500.80,374.74 502.40,373.38 504.00,371.53 505.60,369.28 507.20,366.68 508.80,363.80 510.40,360.72 512.00,357.50 513.60,354.21 515.20,350.92 516.80,347.68 518.40,344.54 520.00,341.55 521.60,338.75 523.20,336.16 524.80,333.80 526.40,331.69 528.00,329.82 529.60,328.19 531.20,326.80 532.80,325.62 534.40,324.63 536.00,323.80 537.60,323.11 539.20,322.53 540.80,322.01 542.40,321.54 544.00,321.08 545.60,320.60 547.20,320.08 548.80,319.49 550.40,318.83 552.00,318.08 553.60,317.22 555.20,316.27 556.80,315.23 558.40,314.09 560.00,312.88 561.60,311.62 563.20,310.32 564.80,309.00 566.40,307.70 568.00,306.45 569.60,305.27 571.20,304.20 572.80,303.26 574.40,302.49 576.00,301.93 577.60,301.59 579.20,301.51 580.80,301.71 582.40,302.21 584.00,303.03 585.60,304.19 587.20,305.70 588.80,307.55 590.40,309.76 592.00,312.31 593.60,315.21 595.20,318.42 596.80,321.94 598.40,325.73 600.00,329.77 601.60,334.02 603.20,338.43 604.80,342.96 606.40,347.56 608.00,352.18 609.60,356.76 611.20,361.24 612.80,365.58 614.40,369.72 616.00,373.59 617.60,377.16 619.20,380.37 620.80,383.19 622.40,385.57 624.00,387.49 625.60,388.92 627.20,389.86 628.80,390.30 630.40,390.24 632.00,389.69 633.60,388.69 635.20,387.25 636.80,385.42 638.40,383.24 640.00,380.76 641.60,378.04 643.20,375.15 644.80,372.14 646.40,369.10 648.00,366.07 649.60,363.13 651.20,360.35 652.80,357.78 654.40,355.47 656.00,353.49 657.60,351.88 659.20,350.66 660.80,349.87 662.40,349.51 664.00,349.61 665.60,350.16 667.20,351.14 668.80,352.54 670.40,354.32 672.00,356.45 673.60,358.88 675.20,361.56 676.80,364.43 678.40,367.43 680.00,370.50" stroke="#c85b73" stroke-width="4" fill="none" stroke-linejoin="round" stroke-linecap="round" /><line x1="725" y1="305" x2="790" y2="305" stroke="#3b82b5" stroke-width="4" stroke-linecap="round" marker-end="url(#arrow-blue)" /><rect x="795" y="110" width="330" height="390" rx="16" fill="#fffaf1" stroke="#e8c77d" stroke-width="2.5" /><text x="960.0" y="152" text-anchor="middle" font-family="Source Han Sans SC, Microsoft YaHei, sans-serif" font-size="21" font-weight="700" fill="#8a5f19">差光谱 d=s₂−s₁</text><text x="960.0" y="187" text-anchor="middle" font-family="Source Han Sans SC, Microsoft YaHei, sans-serif" font-size="16" font-weight="400" fill="#486581">可有正负分量；A d = 0</text><line x1="835" y1="330" x2="1085" y2="330" stroke="#8aa2b5" stroke-width="2" stroke-linecap="round" /><polyline points="835.00,330.00 836.67,326.89 838.33,323.69 840.00,320.44 841.67,317.23 843.33,314.11 845.00,311.13 846.67,308.36 848.33,305.84 850.00,303.60 851.67,301.68 853.33,300.11 855.00,298.90 856.67,298.05 858.33,297.57 860.00,297.44 861.67,297.65 863.33,298.16 865.00,298.96 866.67,300.00 868.33,301.23 870.00,302.62 871.67,304.11 873.33,305.65 875.00,307.21 876.67,308.73 878.33,310.16 880.00,311.47 881.67,312.62 883.33,313.58 885.00,314.33 886.67,314.85 888.33,315.15 890.00,315.21 891.67,315.04 893.33,314.67 895.00,314.12 896.67,313.41 898.33,312.59 900.00,311.70 901.67,310.79 903.33,309.91 905.00,309.12 906.67,308.46 908.33,308.00 910.00,307.79 911.67,307.88 913.33,308.31 915.00,309.14 916.67,310.38 918.33,312.07 920.00,314.23 921.67,316.87 923.33,319.99 925.00,323.57 926.67,327.61 928.33,332.06 930.00,336.90 931.67,342.07 933.33,347.52 935.00,353.19 936.67,359.01 938.33,364.90 940.00,370.78 941.67,376.58 943.33,382.22 945.00,387.61 946.67,392.67 948.33,397.34 950.00,401.54 951.67,405.21 953.33,408.29 955.00,410.74 956.67,412.51 958.33,413.59 960.00,413.95 961.67,413.59 963.33,412.51 965.00,410.74 966.67,408.29 968.33,405.21 970.00,401.54 971.67,397.34 973.33,392.67 975.00,387.61 976.67,382.22 978.33,376.58 980.00,370.78 981.67,364.90 983.33,359.01 985.00,353.19 986.67,347.52 988.33,342.07 990.00,336.90 991.67,332.06 993.33,327.61 995.00,323.57 996.67,319.99 998.33,316.87 1000.00,314.23 1001.67,312.07 1003.33,310.38 1005.00,309.14 1006.67,308.31 1008.33,307.88 1010.00,307.79 1011.67,308.00 1013.33,308.46 1015.00,309.12 1016.67,309.91 1018.33,310.79 1020.00,311.70 1021.67,312.59 1023.33,313.41 1025.00,314.12 1026.67,314.67 1028.33,315.04 1030.00,315.21 1031.67,315.15 1033.33,314.85 1035.00,314.33 1036.67,313.58 1038.33,312.62 1040.00,311.47 1041.67,310.16 1043.33,308.73 1045.00,307.21 1046.67,305.65 1048.33,304.11 1050.00,302.62 1051.67,301.23 1053.33,300.00 1055.00,298.96 1056.67,298.16 1058.33,297.65 1060.00,297.44 1061.67,297.57 1063.33,298.05 1065.00,298.90 1066.67,300.11 1068.33,301.68 1070.00,303.60 1071.67,305.84 1073.33,308.36 1075.00,311.13 1076.67,314.11 1078.33,317.23 1080.00,320.44 1081.67,323.69 1083.33,326.89 1085.00,330.00" stroke="#c58a2d" stroke-width="4" fill="none" stroke-linejoin="round" stroke-linecap="round" /><text x="960" y="455" text-anchor="middle" font-family="Source Han Sans SC, Microsoft YaHei, sans-serif" font-size="16" font-weight="700" fill="#7b4b74">∫d(λ)qᵢ(λ)dλ = 0，i=1,2,3</text><line x1="1130" y1="305" x2="1195" y2="305" stroke="#3b82b5" stroke-width="4" stroke-linecap="round" marker-end="url(#arrow-blue)" /><rect x="1200" y="110" width="265" height="390" rx="16" fill="#edf8f2" stroke="#9fd6b7" stroke-width="2.5" /><text x="1332.5" y="152" text-anchor="middle" font-family="Source Han Sans SC, Microsoft YaHei, sans-serif" font-size="21" font-weight="700" fill="#397456">相同三刺激值</text><text x="1332.5" y="187" text-anchor="middle" font-family="Source Han Sans SC, Microsoft YaHei, sans-serif" font-size="16" font-weight="400" fill="#486581">As₁ = As₂</text><text x="1245" y="241" text-anchor="start" font-family="Source Han Sans SC, Microsoft YaHei, sans-serif" font-size="18" font-weight="700" fill="#c85b73">X</text><rect x="1280" y="222" width="90.0" height="25" rx="7" fill="#c85b73" fill-opacity="0.55" /><text x="1245" y="319" text-anchor="start" font-family="Source Han Sans SC, Microsoft YaHei, sans-serif" font-size="18" font-weight="700" fill="#4d8c6a">Y</text><rect x="1280" y="300" width="72.5" height="25" rx="7" fill="#4d8c6a" fill-opacity="0.55" /><text x="1245" y="397" text-anchor="start" font-family="Source Han Sans SC, Microsoft YaHei, sans-serif" font-size="18" font-weight="700" fill="#3b82b5">Z</text><rect x="1280" y="378" width="43.75" height="25" rx="7" fill="#3b82b5" fill-opacity="0.55" /><text x="1332" y="452" text-anchor="middle" font-family="Source Han Sans SC, Microsoft YaHei, sans-serif" font-size="16" font-weight="400" fill="#486581">人眼匹配；光谱仪仍可区分</text><rect x="120" y="575" width="1260" height="92" rx="16" fill="#f7efff" stroke="#c9a9e8" stroke-width="2.5" /><text x="750.0" y="617" text-anchor="middle" font-family="Source Han Sans SC, Microsoft YaHei, sans-serif" font-size="21" font-weight="700" fill="#7b4b74">离散为 N 个波长样本：t = A s，A∈ℝ³ˣᴺ；当 rank(A)=3 时，dim ker(A)=N−3</text><text x="750.0" y="652" text-anchor="middle" font-family="Source Han Sans SC, Microsoft YaHei, sans-serif" font-size="16" font-weight="400" fill="#486581">因此三刺激值不能唯一反演光谱</text></svg>