<?xml version='1.0' encoding='utf-8'?>
<svg xmlns="http://www.w3.org/2000/svg" width="1500" height="680" viewBox="0 0 1500 680" role="img" aria-label="中间调优先与高光优先测光的目标函数"><defs><marker id="arrow-blue" markerWidth="10" markerHeight="8" refX="9" refY="4" orient="auto" markerUnits="strokeWidth"><path d="M 0 0 L 10 4 L 0 8 z" fill="#3b82b5" /></marker><marker id="arrow-dark" markerWidth="10" markerHeight="8" refX="9" refY="4" orient="auto" markerUnits="strokeWidth"><path d="M 0 0 L 10 4 L 0 8 z" fill="#334e68" /></marker><marker id="arrow-red" markerWidth="10" markerHeight="8" refX="9" refY="4" orient="auto" markerUnits="strokeWidth"><path d="M 0 0 L 10 4 L 0 8 z" fill="#c85b73" /></marker><marker id="arrow-green" markerWidth="10" markerHeight="8" refX="9" refY="4" orient="auto" markerUnits="strokeWidth"><path d="M 0 0 L 10 4 L 0 8 z" fill="#4d8c6a" /></marker></defs><rect width="1500" height="680" fill="#fbfdff" /><text x="750.0" y="43" text-anchor="middle" font-family="Source Han Sans SC, Microsoft YaHei, sans-serif" font-size="31" font-weight="700" fill="#102a43">同一场景分布，不同损失函数给出不同曝光</text><line x1="750" y1="82" x2="750" y2="610" stroke="#d7e0e7" stroke-width="2" stroke-linecap="round" /><text x="375" y="95" text-anchor="middle" font-family="Source Han Sans SC, Microsoft YaHei, sans-serif" font-size="24" font-weight="700" fill="#3b82b5">中间调优先</text><text x="375" y="125" text-anchor="middle" font-family="Source Han Sans SC, Microsoft YaHei, sans-serif" font-size="17" font-weight="400" fill="#627d98">把加权几何均值映射到目标码值</text><line x1="90" y1="510" x2="660" y2="510" stroke="#334e68" stroke-width="2" stroke-linecap="round" marker-end="url(#arrow-dark)" /><line x1="90" y1="510" x2="90" y2="180" stroke="#334e68" stroke-width="2" stroke-linecap="round" marker-end="url(#arrow-dark)" /><polyline points="90.00,498.28 92.38,497.23 94.77,496.12 97.15,494.92 99.54,493.63 101.92,492.25 104.31,490.79 106.69,489.22 109.08,487.55 111.46,485.77 113.85,483.88 116.23,481.88 118.62,479.76 121.00,477.51 123.39,475.13 125.77,472.63 128.16,469.98 130.54,467.20 132.93,464.28 135.31,461.21 137.70,457.99 140.08,454.63 142.47,451.11 144.85,447.44 147.24,443.61 149.62,439.63 152.01,435.49 154.39,431.20 156.78,426.75 159.16,422.16 161.55,417.41 163.93,412.51 166.32,407.48 168.70,402.30 171.09,396.98 173.47,391.54 175.86,385.97 178.24,380.29 180.63,374.50 183.01,368.61 185.40,362.63 187.78,356.57 190.17,350.44 192.55,344.24 194.94,338.00 197.32,331.73 199.71,325.43 202.09,319.13 204.48,312.83 206.86,306.55 209.25,300.31 211.63,294.11 214.02,287.98 216.40,281.94 218.79,275.99 221.17,270.16 223.56,264.45 225.94,258.89 228.33,253.49 230.71,248.27 233.10,243.25 235.48,238.43 237.87,233.83 240.25,229.47 242.64,225.36 245.02,221.52 247.41,217.95 249.79,214.66 252.18,211.67 254.56,209.00 256.95,206.63 259.33,204.59 261.72,202.88 264.10,201.51 266.49,200.48 268.87,199.79 271.26,199.45 273.64,199.45 276.03,199.81 278.41,200.51 280.79,201.55 283.18,202.93 285.56,204.65 287.95,206.70 290.33,209.07 292.72,211.75 295.10,214.73 297.49,218.01 299.87,221.58 302.26,225.41 304.64,229.50 307.03,233.83 309.41,238.38 311.80,243.15 314.18,248.11 316.57,253.24 318.95,258.53 321.34,263.96 323.72,269.50 326.11,275.14 328.49,280.85 330.88,286.61 333.26,292.39 335.65,298.18 338.03,303.94 340.42,309.66 342.80,315.29 345.19,320.83 347.57,326.23 349.96,331.48 352.34,336.54 354.73,341.38 357.11,345.98 359.50,350.32 361.88,354.36 364.27,358.07 366.65,361.44 369.04,364.44 371.42,367.05 373.81,369.26 376.19,371.04 378.58,372.39 380.96,373.30 383.35,373.76 385.73,373.78 388.12,373.37 390.50,372.53 392.89,371.29 395.27,369.66 397.66,367.67 400.04,365.37 402.43,362.79 404.81,359.97 407.20,356.96 409.58,353.83 411.97,350.62 414.35,347.40 416.74,344.23 419.12,341.18 421.51,338.29 423.89,335.65 426.28,333.30 428.66,331.31 431.05,329.72 433.43,328.58 435.82,327.94 438.20,327.82 440.59,328.26 442.97,329.26 445.36,330.85 447.74,333.02 450.13,335.77 452.51,339.07 454.90,342.92 457.28,347.27 459.67,352.10 462.05,357.36 464.44,362.99 466.82,368.97 469.21,375.21 471.59,381.68 473.97,388.32 476.36,395.07 478.74,401.86 481.13,408.66 483.51,415.41 485.90,422.06 488.28,428.56 490.67,434.89 493.05,441.00 495.44,446.86 497.82,452.46 500.21,457.76 502.59,462.76 504.98,467.43 507.36,471.77 509.75,475.78 512.13,479.45 514.52,482.77 516.90,485.75 519.29,488.38 521.67,490.65 524.06,492.56 526.44,494.10 528.83,495.27 531.21,496.06 533.60,496.46 535.98,496.46 538.37,496.07 540.75,495.29 543.14,494.14 545.52,492.63 547.91,490.80 550.29,488.71 552.68,486.42 555.06,483.99 557.45,481.52 559.83,479.11 562.22,476.85 564.60,474.83 566.99,473.15 569.37,471.88 571.76,471.09 574.14,470.82 576.53,471.09 578.91,471.88 581.30,473.18 583.68,474.93 586.07,477.07 588.45,479.51 590.84,482.16 593.22,484.95 595.61,487.77 597.99,490.55 600.38,493.23 602.76,495.74 605.15,498.05 607.53,500.13 609.92,501.96 612.30,503.54 614.69,504.89 617.07,506.01 619.46,506.93 621.84,507.67 624.23,508.26 626.61,508.72 629.00,509.07 631.38,509.33 633.77,509.53 636.15,509.67 638.54,509.77 640.92,509.85 643.31,509.90 645.69,509.93 648.08,509.96 650.46,509.97 652.85,509.98 655.23,509.99 657.62,509.99 660.00,510.00" stroke="#627d98" stroke-width="3" fill="none" stroke-linejoin="round" stroke-linecap="round" /><line x1="590.46" y1="180" x2="590.46" y2="510" stroke="#3b82b5" stroke-width="4" stroke-linecap="round" stroke-dasharray="9 7" /><line x1="360.75" y1="300" x2="360.75" y2="510" stroke="#4d8c6a" stroke-width="3" stroke-linecap="round" /><text x="582.46" y="200" text-anchor="end" font-family="Source Han Sans SC, Microsoft YaHei, sans-serif" font-size="17" font-weight="700" fill="#3b82b5">饱和界</text><text x="360.75" y="550" text-anchor="middle" font-family="Source Han Sans SC, Microsoft YaHei, sans-serif" font-size="16" font-weight="700" fill="#397456">目标中间调</text><text x="90" y="545" text-anchor="start" font-family="Source Han Sans SC, Microsoft YaHei, sans-serif" font-size="16" font-weight="400" fill="#627d98">暗部</text><text x="660" y="545" text-anchor="end" font-family="Source Han Sans SC, Microsoft YaHei, sans-serif" font-size="16" font-weight="400" fill="#627d98">高光</text><text x="1125" y="95" text-anchor="middle" font-family="Source Han Sans SC, Microsoft YaHei, sans-serif" font-size="24" font-weight="700" fill="#c85b73">高光优先</text><text x="1125" y="125" text-anchor="middle" font-family="Source Han Sans SC, Microsoft YaHei, sans-serif" font-size="17" font-weight="400" fill="#627d98">让高分位数停在饱和阈值之前</text><line x1="840" y1="510" x2="1410" y2="510" stroke="#334e68" stroke-width="2" stroke-linecap="round" marker-end="url(#arrow-dark)" /><line x1="840" y1="510" x2="840" y2="180" stroke="#334e68" stroke-width="2" stroke-linecap="round" marker-end="url(#arrow-dark)" /><polyline points="840.00,498.28 842.38,497.23 844.77,496.12 847.15,494.92 849.54,493.63 851.92,492.25 854.31,490.79 856.69,489.22 859.08,487.55 861.46,485.77 863.85,483.88 866.23,481.88 868.62,479.76 871.00,477.51 873.39,475.13 875.77,472.63 878.16,469.98 880.54,467.20 882.93,464.28 885.31,461.21 887.70,457.99 890.08,454.63 892.47,451.11 894.85,447.44 897.24,443.61 899.62,439.63 902.01,435.49 904.39,431.20 906.78,426.75 909.16,422.16 911.55,417.41 913.93,412.51 916.32,407.48 918.70,402.30 921.09,396.98 923.47,391.54 925.86,385.97 928.24,380.29 930.63,374.50 933.01,368.61 935.40,362.63 937.78,356.57 940.17,350.44 942.55,344.24 944.94,338.00 947.32,331.73 949.71,325.43 952.09,319.13 954.48,312.83 956.86,306.55 959.25,300.31 961.63,294.11 964.02,287.98 966.40,281.94 968.79,275.99 971.17,270.16 973.56,264.45 975.94,258.89 978.33,253.49 980.71,248.27 983.10,243.25 985.48,238.43 987.87,233.83 990.25,229.47 992.64,225.36 995.02,221.52 997.41,217.95 999.79,214.66 1002.18,211.67 1004.56,209.00 1006.95,206.63 1009.33,204.59 1011.72,202.88 1014.10,201.51 1016.49,200.48 1018.87,199.79 1021.26,199.45 1023.64,199.45 1026.03,199.81 1028.41,200.51 1030.79,201.55 1033.18,202.93 1035.56,204.65 1037.95,206.70 1040.33,209.07 1042.72,211.75 1045.10,214.73 1047.49,218.01 1049.87,221.58 1052.26,225.41 1054.64,229.50 1057.03,233.83 1059.41,238.38 1061.80,243.15 1064.18,248.11 1066.57,253.24 1068.95,258.53 1071.34,263.96 1073.72,269.50 1076.11,275.14 1078.49,280.85 1080.88,286.61 1083.26,292.39 1085.65,298.18 1088.03,303.94 1090.42,309.66 1092.80,315.29 1095.19,320.83 1097.57,326.23 1099.96,331.48 1102.34,336.54 1104.73,341.38 1107.11,345.98 1109.50,350.32 1111.88,354.36 1114.27,358.07 1116.65,361.44 1119.04,364.44 1121.42,367.05 1123.81,369.26 1126.19,371.04 1128.58,372.39 1130.96,373.30 1133.35,373.76 1135.73,373.78 1138.12,373.37 1140.50,372.53 1142.89,371.29 1145.27,369.66 1147.66,367.67 1150.04,365.37 1152.43,362.79 1154.81,359.97 1157.20,356.96 1159.58,353.83 1161.97,350.62 1164.35,347.40 1166.74,344.23 1169.12,341.18 1171.51,338.29 1173.89,335.65 1176.28,333.30 1178.66,331.31 1181.05,329.72 1183.43,328.58 1185.82,327.94 1188.20,327.82 1190.59,328.26 1192.97,329.26 1195.36,330.85 1197.74,333.02 1200.13,335.77 1202.51,339.07 1204.90,342.92 1207.28,347.27 1209.67,352.10 1212.05,357.36 1214.44,362.99 1216.82,368.97 1219.21,375.21 1221.59,381.68 1223.97,388.32 1226.36,395.07 1228.74,401.86 1231.13,408.66 1233.51,415.41 1235.90,422.06 1238.28,428.56 1240.67,434.89 1243.05,441.00 1245.44,446.86 1247.82,452.46 1250.21,457.76 1252.59,462.76 1254.98,467.43 1257.36,471.77 1259.75,475.78 1262.13,479.45 1264.52,482.77 1266.90,485.75 1269.29,488.38 1271.67,490.65 1274.06,492.56 1276.44,494.10 1278.83,495.27 1281.21,496.06 1283.60,496.46 1285.98,496.46 1288.37,496.07 1290.75,495.29 1293.14,494.14 1295.52,492.63 1297.91,490.80 1300.29,488.71 1302.68,486.42 1305.06,483.99 1307.45,481.52 1309.83,479.11 1312.22,476.85 1314.60,474.83 1316.99,473.15 1319.37,471.88 1321.76,471.09 1324.14,470.82 1326.53,471.09 1328.91,471.88 1331.30,473.18 1333.68,474.93 1336.07,477.07 1338.45,479.51 1340.84,482.16 1343.22,484.95 1345.61,487.77 1347.99,490.55 1350.38,493.23 1352.76,495.74 1355.15,498.05 1357.53,500.13 1359.92,501.96 1362.30,503.54 1364.69,504.89 1367.07,506.01 1369.46,506.93 1371.84,507.67 1374.23,508.26 1376.61,508.72 1379.00,509.07 1381.38,509.33 1383.77,509.53 1386.15,509.67 1388.54,509.77 1390.92,509.85 1393.31,509.90 1395.69,509.93 1398.08,509.96 1400.46,509.97 1402.85,509.98 1405.23,509.99 1407.62,509.99 1410.00,510.00" stroke="#627d98" stroke-width="3" fill="none" stroke-linejoin="round" stroke-linecap="round" /><line x1="1275.822" y1="180" x2="1275.822" y2="510" stroke="#c85b73" stroke-width="4" stroke-linecap="round" stroke-dasharray="9 7" /><line x1="1072.275" y1="300" x2="1072.275" y2="510" stroke="#4d8c6a" stroke-width="3" stroke-linecap="round" /><text x="1267.822" y="200" text-anchor="end" font-family="Source Han Sans SC, Microsoft YaHei, sans-serif" font-size="17" font-weight="700" fill="#c85b73">饱和界</text><text x="1072.275" y="550" text-anchor="middle" font-family="Source Han Sans SC, Microsoft YaHei, sans-serif" font-size="16" font-weight="700" fill="#397456">目标中间调</text><text x="840" y="545" text-anchor="start" font-family="Source Han Sans SC, Microsoft YaHei, sans-serif" font-size="16" font-weight="400" fill="#627d98">暗部</text><text x="1410" y="545" text-anchor="end" font-family="Source Han Sans SC, Microsoft YaHei, sans-serif" font-size="16" font-weight="400" fill="#627d98">高光</text><text x="750.0" y="645" text-anchor="middle" font-family="Source Han Sans SC, Microsoft YaHei, sans-serif" font-size="21" font-weight="400" fill="#7b4b74">相机若不知道哪些区域属于主体，就不能从物理量自动推出唯一“正确曝光”</text></svg>