<?xml version='1.0' encoding='utf-8'?>
<svg xmlns="http://www.w3.org/2000/svg" width="1500" height="670" viewBox="0 0 1500 670" role="img" aria-label="曝光轨迹与运动模糊核"><defs><marker id="arrow-blue" markerWidth="10" markerHeight="8" refX="9" refY="4" orient="auto" markerUnits="strokeWidth"><path d="M 0 0 L 10 4 L 0 8 z" fill="#3b82b5" /></marker><marker id="arrow-dark" markerWidth="10" markerHeight="8" refX="9" refY="4" orient="auto" markerUnits="strokeWidth"><path d="M 0 0 L 10 4 L 0 8 z" fill="#334e68" /></marker><marker id="arrow-red" markerWidth="10" markerHeight="8" refX="9" refY="4" orient="auto" markerUnits="strokeWidth"><path d="M 0 0 L 10 4 L 0 8 z" fill="#c85b73" /></marker><marker id="arrow-green" markerWidth="10" markerHeight="8" refX="9" refY="4" orient="auto" markerUnits="strokeWidth"><path d="M 0 0 L 10 4 L 0 8 z" fill="#4d8c6a" /></marker><marker id="arrow-gold" markerWidth="10" markerHeight="8" refX="9" refY="4" orient="auto" markerUnits="strokeWidth"><path d="M 0 0 L 10 4 L 0 8 z" fill="#c58a2d" /></marker><marker id="arrow-purple" markerWidth="10" markerHeight="8" refX="9" refY="4" orient="auto" markerUnits="strokeWidth"><path d="M 0 0 L 10 4 L 0 8 z" fill="#7b4b74" /></marker></defs><rect width="1500" height="670" fill="#fbfdff" /><text x="750.0" y="43" text-anchor="middle" font-family="Source Han Sans SC, Microsoft YaHei, sans-serif" font-size="31" font-weight="700" fill="#102a43">运动模糊核是曝光时间内位置占据的归一化测度</text><text x="250" y="95" text-anchor="middle" font-family="Source Han Sans SC, Microsoft YaHei, sans-serif" font-size="23" font-weight="700" fill="#3b82b5">恒定像面速度</text><line x1="500" y1="82" x2="500" y2="590" stroke="#d7e0e7" stroke-width="2" stroke-linecap="round" /><text x="750" y="95" text-anchor="middle" font-family="Source Han Sans SC, Microsoft YaHei, sans-serif" font-size="23" font-weight="700" fill="#7b4b74">加速或抖动轨迹</text><line x1="1000" y1="82" x2="1000" y2="590" stroke="#d7e0e7" stroke-width="2" stroke-linecap="round" /><text x="1250" y="95" text-anchor="middle" font-family="Source Han Sans SC, Microsoft YaHei, sans-serif" font-size="23" font-weight="700" fill="#c85b73">空间变化的运动场</text><line x1="90" y1="260" x2="410" y2="260" stroke="#3b82b5" stroke-width="8" stroke-linecap="round" marker-end="url(#arrow-blue)" /><circle cx="100" cy="260" r="8" fill="#3b82b5" /><text x="100" y="225" text-anchor="middle" font-family="Source Han Sans SC, Microsoft YaHei, sans-serif" font-size="13" font-weight="400" fill="#627d98">t0</text><circle cx="136" cy="260" r="8" fill="#3b82b5" /><text x="136" y="213" text-anchor="middle" font-family="Source Han Sans SC, Microsoft YaHei, sans-serif" font-size="13" font-weight="400" fill="#627d98">t1</text><circle cx="172" cy="260" r="8" fill="#3b82b5" /><text x="172" y="225" text-anchor="middle" font-family="Source Han Sans SC, Microsoft YaHei, sans-serif" font-size="13" font-weight="400" fill="#627d98">t2</text><circle cx="208" cy="260" r="8" fill="#3b82b5" /><text x="208" y="213" text-anchor="middle" font-family="Source Han Sans SC, Microsoft YaHei, sans-serif" font-size="13" font-weight="400" fill="#627d98">t3</text><circle cx="244" cy="260" r="8" fill="#3b82b5" /><text x="244" y="225" text-anchor="middle" font-family="Source Han Sans SC, Microsoft YaHei, sans-serif" font-size="13" font-weight="400" fill="#627d98">t4</text><circle cx="280" cy="260" r="8" fill="#3b82b5" /><text x="280" y="213" text-anchor="middle" font-family="Source Han Sans SC, Microsoft YaHei, sans-serif" font-size="13" font-weight="400" fill="#627d98">t5</text><circle cx="316" cy="260" r="8" fill="#3b82b5" /><text x="316" y="225" text-anchor="middle" font-family="Source Han Sans SC, Microsoft YaHei, sans-serif" font-size="13" font-weight="400" fill="#627d98">t6</text><circle cx="352" cy="260" r="8" fill="#3b82b5" /><text x="352" y="213" text-anchor="middle" font-family="Source Han Sans SC, Microsoft YaHei, sans-serif" font-size="13" font-weight="400" fill="#627d98">t7</text><circle cx="388" cy="260" r="8" fill="#3b82b5" /><text x="388" y="225" text-anchor="middle" font-family="Source Han Sans SC, Microsoft YaHei, sans-serif" font-size="13" font-weight="400" fill="#627d98">t8</text><text x="250" y="330" text-anchor="middle" font-family="Source Han Sans SC, Microsoft YaHei, sans-serif" font-size="20" font-weight="700" fill="#3b82b5">长度 L=|v|T</text><rect x="115" y="390" width="270" height="58" rx="14" fill="#bcd9ef" stroke="#3b82b5" stroke-width="3" /><text x="250" y="485" text-anchor="middle" font-family="Source Han Sans SC, Microsoft YaHei, sans-serif" font-size="18" font-weight="400" fill="#486581">线段核：近似卷积</text><polyline points="580.00,340.00 582.77,340.39 585.55,340.77 588.32,341.10 591.09,341.37 593.87,341.56 596.64,341.66 599.41,341.64 602.18,341.49 604.96,341.18 607.73,340.72 610.50,340.07 613.28,339.23 616.05,338.19 618.82,336.93 621.60,335.46 624.37,333.75 627.14,331.81 629.92,329.62 632.69,327.20 635.46,324.54 638.24,321.64 641.01,318.50 643.78,315.12 646.55,311.53 649.33,307.71 652.10,303.69 654.87,299.47 657.65,295.07 660.42,290.50 663.19,285.77 665.97,280.91 668.74,275.94 671.51,270.86 674.29,265.70 677.06,260.49 679.83,255.25 682.61,249.99 685.38,244.74 688.15,239.52 690.92,234.37 693.70,229.29 696.47,224.31 699.24,219.46 702.02,214.76 704.79,210.24 707.56,205.90 710.34,201.78 713.11,197.90 715.88,194.26 718.66,190.90 721.43,187.83 724.20,185.05 726.97,182.59 729.75,180.46 732.52,178.67 735.29,177.23 738.07,176.14 740.84,175.41 743.61,175.05 746.39,175.05 749.16,175.41 751.93,176.14 754.71,177.23 757.48,178.67 760.25,180.46 763.03,182.59 765.80,185.05 768.57,187.83 771.34,190.90 774.12,194.26 776.89,197.90 779.66,201.78 782.44,205.90 785.21,210.24 787.98,214.76 790.76,219.46 793.53,224.31 796.30,229.29 799.08,234.37 801.85,239.52 804.62,244.74 807.39,249.99 810.17,255.25 812.94,260.49 815.71,265.70 818.49,270.86 821.26,275.94 824.03,280.91 826.81,285.77 829.58,290.50 832.35,295.07 835.13,299.47 837.90,303.69 840.67,307.71 843.45,311.53 846.22,315.12 848.99,318.50 851.76,321.64 854.54,324.54 857.31,327.20 860.08,329.62 862.86,331.81 865.63,333.75 868.40,335.46 871.18,336.93 873.95,338.19 876.72,339.23 879.50,340.07 882.27,340.72 885.04,341.18 887.82,341.49 890.59,341.64 893.36,341.66 896.13,341.56 898.91,341.37 901.68,341.10 904.45,340.77 907.23,340.39 910.00,340.00" stroke="#7b4b74" stroke-width="7" fill="none" stroke-linejoin="round" stroke-linecap="round" /><circle cx="580.0" cy="340.0" r="7" fill="#c8b0d9" stroke="#7b4b74" stroke-width="2" /><circle cx="621.5966386554621" cy="335.4554072973641" r="7" fill="#c8b0d9" stroke="#7b4b74" stroke-width="2" /><circle cx="663.1932773109244" cy="285.7725897057846" r="7" fill="#c8b0d9" stroke="#7b4b74" stroke-width="2" /><circle cx="704.7899159663865" cy="210.23752905589384" r="7" fill="#c8b0d9" stroke="#7b4b74" stroke-width="2" /><circle cx="746.3865546218487" cy="175.0457330237178" r="7" fill="#c8b0d9" stroke="#7b4b74" stroke-width="2" /><circle cx="787.9831932773109" cy="214.76465955901799" r="7" fill="#c8b0d9" stroke="#7b4b74" stroke-width="2" /><circle cx="829.5798319327731" cy="290.4964572700767" r="7" fill="#c8b0d9" stroke="#7b4b74" stroke-width="2" /><circle cx="871.1764705882354" cy="336.9333481685194" r="7" fill="#c8b0d9" stroke="#7b4b74" stroke-width="2" /><text x="750" y="430" text-anchor="middle" font-family="Source Han Sans SC, Microsoft YaHei, sans-serif" font-size="19" font-weight="700" fill="#7b4b74">停留久处权重大</text><text x="750" y="485" text-anchor="middle" font-family="Source Han Sans SC, Microsoft YaHei, sans-serif" font-size="18" font-weight="400" fill="#486581">核可弯曲、多峰、带回折</text><line x1="1080" y1="190" x2="1115" y2="175.0" stroke="#c85b73" stroke-width="3" stroke-linecap="round" marker-end="url(#arrow-red)" /><line x1="1185" y1="190" x2="1228" y2="179.0" stroke="#c85b73" stroke-width="3" stroke-linecap="round" marker-end="url(#arrow-red)" /><line x1="1290" y1="190" x2="1341" y2="183.0" stroke="#c85b73" stroke-width="3" stroke-linecap="round" marker-end="url(#arrow-red)" /><line x1="1395" y1="190" x2="1454" y2="187.0" stroke="#c85b73" stroke-width="3" stroke-linecap="round" marker-end="url(#arrow-red)" /><line x1="1080" y1="275" x2="1115" y2="270.0" stroke="#c85b73" stroke-width="3" stroke-linecap="round" marker-end="url(#arrow-red)" /><line x1="1185" y1="275" x2="1228" y2="274.0" stroke="#c85b73" stroke-width="3" stroke-linecap="round" marker-end="url(#arrow-red)" /><line x1="1290" y1="275" x2="1341" y2="278.0" stroke="#c85b73" stroke-width="3" stroke-linecap="round" marker-end="url(#arrow-red)" /><line x1="1395" y1="275" x2="1454" y2="282.0" stroke="#c85b73" stroke-width="3" stroke-linecap="round" marker-end="url(#arrow-red)" /><line x1="1080" y1="360" x2="1115" y2="365.0" stroke="#c85b73" stroke-width="3" stroke-linecap="round" marker-end="url(#arrow-red)" /><line x1="1185" y1="360" x2="1228" y2="369.0" stroke="#c85b73" stroke-width="3" stroke-linecap="round" marker-end="url(#arrow-red)" /><line x1="1290" y1="360" x2="1341" y2="373.0" stroke="#c85b73" stroke-width="3" stroke-linecap="round" marker-end="url(#arrow-red)" /><line x1="1395" y1="360" x2="1454" y2="377.0" stroke="#c85b73" stroke-width="3" stroke-linecap="round" marker-end="url(#arrow-red)" /><line x1="1080" y1="445" x2="1115" y2="460.0" stroke="#c85b73" stroke-width="3" stroke-linecap="round" marker-end="url(#arrow-red)" /><line x1="1185" y1="445" x2="1228" y2="464.0" stroke="#c85b73" stroke-width="3" stroke-linecap="round" marker-end="url(#arrow-red)" /><line x1="1290" y1="445" x2="1341" y2="468.0" stroke="#c85b73" stroke-width="3" stroke-linecap="round" marker-end="url(#arrow-red)" /><line x1="1395" y1="445" x2="1454" y2="472.0" stroke="#c85b73" stroke-width="3" stroke-linecap="round" marker-end="url(#arrow-red)" /><text x="1250" y="525" text-anchor="middle" font-family="Source Han Sans SC, Microsoft YaHei, sans-serif" font-size="19" font-weight="700" fill="#c85b73">不同位置具有不同 v(x)</text><text x="1250" y="560" text-anchor="middle" font-family="Source Han Sans SC, Microsoft YaHei, sans-serif" font-size="18" font-weight="400" fill="#486581">不能由单一全局卷积描述</text><text x="750.0" y="630" text-anchor="middle" font-family="Source Han Sans SC, Microsoft YaHei, sans-serif" font-size="20" font-weight="400" fill="#7b4b74">一般核 h(x)=T⁻¹∫δ(x−r(t))dt；曝光只记录轨迹的时间占据，不记录经过顺序</text></svg>