<?xml version='1.0' encoding='utf-8'?>
<svg xmlns="http://www.w3.org/2000/svg" width="1450" height="670" viewBox="0 0 1450 670" role="img" aria-label="匀速运动模糊的 sinc 频率响应"><defs><marker id="arrow-blue" markerWidth="10" markerHeight="8" refX="9" refY="4" orient="auto" markerUnits="strokeWidth"><path d="M 0 0 L 10 4 L 0 8 z" fill="#3b82b5" /></marker><marker id="arrow-dark" markerWidth="10" markerHeight="8" refX="9" refY="4" orient="auto" markerUnits="strokeWidth"><path d="M 0 0 L 10 4 L 0 8 z" fill="#334e68" /></marker><marker id="arrow-red" markerWidth="10" markerHeight="8" refX="9" refY="4" orient="auto" markerUnits="strokeWidth"><path d="M 0 0 L 10 4 L 0 8 z" fill="#c85b73" /></marker><marker id="arrow-green" markerWidth="10" markerHeight="8" refX="9" refY="4" orient="auto" markerUnits="strokeWidth"><path d="M 0 0 L 10 4 L 0 8 z" fill="#4d8c6a" /></marker><marker id="arrow-gold" markerWidth="10" markerHeight="8" refX="9" refY="4" orient="auto" markerUnits="strokeWidth"><path d="M 0 0 L 10 4 L 0 8 z" fill="#c58a2d" /></marker><marker id="arrow-purple" markerWidth="10" markerHeight="8" refX="9" refY="4" orient="auto" markerUnits="strokeWidth"><path d="M 0 0 L 10 4 L 0 8 z" fill="#7b4b74" /></marker></defs><rect width="1450" height="670" fill="#fbfdff" /><text x="725.0" y="43" text-anchor="middle" font-family="Source Han Sans SC, Microsoft YaHei, sans-serif" font-size="31" font-weight="700" fill="#102a43">线段模糊在运动方向产生 sinc 零点</text><line x1="120" y1="545" x2="1360" y2="545" stroke="#334e68" stroke-width="2" stroke-linecap="round" marker-end="url(#arrow-dark)" /><line x1="120" y1="545" x2="120" y2="125" stroke="#334e68" stroke-width="2" stroke-linecap="round" marker-end="url(#arrow-dark)" /><line x1="120" y1="125" x2="120" y2="545" stroke="#e0e7ec" stroke-width="1.2" stroke-linecap="round" /><text x="120" y="579" text-anchor="middle" font-family="Source Han Sans SC, Microsoft YaHei, sans-serif" font-size="16" font-weight="400" fill="#627d98">0.00</text><line x1="430.0" y1="125" x2="430.0" y2="545" stroke="#e0e7ec" stroke-width="1.2" stroke-linecap="round" /><text x="430.0" y="579" text-anchor="middle" font-family="Source Han Sans SC, Microsoft YaHei, sans-serif" font-size="16" font-weight="400" fill="#627d98">0.25</text><line x1="740.0" y1="125" x2="740.0" y2="545" stroke="#e0e7ec" stroke-width="1.2" stroke-linecap="round" /><text x="740.0" y="579" text-anchor="middle" font-family="Source Han Sans SC, Microsoft YaHei, sans-serif" font-size="16" font-weight="400" fill="#627d98">0.50</text><line x1="1050.0" y1="125" x2="1050.0" y2="545" stroke="#e0e7ec" stroke-width="1.2" stroke-linecap="round" /><text x="1050.0" y="579" text-anchor="middle" font-family="Source Han Sans SC, Microsoft YaHei, sans-serif" font-size="16" font-weight="400" fill="#627d98">0.75</text><line x1="1360.0" y1="125" x2="1360.0" y2="545" stroke="#e0e7ec" stroke-width="1.2" stroke-linecap="round" /><text x="1360.0" y="579" text-anchor="middle" font-family="Source Han Sans SC, Microsoft YaHei, sans-serif" font-size="16" font-weight="400" fill="#627d98">1.00</text><line x1="120" y1="545" x2="1360" y2="545" stroke="#e0e7ec" stroke-width="1.2" stroke-linecap="round" /><text x="104" y="550" text-anchor="end" font-family="Source Han Sans SC, Microsoft YaHei, sans-serif" font-size="15" font-weight="400" fill="#627d98">0.00</text><line x1="120" y1="440.0" x2="1360" y2="440.0" stroke="#e0e7ec" stroke-width="1.2" stroke-linecap="round" /><text x="104" y="445.0" text-anchor="end" font-family="Source Han Sans SC, Microsoft YaHei, sans-serif" font-size="15" font-weight="400" fill="#627d98">0.25</text><line x1="120" y1="335.0" x2="1360" y2="335.0" stroke="#e0e7ec" stroke-width="1.2" stroke-linecap="round" /><text x="104" y="340.0" text-anchor="end" font-family="Source Han Sans SC, Microsoft YaHei, sans-serif" font-size="15" font-weight="400" fill="#627d98">0.50</text><line x1="120" y1="230.0" x2="1360" y2="230.0" stroke="#e0e7ec" stroke-width="1.2" stroke-linecap="round" /><text x="104" y="235.0" text-anchor="end" font-family="Source Han Sans SC, Microsoft YaHei, sans-serif" font-size="15" font-weight="400" fill="#627d98">0.75</text><line x1="120" y1="125.0" x2="1360" y2="125.0" stroke="#e0e7ec" stroke-width="1.2" stroke-linecap="round" /><text x="104" y="130.0" text-anchor="end" font-family="Source Han Sans SC, Microsoft YaHei, sans-serif" font-size="15" font-weight="400" fill="#627d98">1.00</text><polyline points="120.00,125.00 123.88,125.00 127.75,125.01 131.62,125.02 135.50,125.03 139.38,125.04 143.25,125.06 147.12,125.08 151.00,125.11 154.88,125.14 158.75,125.17 162.62,125.20 166.50,125.24 170.38,125.28 174.25,125.33 178.12,125.38 182.00,125.43 185.88,125.49 189.75,125.55 193.62,125.61 197.50,125.67 201.38,125.74 205.25,125.82 209.12,125.89 213.00,125.97 216.88,126.05 220.75,126.14 224.62,126.23 228.50,126.32 232.38,126.42 236.25,126.52 240.12,126.62 244.00,126.73 247.88,126.83 251.75,126.95 255.62,127.06 259.50,127.18 263.38,127.31 267.25,127.43 271.12,127.56 275.00,127.69 278.88,127.83 282.75,127.97 286.62,128.11 290.50,128.26 294.38,128.41 298.25,128.56 302.12,128.72 306.00,128.88 309.88,129.04 313.75,129.20 317.62,129.37 321.50,129.55 325.38,129.72 329.25,129.90 333.12,130.08 337.00,130.27 340.88,130.46 344.75,130.65 348.62,130.85 352.50,131.05 356.38,131.25 360.25,131.45 364.12,131.66 368.00,131.87 371.88,132.09 375.75,132.31 379.62,132.53 383.50,132.76 387.38,132.98 391.25,133.22 395.12,133.45 399.00,133.69 402.88,133.93 406.75,134.18 410.62,134.42 414.50,134.67 418.38,134.93 422.25,135.19 426.12,135.45 430.00,135.71 433.88,135.98 437.75,136.25 441.62,136.52 445.50,136.80 449.38,137.08 453.25,137.36 457.12,137.65 461.00,137.94 464.88,138.23 468.75,138.53 472.62,138.83 476.50,139.13 480.38,139.44 484.25,139.75 488.12,140.06 492.00,140.37 495.88,140.69 499.75,141.01 503.62,141.34 507.50,141.66 511.38,142.00 515.25,142.33 519.12,142.67 523.00,143.01 526.88,143.35 530.75,143.70 534.62,144.05 538.50,144.40 542.38,144.75 546.25,145.11 550.12,145.48 554.00,145.84 557.88,146.21 561.75,146.58 565.62,146.95 569.50,147.33 573.38,147.71 577.25,148.09 581.12,148.48 585.00,148.87 588.88,149.26 592.75,149.66 596.62,150.06 600.50,150.46 604.38,150.86 608.25,151.27 612.12,151.68 616.00,152.09 619.88,152.51 623.75,152.93 627.62,153.35 631.50,153.78 635.38,154.21 639.25,154.64 643.12,155.07 647.00,155.51 650.88,155.95 654.75,156.39 658.62,156.84 662.50,157.29 666.38,157.74 670.25,158.19 674.12,158.65 678.00,159.11 681.88,159.58 685.75,160.04 689.62,160.51 693.50,160.98 697.38,161.46 701.25,161.94 705.12,162.42 709.00,162.90 712.88,163.39 716.75,163.87 720.62,164.37 724.50,164.86 728.38,165.36 732.25,165.86 736.12,166.36 740.00,166.87 743.88,167.38 747.75,167.89 751.62,168.40 755.50,168.92 759.38,169.44 763.25,169.96 767.12,170.48 771.00,171.01 774.88,171.54 778.75,172.08 782.62,172.61 786.50,173.15 790.38,173.69 794.25,174.24 798.12,174.78 802.00,175.33 805.88,175.88 809.75,176.44 813.62,177.00 817.50,177.56 821.38,178.12 825.25,178.68 829.12,179.25 833.00,179.82 836.88,180.39 840.75,180.97 844.62,181.55 848.50,182.13 852.38,182.71 856.25,183.30 860.12,183.88 864.00,184.47 867.88,185.07 871.75,185.66 875.62,186.26 879.50,186.86 883.38,187.47 887.25,188.07 891.12,188.68 895.00,189.29 898.88,189.90 902.75,190.52 906.62,191.14 910.50,191.76 914.38,192.38 918.25,193.01 922.12,193.63 926.00,194.26 929.88,194.90 933.75,195.53 937.62,196.17 941.50,196.81 945.38,197.45 949.25,198.09 953.12,198.74 957.00,199.39 960.88,200.04 964.75,200.69 968.62,201.35 972.50,202.01 976.38,202.67 980.25,203.33 984.12,203.99 988.00,204.66 991.88,205.33 995.75,206.00 999.62,206.68 1003.50,207.35 1007.38,208.03 1011.25,208.71 1015.12,209.39 1019.00,210.08 1022.88,210.76 1026.75,211.45 1030.62,212.14 1034.50,212.84 1038.38,213.53 1042.25,214.23 1046.12,214.93 1050.00,215.63 1053.88,216.33 1057.75,217.04 1061.62,217.75 1065.50,218.46 1069.38,219.17 1073.25,219.88 1077.12,220.60 1081.00,221.32 1084.88,222.04 1088.75,222.76 1092.62,223.48 1096.50,224.21 1100.38,224.94 1104.25,225.67 1108.12,226.40 1112.00,227.13 1115.88,227.87 1119.75,228.61 1123.62,229.35 1127.50,230.09 1131.38,230.83 1135.25,231.58 1139.12,232.32 1143.00,233.07 1146.88,233.82 1150.75,234.57 1154.62,235.33 1158.50,236.08 1162.38,236.84 1166.25,237.60 1170.12,238.36 1174.00,239.13 1177.88,239.89 1181.75,240.66 1185.62,241.43 1189.50,242.20 1193.38,242.97 1197.25,243.74 1201.12,244.52 1205.00,245.29 1208.88,246.07 1212.75,246.85 1216.62,247.63 1220.50,248.42 1224.38,249.20 1228.25,249.99 1232.12,250.78 1236.00,251.57 1239.88,252.36 1243.75,253.15 1247.62,253.95 1251.50,254.74 1255.38,255.54 1259.25,256.34 1263.12,257.14 1267.00,257.94 1270.88,258.75 1274.75,259.55 1278.62,260.36 1282.50,261.17 1286.38,261.98 1290.25,262.79 1294.12,263.60 1298.00,264.41 1301.88,265.23 1305.75,266.05 1309.62,266.86 1313.50,267.68 1317.38,268.50 1321.25,269.33 1325.12,270.15 1329.00,270.98 1332.88,271.80 1336.75,272.63 1340.62,273.46 1344.50,274.29 1348.38,275.12 1352.25,275.95 1356.12,276.78 1360.00,277.62" stroke="#4d8c6a" stroke-width="4" fill="none" stroke-linejoin="round" stroke-linecap="round" /><polyline points="120.00,125.00 123.88,125.01 127.75,125.03 131.62,125.06 135.50,125.11 139.38,125.17 143.25,125.24 147.12,125.33 151.00,125.43 154.88,125.55 158.75,125.67 162.62,125.82 166.50,125.97 170.38,126.14 174.25,126.32 178.12,126.52 182.00,126.73 185.88,126.95 189.75,127.18 193.62,127.43 197.50,127.69 201.38,127.97 205.25,128.26 209.12,128.56 213.00,128.88 216.88,129.20 220.75,129.55 224.62,129.90 228.50,130.27 232.38,130.65 236.25,131.05 240.12,131.45 244.00,131.87 247.88,132.31 251.75,132.76 255.62,133.22 259.50,133.69 263.38,134.18 267.25,134.67 271.12,135.19 275.00,135.71 278.88,136.25 282.75,136.80 286.62,137.36 290.50,137.94 294.38,138.53 298.25,139.13 302.12,139.75 306.00,140.37 309.88,141.01 313.75,141.66 317.62,142.33 321.50,143.01 325.38,143.70 329.25,144.40 333.12,145.11 337.00,145.84 340.88,146.58 344.75,147.33 348.62,148.09 352.50,148.87 356.38,149.66 360.25,150.46 364.12,151.27 368.00,152.09 371.88,152.93 375.75,153.78 379.62,154.64 383.50,155.51 387.38,156.39 391.25,157.29 395.12,158.19 399.00,159.11 402.88,160.04 406.75,160.98 410.62,161.94 414.50,162.90 418.38,163.87 422.25,164.86 426.12,165.86 430.00,166.87 433.88,167.89 437.75,168.92 441.62,169.96 445.50,171.01 449.38,172.08 453.25,173.15 457.12,174.24 461.00,175.33 464.88,176.44 468.75,177.56 472.62,178.68 476.50,179.82 480.38,180.97 484.25,182.13 488.12,183.30 492.00,184.47 495.88,185.66 499.75,186.86 503.62,188.07 507.50,189.29 511.38,190.52 515.25,191.76 519.12,193.01 523.00,194.26 526.88,195.53 530.75,196.81 534.62,198.09 538.50,199.39 542.38,200.69 546.25,202.01 550.12,203.33 554.00,204.66 557.88,206.00 561.75,207.35 565.62,208.71 569.50,210.08 573.38,211.45 577.25,212.84 581.12,214.23 585.00,215.63 588.88,217.04 592.75,218.46 596.62,219.88 600.50,221.32 604.38,222.76 608.25,224.21 612.12,225.67 616.00,227.13 619.88,228.61 623.75,230.09 627.62,231.58 631.50,233.07 635.38,234.57 639.25,236.08 643.12,237.60 647.00,239.13 650.88,240.66 654.75,242.20 658.62,243.74 662.50,245.29 666.38,246.85 670.25,248.42 674.12,249.99 678.00,251.57 681.88,253.15 685.75,254.74 689.62,256.34 693.50,257.94 697.38,259.55 701.25,261.17 705.12,262.79 709.00,264.41 712.88,266.05 716.75,267.68 720.62,269.33 724.50,270.98 728.38,272.63 732.25,274.29 736.12,275.95 740.00,277.62 743.88,279.29 747.75,280.97 751.62,282.65 755.50,284.34 759.38,286.03 763.25,287.73 767.12,289.43 771.00,291.14 774.88,292.85 778.75,294.56 782.62,296.28 786.50,298.00 790.38,299.72 794.25,301.45 798.12,303.18 802.00,304.92 805.88,306.66 809.75,308.40 813.62,310.15 817.50,311.90 821.38,313.65 825.25,315.40 829.12,317.16 833.00,318.92 836.88,320.68 840.75,322.45 844.62,324.22 848.50,325.99 852.38,327.76 856.25,329.53 860.12,331.31 864.00,333.09 867.88,334.87 871.75,336.65 875.62,338.44 879.50,340.22 883.38,342.01 887.25,343.80 891.12,345.59 895.00,347.38 898.88,349.17 902.75,350.96 906.62,352.76 910.50,354.55 914.38,356.35 918.25,358.15 922.12,359.94 926.00,361.74 929.88,363.54 933.75,365.34 937.62,367.13 941.50,368.93 945.38,370.73 949.25,372.53 953.12,374.33 957.00,376.13 960.88,377.92 964.75,379.72 968.62,381.52 972.50,383.31 976.38,385.11 980.25,386.90 984.12,388.70 988.00,390.49 991.88,392.28 995.75,394.07 999.62,395.86 1003.50,397.65 1007.38,399.43 1011.25,401.22 1015.12,403.00 1019.00,404.78 1022.88,406.56 1026.75,408.34 1030.62,410.11 1034.50,411.89 1038.38,413.66 1042.25,415.43 1046.12,417.19 1050.00,418.96 1053.88,420.72 1057.75,422.48 1061.62,424.23 1065.50,425.98 1069.38,427.74 1073.25,429.48 1077.12,431.23 1081.00,432.97 1084.88,434.71 1088.75,436.44 1092.62,438.17 1096.50,439.90 1100.38,441.62 1104.25,443.34 1108.12,445.06 1112.00,446.77 1115.88,448.48 1119.75,450.19 1123.62,451.89 1127.50,453.59 1131.38,455.28 1135.25,456.97 1139.12,458.65 1143.00,460.33 1146.88,462.00 1150.75,463.67 1154.62,465.34 1158.50,467.00 1162.38,468.66 1166.25,470.31 1170.12,471.95 1174.00,473.60 1177.88,475.23 1181.75,476.86 1185.62,478.49 1189.50,480.11 1193.38,481.72 1197.25,483.33 1201.12,484.93 1205.00,486.53 1208.88,488.12 1212.75,489.71 1216.62,491.29 1220.50,492.86 1224.38,494.43 1228.25,495.99 1232.12,497.55 1236.00,499.10 1239.88,500.64 1243.75,502.18 1247.62,503.71 1251.50,505.23 1255.38,506.75 1259.25,508.26 1263.12,509.76 1267.00,511.26 1270.88,512.75 1274.75,514.23 1278.62,515.71 1282.50,517.18 1286.38,518.64 1290.25,520.10 1294.12,521.54 1298.00,522.99 1301.88,524.42 1305.75,525.84 1309.62,527.26 1313.50,528.67 1317.38,530.08 1321.25,531.47 1325.12,532.86 1329.00,534.24 1332.88,535.61 1336.75,536.98 1340.62,538.34 1344.50,539.68 1348.38,541.03 1352.25,542.36 1356.12,543.68 1360.00,545.00" stroke="#3b82b5" stroke-width="4" fill="none" stroke-linejoin="round" stroke-linecap="round" /><polyline points="120.00,125.00 123.88,125.03 127.75,125.11 131.62,125.24 135.50,125.43 139.38,125.67 143.25,125.97 147.12,126.32 151.00,126.73 154.88,127.18 158.75,127.69 162.62,128.26 166.50,128.88 170.38,129.55 174.25,130.27 178.12,131.05 182.00,131.87 185.88,132.76 189.75,133.69 193.62,134.67 197.50,135.71 201.38,136.80 205.25,137.94 209.12,139.13 213.00,140.37 216.88,141.66 220.75,143.01 224.62,144.40 228.50,145.84 232.38,147.33 236.25,148.87 240.12,150.46 244.00,152.09 247.88,153.78 251.75,155.51 255.62,157.29 259.50,159.11 263.38,160.98 267.25,162.90 271.12,164.86 275.00,166.87 278.88,168.92 282.75,171.01 286.62,173.15 290.50,175.33 294.38,177.56 298.25,179.82 302.12,182.13 306.00,184.47 309.88,186.86 313.75,189.29 317.62,191.76 321.50,194.26 325.38,196.81 329.25,199.39 333.12,202.01 337.00,204.66 340.88,207.35 344.75,210.08 348.62,212.84 352.50,215.63 356.38,218.46 360.25,221.32 364.12,224.21 368.00,227.13 371.88,230.09 375.75,233.07 379.62,236.08 383.50,239.13 387.38,242.20 391.25,245.29 395.12,248.42 399.00,251.57 402.88,254.74 406.75,257.94 410.62,261.17 414.50,264.41 418.38,267.68 422.25,270.98 426.12,274.29 430.00,277.62 433.88,280.97 437.75,284.34 441.62,287.73 445.50,291.14 449.38,294.56 453.25,298.00 457.12,301.45 461.00,304.92 464.88,308.40 468.75,311.90 472.62,315.40 476.50,318.92 480.38,322.45 484.25,325.99 488.12,329.53 492.00,333.09 495.88,336.65 499.75,340.22 503.62,343.80 507.50,347.38 511.38,350.96 515.25,354.55 519.12,358.15 523.00,361.74 526.88,365.34 530.75,368.93 534.62,372.53 538.50,376.13 542.38,379.72 546.25,383.31 550.12,386.90 554.00,390.49 557.88,394.07 561.75,397.65 565.62,401.22 569.50,404.78 573.38,408.34 577.25,411.89 581.12,415.43 585.00,418.96 588.88,422.48 592.75,425.98 596.62,429.48 600.50,432.97 604.38,436.44 608.25,439.90 612.12,443.34 616.00,446.77 619.88,450.19 623.75,453.59 627.62,456.97 631.50,460.33 635.38,463.67 639.25,467.00 643.12,470.31 647.00,473.60 650.88,476.86 654.75,480.11 658.62,483.33 662.50,486.53 666.38,489.71 670.25,492.86 674.12,495.99 678.00,499.10 681.88,502.18 685.75,505.23 689.62,508.26 693.50,511.26 697.38,514.23 701.25,517.18 705.12,520.10 709.00,522.99 712.88,525.84 716.75,528.67 720.62,531.47 724.50,534.24 728.38,536.98 732.25,539.68 736.12,542.36 740.00,545.00 743.88,542.39 747.75,539.82 751.62,537.27 755.50,534.77 759.38,532.29 763.25,529.85 767.12,527.45 771.00,525.08 774.88,522.75 778.75,520.45 782.62,518.19 786.50,515.97 790.38,513.78 794.25,511.63 798.12,509.52 802.00,507.44 805.88,505.41 809.75,503.41 813.62,501.45 817.50,499.52 821.38,497.64 825.25,495.80 829.12,493.99 833.00,492.22 836.88,490.50 840.75,488.81 844.62,487.16 848.50,485.55 852.38,483.98 856.25,482.45 860.12,480.96 864.00,479.52 867.88,478.11 871.75,476.74 875.62,475.41 879.50,474.12 883.38,472.87 887.25,471.67 891.12,470.50 895.00,469.37 898.88,468.29 902.75,467.24 906.62,466.23 910.50,465.27 914.38,464.34 918.25,463.46 922.12,462.61 926.00,461.80 929.88,461.03 933.75,460.31 937.62,459.62 941.50,458.97 945.38,458.36 949.25,457.79 953.12,457.26 957.00,456.76 960.88,456.31 964.75,455.89 968.62,455.51 972.50,455.17 976.38,454.87 980.25,454.60 984.12,454.37 988.00,454.18 991.88,454.03 995.75,453.91 999.62,453.82 1003.50,453.77 1007.38,453.76 1011.25,453.79 1015.12,453.84 1019.00,453.94 1022.88,454.06 1026.75,454.22 1030.62,454.42 1034.50,454.64 1038.38,454.90 1042.25,455.19 1046.12,455.52 1050.00,455.87 1053.88,456.26 1057.75,456.68 1061.62,457.13 1065.50,457.60 1069.38,458.11 1073.25,458.65 1077.12,459.22 1081.00,459.81 1084.88,460.43 1088.75,461.08 1092.62,461.76 1096.50,462.46 1100.38,463.19 1104.25,463.95 1108.12,464.73 1112.00,465.53 1115.88,466.36 1119.75,467.22 1123.62,468.09 1127.50,468.99 1131.38,469.91 1135.25,470.86 1139.12,471.82 1143.00,472.81 1146.88,473.81 1150.75,474.84 1154.62,475.88 1158.50,476.95 1162.38,478.03 1166.25,479.13 1170.12,480.24 1174.00,481.38 1177.88,482.53 1181.75,483.69 1185.62,484.87 1189.50,486.07 1193.38,487.28 1197.25,488.50 1201.12,489.73 1205.00,490.98 1208.88,492.24 1212.75,493.51 1216.62,494.79 1220.50,496.08 1224.38,497.39 1228.25,498.70 1232.12,500.02 1236.00,501.34 1239.88,502.68 1243.75,504.02 1247.62,505.37 1251.50,506.72 1255.38,508.08 1259.25,509.45 1263.12,510.82 1267.00,512.19 1270.88,513.57 1274.75,514.95 1278.62,516.33 1282.50,517.71 1286.38,519.10 1290.25,520.48 1294.12,521.87 1298.00,523.26 1301.88,524.64 1305.75,526.03 1309.62,527.41 1313.50,528.79 1317.38,530.16 1321.25,531.54 1325.12,532.91 1329.00,534.28 1332.88,535.64 1336.75,536.99 1340.62,538.34 1344.50,539.69 1348.38,541.03 1352.25,542.36 1356.12,543.68 1360.00,545.00" stroke="#c85b73" stroke-width="4" fill="none" stroke-linejoin="round" stroke-linecap="round" /><polyline points="120.00,125.00 123.88,125.11 127.75,125.43 131.62,125.97 135.50,126.73 139.38,127.69 143.25,128.88 147.12,130.27 151.00,131.87 154.88,133.69 158.75,135.71 162.62,137.94 166.50,140.37 170.38,143.01 174.25,145.84 178.12,148.87 182.00,152.09 185.88,155.51 189.75,159.11 193.62,162.90 197.50,166.87 201.38,171.01 205.25,175.33 209.12,179.82 213.00,184.47 216.88,189.29 220.75,194.26 224.62,199.39 228.50,204.66 232.38,210.08 236.25,215.63 240.12,221.32 244.00,227.13 247.88,233.07 251.75,239.13 255.62,245.29 259.50,251.57 263.38,257.94 267.25,264.41 271.12,270.98 275.00,277.62 278.88,284.34 282.75,291.14 286.62,298.00 290.50,304.92 294.38,311.90 298.25,318.92 302.12,325.99 306.00,333.09 309.88,340.22 313.75,347.38 317.62,354.55 321.50,361.74 325.38,368.93 329.25,376.13 333.12,383.31 337.00,390.49 340.88,397.65 344.75,404.78 348.62,411.89 352.50,418.96 356.38,425.98 360.25,432.97 364.12,439.90 368.00,446.77 371.88,453.59 375.75,460.33 379.62,467.00 383.50,473.60 387.38,480.11 391.25,486.53 395.12,492.86 399.00,499.10 402.88,505.23 406.75,511.26 410.62,517.18 414.50,522.99 418.38,528.67 422.25,534.24 426.12,539.68 430.00,545.00 433.88,539.82 437.75,534.77 441.62,529.85 445.50,525.08 449.38,520.45 453.25,515.97 457.12,511.63 461.00,507.44 464.88,503.41 468.75,499.52 472.62,495.80 476.50,492.22 480.38,488.81 484.25,485.55 488.12,482.45 492.00,479.52 495.88,476.74 499.75,474.12 503.62,471.67 507.50,469.37 511.38,467.24 515.25,465.27 519.12,463.46 523.00,461.80 526.88,460.31 530.75,458.97 534.62,457.79 538.50,456.76 542.38,455.89 546.25,455.17 550.12,454.60 554.00,454.18 557.88,453.91 561.75,453.77 565.62,453.79 569.50,453.94 573.38,454.22 577.25,454.64 581.12,455.19 585.00,455.87 588.88,456.68 592.75,457.60 596.62,458.65 600.50,459.81 604.38,461.08 608.25,462.46 612.12,463.95 616.00,465.53 619.88,467.22 623.75,468.99 627.62,470.86 631.50,472.81 635.38,474.84 639.25,476.95 643.12,479.13 647.00,481.38 650.88,483.69 654.75,486.07 658.62,488.50 662.50,490.98 666.38,493.51 670.25,496.08 674.12,498.70 678.00,501.34 681.88,504.02 685.75,506.72 689.62,509.45 693.50,512.19 697.38,514.95 701.25,517.71 705.12,520.48 709.00,523.26 712.88,526.03 716.75,528.79 720.62,531.54 724.50,534.28 728.38,536.99 732.25,539.69 736.12,542.36 740.00,545.00 743.88,542.39 747.75,539.82 751.62,537.29 755.50,534.80 759.38,532.35 763.25,529.96 767.12,527.62 771.00,525.33 774.88,523.10 778.75,520.92 782.62,518.81 786.50,516.77 790.38,514.79 794.25,512.88 798.12,511.05 802.00,509.28 805.88,507.59 809.75,505.98 813.62,504.44 817.50,502.99 821.38,501.61 825.25,500.31 829.12,499.10 833.00,497.97 836.88,496.93 840.75,495.97 844.62,495.10 848.50,494.31 852.38,493.61 856.25,492.99 860.12,492.47 864.00,492.02 867.88,491.66 871.75,491.39 875.62,491.21 879.50,491.10 883.38,491.09 887.25,491.15 891.12,491.30 895.00,491.52 898.88,491.83 902.75,492.22 906.62,492.68 910.50,493.22 914.38,493.83 918.25,494.52 922.12,495.27 926.00,496.10 929.88,496.99 933.75,497.95 937.62,498.97 941.50,500.05 945.38,501.19 949.25,502.39 953.12,503.64 957.00,504.94 960.88,506.29 964.75,507.69 968.62,509.14 972.50,510.62 976.38,512.15 980.25,513.71 984.12,515.31 988.00,516.94 991.88,518.59 995.75,520.27 999.62,521.98 1003.50,523.70 1007.38,525.45 1011.25,527.20 1015.12,528.97 1019.00,530.75 1022.88,532.54 1026.75,534.33 1030.62,536.12 1034.50,537.91 1038.38,539.70 1042.25,541.47 1046.12,543.24 1050.00,545.00 1053.88,543.26 1057.75,541.53 1061.62,539.83 1065.50,538.14 1069.38,536.48 1073.25,534.85 1077.12,533.25 1081.00,531.67 1084.88,530.13 1088.75,528.63 1092.62,527.16 1096.50,525.73 1100.38,524.34 1104.25,523.00 1108.12,521.70 1112.00,520.44 1115.88,519.24 1119.75,518.08 1123.62,516.97 1127.50,515.91 1131.38,514.91 1135.25,513.96 1139.12,513.06 1143.00,512.22 1146.88,511.44 1150.75,510.72 1154.62,510.05 1158.50,509.44 1162.38,508.89 1166.25,508.40 1170.12,507.97 1174.00,507.60 1177.88,507.29 1181.75,507.04 1185.62,506.86 1189.50,506.73 1193.38,506.66 1197.25,506.65 1201.12,506.70 1205.00,506.80 1208.88,506.97 1212.75,507.19 1216.62,507.47 1220.50,507.80 1224.38,508.19 1228.25,508.64 1232.12,509.13 1236.00,509.68 1239.88,510.28 1243.75,510.93 1247.62,511.62 1251.50,512.36 1255.38,513.15 1259.25,513.98 1263.12,514.86 1267.00,515.77 1270.88,516.72 1274.75,517.71 1278.62,518.73 1282.50,519.79 1286.38,520.88 1290.25,522.00 1294.12,523.15 1298.00,524.32 1301.88,525.52 1305.75,526.74 1309.62,527.98 1313.50,529.24 1317.38,530.51 1321.25,531.80 1325.12,533.10 1329.00,534.41 1332.88,535.72 1336.75,537.05 1340.62,538.38 1344.50,539.71 1348.38,541.03 1352.25,542.36 1356.12,543.68 1360.00,545.00" stroke="#7b4b74" stroke-width="4" fill="none" stroke-linejoin="round" stroke-linecap="round" /><text x="1090" y="190" text-anchor="middle" font-family="Source Han Sans SC, Microsoft YaHei, sans-serif" font-size="18" font-weight="700" fill="#397456">L=0.5 px</text><text x="1030" y="260" text-anchor="middle" font-family="Source Han Sans SC, Microsoft YaHei, sans-serif" font-size="18" font-weight="700" fill="#285b7a">L=1 px</text><text x="730" y="405" text-anchor="middle" font-family="Source Han Sans SC, Microsoft YaHei, sans-serif" font-size="18" font-weight="700" fill="#a24862">L=2 px</text><text x="390" y="475" text-anchor="middle" font-family="Source Han Sans SC, Microsoft YaHei, sans-serif" font-size="18" font-weight="700" fill="#7b4b74">L=4 px</text><text x="1360" y="611" text-anchor="end" font-family="Source Han Sans SC, Microsoft YaHei, sans-serif" font-size="18" font-weight="400" fill="#627d98">沿运动方向的空间频率 ν / cycle·pixel⁻¹</text><text x="110" y="111" text-anchor="start" font-family="Source Han Sans SC, Microsoft YaHei, sans-serif" font-size="17" font-weight="400" fill="#627d98">|MTFmotion|</text><text x="725.0" y="625" text-anchor="middle" font-family="Source Han Sans SC, Microsoft YaHei, sans-serif" font-size="20" font-weight="400" fill="#7b4b74">垂直于运动方向的理想响应不受此一维线段核影响；真实抖动会在多个方向扩散</text></svg>