<?xml version='1.0' encoding='utf-8'?>
<svg xmlns="http://www.w3.org/2000/svg" width="1450" height="680" viewBox="0 0 1450 680" role="img" aria-label="MTF 频率曲线和像高曲线"><defs><marker id="arrow-blue" markerWidth="10" markerHeight="8" refX="9" refY="4" orient="auto" markerUnits="strokeWidth"><path d="M 0 0 L 10 4 L 0 8 z" fill="#3b82b5" /></marker><marker id="arrow-red" markerWidth="10" markerHeight="8" refX="9" refY="4" orient="auto" markerUnits="strokeWidth"><path d="M 0 0 L 10 4 L 0 8 z" fill="#c85b73" /></marker><marker id="arrow-dark" markerWidth="10" markerHeight="8" refX="9" refY="4" orient="auto" markerUnits="strokeWidth"><path d="M 0 0 L 10 4 L 0 8 z" fill="#334e68" /></marker><marker id="arrow-green" markerWidth="10" markerHeight="8" refX="9" refY="4" orient="auto" markerUnits="strokeWidth"><path d="M 0 0 L 10 4 L 0 8 z" fill="#4d8c6a" /></marker></defs><rect width="1450" height="680" fill="#fbfdff" /><text x="725.0" y="42" text-anchor="middle" font-family="Source Han Sans SC, Microsoft YaHei, sans-serif" font-size="30" font-weight="700" fill="#102a43">MTF 图是高维传递函数的切片</text><line x1="725" y1="80" x2="725" y2="610" stroke="#d7e0e7" stroke-width="2" stroke-linecap="round" /><text x="360" y="88" text-anchor="middle" font-family="Source Han Sans SC, Microsoft YaHei, sans-serif" font-size="23" font-weight="700" fill="#285b7a">固定像高：MTF 随空间频率</text><line x1="90" y1="540" x2="670" y2="540" stroke="#334e68" stroke-width="2" stroke-linecap="round" marker-end="url(#arrow-dark)" /><line x1="90" y1="540" x2="90" y2="135" stroke="#334e68" stroke-width="2" stroke-linecap="round" marker-end="url(#arrow-dark)" /><polyline points="90.00,135.00 92.43,135.20 94.85,135.55 97.28,135.99 99.71,136.51 102.13,137.08 104.56,137.71 106.99,138.38 109.41,139.10 111.84,139.86 114.27,140.66 116.69,141.49 119.12,142.36 121.55,143.25 123.97,144.18 126.40,145.13 128.83,146.11 131.26,147.12 133.68,148.15 136.11,149.20 138.54,150.28 140.96,151.37 143.39,152.49 145.82,153.63 148.24,154.79 150.67,155.96 153.10,157.15 155.52,158.36 157.95,159.59 160.38,160.83 162.80,162.09 165.23,163.36 167.66,164.65 170.08,165.95 172.51,167.26 174.94,168.58 177.36,169.92 179.79,171.27 182.22,172.63 184.64,174.01 187.07,175.39 189.50,176.78 191.92,178.19 194.35,179.60 196.78,181.02 199.21,182.45 201.63,183.89 204.06,185.34 206.49,186.80 208.91,188.26 211.34,189.73 213.77,191.21 216.19,192.70 218.62,194.19 221.05,195.69 223.47,197.19 225.90,198.70 228.33,200.21 230.75,201.73 233.18,203.26 235.61,204.79 238.03,206.32 240.46,207.86 242.89,209.40 245.31,210.95 247.74,212.50 250.17,214.05 252.59,215.61 255.02,217.17 257.45,218.73 259.87,220.30 262.30,221.87 264.73,223.44 267.15,225.01 269.58,226.58 272.01,228.16 274.44,229.73 276.86,231.31 279.29,232.89 281.72,234.47 284.14,236.05 286.57,237.63 289.00,239.21 291.42,240.80 293.85,242.38 296.28,243.96 298.70,245.54 301.13,247.13 303.56,248.71 305.98,250.29 308.41,251.87 310.84,253.45 313.26,255.03 315.69,256.61 318.12,258.19 320.54,259.76 322.97,261.34 325.40,262.91 327.82,264.48 330.25,266.05 332.68,267.62 335.10,269.18 337.53,270.75 339.96,272.31 342.38,273.87 344.81,275.42 347.24,276.98 349.67,278.53 352.09,280.08 354.52,281.62 356.95,283.17 359.37,284.71 361.80,286.25 364.23,287.78 366.65,289.31 369.08,290.84 371.51,292.36 373.93,293.88 376.36,295.40 378.79,296.92 381.21,298.43 383.64,299.93 386.07,301.44 388.49,302.93 390.92,304.43 393.35,305.92 395.77,307.41 398.20,308.89 400.63,310.37 403.05,311.84 405.48,313.31 407.91,314.77 410.33,316.24 412.76,317.69 415.19,319.14 417.62,320.59 420.04,322.03 422.47,323.47 424.90,324.90 427.32,326.33 429.75,327.75 432.18,329.17 434.60,330.58 437.03,331.99 439.46,333.39 441.88,334.79 444.31,336.18 446.74,337.57 449.16,338.95 451.59,340.33 454.02,341.70 456.44,343.07 458.87,344.43 461.30,345.78 463.72,347.13 466.15,348.48 468.58,349.82 471.00,351.15 473.43,352.48 475.86,353.80 478.28,355.12 480.71,356.43 483.14,357.73 485.56,359.03 487.99,360.33 490.42,361.62 492.85,362.90 495.27,364.18 497.70,365.45 500.13,366.71 502.55,367.97 504.98,369.22 507.41,370.47 509.83,371.71 512.26,372.95 514.69,374.18 517.11,375.40 519.54,376.62 521.97,377.83 524.39,379.04 526.82,380.24 529.25,381.43 531.67,382.62 534.10,383.80 536.53,384.98 538.95,386.15 541.38,387.31 543.81,388.47 546.23,389.62 548.66,390.77 551.09,391.91 553.51,393.04 555.94,394.17 558.37,395.29 560.79,396.41 563.22,397.52 565.65,398.62 568.08,399.72 570.50,400.81 572.93,401.90 575.36,402.98 577.78,404.05 580.21,405.12 582.64,406.18 585.06,407.24 587.49,408.29 589.92,409.33 592.34,410.37 594.77,411.40 597.20,412.42 599.62,413.44 602.05,414.46 604.48,415.46 606.90,416.47 609.33,417.46 611.76,418.45 614.18,419.44 616.61,420.41 619.04,421.38 621.46,422.35 623.89,423.31 626.32,424.26 628.74,425.21 631.17,426.16 633.60,427.09 636.03,428.02 638.45,428.95 640.88,429.87 643.31,430.78 645.73,431.69 648.16,432.59 650.59,433.48 653.01,434.37 655.44,435.26 657.87,436.14 660.29,437.01 662.72,437.88 665.15,438.74 667.57,439.60 670.00,440.45" stroke="#397456" stroke-width="4" fill="none" stroke-linejoin="round" stroke-linecap="round" /><text x="540" y="245" text-anchor="middle" font-family="Source Han Sans SC, Microsoft YaHei, sans-serif" font-size="19" font-weight="700" fill="#397456">中心</text><polyline points="90.00,135.00 92.43,136.07 94.85,137.54 97.28,139.20 99.71,141.00 102.13,142.92 104.56,144.92 106.99,147.00 109.41,149.14 111.84,151.33 114.27,153.58 116.69,155.87 119.12,158.19 121.55,160.56 123.97,162.95 126.40,165.37 128.83,167.82 131.26,170.28 133.68,172.77 136.11,175.28 138.54,177.80 140.96,180.33 143.39,182.88 145.82,185.44 148.24,188.00 150.67,190.58 153.10,193.16 155.52,195.75 157.95,198.34 160.38,200.94 162.80,203.54 165.23,206.14 167.66,208.74 170.08,211.34 172.51,213.94 174.94,216.53 177.36,219.13 179.79,221.72 182.22,224.31 184.64,226.90 187.07,229.48 189.50,232.05 191.92,234.62 194.35,237.18 196.78,239.74 199.21,242.29 201.63,244.83 204.06,247.36 206.49,249.89 208.91,252.40 211.34,254.91 213.77,257.41 216.19,259.89 218.62,262.37 221.05,264.84 223.47,267.30 225.90,269.74 228.33,272.18 230.75,274.60 233.18,277.01 235.61,279.41 238.03,281.80 240.46,284.17 242.89,286.54 245.31,288.89 247.74,291.23 250.17,293.55 252.59,295.86 255.02,298.16 257.45,300.45 259.87,302.72 262.30,304.98 264.73,307.22 267.15,309.45 269.58,311.67 272.01,313.88 274.44,316.06 276.86,318.24 279.29,320.40 281.72,322.55 284.14,324.68 286.57,326.80 289.00,328.90 291.42,330.99 293.85,333.07 296.28,335.13 298.70,337.17 301.13,339.21 303.56,341.22 305.98,343.22 308.41,345.21 310.84,347.19 313.26,349.14 315.69,351.09 318.12,353.02 320.54,354.93 322.97,356.83 325.40,358.72 327.82,360.59 330.25,362.44 332.68,364.28 335.10,366.11 337.53,367.92 339.96,369.72 342.38,371.50 344.81,373.27 347.24,375.03 349.67,376.77 352.09,378.49 354.52,380.20 356.95,381.90 359.37,383.58 361.80,385.25 364.23,386.91 366.65,388.55 369.08,390.17 371.51,391.79 373.93,393.38 376.36,394.97 378.79,396.54 381.21,398.10 383.64,399.64 386.07,401.17 388.49,402.69 390.92,404.19 393.35,405.68 395.77,407.15 398.20,408.62 400.63,410.07 403.05,411.50 405.48,412.92 407.91,414.33 410.33,415.73 412.76,417.12 415.19,418.49 417.62,419.84 420.04,421.19 422.47,422.52 424.90,423.84 427.32,425.15 429.75,426.45 432.18,427.73 434.60,429.00 437.03,430.26 439.46,431.51 441.88,432.74 444.31,433.96 446.74,435.17 449.16,436.37 451.59,437.56 454.02,438.73 456.44,439.90 458.87,441.05 461.30,442.19 463.72,443.32 466.15,444.44 468.58,445.55 471.00,446.64 473.43,447.73 475.86,448.80 478.28,449.87 480.71,450.92 483.14,451.96 485.56,452.99 487.99,454.01 490.42,455.02 492.85,456.02 495.27,457.01 497.70,457.99 500.13,458.96 502.55,459.92 504.98,460.87 507.41,461.81 509.83,462.74 512.26,463.66 514.69,464.57 517.11,465.47 519.54,466.36 521.97,467.25 524.39,468.12 526.82,468.98 529.25,469.84 531.67,470.68 534.10,471.52 536.53,472.34 538.95,473.16 541.38,473.97 543.81,474.77 546.23,475.56 548.66,476.35 551.09,477.12 553.51,477.89 555.94,478.65 558.37,479.39 560.79,480.14 563.22,480.87 565.65,481.60 568.08,482.31 570.50,483.02 572.93,483.72 575.36,484.42 577.78,485.10 580.21,485.78 582.64,486.45 585.06,487.12 587.49,487.77 589.92,488.42 592.34,489.06 594.77,489.70 597.20,490.32 599.62,490.94 602.05,491.56 604.48,492.16 606.90,492.76 609.33,493.35 611.76,493.94 614.18,494.52 616.61,495.09 619.04,495.66 621.46,496.21 623.89,496.77 626.32,497.31 628.74,497.85 631.17,498.39 633.60,498.92 636.03,499.44 638.45,499.95 640.88,500.46 643.31,500.97 645.73,501.46 648.16,501.96 650.59,502.44 653.01,502.92 655.44,503.40 657.87,503.87 660.29,504.33 662.72,504.79 665.15,505.24 667.57,505.69 670.00,506.13" stroke="#c85b73" stroke-width="4" fill="none" stroke-linejoin="round" stroke-linecap="round" /><text x="430" y="350" text-anchor="middle" font-family="Source Han Sans SC, Microsoft YaHei, sans-serif" font-size="19" font-weight="700" fill="#c85b73">边缘</text><text x="670" y="574" text-anchor="middle" font-family="Source Han Sans SC, Microsoft YaHei, sans-serif" font-size="19" font-weight="400" fill="#627d98">ν (lp/mm)</text><text x="72" y="140" text-anchor="middle" font-family="Source Han Sans SC, Microsoft YaHei, sans-serif" font-size="19" font-weight="400" fill="#627d98">MTF</text><text x="1085" y="88" text-anchor="middle" font-family="Source Han Sans SC, Microsoft YaHei, sans-serif" font-size="23" font-weight="700" fill="#7b4b74">固定频率：S/T 随归一化像高</text><line x1="780" y1="540" x2="1390" y2="540" stroke="#334e68" stroke-width="2" stroke-linecap="round" marker-end="url(#arrow-dark)" /><line x1="780" y1="540" x2="780" y2="135" stroke="#334e68" stroke-width="2" stroke-linecap="round" marker-end="url(#arrow-dark)" /><polyline points="780.00,151.20 783.07,151.20 786.13,151.21 789.20,151.21 792.26,151.22 795.33,151.24 798.39,151.26 801.46,151.28 804.52,151.30 807.59,151.32 810.65,151.35 813.72,151.39 816.78,151.42 819.85,151.46 822.91,151.50 825.98,151.55 829.05,151.59 832.11,151.64 835.18,151.70 838.24,151.75 841.31,151.81 844.37,151.88 847.44,151.94 850.50,152.01 853.57,152.08 856.63,152.16 859.70,152.24 862.76,152.32 865.83,152.40 868.89,152.49 871.96,152.58 875.03,152.67 878.09,152.77 881.16,152.87 884.22,152.97 887.29,153.08 890.35,153.19 893.42,153.30 896.48,153.42 899.55,153.53 902.61,153.65 905.68,153.78 908.74,153.91 911.81,154.04 914.87,154.17 917.94,154.31 921.01,154.45 924.07,154.59 927.14,154.73 930.20,154.88 933.27,155.04 936.33,155.19 939.40,155.35 942.46,155.51 945.53,155.67 948.59,155.84 951.66,156.01 954.72,156.18 957.79,156.36 960.85,156.54 963.92,156.72 966.98,156.91 970.05,157.10 973.12,157.29 976.18,157.48 979.25,157.68 982.31,157.88 985.38,158.09 988.44,158.29 991.51,158.50 994.57,158.72 997.64,158.93 1000.70,159.15 1003.77,159.37 1006.83,159.60 1009.90,159.83 1012.96,160.06 1016.03,160.30 1019.10,160.53 1022.16,160.77 1025.23,161.02 1028.29,161.26 1031.36,161.51 1034.42,161.77 1037.49,162.02 1040.55,162.28 1043.62,162.55 1046.68,162.81 1049.75,163.08 1052.81,163.35 1055.88,163.63 1058.94,163.90 1062.01,164.18 1065.08,164.47 1068.14,164.75 1071.21,165.04 1074.27,165.34 1077.34,165.63 1080.40,165.93 1083.47,166.24 1086.53,166.54 1089.60,166.85 1092.66,167.16 1095.73,167.47 1098.79,167.79 1101.86,168.11 1104.92,168.44 1107.99,168.76 1111.06,169.09 1114.12,169.43 1117.19,169.76 1120.25,170.10 1123.32,170.44 1126.38,170.79 1129.45,171.14 1132.51,171.49 1135.58,171.84 1138.64,172.20 1141.71,172.56 1144.77,172.92 1147.84,173.29 1150.90,173.66 1153.97,174.03 1157.04,174.41 1160.10,174.79 1163.17,175.17 1166.23,175.55 1169.30,175.94 1172.36,176.33 1175.43,176.73 1178.49,177.13 1181.56,177.53 1184.62,177.93 1187.69,178.34 1190.75,178.75 1193.82,179.16 1196.88,179.57 1199.95,179.99 1203.02,180.41 1206.08,180.84 1209.15,181.27 1212.21,181.70 1215.28,182.13 1218.34,182.57 1221.41,183.01 1224.47,183.45 1227.54,183.90 1230.60,184.35 1233.67,184.80 1236.73,185.26 1239.80,185.72 1242.86,186.18 1245.93,186.64 1248.99,187.11 1252.06,187.58 1255.13,188.06 1258.19,188.53 1261.26,189.01 1264.32,189.50 1267.39,189.98 1270.45,190.47 1273.52,190.96 1276.58,191.46 1279.65,191.96 1282.71,192.46 1285.78,192.96 1288.84,193.47 1291.91,193.98 1294.97,194.50 1298.04,195.01 1301.11,195.53 1304.17,196.06 1307.24,196.58 1310.30,197.11 1313.37,197.64 1316.43,198.18 1319.50,198.72 1322.56,199.26 1325.63,199.80 1328.69,200.35 1331.76,200.90 1334.82,201.46 1337.89,202.01 1340.95,202.57 1344.02,203.14 1347.09,203.70 1350.15,204.27 1353.22,204.84 1356.28,205.42 1359.35,206.00 1362.41,206.58 1365.48,207.16 1368.54,207.75 1371.61,208.34 1374.67,208.94 1377.74,209.53 1380.80,210.13 1383.87,210.74 1386.93,211.34 1390.00,211.95" stroke="#397456" stroke-width="3.5" fill="none" stroke-linejoin="round" stroke-linecap="round" /><text x="810" y="590" text-anchor="middle" font-family="Source Han Sans SC, Microsoft YaHei, sans-serif" font-size="18" font-weight="700" fill="#397456">10 S</text><polyline points="780.00,159.30 783.07,158.82 786.13,158.35 789.20,157.89 792.26,157.44 795.33,156.99 798.39,156.56 801.46,156.13 804.52,155.73 807.59,155.33 810.65,154.95 813.72,154.58 816.78,154.23 819.85,153.90 822.91,153.59 825.98,153.30 829.05,153.02 832.11,152.77 835.18,152.54 838.24,152.33 841.31,152.14 844.37,151.98 847.44,151.85 850.50,151.73 853.57,151.65 856.63,151.58 859.70,151.55 862.76,151.54 865.83,151.56 868.89,151.61 871.96,151.68 875.03,151.78 878.09,151.91 881.16,152.07 884.22,152.26 887.29,152.47 890.35,152.71 893.42,152.98 896.48,153.28 899.55,153.60 902.61,153.96 905.68,154.33 908.74,154.74 911.81,155.17 914.87,155.63 917.94,156.11 921.01,156.61 924.07,157.15 927.14,157.70 930.20,158.28 933.27,158.87 936.33,159.49 939.40,160.13 942.46,160.79 945.53,161.47 948.59,162.17 951.66,162.88 954.72,163.61 957.79,164.35 960.85,165.11 963.92,165.88 966.98,166.66 970.05,167.46 973.12,168.26 976.18,169.07 979.25,169.90 982.31,170.72 985.38,171.56 988.44,172.39 991.51,173.23 994.57,174.08 997.64,174.92 1000.70,175.77 1003.77,176.61 1006.83,177.46 1009.90,178.30 1012.96,179.13 1016.03,179.97 1019.10,180.79 1022.16,181.61 1025.23,182.42 1028.29,183.23 1031.36,184.02 1034.42,184.81 1037.49,185.58 1040.55,186.34 1043.62,187.09 1046.68,187.83 1049.75,188.55 1052.81,189.26 1055.88,189.96 1058.94,190.63 1062.01,191.30 1065.08,191.95 1068.14,192.58 1071.21,193.19 1074.27,193.79 1077.34,194.37 1080.40,194.94 1083.47,195.48 1086.53,196.01 1089.60,196.52 1092.66,197.02 1095.73,197.50 1098.79,197.96 1101.86,198.40 1104.92,198.83 1107.99,199.24 1111.06,199.63 1114.12,200.01 1117.19,200.37 1120.25,200.72 1123.32,201.06 1126.38,201.38 1129.45,201.69 1132.51,201.98 1135.58,202.27 1138.64,202.54 1141.71,202.81 1144.77,203.06 1147.84,203.31 1150.90,203.54 1153.97,203.78 1157.04,204.00 1160.10,204.23 1163.17,204.44 1166.23,204.66 1169.30,204.87 1172.36,205.09 1175.43,205.30 1178.49,205.51 1181.56,205.73 1184.62,205.95 1187.69,206.18 1190.75,206.41 1193.82,206.64 1196.88,206.89 1199.95,207.14 1203.02,207.41 1206.08,207.68 1209.15,207.97 1212.21,208.27 1215.28,208.59 1218.34,208.91 1221.41,209.26 1224.47,209.62 1227.54,210.00 1230.60,210.40 1233.67,210.82 1236.73,211.26 1239.80,211.72 1242.86,212.20 1245.93,212.71 1248.99,213.23 1252.06,213.79 1255.13,214.36 1258.19,214.96 1261.26,215.59 1264.32,216.24 1267.39,216.92 1270.45,217.63 1273.52,218.36 1276.58,219.12 1279.65,219.91 1282.71,220.73 1285.78,221.57 1288.84,222.45 1291.91,223.35 1294.97,224.28 1298.04,225.23 1301.11,226.22 1304.17,227.23 1307.24,228.27 1310.30,229.33 1313.37,230.43 1316.43,231.55 1319.50,232.69 1322.56,233.86 1325.63,235.06 1328.69,236.28 1331.76,237.52 1334.82,238.79 1337.89,240.08 1340.95,241.39 1344.02,242.72 1347.09,244.07 1350.15,245.44 1353.22,246.83 1356.28,248.24 1359.35,249.66 1362.41,251.10 1365.48,252.56 1368.54,254.03 1371.61,255.51 1374.67,257.00 1377.74,258.50 1380.80,260.02 1383.87,261.54 1386.93,263.07 1390.00,264.60" stroke="#69a87f" stroke-width="3.5" fill="none" stroke-linejoin="round" stroke-linecap="round" stroke-dasharray="9 6" /><text x="925" y="590" text-anchor="middle" font-family="Source Han Sans SC, Microsoft YaHei, sans-serif" font-size="18" font-weight="700" fill="#69a87f">10 T</text><polyline points="780.00,207.90 783.07,207.90 786.13,207.92 789.20,207.93 792.26,207.96 795.33,207.99 798.39,208.04 801.46,208.09 804.52,208.14 807.59,208.21 810.65,208.28 813.72,208.36 816.78,208.44 819.85,208.54 822.91,208.64 825.98,208.75 829.05,208.87 832.11,208.99 835.18,209.13 838.24,209.27 841.31,209.41 844.37,209.57 847.44,209.73 850.50,209.90 853.57,210.08 856.63,210.26 859.70,210.46 862.76,210.66 865.83,210.87 868.89,211.08 871.96,211.31 875.03,211.54 878.09,211.77 881.16,212.02 884.22,212.27 887.29,212.54 890.35,212.80 893.42,213.08 896.48,213.36 899.55,213.66 902.61,213.95 905.68,214.26 908.74,214.57 911.81,214.90 914.87,215.23 917.94,215.56 921.01,215.91 924.07,216.26 927.14,216.62 930.20,216.99 933.27,217.36 936.33,217.74 939.40,218.13 942.46,218.53 945.53,218.93 948.59,219.35 951.66,219.77 954.72,220.19 957.79,220.63 960.85,221.07 963.92,221.52 966.98,221.98 970.05,222.45 973.12,222.92 976.18,223.40 979.25,223.89 982.31,224.38 985.38,224.89 988.44,225.40 991.51,225.92 994.57,226.44 997.64,226.98 1000.70,227.52 1003.77,228.06 1006.83,228.62 1009.90,229.18 1012.96,229.76 1016.03,230.34 1019.10,230.92 1022.16,231.52 1025.23,232.12 1028.29,232.73 1031.36,233.34 1034.42,233.97 1037.49,234.60 1040.55,235.24 1043.62,235.89 1046.68,236.54 1049.75,237.20 1052.81,237.87 1055.88,238.55 1058.94,239.24 1062.01,239.93 1065.08,240.63 1068.14,241.34 1071.21,242.05 1074.27,242.77 1077.34,243.50 1080.40,244.24 1083.47,244.99 1086.53,245.74 1089.60,246.50 1092.66,247.27 1095.73,248.04 1098.79,248.83 1101.86,249.62 1104.92,250.42 1107.99,251.22 1111.06,252.04 1114.12,252.86 1117.19,253.69 1120.25,254.52 1123.32,255.37 1126.38,256.22 1129.45,257.08 1132.51,257.94 1135.58,258.82 1138.64,259.70 1141.71,260.59 1144.77,261.49 1147.84,262.39 1150.90,263.30 1153.97,264.22 1157.04,265.15 1160.10,266.08 1163.17,267.02 1166.23,267.97 1169.30,268.93 1172.36,269.90 1175.43,270.87 1178.49,271.85 1181.56,272.84 1184.62,273.83 1187.69,274.84 1190.75,275.85 1193.82,276.86 1196.88,277.89 1199.95,278.92 1203.02,279.96 1206.08,281.01 1209.15,282.07 1212.21,283.13 1215.28,284.20 1218.34,285.28 1221.41,286.36 1224.47,287.46 1227.54,288.56 1230.60,289.67 1233.67,290.78 1236.73,291.91 1239.80,293.04 1242.86,294.18 1245.93,295.33 1248.99,296.48 1252.06,297.64 1255.13,298.81 1258.19,299.99 1261.26,301.17 1264.32,302.36 1267.39,303.56 1270.45,304.77 1273.52,305.98 1276.58,307.21 1279.65,308.44 1282.71,309.67 1285.78,310.92 1288.84,312.17 1291.91,313.43 1294.97,314.70 1298.04,315.97 1301.11,317.26 1304.17,318.55 1307.24,319.85 1310.30,321.15 1313.37,322.46 1316.43,323.78 1319.50,325.11 1322.56,326.45 1325.63,327.79 1328.69,329.14 1331.76,330.50 1334.82,331.87 1337.89,333.24 1340.95,334.62 1344.02,336.01 1347.09,337.41 1350.15,338.81 1353.22,340.22 1356.28,341.64 1359.35,343.07 1362.41,344.50 1365.48,345.94 1368.54,347.39 1371.61,348.85 1374.67,350.31 1377.74,351.79 1380.80,353.27 1383.87,354.75 1386.93,356.25 1390.00,357.75" stroke="#3b82b5" stroke-width="3.5" fill="none" stroke-linejoin="round" stroke-linecap="round" /><text x="1040" y="590" text-anchor="middle" font-family="Source Han Sans SC, Microsoft YaHei, sans-serif" font-size="18" font-weight="700" fill="#3b82b5">30 S</text><polyline points="780.00,216.00 783.07,215.45 786.13,214.91 789.20,214.38 792.26,213.87 795.33,213.37 798.39,212.89 801.46,212.42 804.52,211.98 807.59,211.55 810.65,211.14 813.72,210.76 816.78,210.39 819.85,210.04 822.91,209.72 825.98,209.42 829.05,209.15 832.11,208.90 835.18,208.68 838.24,208.48 841.31,208.31 844.37,208.17 847.44,208.05 850.50,207.97 853.57,207.91 856.63,207.88 859.70,207.89 862.76,207.92 865.83,207.99 868.89,208.08 871.96,208.21 875.03,208.37 878.09,208.57 881.16,208.79 884.22,209.05 887.29,209.34 890.35,209.67 893.42,210.03 896.48,210.43 899.55,210.85 902.61,211.32 905.68,211.81 908.74,212.34 911.81,212.91 914.87,213.50 917.94,214.13 921.01,214.80 924.07,215.50 927.14,216.23 930.20,216.99 933.27,217.79 936.33,218.62 939.40,219.48 942.46,220.37 945.53,221.29 948.59,222.24 951.66,223.23 954.72,224.24 957.79,225.28 960.85,226.35 963.92,227.45 966.98,228.58 970.05,229.73 973.12,230.91 976.18,232.11 979.25,233.34 982.31,234.59 985.38,235.87 988.44,237.16 991.51,238.48 994.57,239.82 997.64,241.18 1000.70,242.56 1003.77,243.96 1006.83,245.37 1009.90,246.81 1012.96,248.25 1016.03,249.72 1019.10,251.19 1022.16,252.68 1025.23,254.19 1028.29,255.70 1031.36,257.23 1034.42,258.76 1037.49,260.30 1040.55,261.85 1043.62,263.41 1046.68,264.98 1049.75,266.55 1052.81,268.12 1055.88,269.70 1058.94,271.28 1062.01,272.87 1065.08,274.46 1068.14,276.04 1071.21,277.63 1074.27,279.21 1077.34,280.80 1080.40,282.38 1083.47,283.96 1086.53,285.54 1089.60,287.11 1092.66,288.67 1095.73,290.24 1098.79,291.79 1101.86,293.34 1104.92,294.89 1107.99,296.42 1111.06,297.95 1114.12,299.47 1117.19,300.98 1120.25,302.49 1123.32,303.98 1126.38,305.47 1129.45,306.94 1132.51,308.41 1135.58,309.86 1138.64,311.31 1141.71,312.75 1144.77,314.17 1147.84,315.59 1150.90,316.99 1153.97,318.39 1157.04,319.77 1160.10,321.15 1163.17,322.51 1166.23,323.87 1169.30,325.21 1172.36,326.55 1175.43,327.88 1178.49,329.20 1181.56,330.51 1184.62,331.81 1187.69,333.11 1190.75,334.40 1193.82,335.68 1196.88,336.95 1199.95,338.22 1203.02,339.49 1206.08,340.75 1209.15,342.00 1212.21,343.26 1215.28,344.51 1218.34,345.75 1221.41,347.00 1224.47,348.25 1227.54,349.49 1230.60,350.74 1233.67,351.99 1236.73,353.24 1239.80,354.50 1242.86,355.76 1245.93,357.02 1248.99,358.29 1252.06,359.56 1255.13,360.85 1258.19,362.14 1261.26,363.44 1264.32,364.75 1267.39,366.07 1270.45,367.40 1273.52,368.75 1276.58,370.11 1279.65,371.48 1282.71,372.87 1285.78,374.27 1288.84,375.69 1291.91,377.13 1294.97,378.59 1298.04,380.07 1301.11,381.56 1304.17,383.08 1307.24,384.62 1310.30,386.18 1313.37,387.77 1316.43,389.38 1319.50,391.01 1322.56,392.67 1325.63,394.36 1328.69,396.07 1331.76,397.81 1334.82,399.58 1337.89,401.38 1340.95,403.20 1344.02,405.06 1347.09,406.95 1350.15,408.86 1353.22,410.81 1356.28,412.79 1359.35,414.80 1362.41,416.84 1365.48,418.92 1368.54,421.03 1371.61,423.17 1374.67,425.34 1377.74,427.55 1380.80,429.80 1383.87,432.07 1386.93,434.38 1390.00,436.72" stroke="#c85b73" stroke-width="3.5" fill="none" stroke-linejoin="round" stroke-linecap="round" stroke-dasharray="9 6" /><text x="1155" y="590" text-anchor="middle" font-family="Source Han Sans SC, Microsoft YaHei, sans-serif" font-size="18" font-weight="700" fill="#c85b73">30 T</text><text x="1390" y="574" text-anchor="middle" font-family="Source Han Sans SC, Microsoft YaHei, sans-serif" font-size="19" font-weight="400" fill="#627d98">像高 0 → 1</text><text x="762" y="140" text-anchor="middle" font-family="Source Han Sans SC, Microsoft YaHei, sans-serif" font-size="19" font-weight="400" fill="#627d98">MTF</text><text x="725.0" y="645" text-anchor="middle" font-family="Source Han Sans SC, Microsoft YaHei, sans-serif" font-size="20" font-weight="400" fill="#627d98">频率、像高、方向、光圈、波长、物距与焦距都属于测试条件</text></svg>