<?xml version='1.0' encoding='utf-8'?>
<svg xmlns="http://www.w3.org/2000/svg" width="1400" height="680" viewBox="0 0 1400 680" role="img" aria-label="衍射 MTF 与像素 Nyquist 频率"><defs><marker id="arrow-blue" markerWidth="10" markerHeight="8" refX="9" refY="4" orient="auto" markerUnits="strokeWidth"><path d="M 0 0 L 10 4 L 0 8 z" fill="#3b82b5" /></marker><marker id="arrow-red" markerWidth="10" markerHeight="8" refX="9" refY="4" orient="auto" markerUnits="strokeWidth"><path d="M 0 0 L 10 4 L 0 8 z" fill="#c85b73" /></marker><marker id="arrow-dark" markerWidth="10" markerHeight="8" refX="9" refY="4" orient="auto" markerUnits="strokeWidth"><path d="M 0 0 L 10 4 L 0 8 z" fill="#334e68" /></marker><marker id="arrow-green" markerWidth="10" markerHeight="8" refX="9" refY="4" orient="auto" markerUnits="strokeWidth"><path d="M 0 0 L 10 4 L 0 8 z" fill="#4d8c6a" /></marker></defs><rect width="1400" height="680" fill="#fbfdff" /><text x="700.0" y="43" text-anchor="middle" font-family="Source Han Sans SC, Microsoft YaHei, sans-serif" font-size="30" font-weight="700" fill="#102a43">衍射 MTF 与传感器采样带宽</text><line x1="105" y1="560" x2="1300" y2="560" stroke="#334e68" stroke-width="2" stroke-linecap="round" marker-end="url(#arrow-dark)" /><line x1="105" y1="560" x2="105" y2="105" stroke="#334e68" stroke-width="2" stroke-linecap="round" marker-end="url(#arrow-dark)" /><text x="1295" y="598" text-anchor="middle" font-family="Source Han Sans SC, Microsoft YaHei, sans-serif" font-size="20" font-weight="400" fill="#627d98">空间频率 ν (lp/mm)</text><text x="80" y="110" text-anchor="middle" font-family="Source Han Sans SC, Microsoft YaHei, sans-serif" font-size="20" font-weight="400" fill="#627d98">MTF</text><polyline points="105.00,105.00 107.39,106.28 109.79,107.55 112.18,108.83 114.58,110.11 116.97,111.39 119.37,112.66 121.76,113.94 124.16,115.22 126.55,116.49 128.95,117.77 131.34,119.05 133.74,120.32 136.13,121.60 138.53,122.88 140.92,124.15 143.32,125.43 145.71,126.71 148.11,127.98 150.50,129.26 152.90,130.53 155.29,131.81 157.69,133.08 160.08,134.36 162.47,135.64 164.87,136.91 167.26,138.19 169.66,139.46 172.05,140.74 174.45,142.01 176.84,143.28 179.24,144.56 181.63,145.83 184.03,147.11 186.42,148.38 188.82,149.65 191.21,150.93 193.61,152.20 196.00,153.47 198.40,154.74 200.79,156.02 203.19,157.29 205.58,158.56 207.98,159.83 210.37,161.10 212.77,162.37 215.16,163.64 217.56,164.91 219.95,166.18 222.34,167.45 224.74,168.72 227.13,169.99 229.53,171.26 231.92,172.53 234.32,173.80 236.71,175.07 239.11,176.33 241.50,177.60 243.90,178.87 246.29,180.13 248.69,181.40 251.08,182.67 253.48,183.93 255.87,185.20 258.27,186.46 260.66,187.72 263.06,188.99 265.45,190.25 267.85,191.51 270.24,192.78 272.64,194.04 275.03,195.30 277.42,196.56 279.82,197.82 282.21,199.08 284.61,200.34 287.00,201.60 289.40,202.86 291.79,204.12 294.19,205.38 296.58,206.63 298.98,207.89 301.37,209.15 303.77,210.40 306.16,211.66 308.56,212.91 310.95,214.17 313.35,215.42 315.74,216.67 318.14,217.93 320.53,219.18 322.93,220.43 325.32,221.68 327.72,222.93 330.11,224.18 332.51,225.43 334.90,226.68 337.29,227.92 339.69,229.17 342.08,230.42 344.48,231.66 346.87,232.91 349.27,234.15 351.66,235.40 354.06,236.64 356.45,237.88 358.85,239.13 361.24,240.37 363.64,241.61 366.03,242.85 368.43,244.09 370.82,245.33 373.22,246.56 375.61,247.80 378.01,249.04 380.40,250.27 382.80,251.51 385.19,252.74 387.59,253.98 389.98,255.21 392.37,256.44 394.77,257.67 397.16,258.90 399.56,260.13 401.95,261.36 404.35,262.59 406.74,263.82 409.14,265.04 411.53,266.27 413.93,267.49 416.32,268.72 418.72,269.94 421.11,271.16 423.51,272.38 425.90,273.60 428.30,274.82 430.69,276.04 433.09,277.26 435.48,278.48 437.88,279.69 440.27,280.91 442.67,282.12 445.06,283.34 447.45,284.55 449.85,285.76 452.24,286.97 454.64,288.18 457.03,289.39 459.43,290.60 461.82,291.80 464.22,293.01 466.61,294.21 469.01,295.42 471.40,296.62 473.80,297.82 476.19,299.02 478.59,300.22 480.98,301.42 483.38,302.62 485.77,303.82 488.17,305.01 490.56,306.21 492.96,307.40 495.35,308.59 497.75,309.78 500.14,310.97 502.54,312.16 504.93,313.35 507.32,314.54 509.72,315.72 512.11,316.91 514.51,318.09 516.90,319.27 519.30,320.45 521.69,321.63 524.09,322.81 526.48,323.99 528.88,325.17 531.27,326.34 533.67,327.52 536.06,328.69 538.46,329.86 540.85,331.03 543.25,332.20 545.64,333.37 548.04,334.53 550.43,335.70 552.83,336.86 555.22,338.03 557.62,339.19 560.01,340.35 562.40,341.51 564.80,342.67 567.19,343.82 569.59,344.98 571.98,346.13 574.38,347.28 576.77,348.43 579.17,349.58 581.56,350.73 583.96,351.88 586.35,353.02 588.75,354.17 591.14,355.31 593.54,356.45 595.93,357.59 598.33,358.73 600.72,359.87 603.12,361.00 605.51,362.14 607.91,363.27 610.30,364.40 612.70,365.53 615.09,366.66 617.48,367.79 619.88,368.91 622.27,370.04 624.67,371.16 627.06,372.28 629.46,373.40 631.85,374.52 634.25,375.63 636.64,376.75 639.04,377.86 641.43,378.97 643.83,380.08 646.22,381.19 648.62,382.30 651.01,383.40 653.41,384.50 655.80,385.60 658.20,386.70 660.59,387.80 662.99,388.90 665.38,389.99 667.78,391.09 670.17,392.18 672.57,393.27 674.96,394.36 677.35,395.44 679.75,396.53 682.14,397.61 684.54,398.69 686.93,399.77 689.33,400.85 691.72,401.92 694.12,403.00 696.51,404.07 698.91,405.14 701.30,406.21 703.70,407.28 706.09,408.34 708.49,409.40 710.88,410.46 713.28,411.52 715.67,412.58 718.07,413.64 720.46,414.69 722.86,415.74 725.25,416.79 727.65,417.84 730.04,418.88 732.43,419.93 734.83,420.97 737.22,422.01 739.62,423.04 742.01,424.08 744.41,425.11 746.80,426.14 749.20,427.17 751.59,428.20 753.99,429.23 756.38,430.25 758.78,431.27 761.17,432.29 763.57,433.31 765.96,434.32 768.36,435.33 770.75,436.34 773.15,437.35 775.54,438.36 777.94,439.36 780.33,440.36 782.73,441.36 785.12,442.36 787.52,443.35 789.91,444.35 792.30,445.34 794.70,446.32 797.09,447.31 799.49,448.29 801.88,449.27 804.28,450.25 806.67,451.23 809.07,452.20 811.46,453.17 813.86,454.14 816.25,455.11 818.65,456.07 821.04,457.03 823.44,457.99 825.83,458.95 828.23,459.90 830.62,460.86 833.02,461.81 835.41,462.75 837.81,463.70 840.20,464.64 842.60,465.58 844.99,466.51 847.38,467.45 849.78,468.38 852.17,469.31 854.57,470.23 856.96,471.15 859.36,472.07 861.75,472.99 864.15,473.91 866.54,474.82 868.94,475.73 871.33,476.64 873.73,477.54 876.12,478.44 878.52,479.34 880.91,480.23 883.31,481.13 885.70,482.02 888.10,482.90 890.49,483.79 892.89,484.67 895.28,485.54 897.68,486.42 900.07,487.29 902.46,488.16 904.86,489.03 907.25,489.89 909.65,490.75 912.04,491.60 914.44,492.46 916.83,493.31 919.23,494.15 921.62,495.00 924.02,495.84 926.41,496.68 928.81,497.51 931.20,498.34 933.60,499.17 935.99,499.99 938.39,500.81 940.78,501.63 943.18,502.45 945.57,503.26 947.97,504.06 950.36,504.87 952.76,505.67 955.15,506.46 957.55,507.26 959.94,508.05 962.33,508.83 964.73,509.62 967.12,510.40 969.52,511.17 971.91,511.94 974.31,512.71 976.70,513.47 979.10,514.23 981.49,514.99 983.89,515.74 986.28,516.49 988.68,517.24 991.07,517.98 993.47,518.71 995.86,519.45 998.26,520.18 1000.65,520.90 1003.05,521.62 1005.44,522.34 1007.84,523.05 1010.23,523.76 1012.63,524.46 1015.02,525.16 1017.41,525.86 1019.81,526.55 1022.20,527.23 1024.60,527.92 1026.99,528.59 1029.39,529.27 1031.78,529.94 1034.18,530.60 1036.57,531.26 1038.97,531.91 1041.36,532.56 1043.76,533.21 1046.15,533.85 1048.55,534.49 1050.94,535.12 1053.34,535.74 1055.73,536.36 1058.13,536.98 1060.52,537.59 1062.92,538.19 1065.31,538.79 1067.71,539.39 1070.10,539.98 1072.49,540.56 1074.89,541.14 1077.28,541.71 1079.68,542.28 1082.07,542.84 1084.47,543.39 1086.86,543.94 1089.26,544.49 1091.65,545.02 1094.05,545.55 1096.44,546.08 1098.84,546.60 1101.23,547.11 1103.63,547.62 1106.02,548.12 1108.42,548.61 1110.81,549.10 1113.21,549.57 1115.60,550.05 1118.00,550.51 1120.39,550.97 1122.79,551.42 1125.18,551.86 1127.58,552.30 1129.97,552.72 1132.36,553.14 1134.76,553.55 1137.15,553.96 1139.55,554.35 1141.94,554.74 1144.34,555.11 1146.73,555.48 1149.13,555.84 1151.52,556.19 1153.92,556.52 1156.31,556.85 1158.71,557.17 1161.10,557.47 1163.50,557.76 1165.89,558.05 1168.29,558.31 1170.68,558.57 1173.08,558.81 1175.47,559.04 1177.87,559.24 1180.26,559.44 1182.66,559.61 1185.05,559.76 1187.44,559.88 1189.84,559.97 1192.23,560.00 1194.63,560.00 1197.02,560.00 1199.42,560.00 1201.81,560.00 1204.21,560.00 1206.60,560.00 1209.00,560.00 1211.39,560.00 1213.79,560.00 1216.18,560.00 1218.58,560.00 1220.97,560.00 1223.37,560.00 1225.76,560.00 1228.16,560.00 1230.55,560.00 1232.95,560.00 1235.34,560.00 1237.74,560.00 1240.13,560.00 1242.53,560.00 1244.92,560.00 1247.31,560.00 1249.71,560.00 1252.10,560.00 1254.50,560.00 1256.89,560.00 1259.29,560.00 1261.68,560.00 1264.08,560.00 1266.47,560.00 1268.87,560.00 1271.26,560.00 1273.66,560.00 1276.05,560.00 1278.45,560.00 1280.84,560.00 1283.24,560.00 1285.63,560.00 1288.03,560.00 1290.42,560.00 1292.82,560.00 1295.21,560.00 1297.61,560.00 1300.00,560.00" stroke="#397456" stroke-width="4" fill="none" stroke-linejoin="round" stroke-linecap="round" /><text x="903.7" y="474.96521467912396" text-anchor="start" font-family="Source Han Sans SC, Microsoft YaHei, sans-serif" font-size="18" font-weight="700" fill="#397456">f/4</text><polyline points="105.00,105.00 107.39,107.55 109.79,110.11 112.18,112.66 114.58,115.22 116.97,117.77 119.37,120.32 121.76,122.88 124.16,125.43 126.55,127.98 128.95,130.53 131.34,133.08 133.74,135.64 136.13,138.19 138.53,140.74 140.92,143.28 143.32,145.83 145.71,148.38 148.11,150.93 150.50,153.47 152.90,156.02 155.29,158.56 157.69,161.10 160.08,163.64 162.47,166.18 164.87,168.72 167.26,171.26 169.66,173.80 172.05,176.33 174.45,178.87 176.84,181.40 179.24,183.93 181.63,186.46 184.03,188.99 186.42,191.51 188.82,194.04 191.21,196.56 193.61,199.08 196.00,201.60 198.40,204.12 200.79,206.63 203.19,209.15 205.58,211.66 207.98,214.17 210.37,216.67 212.77,219.18 215.16,221.68 217.56,224.18 219.95,226.68 222.34,229.17 224.74,231.66 227.13,234.15 229.53,236.64 231.92,239.13 234.32,241.61 236.71,244.09 239.11,246.56 241.50,249.04 243.90,251.51 246.29,253.98 248.69,256.44 251.08,258.90 253.48,261.36 255.87,263.82 258.27,266.27 260.66,268.72 263.06,271.16 265.45,273.60 267.85,276.04 270.24,278.48 272.64,280.91 275.03,283.34 277.42,285.76 279.82,288.18 282.21,290.60 284.61,293.01 287.00,295.42 289.40,297.82 291.79,300.22 294.19,302.62 296.58,305.01 298.98,307.40 301.37,309.78 303.77,312.16 306.16,314.54 308.56,316.91 310.95,319.27 313.35,321.63 315.74,323.99 318.14,326.34 320.53,328.69 322.93,331.03 325.32,333.37 327.72,335.70 330.11,338.03 332.51,340.35 334.90,342.67 337.29,344.98 339.69,347.28 342.08,349.58 344.48,351.88 346.87,354.17 349.27,356.45 351.66,358.73 354.06,361.00 356.45,363.27 358.85,365.53 361.24,367.79 363.64,370.04 366.03,372.28 368.43,374.52 370.82,376.75 373.22,378.97 375.61,381.19 378.01,383.40 380.40,385.60 382.80,387.80 385.19,389.99 387.59,392.18 389.98,394.36 392.37,396.53 394.77,398.69 397.16,400.85 399.56,403.00 401.95,405.14 404.35,407.28 406.74,409.40 409.14,411.52 411.53,413.64 413.93,415.74 416.32,417.84 418.72,419.93 421.11,422.01 423.51,424.08 425.90,426.14 428.30,428.20 430.69,430.25 433.09,432.29 435.48,434.32 437.88,436.34 440.27,438.36 442.67,440.36 445.06,442.36 447.45,444.35 449.85,446.32 452.24,448.29 454.64,450.25 457.03,452.20 459.43,454.14 461.82,456.07 464.22,457.99 466.61,459.90 469.01,461.81 471.40,463.70 473.80,465.58 476.19,467.45 478.59,469.31 480.98,471.15 483.38,472.99 485.77,474.82 488.17,476.64 490.56,478.44 492.96,480.23 495.35,482.02 497.75,483.79 500.14,485.54 502.54,487.29 504.93,489.03 507.32,490.75 509.72,492.46 512.11,494.15 514.51,495.84 516.90,497.51 519.30,499.17 521.69,500.81 524.09,502.45 526.48,504.06 528.88,505.67 531.27,507.26 533.67,508.83 536.06,510.40 538.46,511.94 540.85,513.47 543.25,514.99 545.64,516.49 548.04,517.98 550.43,519.45 552.83,520.90 555.22,522.34 557.62,523.76 560.01,525.16 562.40,526.55 564.80,527.92 567.19,529.27 569.59,530.60 571.98,531.91 574.38,533.21 576.77,534.49 579.17,535.74 581.56,536.98 583.96,538.19 586.35,539.39 588.75,540.56 591.14,541.71 593.54,542.84 595.93,543.94 598.33,545.02 600.72,546.08 603.12,547.11 605.51,548.12 607.91,549.10 610.30,550.05 612.70,550.97 615.09,551.86 617.48,552.72 619.88,553.55 622.27,554.35 624.67,555.11 627.06,555.84 629.46,556.52 631.85,557.17 634.25,557.76 636.64,558.31 639.04,558.81 641.43,559.24 643.83,559.61 646.22,559.88 648.62,560.00 651.01,560.00 653.41,560.00 655.80,560.00 658.20,560.00 660.59,560.00 662.99,560.00 665.38,560.00 667.78,560.00 670.17,560.00 672.57,560.00 674.96,560.00 677.35,560.00 679.75,560.00 682.14,560.00 684.54,560.00 686.93,560.00 689.33,560.00 691.72,560.00 694.12,560.00 696.51,560.00 698.91,560.00 701.30,560.00 703.70,560.00 706.09,560.00 708.49,560.00 710.88,560.00 713.28,560.00 715.67,560.00 718.07,560.00 720.46,560.00 722.86,560.00 725.25,560.00 727.65,560.00 730.04,560.00 732.43,560.00 734.83,560.00 737.22,560.00 739.62,560.00 742.01,560.00 744.41,560.00 746.80,560.00 749.20,560.00 751.59,560.00 753.99,560.00 756.38,560.00 758.78,560.00 761.17,560.00 763.57,560.00 765.96,560.00 768.36,560.00 770.75,560.00 773.15,560.00 775.54,560.00 777.94,560.00 780.33,560.00 782.73,560.00 785.12,560.00 787.52,560.00 789.91,560.00 792.30,560.00 794.70,560.00 797.09,560.00 799.49,560.00 801.88,560.00 804.28,560.00 806.67,560.00 809.07,560.00 811.46,560.00 813.86,560.00 816.25,560.00 818.65,560.00 821.04,560.00 823.44,560.00 825.83,560.00 828.23,560.00 830.62,560.00 833.02,560.00 835.41,560.00 837.81,560.00 840.20,560.00 842.60,560.00 844.99,560.00 847.38,560.00 849.78,560.00 852.17,560.00 854.57,560.00 856.96,560.00 859.36,560.00 861.75,560.00 864.15,560.00 866.54,560.00 868.94,560.00 871.33,560.00 873.73,560.00 876.12,560.00 878.52,560.00 880.91,560.00 883.31,560.00 885.70,560.00 888.10,560.00 890.49,560.00 892.89,560.00 895.28,560.00 897.68,560.00 900.07,560.00 902.46,560.00 904.86,560.00 907.25,560.00 909.65,560.00 912.04,560.00 914.44,560.00 916.83,560.00 919.23,560.00 921.62,560.00 924.02,560.00 926.41,560.00 928.81,560.00 931.20,560.00 933.60,560.00 935.99,560.00 938.39,560.00 940.78,560.00 943.18,560.00 945.57,560.00 947.97,560.00 950.36,560.00 952.76,560.00 955.15,560.00 957.55,560.00 959.94,560.00 962.33,560.00 964.73,560.00 967.12,560.00 969.52,560.00 971.91,560.00 974.31,560.00 976.70,560.00 979.10,560.00 981.49,560.00 983.89,560.00 986.28,560.00 988.68,560.00 991.07,560.00 993.47,560.00 995.86,560.00 998.26,560.00 1000.65,560.00 1003.05,560.00 1005.44,560.00 1007.84,560.00 1010.23,560.00 1012.63,560.00 1015.02,560.00 1017.41,560.00 1019.81,560.00 1022.20,560.00 1024.60,560.00 1026.99,560.00 1029.39,560.00 1031.78,560.00 1034.18,560.00 1036.57,560.00 1038.97,560.00 1041.36,560.00 1043.76,560.00 1046.15,560.00 1048.55,560.00 1050.94,560.00 1053.34,560.00 1055.73,560.00 1058.13,560.00 1060.52,560.00 1062.92,560.00 1065.31,560.00 1067.71,560.00 1070.10,560.00 1072.49,560.00 1074.89,560.00 1077.28,560.00 1079.68,560.00 1082.07,560.00 1084.47,560.00 1086.86,560.00 1089.26,560.00 1091.65,560.00 1094.05,560.00 1096.44,560.00 1098.84,560.00 1101.23,560.00 1103.63,560.00 1106.02,560.00 1108.42,560.00 1110.81,560.00 1113.21,560.00 1115.60,560.00 1118.00,560.00 1120.39,560.00 1122.79,560.00 1125.18,560.00 1127.58,560.00 1129.97,560.00 1132.36,560.00 1134.76,560.00 1137.15,560.00 1139.55,560.00 1141.94,560.00 1144.34,560.00 1146.73,560.00 1149.13,560.00 1151.52,560.00 1153.92,560.00 1156.31,560.00 1158.71,560.00 1161.10,560.00 1163.50,560.00 1165.89,560.00 1168.29,560.00 1170.68,560.00 1173.08,560.00 1175.47,560.00 1177.87,560.00 1180.26,560.00 1182.66,560.00 1185.05,560.00 1187.44,560.00 1189.84,560.00 1192.23,560.00 1194.63,560.00 1197.02,560.00 1199.42,560.00 1201.81,560.00 1204.21,560.00 1206.60,560.00 1209.00,560.00 1211.39,560.00 1213.79,560.00 1216.18,560.00 1218.58,560.00 1220.97,560.00 1223.37,560.00 1225.76,560.00 1228.16,560.00 1230.55,560.00 1232.95,560.00 1235.34,560.00 1237.74,560.00 1240.13,560.00 1242.53,560.00 1244.92,560.00 1247.31,560.00 1249.71,560.00 1252.10,560.00 1254.50,560.00 1256.89,560.00 1259.29,560.00 1261.68,560.00 1264.08,560.00 1266.47,560.00 1268.87,560.00 1271.26,560.00 1273.66,560.00 1276.05,560.00 1278.45,560.00 1280.84,560.00 1283.24,560.00 1285.63,560.00 1288.03,560.00 1290.42,560.00 1292.82,560.00 1295.21,560.00 1297.61,560.00 1300.00,560.00" stroke="#3b82b5" stroke-width="4" fill="none" stroke-linejoin="round" stroke-linecap="round" /><text x="425.7" y="407.2924565083503" text-anchor="start" font-family="Source Han Sans SC, Microsoft YaHei, sans-serif" font-size="18" font-weight="700" fill="#3b82b5">f/8</text><polyline points="105.00,105.00 107.39,110.11 109.79,115.22 112.18,120.32 114.58,125.43 116.97,130.53 119.37,135.64 121.76,140.74 124.16,145.83 126.55,150.93 128.95,156.02 131.34,161.10 133.74,166.18 136.13,171.26 138.53,176.33 140.92,181.40 143.32,186.46 145.71,191.51 148.11,196.56 150.50,201.60 152.90,206.63 155.29,211.66 157.69,216.67 160.08,221.68 162.47,226.68 164.87,231.66 167.26,236.64 169.66,241.61 172.05,246.56 174.45,251.51 176.84,256.44 179.24,261.36 181.63,266.27 184.03,271.16 186.42,276.04 188.82,280.91 191.21,285.76 193.61,290.60 196.00,295.42 198.40,300.22 200.79,305.01 203.19,309.78 205.58,314.54 207.98,319.27 210.37,323.99 212.77,328.69 215.16,333.37 217.56,338.03 219.95,342.67 222.34,347.28 224.74,351.88 227.13,356.45 229.53,361.00 231.92,365.53 234.32,370.04 236.71,374.52 239.11,378.97 241.50,383.40 243.90,387.80 246.29,392.18 248.69,396.53 251.08,400.85 253.48,405.14 255.87,409.40 258.27,413.64 260.66,417.84 263.06,422.01 265.45,426.14 267.85,430.25 270.24,434.32 272.64,438.36 275.03,442.36 277.42,446.32 279.82,450.25 282.21,454.14 284.61,457.99 287.00,461.81 289.40,465.58 291.79,469.31 294.19,472.99 296.58,476.64 298.98,480.23 301.37,483.79 303.77,487.29 306.16,490.75 308.56,494.15 310.95,497.51 313.35,500.81 315.74,504.06 318.14,507.26 320.53,510.40 322.93,513.47 325.32,516.49 327.72,519.45 330.11,522.34 332.51,525.16 334.90,527.92 337.29,530.60 339.69,533.21 342.08,535.74 344.48,538.19 346.87,540.56 349.27,542.84 351.66,545.02 354.06,547.11 356.45,549.10 358.85,550.97 361.24,552.72 363.64,554.35 366.03,555.84 368.43,557.17 370.82,558.31 373.22,559.24 375.61,559.88 378.01,560.00 380.40,560.00 382.80,560.00 385.19,560.00 387.59,560.00 389.98,560.00 392.37,560.00 394.77,560.00 397.16,560.00 399.56,560.00 401.95,560.00 404.35,560.00 406.74,560.00 409.14,560.00 411.53,560.00 413.93,560.00 416.32,560.00 418.72,560.00 421.11,560.00 423.51,560.00 425.90,560.00 428.30,560.00 430.69,560.00 433.09,560.00 435.48,560.00 437.88,560.00 440.27,560.00 442.67,560.00 445.06,560.00 447.45,560.00 449.85,560.00 452.24,560.00 454.64,560.00 457.03,560.00 459.43,560.00 461.82,560.00 464.22,560.00 466.61,560.00 469.01,560.00 471.40,560.00 473.80,560.00 476.19,560.00 478.59,560.00 480.98,560.00 483.38,560.00 485.77,560.00 488.17,560.00 490.56,560.00 492.96,560.00 495.35,560.00 497.75,560.00 500.14,560.00 502.54,560.00 504.93,560.00 507.32,560.00 509.72,560.00 512.11,560.00 514.51,560.00 516.90,560.00 519.30,560.00 521.69,560.00 524.09,560.00 526.48,560.00 528.88,560.00 531.27,560.00 533.67,560.00 536.06,560.00 538.46,560.00 540.85,560.00 543.25,560.00 545.64,560.00 548.04,560.00 550.43,560.00 552.83,560.00 555.22,560.00 557.62,560.00 560.01,560.00 562.40,560.00 564.80,560.00 567.19,560.00 569.59,560.00 571.98,560.00 574.38,560.00 576.77,560.00 579.17,560.00 581.56,560.00 583.96,560.00 586.35,560.00 588.75,560.00 591.14,560.00 593.54,560.00 595.93,560.00 598.33,560.00 600.72,560.00 603.12,560.00 605.51,560.00 607.91,560.00 610.30,560.00 612.70,560.00 615.09,560.00 617.48,560.00 619.88,560.00 622.27,560.00 624.67,560.00 627.06,560.00 629.46,560.00 631.85,560.00 634.25,560.00 636.64,560.00 639.04,560.00 641.43,560.00 643.83,560.00 646.22,560.00 648.62,560.00 651.01,560.00 653.41,560.00 655.80,560.00 658.20,560.00 660.59,560.00 662.99,560.00 665.38,560.00 667.78,560.00 670.17,560.00 672.57,560.00 674.96,560.00 677.35,560.00 679.75,560.00 682.14,560.00 684.54,560.00 686.93,560.00 689.33,560.00 691.72,560.00 694.12,560.00 696.51,560.00 698.91,560.00 701.30,560.00 703.70,560.00 706.09,560.00 708.49,560.00 710.88,560.00 713.28,560.00 715.67,560.00 718.07,560.00 720.46,560.00 722.86,560.00 725.25,560.00 727.65,560.00 730.04,560.00 732.43,560.00 734.83,560.00 737.22,560.00 739.62,560.00 742.01,560.00 744.41,560.00 746.80,560.00 749.20,560.00 751.59,560.00 753.99,560.00 756.38,560.00 758.78,560.00 761.17,560.00 763.57,560.00 765.96,560.00 768.36,560.00 770.75,560.00 773.15,560.00 775.54,560.00 777.94,560.00 780.33,560.00 782.73,560.00 785.12,560.00 787.52,560.00 789.91,560.00 792.30,560.00 794.70,560.00 797.09,560.00 799.49,560.00 801.88,560.00 804.28,560.00 806.67,560.00 809.07,560.00 811.46,560.00 813.86,560.00 816.25,560.00 818.65,560.00 821.04,560.00 823.44,560.00 825.83,560.00 828.23,560.00 830.62,560.00 833.02,560.00 835.41,560.00 837.81,560.00 840.20,560.00 842.60,560.00 844.99,560.00 847.38,560.00 849.78,560.00 852.17,560.00 854.57,560.00 856.96,560.00 859.36,560.00 861.75,560.00 864.15,560.00 866.54,560.00 868.94,560.00 871.33,560.00 873.73,560.00 876.12,560.00 878.52,560.00 880.91,560.00 883.31,560.00 885.70,560.00 888.10,560.00 890.49,560.00 892.89,560.00 895.28,560.00 897.68,560.00 900.07,560.00 902.46,560.00 904.86,560.00 907.25,560.00 909.65,560.00 912.04,560.00 914.44,560.00 916.83,560.00 919.23,560.00 921.62,560.00 924.02,560.00 926.41,560.00 928.81,560.00 931.20,560.00 933.60,560.00 935.99,560.00 938.39,560.00 940.78,560.00 943.18,560.00 945.57,560.00 947.97,560.00 950.36,560.00 952.76,560.00 955.15,560.00 957.55,560.00 959.94,560.00 962.33,560.00 964.73,560.00 967.12,560.00 969.52,560.00 971.91,560.00 974.31,560.00 976.70,560.00 979.10,560.00 981.49,560.00 983.89,560.00 986.28,560.00 988.68,560.00 991.07,560.00 993.47,560.00 995.86,560.00 998.26,560.00 1000.65,560.00 1003.05,560.00 1005.44,560.00 1007.84,560.00 1010.23,560.00 1012.63,560.00 1015.02,560.00 1017.41,560.00 1019.81,560.00 1022.20,560.00 1024.60,560.00 1026.99,560.00 1029.39,560.00 1031.78,560.00 1034.18,560.00 1036.57,560.00 1038.97,560.00 1041.36,560.00 1043.76,560.00 1046.15,560.00 1048.55,560.00 1050.94,560.00 1053.34,560.00 1055.73,560.00 1058.13,560.00 1060.52,560.00 1062.92,560.00 1065.31,560.00 1067.71,560.00 1070.10,560.00 1072.49,560.00 1074.89,560.00 1077.28,560.00 1079.68,560.00 1082.07,560.00 1084.47,560.00 1086.86,560.00 1089.26,560.00 1091.65,560.00 1094.05,560.00 1096.44,560.00 1098.84,560.00 1101.23,560.00 1103.63,560.00 1106.02,560.00 1108.42,560.00 1110.81,560.00 1113.21,560.00 1115.60,560.00 1118.00,560.00 1120.39,560.00 1122.79,560.00 1125.18,560.00 1127.58,560.00 1129.97,560.00 1132.36,560.00 1134.76,560.00 1137.15,560.00 1139.55,560.00 1141.94,560.00 1144.34,560.00 1146.73,560.00 1149.13,560.00 1151.52,560.00 1153.92,560.00 1156.31,560.00 1158.71,560.00 1161.10,560.00 1163.50,560.00 1165.89,560.00 1168.29,560.00 1170.68,560.00 1173.08,560.00 1175.47,560.00 1177.87,560.00 1180.26,560.00 1182.66,560.00 1185.05,560.00 1187.44,560.00 1189.84,560.00 1192.23,560.00 1194.63,560.00 1197.02,560.00 1199.42,560.00 1201.81,560.00 1204.21,560.00 1206.60,560.00 1209.00,560.00 1211.39,560.00 1213.79,560.00 1216.18,560.00 1218.58,560.00 1220.97,560.00 1223.37,560.00 1225.76,560.00 1228.16,560.00 1230.55,560.00 1232.95,560.00 1235.34,560.00 1237.74,560.00 1240.13,560.00 1242.53,560.00 1244.92,560.00 1247.31,560.00 1249.71,560.00 1252.10,560.00 1254.50,560.00 1256.89,560.00 1259.29,560.00 1261.68,560.00 1264.08,560.00 1266.47,560.00 1268.87,560.00 1271.26,560.00 1273.66,560.00 1276.05,560.00 1278.45,560.00 1280.84,560.00 1283.24,560.00 1285.63,560.00 1288.03,560.00 1290.42,560.00 1292.82,560.00 1295.21,560.00 1297.61,560.00 1300.00,560.00" stroke="#c85b73" stroke-width="4" fill="none" stroke-linejoin="round" stroke-linecap="round" /><text x="282.3" y="427.79452486384594" text-anchor="start" font-family="Source Han Sans SC, Microsoft YaHei, sans-serif" font-size="18" font-weight="700" fill="#c85b73">f/16</text><polyline points="105.00,105.00 107.39,112.02 109.79,119.05 112.18,126.07 114.58,133.08 116.97,140.10 119.37,147.11 121.76,154.11 124.16,161.10 126.55,168.09 128.95,175.07 131.34,182.03 133.74,188.99 136.13,195.93 138.53,202.86 140.92,209.77 143.32,216.67 145.71,223.55 148.11,230.42 150.50,237.26 152.90,244.09 155.29,250.89 157.69,257.67 160.08,264.43 162.47,271.16 164.87,277.87 167.26,284.55 169.66,291.20 172.05,297.82 174.45,304.41 176.84,310.97 179.24,317.50 181.63,323.99 184.03,330.45 186.42,336.86 188.82,343.24 191.21,349.58 193.61,355.88 196.00,362.14 198.40,368.35 200.79,374.52 203.19,380.63 205.58,386.70 207.98,392.72 210.37,398.69 212.77,404.61 215.16,410.46 217.56,416.26 219.95,422.01 222.34,427.69 224.74,433.31 227.13,438.86 229.53,444.35 231.92,449.76 234.32,455.11 236.71,460.38 239.11,465.58 241.50,470.69 243.90,475.73 246.29,480.68 248.69,485.54 251.08,490.32 253.48,495.00 255.87,499.58 258.27,504.06 260.66,508.44 263.06,512.71 265.45,516.86 267.85,520.90 270.24,524.81 272.64,528.59 275.03,532.24 277.42,535.74 279.82,539.09 282.21,542.28 284.61,545.29 287.00,548.12 289.40,550.74 291.79,553.14 294.19,555.30 296.58,557.17 298.98,558.69 301.37,559.76 303.77,560.00 306.16,560.00 308.56,560.00 310.95,560.00 313.35,560.00 315.74,560.00 318.14,560.00 320.53,560.00 322.93,560.00 325.32,560.00 327.72,560.00 330.11,560.00 332.51,560.00 334.90,560.00 337.29,560.00 339.69,560.00 342.08,560.00 344.48,560.00 346.87,560.00 349.27,560.00 351.66,560.00 354.06,560.00 356.45,560.00 358.85,560.00 361.24,560.00 363.64,560.00 366.03,560.00 368.43,560.00 370.82,560.00 373.22,560.00 375.61,560.00 378.01,560.00 380.40,560.00 382.80,560.00 385.19,560.00 387.59,560.00 389.98,560.00 392.37,560.00 394.77,560.00 397.16,560.00 399.56,560.00 401.95,560.00 404.35,560.00 406.74,560.00 409.14,560.00 411.53,560.00 413.93,560.00 416.32,560.00 418.72,560.00 421.11,560.00 423.51,560.00 425.90,560.00 428.30,560.00 430.69,560.00 433.09,560.00 435.48,560.00 437.88,560.00 440.27,560.00 442.67,560.00 445.06,560.00 447.45,560.00 449.85,560.00 452.24,560.00 454.64,560.00 457.03,560.00 459.43,560.00 461.82,560.00 464.22,560.00 466.61,560.00 469.01,560.00 471.40,560.00 473.80,560.00 476.19,560.00 478.59,560.00 480.98,560.00 483.38,560.00 485.77,560.00 488.17,560.00 490.56,560.00 492.96,560.00 495.35,560.00 497.75,560.00 500.14,560.00 502.54,560.00 504.93,560.00 507.32,560.00 509.72,560.00 512.11,560.00 514.51,560.00 516.90,560.00 519.30,560.00 521.69,560.00 524.09,560.00 526.48,560.00 528.88,560.00 531.27,560.00 533.67,560.00 536.06,560.00 538.46,560.00 540.85,560.00 543.25,560.00 545.64,560.00 548.04,560.00 550.43,560.00 552.83,560.00 555.22,560.00 557.62,560.00 560.01,560.00 562.40,560.00 564.80,560.00 567.19,560.00 569.59,560.00 571.98,560.00 574.38,560.00 576.77,560.00 579.17,560.00 581.56,560.00 583.96,560.00 586.35,560.00 588.75,560.00 591.14,560.00 593.54,560.00 595.93,560.00 598.33,560.00 600.72,560.00 603.12,560.00 605.51,560.00 607.91,560.00 610.30,560.00 612.70,560.00 615.09,560.00 617.48,560.00 619.88,560.00 622.27,560.00 624.67,560.00 627.06,560.00 629.46,560.00 631.85,560.00 634.25,560.00 636.64,560.00 639.04,560.00 641.43,560.00 643.83,560.00 646.22,560.00 648.62,560.00 651.01,560.00 653.41,560.00 655.80,560.00 658.20,560.00 660.59,560.00 662.99,560.00 665.38,560.00 667.78,560.00 670.17,560.00 672.57,560.00 674.96,560.00 677.35,560.00 679.75,560.00 682.14,560.00 684.54,560.00 686.93,560.00 689.33,560.00 691.72,560.00 694.12,560.00 696.51,560.00 698.91,560.00 701.30,560.00 703.70,560.00 706.09,560.00 708.49,560.00 710.88,560.00 713.28,560.00 715.67,560.00 718.07,560.00 720.46,560.00 722.86,560.00 725.25,560.00 727.65,560.00 730.04,560.00 732.43,560.00 734.83,560.00 737.22,560.00 739.62,560.00 742.01,560.00 744.41,560.00 746.80,560.00 749.20,560.00 751.59,560.00 753.99,560.00 756.38,560.00 758.78,560.00 761.17,560.00 763.57,560.00 765.96,560.00 768.36,560.00 770.75,560.00 773.15,560.00 775.54,560.00 777.94,560.00 780.33,560.00 782.73,560.00 785.12,560.00 787.52,560.00 789.91,560.00 792.30,560.00 794.70,560.00 797.09,560.00 799.49,560.00 801.88,560.00 804.28,560.00 806.67,560.00 809.07,560.00 811.46,560.00 813.86,560.00 816.25,560.00 818.65,560.00 821.04,560.00 823.44,560.00 825.83,560.00 828.23,560.00 830.62,560.00 833.02,560.00 835.41,560.00 837.81,560.00 840.20,560.00 842.60,560.00 844.99,560.00 847.38,560.00 849.78,560.00 852.17,560.00 854.57,560.00 856.96,560.00 859.36,560.00 861.75,560.00 864.15,560.00 866.54,560.00 868.94,560.00 871.33,560.00 873.73,560.00 876.12,560.00 878.52,560.00 880.91,560.00 883.31,560.00 885.70,560.00 888.10,560.00 890.49,560.00 892.89,560.00 895.28,560.00 897.68,560.00 900.07,560.00 902.46,560.00 904.86,560.00 907.25,560.00 909.65,560.00 912.04,560.00 914.44,560.00 916.83,560.00 919.23,560.00 921.62,560.00 924.02,560.00 926.41,560.00 928.81,560.00 931.20,560.00 933.60,560.00 935.99,560.00 938.39,560.00 940.78,560.00 943.18,560.00 945.57,560.00 947.97,560.00 950.36,560.00 952.76,560.00 955.15,560.00 957.55,560.00 959.94,560.00 962.33,560.00 964.73,560.00 967.12,560.00 969.52,560.00 971.91,560.00 974.31,560.00 976.70,560.00 979.10,560.00 981.49,560.00 983.89,560.00 986.28,560.00 988.68,560.00 991.07,560.00 993.47,560.00 995.86,560.00 998.26,560.00 1000.65,560.00 1003.05,560.00 1005.44,560.00 1007.84,560.00 1010.23,560.00 1012.63,560.00 1015.02,560.00 1017.41,560.00 1019.81,560.00 1022.20,560.00 1024.60,560.00 1026.99,560.00 1029.39,560.00 1031.78,560.00 1034.18,560.00 1036.57,560.00 1038.97,560.00 1041.36,560.00 1043.76,560.00 1046.15,560.00 1048.55,560.00 1050.94,560.00 1053.34,560.00 1055.73,560.00 1058.13,560.00 1060.52,560.00 1062.92,560.00 1065.31,560.00 1067.71,560.00 1070.10,560.00 1072.49,560.00 1074.89,560.00 1077.28,560.00 1079.68,560.00 1082.07,560.00 1084.47,560.00 1086.86,560.00 1089.26,560.00 1091.65,560.00 1094.05,560.00 1096.44,560.00 1098.84,560.00 1101.23,560.00 1103.63,560.00 1106.02,560.00 1108.42,560.00 1110.81,560.00 1113.21,560.00 1115.60,560.00 1118.00,560.00 1120.39,560.00 1122.79,560.00 1125.18,560.00 1127.58,560.00 1129.97,560.00 1132.36,560.00 1134.76,560.00 1137.15,560.00 1139.55,560.00 1141.94,560.00 1144.34,560.00 1146.73,560.00 1149.13,560.00 1151.52,560.00 1153.92,560.00 1156.31,560.00 1158.71,560.00 1161.10,560.00 1163.50,560.00 1165.89,560.00 1168.29,560.00 1170.68,560.00 1173.08,560.00 1175.47,560.00 1177.87,560.00 1180.26,560.00 1182.66,560.00 1185.05,560.00 1187.44,560.00 1189.84,560.00 1192.23,560.00 1194.63,560.00 1197.02,560.00 1199.42,560.00 1201.81,560.00 1204.21,560.00 1206.60,560.00 1209.00,560.00 1211.39,560.00 1213.79,560.00 1216.18,560.00 1218.58,560.00 1220.97,560.00 1223.37,560.00 1225.76,560.00 1228.16,560.00 1230.55,560.00 1232.95,560.00 1235.34,560.00 1237.74,560.00 1240.13,560.00 1242.53,560.00 1244.92,560.00 1247.31,560.00 1249.71,560.00 1252.10,560.00 1254.50,560.00 1256.89,560.00 1259.29,560.00 1261.68,560.00 1264.08,560.00 1266.47,560.00 1268.87,560.00 1271.26,560.00 1273.66,560.00 1276.05,560.00 1278.45,560.00 1280.84,560.00 1283.24,560.00 1285.63,560.00 1288.03,560.00 1290.42,560.00 1292.82,560.00 1295.21,560.00 1297.61,560.00 1300.00,560.00" stroke="#8b5e20" stroke-width="4" fill="none" stroke-linejoin="round" stroke-linecap="round" /><text x="174.75" y="267.53489111286206" text-anchor="start" font-family="Source Han Sans SC, Microsoft YaHei, sans-serif" font-size="18" font-weight="700" fill="#8b5e20">f/22</text><line x1="304.15869999999995" y1="560" x2="304.15869999999995" y2="105" stroke="#7b4b74" stroke-width="2" stroke-linecap="round" stroke-dasharray="10 7" /><text x="312.15869999999995" y="133" text-anchor="start" font-family="Source Han Sans SC, Microsoft YaHei, sans-serif" font-size="17" font-weight="600" fill="#7b4b74">6 μm Nyquist</text><line x1="403.75" y1="560" x2="403.75" y2="105" stroke="#7251a2" stroke-width="2" stroke-linecap="round" stroke-dasharray="10 7" /><text x="411.75" y="160" text-anchor="start" font-family="Source Han Sans SC, Microsoft YaHei, sans-serif" font-size="17" font-weight="600" fill="#7251a2">4 μm Nyquist</text><line x1="105.0" y1="554" x2="105.0" y2="566" stroke="#334e68" stroke-width="2" stroke-linecap="round" /><text x="105.0" y="584" text-anchor="middle" font-family="Source Han Sans SC, Microsoft YaHei, sans-serif" font-size="16" font-weight="400" fill="#486581">0</text><line x1="344.0" y1="554" x2="344.0" y2="566" stroke="#334e68" stroke-width="2" stroke-linecap="round" /><text x="344.0" y="584" text-anchor="middle" font-family="Source Han Sans SC, Microsoft YaHei, sans-serif" font-size="16" font-weight="400" fill="#486581">100</text><line x1="583.0" y1="554" x2="583.0" y2="566" stroke="#334e68" stroke-width="2" stroke-linecap="round" /><text x="583.0" y="584" text-anchor="middle" font-family="Source Han Sans SC, Microsoft YaHei, sans-serif" font-size="16" font-weight="400" fill="#486581">200</text><line x1="822.0" y1="554" x2="822.0" y2="566" stroke="#334e68" stroke-width="2" stroke-linecap="round" /><text x="822.0" y="584" text-anchor="middle" font-family="Source Han Sans SC, Microsoft YaHei, sans-serif" font-size="16" font-weight="400" fill="#486581">300</text><line x1="1061.0" y1="554" x2="1061.0" y2="566" stroke="#334e68" stroke-width="2" stroke-linecap="round" /><text x="1061.0" y="584" text-anchor="middle" font-family="Source Han Sans SC, Microsoft YaHei, sans-serif" font-size="16" font-weight="400" fill="#486581">400</text><line x1="1300.0" y1="554" x2="1300.0" y2="566" stroke="#334e68" stroke-width="2" stroke-linecap="round" /><text x="1300.0" y="584" text-anchor="middle" font-family="Source Han Sans SC, Microsoft YaHei, sans-serif" font-size="16" font-weight="400" fill="#486581">500</text><line x1="99" y1="560" x2="111" y2="560" stroke="#334e68" stroke-width="2" stroke-linecap="round" /><text x="91" y="565" text-anchor="end" font-family="Source Han Sans SC, Microsoft YaHei, sans-serif" font-size="16" font-weight="400" fill="#486581">0</text><line x1="99" y1="446.25" x2="111" y2="446.25" stroke="#334e68" stroke-width="2" stroke-linecap="round" /><text x="91" y="451.25" text-anchor="end" font-family="Source Han Sans SC, Microsoft YaHei, sans-serif" font-size="16" font-weight="400" fill="#486581">0.25</text><line x1="99" y1="332.5" x2="111" y2="332.5" stroke="#334e68" stroke-width="2" stroke-linecap="round" /><text x="91" y="337.5" text-anchor="end" font-family="Source Han Sans SC, Microsoft YaHei, sans-serif" font-size="16" font-weight="400" fill="#486581">0.5</text><line x1="99" y1="218.75" x2="111" y2="218.75" stroke="#334e68" stroke-width="2" stroke-linecap="round" /><text x="91" y="223.75" text-anchor="end" font-family="Source Han Sans SC, Microsoft YaHei, sans-serif" font-size="16" font-weight="400" fill="#486581">0.75</text><line x1="99" y1="105" x2="111" y2="105" stroke="#334e68" stroke-width="2" stroke-linecap="round" /><text x="91" y="110" text-anchor="end" font-family="Source Han Sans SC, Microsoft YaHei, sans-serif" font-size="16" font-weight="400" fill="#486581">1</text><text x="700.0" y="640" text-anchor="middle" font-family="Source Han Sans SC, Microsoft YaHei, sans-serif" font-size="20" font-weight="400" fill="#627d98">曲线连续下降；不同采样频率只是在同一响应上选择不同评价位置</text></svg>