<?xml version='1.0' encoding='utf-8'?>
<svg xmlns="http://www.w3.org/2000/svg" width="1500" height="790" viewBox="0 0 1500 790" role="img" aria-label="多帧成像的统一前向模型与融合流程"><defs><marker id="arrow-blue" markerWidth="10" markerHeight="8" refX="9" refY="4" orient="auto" markerUnits="strokeWidth"><path d="M 0 0 L 10 4 L 0 8 z" fill="#3b82b5" /></marker><marker id="arrow-dark" markerWidth="10" markerHeight="8" refX="9" refY="4" orient="auto" markerUnits="strokeWidth"><path d="M 0 0 L 10 4 L 0 8 z" fill="#334e68" /></marker><marker id="arrow-red" markerWidth="10" markerHeight="8" refX="9" refY="4" orient="auto" markerUnits="strokeWidth"><path d="M 0 0 L 10 4 L 0 8 z" fill="#c85b73" /></marker><marker id="arrow-green" markerWidth="10" markerHeight="8" refX="9" refY="4" orient="auto" markerUnits="strokeWidth"><path d="M 0 0 L 10 4 L 0 8 z" fill="#4d8c6a" /></marker><marker id="arrow-gold" markerWidth="10" markerHeight="8" refX="9" refY="4" orient="auto" markerUnits="strokeWidth"><path d="M 0 0 L 10 4 L 0 8 z" fill="#c58a2d" /></marker><marker id="arrow-purple" markerWidth="10" markerHeight="8" refX="9" refY="4" orient="auto" markerUnits="strokeWidth"><path d="M 0 0 L 10 4 L 0 8 z" fill="#7b4b74" /></marker></defs><rect width="1500" height="790" fill="#fbfdff" /><text x="750" y="43" text-anchor="middle" font-family="Source Han Sans SC, Microsoft YaHei, sans-serif" font-size="30" font-weight="700" fill="#102a43">多帧不是把文件叠起来：每一帧都经历不同几何、模糊、采样与噪声</text><rect x="45" y="260" width="220" height="180" rx="16" fill="#eaf4ff" stroke="#9bc7ee" stroke-width="2.5" /><text x="155.0" y="302" text-anchor="middle" font-family="Source Han Sans SC, Microsoft YaHei, sans-serif" font-size="22" font-weight="700" fill="#285b7a">潜在场景 x</text><text x="155.0" y="336" text-anchor="middle" font-family="Source Han Sans SC, Microsoft YaHei, sans-serif" font-size="15" font-weight="400" fill="#486581">共同但未知的辐射与结构</text><line x1="123" y1="352" x2="123" y2="416" stroke="#c7d4df" stroke-width="1.5" stroke-linecap="round" /><line x1="123" y1="352" x2="187" y2="352" stroke="#c7d4df" stroke-width="1.5" stroke-linecap="round" /><line x1="139" y1="352" x2="139" y2="416" stroke="#c7d4df" stroke-width="1.5" stroke-linecap="round" /><line x1="123" y1="368" x2="187" y2="368" stroke="#c7d4df" stroke-width="1.5" stroke-linecap="round" /><line x1="155" y1="352" x2="155" y2="416" stroke="#c7d4df" stroke-width="1.5" stroke-linecap="round" /><line x1="123" y1="384" x2="187" y2="384" stroke="#c7d4df" stroke-width="1.5" stroke-linecap="round" /><line x1="171" y1="352" x2="171" y2="416" stroke="#c7d4df" stroke-width="1.5" stroke-linecap="round" /><line x1="123" y1="400" x2="187" y2="400" stroke="#c7d4df" stroke-width="1.5" stroke-linecap="round" /><line x1="187" y1="352" x2="187" y2="416" stroke="#c7d4df" stroke-width="1.5" stroke-linecap="round" /><line x1="123" y1="416" x2="187" y2="416" stroke="#c7d4df" stroke-width="1.5" stroke-linecap="round" /><circle cx="154" cy="381" r="9" fill="#3b82b5" fill-opacity=".86" /><rect x="365" y="105" width="250" height="105" rx="16" fill="#ffffff" stroke="#b9c7d3" stroke-width="2.5" /><text x="490.0" y="147" text-anchor="middle" font-family="Source Han Sans SC, Microsoft YaHei, sans-serif" font-size="18" font-weight="700" fill="#102a43">第 1 帧 y1</text><text x="490.0" y="181" text-anchor="middle" font-family="Source Han Sans SC, Microsoft YaHei, sans-serif" font-size="15" font-weight="400" fill="#486581">W：位移　H：模糊　D：采样</text><line x1="522" y1="134" x2="522" y2="198" stroke="#c7d4df" stroke-width="1.5" stroke-linecap="round" /><line x1="522" y1="134" x2="586" y2="134" stroke="#c7d4df" stroke-width="1.5" stroke-linecap="round" /><line x1="538" y1="134" x2="538" y2="198" stroke="#c7d4df" stroke-width="1.5" stroke-linecap="round" /><line x1="522" y1="150" x2="586" y2="150" stroke="#c7d4df" stroke-width="1.5" stroke-linecap="round" /><line x1="554" y1="134" x2="554" y2="198" stroke="#c7d4df" stroke-width="1.5" stroke-linecap="round" /><line x1="522" y1="166" x2="586" y2="166" stroke="#c7d4df" stroke-width="1.5" stroke-linecap="round" /><line x1="570" y1="134" x2="570" y2="198" stroke="#c7d4df" stroke-width="1.5" stroke-linecap="round" /><line x1="522" y1="182" x2="586" y2="182" stroke="#c7d4df" stroke-width="1.5" stroke-linecap="round" /><line x1="586" y1="134" x2="586" y2="198" stroke="#c7d4df" stroke-width="1.5" stroke-linecap="round" /><line x1="522" y1="198" x2="586" y2="198" stroke="#c7d4df" stroke-width="1.5" stroke-linecap="round" /><circle cx="553" cy="163" r="9" fill="#3b82b5" fill-opacity=".86" /><line x1="265" y1="350" x2="350" y2="157" stroke="#3b82b5" stroke-width="3" stroke-linecap="round" marker-end="url(#arrow-blue)" /><rect x="365" y="245" width="250" height="105" rx="16" fill="#ffffff" stroke="#b9c7d3" stroke-width="2.5" /><text x="490.0" y="287" text-anchor="middle" font-family="Source Han Sans SC, Microsoft YaHei, sans-serif" font-size="18" font-weight="700" fill="#102a43">第 2 帧 y2</text><text x="490.0" y="321" text-anchor="middle" font-family="Source Han Sans SC, Microsoft YaHei, sans-serif" font-size="15" font-weight="400" fill="#486581">W：位移　H：模糊　D：采样</text><line x1="528" y1="269" x2="528" y2="333" stroke="#c7d4df" stroke-width="1.5" stroke-linecap="round" /><line x1="528" y1="269" x2="592" y2="269" stroke="#c7d4df" stroke-width="1.5" stroke-linecap="round" /><line x1="544" y1="269" x2="544" y2="333" stroke="#c7d4df" stroke-width="1.5" stroke-linecap="round" /><line x1="528" y1="285" x2="592" y2="285" stroke="#c7d4df" stroke-width="1.5" stroke-linecap="round" /><line x1="560" y1="269" x2="560" y2="333" stroke="#c7d4df" stroke-width="1.5" stroke-linecap="round" /><line x1="528" y1="301" x2="592" y2="301" stroke="#c7d4df" stroke-width="1.5" stroke-linecap="round" /><line x1="576" y1="269" x2="576" y2="333" stroke="#c7d4df" stroke-width="1.5" stroke-linecap="round" /><line x1="528" y1="317" x2="592" y2="317" stroke="#c7d4df" stroke-width="1.5" stroke-linecap="round" /><line x1="592" y1="269" x2="592" y2="333" stroke="#c7d4df" stroke-width="1.5" stroke-linecap="round" /><line x1="528" y1="333" x2="592" y2="333" stroke="#c7d4df" stroke-width="1.5" stroke-linecap="round" /><circle cx="559" cy="298" r="9" fill="#4d8c6a" fill-opacity=".86" /><line x1="265" y1="350" x2="350" y2="297" stroke="#4d8c6a" stroke-width="3" stroke-linecap="round" marker-end="url(#arrow-blue)" /><rect x="365" y="385" width="250" height="105" rx="16" fill="#ffffff" stroke="#b9c7d3" stroke-width="2.5" /><text x="490.0" y="427" text-anchor="middle" font-family="Source Han Sans SC, Microsoft YaHei, sans-serif" font-size="18" font-weight="700" fill="#102a43">第 3 帧 y3</text><text x="490.0" y="461" text-anchor="middle" font-family="Source Han Sans SC, Microsoft YaHei, sans-serif" font-size="15" font-weight="400" fill="#486581">W：位移　H：模糊　D：采样</text><line x1="531" y1="416" x2="531" y2="480" stroke="#c7d4df" stroke-width="1.5" stroke-linecap="round" /><line x1="531" y1="416" x2="595" y2="416" stroke="#c7d4df" stroke-width="1.5" stroke-linecap="round" /><line x1="547" y1="416" x2="547" y2="480" stroke="#c7d4df" stroke-width="1.5" stroke-linecap="round" /><line x1="531" y1="432" x2="595" y2="432" stroke="#c7d4df" stroke-width="1.5" stroke-linecap="round" /><line x1="563" y1="416" x2="563" y2="480" stroke="#c7d4df" stroke-width="1.5" stroke-linecap="round" /><line x1="531" y1="448" x2="595" y2="448" stroke="#c7d4df" stroke-width="1.5" stroke-linecap="round" /><line x1="579" y1="416" x2="579" y2="480" stroke="#c7d4df" stroke-width="1.5" stroke-linecap="round" /><line x1="531" y1="464" x2="595" y2="464" stroke="#c7d4df" stroke-width="1.5" stroke-linecap="round" /><line x1="595" y1="416" x2="595" y2="480" stroke="#c7d4df" stroke-width="1.5" stroke-linecap="round" /><line x1="531" y1="480" x2="595" y2="480" stroke="#c7d4df" stroke-width="1.5" stroke-linecap="round" /><circle cx="562" cy="445" r="9" fill="#c58a2d" fill-opacity=".86" /><line x1="265" y1="350" x2="350" y2="437" stroke="#c58a2d" stroke-width="3" stroke-linecap="round" marker-end="url(#arrow-blue)" /><rect x="365" y="525" width="250" height="105" rx="16" fill="#ffffff" stroke="#b9c7d3" stroke-width="2.5" /><text x="490.0" y="567" text-anchor="middle" font-family="Source Han Sans SC, Microsoft YaHei, sans-serif" font-size="18" font-weight="700" fill="#102a43">第 4 帧 y4</text><text x="490.0" y="601" text-anchor="middle" font-family="Source Han Sans SC, Microsoft YaHei, sans-serif" font-size="15" font-weight="400" fill="#486581">W：位移　H：模糊　D：采样</text><line x1="525" y1="547" x2="525" y2="611" stroke="#c7d4df" stroke-width="1.5" stroke-linecap="round" /><line x1="525" y1="547" x2="589" y2="547" stroke="#c7d4df" stroke-width="1.5" stroke-linecap="round" /><line x1="541" y1="547" x2="541" y2="611" stroke="#c7d4df" stroke-width="1.5" stroke-linecap="round" /><line x1="525" y1="563" x2="589" y2="563" stroke="#c7d4df" stroke-width="1.5" stroke-linecap="round" /><line x1="557" y1="547" x2="557" y2="611" stroke="#c7d4df" stroke-width="1.5" stroke-linecap="round" /><line x1="525" y1="579" x2="589" y2="579" stroke="#c7d4df" stroke-width="1.5" stroke-linecap="round" /><line x1="573" y1="547" x2="573" y2="611" stroke="#c7d4df" stroke-width="1.5" stroke-linecap="round" /><line x1="525" y1="595" x2="589" y2="595" stroke="#c7d4df" stroke-width="1.5" stroke-linecap="round" /><line x1="589" y1="547" x2="589" y2="611" stroke="#c7d4df" stroke-width="1.5" stroke-linecap="round" /><line x1="525" y1="611" x2="589" y2="611" stroke="#c7d4df" stroke-width="1.5" stroke-linecap="round" /><circle cx="556" cy="576" r="9" fill="#7b4b74" fill-opacity=".86" /><line x1="265" y1="350" x2="350" y2="577" stroke="#7b4b74" stroke-width="3" stroke-linecap="round" marker-end="url(#arrow-blue)" /><rect x="745" y="145" width="285" height="430" rx="16" fill="#edf8f2" stroke="#9fd6b7" stroke-width="2.5" /><text x="887.5" y="187" text-anchor="middle" font-family="Source Han Sans SC, Microsoft YaHei, sans-serif" font-size="22" font-weight="700" fill="#397456">配准到共同坐标</text><text x="887.5" y="221" text-anchor="middle" font-family="Source Han Sans SC, Microsoft YaHei, sans-serif" font-size="15" font-weight="400" fill="#486581">估计 W⁻¹；统一曝光尺度</text><line x1="855" y1="235" x2="855" y2="299" stroke="#c7d4df" stroke-width="1.5" stroke-linecap="round" /><line x1="855" y1="235" x2="919" y2="235" stroke="#c7d4df" stroke-width="1.5" stroke-linecap="round" /><line x1="871" y1="235" x2="871" y2="299" stroke="#c7d4df" stroke-width="1.5" stroke-linecap="round" /><line x1="855" y1="251" x2="919" y2="251" stroke="#c7d4df" stroke-width="1.5" stroke-linecap="round" /><line x1="887" y1="235" x2="887" y2="299" stroke="#c7d4df" stroke-width="1.5" stroke-linecap="round" /><line x1="855" y1="267" x2="919" y2="267" stroke="#c7d4df" stroke-width="1.5" stroke-linecap="round" /><line x1="903" y1="235" x2="903" y2="299" stroke="#c7d4df" stroke-width="1.5" stroke-linecap="round" /><line x1="855" y1="283" x2="919" y2="283" stroke="#c7d4df" stroke-width="1.5" stroke-linecap="round" /><line x1="919" y1="235" x2="919" y2="299" stroke="#c7d4df" stroke-width="1.5" stroke-linecap="round" /><line x1="855" y1="299" x2="919" y2="299" stroke="#c7d4df" stroke-width="1.5" stroke-linecap="round" /><circle cx="886" cy="264" r="9" fill="#3b82b5" fill-opacity=".86" /><line x1="855" y1="315" x2="855" y2="379" stroke="#c7d4df" stroke-width="1.5" stroke-linecap="round" /><line x1="855" y1="315" x2="919" y2="315" stroke="#c7d4df" stroke-width="1.5" stroke-linecap="round" /><line x1="871" y1="315" x2="871" y2="379" stroke="#c7d4df" stroke-width="1.5" stroke-linecap="round" /><line x1="855" y1="331" x2="919" y2="331" stroke="#c7d4df" stroke-width="1.5" stroke-linecap="round" /><line x1="887" y1="315" x2="887" y2="379" stroke="#c7d4df" stroke-width="1.5" stroke-linecap="round" /><line x1="855" y1="347" x2="919" y2="347" stroke="#c7d4df" stroke-width="1.5" stroke-linecap="round" /><line x1="903" y1="315" x2="903" y2="379" stroke="#c7d4df" stroke-width="1.5" stroke-linecap="round" /><line x1="855" y1="363" x2="919" y2="363" stroke="#c7d4df" stroke-width="1.5" stroke-linecap="round" /><line x1="919" y1="315" x2="919" y2="379" stroke="#c7d4df" stroke-width="1.5" stroke-linecap="round" /><line x1="855" y1="379" x2="919" y2="379" stroke="#c7d4df" stroke-width="1.5" stroke-linecap="round" /><circle cx="886" cy="344" r="9" fill="#4d8c6a" fill-opacity=".86" /><line x1="855" y1="395" x2="855" y2="459" stroke="#c7d4df" stroke-width="1.5" stroke-linecap="round" /><line x1="855" y1="395" x2="919" y2="395" stroke="#c7d4df" stroke-width="1.5" stroke-linecap="round" /><line x1="871" y1="395" x2="871" y2="459" stroke="#c7d4df" stroke-width="1.5" stroke-linecap="round" /><line x1="855" y1="411" x2="919" y2="411" stroke="#c7d4df" stroke-width="1.5" stroke-linecap="round" /><line x1="887" y1="395" x2="887" y2="459" stroke="#c7d4df" stroke-width="1.5" stroke-linecap="round" /><line x1="855" y1="427" x2="919" y2="427" stroke="#c7d4df" stroke-width="1.5" stroke-linecap="round" /><line x1="903" y1="395" x2="903" y2="459" stroke="#c7d4df" stroke-width="1.5" stroke-linecap="round" /><line x1="855" y1="443" x2="919" y2="443" stroke="#c7d4df" stroke-width="1.5" stroke-linecap="round" /><line x1="919" y1="395" x2="919" y2="459" stroke="#c7d4df" stroke-width="1.5" stroke-linecap="round" /><line x1="855" y1="459" x2="919" y2="459" stroke="#c7d4df" stroke-width="1.5" stroke-linecap="round" /><circle cx="886" cy="424" r="9" fill="#c58a2d" fill-opacity=".86" /><line x1="855" y1="475" x2="855" y2="539" stroke="#c7d4df" stroke-width="1.5" stroke-linecap="round" /><line x1="855" y1="475" x2="919" y2="475" stroke="#c7d4df" stroke-width="1.5" stroke-linecap="round" /><line x1="871" y1="475" x2="871" y2="539" stroke="#c7d4df" stroke-width="1.5" stroke-linecap="round" /><line x1="855" y1="491" x2="919" y2="491" stroke="#c7d4df" stroke-width="1.5" stroke-linecap="round" /><line x1="887" y1="475" x2="887" y2="539" stroke="#c7d4df" stroke-width="1.5" stroke-linecap="round" /><line x1="855" y1="507" x2="919" y2="507" stroke="#c7d4df" stroke-width="1.5" stroke-linecap="round" /><line x1="903" y1="475" x2="903" y2="539" stroke="#c7d4df" stroke-width="1.5" stroke-linecap="round" /><line x1="855" y1="523" x2="919" y2="523" stroke="#c7d4df" stroke-width="1.5" stroke-linecap="round" /><line x1="919" y1="475" x2="919" y2="539" stroke="#c7d4df" stroke-width="1.5" stroke-linecap="round" /><line x1="855" y1="539" x2="919" y2="539" stroke="#c7d4df" stroke-width="1.5" stroke-linecap="round" /><circle cx="886" cy="504" r="9" fill="#7b4b74" fill-opacity=".86" /><line x1="615" y1="157" x2="730" y2="350" stroke="#527da3" stroke-width="3" stroke-linecap="round" marker-end="url(#arrow-blue)" /><line x1="615" y1="297" x2="730" y2="350" stroke="#527da3" stroke-width="3" stroke-linecap="round" marker-end="url(#arrow-blue)" /><line x1="615" y1="437" x2="730" y2="350" stroke="#527da3" stroke-width="3" stroke-linecap="round" marker-end="url(#arrow-blue)" /><line x1="615" y1="577" x2="730" y2="350" stroke="#527da3" stroke-width="3" stroke-linecap="round" marker-end="url(#arrow-blue)" /><rect x="1130" y="250" width="325" height="200" rx="16" fill="#fff7e8" stroke="#e8c77d" stroke-width="2.5" /><text x="1292.5" y="292" text-anchor="middle" font-family="Source Han Sans SC, Microsoft YaHei, sans-serif" font-size="22" font-weight="700" fill="#8a5f19">融合估计结果</text><text x="1292.5" y="326" text-anchor="middle" font-family="Source Han Sans SC, Microsoft YaHei, sans-serif" font-size="15" font-weight="400" fill="#486581">平均 · 鲁棒权重 · 选择
联合重建</text><line x1="1260" y1="360" x2="1260" y2="424" stroke="#c7d4df" stroke-width="1.5" stroke-linecap="round" /><line x1="1260" y1="360" x2="1324" y2="360" stroke="#c7d4df" stroke-width="1.5" stroke-linecap="round" /><line x1="1276" y1="360" x2="1276" y2="424" stroke="#c7d4df" stroke-width="1.5" stroke-linecap="round" /><line x1="1260" y1="376" x2="1324" y2="376" stroke="#c7d4df" stroke-width="1.5" stroke-linecap="round" /><line x1="1292" y1="360" x2="1292" y2="424" stroke="#c7d4df" stroke-width="1.5" stroke-linecap="round" /><line x1="1260" y1="392" x2="1324" y2="392" stroke="#c7d4df" stroke-width="1.5" stroke-linecap="round" /><line x1="1308" y1="360" x2="1308" y2="424" stroke="#c7d4df" stroke-width="1.5" stroke-linecap="round" /><line x1="1260" y1="408" x2="1324" y2="408" stroke="#c7d4df" stroke-width="1.5" stroke-linecap="round" /><line x1="1324" y1="360" x2="1324" y2="424" stroke="#c7d4df" stroke-width="1.5" stroke-linecap="round" /><line x1="1260" y1="424" x2="1324" y2="424" stroke="#c7d4df" stroke-width="1.5" stroke-linecap="round" /><circle cx="1291" cy="389" r="9" fill="#c58a2d" fill-opacity=".86" /><line x1="1030" y1="350" x2="1115" y2="350" stroke="#c58a2d" stroke-width="4" stroke-linecap="round" marker-end="url(#arrow-gold)" /><rect x="165" y="650" width="1170" height="78" rx="16" fill="#eef5fb" stroke="#a8c8e0" stroke-width="2.5" /><text x="750.0" y="692" text-anchor="middle" font-family="Source Han Sans SC, Microsoft YaHei, sans-serif" font-size="19" font-weight="700" fill="#285b7a">yᵣ = Dᵣ Hᵣ Wᵣ x + nᵣ：先说明各帧如何形成，才知道该怎样对齐和融合</text><text x="750.0" y="726" text-anchor="middle" font-family="Source Han Sans SC, Microsoft YaHei, sans-serif" font-size="15" font-weight="400" fill="#486581">若主体、焦点、曝光或滚动快门改变，帧间差异不能全部塞进同一个平移量</text></svg>