<?xml version='1.0' encoding='utf-8'?>
<svg xmlns="http://www.w3.org/2000/svg" width="1500" height="700" viewBox="0 0 1500 700" role="img" aria-label="信号相关噪声预算与光子转移曲线"><defs><marker id="arrow-blue" markerWidth="10" markerHeight="8" refX="9" refY="4" orient="auto" markerUnits="strokeWidth"><path d="M 0 0 L 10 4 L 0 8 z" fill="#3b82b5" /></marker><marker id="arrow-dark" markerWidth="10" markerHeight="8" refX="9" refY="4" orient="auto" markerUnits="strokeWidth"><path d="M 0 0 L 10 4 L 0 8 z" fill="#334e68" /></marker><marker id="arrow-red" markerWidth="10" markerHeight="8" refX="9" refY="4" orient="auto" markerUnits="strokeWidth"><path d="M 0 0 L 10 4 L 0 8 z" fill="#c85b73" /></marker><marker id="arrow-green" markerWidth="10" markerHeight="8" refX="9" refY="4" orient="auto" markerUnits="strokeWidth"><path d="M 0 0 L 10 4 L 0 8 z" fill="#4d8c6a" /></marker><marker id="arrow-gold" markerWidth="10" markerHeight="8" refX="9" refY="4" orient="auto" markerUnits="strokeWidth"><path d="M 0 0 L 10 4 L 0 8 z" fill="#c58a2d" /></marker><marker id="arrow-purple" markerWidth="10" markerHeight="8" refX="9" refY="4" orient="auto" markerUnits="strokeWidth"><path d="M 0 0 L 10 4 L 0 8 z" fill="#7b4b74" /></marker></defs><rect width="1500" height="700" fill="#fbfdff" /><text x="750.0" y="43" text-anchor="middle" font-family="Source Han Sans SC, Microsoft YaHei, sans-serif" font-size="31" font-weight="700" fill="#102a43">噪声源按方差相加，主导项随信号区间改变</text><line x1="750" y1="82" x2="750" y2="625" stroke="#d7e0e7" stroke-width="2" stroke-linecap="round" /><text x="375" y="92" text-anchor="middle" font-family="Source Han Sans SC, Microsoft YaHei, sans-serif" font-size="24" font-weight="700" fill="#285b7a">输入电子尺度上的标准差</text><line x1="90" y1="545" x2="690" y2="545" stroke="#334e68" stroke-width="2" stroke-linecap="round" marker-end="url(#arrow-dark)" /><line x1="90" y1="545" x2="90" y2="145" stroke="#334e68" stroke-width="2" stroke-linecap="round" marker-end="url(#arrow-dark)" /><line x1="90.0" y1="145" x2="90.0" y2="545" stroke="#e0e7ec" stroke-width="1.2" stroke-linecap="round" /><text x="90.0" y="577" text-anchor="middle" font-family="Source Han Sans SC, Microsoft YaHei, sans-serif" font-size="14" font-weight="400" fill="#627d98">10^-1</text><line x1="190.0" y1="145" x2="190.0" y2="545" stroke="#e0e7ec" stroke-width="1.2" stroke-linecap="round" /><text x="190.0" y="577" text-anchor="middle" font-family="Source Han Sans SC, Microsoft YaHei, sans-serif" font-size="14" font-weight="400" fill="#627d98">10^0</text><line x1="290.0" y1="145" x2="290.0" y2="545" stroke="#e0e7ec" stroke-width="1.2" stroke-linecap="round" /><text x="290.0" y="577" text-anchor="middle" font-family="Source Han Sans SC, Microsoft YaHei, sans-serif" font-size="14" font-weight="400" fill="#627d98">10^1</text><line x1="390.0" y1="145" x2="390.0" y2="545" stroke="#e0e7ec" stroke-width="1.2" stroke-linecap="round" /><text x="390.0" y="577" text-anchor="middle" font-family="Source Han Sans SC, Microsoft YaHei, sans-serif" font-size="14" font-weight="400" fill="#627d98">10^2</text><line x1="490.0" y1="145" x2="490.0" y2="545" stroke="#e0e7ec" stroke-width="1.2" stroke-linecap="round" /><text x="490.0" y="577" text-anchor="middle" font-family="Source Han Sans SC, Microsoft YaHei, sans-serif" font-size="14" font-weight="400" fill="#627d98">10^3</text><line x1="590.0" y1="145" x2="590.0" y2="545" stroke="#e0e7ec" stroke-width="1.2" stroke-linecap="round" /><text x="590.0" y="577" text-anchor="middle" font-family="Source Han Sans SC, Microsoft YaHei, sans-serif" font-size="14" font-weight="400" fill="#627d98">10^4</text><line x1="690.0" y1="145" x2="690.0" y2="545" stroke="#e0e7ec" stroke-width="1.2" stroke-linecap="round" /><text x="690.0" y="577" text-anchor="middle" font-family="Source Han Sans SC, Microsoft YaHei, sans-serif" font-size="14" font-weight="400" fill="#627d98">10^5</text><line x1="90" y1="545.0" x2="690" y2="545.0" stroke="#e0e7ec" stroke-width="1.2" stroke-linecap="round" /><text x="75" y="550.0" text-anchor="end" font-family="Source Han Sans SC, Microsoft YaHei, sans-serif" font-size="14" font-weight="400" fill="#627d98">10^-1</text><line x1="90" y1="445.0" x2="690" y2="445.0" stroke="#e0e7ec" stroke-width="1.2" stroke-linecap="round" /><text x="75" y="450.0" text-anchor="end" font-family="Source Han Sans SC, Microsoft YaHei, sans-serif" font-size="14" font-weight="400" fill="#627d98">10^0</text><line x1="90" y1="345.0" x2="690" y2="345.0" stroke="#e0e7ec" stroke-width="1.2" stroke-linecap="round" /><text x="75" y="350.0" text-anchor="end" font-family="Source Han Sans SC, Microsoft YaHei, sans-serif" font-size="14" font-weight="400" fill="#627d98">10^1</text><line x1="90" y1="245.0" x2="690" y2="245.0" stroke="#e0e7ec" stroke-width="1.2" stroke-linecap="round" /><text x="75" y="250.0" text-anchor="end" font-family="Source Han Sans SC, Microsoft YaHei, sans-serif" font-size="14" font-weight="400" fill="#627d98">10^2</text><line x1="90" y1="145.0" x2="690" y2="145.0" stroke="#e0e7ec" stroke-width="1.2" stroke-linecap="round" /><text x="75" y="150.0" text-anchor="end" font-family="Source Han Sans SC, Microsoft YaHei, sans-serif" font-size="14" font-weight="400" fill="#627d98">10^3</text><polyline points="90.00,414.90 92.50,414.90 95.00,414.90 97.50,414.90 100.00,414.90 102.50,414.90 105.00,414.90 107.50,414.90 110.00,414.90 112.50,414.90 115.00,414.90 117.50,414.90 120.00,414.90 122.50,414.90 125.00,414.90 127.50,414.90 130.00,414.90 132.50,414.90 135.00,414.90 137.50,414.90 140.00,414.90 142.50,414.90 145.00,414.90 147.50,414.90 150.00,414.90 152.50,414.90 155.00,414.90 157.50,414.90 160.00,414.90 162.50,414.90 165.00,414.90 167.50,414.90 170.00,414.90 172.50,414.90 175.00,414.90 177.50,414.90 180.00,414.90 182.50,414.90 185.00,414.90 187.50,414.90 190.00,414.90 192.50,414.90 195.00,414.90 197.50,414.90 200.00,414.90 202.50,414.90 205.00,414.90 207.50,414.90 210.00,414.90 212.50,414.90 215.00,414.90 217.50,414.90 220.00,414.90 222.50,414.90 225.00,414.90 227.50,414.90 230.00,414.90 232.50,414.90 235.00,414.90 237.50,414.90 240.00,414.90 242.50,414.90 245.00,414.90 247.50,414.90 250.00,414.90 252.50,414.90 255.00,414.90 257.50,414.90 260.00,414.90 262.50,414.90 265.00,414.90 267.50,414.90 270.00,414.90 272.50,414.90 275.00,414.90 277.50,414.90 280.00,414.90 282.50,414.90 285.00,414.90 287.50,414.90 290.00,414.90 292.50,414.90 295.00,414.90 297.50,414.90 300.00,414.90 302.50,414.90 305.00,414.90 307.50,414.90 310.00,414.90 312.50,414.90 315.00,414.90 317.50,414.90 320.00,414.90 322.50,414.90 325.00,414.90 327.50,414.90 330.00,414.90 332.50,414.90 335.00,414.90 337.50,414.90 340.00,414.90 342.50,414.90 345.00,414.90 347.50,414.90 350.00,414.90 352.50,414.90 355.00,414.90 357.50,414.90 360.00,414.90 362.50,414.90 365.00,414.90 367.50,414.90 370.00,414.90 372.50,414.90 375.00,414.90 377.50,414.90 380.00,414.90 382.50,414.90 385.00,414.90 387.50,414.90 390.00,414.90 392.50,414.90 395.00,414.90 397.50,414.90 400.00,414.90 402.50,414.90 405.00,414.90 407.50,414.90 410.00,414.90 412.50,414.90 415.00,414.90 417.50,414.90 420.00,414.90 422.50,414.90 425.00,414.90 427.50,414.90 430.00,414.90 432.50,414.90 435.00,414.90 437.50,414.90 440.00,414.90 442.50,414.90 445.00,414.90 447.50,414.90 450.00,414.90 452.50,414.90 455.00,414.90 457.50,414.90 460.00,414.90 462.50,414.90 465.00,414.90 467.50,414.90 470.00,414.90 472.50,414.90 475.00,414.90 477.50,414.90 480.00,414.90 482.50,414.90 485.00,414.90 487.50,414.90 490.00,414.90 492.50,414.90 495.00,414.90 497.50,414.90 500.00,414.90 502.50,414.90 505.00,414.90 507.50,414.90 510.00,414.90 512.50,414.90 515.00,414.90 517.50,414.90 520.00,414.90 522.50,414.90 525.00,414.90 527.50,414.90 530.00,414.90 532.50,414.90 535.00,414.90 537.50,414.90 540.00,414.90 542.50,414.90 545.00,414.90 547.50,414.90 550.00,414.90 552.50,414.90 555.00,414.90 557.50,414.90 560.00,414.90 562.50,414.90 565.00,414.90 567.50,414.90 570.00,414.90 572.50,414.90 575.00,414.90 577.50,414.90 580.00,414.90 582.50,414.90 585.00,414.90 587.50,414.90 590.00,414.90 592.50,414.90 595.00,414.90 597.50,414.90 600.00,414.90 602.50,414.90 605.00,414.90 607.50,414.90 610.00,414.90 612.50,414.90 615.00,414.90 617.50,414.90 620.00,414.90 622.50,414.90 625.00,414.90 627.50,414.90 630.00,414.90 632.50,414.90 635.00,414.90 637.50,414.90 640.00,414.90 642.50,414.90 645.00,414.90 647.50,414.90 650.00,414.90 652.50,414.90 655.00,414.90 657.50,414.90 660.00,414.90 662.50,414.90 665.00,414.90 667.50,414.90 670.00,414.90 672.50,414.90 675.00,414.90 677.50,414.90 680.00,414.90 682.50,414.90 685.00,414.90 687.50,414.90 690.00,414.90" stroke="#7b4b74" stroke-width="3" fill="none" stroke-linejoin="round" stroke-linecap="round" stroke-dasharray="10 7" /><polyline points="90.00,495.00 92.50,493.75 95.00,492.50 97.50,491.25 100.00,490.00 102.50,488.75 105.00,487.50 107.50,486.25 110.00,485.00 112.50,483.75 115.00,482.50 117.50,481.25 120.00,480.00 122.50,478.75 125.00,477.50 127.50,476.25 130.00,475.00 132.50,473.75 135.00,472.50 137.50,471.25 140.00,470.00 142.50,468.75 145.00,467.50 147.50,466.25 150.00,465.00 152.50,463.75 155.00,462.50 157.50,461.25 160.00,460.00 162.50,458.75 165.00,457.50 167.50,456.25 170.00,455.00 172.50,453.75 175.00,452.50 177.50,451.25 180.00,450.00 182.50,448.75 185.00,447.50 187.50,446.25 190.00,445.00 192.50,443.75 195.00,442.50 197.50,441.25 200.00,440.00 202.50,438.75 205.00,437.50 207.50,436.25 210.00,435.00 212.50,433.75 215.00,432.50 217.50,431.25 220.00,430.00 222.50,428.75 225.00,427.50 227.50,426.25 230.00,425.00 232.50,423.75 235.00,422.50 237.50,421.25 240.00,420.00 242.50,418.75 245.00,417.50 247.50,416.25 250.00,415.00 252.50,413.75 255.00,412.50 257.50,411.25 260.00,410.00 262.50,408.75 265.00,407.50 267.50,406.25 270.00,405.00 272.50,403.75 275.00,402.50 277.50,401.25 280.00,400.00 282.50,398.75 285.00,397.50 287.50,396.25 290.00,395.00 292.50,393.75 295.00,392.50 297.50,391.25 300.00,390.00 302.50,388.75 305.00,387.50 307.50,386.25 310.00,385.00 312.50,383.75 315.00,382.50 317.50,381.25 320.00,380.00 322.50,378.75 325.00,377.50 327.50,376.25 330.00,375.00 332.50,373.75 335.00,372.50 337.50,371.25 340.00,370.00 342.50,368.75 345.00,367.50 347.50,366.25 350.00,365.00 352.50,363.75 355.00,362.50 357.50,361.25 360.00,360.00 362.50,358.75 365.00,357.50 367.50,356.25 370.00,355.00 372.50,353.75 375.00,352.50 377.50,351.25 380.00,350.00 382.50,348.75 385.00,347.50 387.50,346.25 390.00,345.00 392.50,343.75 395.00,342.50 397.50,341.25 400.00,340.00 402.50,338.75 405.00,337.50 407.50,336.25 410.00,335.00 412.50,333.75 415.00,332.50 417.50,331.25 420.00,330.00 422.50,328.75 425.00,327.50 427.50,326.25 430.00,325.00 432.50,323.75 435.00,322.50 437.50,321.25 440.00,320.00 442.50,318.75 445.00,317.50 447.50,316.25 450.00,315.00 452.50,313.75 455.00,312.50 457.50,311.25 460.00,310.00 462.50,308.75 465.00,307.50 467.50,306.25 470.00,305.00 472.50,303.75 475.00,302.50 477.50,301.25 480.00,300.00 482.50,298.75 485.00,297.50 487.50,296.25 490.00,295.00 492.50,293.75 495.00,292.50 497.50,291.25 500.00,290.00 502.50,288.75 505.00,287.50 507.50,286.25 510.00,285.00 512.50,283.75 515.00,282.50 517.50,281.25 520.00,280.00 522.50,278.75 525.00,277.50 527.50,276.25 530.00,275.00 532.50,273.75 535.00,272.50 537.50,271.25 540.00,270.00 542.50,268.75 545.00,267.50 547.50,266.25 550.00,265.00 552.50,263.75 555.00,262.50 557.50,261.25 560.00,260.00 562.50,258.75 565.00,257.50 567.50,256.25 570.00,255.00 572.50,253.75 575.00,252.50 577.50,251.25 580.00,250.00 582.50,248.75 585.00,247.50 587.50,246.25 590.00,245.00 592.50,243.75 595.00,242.50 597.50,241.25 600.00,240.00 602.50,238.75 605.00,237.50 607.50,236.25 610.00,235.00 612.50,233.75 615.00,232.50 617.50,231.25 620.00,230.00 622.50,228.75 625.00,227.50 627.50,226.25 630.00,225.00 632.50,223.75 635.00,222.50 637.50,221.25 640.00,220.00 642.50,218.75 645.00,217.50 647.50,216.25 650.00,215.00 652.50,213.75 655.00,212.50 657.50,211.25 660.00,210.00 662.50,208.75 665.00,207.50 667.50,206.25 670.00,205.00 672.50,203.75 675.00,202.50 677.50,201.25 680.00,200.00 682.50,198.75 685.00,197.50 687.50,196.25 690.00,195.00" stroke="#3b82b5" stroke-width="3" fill="none" stroke-linejoin="round" stroke-linecap="round" /><polyline points="90.00,397.29 92.50,397.29 95.00,397.29 97.50,397.29 100.00,397.29 102.50,397.29 105.00,397.29 107.50,397.29 110.00,397.29 112.50,397.29 115.00,397.29 117.50,397.29 120.00,397.29 122.50,397.29 125.00,397.29 127.50,397.29 130.00,397.29 132.50,397.29 135.00,397.29 137.50,397.29 140.00,397.29 142.50,397.29 145.00,397.29 147.50,397.29 150.00,397.29 152.50,397.29 155.00,397.29 157.50,397.29 160.00,397.29 162.50,397.29 165.00,397.29 167.50,397.29 170.00,397.29 172.50,397.29 175.00,397.29 177.50,397.29 180.00,397.29 182.50,397.29 185.00,397.29 187.50,397.29 190.00,397.29 192.50,397.29 195.00,397.29 197.50,397.29 200.00,397.29 202.50,397.29 205.00,397.29 207.50,397.29 210.00,397.29 212.50,397.29 215.00,397.29 217.50,397.29 220.00,397.29 222.50,397.29 225.00,397.29 227.50,397.29 230.00,397.29 232.50,397.29 235.00,397.29 237.50,397.29 240.00,397.29 242.50,397.29 245.00,397.29 247.50,397.29 250.00,397.29 252.50,397.29 255.00,397.29 257.50,397.29 260.00,397.29 262.50,397.29 265.00,397.29 267.50,397.29 270.00,397.29 272.50,397.29 275.00,397.29 277.50,397.29 280.00,397.29 282.50,397.29 285.00,397.29 287.50,397.29 290.00,397.29 292.50,397.29 295.00,397.29 297.50,397.29 300.00,397.29 302.50,397.29 305.00,397.29 307.50,397.29 310.00,397.29 312.50,397.29 315.00,397.29 317.50,397.29 320.00,397.29 322.50,397.29 325.00,397.29 327.50,397.29 330.00,397.29 332.50,397.29 335.00,397.29 337.50,397.29 340.00,397.29 342.50,397.29 345.00,397.29 347.50,397.29 350.00,397.29 352.50,397.29 355.00,397.29 357.50,397.29 360.00,397.29 362.50,397.29 365.00,397.29 367.50,397.29 370.00,397.29 372.50,397.29 375.00,397.29 377.50,397.29 380.00,397.29 382.50,397.29 385.00,397.29 387.50,397.29 390.00,397.29 392.50,397.29 395.00,397.29 397.50,397.29 400.00,397.29 402.50,397.29 405.00,397.29 407.50,397.29 410.00,397.29 412.50,397.29 415.00,397.29 417.50,397.29 420.00,397.29 422.50,397.29 425.00,397.29 427.50,397.29 430.00,397.29 432.50,397.29 435.00,397.29 437.50,397.29 440.00,397.29 442.50,397.29 445.00,397.29 447.50,397.29 450.00,397.29 452.50,397.29 455.00,397.29 457.50,397.29 460.00,397.29 462.50,397.29 465.00,397.29 467.50,397.29 470.00,397.29 472.50,397.29 475.00,397.29 477.50,397.29 480.00,397.29 482.50,397.29 485.00,397.29 487.50,397.29 490.00,397.29 492.50,397.29 495.00,397.29 497.50,397.29 500.00,397.29 502.50,397.29 505.00,397.29 507.50,397.29 510.00,397.29 512.50,397.29 515.00,397.29 517.50,397.29 520.00,397.29 522.50,397.29 525.00,397.29 527.50,397.29 530.00,397.29 532.50,397.29 535.00,397.29 537.50,397.29 540.00,397.29 542.50,397.29 545.00,397.29 547.50,397.29 550.00,397.29 552.50,397.29 555.00,397.29 557.50,397.29 560.00,397.29 562.50,397.29 565.00,397.29 567.50,397.29 570.00,397.29 572.50,397.29 575.00,397.29 577.50,397.29 580.00,397.29 582.50,397.29 585.00,397.29 587.50,397.29 590.00,397.29 592.50,397.29 595.00,397.29 597.50,397.29 600.00,397.29 602.50,397.29 605.00,397.29 607.50,397.29 610.00,397.29 612.50,397.29 615.00,397.29 617.50,397.29 620.00,397.29 622.50,397.29 625.00,397.29 627.50,397.29 630.00,397.29 632.50,397.29 635.00,397.29 637.50,397.29 640.00,397.29 642.50,397.29 645.00,397.29 647.50,397.29 650.00,397.29 652.50,397.29 655.00,397.29 657.50,397.29 660.00,397.29 662.50,397.29 665.00,397.29 667.50,397.29 670.00,397.29 672.50,397.29 675.00,397.29 677.50,397.29 680.00,397.29 682.50,397.29 685.00,397.29 687.50,397.29 690.00,397.29" stroke="#c58a2d" stroke-width="3" fill="none" stroke-linejoin="round" stroke-linecap="round" stroke-dasharray="5 6" /><polyline points="90.00,545.00 92.50,545.00 95.00,545.00 97.50,545.00 100.00,545.00 102.50,545.00 105.00,545.00 107.50,545.00 110.00,545.00 112.50,545.00 115.00,545.00 117.50,545.00 120.00,545.00 122.50,545.00 125.00,545.00 127.50,545.00 130.00,545.00 132.50,545.00 135.00,545.00 137.50,545.00 140.00,545.00 142.50,545.00 145.00,545.00 147.50,545.00 150.00,545.00 152.50,545.00 155.00,545.00 157.50,545.00 160.00,545.00 162.50,545.00 165.00,545.00 167.50,545.00 170.00,545.00 172.50,545.00 175.00,545.00 177.50,545.00 180.00,545.00 182.50,545.00 185.00,545.00 187.50,545.00 190.00,545.00 192.50,545.00 195.00,545.00 197.50,545.00 200.00,545.00 202.50,545.00 205.00,545.00 207.50,545.00 210.00,545.00 212.50,545.00 215.00,545.00 217.50,545.00 220.00,545.00 222.50,545.00 225.00,545.00 227.50,545.00 230.00,545.00 232.50,545.00 235.00,545.00 237.50,545.00 240.00,545.00 242.50,545.00 245.00,545.00 247.50,545.00 250.00,545.00 252.50,545.00 255.00,545.00 257.50,545.00 260.00,545.00 262.50,545.00 265.00,545.00 267.50,545.00 270.00,545.00 272.50,545.00 275.00,545.00 277.50,545.00 280.00,545.00 282.50,545.00 285.00,545.00 287.50,545.00 290.00,545.00 292.50,545.00 295.00,545.00 297.50,545.00 300.00,545.00 302.50,545.00 305.00,545.00 307.50,545.00 310.00,545.00 312.50,544.68 315.00,542.18 317.50,539.68 320.00,537.18 322.50,534.68 325.00,532.18 327.50,529.68 330.00,527.18 332.50,524.68 335.00,522.18 337.50,519.68 340.00,517.18 342.50,514.68 345.00,512.18 347.50,509.68 350.00,507.18 352.50,504.68 355.00,502.18 357.50,499.68 360.00,497.18 362.50,494.68 365.00,492.18 367.50,489.68 370.00,487.18 372.50,484.68 375.00,482.18 377.50,479.68 380.00,477.18 382.50,474.68 385.00,472.18 387.50,469.68 390.00,467.18 392.50,464.68 395.00,462.18 397.50,459.68 400.00,457.18 402.50,454.68 405.00,452.18 407.50,449.68 410.00,447.18 412.50,444.68 415.00,442.18 417.50,439.68 420.00,437.18 422.50,434.68 425.00,432.18 427.50,429.68 430.00,427.18 432.50,424.68 435.00,422.18 437.50,419.68 440.00,417.18 442.50,414.68 445.00,412.18 447.50,409.68 450.00,407.18 452.50,404.68 455.00,402.18 457.50,399.68 460.00,397.18 462.50,394.68 465.00,392.18 467.50,389.68 470.00,387.18 472.50,384.68 475.00,382.18 477.50,379.68 480.00,377.18 482.50,374.68 485.00,372.18 487.50,369.68 490.00,367.18 492.50,364.68 495.00,362.18 497.50,359.68 500.00,357.18 502.50,354.68 505.00,352.18 507.50,349.68 510.00,347.18 512.50,344.68 515.00,342.18 517.50,339.68 520.00,337.18 522.50,334.68 525.00,332.18 527.50,329.68 530.00,327.18 532.50,324.68 535.00,322.18 537.50,319.68 540.00,317.18 542.50,314.68 545.00,312.18 547.50,309.68 550.00,307.18 552.50,304.68 555.00,302.18 557.50,299.68 560.00,297.18 562.50,294.68 565.00,292.18 567.50,289.68 570.00,287.18 572.50,284.68 575.00,282.18 577.50,279.68 580.00,277.18 582.50,274.68 585.00,272.18 587.50,269.68 590.00,267.18 592.50,264.68 595.00,262.18 597.50,259.68 600.00,257.18 602.50,254.68 605.00,252.18 607.50,249.68 610.00,247.18 612.50,244.68 615.00,242.18 617.50,239.68 620.00,237.18 622.50,234.68 625.00,232.18 627.50,229.68 630.00,227.18 632.50,224.68 635.00,222.18 637.50,219.68 640.00,217.18 642.50,214.68 645.00,212.18 647.50,209.68 650.00,207.18 652.50,204.68 655.00,202.18 657.50,199.68 660.00,197.18 662.50,194.68 665.00,192.18 667.50,189.68 670.00,187.18 672.50,184.68 675.00,182.18 677.50,179.68 680.00,177.18 682.50,174.68 685.00,172.18 687.50,169.68 690.00,167.18" stroke="#c85b73" stroke-width="3" fill="none" stroke-linejoin="round" stroke-linecap="round" stroke-dasharray="12 6" /><polyline points="90.00,389.14 92.50,389.13 95.00,389.12 97.50,389.11 100.00,389.09 102.50,389.08 105.00,389.07 107.50,389.05 110.00,389.04 112.50,389.02 115.00,389.01 117.50,388.99 120.00,388.97 122.50,388.95 125.00,388.93 127.50,388.91 130.00,388.89 132.50,388.86 135.00,388.84 137.50,388.81 140.00,388.78 142.50,388.75 145.00,388.72 147.50,388.68 150.00,388.65 152.50,388.61 155.00,388.57 157.50,388.53 160.00,388.48 162.50,388.43 165.00,388.38 167.50,388.33 170.00,388.27 172.50,388.21 175.00,388.15 177.50,388.09 180.00,388.01 182.50,387.94 185.00,387.86 187.50,387.78 190.00,387.69 192.50,387.60 195.00,387.51 197.50,387.40 200.00,387.30 202.50,387.18 205.00,387.06 207.50,386.94 210.00,386.80 212.50,386.67 215.00,386.52 217.50,386.36 220.00,386.20 222.50,386.03 225.00,385.85 227.50,385.66 230.00,385.47 232.50,385.26 235.00,385.04 237.50,384.81 240.00,384.57 242.50,384.32 245.00,384.06 247.50,383.79 250.00,383.50 252.50,383.20 255.00,382.89 257.50,382.56 260.00,382.22 262.50,381.87 265.00,381.50 267.50,381.11 270.00,380.71 272.50,380.29 275.00,379.86 277.50,379.41 280.00,378.95 282.50,378.46 285.00,377.96 287.50,377.45 290.00,376.91 292.50,376.36 295.00,375.79 297.50,375.20 300.00,374.59 302.50,373.97 305.00,373.33 307.50,372.67 310.00,371.99 312.50,371.29 315.00,370.58 317.50,369.85 320.00,369.10 322.50,368.33 325.00,367.55 327.50,366.75 330.00,365.93 332.50,365.10 335.00,364.25 337.50,363.38 340.00,362.50 342.50,361.61 345.00,360.70 347.50,359.78 350.00,358.84 352.50,357.89 355.00,356.93 357.50,355.95 360.00,354.96 362.50,353.96 365.00,352.95 367.50,351.93 370.00,350.89 372.50,349.85 375.00,348.79 377.50,347.73 380.00,346.66 382.50,345.57 385.00,344.48 387.50,343.38 390.00,342.28 392.50,341.16 395.00,340.04 397.50,338.91 400.00,337.78 402.50,336.64 405.00,335.49 407.50,334.33 410.00,333.17 412.50,332.01 415.00,330.84 417.50,329.66 420.00,328.48 422.50,327.30 425.00,326.11 427.50,324.92 430.00,323.72 432.50,322.52 435.00,321.31 437.50,320.10 440.00,318.89 442.50,317.67 445.00,316.45 447.50,315.23 450.00,314.00 452.50,312.77 455.00,311.54 457.50,310.30 460.00,309.07 462.50,307.82 465.00,306.58 467.50,305.33 470.00,304.08 472.50,302.83 475.00,301.57 477.50,300.31 480.00,299.04 482.50,297.78 485.00,296.51 487.50,295.24 490.00,293.96 492.50,292.68 495.00,291.40 497.50,290.11 500.00,288.82 502.50,287.53 505.00,286.23 507.50,284.93 510.00,283.63 512.50,282.32 515.00,281.00 517.50,279.69 520.00,278.36 522.50,277.03 525.00,275.70 527.50,274.36 530.00,273.02 532.50,271.67 535.00,270.31 537.50,268.95 540.00,267.58 542.50,266.20 545.00,264.82 547.50,263.43 550.00,262.03 552.50,260.62 555.00,259.21 557.50,257.78 560.00,256.35 562.50,254.91 565.00,253.46 567.50,251.99 570.00,250.52 572.50,249.03 575.00,247.54 577.50,246.03 580.00,244.51 582.50,242.98 585.00,241.43 587.50,239.87 590.00,238.30 592.50,236.72 595.00,235.11 597.50,233.50 600.00,231.87 602.50,230.22 605.00,228.56 607.50,226.88 610.00,225.19 612.50,223.47 615.00,221.75 617.50,220.00 620.00,218.24 622.50,216.46 625.00,214.66 627.50,212.84 630.00,211.01 632.50,209.16 635.00,207.29 637.50,205.40 640.00,203.49 642.50,201.57 645.00,199.63 647.50,197.67 650.00,195.69 652.50,193.69 655.00,191.68 657.50,189.65 660.00,187.61 662.50,185.54 665.00,183.47 667.50,181.37 670.00,179.26 672.50,177.14 675.00,175.00 677.50,172.84 680.00,170.67 682.50,168.49 685.00,166.29 687.50,164.08 690.00,161.86" stroke="#4d8c6a" stroke-width="4" fill="none" stroke-linejoin="round" stroke-linecap="round" /><text x="550" y="208" text-anchor="middle" font-family="Source Han Sans SC, Microsoft YaHei, sans-serif" font-size="17" font-weight="700" fill="#397456">总标准差</text><text x="520" y="300" text-anchor="middle" font-family="Source Han Sans SC, Microsoft YaHei, sans-serif" font-size="17" font-weight="700" fill="#285b7a">散粒</text><text x="470" y="445" text-anchor="middle" font-family="Source Han Sans SC, Microsoft YaHei, sans-serif" font-size="17" font-weight="700" fill="#7b4b74">读出/暗电流</text><text x="610" y="390" text-anchor="middle" font-family="Source Han Sans SC, Microsoft YaHei, sans-serif" font-size="17" font-weight="700" fill="#a24862">PRNU</text><text x="375" y="600" text-anchor="middle" font-family="Source Han Sans SC, Microsoft YaHei, sans-serif" font-size="18" font-weight="400" fill="#627d98">低信号：读出主导；中信号：散粒主导；高信号空间比较：PRNU 可主导</text><text x="1125" y="92" text-anchor="middle" font-family="Source Han Sans SC, Microsoft YaHei, sans-serif" font-size="24" font-weight="700" fill="#397456">均值—方差（光子转移）</text><line x1="830" y1="545" x2="1410" y2="545" stroke="#334e68" stroke-width="2" stroke-linecap="round" marker-end="url(#arrow-dark)" /><line x1="830" y1="545" x2="830" y2="145" stroke="#334e68" stroke-width="2" stroke-linecap="round" marker-end="url(#arrow-dark)" /><line x1="830.0" y1="145" x2="830.0" y2="545" stroke="#e0e7ec" stroke-width="1.2" stroke-linecap="round" /><text x="830.0" y="577" text-anchor="middle" font-family="Source Han Sans SC, Microsoft YaHei, sans-serif" font-size="14" font-weight="400" fill="#627d98">10^0</text><line x1="830" y1="545.0" x2="1410" y2="545.0" stroke="#e0e7ec" stroke-width="1.2" stroke-linecap="round" /><line x1="946.0" y1="145" x2="946.0" y2="545" stroke="#e0e7ec" stroke-width="1.2" stroke-linecap="round" /><text x="946.0" y="577" text-anchor="middle" font-family="Source Han Sans SC, Microsoft YaHei, sans-serif" font-size="14" font-weight="400" fill="#627d98">10^1</text><line x1="830" y1="478.3333333333333" x2="1410" y2="478.3333333333333" stroke="#e0e7ec" stroke-width="1.2" stroke-linecap="round" /><line x1="1062.0" y1="145" x2="1062.0" y2="545" stroke="#e0e7ec" stroke-width="1.2" stroke-linecap="round" /><text x="1062.0" y="577" text-anchor="middle" font-family="Source Han Sans SC, Microsoft YaHei, sans-serif" font-size="14" font-weight="400" fill="#627d98">10^2</text><line x1="830" y1="411.66666666666663" x2="1410" y2="411.66666666666663" stroke="#e0e7ec" stroke-width="1.2" stroke-linecap="round" /><line x1="1178.0" y1="145" x2="1178.0" y2="545" stroke="#e0e7ec" stroke-width="1.2" stroke-linecap="round" /><text x="1178.0" y="577" text-anchor="middle" font-family="Source Han Sans SC, Microsoft YaHei, sans-serif" font-size="14" font-weight="400" fill="#627d98">10^3</text><line x1="830" y1="345.0" x2="1410" y2="345.0" stroke="#e0e7ec" stroke-width="1.2" stroke-linecap="round" /><line x1="1294.0" y1="145" x2="1294.0" y2="545" stroke="#e0e7ec" stroke-width="1.2" stroke-linecap="round" /><text x="1294.0" y="577" text-anchor="middle" font-family="Source Han Sans SC, Microsoft YaHei, sans-serif" font-size="14" font-weight="400" fill="#627d98">10^4</text><line x1="830" y1="278.3333333333333" x2="1410" y2="278.3333333333333" stroke="#e0e7ec" stroke-width="1.2" stroke-linecap="round" /><line x1="1410.0" y1="145" x2="1410.0" y2="545" stroke="#e0e7ec" stroke-width="1.2" stroke-linecap="round" /><text x="1410.0" y="577" text-anchor="middle" font-family="Source Han Sans SC, Microsoft YaHei, sans-serif" font-size="14" font-weight="400" fill="#627d98">10^5</text><polyline points="830.00,498.40 832.42,498.12 834.83,497.82 837.25,497.52 839.67,497.20 842.08,496.87 844.50,496.53 846.92,496.18 849.33,495.81 851.75,495.43 854.17,495.04 856.58,494.63 859.00,494.21 861.42,493.78 863.83,493.33 866.25,492.87 868.67,492.39 871.08,491.89 873.50,491.38 875.92,490.86 878.33,490.32 880.75,489.76 883.17,489.19 885.58,488.60 888.00,488.00 890.42,487.38 892.83,486.74 895.25,486.08 897.67,485.41 900.08,484.72 902.50,484.02 904.92,483.30 907.33,482.56 909.75,481.81 912.17,481.04 914.58,480.25 917.00,479.44 919.42,478.63 921.83,477.79 924.25,476.94 926.67,476.07 929.08,475.19 931.50,474.29 933.92,473.38 936.33,472.45 938.75,471.51 941.17,470.55 943.58,469.58 946.00,468.59 948.42,467.59 950.83,466.58 953.25,465.56 955.67,464.52 958.08,463.47 960.50,462.40 962.92,461.33 965.33,460.24 967.75,459.15 970.17,458.04 972.58,456.92 975.00,455.79 977.42,454.65 979.83,453.51 982.25,452.35 984.67,451.18 987.08,450.00 989.50,448.82 991.92,447.63 994.33,446.43 996.75,445.22 999.17,444.00 1001.58,442.78 1004.00,441.55 1006.42,440.32 1008.83,439.07 1011.25,437.82 1013.67,436.57 1016.08,435.31 1018.50,434.04 1020.92,432.77 1023.33,431.50 1025.75,430.21 1028.17,428.93 1030.58,427.64 1033.00,426.34 1035.42,425.05 1037.83,423.74 1040.25,422.44 1042.67,421.13 1045.08,419.81 1047.50,418.50 1049.92,417.18 1052.33,415.85 1054.75,414.53 1057.17,413.20 1059.58,411.87 1062.00,410.53 1064.42,409.19 1066.83,407.86 1069.25,406.51 1071.67,405.17 1074.08,403.83 1076.50,402.48 1078.92,401.13 1081.33,399.78 1083.75,398.42 1086.17,397.07 1088.58,395.71 1091.00,394.36 1093.42,393.00 1095.83,391.64 1098.25,390.27 1100.67,388.91 1103.08,387.55 1105.50,386.18 1107.92,384.82 1110.33,383.45 1112.75,382.08 1115.17,380.71 1117.58,379.34 1120.00,377.97 1122.42,376.60 1124.83,375.22 1127.25,373.85 1129.67,372.48 1132.08,371.10 1134.50,369.73 1136.92,368.35 1139.33,366.97 1141.75,365.60 1144.17,364.22 1146.58,362.84 1149.00,361.46 1151.42,360.08 1153.83,358.70 1156.25,357.32 1158.67,355.94 1161.08,354.56 1163.50,353.18 1165.92,351.80 1168.33,350.42 1170.75,349.03 1173.17,347.65 1175.58,346.27 1178.00,344.88 1180.42,343.50 1182.83,342.12 1185.25,340.73 1187.67,339.35 1190.08,337.96 1192.50,336.58 1194.92,335.20 1197.33,333.81 1199.75,332.42 1202.17,331.04 1204.58,329.65 1207.00,328.27 1209.42,326.88 1211.83,325.50 1214.25,324.11 1216.67,322.72 1219.08,321.34 1221.50,319.95 1223.92,318.56 1226.33,317.18 1228.75,315.79 1231.17,314.40 1233.58,313.02 1236.00,311.63 1238.42,310.24 1240.83,308.86 1243.25,307.47 1245.67,306.08 1248.08,304.69 1250.50,303.31 1252.92,301.92 1255.33,300.53 1257.75,299.14 1260.17,297.76 1262.58,296.37 1265.00,294.98 1267.42,293.59 1269.83,292.20 1272.25,290.82 1274.67,289.43 1277.08,288.04 1279.50,286.65 1281.92,285.26 1284.33,283.87 1286.75,282.49 1289.17,281.10 1291.58,279.71 1294.00,278.32 1296.42,276.93 1298.83,275.55 1301.25,274.16 1303.67,272.77 1306.08,271.38 1308.50,269.99 1310.92,268.60 1313.33,267.21 1315.75,265.83 1318.17,264.44 1320.58,263.05 1323.00,261.66 1325.42,260.27 1327.83,258.88 1330.25,257.49 1332.67,256.11 1335.08,254.72 1337.50,253.33 1339.92,251.94 1342.33,250.55 1344.75,249.16 1347.17,247.77 1349.58,246.39 1352.00,245.00 1354.42,243.61 1356.83,242.22 1359.25,240.83 1361.67,239.44 1364.08,238.05 1366.50,236.66 1368.92,235.28 1371.33,233.89 1373.75,232.50 1376.17,231.11 1378.58,229.72 1381.00,228.33 1383.42,226.94 1385.83,225.55 1388.25,224.16 1390.67,222.78 1393.08,221.39 1395.50,220.00 1397.92,218.61 1400.33,217.22 1402.75,215.83 1405.17,214.44 1407.58,213.05 1410.00,211.67" stroke="#3b82b5" stroke-width="4" fill="none" stroke-linejoin="round" stroke-linecap="round" /><polyline points="830.00,498.40 832.42,498.12 834.83,497.82 837.25,497.52 839.67,497.20 842.08,496.87 844.50,496.53 846.92,496.18 849.33,495.81 851.75,495.43 854.17,495.04 856.58,494.63 859.00,494.21 861.42,493.78 863.83,493.33 866.25,492.87 868.67,492.39 871.08,491.89 873.50,491.38 875.92,490.86 878.33,490.32 880.75,489.76 883.17,489.19 885.58,488.60 888.00,488.00 890.42,487.37 892.83,486.74 895.25,486.08 897.67,485.41 900.08,484.72 902.50,484.02 904.92,483.30 907.33,482.56 909.75,481.80 912.17,481.03 914.58,480.25 917.00,479.44 919.42,478.62 921.83,477.79 924.25,476.93 926.67,476.07 929.08,475.18 931.50,474.28 933.92,473.37 936.33,472.44 938.75,471.50 941.17,470.54 943.58,469.57 946.00,468.58 948.42,467.58 950.83,466.57 953.25,465.55 955.67,464.51 958.08,463.46 960.50,462.39 962.92,461.32 965.33,460.23 967.75,459.13 970.17,458.03 972.58,456.91 975.00,455.78 977.42,454.64 979.83,453.49 982.25,452.33 984.67,451.16 987.08,449.98 989.50,448.80 991.92,447.61 994.33,446.40 996.75,445.19 999.17,443.98 1001.58,442.75 1004.00,441.52 1006.42,440.28 1008.83,439.04 1011.25,437.79 1013.67,436.53 1016.08,435.27 1018.50,434.00 1020.92,432.73 1023.33,431.45 1025.75,430.17 1028.17,428.88 1030.58,427.59 1033.00,426.29 1035.42,424.99 1037.83,423.68 1040.25,422.37 1042.67,421.06 1045.08,419.74 1047.50,418.42 1049.92,417.10 1052.33,415.77 1054.75,414.44 1057.17,413.11 1059.58,411.77 1062.00,410.43 1064.42,409.09 1066.83,407.74 1069.25,406.40 1071.67,405.05 1074.08,403.70 1076.50,402.34 1078.92,400.99 1081.33,399.63 1083.75,398.27 1086.17,396.91 1088.58,395.54 1091.00,394.18 1093.42,392.81 1095.83,391.44 1098.25,390.07 1100.67,388.69 1103.08,387.32 1105.50,385.94 1107.92,384.56 1110.33,383.18 1112.75,381.80 1115.17,380.42 1117.58,379.03 1120.00,377.65 1122.42,376.26 1124.83,374.87 1127.25,373.48 1129.67,372.08 1132.08,370.69 1134.50,369.29 1136.92,367.90 1139.33,366.50 1141.75,365.10 1144.17,363.70 1146.58,362.29 1149.00,360.89 1151.42,359.48 1153.83,358.07 1156.25,356.66 1158.67,355.24 1161.08,353.83 1163.50,352.41 1165.92,350.99 1168.33,349.57 1170.75,348.15 1173.17,346.72 1175.58,345.29 1178.00,343.86 1180.42,342.43 1182.83,341.00 1185.25,339.56 1187.67,338.12 1190.08,336.67 1192.50,335.23 1194.92,333.78 1197.33,332.32 1199.75,330.87 1202.17,329.41 1204.58,327.94 1207.00,326.48 1209.42,325.00 1211.83,323.53 1214.25,322.05 1216.67,320.57 1219.08,319.08 1221.50,317.58 1223.92,316.08 1226.33,314.58 1228.75,313.07 1231.17,311.56 1233.58,310.04 1236.00,308.51 1238.42,306.98 1240.83,305.44 1243.25,303.90 1245.67,302.34 1248.08,300.78 1250.50,299.22 1252.92,297.64 1255.33,296.06 1257.75,294.47 1260.17,292.87 1262.58,291.26 1265.00,289.65 1267.42,288.02 1269.83,286.38 1272.25,284.74 1274.67,283.08 1277.08,281.41 1279.50,279.74 1281.92,278.05 1284.33,276.35 1286.75,274.63 1289.17,272.91 1291.58,271.17 1294.00,269.42 1296.42,267.66 1298.83,265.88 1301.25,264.09 1303.67,262.29 1306.08,260.47 1308.50,258.64 1310.92,256.80 1313.33,254.93 1315.75,253.06 1318.17,251.17 1320.58,249.26 1323.00,247.34 1325.42,245.40 1327.83,243.44 1330.25,241.47 1332.67,239.49 1335.08,237.48 1337.50,235.46 1339.92,233.42 1342.33,231.37 1344.75,229.30 1347.17,227.22 1349.58,225.11 1352.00,222.99 1354.42,220.86 1356.83,218.70 1359.25,216.53 1361.67,214.35 1364.08,212.15 1366.50,209.93 1368.92,207.69 1371.33,205.44 1373.75,203.18 1376.17,200.90 1378.58,198.60 1381.00,196.29 1383.42,193.96 1385.83,191.62 1388.25,189.27 1390.67,186.90 1393.08,184.52 1395.50,182.12 1397.92,179.71 1400.33,177.29 1402.75,174.86 1405.17,172.41 1407.58,169.95 1410.00,167.48" stroke="#c85b73" stroke-width="4" fill="none" stroke-linejoin="round" stroke-linecap="round" stroke-dasharray="10 7" /><text x="1000" y="360" text-anchor="middle" font-family="Source Han Sans SC, Microsoft YaHei, sans-serif" font-size="17" font-weight="700" fill="#285b7a">斜率 1：散粒区</text><text x="1250" y="225" text-anchor="middle" font-family="Source Han Sans SC, Microsoft YaHei, sans-serif" font-size="17" font-weight="700" fill="#a24862">高信号上翘：PRNU</text><text x="850" y="510" text-anchor="start" font-family="Source Han Sans SC, Microsoft YaHei, sans-serif" font-size="16" font-weight="400" fill="#7b4b74">截距：读出方差</text><text x="1125" y="600" text-anchor="middle" font-family="Source Han Sans SC, Microsoft YaHei, sans-serif" font-size="18" font-weight="400" fill="#627d98">成对平场相减可去除稳定图样，估计时间方差</text></svg>