<?xml version='1.0' encoding='utf-8'?>
<svg xmlns="http://www.w3.org/2000/svg" width="1450" height="650" viewBox="0 0 1450 650" role="img" aria-label="像素从入射光子到存储电子的结构"><defs><marker id="arrow-blue" markerWidth="10" markerHeight="8" refX="9" refY="4" orient="auto" markerUnits="strokeWidth"><path d="M 0 0 L 10 4 L 0 8 z" fill="#3b82b5" /></marker><marker id="arrow-dark" markerWidth="10" markerHeight="8" refX="9" refY="4" orient="auto" markerUnits="strokeWidth"><path d="M 0 0 L 10 4 L 0 8 z" fill="#334e68" /></marker><marker id="arrow-red" markerWidth="10" markerHeight="8" refX="9" refY="4" orient="auto" markerUnits="strokeWidth"><path d="M 0 0 L 10 4 L 0 8 z" fill="#c85b73" /></marker><marker id="arrow-green" markerWidth="10" markerHeight="8" refX="9" refY="4" orient="auto" markerUnits="strokeWidth"><path d="M 0 0 L 10 4 L 0 8 z" fill="#4d8c6a" /></marker><marker id="arrow-gold" markerWidth="10" markerHeight="8" refX="9" refY="4" orient="auto" markerUnits="strokeWidth"><path d="M 0 0 L 10 4 L 0 8 z" fill="#c58a2d" /></marker></defs><rect width="1450" height="650" fill="#fbfdff" /><text x="725.0" y="43" text-anchor="middle" font-family="Source Han Sans SC, Microsoft YaHei, sans-serif" font-size="31" font-weight="700" fill="#102a43">像素首先是光子计数器，其次才是电压源</text><line x1="760" y1="82" x2="760" y2="570" stroke="#d7e0e7" stroke-width="2" stroke-linecap="round" /><text x="380" y="92" text-anchor="middle" font-family="Source Han Sans SC, Microsoft YaHei, sans-serif" font-size="23" font-weight="700" fill="#285b7a">光学堆栈把方向与波长路由到光电二极管</text><line x1="120" y1="135" x2="305.5" y2="275" stroke="#536fc5" stroke-width="3" stroke-linecap="round" marker-end="url(#arrow-blue)" /><circle cx="120" cy="130" r="7" fill="#536fc5" /><line x1="210" y1="135" x2="325.3" y2="275" stroke="#4d9f69" stroke-width="3" stroke-linecap="round" marker-end="url(#arrow-blue)" /><circle cx="210" cy="130" r="7" fill="#4d9f69" /><line x1="300" y1="135" x2="345.1" y2="275" stroke="#c85b73" stroke-width="3" stroke-linecap="round" marker-end="url(#arrow-blue)" /><circle cx="300" cy="130" r="7" fill="#c85b73" /><line x1="390" y1="135" x2="364.9" y2="275" stroke="#d5a33d" stroke-width="3" stroke-linecap="round" marker-end="url(#arrow-blue)" /><circle cx="390" cy="130" r="7" fill="#d5a33d" /><line x1="480" y1="135" x2="384.7" y2="275" stroke="#536fc5" stroke-width="3" stroke-linecap="round" marker-end="url(#arrow-blue)" /><circle cx="480" cy="130" r="7" fill="#536fc5" /><line x1="570" y1="135" x2="404.5" y2="275" stroke="#4d9f69" stroke-width="3" stroke-linecap="round" marker-end="url(#arrow-blue)" /><circle cx="570" cy="130" r="7" fill="#4d9f69" /><path d="M 205 245 Q 355 135 505 245 L 485 285 Q 355 205 225 285 Z" fill="#d9ecfb" stroke="#3b82b5" stroke-width="3" /><text x="355" y="250" text-anchor="middle" font-family="Source Han Sans SC, Microsoft YaHei, sans-serif" font-size="18" font-weight="700" fill="#285b7a">微透镜</text><rect x="205" y="292" width="300" height="55" fill="#d9efd8" stroke="#4d8c6a" stroke-width="3" /><text x="355" y="328" text-anchor="middle" font-family="Source Han Sans SC, Microsoft YaHei, sans-serif" font-size="18" font-weight="700" fill="#397456">彩色滤光片 / 光谱选择</text><rect x="165" y="365" width="380" height="155" rx="12" fill="#eaf4ff" stroke="#527da3" stroke-width="3" /><text x="355" y="402" text-anchor="middle" font-family="Source Han Sans SC, Microsoft YaHei, sans-serif" font-size="21" font-weight="700" fill="#285b7a">硅光电二极管</text><path d="M 260 430 Q 355 545 450 430" fill="none" stroke="#7b4b74" stroke-width="4" /><circle cx="305" cy="475" r="6" fill="#7b4b74" /><circle cx="325" cy="478" r="6" fill="#7b4b74" /><circle cx="345" cy="475" r="6" fill="#7b4b74" /><circle cx="365" cy="478" r="6" fill="#7b4b74" /><circle cx="385" cy="475" r="6" fill="#7b4b74" /><circle cx="405" cy="478" r="6" fill="#7b4b74" /><circle cx="309" cy="492" r="6" fill="#7b4b74" /><circle cx="329" cy="495" r="6" fill="#7b4b74" /><circle cx="349" cy="492" r="6" fill="#7b4b74" /><circle cx="369" cy="495" r="6" fill="#7b4b74" /><circle cx="389" cy="492" r="6" fill="#7b4b74" /><circle cx="409" cy="495" r="6" fill="#7b4b74" /><circle cx="313" cy="509" r="6" fill="#7b4b74" /><circle cx="333" cy="512" r="6" fill="#7b4b74" /><circle cx="353" cy="509" r="6" fill="#7b4b74" /><circle cx="373" cy="512" r="6" fill="#7b4b74" /><circle cx="393" cy="509" r="6" fill="#7b4b74" /><circle cx="413" cy="512" r="6" fill="#7b4b74" /><text x="355" y="550" text-anchor="middle" font-family="Source Han Sans SC, Microsoft YaHei, sans-serif" font-size="18" font-weight="400" fill="#7b4b74">电子势阱：积分期间累积电荷</text><text x="1105" y="92" text-anchor="middle" font-family="Source Han Sans SC, Microsoft YaHei, sans-serif" font-size="23" font-weight="700" fill="#397456">每个光子只以一定概率贡献可收集电子</text><rect x="845" y="155" width="220" height="115" rx="16" fill="#fff7e8" stroke="#e8c77d" stroke-width="2.5" /><text x="955.0" y="199" text-anchor="middle" font-family="Source Han Sans SC, Microsoft YaHei, sans-serif" font-size="22" font-weight="700" fill="#102a43">入射光子</text><text x="955.0" y="239" text-anchor="middle" font-family="Source Han Sans SC, Microsoft YaHei, sans-serif" font-size="20" font-weight="400" fill="#486581">Nγ</text><rect x="1145" y="155" width="220" height="115" rx="16" fill="#edf8f2" stroke="#9fd6b7" stroke-width="2.5" /><text x="1255.0" y="199" text-anchor="middle" font-family="Source Han Sans SC, Microsoft YaHei, sans-serif" font-size="22" font-weight="700" fill="#102a43">收集电子</text><text x="1255.0" y="239" text-anchor="middle" font-family="Source Han Sans SC, Microsoft YaHei, sans-serif" font-size="20" font-weight="400" fill="#486581">Ne</text><line x1="1070" y1="213" x2="1135" y2="213" stroke="#4d8c6a" stroke-width="4" stroke-linecap="round" marker-end="url(#arrow-green)" /><text x="1103" y="190" text-anchor="middle" font-family="Source Han Sans SC, Microsoft YaHei, sans-serif" font-size="19" font-weight="700" fill="#397456">η(λ)</text><text x="1105" y="330" text-anchor="middle" font-family="Source Han Sans SC, Microsoft YaHei, sans-serif" font-size="24" font-weight="700" fill="#102a43">E[Ne | Nγ] = ηNγ</text><circle cx="865" cy="405" r="8" fill="#c58a2d" /><line x1="865" y1="418" x2="865" y2="474" stroke="#4d8c6a" stroke-width="2.5" stroke-linecap="round" marker-end="url(#arrow-green)" /><circle cx="865" cy="495" r="7" fill="#4d8c6a" /><circle cx="915" cy="405" r="8" fill="#c58a2d" /><line x1="915" y1="418" x2="915" y2="474" stroke="#4d8c6a" stroke-width="2.5" stroke-linecap="round" marker-end="url(#arrow-green)" /><circle cx="915" cy="495" r="7" fill="#4d8c6a" /><circle cx="965" cy="405" r="8" fill="#c58a2d" /><line x1="957" y1="455" x2="973" y2="471" stroke="#c85b73" stroke-width="3" stroke-linecap="round" /><line x1="973" y1="455" x2="957" y2="471" stroke="#c85b73" stroke-width="3" stroke-linecap="round" /><circle cx="1015" cy="405" r="8" fill="#c58a2d" /><line x1="1015" y1="418" x2="1015" y2="474" stroke="#4d8c6a" stroke-width="2.5" stroke-linecap="round" marker-end="url(#arrow-green)" /><circle cx="1015" cy="495" r="7" fill="#4d8c6a" /><circle cx="1065" cy="405" r="8" fill="#c58a2d" /><line x1="1065" y1="418" x2="1065" y2="474" stroke="#4d8c6a" stroke-width="2.5" stroke-linecap="round" marker-end="url(#arrow-green)" /><circle cx="1065" cy="495" r="7" fill="#4d8c6a" /><circle cx="1115" cy="405" r="8" fill="#c58a2d" /><line x1="1115" y1="418" x2="1115" y2="474" stroke="#4d8c6a" stroke-width="2.5" stroke-linecap="round" marker-end="url(#arrow-green)" /><circle cx="1115" cy="495" r="7" fill="#4d8c6a" /><circle cx="1165" cy="405" r="8" fill="#c58a2d" /><line x1="1157" y1="455" x2="1173" y2="471" stroke="#c85b73" stroke-width="3" stroke-linecap="round" /><line x1="1173" y1="455" x2="1157" y2="471" stroke="#c85b73" stroke-width="3" stroke-linecap="round" /><circle cx="1215" cy="405" r="8" fill="#c58a2d" /><line x1="1215" y1="418" x2="1215" y2="474" stroke="#4d8c6a" stroke-width="2.5" stroke-linecap="round" marker-end="url(#arrow-green)" /><circle cx="1215" cy="495" r="7" fill="#4d8c6a" /><circle cx="1265" cy="405" r="8" fill="#c58a2d" /><line x1="1265" y1="418" x2="1265" y2="474" stroke="#4d8c6a" stroke-width="2.5" stroke-linecap="round" marker-end="url(#arrow-green)" /><circle cx="1265" cy="495" r="7" fill="#4d8c6a" /><circle cx="1315" cy="405" r="8" fill="#c58a2d" /><line x1="1307" y1="455" x2="1323" y2="471" stroke="#c85b73" stroke-width="3" stroke-linecap="round" /><line x1="1323" y1="455" x2="1307" y2="471" stroke="#c85b73" stroke-width="3" stroke-linecap="round" /><text x="1105" y="550" text-anchor="middle" font-family="Source Han Sans SC, Microsoft YaHei, sans-serif" font-size="18" font-weight="400" fill="#7b4b74">未吸收、未分离或未收集的事件不会进入 RAW</text></svg>