<?xml version='1.0' encoding='utf-8'?>
<svg xmlns="http://www.w3.org/2000/svg" width="1500" height="700" viewBox="0 0 1500 700" role="img" aria-label="连续像经像素孔径积分后在晶格上采样"><defs><marker id="arrow-blue" markerWidth="10" markerHeight="8" refX="9" refY="4" orient="auto" markerUnits="strokeWidth"><path d="M 0 0 L 10 4 L 0 8 z" fill="#3b82b5" /></marker><marker id="arrow-dark" markerWidth="10" markerHeight="8" refX="9" refY="4" orient="auto" markerUnits="strokeWidth"><path d="M 0 0 L 10 4 L 0 8 z" fill="#334e68" /></marker><marker id="arrow-red" markerWidth="10" markerHeight="8" refX="9" refY="4" orient="auto" markerUnits="strokeWidth"><path d="M 0 0 L 10 4 L 0 8 z" fill="#c85b73" /></marker><marker id="arrow-green" markerWidth="10" markerHeight="8" refX="9" refY="4" orient="auto" markerUnits="strokeWidth"><path d="M 0 0 L 10 4 L 0 8 z" fill="#4d8c6a" /></marker><marker id="arrow-gold" markerWidth="10" markerHeight="8" refX="9" refY="4" orient="auto" markerUnits="strokeWidth"><path d="M 0 0 L 10 4 L 0 8 z" fill="#c58a2d" /></marker><marker id="arrow-purple" markerWidth="10" markerHeight="8" refX="9" refY="4" orient="auto" markerUnits="strokeWidth"><path d="M 0 0 L 10 4 L 0 8 z" fill="#7b4b74" /></marker><linearGradient id="irradiance" x1="0" x2="1" y1="0" y2="0"><stop offset="0" stop-color="#eaf4ff" /><stop offset="0.45" stop-color="#3b82b5" /><stop offset="0.7" stop-color="#c85b73" /><stop offset="1" stop-color="#fff0f3" /></linearGradient></defs><rect width="1500" height="700" fill="#fbfdff" /><text x="750.0" y="43" text-anchor="middle" font-family="Source Han Sans SC, Microsoft YaHei, sans-serif" font-size="31" font-weight="700" fill="#102a43">像素不是几何点：先在有限面积上积分，再按间距 p 排列</text><rect x="35" y="110" width="365" height="420" rx="16" fill="#f4f9fd" stroke="#9bc7ee" stroke-width="2.5" /><text x="217.5" y="152" text-anchor="middle" font-family="Source Han Sans SC, Microsoft YaHei, sans-serif" font-size="21" font-weight="700" fill="#285b7a">连续像面辐照度 e(x,y)</text><rect x="75" y="180" width="31" height="29" fill="#e0efe6" stroke="none" /><rect x="105" y="180" width="31" height="29" fill="#e0eee3" stroke="none" /><rect x="135" y="180" width="31" height="29" fill="#dfede1" stroke="none" /><rect x="165" y="180" width="31" height="29" fill="#ddece0" stroke="none" /><rect x="195" y="180" width="31" height="29" fill="#d8ebe1" stroke="none" /><rect x="225" y="180" width="31" height="29" fill="#d1e9e3" stroke="none" /><rect x="255" y="180" width="31" height="29" fill="#cae8e6" stroke="none" /><rect x="285" y="180" width="31" height="29" fill="#c7e8e8" stroke="none" /><rect x="315" y="180" width="31" height="29" fill="#cae9ea" stroke="none" /><rect x="345" y="180" width="31" height="29" fill="#d1ebeb" stroke="none" /><rect x="75" y="208" width="31" height="29" fill="#e0ede0" stroke="none" /><rect x="105" y="208" width="31" height="29" fill="#e0ecda" stroke="none" /><rect x="135" y="208" width="31" height="29" fill="#deead4" stroke="none" /><rect x="165" y="208" width="31" height="29" fill="#dae8d2" stroke="none" /><rect x="195" y="208" width="31" height="29" fill="#d1e6d4" stroke="none" /><rect x="225" y="208" width="31" height="29" fill="#c3e3da" stroke="none" /><rect x="255" y="208" width="31" height="29" fill="#b6e0e0" stroke="none" /><rect x="285" y="208" width="31" height="29" fill="#b0e0e5" stroke="none" /><rect x="315" y="208" width="31" height="29" fill="#b6e2e8" stroke="none" /><rect x="345" y="208" width="31" height="29" fill="#c3e7ea" stroke="none" /><rect x="75" y="236" width="31" height="29" fill="#e0ebd6" stroke="none" /><rect x="105" y="236" width="31" height="29" fill="#e0e8cb" stroke="none" /><rect x="135" y="236" width="31" height="29" fill="#dde5c2" stroke="none" /><rect x="165" y="236" width="31" height="29" fill="#d7e2bf" stroke="none" /><rect x="195" y="236" width="31" height="29" fill="#cadec2" stroke="none" /><rect x="225" y="236" width="31" height="29" fill="#b6dbcb" stroke="none" /><rect x="255" y="236" width="31" height="29" fill="#a2d7d6" stroke="none" /><rect x="285" y="236" width="31" height="29" fill="#9ad7e0" stroke="none" /><rect x="315" y="236" width="31" height="29" fill="#a2dce6" stroke="none" /><rect x="345" y="236" width="31" height="29" fill="#b6e3e9" stroke="none" /><rect x="75" y="264" width="31" height="29" fill="#e0e8cb" stroke="none" /><rect x="105" y="264" width="31" height="29" fill="#e0e3bb" stroke="none" /><rect x="135" y="264" width="31" height="29" fill="#dddfad" stroke="none" /><rect x="165" y="264" width="31" height="29" fill="#d6dba7" stroke="none" /><rect x="195" y="264" width="31" height="29" fill="#c7d8ad" stroke="none" /><rect x="225" y="264" width="31" height="29" fill="#b0d5bb" stroke="none" /><rect x="255" y="264" width="31" height="29" fill="#9ad2cb" stroke="none" /><rect x="285" y="264" width="31" height="29" fill="#91d3da" stroke="none" /><rect x="315" y="264" width="31" height="29" fill="#9ad8e3" stroke="none" /><rect x="345" y="264" width="31" height="29" fill="#b0e0e8" stroke="none" /><rect x="75" y="292" width="31" height="29" fill="#e0e6c2" stroke="none" /><rect x="105" y="292" width="31" height="29" fill="#e0e0ad" stroke="none" /><rect x="135" y="292" width="31" height="29" fill="#ddda9b" stroke="none" /><rect x="165" y="292" width="31" height="29" fill="#d7d794" stroke="none" /><rect x="195" y="292" width="31" height="29" fill="#cad49b" stroke="none" /><rect x="225" y="292" width="31" height="29" fill="#b6d3ad" stroke="none" /><rect x="255" y="292" width="31" height="29" fill="#a2d2c2" stroke="none" /><rect x="285" y="292" width="31" height="29" fill="#9ad4d4" stroke="none" /><rect x="315" y="292" width="31" height="29" fill="#a2dae1" stroke="none" /><rect x="345" y="292" width="31" height="29" fill="#b6e2e7" stroke="none" /><rect x="75" y="320" width="31" height="29" fill="#e0e5bf" stroke="none" /><rect x="105" y="320" width="31" height="29" fill="#e0dea7" stroke="none" /><rect x="135" y="320" width="31" height="29" fill="#ded994" stroke="none" /><rect x="165" y="320" width="31" height="29" fill="#dad58d" stroke="none" /><rect x="195" y="320" width="31" height="29" fill="#d1d594" stroke="none" /><rect x="225" y="320" width="31" height="29" fill="#c3d5a7" stroke="none" /><rect x="255" y="320" width="31" height="29" fill="#b6d7bf" stroke="none" /><rect x="285" y="320" width="31" height="29" fill="#b0dbd2" stroke="none" /><rect x="315" y="320" width="31" height="29" fill="#b6e0e0" stroke="none" /><rect x="345" y="320" width="31" height="29" fill="#c3e6e7" stroke="none" /><rect x="75" y="348" width="31" height="29" fill="#e0e6c2" stroke="none" /><rect x="105" y="348" width="31" height="29" fill="#e0e0ad" stroke="none" /><rect x="135" y="348" width="31" height="29" fill="#dfdb9b" stroke="none" /><rect x="165" y="348" width="31" height="29" fill="#ddd894" stroke="none" /><rect x="195" y="348" width="31" height="29" fill="#d8d99b" stroke="none" /><rect x="225" y="348" width="31" height="29" fill="#d1dbad" stroke="none" /><rect x="255" y="348" width="31" height="29" fill="#cadec2" stroke="none" /><rect x="285" y="348" width="31" height="29" fill="#c7e2d4" stroke="none" /><rect x="315" y="348" width="31" height="29" fill="#cae6e1" stroke="none" /><rect x="345" y="348" width="31" height="29" fill="#d1eae7" stroke="none" /><rect x="75" y="376" width="31" height="29" fill="#e0e8cb" stroke="none" /><rect x="105" y="376" width="31" height="29" fill="#e0e4bb" stroke="none" /><rect x="135" y="376" width="31" height="29" fill="#e0e0ad" stroke="none" /><rect x="165" y="376" width="31" height="29" fill="#dfdea7" stroke="none" /><rect x="195" y="376" width="31" height="29" fill="#dddfad" stroke="none" /><rect x="225" y="376" width="31" height="29" fill="#dae2bb" stroke="none" /><rect x="255" y="376" width="31" height="29" fill="#d7e5cb" stroke="none" /><rect x="285" y="376" width="31" height="29" fill="#d6e8da" stroke="none" /><rect x="315" y="376" width="31" height="29" fill="#d7ebe3" stroke="none" /><rect x="345" y="376" width="31" height="29" fill="#daeee8" stroke="none" /><rect x="75" y="404" width="31" height="29" fill="#e0ebd6" stroke="none" /><rect x="105" y="404" width="31" height="29" fill="#e0e8cb" stroke="none" /><rect x="135" y="404" width="31" height="29" fill="#e0e6c2" stroke="none" /><rect x="165" y="404" width="31" height="29" fill="#e0e5bf" stroke="none" /><rect x="195" y="404" width="31" height="29" fill="#dfe5c2" stroke="none" /><rect x="225" y="404" width="31" height="29" fill="#dee7cb" stroke="none" /><rect x="255" y="404" width="31" height="29" fill="#ddead6" stroke="none" /><rect x="285" y="404" width="31" height="29" fill="#ddece0" stroke="none" /><rect x="315" y="404" width="31" height="29" fill="#ddeee6" stroke="none" /><rect x="345" y="404" width="31" height="29" fill="#deefe9" stroke="none" /><rect x="75" y="432" width="31" height="29" fill="#e0ede0" stroke="none" /><rect x="105" y="432" width="31" height="29" fill="#e0ecda" stroke="none" /><rect x="135" y="432" width="31" height="29" fill="#e0ead4" stroke="none" /><rect x="165" y="432" width="31" height="29" fill="#e0ead2" stroke="none" /><rect x="195" y="432" width="31" height="29" fill="#e0ead4" stroke="none" /><rect x="225" y="432" width="31" height="29" fill="#e0ecda" stroke="none" /><rect x="255" y="432" width="31" height="29" fill="#e0ede0" stroke="none" /><rect x="285" y="432" width="31" height="29" fill="#e0eee5" stroke="none" /><rect x="315" y="432" width="31" height="29" fill="#e0efe8" stroke="none" /><rect x="345" y="432" width="31" height="29" fill="#e0f0ea" stroke="none" /><polyline points="66.00,423.79 68.52,423.51 71.04,423.18 73.56,422.79 76.08,422.32 78.61,421.77 81.13,421.14 83.65,420.40 86.17,419.56 88.69,418.60 91.21,417.50 93.73,416.27 96.25,414.89 98.77,413.36 101.29,411.67 103.82,409.82 106.34,407.80 108.86,405.63 111.38,403.30 113.90,400.82 116.42,398.21 118.94,395.48 121.46,392.66 123.98,389.75 126.50,386.80 129.03,383.83 131.55,380.87 134.07,377.96 136.59,375.13 139.11,372.43 141.63,369.88 144.15,367.52 146.67,365.40 149.19,363.53 151.71,361.96 154.24,360.70 156.76,359.78 159.28,359.21 161.80,359.00 164.32,359.15 166.84,359.67 169.36,360.53 171.88,361.74 174.40,363.26 176.92,365.08 179.45,367.17 181.97,369.49 184.49,372.00 187.01,374.69 189.53,377.50 192.05,380.40 194.57,383.35 197.09,386.31 199.61,389.26 202.13,392.17 204.66,394.99 207.18,397.72 209.70,400.32 212.22,402.77 214.74,405.06 217.26,407.18 219.78,409.11 222.30,410.83 224.82,412.35 227.34,413.64 229.87,414.70 232.39,415.52 234.91,416.09 237.43,416.40 239.95,416.44 242.47,416.20 244.99,415.67 247.51,414.84 250.03,413.72 252.55,412.31 255.08,410.62 257.60,408.67 260.12,406.49 262.64,404.12 265.16,401.60 267.68,398.99 270.20,396.36 272.72,393.77 275.24,391.31 277.76,389.04 280.29,387.05 282.81,385.39 285.33,384.13 287.85,383.31 290.37,382.96 292.89,383.10 295.41,383.71 297.93,384.79 300.45,386.29 302.97,388.17 305.50,390.36 308.02,392.80 310.54,395.41 313.06,398.13 315.58,400.88 318.10,403.60 320.62,406.24 323.14,408.74 325.66,411.07 328.18,413.20 330.71,415.13 333.23,416.83 335.75,418.32 338.27,419.60 340.79,420.69 343.31,421.60 345.83,422.34 348.35,422.95 350.87,423.44 353.39,423.82 355.92,424.12 358.44,424.35 360.96,424.53 363.48,424.66 366.00,424.76" stroke="#3b82b5" stroke-width="4" fill="none" stroke-linejoin="round" stroke-linecap="round" /><text x="218" y="505" text-anchor="middle" font-family="Source Han Sans SC, Microsoft YaHei, sans-serif" font-size="17" font-weight="400" fill="#486581">空间连续，可含任意相位</text><line x1="405" y1="320" x2="475" y2="320" stroke="#3b82b5" stroke-width="4" stroke-linecap="round" marker-end="url(#arrow-blue)" /><rect x="480" y="110" width="430" height="420" rx="16" fill="#fffaf1" stroke="#e8c77d" stroke-width="2.5" /><text x="695.0" y="152" text-anchor="middle" font-family="Source Han Sans SC, Microsoft YaHei, sans-serif" font-size="21" font-weight="700" fill="#8a5f19">像素孔径 a(x,y)</text><rect x="547.0" y="192.0" width="56" height="56" rx="7" fill="#f8d895" stroke="#c58a2d" stroke-width="2" /><circle cx="575.0" cy="220.0" r="4" fill="#8a5f19" /><rect x="627.0" y="192.0" width="56" height="56" rx="7" fill="#f8d895" stroke="#c58a2d" stroke-width="2" /><circle cx="655.0" cy="220.0" r="4" fill="#8a5f19" /><rect x="707.0" y="192.0" width="56" height="56" rx="7" fill="#f8d895" stroke="#c58a2d" stroke-width="2" /><circle cx="735.0" cy="220.0" r="4" fill="#8a5f19" /><rect x="787.0" y="192.0" width="56" height="56" rx="7" fill="#f8d895" stroke="#c58a2d" stroke-width="2" /><circle cx="815.0" cy="220.0" r="4" fill="#8a5f19" /><rect x="547.0" y="272.0" width="56" height="56" rx="7" fill="#f8d895" stroke="#c58a2d" stroke-width="2" /><circle cx="575.0" cy="300.0" r="4" fill="#8a5f19" /><rect x="627.0" y="272.0" width="56" height="56" rx="7" fill="#f8d895" stroke="#c58a2d" stroke-width="2" /><circle cx="655.0" cy="300.0" r="4" fill="#8a5f19" /><rect x="707.0" y="272.0" width="56" height="56" rx="7" fill="#f8d895" stroke="#c58a2d" stroke-width="2" /><circle cx="735.0" cy="300.0" r="4" fill="#8a5f19" /><rect x="787.0" y="272.0" width="56" height="56" rx="7" fill="#f8d895" stroke="#c58a2d" stroke-width="2" /><circle cx="815.0" cy="300.0" r="4" fill="#8a5f19" /><rect x="547.0" y="352.0" width="56" height="56" rx="7" fill="#f8d895" stroke="#c58a2d" stroke-width="2" /><circle cx="575.0" cy="380.0" r="4" fill="#8a5f19" /><rect x="627.0" y="352.0" width="56" height="56" rx="7" fill="#f8d895" stroke="#c58a2d" stroke-width="2" /><circle cx="655.0" cy="380.0" r="4" fill="#8a5f19" /><rect x="707.0" y="352.0" width="56" height="56" rx="7" fill="#f8d895" stroke="#c58a2d" stroke-width="2" /><circle cx="735.0" cy="380.0" r="4" fill="#8a5f19" /><rect x="787.0" y="352.0" width="56" height="56" rx="7" fill="#f8d895" stroke="#c58a2d" stroke-width="2" /><circle cx="815.0" cy="380.0" r="4" fill="#8a5f19" /><rect x="547.0" y="432.0" width="56" height="56" rx="7" fill="#f8d895" stroke="#c58a2d" stroke-width="2" /><circle cx="575.0" cy="460.0" r="4" fill="#8a5f19" /><rect x="627.0" y="432.0" width="56" height="56" rx="7" fill="#f8d895" stroke="#c58a2d" stroke-width="2" /><circle cx="655.0" cy="460.0" r="4" fill="#8a5f19" /><rect x="707.0" y="432.0" width="56" height="56" rx="7" fill="#f8d895" stroke="#c58a2d" stroke-width="2" /><circle cx="735.0" cy="460.0" r="4" fill="#8a5f19" /><rect x="787.0" y="432.0" width="56" height="56" rx="7" fill="#f8d895" stroke="#c58a2d" stroke-width="2" /><circle cx="815.0" cy="460.0" r="4" fill="#8a5f19" /><line x1="535" y1="525" x2="615" y2="525" stroke="#c85b73" stroke-width="3" stroke-linecap="round" /><line x1="535" y1="514" x2="535" y2="536" stroke="#c85b73" stroke-width="2" stroke-linecap="round" /><line x1="615" y1="514" x2="615" y2="536" stroke="#c85b73" stroke-width="2" stroke-linecap="round" /><text x="575.0" y="562" text-anchor="middle" font-family="Source Han Sans SC, Microsoft YaHei, sans-serif" font-size="17" font-weight="700" fill="#a24862">间距 p</text><line x1="547.0" y1="485" x2="603.0" y2="485" stroke="#4d8c6a" stroke-width="3" stroke-linecap="round" /><text x="575.0" y="475" text-anchor="middle" font-family="Source Han Sans SC, Microsoft YaHei, sans-serif" font-size="16" font-weight="700" fill="#397456">孔径宽 a</text><text x="695" y="605" text-anchor="middle" font-family="Source Han Sans SC, Microsoft YaHei, sans-serif" font-size="18" font-weight="400" fill="#7b4b74">面积积分 = 与孔径卷积；p 与 a 是不同参数</text><line x1="915" y1="320" x2="985" y2="320" stroke="#3b82b5" stroke-width="4" stroke-linecap="round" marker-end="url(#arrow-blue)" /><rect x="990" y="110" width="475" height="420" rx="16" fill="#f4f9fd" stroke="#9bc7ee" stroke-width="2.5" /><text x="1227.5" y="152" text-anchor="middle" font-family="Source Han Sans SC, Microsoft YaHei, sans-serif" font-size="21" font-weight="700" fill="#285b7a">离散数组 z[m,n]</text><rect x="1045" y="175" width="54" height="54" fill="#e8f6ff" stroke="#8aa2b5" stroke-width="1.5" /><rect x="1099" y="175" width="54" height="54" fill="#e0eefc" stroke="#8aa2b5" stroke-width="1.5" /><rect x="1153" y="175" width="54" height="54" fill="#d1dfed" stroke="#8aa2b5" stroke-width="1.5" /><rect x="1207" y="175" width="54" height="54" fill="#c2d0de" stroke="#8aa2b5" stroke-width="1.5" /><rect x="1261" y="175" width="54" height="54" fill="#cad8e6" stroke="#8aa2b5" stroke-width="1.5" /><rect x="1315" y="175" width="54" height="54" fill="#dbe9f7" stroke="#8aa2b5" stroke-width="1.5" /><rect x="1045" y="229" width="54" height="54" fill="#e0eefc" stroke="#8aa2b5" stroke-width="1.5" /><rect x="1099" y="229" width="54" height="54" fill="#cad8e6" stroke="#8aa2b5" stroke-width="1.5" /><rect x="1153" y="229" width="54" height="54" fill="#acbac8" stroke="#8aa2b5" stroke-width="1.5" /><rect x="1207" y="229" width="54" height="54" fill="#97a5b3" stroke="#8aa2b5" stroke-width="1.5" /><rect x="1261" y="229" width="54" height="54" fill="#b5c3d1" stroke="#8aa2b5" stroke-width="1.5" /><rect x="1315" y="229" width="54" height="54" fill="#d4e2f0" stroke="#8aa2b5" stroke-width="1.5" /><rect x="1045" y="283" width="54" height="54" fill="#d7e5f3" stroke="#8aa2b5" stroke-width="1.5" /><rect x="1099" y="283" width="54" height="54" fill="#b0becc" stroke="#8aa2b5" stroke-width="1.5" /><rect x="1153" y="283" width="54" height="54" fill="#8694a2" stroke="#8aa2b5" stroke-width="1.5" /><rect x="1207" y="283" width="54" height="54" fill="#818f9d" stroke="#8aa2b5" stroke-width="1.5" /><rect x="1261" y="283" width="54" height="54" fill="#a6b4c2" stroke="#8aa2b5" stroke-width="1.5" /><rect x="1315" y="283" width="54" height="54" fill="#cfddeb" stroke="#8aa2b5" stroke-width="1.5" /><rect x="1045" y="337" width="54" height="54" fill="#dbe9f7" stroke="#8aa2b5" stroke-width="1.5" /><rect x="1099" y="337" width="54" height="54" fill="#b8c6d4" stroke="#8aa2b5" stroke-width="1.5" /><rect x="1153" y="337" width="54" height="54" fill="#919fad" stroke="#8aa2b5" stroke-width="1.5" /><rect x="1207" y="337" width="54" height="54" fill="#9fadbb" stroke="#8aa2b5" stroke-width="1.5" /><rect x="1261" y="337" width="54" height="54" fill="#bccad8" stroke="#8aa2b5" stroke-width="1.5" /><rect x="1315" y="337" width="54" height="54" fill="#d7e5f3" stroke="#8aa2b5" stroke-width="1.5" /><rect x="1045" y="391" width="54" height="54" fill="#e4f2ff" stroke="#8aa2b5" stroke-width="1.5" /><rect x="1099" y="391" width="54" height="54" fill="#cfddeb" stroke="#8aa2b5" stroke-width="1.5" /><rect x="1153" y="391" width="54" height="54" fill="#c0cedc" stroke="#8aa2b5" stroke-width="1.5" /><rect x="1207" y="391" width="54" height="54" fill="#c6d4e2" stroke="#8aa2b5" stroke-width="1.5" /><rect x="1261" y="391" width="54" height="54" fill="#d3e1ef" stroke="#8aa2b5" stroke-width="1.5" /><rect x="1315" y="391" width="54" height="54" fill="#e0eefc" stroke="#8aa2b5" stroke-width="1.5" /><rect x="1045" y="445" width="54" height="54" fill="#ebf9ff" stroke="#8aa2b5" stroke-width="1.5" /><rect x="1099" y="445" width="54" height="54" fill="#e1effd" stroke="#8aa2b5" stroke-width="1.5" /><rect x="1153" y="445" width="54" height="54" fill="#dbe9f7" stroke="#8aa2b5" stroke-width="1.5" /><rect x="1207" y="445" width="54" height="54" fill="#deecfa" stroke="#8aa2b5" stroke-width="1.5" /><rect x="1261" y="445" width="54" height="54" fill="#e3f1ff" stroke="#8aa2b5" stroke-width="1.5" /><rect x="1315" y="445" width="54" height="54" fill="#e8f6ff" stroke="#8aa2b5" stroke-width="1.5" /><text x="1227" y="535" text-anchor="middle" font-family="Source Han Sans SC, Microsoft YaHei, sans-serif" font-size="17" font-weight="400" fill="#486581">每格只保留一个积分值</text><text x="750.0" y="662" text-anchor="middle" font-family="Source Han Sans SC, Microsoft YaHei, sans-serif" font-size="21" font-weight="700" fill="#7b4b74">z[m,n] = ∬ e(x,y)a(x−mp,y−np) dxdy；点采样只是 a→δ 的理想极限</text></svg>