<?xml version='1.0' encoding='utf-8'?>
<svg xmlns="http://www.w3.org/2000/svg" width="1500" height="690" viewBox="0 0 1500 690" role="img" aria-label="不同像素孔径和方向的sinc调制传递函数"><defs><marker id="arrow-blue" markerWidth="10" markerHeight="8" refX="9" refY="4" orient="auto" markerUnits="strokeWidth"><path d="M 0 0 L 10 4 L 0 8 z" fill="#3b82b5" /></marker><marker id="arrow-dark" markerWidth="10" markerHeight="8" refX="9" refY="4" orient="auto" markerUnits="strokeWidth"><path d="M 0 0 L 10 4 L 0 8 z" fill="#334e68" /></marker><marker id="arrow-red" markerWidth="10" markerHeight="8" refX="9" refY="4" orient="auto" markerUnits="strokeWidth"><path d="M 0 0 L 10 4 L 0 8 z" fill="#c85b73" /></marker><marker id="arrow-green" markerWidth="10" markerHeight="8" refX="9" refY="4" orient="auto" markerUnits="strokeWidth"><path d="M 0 0 L 10 4 L 0 8 z" fill="#4d8c6a" /></marker><marker id="arrow-gold" markerWidth="10" markerHeight="8" refX="9" refY="4" orient="auto" markerUnits="strokeWidth"><path d="M 0 0 L 10 4 L 0 8 z" fill="#c58a2d" /></marker><marker id="arrow-purple" markerWidth="10" markerHeight="8" refX="9" refY="4" orient="auto" markerUnits="strokeWidth"><path d="M 0 0 L 10 4 L 0 8 z" fill="#7b4b74" /></marker><linearGradient id="irradiance" x1="0" x2="1" y1="0" y2="0"><stop offset="0" stop-color="#eaf4ff" /><stop offset="0.45" stop-color="#3b82b5" /><stop offset="0.7" stop-color="#c85b73" /><stop offset="1" stop-color="#fff0f3" /></linearGradient></defs><rect width="1500" height="690" fill="#fbfdff" /><text x="750.0" y="43" text-anchor="middle" font-family="Source Han Sans SC, Microsoft YaHei, sans-serif" font-size="31" font-weight="700" fill="#102a43">像素面积积分是采样前低通：孔径越大，抗混叠越强但高频衰减越早</text><line x1="120" y1="545" x2="1380" y2="545" stroke="#334e68" stroke-width="2" stroke-linecap="round" marker-end="url(#arrow-dark)" /><line x1="120" y1="545" x2="120" y2="120" stroke="#334e68" stroke-width="2" stroke-linecap="round" marker-end="url(#arrow-dark)" /><line x1="120" y1="545" x2="1380" y2="545" stroke="#e0e7ec" stroke-width="1.2" stroke-linecap="round" /><text x="102" y="550" text-anchor="end" font-family="Source Han Sans SC, Microsoft YaHei, sans-serif" font-size="15" font-weight="400" fill="#627d98">0.00</text><line x1="120" y1="438.75" x2="1380" y2="438.75" stroke="#e0e7ec" stroke-width="1.2" stroke-linecap="round" /><text x="102" y="443.75" text-anchor="end" font-family="Source Han Sans SC, Microsoft YaHei, sans-serif" font-size="15" font-weight="400" fill="#627d98">0.25</text><line x1="120" y1="332.5" x2="1380" y2="332.5" stroke="#e0e7ec" stroke-width="1.2" stroke-linecap="round" /><text x="102" y="337.5" text-anchor="end" font-family="Source Han Sans SC, Microsoft YaHei, sans-serif" font-size="15" font-weight="400" fill="#627d98">0.50</text><line x1="120" y1="226.25" x2="1380" y2="226.25" stroke="#e0e7ec" stroke-width="1.2" stroke-linecap="round" /><text x="102" y="231.25" text-anchor="end" font-family="Source Han Sans SC, Microsoft YaHei, sans-serif" font-size="15" font-weight="400" fill="#627d98">0.75</text><line x1="120" y1="120.0" x2="1380" y2="120.0" stroke="#e0e7ec" stroke-width="1.2" stroke-linecap="round" /><text x="102" y="125.0" text-anchor="end" font-family="Source Han Sans SC, Microsoft YaHei, sans-serif" font-size="15" font-weight="400" fill="#627d98">1.00</text><line x1="120" y1="120" x2="120" y2="545" stroke="#e0e7ec" stroke-width="1.2" stroke-linecap="round" /><text x="120" y="577" text-anchor="middle" font-family="Source Han Sans SC, Microsoft YaHei, sans-serif" font-size="15" font-weight="400" fill="#627d98">0.00</text><line x1="435.0" y1="120" x2="435.0" y2="545" stroke="#e0e7ec" stroke-width="1.2" stroke-linecap="round" /><text x="435.0" y="577" text-anchor="middle" font-family="Source Han Sans SC, Microsoft YaHei, sans-serif" font-size="15" font-weight="400" fill="#627d98">0.25</text><line x1="750.0" y1="120" x2="750.0" y2="545" stroke="#e0e7ec" stroke-width="1.2" stroke-linecap="round" /><text x="750.0" y="577" text-anchor="middle" font-family="Source Han Sans SC, Microsoft YaHei, sans-serif" font-size="15" font-weight="400" fill="#627d98">0.50</text><line x1="1065.0" y1="120" x2="1065.0" y2="545" stroke="#e0e7ec" stroke-width="1.2" stroke-linecap="round" /><text x="1065.0" y="577" text-anchor="middle" font-family="Source Han Sans SC, Microsoft YaHei, sans-serif" font-size="15" font-weight="400" fill="#627d98">0.75</text><line x1="1380.0" y1="120" x2="1380.0" y2="545" stroke="#e0e7ec" stroke-width="1.2" stroke-linecap="round" /><text x="1380.0" y="577" text-anchor="middle" font-family="Source Han Sans SC, Microsoft YaHei, sans-serif" font-size="15" font-weight="400" fill="#627d98">1.00</text><polyline points="120.00,120.00 123.94,120.00 127.88,120.01 131.81,120.02 135.75,120.03 139.69,120.04 143.62,120.06 147.56,120.08 151.50,120.11 155.44,120.14 159.38,120.17 163.31,120.21 167.25,120.25 171.19,120.29 175.12,120.33 179.06,120.38 183.00,120.44 186.94,120.49 190.88,120.55 194.81,120.62 198.75,120.68 202.69,120.75 206.62,120.83 210.56,120.90 214.50,120.98 218.44,121.07 222.38,121.15 226.31,121.24 230.25,121.34 234.19,121.43 238.12,121.53 242.06,121.64 246.00,121.75 249.94,121.86 253.88,121.97 257.81,122.09 261.75,122.21 265.69,122.33 269.62,122.46 273.56,122.59 277.50,122.73 281.44,122.86 285.38,123.00 289.31,123.15 293.25,123.30 297.19,123.45 301.12,123.60 305.06,123.76 309.00,123.92 312.94,124.09 316.88,124.25 320.81,124.43 324.75,124.60 328.69,124.78 332.62,124.96 336.56,125.14 340.50,125.33 344.44,125.52 348.38,125.72 352.31,125.92 356.25,126.12 360.19,126.32 364.12,126.53 368.06,126.74 372.00,126.96 375.94,127.17 379.88,127.40 383.81,127.62 387.75,127.85 391.69,128.08 395.62,128.31 399.56,128.55 403.50,128.79 407.44,129.04 411.38,129.28 415.31,129.54 419.25,129.79 423.19,130.05 427.12,130.31 431.06,130.57 435.00,130.84 438.94,131.11 442.88,131.38 446.81,131.66 450.75,131.94 454.69,132.22 458.62,132.51 462.56,132.80 466.50,133.09 470.44,133.39 474.38,133.69 478.31,133.99 482.25,134.30 486.19,134.61 490.12,134.92 494.06,135.24 498.00,135.56 501.94,135.88 505.88,136.20 509.81,136.53 513.75,136.86 517.69,137.20 521.62,137.54 525.56,137.88 529.50,138.22 533.44,138.57 537.38,138.92 541.31,139.27 545.25,139.63 549.19,139.99 553.12,140.35 557.06,140.72 561.00,141.09 564.94,141.46 568.88,141.84 572.81,142.22 576.75,142.60 580.69,142.98 584.62,143.37 588.56,143.76 592.50,144.15 596.44,144.55 600.38,144.95 604.31,145.36 608.25,145.76 612.19,146.17 616.12,146.58 620.06,147.00 624.00,147.42 627.94,147.84 631.88,148.26 635.81,148.69 639.75,149.12 643.69,149.55 647.62,149.99 651.56,150.43 655.50,150.87 659.44,151.32 663.38,151.77 667.31,152.22 671.25,152.67 675.19,153.13 679.12,153.59 683.06,154.05 687.00,154.52 690.94,154.99 694.88,155.46 698.81,155.93 702.75,156.41 706.69,156.89 710.62,157.37 714.56,157.86 718.50,158.35 722.44,158.84 726.38,159.34 730.31,159.83 734.25,160.34 738.19,160.84 742.12,161.34 746.06,161.85 750.00,162.37 753.94,162.88 757.88,163.40 761.81,163.92 765.75,164.44 769.69,164.97 773.62,165.50 777.56,166.03 781.50,166.56 785.44,167.10 789.38,167.64 793.31,168.18 797.25,168.72 801.19,169.27 805.12,169.82 809.06,170.38 813.00,170.93 816.94,171.49 820.88,172.05 824.81,172.61 828.75,173.18 832.69,173.75 836.62,174.32 840.56,174.90 844.50,175.47 848.44,176.05 852.38,176.63 856.31,177.22 860.25,177.81 864.19,178.40 868.12,178.99 872.06,179.58 876.00,180.18 879.94,180.78 883.88,181.39 887.81,181.99 891.75,182.60 895.69,183.21 899.62,183.82 903.56,184.44 907.50,185.06 911.44,185.68 915.38,186.30 919.31,186.92 923.25,187.55 927.19,188.18 931.12,188.81 935.06,189.45 939.00,190.09 942.94,190.73 946.88,191.37 950.81,192.01 954.75,192.66 958.69,193.31 962.62,193.96 966.56,194.62 970.50,195.27 974.44,195.93 978.38,196.59 982.31,197.26 986.25,197.92 990.19,198.59 994.12,199.26 998.06,199.93 1002.00,200.61 1005.94,201.29 1009.88,201.97 1013.81,202.65 1017.75,203.33 1021.69,204.02 1025.62,204.71 1029.56,205.40 1033.50,206.09 1037.44,206.78 1041.38,207.48 1045.31,208.18 1049.25,208.88 1053.19,209.59 1057.12,210.29 1061.06,211.00 1065.00,211.71 1068.94,212.42 1072.88,213.14 1076.81,213.85 1080.75,214.57 1084.69,215.29 1088.62,216.01 1092.56,216.74 1096.50,217.46 1100.44,218.19 1104.38,218.92 1108.31,219.66 1112.25,220.39 1116.19,221.13 1120.12,221.87 1124.06,222.61 1128.00,223.35 1131.94,224.09 1135.88,224.84 1139.81,225.59 1143.75,226.34 1147.69,227.09 1151.62,227.84 1155.56,228.60 1159.50,229.36 1163.44,230.12 1167.38,230.88 1171.31,231.64 1175.25,232.41 1179.19,233.17 1183.12,233.94 1187.06,234.71 1191.00,235.49 1194.94,236.26 1198.88,237.03 1202.81,237.81 1206.75,238.59 1210.69,239.37 1214.62,240.16 1218.56,240.94 1222.50,241.73 1226.44,242.51 1230.38,243.30 1234.31,244.09 1238.25,244.89 1242.19,245.68 1246.12,246.48 1250.06,247.28 1254.00,248.08 1257.94,248.88 1261.88,249.68 1265.81,250.48 1269.75,251.29 1273.69,252.10 1277.62,252.90 1281.56,253.71 1285.50,254.53 1289.44,255.34 1293.38,256.15 1297.31,256.97 1301.25,257.79 1305.19,258.61 1309.12,259.43 1313.06,260.25 1317.00,261.07 1320.94,261.90 1324.88,262.73 1328.81,263.55 1332.75,264.38 1336.69,265.21 1340.62,266.05 1344.56,266.88 1348.50,267.71 1352.44,268.55 1356.38,269.39 1360.31,270.22 1364.25,271.06 1368.19,271.91 1372.12,272.75 1376.06,273.59 1380.00,274.44" stroke="#c58a2d" stroke-width="4" fill="none" stroke-linejoin="round" stroke-linecap="round" /><polyline points="120.00,120.00 123.94,120.00 127.88,120.02 131.81,120.03 135.75,120.06 139.69,120.10 143.62,120.14 147.56,120.19 151.50,120.25 155.44,120.31 159.38,120.38 163.31,120.46 167.25,120.55 171.19,120.65 175.12,120.75 179.06,120.86 183.00,120.98 186.94,121.11 190.88,121.24 194.81,121.38 198.75,121.53 202.69,121.69 206.62,121.86 210.56,122.03 214.50,122.21 218.44,122.40 222.38,122.59 226.31,122.79 230.25,123.00 234.19,123.22 238.12,123.45 242.06,123.68 246.00,123.92 249.94,124.17 253.88,124.43 257.81,124.69 261.75,124.96 265.69,125.24 269.62,125.52 273.56,125.82 277.50,126.12 281.44,126.43 285.38,126.74 289.31,127.07 293.25,127.40 297.19,127.73 301.12,128.08 305.06,128.43 309.00,128.79 312.94,129.16 316.88,129.54 320.81,129.92 324.75,130.31 328.69,130.71 332.62,131.11 336.56,131.52 340.50,131.94 344.44,132.37 348.38,132.80 352.31,133.24 356.25,133.69 360.19,134.15 364.12,134.61 368.06,135.08 372.00,135.56 375.94,136.04 379.88,136.53 383.81,137.03 387.75,137.54 391.69,138.05 395.62,138.57 399.56,139.10 403.50,139.63 407.44,140.17 411.38,140.72 415.31,141.27 419.25,141.84 423.19,142.41 427.12,142.98 431.06,143.56 435.00,144.15 438.94,144.75 442.88,145.36 446.81,145.97 450.75,146.58 454.69,147.21 458.62,147.84 462.56,148.48 466.50,149.12 470.44,149.77 474.38,150.43 478.31,151.09 482.25,151.77 486.19,152.44 490.12,153.13 494.06,153.82 498.00,154.52 501.94,155.22 505.88,155.93 509.81,156.65 513.75,157.37 517.69,158.11 521.62,158.84 525.56,159.59 529.50,160.34 533.44,161.09 537.38,161.85 541.31,162.62 545.25,163.40 549.19,164.18 553.12,164.97 557.06,165.76 561.00,166.56 564.94,167.37 568.88,168.18 572.81,169.00 576.75,169.82 580.69,170.65 584.62,171.49 588.56,172.33 592.50,173.18 596.44,174.04 600.38,174.90 604.31,175.76 608.25,176.63 612.19,177.51 616.12,178.40 620.06,179.29 624.00,180.18 627.94,181.08 631.88,181.99 635.81,182.90 639.75,183.82 643.69,184.75 647.62,185.68 651.56,186.61 655.50,187.55 659.44,188.50 663.38,189.45 667.31,190.41 671.25,191.37 675.19,192.34 679.12,193.31 683.06,194.29 687.00,195.27 690.94,196.26 694.88,197.26 698.81,198.26 702.75,199.26 706.69,200.27 710.62,201.29 714.56,202.31 718.50,203.33 722.44,204.36 726.38,205.40 730.31,206.44 734.25,207.48 738.19,208.53 742.12,209.59 746.06,210.65 750.00,211.71 753.94,212.78 757.88,213.85 761.81,214.93 765.75,216.01 769.69,217.10 773.62,218.19 777.56,219.29 781.50,220.39 785.44,221.50 789.38,222.61 793.31,223.72 797.25,224.84 801.19,225.96 805.12,227.09 809.06,228.22 813.00,229.36 816.94,230.50 820.88,231.64 824.81,232.79 828.75,233.94 832.69,235.10 836.62,236.26 840.56,237.42 844.50,238.59 848.44,239.76 852.38,240.94 856.31,242.12 860.25,243.30 864.19,244.49 868.12,245.68 872.06,246.88 876.00,248.08 879.94,249.28 883.88,250.48 887.81,251.69 891.75,252.90 895.69,254.12 899.62,255.34 903.56,256.56 907.50,257.79 911.44,259.02 915.38,260.25 919.31,261.49 923.25,262.73 927.19,263.97 931.12,265.21 935.06,266.46 939.00,267.71 942.94,268.97 946.88,270.22 950.81,271.48 954.75,272.75 958.69,274.01 962.62,275.28 966.56,276.55 970.50,277.83 974.44,279.11 978.38,280.38 982.31,281.67 986.25,282.95 990.19,284.24 994.12,285.53 998.06,286.82 1002.00,288.11 1005.94,289.41 1009.88,290.71 1013.81,292.01 1017.75,293.32 1021.69,294.62 1025.62,295.93 1029.56,297.24 1033.50,298.55 1037.44,299.87 1041.38,301.18 1045.31,302.50 1049.25,303.82 1053.19,305.14 1057.12,306.47 1061.06,307.79 1065.00,309.12 1068.94,310.45 1072.88,311.78 1076.81,313.11 1080.75,314.45 1084.69,315.78 1088.62,317.12 1092.56,318.46 1096.50,319.80 1100.44,321.14 1104.38,322.48 1108.31,323.83 1112.25,325.17 1116.19,326.52 1120.12,327.87 1124.06,329.22 1128.00,330.57 1131.94,331.92 1135.88,333.27 1139.81,334.62 1143.75,335.98 1147.69,337.33 1151.62,338.69 1155.56,340.04 1159.50,341.40 1163.44,342.76 1167.38,344.12 1171.31,345.48 1175.25,346.84 1179.19,348.20 1183.12,349.56 1187.06,350.92 1191.00,352.29 1194.94,353.65 1198.88,355.01 1202.81,356.38 1206.75,357.74 1210.69,359.10 1214.62,360.47 1218.56,361.83 1222.50,363.20 1226.44,364.56 1230.38,365.93 1234.31,367.29 1238.25,368.66 1242.19,370.02 1246.12,371.39 1250.06,372.75 1254.00,374.12 1257.94,375.48 1261.88,376.84 1265.81,378.21 1269.75,379.57 1273.69,380.93 1277.62,382.30 1281.56,383.66 1285.50,385.02 1289.44,386.38 1293.38,387.74 1297.31,389.10 1301.25,390.46 1305.19,391.82 1309.12,393.18 1313.06,394.54 1317.00,395.89 1320.94,397.25 1324.88,398.60 1328.81,399.96 1332.75,401.31 1336.69,402.66 1340.62,404.01 1344.56,405.36 1348.50,406.71 1352.44,408.06 1356.38,409.40 1360.31,410.75 1364.25,412.09 1368.19,413.44 1372.12,414.78 1376.06,416.12 1380.00,417.46" stroke="#4d8c6a" stroke-width="4" fill="none" stroke-linejoin="round" stroke-linecap="round" /><polyline points="120.00,120.00 123.94,120.01 127.88,120.03 131.81,120.06 135.75,120.11 139.69,120.17 143.62,120.25 147.56,120.33 151.50,120.44 155.44,120.55 159.38,120.68 163.31,120.83 167.25,120.98 171.19,121.15 175.12,121.34 179.06,121.53 183.00,121.75 186.94,121.97 190.88,122.21 194.81,122.46 198.75,122.73 202.69,123.00 206.62,123.30 210.56,123.60 214.50,123.92 218.44,124.25 222.38,124.60 226.31,124.96 230.25,125.33 234.19,125.72 238.12,126.12 242.06,126.53 246.00,126.96 249.94,127.40 253.88,127.85 257.81,128.31 261.75,128.79 265.69,129.28 269.62,129.79 273.56,130.31 277.50,130.84 281.44,131.38 285.38,131.94 289.31,132.51 293.25,133.09 297.19,133.69 301.12,134.30 305.06,134.92 309.00,135.56 312.94,136.20 316.88,136.86 320.81,137.54 324.75,138.22 328.69,138.92 332.62,139.63 336.56,140.35 340.50,141.09 344.44,141.84 348.38,142.60 352.31,143.37 356.25,144.15 360.19,144.95 364.12,145.76 368.06,146.58 372.00,147.42 375.94,148.26 379.88,149.12 383.81,149.99 387.75,150.87 391.69,151.77 395.62,152.67 399.56,153.59 403.50,154.52 407.44,155.46 411.38,156.41 415.31,157.37 419.25,158.35 423.19,159.34 427.12,160.34 431.06,161.34 435.00,162.37 438.94,163.40 442.88,164.44 446.81,165.50 450.75,166.56 454.69,167.64 458.62,168.72 462.56,169.82 466.50,170.93 470.44,172.05 474.38,173.18 478.31,174.32 482.25,175.47 486.19,176.63 490.12,177.81 494.06,178.99 498.00,180.18 501.94,181.39 505.88,182.60 509.81,183.82 513.75,185.06 517.69,186.30 521.62,187.55 525.56,188.81 529.50,190.09 533.44,191.37 537.38,192.66 541.31,193.96 545.25,195.27 549.19,196.59 553.12,197.92 557.06,199.26 561.00,200.61 564.94,201.97 568.88,203.33 572.81,204.71 576.75,206.09 580.69,207.48 584.62,208.88 588.56,210.29 592.50,211.71 596.44,213.14 600.38,214.57 604.31,216.01 608.25,217.46 612.19,218.92 616.12,220.39 620.06,221.87 624.00,223.35 627.94,224.84 631.88,226.34 635.81,227.84 639.75,229.36 643.69,230.88 647.62,232.41 651.56,233.94 655.50,235.49 659.44,237.03 663.38,238.59 667.31,240.16 671.25,241.73 675.19,243.30 679.12,244.89 683.06,246.48 687.00,248.08 690.94,249.68 694.88,251.29 698.81,252.90 702.75,254.53 706.69,256.15 710.62,257.79 714.56,259.43 718.50,261.07 722.44,262.73 726.38,264.38 730.31,266.05 734.25,267.71 738.19,269.39 742.12,271.06 746.06,272.75 750.00,274.44 753.94,276.13 757.88,277.83 761.81,279.53 765.75,281.24 769.69,282.95 773.62,284.67 777.56,286.39 781.50,288.11 785.44,289.84 789.38,291.58 793.31,293.32 797.25,295.06 801.19,296.80 805.12,298.55 809.06,300.31 813.00,302.06 816.94,303.82 820.88,305.58 824.81,307.35 828.75,309.12 832.69,310.89 836.62,312.67 840.56,314.45 844.50,316.23 848.44,318.01 852.38,319.80 856.31,321.59 860.25,323.38 864.19,325.17 868.12,326.97 872.06,328.77 876.00,330.57 879.94,332.37 883.88,334.17 887.81,335.98 891.75,337.78 895.69,339.59 899.62,341.40 903.56,343.21 907.50,345.03 911.44,346.84 915.38,348.65 919.31,350.47 923.25,352.29 927.19,354.10 931.12,355.92 935.06,357.74 939.00,359.56 942.94,361.38 946.88,363.20 950.81,365.02 954.75,366.84 958.69,368.66 962.62,370.48 966.56,372.30 970.50,374.12 974.44,375.94 978.38,377.75 982.31,379.57 986.25,381.39 990.19,383.21 994.12,385.02 998.06,386.84 1002.00,388.65 1005.94,390.46 1009.88,392.27 1013.81,394.08 1017.75,395.89 1021.69,397.70 1025.62,399.51 1029.56,401.31 1033.50,403.11 1037.44,404.91 1041.38,406.71 1045.31,408.51 1049.25,410.30 1053.19,412.09 1057.12,413.88 1061.06,415.67 1065.00,417.46 1068.94,419.24 1072.88,421.02 1076.81,422.79 1080.75,424.57 1084.69,426.34 1088.62,428.11 1092.56,429.87 1096.50,431.63 1100.44,433.39 1104.38,435.15 1108.31,436.90 1112.25,438.65 1116.19,440.39 1120.12,442.13 1124.06,443.87 1128.00,445.60 1131.94,447.33 1135.88,449.06 1139.81,450.78 1143.75,452.50 1147.69,454.21 1151.62,455.92 1155.56,457.62 1159.50,459.32 1163.44,461.02 1167.38,462.71 1171.31,464.39 1175.25,466.07 1179.19,467.75 1183.12,469.42 1187.06,471.08 1191.00,472.75 1194.94,474.40 1198.88,476.05 1202.81,477.69 1206.75,479.33 1210.69,480.97 1214.62,482.60 1218.56,484.22 1222.50,485.83 1226.44,487.44 1230.38,489.05 1234.31,490.65 1238.25,492.24 1242.19,493.83 1246.12,495.41 1250.06,496.98 1254.00,498.55 1257.94,500.11 1261.88,501.67 1265.81,503.22 1269.75,504.76 1273.69,506.29 1277.62,507.82 1281.56,509.34 1285.50,510.86 1289.44,512.37 1293.38,513.87 1297.31,515.36 1301.25,516.85 1305.19,518.33 1309.12,519.80 1313.06,521.27 1317.00,522.72 1320.94,524.17 1324.88,525.62 1328.81,527.05 1332.75,528.48 1336.69,529.90 1340.62,531.31 1344.56,532.72 1348.50,534.11 1352.44,535.50 1356.38,536.88 1360.31,538.26 1364.25,539.62 1368.19,540.98 1372.12,542.33 1376.06,543.67 1380.00,545.00" stroke="#3b82b5" stroke-width="4" fill="none" stroke-linejoin="round" stroke-linecap="round" /><polyline points="120.00,120.00 123.94,120.01 127.88,120.05 131.81,120.12 135.75,120.22 139.69,120.34 143.62,120.49 147.56,120.67 151.50,120.87 155.44,121.10 159.38,121.36 163.31,121.65 167.25,121.96 171.19,122.30 175.12,122.67 179.06,123.06 183.00,123.48 186.94,123.93 190.88,124.41 194.81,124.91 198.75,125.43 202.69,125.99 206.62,126.57 210.56,127.17 214.50,127.81 218.44,128.47 222.38,129.15 226.31,129.86 230.25,130.60 234.19,131.36 238.12,132.15 242.06,132.96 246.00,133.80 249.94,134.66 253.88,135.55 257.81,136.47 261.75,137.40 265.69,138.37 269.62,139.35 273.56,140.37 277.50,141.40 281.44,142.46 285.38,143.55 289.31,144.65 293.25,145.79 297.19,146.94 301.12,148.12 305.06,149.32 309.00,150.54 312.94,151.79 316.88,153.06 320.81,154.35 324.75,155.66 328.69,157.00 332.62,158.35 336.56,159.73 340.50,161.13 344.44,162.55 348.38,163.99 352.31,165.45 356.25,166.94 360.19,168.44 364.12,169.96 368.06,171.50 372.00,173.07 375.94,174.65 379.88,176.25 383.81,177.87 387.75,179.50 391.69,181.16 395.62,182.83 399.56,184.52 403.50,186.23 407.44,187.96 411.38,189.70 415.31,191.46 419.25,193.24 423.19,195.03 427.12,196.84 431.06,198.67 435.00,200.51 438.94,202.36 442.88,204.23 446.81,206.12 450.75,208.02 454.69,209.93 458.62,211.86 462.56,213.80 466.50,215.76 470.44,217.73 474.38,219.71 478.31,221.70 482.25,223.71 486.19,225.72 490.12,227.75 494.06,229.79 498.00,231.84 501.94,233.91 505.88,235.98 509.81,238.06 513.75,240.15 517.69,242.26 521.62,244.37 525.56,246.49 529.50,248.62 533.44,250.75 537.38,252.90 541.31,255.05 545.25,257.21 549.19,259.38 553.12,261.56 557.06,263.74 561.00,265.93 564.94,268.12 568.88,270.32 572.81,272.53 576.75,274.74 580.69,276.96 584.62,279.18 588.56,281.40 592.50,283.63 596.44,285.86 600.38,288.10 604.31,290.34 608.25,292.58 612.19,294.82 616.12,297.07 620.06,299.32 624.00,301.57 627.94,303.82 631.88,306.07 635.81,308.32 639.75,310.58 643.69,312.83 647.62,315.08 651.56,317.34 655.50,319.59 659.44,321.84 663.38,324.09 667.31,326.34 671.25,328.59 675.19,330.83 679.12,333.08 683.06,335.32 687.00,337.55 690.94,339.79 694.88,342.02 698.81,344.25 702.75,346.47 706.69,348.69 710.62,350.91 714.56,353.12 718.50,355.32 722.44,357.52 726.38,359.72 730.31,361.90 734.25,364.09 738.19,366.26 742.12,368.43 746.06,370.60 750.00,372.75 753.94,374.90 757.88,377.05 761.81,379.18 765.75,381.31 769.69,383.42 773.62,385.54 777.56,387.64 781.50,389.73 785.44,391.81 789.38,393.89 793.31,395.95 797.25,398.01 801.19,400.05 805.12,402.09 809.06,404.12 813.00,406.13 816.94,408.14 820.88,410.13 824.81,412.11 828.75,414.08 832.69,416.04 836.62,417.99 840.56,419.93 844.50,421.86 848.44,423.77 852.38,425.67 856.31,427.56 860.25,429.43 864.19,431.30 868.12,433.15 872.06,434.98 876.00,436.81 879.94,438.62 883.88,440.41 887.81,442.20 891.75,443.97 895.69,445.72 899.62,447.47 903.56,449.19 907.50,450.91 911.44,452.61 915.38,454.29 919.31,455.96 923.25,457.61 927.19,459.26 931.12,460.88 935.06,462.49 939.00,464.09 942.94,465.67 946.88,467.23 950.81,468.78 954.75,470.31 958.69,471.83 962.62,473.33 966.56,474.82 970.50,476.29 974.44,477.75 978.38,479.19 982.31,480.61 986.25,482.02 990.19,483.41 994.12,484.78 998.06,486.14 1002.00,487.48 1005.94,488.81 1009.88,490.12 1013.81,491.41 1017.75,492.69 1021.69,493.95 1025.62,495.19 1029.56,496.42 1033.50,497.63 1037.44,498.82 1041.38,500.00 1045.31,501.16 1049.25,502.31 1053.19,503.44 1057.12,504.55 1061.06,505.64 1065.00,506.72 1068.94,507.79 1072.88,508.83 1076.81,509.86 1080.75,510.87 1084.69,511.87 1088.62,512.85 1092.56,513.81 1096.50,514.76 1100.44,515.69 1104.38,516.61 1108.31,517.50 1112.25,518.39 1116.19,519.25 1120.12,520.10 1124.06,520.94 1128.00,521.75 1131.94,522.56 1135.88,523.34 1139.81,524.11 1143.75,524.87 1147.69,525.61 1151.62,526.33 1155.56,527.04 1159.50,527.73 1163.44,528.40 1167.38,529.07 1171.31,529.71 1175.25,530.34 1179.19,530.96 1183.12,531.56 1187.06,532.14 1191.00,532.72 1194.94,533.27 1198.88,533.81 1202.81,534.34 1206.75,534.85 1210.69,535.35 1214.62,535.84 1218.56,536.31 1222.50,536.76 1226.44,537.21 1230.38,537.63 1234.31,538.05 1238.25,538.45 1242.19,538.84 1246.12,539.21 1250.06,539.57 1254.00,539.92 1257.94,540.26 1261.88,540.58 1265.81,540.89 1269.75,541.19 1273.69,541.47 1277.62,541.75 1281.56,542.01 1285.50,542.26 1289.44,542.49 1293.38,542.72 1297.31,542.93 1301.25,543.14 1305.19,543.33 1309.12,543.51 1313.06,543.67 1317.00,543.83 1320.94,543.98 1324.88,544.12 1328.81,544.24 1332.75,544.36 1336.69,544.46 1340.62,544.56 1344.56,544.65 1348.50,544.72 1352.44,544.79 1356.38,544.85 1360.31,544.89 1364.25,544.93 1368.19,544.96 1372.12,544.98 1376.06,545.00 1380.00,545.00" stroke="#7b4b74" stroke-width="4" fill="none" stroke-linejoin="round" stroke-linecap="round" stroke-dasharray="10 6" /><line x1="750.0" y1="120" x2="750.0" y2="545" stroke="#c85b73" stroke-width="2.5" stroke-linecap="round" stroke-dasharray="9 6" /><text x="750.0" y="105" text-anchor="middle" font-family="Source Han Sans SC, Microsoft YaHei, sans-serif" font-size="17" font-weight="700" fill="#a24862">奈奎斯特 0.5 cycle/pixel</text><circle cx="750.0" cy="274.4365967437779" r="6" fill="#3b82b5" /><line x1="758.0" y1="274.4365967437779" x2="872.0" y2="274.4365967437779" stroke="#3b82b5" stroke-width="1.5" stroke-linecap="round" stroke-dasharray="5 4" /><text x="880.0" y="280.4365967437779" text-anchor="start" font-family="Source Han Sans SC, Microsoft YaHei, sans-serif" font-size="16" font-weight="700" fill="#3b82b5">2/π≈0.637</text><circle cx="750.0" cy="372.7539878080257" r="6" fill="#7b4b74" /><line x1="758.0" y1="372.7539878080257" x2="927.0" y2="372.7539878080257" stroke="#7b4b74" stroke-width="1.5" stroke-linecap="round" stroke-dasharray="5 4" /><text x="935.0" y="378.7539878080257" text-anchor="start" font-family="Source Han Sans SC, Microsoft YaHei, sans-serif" font-size="16" font-weight="700" fill="#7b4b74">(2/π)²≈0.405</text><line x1="865" y1="169" x2="913" y2="169" stroke="#c58a2d" stroke-width="4" stroke-linecap="round" /><text x="925" y="175" text-anchor="start" font-family="Source Han Sans SC, Microsoft YaHei, sans-serif" font-size="15" font-weight="700" fill="#c58a2d">a/p=0.5</text><line x1="1025" y1="169" x2="1073" y2="169" stroke="#4d8c6a" stroke-width="4" stroke-linecap="round" /><text x="1085" y="175" text-anchor="start" font-family="Source Han Sans SC, Microsoft YaHei, sans-serif" font-size="15" font-weight="700" fill="#4d8c6a">a/p=0.75</text><line x1="1195" y1="169" x2="1243" y2="169" stroke="#3b82b5" stroke-width="4" stroke-linecap="round" /><text x="1255" y="175" text-anchor="start" font-family="Source Han Sans SC, Microsoft YaHei, sans-serif" font-size="15" font-weight="700" fill="#3b82b5">a/p=1 轴向</text><line x1="1195" y1="209" x2="1243" y2="209" stroke="#7b4b74" stroke-width="4" stroke-linecap="round" stroke-dasharray="8 5" /><text x="1255" y="215" text-anchor="start" font-family="Source Han Sans SC, Microsoft YaHei, sans-serif" font-size="15" font-weight="700" fill="#7b4b74">a/p=1 对角</text><text x="1380" y="613" text-anchor="end" font-family="Source Han Sans SC, Microsoft YaHei, sans-serif" font-size="18" font-weight="400" fill="#627d98">归一化空间频率 νp / cycle·pixel⁻¹</text><text x="115" y="102" text-anchor="start" font-family="Source Han Sans SC, Microsoft YaHei, sans-serif" font-size="17" font-weight="400" fill="#627d98">|Hpixel|</text><text x="750.0" y="640" text-anchor="middle" font-family="Source Han Sans SC, Microsoft YaHei, sans-serif" font-size="20" font-weight="400" fill="#7b4b74">矩形孔径 Hpixel(νx,νy)=sinc(aνx)sinc(aνy)；二维对角响应是两个方向因子的乘积</text></svg>