<?xml version='1.0' encoding='utf-8'?>
<svg xmlns="http://www.w3.org/2000/svg" width="1500" height="690" viewBox="0 0 1500 690" role="img" aria-label="泊松分布与散粒噪声平方根定律"><defs><marker id="arrow-blue" markerWidth="10" markerHeight="8" refX="9" refY="4" orient="auto" markerUnits="strokeWidth"><path d="M 0 0 L 10 4 L 0 8 z" fill="#3b82b5" /></marker><marker id="arrow-dark" markerWidth="10" markerHeight="8" refX="9" refY="4" orient="auto" markerUnits="strokeWidth"><path d="M 0 0 L 10 4 L 0 8 z" fill="#334e68" /></marker><marker id="arrow-red" markerWidth="10" markerHeight="8" refX="9" refY="4" orient="auto" markerUnits="strokeWidth"><path d="M 0 0 L 10 4 L 0 8 z" fill="#c85b73" /></marker><marker id="arrow-green" markerWidth="10" markerHeight="8" refX="9" refY="4" orient="auto" markerUnits="strokeWidth"><path d="M 0 0 L 10 4 L 0 8 z" fill="#4d8c6a" /></marker><marker id="arrow-gold" markerWidth="10" markerHeight="8" refX="9" refY="4" orient="auto" markerUnits="strokeWidth"><path d="M 0 0 L 10 4 L 0 8 z" fill="#c58a2d" /></marker><marker id="arrow-purple" markerWidth="10" markerHeight="8" refX="9" refY="4" orient="auto" markerUnits="strokeWidth"><path d="M 0 0 L 10 4 L 0 8 z" fill="#7b4b74" /></marker></defs><rect width="1500" height="690" fill="#fbfdff" /><text x="750.0" y="43" text-anchor="middle" font-family="Source Han Sans SC, Microsoft YaHei, sans-serif" font-size="31" font-weight="700" fill="#102a43">绝对涨落变大，相对涨落却按 1/√μ 缩小</text><line x1="760" y1="82" x2="760" y2="610" stroke="#d7e0e7" stroke-width="2" stroke-linecap="round" /><text x="380" y="92" text-anchor="middle" font-family="Source Han Sans SC, Microsoft YaHei, sans-serif" font-size="24" font-weight="700" fill="#285b7a">不同均值的泊松计数</text><line x1="80" y1="540" x2="700" y2="540" stroke="#334e68" stroke-width="2" stroke-linecap="round" marker-end="url(#arrow-dark)" /><line x1="80" y1="540" x2="80" y2="145" stroke="#334e68" stroke-width="2" stroke-linecap="round" marker-end="url(#arrow-dark)" /><polyline points="80.00,511.12 84.77,424.46 89.54,308.93 94.31,231.90 99.08,231.90 103.85,293.52 108.62,375.68 113.38,446.10 118.15,493.05 122.92,519.13 127.69,531.65 132.46,536.96 137.23,538.99 142.00,539.69 146.77,539.91 151.54,539.98 156.31,539.99 161.08,540.00 165.85,540.00 170.62,540.00 175.38,540.00 180.15,540.00 184.92,540.00 189.69,540.00 194.46,540.00 199.23,540.00 204.00,540.00 208.77,540.00 213.54,540.00 218.31,540.00 223.08,540.00 227.85,540.00 232.62,540.00 237.38,540.00 242.15,540.00 246.92,540.00 251.69,540.00 256.46,540.00 261.23,540.00 266.00,540.00 270.77,540.00 275.54,540.00 280.31,540.00 285.08,540.00 289.85,540.00 294.62,540.00 299.38,540.00 304.15,540.00 308.92,540.00 313.69,540.00 318.46,540.00 323.23,540.00 328.00,540.00 332.77,540.00 337.54,540.00 342.31,540.00 347.08,540.00 351.85,540.00 356.62,540.00 361.38,540.00 366.15,540.00 370.92,540.00 375.69,540.00 380.46,540.00 385.23,540.00 390.00,540.00 394.77,540.00 399.54,540.00 404.31,540.00 409.08,540.00 413.85,540.00 418.62,540.00 423.38,540.00 428.15,540.00 432.92,540.00 437.69,540.00 442.46,540.00 447.23,540.00 452.00,540.00 456.77,540.00 461.54,540.00 466.31,540.00 471.08,540.00 475.85,540.00 480.62,540.00 485.38,540.00 490.15,540.00 494.92,540.00 499.69,540.00 504.46,540.00 509.23,540.00 514.00,540.00 518.77,540.00 523.54,540.00 528.31,540.00 533.08,540.00 537.85,540.00 542.62,540.00 547.38,540.00 552.15,540.00 556.92,540.00 561.69,540.00 566.46,540.00 571.23,540.00 576.00,540.00 580.77,540.00 585.54,540.00 590.31,540.00 595.08,540.00 599.85,540.00 604.62,540.00 609.38,540.00 614.15,540.00 618.92,540.00 623.69,540.00 628.46,540.00 633.23,540.00 638.00,540.00 642.77,540.00 647.54,540.00 652.31,540.00 657.08,540.00 661.85,540.00 666.62,540.00 671.38,540.00 676.15,540.00 680.92,540.00 685.69,540.00 690.46,540.00 695.23,540.00 700.00,540.00" stroke="#c85b73" stroke-width="4" fill="none" stroke-linejoin="round" stroke-linecap="round" /><line x1="99.07692307692308" y1="540" x2="99.07692307692308" y2="224.0" stroke="#c85b73" stroke-width="2" stroke-linecap="round" stroke-dasharray="8 6" /><text x="99.07692307692308" y="170" text-anchor="middle" font-family="Source Han Sans SC, Microsoft YaHei, sans-serif" font-size="18" font-weight="700" fill="#c85b73">μ=4</text><polyline points="80.00,540.00 84.77,540.00 89.54,540.00 94.31,540.00 99.08,540.00 103.85,540.00 108.62,539.98 113.38,539.93 118.15,539.80 122.92,539.43 127.69,538.59 132.46,536.79 137.23,533.30 142.00,527.12 146.77,517.01 151.54,501.68 156.31,480.12 161.08,451.95 165.85,417.70 170.62,379.08 175.38,338.85 180.15,300.54 184.92,267.89 189.69,244.22 194.46,231.90 199.23,231.90 204.00,243.75 208.77,265.69 213.54,295.08 218.31,328.87 223.08,364.05 227.85,398.11 232.62,429.15 237.38,456.02 242.15,478.25 246.92,495.89 251.69,509.37 256.46,519.30 261.23,526.38 266.00,531.27 270.77,534.55 275.54,536.67 280.31,538.02 285.08,538.85 289.85,539.35 294.62,539.64 299.38,539.80 304.15,539.89 308.92,539.95 313.69,539.97 318.46,539.99 323.23,539.99 328.00,540.00 332.77,540.00 337.54,540.00 342.31,540.00 347.08,540.00 351.85,540.00 356.62,540.00 361.38,540.00 366.15,540.00 370.92,540.00 375.69,540.00 380.46,540.00 385.23,540.00 390.00,540.00 394.77,540.00 399.54,540.00 404.31,540.00 409.08,540.00 413.85,540.00 418.62,540.00 423.38,540.00 428.15,540.00 432.92,540.00 437.69,540.00 442.46,540.00 447.23,540.00 452.00,540.00 456.77,540.00 461.54,540.00 466.31,540.00 471.08,540.00 475.85,540.00 480.62,540.00 485.38,540.00 490.15,540.00 494.92,540.00 499.69,540.00 504.46,540.00 509.23,540.00 514.00,540.00 518.77,540.00 523.54,540.00 528.31,540.00 533.08,540.00 537.85,540.00 542.62,540.00 547.38,540.00 552.15,540.00 556.92,540.00 561.69,540.00 566.46,540.00 571.23,540.00 576.00,540.00 580.77,540.00 585.54,540.00 590.31,540.00 595.08,540.00 599.85,540.00 604.62,540.00 609.38,540.00 614.15,540.00 618.92,540.00 623.69,540.00 628.46,540.00 633.23,540.00 638.00,540.00 642.77,540.00 647.54,540.00 652.31,540.00 657.08,540.00 661.85,540.00 666.62,540.00 671.38,540.00 676.15,540.00 680.92,540.00 685.69,540.00 690.46,540.00 695.23,540.00 700.00,540.00" stroke="#3b82b5" stroke-width="4" fill="none" stroke-linejoin="round" stroke-linecap="round" /><line x1="199.23076923076923" y1="540" x2="199.23076923076923" y2="224.0" stroke="#3b82b5" stroke-width="2" stroke-linecap="round" stroke-dasharray="8 6" /><text x="199.23076923076923" y="202" text-anchor="middle" font-family="Source Han Sans SC, Microsoft YaHei, sans-serif" font-size="18" font-weight="700" fill="#3b82b5">μ=25</text><polyline points="80.00,540.00 84.77,540.00 89.54,540.00 94.31,540.00 99.08,540.00 103.85,540.00 108.62,540.00 113.38,540.00 118.15,540.00 122.92,540.00 127.69,540.00 132.46,540.00 137.23,540.00 142.00,540.00 146.77,540.00 151.54,540.00 156.31,540.00 161.08,540.00 165.85,540.00 170.62,540.00 175.38,540.00 180.15,540.00 184.92,540.00 189.69,540.00 194.46,540.00 199.23,540.00 204.00,540.00 208.77,540.00 213.54,540.00 218.31,540.00 223.08,540.00 227.85,540.00 232.62,540.00 237.38,540.00 242.15,540.00 246.92,540.00 251.69,540.00 256.46,540.00 261.23,540.00 266.00,540.00 270.77,540.00 275.54,540.00 280.31,540.00 285.08,540.00 289.85,540.00 294.62,540.00 299.38,540.00 304.15,540.00 308.92,540.00 313.69,540.00 318.46,540.00 323.23,540.00 328.00,540.00 332.77,540.00 337.54,540.00 342.31,540.00 347.08,540.00 351.85,539.99 356.62,539.99 361.38,539.98 366.15,539.97 370.92,539.94 375.69,539.91 380.46,539.85 385.23,539.77 390.00,539.65 394.77,539.47 399.54,539.21 404.31,538.84 409.08,538.32 413.85,537.60 418.62,536.62 423.38,535.30 428.15,533.57 432.92,531.31 437.69,528.41 442.46,524.75 447.23,520.19 452.00,514.61 456.77,507.86 461.54,499.82 466.31,490.40 471.08,479.51 475.85,467.12 480.62,453.24 485.38,437.93 490.15,421.32 494.92,403.58 499.69,384.98 504.46,365.82 509.23,346.46 514.00,327.32 518.77,308.83 523.54,291.43 528.31,275.56 533.08,261.65 537.85,250.05 542.62,241.08 547.38,234.98 552.15,231.90 556.92,231.90 561.69,234.95 566.46,240.93 571.23,249.64 576.00,260.81 580.77,274.10 585.54,289.16 590.31,305.57 595.08,322.93 599.85,340.85 604.62,358.96 609.38,376.90 614.15,394.37 618.92,411.13 623.69,426.95 628.46,441.70 633.23,455.26 638.00,467.57 642.77,478.62 647.54,488.42 652.31,497.02 657.08,504.48 661.85,510.88 666.62,516.33 671.38,520.91 676.15,524.73 680.92,527.88 685.69,530.46 690.46,532.54 695.23,534.22 700.00,535.55" stroke="#4d8c6a" stroke-width="4" fill="none" stroke-linejoin="round" stroke-linecap="round" /><line x1="556.9230769230769" y1="540" x2="556.9230769230769" y2="224.0" stroke="#4d8c6a" stroke-width="2" stroke-linecap="round" stroke-dasharray="8 6" /><text x="556.9230769230769" y="234" text-anchor="middle" font-family="Source Han Sans SC, Microsoft YaHei, sans-serif" font-size="18" font-weight="700" fill="#4d8c6a">μ=100</text><text x="700" y="575" text-anchor="end" font-family="Source Han Sans SC, Microsoft YaHei, sans-serif" font-size="17" font-weight="400" fill="#627d98">电子计数 N</text><text x="72" y="133" text-anchor="start" font-family="Source Han Sans SC, Microsoft YaHei, sans-serif" font-size="16" font-weight="400" fill="#627d98">归一化形状</text><text x="380" y="590" text-anchor="middle" font-family="Source Han Sans SC, Microsoft YaHei, sans-serif" font-size="20" font-weight="400" fill="#7b4b74">标准差 σ=√μ；相对标准差 σ/μ=1/√μ</text><text x="1130" y="92" text-anchor="middle" font-family="Source Han Sans SC, Microsoft YaHei, sans-serif" font-size="24" font-weight="700" fill="#397456">散粒受限 SNR = √μ</text><line x1="840" y1="540" x2="1410" y2="540" stroke="#334e68" stroke-width="2" stroke-linecap="round" marker-end="url(#arrow-dark)" /><line x1="840" y1="540" x2="840" y2="145" stroke="#334e68" stroke-width="2" stroke-linecap="round" marker-end="url(#arrow-dark)" /><line x1="840.0" y1="145" x2="840.0" y2="540" stroke="#e0e7ec" stroke-width="1.2" stroke-linecap="round" /><text x="840.0" y="573" text-anchor="middle" font-family="Source Han Sans SC, Microsoft YaHei, sans-serif" font-size="15" font-weight="400" fill="#627d98">10^0</text><line x1="935.0" y1="145" x2="935.0" y2="540" stroke="#e0e7ec" stroke-width="1.2" stroke-linecap="round" /><text x="935.0" y="573" text-anchor="middle" font-family="Source Han Sans SC, Microsoft YaHei, sans-serif" font-size="15" font-weight="400" fill="#627d98">10^1</text><line x1="1030.0" y1="145" x2="1030.0" y2="540" stroke="#e0e7ec" stroke-width="1.2" stroke-linecap="round" /><text x="1030.0" y="573" text-anchor="middle" font-family="Source Han Sans SC, Microsoft YaHei, sans-serif" font-size="15" font-weight="400" fill="#627d98">10^2</text><line x1="1125.0" y1="145" x2="1125.0" y2="540" stroke="#e0e7ec" stroke-width="1.2" stroke-linecap="round" /><text x="1125.0" y="573" text-anchor="middle" font-family="Source Han Sans SC, Microsoft YaHei, sans-serif" font-size="15" font-weight="400" fill="#627d98">10^3</text><line x1="1220.0" y1="145" x2="1220.0" y2="540" stroke="#e0e7ec" stroke-width="1.2" stroke-linecap="round" /><text x="1220.0" y="573" text-anchor="middle" font-family="Source Han Sans SC, Microsoft YaHei, sans-serif" font-size="15" font-weight="400" fill="#627d98">10^4</text><line x1="1315.0" y1="145" x2="1315.0" y2="540" stroke="#e0e7ec" stroke-width="1.2" stroke-linecap="round" /><text x="1315.0" y="573" text-anchor="middle" font-family="Source Han Sans SC, Microsoft YaHei, sans-serif" font-size="15" font-weight="400" fill="#627d98">10^5</text><line x1="1410.0" y1="145" x2="1410.0" y2="540" stroke="#e0e7ec" stroke-width="1.2" stroke-linecap="round" /><text x="1410.0" y="573" text-anchor="middle" font-family="Source Han Sans SC, Microsoft YaHei, sans-serif" font-size="15" font-weight="400" fill="#627d98">10^6</text><line x1="840" y1="540.0" x2="1410" y2="540.0" stroke="#e0e7ec" stroke-width="1.2" stroke-linecap="round" /><text x="824" y="545.0" text-anchor="end" font-family="Source Han Sans SC, Microsoft YaHei, sans-serif" font-size="15" font-weight="400" fill="#627d98">10^0</text><line x1="840" y1="408.33333333333337" x2="1410" y2="408.33333333333337" stroke="#e0e7ec" stroke-width="1.2" stroke-linecap="round" /><text x="824" y="413.33333333333337" text-anchor="end" font-family="Source Han Sans SC, Microsoft YaHei, sans-serif" font-size="15" font-weight="400" fill="#627d98">10^1</text><line x1="840" y1="276.6666666666667" x2="1410" y2="276.6666666666667" stroke="#e0e7ec" stroke-width="1.2" stroke-linecap="round" /><text x="824" y="281.6666666666667" text-anchor="end" font-family="Source Han Sans SC, Microsoft YaHei, sans-serif" font-size="15" font-weight="400" fill="#627d98">10^2</text><line x1="840" y1="145.0" x2="1410" y2="145.0" stroke="#e0e7ec" stroke-width="1.2" stroke-linecap="round" /><text x="824" y="150.0" text-anchor="end" font-family="Source Han Sans SC, Microsoft YaHei, sans-serif" font-size="15" font-weight="400" fill="#627d98">10^3</text><polyline points="840.00,540.00 842.38,538.35 844.75,536.71 847.12,535.06 849.50,533.42 851.88,531.77 854.25,530.12 856.62,528.48 859.00,526.83 861.38,525.19 863.75,523.54 866.12,521.90 868.50,520.25 870.88,518.60 873.25,516.96 875.62,515.31 878.00,513.67 880.38,512.02 882.75,510.38 885.12,508.73 887.50,507.08 889.88,505.44 892.25,503.79 894.62,502.15 897.00,500.50 899.38,498.85 901.75,497.21 904.12,495.56 906.50,493.92 908.88,492.27 911.25,490.62 913.62,488.98 916.00,487.33 918.38,485.69 920.75,484.04 923.12,482.40 925.50,480.75 927.88,479.10 930.25,477.46 932.62,475.81 935.00,474.17 937.38,472.52 939.75,470.88 942.12,469.23 944.50,467.58 946.88,465.94 949.25,464.29 951.62,462.65 954.00,461.00 956.38,459.35 958.75,457.71 961.12,456.06 963.50,454.42 965.88,452.77 968.25,451.12 970.62,449.48 973.00,447.83 975.38,446.19 977.75,444.54 980.12,442.90 982.50,441.25 984.88,439.60 987.25,437.96 989.62,436.31 992.00,434.67 994.38,433.02 996.75,431.38 999.12,429.73 1001.50,428.08 1003.88,426.44 1006.25,424.79 1008.62,423.15 1011.00,421.50 1013.38,419.85 1015.75,418.21 1018.12,416.56 1020.50,414.92 1022.88,413.27 1025.25,411.62 1027.62,409.98 1030.00,408.33 1032.38,406.69 1034.75,405.04 1037.12,403.40 1039.50,401.75 1041.88,400.10 1044.25,398.46 1046.62,396.81 1049.00,395.17 1051.38,393.52 1053.75,391.88 1056.12,390.23 1058.50,388.58 1060.88,386.94 1063.25,385.29 1065.62,383.65 1068.00,382.00 1070.38,380.35 1072.75,378.71 1075.12,377.06 1077.50,375.42 1079.88,373.77 1082.25,372.12 1084.62,370.48 1087.00,368.83 1089.38,367.19 1091.75,365.54 1094.12,363.90 1096.50,362.25 1098.88,360.60 1101.25,358.96 1103.62,357.31 1106.00,355.67 1108.38,354.02 1110.75,352.38 1113.12,350.73 1115.50,349.08 1117.88,347.44 1120.25,345.79 1122.62,344.15 1125.00,342.50 1127.38,340.85 1129.75,339.21 1132.12,337.56 1134.50,335.92 1136.88,334.27 1139.25,332.62 1141.62,330.98 1144.00,329.33 1146.38,327.69 1148.75,326.04 1151.12,324.40 1153.50,322.75 1155.88,321.10 1158.25,319.46 1160.62,317.81 1163.00,316.17 1165.38,314.52 1167.75,312.88 1170.12,311.23 1172.50,309.58 1174.88,307.94 1177.25,306.29 1179.62,304.65 1182.00,303.00 1184.38,301.35 1186.75,299.71 1189.12,298.06 1191.50,296.42 1193.88,294.77 1196.25,293.12 1198.62,291.48 1201.00,289.83 1203.38,288.19 1205.75,286.54 1208.12,284.90 1210.50,283.25 1212.88,281.60 1215.25,279.96 1217.62,278.31 1220.00,276.67 1222.38,275.02 1224.75,273.38 1227.12,271.73 1229.50,270.08 1231.88,268.44 1234.25,266.79 1236.62,265.15 1239.00,263.50 1241.38,261.85 1243.75,260.21 1246.12,258.56 1248.50,256.92 1250.88,255.27 1253.25,253.63 1255.62,251.98 1258.00,250.33 1260.38,248.69 1262.75,247.04 1265.12,245.40 1267.50,243.75 1269.88,242.10 1272.25,240.46 1274.62,238.81 1277.00,237.17 1279.38,235.52 1281.75,233.87 1284.12,232.23 1286.50,230.58 1288.88,228.94 1291.25,227.29 1293.62,225.65 1296.00,224.00 1298.38,222.35 1300.75,220.71 1303.12,219.06 1305.50,217.42 1307.88,215.77 1310.25,214.12 1312.62,212.48 1315.00,210.83 1317.38,209.19 1319.75,207.54 1322.12,205.90 1324.50,204.25 1326.88,202.60 1329.25,200.96 1331.62,199.31 1334.00,197.67 1336.38,196.02 1338.75,194.38 1341.12,192.73 1343.50,191.08 1345.88,189.44 1348.25,187.79 1350.62,186.15 1353.00,184.50 1355.38,182.85 1357.75,181.21 1360.12,179.56 1362.50,177.92 1364.88,176.27 1367.25,174.62 1369.62,172.98 1372.00,171.33 1374.38,169.69 1376.75,168.04 1379.12,166.40 1381.50,164.75 1383.88,163.10 1386.25,161.46 1388.62,159.81 1391.00,158.17 1393.38,156.52 1395.75,154.88 1398.12,153.23 1400.50,151.58 1402.88,149.94 1405.25,148.29 1407.62,146.65 1410.00,145.00" stroke="#4d8c6a" stroke-width="5" fill="none" stroke-linejoin="round" stroke-linecap="round" /><circle cx="1030.0" cy="408.33333333333337" r="7" fill="#4d8c6a" /><text x="1044.0" y="393.33333333333337" text-anchor="start" font-family="Source Han Sans SC, Microsoft YaHei, sans-serif" font-size="16" font-weight="700" fill="#397456">100 e⁻ → SNR 10</text><circle cx="1220.0" cy="276.6666666666667" r="7" fill="#4d8c6a" /><text x="1234.0" y="261.6666666666667" text-anchor="start" font-family="Source Han Sans SC, Microsoft YaHei, sans-serif" font-size="16" font-weight="700" fill="#397456">10⁴ e⁻ → SNR 100</text><text x="1130" y="590" text-anchor="middle" font-family="Source Han Sans SC, Microsoft YaHei, sans-serif" font-size="20" font-weight="400" fill="#7b4b74">SNR 加倍需要 4 倍电子；增加一档只提高 √2</text></svg>