<?xml version='1.0' encoding='utf-8'?>
<svg xmlns="http://www.w3.org/2000/svg" width="1450" height="650" viewBox="0 0 1450 650" role="img" aria-label="量子效率与彩色通道的光谱响应"><defs><marker id="arrow-blue" markerWidth="10" markerHeight="8" refX="9" refY="4" orient="auto" markerUnits="strokeWidth"><path d="M 0 0 L 10 4 L 0 8 z" fill="#3b82b5" /></marker><marker id="arrow-dark" markerWidth="10" markerHeight="8" refX="9" refY="4" orient="auto" markerUnits="strokeWidth"><path d="M 0 0 L 10 4 L 0 8 z" fill="#334e68" /></marker><marker id="arrow-red" markerWidth="10" markerHeight="8" refX="9" refY="4" orient="auto" markerUnits="strokeWidth"><path d="M 0 0 L 10 4 L 0 8 z" fill="#c85b73" /></marker><marker id="arrow-green" markerWidth="10" markerHeight="8" refX="9" refY="4" orient="auto" markerUnits="strokeWidth"><path d="M 0 0 L 10 4 L 0 8 z" fill="#4d8c6a" /></marker><marker id="arrow-gold" markerWidth="10" markerHeight="8" refX="9" refY="4" orient="auto" markerUnits="strokeWidth"><path d="M 0 0 L 10 4 L 0 8 z" fill="#c58a2d" /></marker></defs><rect width="1450" height="650" fill="#fbfdff" /><text x="725.0" y="43" text-anchor="middle" font-family="Source Han Sans SC, Microsoft YaHei, sans-serif" font-size="31" font-weight="700" fill="#102a43">量子效率是波长函数，彩色滤光片进一步选择光谱</text><line x1="135" y1="535" x2="1350" y2="535" stroke="#334e68" stroke-width="2" stroke-linecap="round" marker-end="url(#arrow-dark)" /><line x1="135" y1="535" x2="135" y2="120" stroke="#334e68" stroke-width="2" stroke-linecap="round" marker-end="url(#arrow-dark)" /><line x1="135.0" y1="120" x2="135.0" y2="535" stroke="#e0e7ec" stroke-width="1.2" stroke-linecap="round" /><text x="135.0" y="569" text-anchor="middle" font-family="Source Han Sans SC, Microsoft YaHei, sans-serif" font-size="16" font-weight="400" fill="#627d98">400</text><line x1="337.5" y1="120" x2="337.5" y2="535" stroke="#e0e7ec" stroke-width="1.2" stroke-linecap="round" /><text x="337.5" y="569" text-anchor="middle" font-family="Source Han Sans SC, Microsoft YaHei, sans-serif" font-size="16" font-weight="400" fill="#627d98">450</text><line x1="540.0" y1="120" x2="540.0" y2="535" stroke="#e0e7ec" stroke-width="1.2" stroke-linecap="round" /><text x="540.0" y="569" text-anchor="middle" font-family="Source Han Sans SC, Microsoft YaHei, sans-serif" font-size="16" font-weight="400" fill="#627d98">500</text><line x1="742.5" y1="120" x2="742.5" y2="535" stroke="#e0e7ec" stroke-width="1.2" stroke-linecap="round" /><text x="742.5" y="569" text-anchor="middle" font-family="Source Han Sans SC, Microsoft YaHei, sans-serif" font-size="16" font-weight="400" fill="#627d98">550</text><line x1="945.0" y1="120" x2="945.0" y2="535" stroke="#e0e7ec" stroke-width="1.2" stroke-linecap="round" /><text x="945.0" y="569" text-anchor="middle" font-family="Source Han Sans SC, Microsoft YaHei, sans-serif" font-size="16" font-weight="400" fill="#627d98">600</text><line x1="1147.5" y1="120" x2="1147.5" y2="535" stroke="#e0e7ec" stroke-width="1.2" stroke-linecap="round" /><text x="1147.5" y="569" text-anchor="middle" font-family="Source Han Sans SC, Microsoft YaHei, sans-serif" font-size="16" font-weight="400" fill="#627d98">650</text><line x1="1350.0" y1="120" x2="1350.0" y2="535" stroke="#e0e7ec" stroke-width="1.2" stroke-linecap="round" /><text x="1350.0" y="569" text-anchor="middle" font-family="Source Han Sans SC, Microsoft YaHei, sans-serif" font-size="16" font-weight="400" fill="#627d98">700</text><line x1="135" y1="431.25" x2="1350" y2="431.25" stroke="#e0e7ec" stroke-width="1.2" stroke-linecap="round" /><text x="117" y="436.25" text-anchor="end" font-family="Source Han Sans SC, Microsoft YaHei, sans-serif" font-size="15" font-weight="400" fill="#627d98">0.25</text><line x1="135" y1="327.5" x2="1350" y2="327.5" stroke="#e0e7ec" stroke-width="1.2" stroke-linecap="round" /><text x="117" y="332.5" text-anchor="end" font-family="Source Han Sans SC, Microsoft YaHei, sans-serif" font-size="15" font-weight="400" fill="#627d98">0.50</text><line x1="135" y1="223.75" x2="1350" y2="223.75" stroke="#e0e7ec" stroke-width="1.2" stroke-linecap="round" /><text x="117" y="228.75" text-anchor="end" font-family="Source Han Sans SC, Microsoft YaHei, sans-serif" font-size="15" font-weight="400" fill="#627d98">0.75</text><line x1="135" y1="120.0" x2="1350" y2="120.0" stroke="#e0e7ec" stroke-width="1.2" stroke-linecap="round" /><text x="117" y="125.0" text-anchor="end" font-family="Source Han Sans SC, Microsoft YaHei, sans-serif" font-size="15" font-weight="400" fill="#627d98">1.00</text><text x="1350" y="597" text-anchor="end" font-family="Source Han Sans SC, Microsoft YaHei, sans-serif" font-size="18" font-weight="400" fill="#627d98">波长 λ / nm</text><text x="120" y="108" text-anchor="start" font-family="Source Han Sans SC, Microsoft YaHei, sans-serif" font-size="18" font-weight="400" fill="#627d98">相对响应</text><polyline points="135.00,391.10 139.05,389.41 143.10,387.71 147.15,386.00 151.20,384.28 155.25,382.56 159.30,380.82 163.35,379.08 167.40,377.33 171.45,375.58 175.50,373.81 179.55,372.04 183.60,370.27 187.65,368.48 191.70,366.69 195.75,364.89 199.80,363.09 203.85,361.28 207.90,359.46 211.95,357.64 216.00,355.81 220.05,353.98 224.10,352.15 228.15,350.31 232.20,348.46 236.25,346.61 240.30,344.76 244.35,342.90 248.40,341.04 252.45,339.17 256.50,337.31 260.55,335.44 264.60,333.56 268.65,331.69 272.70,329.81 276.75,327.94 280.80,326.06 284.85,324.17 288.90,322.29 292.95,320.41 297.00,318.53 301.05,316.65 305.10,314.76 309.15,312.88 313.20,311.00 317.25,309.12 321.30,307.25 325.35,305.37 329.40,303.50 333.45,301.62 337.50,299.75 341.55,297.89 345.60,296.02 349.65,294.17 353.70,292.31 357.75,290.46 361.80,288.61 365.85,286.77 369.90,284.93 373.95,283.10 378.00,281.28 382.05,279.46 386.10,277.64 390.15,275.84 394.20,274.04 398.25,272.25 402.30,270.46 406.35,268.69 410.40,266.92 414.45,265.16 418.50,263.41 422.55,261.67 426.60,259.94 430.65,258.22 434.70,256.50 438.75,254.80 442.80,253.11 446.85,251.44 450.90,249.77 454.95,248.12 459.00,246.47 463.05,244.84 467.10,243.23 471.15,241.62 475.20,240.03 479.25,238.45 483.30,236.89 487.35,235.34 491.40,233.81 495.45,232.29 499.50,230.79 503.55,229.30 507.60,227.83 511.65,226.38 515.70,224.94 519.75,223.52 523.80,222.11 527.85,220.72 531.90,219.35 535.95,218.00 540.00,216.67 544.05,215.36 548.10,214.06 552.15,212.78 556.20,211.53 560.25,210.29 564.30,209.07 568.35,207.87 572.40,206.70 576.45,205.54 580.50,204.40 584.55,203.29 588.60,202.20 592.65,201.13 596.70,200.08 600.75,199.05 604.80,198.04 608.85,197.06 612.90,196.10 616.95,195.17 621.00,194.25 625.05,193.36 629.10,192.50 633.15,191.65 637.20,190.83 641.25,190.04 645.30,189.27 649.35,188.52 653.40,187.80 657.45,187.11 661.50,186.43 665.55,185.79 669.60,185.17 673.65,184.57 677.70,184.00 681.75,183.46 685.80,182.94 689.85,182.45 693.90,181.98 697.95,181.54 702.00,181.12 706.05,180.73 710.10,180.37 714.15,180.04 718.20,179.73 722.25,179.45 726.30,179.19 730.35,178.96 734.40,178.76 738.45,178.59 742.50,178.44 746.55,178.32 750.60,178.22 754.65,178.15 758.70,178.11 762.75,178.10 766.80,178.11 770.85,178.15 774.90,178.22 778.95,178.32 783.00,178.44 787.05,178.59 791.10,178.76 795.15,178.96 799.20,179.19 803.25,179.45 807.30,179.73 811.35,180.04 815.40,180.37 819.45,180.73 823.50,181.12 827.55,181.54 831.60,181.98 835.65,182.45 839.70,182.94 843.75,183.46 847.80,184.00 851.85,184.57 855.90,185.17 859.95,185.79 864.00,186.43 868.05,187.11 872.10,187.80 876.15,188.52 880.20,189.27 884.25,190.04 888.30,190.83 892.35,191.65 896.40,192.50 900.45,193.36 904.50,194.25 908.55,195.17 912.60,196.10 916.65,197.06 920.70,198.04 924.75,199.05 928.80,200.08 932.85,201.13 936.90,202.20 940.95,203.29 945.00,204.40 949.05,205.54 953.10,206.70 957.15,207.87 961.20,209.07 965.25,210.29 969.30,211.53 973.35,212.78 977.40,214.06 981.45,215.36 985.50,216.67 989.55,218.00 993.60,219.35 997.65,220.72 1001.70,222.11 1005.75,223.52 1009.80,224.94 1013.85,226.38 1017.90,227.83 1021.95,229.30 1026.00,230.79 1030.05,232.29 1034.10,233.81 1038.15,235.34 1042.20,236.89 1046.25,238.45 1050.30,240.03 1054.35,241.62 1058.40,243.23 1062.45,244.84 1066.50,246.47 1070.55,248.12 1074.60,249.77 1078.65,251.44 1082.70,253.11 1086.75,254.80 1090.80,256.50 1094.85,258.22 1098.90,259.94 1102.95,261.67 1107.00,263.41 1111.05,265.16 1115.10,266.92 1119.15,268.69 1123.20,270.46 1127.25,272.25 1131.30,274.04 1135.35,275.84 1139.40,277.64 1143.45,279.46 1147.50,281.28 1151.55,283.10 1155.60,284.93 1159.65,286.77 1163.70,288.61 1167.75,290.46 1171.80,292.31 1175.85,294.17 1179.90,296.02 1183.95,297.89 1188.00,299.75 1192.05,301.62 1196.10,303.50 1200.15,305.37 1204.20,307.25 1208.25,309.12 1212.30,311.00 1216.35,312.88 1220.40,314.76 1224.45,316.65 1228.50,318.53 1232.55,320.41 1236.60,322.29 1240.65,324.17 1244.70,326.06 1248.75,327.94 1252.80,329.81 1256.85,331.69 1260.90,333.56 1264.95,335.44 1269.00,337.31 1273.05,339.17 1277.10,341.04 1281.15,342.90 1285.20,344.76 1289.25,346.61 1293.30,348.46 1297.35,350.31 1301.40,352.15 1305.45,353.98 1309.50,355.81 1313.55,357.64 1317.60,359.46 1321.65,361.28 1325.70,363.09 1329.75,364.89 1333.80,366.69 1337.85,368.48 1341.90,370.27 1345.95,372.04 1350.00,373.81" stroke="#7b4b74" stroke-width="4" fill="none" stroke-linejoin="round" stroke-linecap="round" stroke-dasharray="10 7" /><polyline points="135.00,437.80 139.05,434.62 143.10,431.40 147.15,428.13 151.20,424.81 155.25,421.45 159.30,418.05 163.35,414.62 167.40,411.15 171.45,407.66 175.50,404.13 179.55,400.58 183.60,397.01 187.65,393.42 191.70,389.81 195.75,386.19 199.80,382.57 203.85,378.94 207.90,375.31 211.95,371.69 216.00,368.07 220.05,364.47 224.10,360.88 228.15,357.31 232.20,353.77 236.25,350.25 240.30,346.77 244.35,343.33 248.40,339.93 252.45,336.58 256.50,333.28 260.55,330.04 264.60,326.85 268.65,323.74 272.70,320.69 276.75,317.71 280.80,314.81 284.85,312.00 288.90,309.27 292.95,306.62 297.00,304.08 301.05,301.63 305.10,299.28 309.15,297.04 313.20,294.91 317.25,292.89 321.30,290.98 325.35,289.19 329.40,287.53 333.45,285.98 337.50,284.56 341.55,283.27 345.60,282.11 349.65,281.09 353.70,280.19 357.75,279.43 361.80,278.81 365.85,278.33 369.90,277.98 373.95,277.77 378.00,277.70 382.05,277.77 386.10,277.98 390.15,278.33 394.20,278.81 398.25,279.43 402.30,280.19 406.35,281.09 410.40,282.11 414.45,283.27 418.50,284.56 422.55,285.98 426.60,287.53 430.65,289.19 434.70,290.98 438.75,292.89 442.80,294.91 446.85,297.04 450.90,299.28 454.95,301.63 459.00,304.08 463.05,306.62 467.10,309.27 471.15,312.00 475.20,314.81 479.25,317.71 483.30,320.69 487.35,323.74 491.40,326.85 495.45,330.04 499.50,333.28 503.55,336.58 507.60,339.93 511.65,343.33 515.70,346.77 519.75,350.25 523.80,353.77 527.85,357.31 531.90,360.88 535.95,364.47 540.00,368.07 544.05,371.69 548.10,375.31 552.15,378.94 556.20,382.57 560.25,386.19 564.30,389.81 568.35,393.42 572.40,397.01 576.45,400.58 580.50,404.13 584.55,407.66 588.60,411.15 592.65,414.62 596.70,418.05 600.75,421.45 604.80,424.81 608.85,428.13 612.90,431.40 616.95,434.62 621.00,437.80 625.05,440.93 629.10,444.01 633.15,447.03 637.20,450.00 641.25,452.92 645.30,455.77 649.35,458.57 653.40,461.31 657.45,463.99 661.50,466.61 665.55,469.17 669.60,471.67 673.65,474.10 677.70,476.48 681.75,478.79 685.80,481.04 689.85,483.22 693.90,485.35 697.95,487.41 702.00,489.42 706.05,491.36 710.10,493.24 714.15,495.06 718.20,496.82 722.25,498.53 726.30,500.18 730.35,501.77 734.40,503.31 738.45,504.79 742.50,506.21 746.55,507.59 750.60,508.91 754.65,510.19 758.70,511.41 762.75,512.58 766.80,513.71 770.85,514.80 774.90,515.83 778.95,516.83 783.00,517.78 787.05,518.69 791.10,519.56 795.15,520.39 799.20,521.19 803.25,521.95 807.30,522.67 811.35,523.36 815.40,524.02 819.45,524.65 823.50,525.24 827.55,525.81 831.60,526.34 835.65,526.86 839.70,527.34 843.75,527.80 847.80,528.24 851.85,528.65 855.90,529.04 859.95,529.41 864.00,529.76 868.05,530.09 872.10,530.40 876.15,530.70 880.20,530.98 884.25,531.24 888.30,531.48 892.35,531.72 896.40,531.94 900.45,532.14 904.50,532.33 908.55,532.52 912.60,532.69 916.65,532.85 920.70,533.00 924.75,533.14 928.80,533.27 932.85,533.39 936.90,533.51 940.95,533.62 945.00,533.72 949.05,533.81 953.10,533.90 957.15,533.98 961.20,534.06 965.25,534.13 969.30,534.19 973.35,534.25 977.40,534.31 981.45,534.36 985.50,534.41 989.55,534.46 993.60,534.50 997.65,534.54 1001.70,534.58 1005.75,534.61 1009.80,534.64 1013.85,534.67 1017.90,534.70 1021.95,534.72 1026.00,534.75 1030.05,534.77 1034.10,534.79 1038.15,534.80 1042.20,534.82 1046.25,534.84 1050.30,534.85 1054.35,534.86 1058.40,534.88 1062.45,534.89 1066.50,534.90 1070.55,534.91 1074.60,534.91 1078.65,534.92 1082.70,534.93 1086.75,534.93 1090.80,534.94 1094.85,534.95 1098.90,534.95 1102.95,534.96 1107.00,534.96 1111.05,534.96 1115.10,534.97 1119.15,534.97 1123.20,534.97 1127.25,534.98 1131.30,534.98 1135.35,534.98 1139.40,534.98 1143.45,534.98 1147.50,534.99 1151.55,534.99 1155.60,534.99 1159.65,534.99 1163.70,534.99 1167.75,534.99 1171.80,534.99 1175.85,534.99 1179.90,534.99 1183.95,534.99 1188.00,534.99 1192.05,535.00 1196.10,535.00 1200.15,535.00 1204.20,535.00 1208.25,535.00 1212.30,535.00 1216.35,535.00 1220.40,535.00 1224.45,535.00 1228.50,535.00 1232.55,535.00 1236.60,535.00 1240.65,535.00 1244.70,535.00 1248.75,535.00 1252.80,535.00 1256.85,535.00 1260.90,535.00 1264.95,535.00 1269.00,535.00 1273.05,535.00 1277.10,535.00 1281.15,535.00 1285.20,535.00 1289.25,535.00 1293.30,535.00 1297.35,535.00 1301.40,535.00 1305.45,535.00 1309.50,535.00 1313.55,535.00 1317.60,535.00 1321.65,535.00 1325.70,535.00 1329.75,535.00 1333.80,535.00 1337.85,535.00 1341.90,535.00 1345.95,535.00 1350.00,535.00" stroke="#536fc5" stroke-width="4" fill="none" stroke-linejoin="round" stroke-linecap="round" /><polyline points="135.00,530.87 139.05,530.61 143.10,530.34 147.15,530.05 151.20,529.75 155.25,529.43 159.30,529.10 163.35,528.75 167.40,528.38 171.45,527.99 175.50,527.58 179.55,527.15 183.60,526.70 187.65,526.23 191.70,525.73 195.75,525.22 199.80,524.67 203.85,524.10 207.90,523.51 211.95,522.89 216.00,522.24 220.05,521.56 224.10,520.85 228.15,520.11 232.20,519.33 236.25,518.53 240.30,517.69 244.35,516.82 248.40,515.91 252.45,514.96 256.50,513.97 260.55,512.95 264.60,511.89 268.65,510.78 272.70,509.64 276.75,508.45 280.80,507.22 284.85,505.94 288.90,504.62 292.95,503.25 297.00,501.84 301.05,500.37 305.10,498.86 309.15,497.30 313.20,495.69 317.25,494.02 321.30,492.31 325.35,490.54 329.40,488.72 333.45,486.84 337.50,484.91 341.55,482.93 345.60,480.89 349.65,478.79 353.70,476.64 357.75,474.44 361.80,472.17 365.85,469.86 369.90,467.48 373.95,465.05 378.00,462.56 382.05,460.02 386.10,457.42 390.15,454.77 394.20,452.06 398.25,449.30 402.30,446.48 406.35,443.61 410.40,440.69 414.45,437.72 418.50,434.69 422.55,431.62 426.60,428.50 430.65,425.34 434.70,422.12 438.75,418.87 442.80,415.57 446.85,412.23 450.90,408.86 454.95,405.45 459.00,402.00 463.05,398.52 467.10,395.01 471.15,391.47 475.20,387.91 479.25,384.32 483.30,380.72 487.35,377.09 491.40,373.45 495.45,369.80 499.50,366.14 503.55,362.47 507.60,358.80 511.65,355.13 515.70,351.47 519.75,347.81 523.80,344.15 527.85,340.52 531.90,336.90 535.95,333.30 540.00,329.72 544.05,326.17 548.10,322.65 552.15,319.17 556.20,315.72 560.25,312.31 564.30,308.95 568.35,305.64 572.40,302.39 576.45,299.18 580.50,296.04 584.55,292.96 588.60,289.95 592.65,287.01 596.70,284.14 600.75,281.35 604.80,278.63 608.85,276.01 612.90,273.46 616.95,271.01 621.00,268.65 625.05,266.39 629.10,264.22 633.15,262.16 637.20,260.20 641.25,258.34 645.30,256.60 649.35,254.96 653.40,253.44 657.45,252.03 661.50,250.74 665.55,249.56 669.60,248.51 673.65,247.57 677.70,246.76 681.75,246.07 685.80,245.51 689.85,245.07 693.90,244.75 697.95,244.56 702.00,244.50 706.05,244.56 710.10,244.75 714.15,245.07 718.20,245.51 722.25,246.07 726.30,246.76 730.35,247.57 734.40,248.51 738.45,249.56 742.50,250.74 746.55,252.03 750.60,253.44 754.65,254.96 758.70,256.60 762.75,258.34 766.80,260.20 770.85,262.16 774.90,264.22 778.95,266.39 783.00,268.65 787.05,271.01 791.10,273.46 795.15,276.01 799.20,278.63 803.25,281.35 807.30,284.14 811.35,287.01 815.40,289.95 819.45,292.96 823.50,296.04 827.55,299.18 831.60,302.39 835.65,305.64 839.70,308.95 843.75,312.31 847.80,315.72 851.85,319.17 855.90,322.65 859.95,326.17 864.00,329.72 868.05,333.30 872.10,336.90 876.15,340.52 880.20,344.15 884.25,347.81 888.30,351.47 892.35,355.13 896.40,358.80 900.45,362.47 904.50,366.14 908.55,369.80 912.60,373.45 916.65,377.09 920.70,380.72 924.75,384.32 928.80,387.91 932.85,391.47 936.90,395.01 940.95,398.52 945.00,402.00 949.05,405.45 953.10,408.86 957.15,412.23 961.20,415.57 965.25,418.87 969.30,422.12 973.35,425.34 977.40,428.50 981.45,431.62 985.50,434.69 989.55,437.72 993.60,440.69 997.65,443.61 1001.70,446.48 1005.75,449.30 1009.80,452.06 1013.85,454.77 1017.90,457.42 1021.95,460.02 1026.00,462.56 1030.05,465.05 1034.10,467.48 1038.15,469.86 1042.20,472.17 1046.25,474.44 1050.30,476.64 1054.35,478.79 1058.40,480.89 1062.45,482.93 1066.50,484.91 1070.55,486.84 1074.60,488.72 1078.65,490.54 1082.70,492.31 1086.75,494.02 1090.80,495.69 1094.85,497.30 1098.90,498.86 1102.95,500.37 1107.00,501.84 1111.05,503.25 1115.10,504.62 1119.15,505.94 1123.20,507.22 1127.25,508.45 1131.30,509.64 1135.35,510.78 1139.40,511.89 1143.45,512.95 1147.50,513.97 1151.55,514.96 1155.60,515.91 1159.65,516.82 1163.70,517.69 1167.75,518.53 1171.80,519.33 1175.85,520.11 1179.90,520.85 1183.95,521.56 1188.00,522.24 1192.05,522.89 1196.10,523.51 1200.15,524.10 1204.20,524.67 1208.25,525.22 1212.30,525.73 1216.35,526.23 1220.40,526.70 1224.45,527.15 1228.50,527.58 1232.55,527.99 1236.60,528.38 1240.65,528.75 1244.70,529.10 1248.75,529.43 1252.80,529.75 1256.85,530.05 1260.90,530.34 1264.95,530.61 1269.00,530.87 1273.05,531.11 1277.10,531.35 1281.15,531.57 1285.20,531.77 1289.25,531.97 1293.30,532.15 1297.35,532.33 1301.40,532.50 1305.45,532.65 1309.50,532.80 1313.55,532.94 1317.60,533.07 1321.65,533.19 1325.70,533.31 1329.75,533.42 1333.80,533.52 1337.85,533.62 1341.90,533.71 1345.95,533.80 1350.00,533.88" stroke="#4d9f69" stroke-width="4" fill="none" stroke-linejoin="round" stroke-linecap="round" /><polyline points="135.00,534.87 139.05,534.86 143.10,534.85 147.15,534.84 151.20,534.83 155.25,534.81 159.30,534.80 163.35,534.79 167.40,534.77 171.45,534.75 175.50,534.74 179.55,534.72 183.60,534.70 187.65,534.68 191.70,534.66 195.75,534.63 199.80,534.61 203.85,534.58 207.90,534.55 211.95,534.52 216.00,534.49 220.05,534.46 224.10,534.42 228.15,534.38 232.20,534.34 236.25,534.30 240.30,534.25 244.35,534.20 248.40,534.15 252.45,534.10 256.50,534.04 260.55,533.98 264.60,533.92 268.65,533.85 272.70,533.78 276.75,533.71 280.80,533.63 284.85,533.54 288.90,533.46 292.95,533.36 297.00,533.27 301.05,533.16 305.10,533.05 309.15,532.94 313.20,532.82 317.25,532.69 321.30,532.56 325.35,532.42 329.40,532.27 333.45,532.12 337.50,531.96 341.55,531.79 345.60,531.61 349.65,531.42 353.70,531.23 357.75,531.02 361.80,530.80 365.85,530.58 369.90,530.34 373.95,530.09 378.00,529.84 382.05,529.57 386.10,529.28 390.15,528.99 394.20,528.68 398.25,528.36 402.30,528.02 406.35,527.67 410.40,527.30 414.45,526.92 418.50,526.52 422.55,526.11 426.60,525.67 430.65,525.22 434.70,524.76 438.75,524.27 442.80,523.76 446.85,523.24 450.90,522.69 454.95,522.12 459.00,521.53 463.05,520.92 467.10,520.28 471.15,519.62 475.20,518.94 479.25,518.23 483.30,517.50 487.35,516.74 491.40,515.95 495.45,515.14 499.50,514.30 503.55,513.43 507.60,512.53 511.65,511.60 515.70,510.64 519.75,509.65 523.80,508.63 527.85,507.58 531.90,506.49 535.95,505.37 540.00,504.22 544.05,503.03 548.10,501.81 552.15,500.55 556.20,499.26 560.25,497.93 564.30,496.57 568.35,495.16 572.40,493.72 576.45,492.24 580.50,490.72 584.55,489.17 588.60,487.57 592.65,485.94 596.70,484.26 600.75,482.55 604.80,480.80 608.85,479.00 612.90,477.17 616.95,475.29 621.00,473.38 625.05,471.42 629.10,469.43 633.15,467.39 637.20,465.31 641.25,463.20 645.30,461.04 649.35,458.85 653.40,456.61 657.45,454.34 661.50,452.02 665.55,449.67 669.60,447.29 673.65,444.86 677.70,442.40 681.75,439.90 685.80,437.37 689.85,434.80 693.90,432.20 697.95,429.57 702.00,426.90 706.05,424.21 710.10,421.48 714.15,418.73 718.20,415.95 722.25,413.14 726.30,410.31 730.35,407.46 734.40,404.58 738.45,401.68 742.50,398.76 746.55,395.82 750.60,392.87 754.65,389.90 758.70,386.92 762.75,383.93 766.80,380.93 770.85,377.92 774.90,374.91 778.95,371.89 783.00,368.87 787.05,365.85 791.10,362.83 795.15,359.82 799.20,356.81 803.25,353.81 807.30,350.82 811.35,347.85 815.40,344.88 819.45,341.94 823.50,339.01 827.55,336.11 831.60,333.23 835.65,330.37 839.70,327.55 843.75,324.75 847.80,321.99 851.85,319.26 855.90,316.57 859.95,313.91 864.00,311.30 868.05,308.74 872.10,306.22 876.15,303.75 880.20,301.33 884.25,298.96 888.30,296.65 892.35,294.39 896.40,292.19 900.45,290.06 904.50,287.98 908.55,285.97 912.60,284.03 916.65,282.16 920.70,280.35 924.75,278.62 928.80,276.97 932.85,275.38 936.90,273.88 940.95,272.45 945.00,271.10 949.05,269.83 953.10,268.65 957.15,267.54 961.20,266.52 965.25,265.59 969.30,264.74 973.35,263.98 977.40,263.31 981.45,262.72 985.50,262.23 989.55,261.82 993.60,261.51 997.65,261.28 1001.70,261.15 1005.75,261.10 1009.80,261.15 1013.85,261.28 1017.90,261.51 1021.95,261.82 1026.00,262.23 1030.05,262.72 1034.10,263.31 1038.15,263.98 1042.20,264.74 1046.25,265.59 1050.30,266.52 1054.35,267.54 1058.40,268.65 1062.45,269.83 1066.50,271.10 1070.55,272.45 1074.60,273.88 1078.65,275.38 1082.70,276.97 1086.75,278.62 1090.80,280.35 1094.85,282.16 1098.90,284.03 1102.95,285.97 1107.00,287.98 1111.05,290.06 1115.10,292.19 1119.15,294.39 1123.20,296.65 1127.25,298.96 1131.30,301.33 1135.35,303.75 1139.40,306.22 1143.45,308.74 1147.50,311.30 1151.55,313.91 1155.60,316.57 1159.65,319.26 1163.70,321.99 1167.75,324.75 1171.80,327.55 1175.85,330.37 1179.90,333.23 1183.95,336.11 1188.00,339.01 1192.05,341.94 1196.10,344.88 1200.15,347.85 1204.20,350.82 1208.25,353.81 1212.30,356.81 1216.35,359.82 1220.40,362.83 1224.45,365.85 1228.50,368.87 1232.55,371.89 1236.60,374.91 1240.65,377.92 1244.70,380.93 1248.75,383.93 1252.80,386.92 1256.85,389.90 1260.90,392.87 1264.95,395.82 1269.00,398.76 1273.05,401.68 1277.10,404.58 1281.15,407.46 1285.20,410.31 1289.25,413.14 1293.30,415.95 1297.35,418.73 1301.40,421.48 1305.45,424.21 1309.50,426.90 1313.55,429.57 1317.60,432.20 1321.65,434.80 1325.70,437.37 1329.75,439.90 1333.80,442.40 1337.85,444.86 1341.90,447.29 1345.95,449.67 1350.00,452.02" stroke="#c85b73" stroke-width="4" fill="none" stroke-linejoin="round" stroke-linecap="round" /><text x="620" y="165" text-anchor="middle" font-family="Source Han Sans SC, Microsoft YaHei, sans-serif" font-size="18" font-weight="700" fill="#7b4b74">硅器件包络</text><text x="365" y="280" text-anchor="middle" font-family="Source Han Sans SC, Microsoft YaHei, sans-serif" font-size="20" font-weight="700" fill="#536fc5">B</text><text x="700" y="235" text-anchor="middle" font-family="Source Han Sans SC, Microsoft YaHei, sans-serif" font-size="20" font-weight="700" fill="#4d9f69">G</text><text x="1010" y="285" text-anchor="middle" font-family="Source Han Sans SC, Microsoft YaHei, sans-serif" font-size="20" font-weight="700" fill="#c85b73">R</text><text x="725.0" y="615" text-anchor="middle" font-family="Source Han Sans SC, Microsoft YaHei, sans-serif" font-size="20" font-weight="400" fill="#7b4b74">曲线为教学示意；实际响应还包含微透镜、CFA、红外截止滤镜与入射角</text></svg>