<?xml version='1.0' encoding='utf-8'?>
<svg xmlns="http://www.w3.org/2000/svg" width="1500" height="740" viewBox="0 0 1500 740" role="img" aria-label="均匀量化的阶梯误差与加入抖动后的误差去相关"><defs><marker id="arrow-blue" markerWidth="10" markerHeight="8" refX="9" refY="4" orient="auto" markerUnits="strokeWidth"><path d="M 0 0 L 10 4 L 0 8 z" fill="#3b82b5" /></marker><marker id="arrow-dark" markerWidth="10" markerHeight="8" refX="9" refY="4" orient="auto" markerUnits="strokeWidth"><path d="M 0 0 L 10 4 L 0 8 z" fill="#334e68" /></marker><marker id="arrow-red" markerWidth="10" markerHeight="8" refX="9" refY="4" orient="auto" markerUnits="strokeWidth"><path d="M 0 0 L 10 4 L 0 8 z" fill="#c85b73" /></marker><marker id="arrow-green" markerWidth="10" markerHeight="8" refX="9" refY="4" orient="auto" markerUnits="strokeWidth"><path d="M 0 0 L 10 4 L 0 8 z" fill="#4d8c6a" /></marker><marker id="arrow-gold" markerWidth="10" markerHeight="8" refX="9" refY="4" orient="auto" markerUnits="strokeWidth"><path d="M 0 0 L 10 4 L 0 8 z" fill="#c58a2d" /></marker><marker id="arrow-purple" markerWidth="10" markerHeight="8" refX="9" refY="4" orient="auto" markerUnits="strokeWidth"><path d="M 0 0 L 10 4 L 0 8 z" fill="#7b4b74" /></marker></defs><rect width="1500" height="740" fill="#fbfdff" /><text x="750.0" y="43" text-anchor="middle" font-family="Source Han Sans SC, Microsoft YaHei, sans-serif" font-size="31" font-weight="700" fill="#102a43">量化把连续值分箱；抖动用随机性换取误差去相关</text><line x1="100" y1="365" x2="1400" y2="365" stroke="#334e68" stroke-width="2" stroke-linecap="round" marker-end="url(#arrow-dark)" /><line x1="100" y1="365" x2="100" y2="125" stroke="#334e68" stroke-width="2" stroke-linecap="round" marker-end="url(#arrow-dark)" /><text x="1400" y="396" text-anchor="end" font-family="Source Han Sans SC, Microsoft YaHei, sans-serif" font-size="15" font-weight="400" fill="#627d98">位置</text><text x="96" y="113" text-anchor="start" font-family="Source Han Sans SC, Microsoft YaHei, sans-serif" font-size="15" font-weight="400" fill="#627d98">值</text><polyline points="100.00,365.00 1400.00,145.00" stroke="#9fb3c2" stroke-width="3" fill="none" stroke-linejoin="round" stroke-linecap="round" stroke-dasharray="8 5" /><polyline points="100.00,365.00 103.25,365.00 106.50,365.00 109.75,365.00 113.00,365.00 116.25,365.00 119.50,365.00 122.75,365.00 126.00,365.00 129.25,365.00 132.50,365.00 135.75,365.00 139.00,365.00 142.25,365.00 145.50,365.00 148.75,365.00 152.00,365.00 155.25,365.00 158.50,365.00 161.75,365.00 165.00,365.00 168.25,365.00 171.50,365.00 174.75,365.00 178.00,365.00 181.25,365.00 184.50,365.00 187.75,365.00 191.00,365.00 194.25,333.57 197.50,333.57 200.75,333.57 204.00,333.57 207.25,333.57 210.50,333.57 213.75,333.57 217.00,333.57 220.25,333.57 223.50,333.57 226.75,333.57 230.00,333.57 233.25,333.57 236.50,333.57 239.75,333.57 243.00,333.57 246.25,333.57 249.50,333.57 252.75,333.57 256.00,333.57 259.25,333.57 262.50,333.57 265.75,333.57 269.00,333.57 272.25,333.57 275.50,333.57 278.75,333.57 282.00,333.57 285.25,333.57 288.50,333.57 291.75,333.57 295.00,333.57 298.25,333.57 301.50,333.57 304.75,333.57 308.00,333.57 311.25,333.57 314.50,333.57 317.75,333.57 321.00,333.57 324.25,333.57 327.50,333.57 330.75,333.57 334.00,333.57 337.25,333.57 340.50,333.57 343.75,333.57 347.00,333.57 350.25,333.57 353.50,333.57 356.75,333.57 360.00,333.57 363.25,333.57 366.50,333.57 369.75,333.57 373.00,333.57 376.25,333.57 379.50,302.14 382.75,302.14 386.00,302.14 389.25,302.14 392.50,302.14 395.75,302.14 399.00,302.14 402.25,302.14 405.50,302.14 408.75,302.14 412.00,302.14 415.25,302.14 418.50,302.14 421.75,302.14 425.00,302.14 428.25,302.14 431.50,302.14 434.75,302.14 438.00,302.14 441.25,302.14 444.50,302.14 447.75,302.14 451.00,302.14 454.25,302.14 457.50,302.14 460.75,302.14 464.00,302.14 467.25,302.14 470.50,302.14 473.75,302.14 477.00,302.14 480.25,302.14 483.50,302.14 486.75,302.14 490.00,302.14 493.25,302.14 496.50,302.14 499.75,302.14 503.00,302.14 506.25,302.14 509.50,302.14 512.75,302.14 516.00,302.14 519.25,302.14 522.50,302.14 525.75,302.14 529.00,302.14 532.25,302.14 535.50,302.14 538.75,302.14 542.00,302.14 545.25,302.14 548.50,302.14 551.75,302.14 555.00,302.14 558.25,302.14 561.50,302.14 564.75,270.71 568.00,270.71 571.25,270.71 574.50,270.71 577.75,270.71 581.00,270.71 584.25,270.71 587.50,270.71 590.75,270.71 594.00,270.71 597.25,270.71 600.50,270.71 603.75,270.71 607.00,270.71 610.25,270.71 613.50,270.71 616.75,270.71 620.00,270.71 623.25,270.71 626.50,270.71 629.75,270.71 633.00,270.71 636.25,270.71 639.50,270.71 642.75,270.71 646.00,270.71 649.25,270.71 652.50,270.71 655.75,270.71 659.00,270.71 662.25,270.71 665.50,270.71 668.75,270.71 672.00,270.71 675.25,270.71 678.50,270.71 681.75,270.71 685.00,270.71 688.25,270.71 691.50,270.71 694.75,270.71 698.00,270.71 701.25,270.71 704.50,270.71 707.75,270.71 711.00,270.71 714.25,270.71 717.50,270.71 720.75,270.71 724.00,270.71 727.25,270.71 730.50,270.71 733.75,270.71 737.00,270.71 740.25,270.71 743.50,270.71 746.75,270.71 750.00,239.29 753.25,239.29 756.50,239.29 759.75,239.29 763.00,239.29 766.25,239.29 769.50,239.29 772.75,239.29 776.00,239.29 779.25,239.29 782.50,239.29 785.75,239.29 789.00,239.29 792.25,239.29 795.50,239.29 798.75,239.29 802.00,239.29 805.25,239.29 808.50,239.29 811.75,239.29 815.00,239.29 818.25,239.29 821.50,239.29 824.75,239.29 828.00,239.29 831.25,239.29 834.50,239.29 837.75,239.29 841.00,239.29 844.25,239.29 847.50,239.29 850.75,239.29 854.00,239.29 857.25,239.29 860.50,239.29 863.75,239.29 867.00,239.29 870.25,239.29 873.50,239.29 876.75,239.29 880.00,239.29 883.25,239.29 886.50,239.29 889.75,239.29 893.00,239.29 896.25,239.29 899.50,239.29 902.75,239.29 906.00,239.29 909.25,239.29 912.50,239.29 915.75,239.29 919.00,239.29 922.25,239.29 925.50,239.29 928.75,239.29 932.00,239.29 935.25,239.29 938.50,207.86 941.75,207.86 945.00,207.86 948.25,207.86 951.50,207.86 954.75,207.86 958.00,207.86 961.25,207.86 964.50,207.86 967.75,207.86 971.00,207.86 974.25,207.86 977.50,207.86 980.75,207.86 984.00,207.86 987.25,207.86 990.50,207.86 993.75,207.86 997.00,207.86 1000.25,207.86 1003.50,207.86 1006.75,207.86 1010.00,207.86 1013.25,207.86 1016.50,207.86 1019.75,207.86 1023.00,207.86 1026.25,207.86 1029.50,207.86 1032.75,207.86 1036.00,207.86 1039.25,207.86 1042.50,207.86 1045.75,207.86 1049.00,207.86 1052.25,207.86 1055.50,207.86 1058.75,207.86 1062.00,207.86 1065.25,207.86 1068.50,207.86 1071.75,207.86 1075.00,207.86 1078.25,207.86 1081.50,207.86 1084.75,207.86 1088.00,207.86 1091.25,207.86 1094.50,207.86 1097.75,207.86 1101.00,207.86 1104.25,207.86 1107.50,207.86 1110.75,207.86 1114.00,207.86 1117.25,207.86 1120.50,207.86 1123.75,176.43 1127.00,176.43 1130.25,176.43 1133.50,176.43 1136.75,176.43 1140.00,176.43 1143.25,176.43 1146.50,176.43 1149.75,176.43 1153.00,176.43 1156.25,176.43 1159.50,176.43 1162.75,176.43 1166.00,176.43 1169.25,176.43 1172.50,176.43 1175.75,176.43 1179.00,176.43 1182.25,176.43 1185.50,176.43 1188.75,176.43 1192.00,176.43 1195.25,176.43 1198.50,176.43 1201.75,176.43 1205.00,176.43 1208.25,176.43 1211.50,176.43 1214.75,176.43 1218.00,176.43 1221.25,176.43 1224.50,176.43 1227.75,176.43 1231.00,176.43 1234.25,176.43 1237.50,176.43 1240.75,176.43 1244.00,176.43 1247.25,176.43 1250.50,176.43 1253.75,176.43 1257.00,176.43 1260.25,176.43 1263.50,176.43 1266.75,176.43 1270.00,176.43 1273.25,176.43 1276.50,176.43 1279.75,176.43 1283.00,176.43 1286.25,176.43 1289.50,176.43 1292.75,176.43 1296.00,176.43 1299.25,176.43 1302.50,176.43 1305.75,176.43 1309.00,145.00 1312.25,145.00 1315.50,145.00 1318.75,145.00 1322.00,145.00 1325.25,145.00 1328.50,145.00 1331.75,145.00 1335.00,145.00 1338.25,145.00 1341.50,145.00 1344.75,145.00 1348.00,145.00 1351.25,145.00 1354.50,145.00 1357.75,145.00 1361.00,145.00 1364.25,145.00 1367.50,145.00 1370.75,145.00 1374.00,145.00 1377.25,145.00 1380.50,145.00 1383.75,145.00 1387.00,145.00 1390.25,145.00 1393.50,145.00 1396.75,145.00 1400.00,145.00" stroke="#3b82b5" stroke-width="5" fill="none" stroke-linejoin="round" stroke-linecap="round" /><text x="420" y="165" text-anchor="middle" font-family="Source Han Sans SC, Microsoft YaHei, sans-serif" font-size="16" font-weight="400" fill="#627d98">理想连续渐变</text><text x="1050" y="235" text-anchor="middle" font-family="Source Han Sans SC, Microsoft YaHei, sans-serif" font-size="18" font-weight="700" fill="#285b7a">3 bit：8 个台阶</text><line x1="750" y1="405" x2="750" y2="690" stroke="#d7e0e7" stroke-width="2" stroke-linecap="round" /><text x="375" y="430" text-anchor="middle" font-family="Source Han Sans SC, Microsoft YaHei, sans-serif" font-size="22" font-weight="700" fill="#a24862">无抖动：误差与信号锁定</text><text x="1125" y="430" text-anchor="middle" font-family="Source Han Sans SC, Microsoft YaHei, sans-serif" font-size="22" font-weight="700" fill="#397456">有抖动：单像素更噪，但平均无偏</text><line x1="80" y1="555" x2="680" y2="555" stroke="#8aa2b5" stroke-width="2" stroke-linecap="round" /><polyline points="80.00,555.00 82.00,557.17 84.00,559.33 86.00,561.50 88.00,563.67 90.00,565.83 92.00,568.00 94.00,570.17 96.00,572.33 98.00,574.50 100.00,576.67 102.00,578.83 104.00,581.00 106.00,583.17 108.00,585.33 110.00,587.50 112.00,589.67 114.00,591.83 116.00,594.00 118.00,596.17 120.00,598.33 122.00,600.50 124.00,509.81 126.00,511.98 128.00,514.14 130.00,516.31 132.00,518.48 134.00,520.64 136.00,522.81 138.00,524.98 140.00,527.14 142.00,529.31 144.00,531.48 146.00,533.64 148.00,535.81 150.00,537.98 152.00,540.14 154.00,542.31 156.00,544.48 158.00,546.64 160.00,548.81 162.00,550.98 164.00,553.14 166.00,555.31 168.00,557.48 170.00,559.64 172.00,561.81 174.00,563.98 176.00,566.14 178.00,568.31 180.00,570.48 182.00,572.64 184.00,574.81 186.00,576.98 188.00,579.14 190.00,581.31 192.00,583.48 194.00,585.64 196.00,587.81 198.00,589.98 200.00,592.14 202.00,594.31 204.00,596.48 206.00,598.64 208.00,600.81 210.00,510.12 212.00,512.29 214.00,514.45 216.00,516.62 218.00,518.79 220.00,520.95 222.00,523.12 224.00,525.29 226.00,527.45 228.00,529.62 230.00,531.79 232.00,533.95 234.00,536.12 236.00,538.29 238.00,540.45 240.00,542.62 242.00,544.79 244.00,546.95 246.00,549.12 248.00,551.29 250.00,553.45 252.00,555.62 254.00,557.79 256.00,559.95 258.00,562.12 260.00,564.29 262.00,566.45 264.00,568.62 266.00,570.79 268.00,572.95 270.00,575.12 272.00,577.29 274.00,579.45 276.00,581.62 278.00,583.79 280.00,585.95 282.00,588.12 284.00,590.29 286.00,592.45 288.00,594.62 290.00,596.79 292.00,598.95 294.00,601.12 296.00,510.43 298.00,512.60 300.00,514.76 302.00,516.93 304.00,519.10 306.00,521.26 308.00,523.43 310.00,525.60 312.00,527.76 314.00,529.93 316.00,532.10 318.00,534.26 320.00,536.43 322.00,538.60 324.00,540.76 326.00,542.93 328.00,545.10 330.00,547.26 332.00,549.43 334.00,551.60 336.00,553.76 338.00,555.93 340.00,558.10 342.00,560.26 344.00,562.43 346.00,564.60 348.00,566.76 350.00,568.93 352.00,571.10 354.00,573.26 356.00,575.43 358.00,577.60 360.00,579.76 362.00,581.93 364.00,584.10 366.00,586.26 368.00,588.43 370.00,590.60 372.00,592.76 374.00,594.93 376.00,597.10 378.00,599.26 380.00,508.57 382.00,510.74 384.00,512.90 386.00,515.07 388.00,517.24 390.00,519.40 392.00,521.57 394.00,523.74 396.00,525.90 398.00,528.07 400.00,530.24 402.00,532.40 404.00,534.57 406.00,536.74 408.00,538.90 410.00,541.07 412.00,543.24 414.00,545.40 416.00,547.57 418.00,549.74 420.00,551.90 422.00,554.07 424.00,556.24 426.00,558.40 428.00,560.57 430.00,562.74 432.00,564.90 434.00,567.07 436.00,569.24 438.00,571.40 440.00,573.57 442.00,575.74 444.00,577.90 446.00,580.07 448.00,582.24 450.00,584.40 452.00,586.57 454.00,588.74 456.00,590.90 458.00,593.07 460.00,595.24 462.00,597.40 464.00,599.57 466.00,508.88 468.00,511.05 470.00,513.21 472.00,515.38 474.00,517.55 476.00,519.71 478.00,521.88 480.00,524.05 482.00,526.21 484.00,528.38 486.00,530.55 488.00,532.71 490.00,534.88 492.00,537.05 494.00,539.21 496.00,541.38 498.00,543.55 500.00,545.71 502.00,547.88 504.00,550.05 506.00,552.21 508.00,554.38 510.00,556.55 512.00,558.71 514.00,560.88 516.00,563.05 518.00,565.21 520.00,567.38 522.00,569.55 524.00,571.71 526.00,573.88 528.00,576.05 530.00,578.21 532.00,580.38 534.00,582.55 536.00,584.71 538.00,586.88 540.00,589.05 542.00,591.21 544.00,593.38 546.00,595.55 548.00,597.71 550.00,599.88 552.00,509.19 554.00,511.36 556.00,513.52 558.00,515.69 560.00,517.86 562.00,520.02 564.00,522.19 566.00,524.36 568.00,526.52 570.00,528.69 572.00,530.86 574.00,533.02 576.00,535.19 578.00,537.36 580.00,539.52 582.00,541.69 584.00,543.86 586.00,546.02 588.00,548.19 590.00,550.36 592.00,552.52 594.00,554.69 596.00,556.86 598.00,559.02 600.00,561.19 602.00,563.36 604.00,565.52 606.00,567.69 608.00,569.86 610.00,572.02 612.00,574.19 614.00,576.36 616.00,578.52 618.00,580.69 620.00,582.86 622.00,585.02 624.00,587.19 626.00,589.36 628.00,591.52 630.00,593.69 632.00,595.86 634.00,598.02 636.00,600.19 638.00,509.50 640.00,511.67 642.00,513.83 644.00,516.00 646.00,518.17 648.00,520.33 650.00,522.50 652.00,524.67 654.00,526.83 656.00,529.00 658.00,531.17 660.00,533.33 662.00,535.50 664.00,537.67 666.00,539.83 668.00,542.00 670.00,544.17 672.00,546.33 674.00,548.50 676.00,550.67 678.00,552.83 680.00,555.00" stroke="#c85b73" stroke-width="3" fill="none" stroke-linejoin="round" stroke-linecap="round" /><text x="375" y="650" text-anchor="middle" font-family="Source Han Sans SC, Microsoft YaHei, sans-serif" font-size="16" font-weight="400" fill="#a24862">轮廓与条带来自这种周期相关误差</text><line x1="820" y1="555" x2="1420" y2="555" stroke="#8aa2b5" stroke-width="2" stroke-linecap="round" /><circle cx="820.0" cy="555.0" r="3.5" fill="#4d8c6a" fill-opacity="0.62" /><circle cx="824.31654676259" cy="559.31654676259" r="3.5" fill="#4d8c6a" fill-opacity="0.62" /><circle cx="828.6330935251799" cy="563.6330935251799" r="3.5" fill="#4d8c6a" fill-opacity="0.62" /><circle cx="832.9496402877697" cy="482.2353545734841" r="3.5" fill="#4d8c6a" fill-opacity="0.62" /><circle cx="837.2661870503597" cy="572.2661870503597" r="3.5" fill="#4d8c6a" fill-opacity="0.62" /><circle cx="841.5827338129496" cy="576.5827338129496" r="3.5" fill="#4d8c6a" fill-opacity="0.62" /><circle cx="845.8992805755396" cy="495.18499486125387" r="3.5" fill="#4d8c6a" fill-opacity="0.62" /><circle cx="850.2158273381295" cy="499.50154162384376" r="3.5" fill="#4d8c6a" fill-opacity="0.62" /><circle cx="854.5323741007194" cy="589.5323741007194" r="3.5" fill="#4d8c6a" fill-opacity="0.62" /><circle cx="858.8489208633093" cy="508.13463514902367" r="3.5" fill="#4d8c6a" fill-opacity="0.62" /><circle cx="863.1654676258993" cy="598.1654676258993" r="3.5" fill="#4d8c6a" fill-opacity="0.62" /><circle cx="867.4820143884892" cy="516.7677286742035" r="3.5" fill="#4d8c6a" fill-opacity="0.62" /><circle cx="871.7985611510792" cy="606.7985611510792" r="3.5" fill="#4d8c6a" fill-opacity="0.62" /><circle cx="876.115107913669" cy="611.115107913669" r="3.5" fill="#4d8c6a" fill-opacity="0.62" /><circle cx="880.431654676259" cy="529.7173689619733" r="3.5" fill="#4d8c6a" fill-opacity="0.62" /><circle cx="884.7482014388489" cy="534.0339157245633" r="3.5" fill="#4d8c6a" fill-opacity="0.62" /><circle cx="889.0647482014389" cy="538.3504624871531" r="3.5" fill="#4d8c6a" fill-opacity="0.62" /><circle cx="893.3812949640288" cy="542.667009249743" r="3.5" fill="#4d8c6a" fill-opacity="0.62" /><circle cx="897.6978417266187" cy="546.983556012333" r="3.5" fill="#4d8c6a" fill-opacity="0.62" /><circle cx="902.0143884892086" cy="551.300102774923" r="3.5" fill="#4d8c6a" fill-opacity="0.62" /><circle cx="906.3309352517986" cy="555.6166495375129" r="3.5" fill="#4d8c6a" fill-opacity="0.62" /><circle cx="910.6474820143885" cy="559.9331963001027" r="3.5" fill="#4d8c6a" fill-opacity="0.62" /><circle cx="914.9640287769785" cy="564.2497430626927" r="3.5" fill="#4d8c6a" fill-opacity="0.62" /><circle cx="919.2805755395683" cy="568.5662898252826" r="3.5" fill="#4d8c6a" fill-opacity="0.62" /><circle cx="923.5971223021583" cy="572.8828365878726" r="3.5" fill="#4d8c6a" fill-opacity="0.62" /><circle cx="927.9136690647482" cy="577.1993833504625" r="3.5" fill="#4d8c6a" fill-opacity="0.62" /><circle cx="932.2302158273382" cy="581.5159301130524" r="3.5" fill="#4d8c6a" fill-opacity="0.62" /><circle cx="936.5467625899281" cy="585.8324768756423" r="3.5" fill="#4d8c6a" fill-opacity="0.62" /><circle cx="940.863309352518" cy="504.43473792394656" r="3.5" fill="#4d8c6a" fill-opacity="0.62" /><circle cx="945.1798561151079" cy="594.4655704008222" r="3.5" fill="#4d8c6a" fill-opacity="0.62" /><circle cx="949.4964028776978" cy="513.0678314491264" r="3.5" fill="#4d8c6a" fill-opacity="0.62" /><circle cx="953.8129496402878" cy="603.098663926002" r="3.5" fill="#4d8c6a" fill-opacity="0.62" /><circle cx="958.1294964028777" cy="521.7009249743063" r="3.5" fill="#4d8c6a" fill-opacity="0.62" /><circle cx="962.4460431654676" cy="526.0174717368963" r="3.5" fill="#4d8c6a" fill-opacity="0.62" /><circle cx="966.7625899280575" cy="530.3340184994861" r="3.5" fill="#4d8c6a" fill-opacity="0.62" /><circle cx="971.0791366906475" cy="620.3648509763618" r="3.5" fill="#4d8c6a" fill-opacity="0.62" /><circle cx="975.3956834532374" cy="538.967112024666" r="3.5" fill="#4d8c6a" fill-opacity="0.62" /><circle cx="979.7122302158273" cy="543.283658787256" r="3.5" fill="#4d8c6a" fill-opacity="0.62" /><circle cx="984.0287769784172" cy="547.6002055498459" r="3.5" fill="#4d8c6a" fill-opacity="0.62" /><circle cx="988.3453237410072" cy="551.9167523124357" r="3.5" fill="#4d8c6a" fill-opacity="0.62" /><circle cx="992.6618705035971" cy="556.2332990750257" r="3.5" fill="#4d8c6a" fill-opacity="0.62" /><circle cx="996.9784172661871" cy="560.5498458376156" r="3.5" fill="#4d8c6a" fill-opacity="0.62" /><circle cx="1001.294964028777" cy="564.8663926002056" r="3.5" fill="#4d8c6a" fill-opacity="0.62" /><circle cx="1005.611510791367" cy="569.1829393627955" r="3.5" fill="#4d8c6a" fill-opacity="0.62" /><circle cx="1009.9280575539568" cy="573.4994861253854" r="3.5" fill="#4d8c6a" fill-opacity="0.62" /><circle cx="1014.2446043165468" cy="492.1017471736896" r="3.5" fill="#4d8c6a" fill-opacity="0.62" /><circle cx="1018.5611510791367" cy="582.1325796505653" r="3.5" fill="#4d8c6a" fill-opacity="0.62" /><circle cx="1022.8776978417266" cy="586.4491264131552" r="3.5" fill="#4d8c6a" fill-opacity="0.62" /><circle cx="1027.1942446043165" cy="505.0513874614594" r="3.5" fill="#4d8c6a" fill-opacity="0.62" /><circle cx="1031.5107913669065" cy="595.082219938335" r="3.5" fill="#4d8c6a" fill-opacity="0.62" /><circle cx="1035.8273381294964" cy="599.398766700925" r="3.5" fill="#4d8c6a" fill-opacity="0.62" /><circle cx="1040.1438848920864" cy="603.7153134635149" r="3.5" fill="#4d8c6a" fill-opacity="0.62" /><circle cx="1044.4604316546763" cy="522.3175745118191" r="3.5" fill="#4d8c6a" fill-opacity="0.62" /><circle cx="1048.7769784172663" cy="612.3484069886948" r="3.5" fill="#4d8c6a" fill-opacity="0.62" /><circle cx="1053.0935251798562" cy="530.950668036999" r="3.5" fill="#4d8c6a" fill-opacity="0.62" /><circle cx="1057.410071942446" cy="620.9815005138746" r="3.5" fill="#4d8c6a" fill-opacity="0.62" /><circle cx="1061.726618705036" cy="539.5837615621789" r="3.5" fill="#4d8c6a" fill-opacity="0.62" /><circle cx="1066.0431654676258" cy="543.9003083247687" r="3.5" fill="#4d8c6a" fill-opacity="0.62" /><circle cx="1070.3597122302158" cy="548.2168550873587" r="3.5" fill="#4d8c6a" fill-opacity="0.62" /><circle cx="1074.6762589928057" cy="552.5334018499486" r="3.5" fill="#4d8c6a" fill-opacity="0.62" /><circle cx="1078.9928057553957" cy="556.8499486125386" r="3.5" fill="#4d8c6a" fill-opacity="0.62" /><circle cx="1083.3093525179856" cy="561.1664953751285" r="3.5" fill="#4d8c6a" fill-opacity="0.62" /><circle cx="1087.6258992805756" cy="565.4830421377184" r="3.5" fill="#4d8c6a" fill-opacity="0.62" /><circle cx="1091.9424460431655" cy="569.7995889003083" r="3.5" fill="#4d8c6a" fill-opacity="0.62" /><circle cx="1096.2589928057555" cy="574.1161356628983" r="3.5" fill="#4d8c6a" fill-opacity="0.62" /><circle cx="1100.5755395683454" cy="578.4326824254882" r="3.5" fill="#4d8c6a" fill-opacity="0.62" /><circle cx="1104.8920863309352" cy="497.0349434737924" r="3.5" fill="#4d8c6a" fill-opacity="0.62" /><circle cx="1109.2086330935251" cy="501.35149023638235" r="3.5" fill="#4d8c6a" fill-opacity="0.62" /><circle cx="1113.525179856115" cy="591.382322713258" r="3.5" fill="#4d8c6a" fill-opacity="0.62" /><circle cx="1117.841726618705" cy="595.6988694758479" r="3.5" fill="#4d8c6a" fill-opacity="0.62" /><circle cx="1122.158273381295" cy="514.3011305241521" r="3.5" fill="#4d8c6a" fill-opacity="0.62" /><circle cx="1126.474820143885" cy="518.617677286742" r="3.5" fill="#4d8c6a" fill-opacity="0.62" /><circle cx="1130.7913669064749" cy="608.6485097636177" r="3.5" fill="#4d8c6a" fill-opacity="0.62" /><circle cx="1135.1079136690646" cy="527.2507708119219" r="3.5" fill="#4d8c6a" fill-opacity="0.62" /><circle cx="1139.4244604316546" cy="531.5673175745119" r="3.5" fill="#4d8c6a" fill-opacity="0.62" /><circle cx="1143.7410071942445" cy="535.8838643371017" r="3.5" fill="#4d8c6a" fill-opacity="0.62" /><circle cx="1148.0575539568345" cy="540.2004110996917" r="3.5" fill="#4d8c6a" fill-opacity="0.62" /><circle cx="1152.3741007194244" cy="544.5169578622816" r="3.5" fill="#4d8c6a" fill-opacity="0.62" /><circle cx="1156.6906474820144" cy="548.8335046248715" r="3.5" fill="#4d8c6a" fill-opacity="0.62" /><circle cx="1161.0071942446043" cy="553.1500513874615" r="3.5" fill="#4d8c6a" fill-opacity="0.62" /><circle cx="1165.3237410071943" cy="557.4665981500514" r="3.5" fill="#4d8c6a" fill-opacity="0.62" /><circle cx="1169.6402877697842" cy="561.7831449126413" r="3.5" fill="#4d8c6a" fill-opacity="0.62" /><circle cx="1173.9568345323742" cy="566.0996916752313" r="3.5" fill="#4d8c6a" fill-opacity="0.62" /><circle cx="1178.273381294964" cy="570.4162384378211" r="3.5" fill="#4d8c6a" fill-opacity="0.62" /><circle cx="1182.589928057554" cy="574.7327852004112" r="3.5" fill="#4d8c6a" fill-opacity="0.62" /><circle cx="1186.9064748201438" cy="579.049331963001" r="3.5" fill="#4d8c6a" fill-opacity="0.62" /><circle cx="1191.223021582734" cy="583.365878725591" r="3.5" fill="#4d8c6a" fill-opacity="0.62" /><circle cx="1195.5395683453237" cy="587.6824254881809" r="3.5" fill="#4d8c6a" fill-opacity="0.62" /><circle cx="1199.8561151079136" cy="506.2846865364851" r="3.5" fill="#4d8c6a" fill-opacity="0.62" /><circle cx="1204.1726618705036" cy="510.60123329907503" r="3.5" fill="#4d8c6a" fill-opacity="0.62" /><circle cx="1208.4892086330935" cy="600.6320657759507" r="3.5" fill="#4d8c6a" fill-opacity="0.62" /><circle cx="1212.8057553956835" cy="519.2343268242549" r="3.5" fill="#4d8c6a" fill-opacity="0.62" /><circle cx="1217.1223021582734" cy="609.2651593011306" r="3.5" fill="#4d8c6a" fill-opacity="0.62" /><circle cx="1221.4388489208632" cy="613.5817060637204" r="3.5" fill="#4d8c6a" fill-opacity="0.62" /><circle cx="1225.7553956834531" cy="617.8982528263105" r="3.5" fill="#4d8c6a" fill-opacity="0.62" /><circle cx="1230.071942446043" cy="622.2147995889003" r="3.5" fill="#4d8c6a" fill-opacity="0.62" /><circle cx="1234.388489208633" cy="540.8170606372046" r="3.5" fill="#4d8c6a" fill-opacity="0.62" /><circle cx="1238.705035971223" cy="545.1336073997944" r="3.5" fill="#4d8c6a" fill-opacity="0.62" /><circle cx="1243.021582733813" cy="549.4501541623844" r="3.5" fill="#4d8c6a" fill-opacity="0.62" /><circle cx="1247.3381294964029" cy="553.7667009249743" r="3.5" fill="#4d8c6a" fill-opacity="0.62" /><circle cx="1251.6546762589928" cy="558.0832476875642" r="3.5" fill="#4d8c6a" fill-opacity="0.62" /><circle cx="1255.9712230215828" cy="562.3997944501542" r="3.5" fill="#4d8c6a" fill-opacity="0.62" /><circle cx="1260.2877697841727" cy="481.0020554984584" r="3.5" fill="#4d8c6a" fill-opacity="0.62" /><circle cx="1264.6043165467627" cy="571.032887975334" r="3.5" fill="#4d8c6a" fill-opacity="0.62" /><circle cx="1268.9208633093526" cy="575.349434737924" r="3.5" fill="#4d8c6a" fill-opacity="0.62" /><circle cx="1273.2374100719423" cy="579.6659815005138" r="3.5" fill="#4d8c6a" fill-opacity="0.62" /><circle cx="1277.5539568345325" cy="583.9825282631039" r="3.5" fill="#4d8c6a" fill-opacity="0.62" /><circle cx="1281.8705035971223" cy="588.2990750256937" r="3.5" fill="#4d8c6a" fill-opacity="0.62" /><circle cx="1286.1870503597122" cy="506.901336073998" r="3.5" fill="#4d8c6a" fill-opacity="0.62" /><circle cx="1290.5035971223022" cy="511.21788283658793" r="3.5" fill="#4d8c6a" fill-opacity="0.62" /><circle cx="1294.820143884892" cy="515.5344295991778" r="3.5" fill="#4d8c6a" fill-opacity="0.62" /><circle cx="1299.136690647482" cy="519.8509763617678" r="3.5" fill="#4d8c6a" fill-opacity="0.62" /><circle cx="1303.453237410072" cy="524.1675231243577" r="3.5" fill="#4d8c6a" fill-opacity="0.62" /><circle cx="1307.769784172662" cy="528.4840698869476" r="3.5" fill="#4d8c6a" fill-opacity="0.62" /><circle cx="1312.0863309352517" cy="532.8006166495376" r="3.5" fill="#4d8c6a" fill-opacity="0.62" /><circle cx="1316.4028776978416" cy="537.1171634121274" r="3.5" fill="#4d8c6a" fill-opacity="0.62" /><circle cx="1320.7194244604316" cy="541.4337101747174" r="3.5" fill="#4d8c6a" fill-opacity="0.62" /><circle cx="1325.0359712230215" cy="545.7502569373073" r="3.5" fill="#4d8c6a" fill-opacity="0.62" /><circle cx="1329.3525179856115" cy="550.0668036998973" r="3.5" fill="#4d8c6a" fill-opacity="0.62" /><circle cx="1333.6690647482014" cy="554.3833504624872" r="3.5" fill="#4d8c6a" fill-opacity="0.62" /><circle cx="1337.9856115107914" cy="558.699897225077" r="3.5" fill="#4d8c6a" fill-opacity="0.62" /><circle cx="1342.3021582733813" cy="477.30215827338134" r="3.5" fill="#4d8c6a" fill-opacity="0.62" /><circle cx="1346.6187050359713" cy="567.332990750257" r="3.5" fill="#4d8c6a" fill-opacity="0.62" /><circle cx="1350.9352517985612" cy="571.6495375128469" r="3.5" fill="#4d8c6a" fill-opacity="0.62" /><circle cx="1355.2517985611512" cy="575.9660842754369" r="3.5" fill="#4d8c6a" fill-opacity="0.62" /><circle cx="1359.5683453237411" cy="580.2826310380267" r="3.5" fill="#4d8c6a" fill-opacity="0.62" /><circle cx="1363.884892086331" cy="584.5991778006166" r="3.5" fill="#4d8c6a" fill-opacity="0.62" /><circle cx="1368.2014388489208" cy="503.2014388489209" r="3.5" fill="#4d8c6a" fill-opacity="0.62" /><circle cx="1372.5179856115108" cy="593.2322713257965" r="3.5" fill="#4d8c6a" fill-opacity="0.62" /><circle cx="1376.8345323741007" cy="597.5488180883865" r="3.5" fill="#4d8c6a" fill-opacity="0.62" /><circle cx="1381.1510791366907" cy="601.8653648509763" r="3.5" fill="#4d8c6a" fill-opacity="0.62" /><circle cx="1385.4676258992806" cy="520.4676258992806" r="3.5" fill="#4d8c6a" fill-opacity="0.62" /><circle cx="1389.7841726618703" cy="524.7841726618705" r="3.5" fill="#4d8c6a" fill-opacity="0.62" /><circle cx="1394.1007194244603" cy="529.1007194244604" r="3.5" fill="#4d8c6a" fill-opacity="0.62" /><circle cx="1398.4172661870502" cy="533.4172661870504" r="3.5" fill="#4d8c6a" fill-opacity="0.62" /><circle cx="1402.7338129496402" cy="537.7338129496403" r="3.5" fill="#4d8c6a" fill-opacity="0.62" /><circle cx="1407.0503597122301" cy="542.0503597122303" r="3.5" fill="#4d8c6a" fill-opacity="0.62" /><circle cx="1411.36690647482" cy="546.3669064748201" r="3.5" fill="#4d8c6a" fill-opacity="0.62" /><circle cx="1415.68345323741" cy="550.68345323741" r="3.5" fill="#4d8c6a" fill-opacity="0.62" /><circle cx="1420.0" cy="555.0" r="3.5" fill="#4d8c6a" fill-opacity="0.62" /><line x1="820" y1="555" x2="1420" y2="555" stroke="#3b82b5" stroke-width="3" stroke-linecap="round" stroke-dasharray="8 5" /><text x="1120" y="650" text-anchor="middle" font-family="Source Han Sans SC, Microsoft YaHei, sans-serif" font-size="16" font-weight="400" fill="#397456">空间或时间低通后可恢复亚码级平均</text></svg>