<?xml version='1.0' encoding='utf-8'?>
<svg xmlns="http://www.w3.org/2000/svg" width="1300" height="650" viewBox="0 0 1300 650" role="img" aria-label="两个微小面元之间的投影面积与立体角"><defs><marker id="arrow" markerWidth="10" markerHeight="8" refX="9" refY="4" orient="auto" markerUnits="strokeWidth"><path d="M 0 0 L 10 4 L 0 8 z" fill="#527da3" /></marker><marker id="arrow-dark" markerWidth="10" markerHeight="8" refX="9" refY="4" orient="auto" markerUnits="strokeWidth"><path d="M 0 0 L 10 4 L 0 8 z" fill="#334e68" /></marker></defs><rect width="1300" height="650" fill="#fbfdff" /><text x="650.0" y="44" text-anchor="middle" font-family="Source Han Sans SC, Microsoft YaHei, sans-serif" font-size="30" font-weight="700" fill="#102a43">面元之间的几何传输</text><polygon points="150,390 245,315 335,355 240,430" fill="#eaf4ff" stroke="#6aa6d8" stroke-width="3" /><polygon points="970,230 1065,290 1010,380 915,320" fill="#fff0f3" stroke="#d98298" stroke-width="3" /><line x1="242" y1="372" x2="990" y2="305" stroke="#334e68" stroke-width="3" stroke-linecap="round" marker-end="url(#arrow-dark)" /><text x="620" y="320" text-anchor="middle" font-family="Source Han Sans SC, Microsoft YaHei, sans-serif" font-size="22" font-weight="600" fill="#334e68">距离 r</text><line x1="242" y1="372" x2="180" y2="205" stroke="#4b8bbd" stroke-width="3" stroke-linecap="round" marker-end="url(#arrow)" /><line x1="990" y1="305" x2="1080" y2="125" stroke="#c2677e" stroke-width="3" stroke-linecap="round" marker-end="url(#arrow)" /><text x="161" y="188" text-anchor="middle" font-family="Source Han Sans SC, Microsoft YaHei, sans-serif" font-size="20" font-weight="600" fill="#356f9d">法线 nₛ</text><text x="1105" y="113" text-anchor="middle" font-family="Source Han Sans SC, Microsoft YaHei, sans-serif" font-size="20" font-weight="600" fill="#a94e66">法线 nᵣ</text><line x1="242" y1="372" x2="930" y2="230" stroke="#8aa4b8" stroke-width="2" stroke-linecap="round" stroke-dasharray="9 7" /><line x1="242" y1="372" x2="1010" y2="380" stroke="#8aa4b8" stroke-width="2" stroke-linecap="round" stroke-dasharray="9 7" /><text x="820" y="230" text-anchor="middle" font-family="Source Han Sans SC, Microsoft YaHei, sans-serif" font-size="19" font-weight="400" fill="#627d98">接收面元张开的 dΩᵣ</text><path d="M 226 329 A 48 48 0 0 0 198 337" fill="none" stroke="#4b8bbd" stroke-width="3" /><path d="M 955 280 A 48 48 0 0 1 1012 263" fill="none" stroke="#c2677e" stroke-width="3" /><text x="192" y="315" text-anchor="middle" font-family="Source Han Sans SC, Microsoft YaHei, sans-serif" font-size="20" font-weight="600" fill="#356f9d">θₛ</text><text x="1008" y="245" text-anchor="middle" font-family="Source Han Sans SC, Microsoft YaHei, sans-serif" font-size="20" font-weight="600" fill="#a94e66">θᵣ</text><text x="237" y="478" text-anchor="middle" font-family="Source Han Sans SC, Microsoft YaHei, sans-serif" font-size="22" font-weight="700" fill="#285b7a">源面元 dAₛ</text><text x="1000" y="430" text-anchor="middle" font-family="Source Han Sans SC, Microsoft YaHei, sans-serif" font-size="22" font-weight="700" fill="#9a4059">接收面元 dAᵣ</text><rect x="170" y="520" width="960" height="82" rx="16" fill="#f1f7fb" stroke="#b8ccda" stroke-width="2" /><text x="650" y="555" text-anchor="middle" font-family="Source Han Sans SC, Microsoft YaHei, sans-serif" font-size="25" font-weight="600" fill="#234e70">dΩᵣ = cosθᵣ dAᵣ / r²</text><text x="650" y="588" text-anchor="middle" font-family="Source Han Sans SC, Microsoft YaHei, sans-serif" font-size="25" font-weight="600" fill="#7b3651">d²Φ = Lₛ cosθₛ cosθᵣ dAₛ dAᵣ / r²</text></svg>