<?xml version='1.0' encoding='utf-8'?>
<svg xmlns="http://www.w3.org/2000/svg" width="1500" height="740" viewBox="0 0 1500 740" role="img" aria-label="逆滤波维纳滤波和Tikhonov滤波的频率增益"><defs><marker id="arrow-blue" markerWidth="10" markerHeight="8" refX="9" refY="4" orient="auto" markerUnits="strokeWidth"><path d="M 0 0 L 10 4 L 0 8 z" fill="#3b82b5" /></marker><marker id="arrow-dark" markerWidth="10" markerHeight="8" refX="9" refY="4" orient="auto" markerUnits="strokeWidth"><path d="M 0 0 L 10 4 L 0 8 z" fill="#334e68" /></marker><marker id="arrow-red" markerWidth="10" markerHeight="8" refX="9" refY="4" orient="auto" markerUnits="strokeWidth"><path d="M 0 0 L 10 4 L 0 8 z" fill="#c85b73" /></marker><marker id="arrow-green" markerWidth="10" markerHeight="8" refX="9" refY="4" orient="auto" markerUnits="strokeWidth"><path d="M 0 0 L 10 4 L 0 8 z" fill="#4d8c6a" /></marker><marker id="arrow-gold" markerWidth="10" markerHeight="8" refX="9" refY="4" orient="auto" markerUnits="strokeWidth"><path d="M 0 0 L 10 4 L 0 8 z" fill="#c58a2d" /></marker><marker id="arrow-purple" markerWidth="10" markerHeight="8" refX="9" refY="4" orient="auto" markerUnits="strokeWidth"><path d="M 0 0 L 10 4 L 0 8 z" fill="#7b4b74" /></marker></defs><rect width="1500" height="740" fill="#fbfdff" /><text x="750" y="43" text-anchor="middle" font-family="Source Han Sans SC, Microsoft YaHei, sans-serif" font-size="30" font-weight="700" fill="#102a43">正则化不是“少恢复一点”，而是按可观测性与先验给不同模态不同信任</text><line x1="120" y1="565" x2="1380" y2="565" stroke="#334e68" stroke-width="2" stroke-linecap="round" marker-end="url(#arrow-dark)" /><line x1="120" y1="565" x2="120" y2="135" stroke="#334e68" stroke-width="2" stroke-linecap="round" marker-end="url(#arrow-dark)" /><text x="1380" y="596" text-anchor="end" font-family="Source Han Sans SC, Microsoft YaHei, sans-serif" font-size="15" font-weight="400" fill="#627d98">归一化频率 ν</text><text x="116" y="123" text-anchor="start" font-family="Source Han Sans SC, Microsoft YaHei, sans-serif" font-size="15" font-weight="400" fill="#627d98">复原增益 |W(ν)|</text><polyline points="120.00,514.38 124.20,514.37 128.40,514.37 132.60,514.36 136.80,514.34 141.00,514.32 145.20,514.30 149.40,514.27 153.60,514.24 157.80,514.20 162.00,514.16 166.20,514.12 170.40,514.07 174.60,514.01 178.80,513.95 183.00,513.89 187.20,513.82 191.40,513.75 195.60,513.68 199.80,513.60 204.00,513.51 208.20,513.42 212.40,513.33 216.60,513.23 220.80,513.13 225.00,513.02 229.20,512.91 233.40,512.79 237.60,512.67 241.80,512.55 246.00,512.41 250.20,512.28 254.40,512.14 258.60,511.99 262.80,511.84 267.00,511.69 271.20,511.53 275.40,511.36 279.60,511.19 283.80,511.02 288.00,510.84 292.20,510.65 296.40,510.46 300.60,510.26 304.80,510.06 309.00,509.86 313.20,509.64 317.40,509.43 321.60,509.20 325.80,508.97 330.00,508.74 334.20,508.50 338.40,508.25 342.60,508.00 346.80,507.74 351.00,507.48 355.20,507.21 359.40,506.93 363.60,506.65 367.80,506.36 372.00,506.06 376.20,505.76 380.40,505.45 384.60,505.14 388.80,504.82 393.00,504.49 397.20,504.15 401.40,503.81 405.60,503.46 409.80,503.10 414.00,502.74 418.20,502.37 422.40,501.99 426.60,501.60 430.80,501.21 435.00,500.80 439.20,500.39 443.40,499.97 447.60,499.55 451.80,499.11 456.00,498.67 460.20,498.22 464.40,497.75 468.60,497.28 472.80,496.81 477.00,496.32 481.20,495.82 485.40,495.31 489.60,494.80 493.80,494.27 498.00,493.73 502.20,493.19 506.40,492.63 510.60,492.06 514.80,491.48 519.00,490.89 523.20,490.29 527.40,489.68 531.60,489.06 535.80,488.43 540.00,487.78 544.20,487.12 548.40,486.45 552.60,485.77 556.80,485.07 561.00,484.36 565.20,483.64 569.40,482.91 573.60,482.16 577.80,481.40 582.00,480.62 586.20,479.83 590.40,479.02 594.60,478.20 598.80,477.37 603.00,476.51 607.20,475.65 611.40,474.76 615.60,473.86 619.80,472.95 624.00,472.01 628.20,471.06 632.40,470.09 636.60,469.11 640.80,468.10 645.00,467.08 649.20,466.04 653.40,464.97 657.60,463.89 661.80,462.79 666.00,461.66 670.20,460.52 674.40,459.35 678.60,458.16 682.80,456.95 687.00,455.72 691.20,454.46 695.40,453.18 699.60,451.87 703.80,450.54 708.00,449.18 712.20,447.80 716.40,446.39 720.60,444.96 724.80,443.49 729.00,442.00 733.20,440.48 737.40,438.93 741.60,437.35 745.80,435.74 750.00,434.10 754.20,432.42 758.40,430.72 762.60,428.98 766.80,427.20 771.00,425.39 775.20,423.55 779.40,421.67 783.60,419.75 787.80,417.79 792.00,415.79 796.20,413.76 800.40,411.68 804.60,409.56 808.80,407.40 813.00,405.20 817.20,402.95 821.40,400.65 825.60,398.31 829.80,395.92 834.00,393.49 838.20,391.00 842.40,388.46 846.60,385.87 850.80,383.23 855.00,380.53 859.20,377.77 863.40,374.96 867.60,372.09 871.80,369.16 876.00,366.17 880.20,363.12 884.40,360.00 888.60,356.82 892.80,353.56 897.00,350.24 901.20,346.85 905.40,343.39 909.60,339.85 913.80,336.24 918.00,332.55 922.20,328.78 926.40,324.93 930.60,321.00 934.80,316.98 939.00,312.87 943.20,308.67 947.40,304.38 951.60,300.00 955.80,295.52 960.00,290.94 964.20,286.26 968.40,281.48 972.60,276.59 976.80,271.59 981.00,266.48 985.20,261.26 989.40,255.91 993.60,250.45 997.80,244.86 1002.00,239.15 1006.20,233.30 1010.40,227.33 1014.60,221.21 1018.80,214.96 1023.00,208.56 1027.20,202.01 1031.40,195.32 1035.60,188.46 1039.80,181.45 1044.00,174.28 1048.20,166.93 1052.40,160.00 1056.60,160.00 1060.80,160.00 1065.00,160.00 1069.20,160.00 1073.40,160.00 1077.60,160.00 1081.80,160.00 1086.00,160.00 1090.20,160.00 1094.40,160.00 1098.60,160.00 1102.80,160.00 1107.00,160.00 1111.20,160.00 1115.40,160.00 1119.60,160.00 1123.80,160.00 1128.00,160.00 1132.20,160.00 1136.40,160.00 1140.60,160.00 1144.80,160.00 1149.00,160.00 1153.20,160.00 1157.40,160.00 1161.60,160.00 1165.80,160.00 1170.00,160.00 1174.20,160.00 1178.40,160.00 1182.60,160.00 1186.80,160.00 1191.00,160.00 1195.20,160.00 1199.40,160.00 1203.60,160.00 1207.80,160.00 1212.00,160.00 1216.20,160.00 1220.40,160.00 1224.60,160.00 1228.80,160.00 1233.00,160.00 1237.20,160.00 1241.40,160.00 1245.60,160.00 1249.80,160.00 1254.00,160.00 1258.20,160.00 1262.40,160.00 1266.60,160.00 1270.80,160.00 1275.00,160.00 1279.20,160.00 1283.40,160.00 1287.60,160.00 1291.80,160.00 1296.00,160.00 1300.20,160.00 1304.40,160.00 1308.60,160.00 1312.80,160.00 1317.00,160.00 1321.20,160.00 1325.40,160.00 1329.60,160.00 1333.80,160.00 1338.00,160.00 1342.20,160.00 1346.40,160.00 1350.60,160.00 1354.80,160.00 1359.00,160.00 1363.20,160.00 1367.40,160.00 1371.60,160.00 1375.80,160.00 1380.00,160.00" fill="none" stroke="#c85b73" stroke-width="5" stroke-linecap="round" stroke-linejoin="round" /><polyline points="120.00,515.47 124.20,515.48 128.40,515.49 132.60,515.50 136.80,515.50 141.00,515.50 145.20,515.49 149.40,515.48 153.60,515.46 157.80,515.45 162.00,515.43 166.20,515.40 170.40,515.37 174.60,515.34 178.80,515.30 183.00,515.26 187.20,515.22 191.40,515.17 195.60,515.12 199.80,515.06 204.00,515.01 208.20,514.94 212.40,514.88 216.60,514.81 220.80,514.74 225.00,514.66 229.20,514.58 233.40,514.50 237.60,514.41 241.80,514.32 246.00,514.22 250.20,514.12 254.40,514.02 258.60,513.92 262.80,513.81 267.00,513.69 271.20,513.58 275.40,513.46 279.60,513.33 283.80,513.21 288.00,513.08 292.20,512.94 296.40,512.80 300.60,512.66 304.80,512.52 309.00,512.37 313.20,512.22 317.40,512.06 321.60,511.90 325.80,511.74 330.00,511.58 334.20,511.41 338.40,511.24 342.60,511.06 346.80,510.88 351.00,510.70 355.20,510.51 359.40,510.33 363.60,510.13 367.80,509.94 372.00,509.74 376.20,509.54 380.40,509.34 384.60,509.13 388.80,508.92 393.00,508.71 397.20,508.49 401.40,508.27 405.60,508.05 409.80,507.83 414.00,507.60 418.20,507.38 422.40,507.15 426.60,506.91 430.80,506.68 435.00,506.44 439.20,506.20 443.40,505.96 447.60,505.72 451.80,505.48 456.00,505.23 460.20,504.98 464.40,504.74 468.60,504.49 472.80,504.24 477.00,503.99 481.20,503.74 485.40,503.49 489.60,503.24 493.80,502.99 498.00,502.74 502.20,502.49 506.40,502.24 510.60,501.99 514.80,501.74 519.00,501.50 523.20,501.26 527.40,501.02 531.60,500.78 535.80,500.54 540.00,500.31 544.20,500.08 548.40,499.86 552.60,499.63 556.80,499.42 561.00,499.21 565.20,499.00 569.40,498.80 573.60,498.60 577.80,498.41 582.00,498.23 586.20,498.06 590.40,497.89 594.60,497.73 598.80,497.58 603.00,497.44 607.20,497.31 611.40,497.19 615.60,497.08 619.80,496.98 624.00,496.89 628.20,496.82 632.40,496.75 636.60,496.70 640.80,496.67 645.00,496.65 649.20,496.64 653.40,496.64 657.60,496.67 661.80,496.71 666.00,496.76 670.20,496.83 674.40,496.92 678.60,497.03 682.80,497.15 687.00,497.29 691.20,497.46 695.40,497.64 699.60,497.84 703.80,498.06 708.00,498.29 712.20,498.55 716.40,498.83 720.60,499.13 724.80,499.45 729.00,499.80 733.20,500.16 737.40,500.54 741.60,500.94 745.80,501.36 750.00,501.81 754.20,502.27 758.40,502.75 762.60,503.25 766.80,503.78 771.00,504.32 775.20,504.87 779.40,505.45 783.60,506.05 787.80,506.66 792.00,507.28 796.20,507.93 800.40,508.59 804.60,509.26 808.80,509.95 813.00,510.65 817.20,511.36 821.40,512.08 825.60,512.82 829.80,513.56 834.00,514.32 838.20,515.08 842.40,515.85 846.60,516.63 850.80,517.41 855.00,518.20 859.20,518.99 863.40,519.79 867.60,520.59 871.80,521.39 876.00,522.19 880.20,522.99 884.40,523.80 888.60,524.60 892.80,525.40 897.00,526.19 901.20,526.99 905.40,527.78 909.60,528.56 913.80,529.34 918.00,530.11 922.20,530.88 926.40,531.64 930.60,532.40 934.80,533.14 939.00,533.88 943.20,534.61 947.40,535.33 951.60,536.04 955.80,536.75 960.00,537.44 964.20,538.12 968.40,538.79 972.60,539.45 976.80,540.10 981.00,540.74 985.20,541.37 989.40,541.99 993.60,542.60 997.80,543.19 1002.00,543.78 1006.20,544.35 1010.40,544.91 1014.60,545.46 1018.80,546.00 1023.00,546.52 1027.20,547.04 1031.40,547.54 1035.60,548.04 1039.80,548.52 1044.00,548.99 1048.20,549.45 1052.40,549.90 1056.60,550.34 1060.80,550.77 1065.00,551.19 1069.20,551.59 1073.40,551.99 1077.60,552.38 1081.80,552.76 1086.00,553.12 1090.20,553.48 1094.40,553.83 1098.60,554.17 1102.80,554.50 1107.00,554.82 1111.20,555.14 1115.40,555.44 1119.60,555.74 1123.80,556.03 1128.00,556.31 1132.20,556.58 1136.40,556.84 1140.60,557.10 1144.80,557.35 1149.00,557.59 1153.20,557.83 1157.40,558.06 1161.60,558.28 1165.80,558.50 1170.00,558.71 1174.20,558.91 1178.40,559.11 1182.60,559.30 1186.80,559.49 1191.00,559.67 1195.20,559.84 1199.40,560.01 1203.60,560.18 1207.80,560.33 1212.00,560.49 1216.20,560.64 1220.40,560.78 1224.60,560.92 1228.80,561.06 1233.00,561.19 1237.20,561.32 1241.40,561.44 1245.60,561.56 1249.80,561.68 1254.00,561.79 1258.20,561.90 1262.40,562.01 1266.60,562.11 1270.80,562.21 1275.00,562.30 1279.20,562.40 1283.40,562.49 1287.60,562.57 1291.80,562.66 1296.00,562.74 1300.20,562.82 1304.40,562.89 1308.60,562.97 1312.80,563.04 1317.00,563.10 1321.20,563.17 1325.40,563.24 1329.60,563.30 1333.80,563.36 1338.00,563.42 1342.20,563.47 1346.40,563.53 1350.60,563.58 1354.80,563.63 1359.00,563.68 1363.20,563.72 1367.40,563.77 1371.60,563.81 1375.80,563.86 1380.00,563.90" fill="none" stroke="#3b82b5" stroke-width="5" stroke-linecap="round" stroke-linejoin="round" /><polyline points="120.00,514.38 124.20,514.37 128.40,514.37 132.60,514.36 136.80,514.34 141.00,514.33 145.20,514.30 149.40,514.28 153.60,514.25 157.80,514.21 162.00,514.17 166.20,514.13 170.40,514.09 174.60,514.04 178.80,513.98 183.00,513.92 187.20,513.86 191.40,513.79 195.60,513.72 199.80,513.65 204.00,513.57 208.20,513.49 212.40,513.40 216.60,513.31 220.80,513.21 225.00,513.11 229.20,513.01 233.40,512.90 237.60,512.79 241.80,512.67 246.00,512.55 250.20,512.43 254.40,512.30 258.60,512.16 262.80,512.03 267.00,511.88 271.20,511.74 275.40,511.58 279.60,511.43 283.80,511.27 288.00,511.10 292.20,510.93 296.40,510.76 300.60,510.58 304.80,510.40 309.00,510.21 313.20,510.02 317.40,509.82 321.60,509.62 325.80,509.41 330.00,509.20 334.20,508.98 338.40,508.76 342.60,508.54 346.80,508.31 351.00,508.07 355.20,507.83 359.40,507.58 363.60,507.33 367.80,507.08 372.00,506.82 376.20,506.55 380.40,506.28 384.60,506.00 388.80,505.72 393.00,505.44 397.20,505.14 401.40,504.85 405.60,504.55 409.80,504.24 414.00,503.93 418.20,503.61 422.40,503.28 426.60,502.95 430.80,502.62 435.00,502.28 439.20,501.94 443.40,501.58 447.60,501.23 451.80,500.87 456.00,500.50 460.20,500.13 464.40,499.75 468.60,499.37 472.80,498.98 477.00,498.58 481.20,498.18 485.40,497.78 489.60,497.37 493.80,496.95 498.00,496.53 502.20,496.10 506.40,495.67 510.60,495.23 514.80,494.79 519.00,494.34 523.20,493.89 527.40,493.43 531.60,492.97 535.80,492.50 540.00,492.02 544.20,491.55 548.40,491.06 552.60,490.58 556.80,490.08 561.00,489.59 565.20,489.09 569.40,488.58 573.60,488.07 577.80,487.56 582.00,487.04 586.20,486.52 590.40,486.00 594.60,485.47 598.80,484.95 603.00,484.41 607.20,483.88 611.40,483.34 615.60,482.80 619.80,482.26 624.00,481.72 628.20,481.18 632.40,480.63 636.60,480.09 640.80,479.55 645.00,479.00 649.20,478.46 653.40,477.92 657.60,477.38 661.80,476.84 666.00,476.30 670.20,475.77 674.40,475.23 678.60,474.71 682.80,474.19 687.00,473.67 691.20,473.16 695.40,472.65 699.60,472.15 703.80,471.66 708.00,471.17 712.20,470.69 716.40,470.23 720.60,469.77 724.80,469.32 729.00,468.89 733.20,468.46 737.40,468.05 741.60,467.65 745.80,467.26 750.00,466.89 754.20,466.54 758.40,466.20 762.60,465.88 766.80,465.58 771.00,465.29 775.20,465.02 779.40,464.78 783.60,464.55 787.80,464.35 792.00,464.17 796.20,464.01 800.40,463.87 804.60,463.76 808.80,463.67 813.00,463.61 817.20,463.58 821.40,463.57 825.60,463.59 829.80,463.63 834.00,463.71 838.20,463.81 842.40,463.94 846.60,464.10 850.80,464.29 855.00,464.51 859.20,464.76 863.40,465.04 867.60,465.35 871.80,465.69 876.00,466.06 880.20,466.46 884.40,466.89 888.60,467.35 892.80,467.84 897.00,468.36 901.20,468.91 905.40,469.48 909.60,470.09 913.80,470.72 918.00,471.38 922.20,472.06 926.40,472.78 930.60,473.51 934.80,474.27 939.00,475.06 943.20,475.86 947.40,476.69 951.60,477.54 955.80,478.41 960.00,479.30 964.20,480.21 968.40,481.13 972.60,482.07 976.80,483.03 981.00,484.00 985.20,484.98 989.40,485.98 993.60,486.99 997.80,488.00 1002.00,489.03 1006.20,490.06 1010.40,491.10 1014.60,492.15 1018.80,493.20 1023.00,494.26 1027.20,495.32 1031.40,496.38 1035.60,497.44 1039.80,498.50 1044.00,499.57 1048.20,500.63 1052.40,501.69 1056.60,502.74 1060.80,503.80 1065.00,504.85 1069.20,505.89 1073.40,506.93 1077.60,507.96 1081.80,508.99 1086.00,510.01 1090.20,511.02 1094.40,512.02 1098.60,513.01 1102.80,514.00 1107.00,514.97 1111.20,515.94 1115.40,516.89 1119.60,517.84 1123.80,518.77 1128.00,519.69 1132.20,520.60 1136.40,521.50 1140.60,522.39 1144.80,523.26 1149.00,524.12 1153.20,524.97 1157.40,525.81 1161.60,526.64 1165.80,527.45 1170.00,528.25 1174.20,529.03 1178.40,529.81 1182.60,530.57 1186.80,531.32 1191.00,532.05 1195.20,532.78 1199.40,533.49 1203.60,534.19 1207.80,534.87 1212.00,535.54 1216.20,536.20 1220.40,536.85 1224.60,537.49 1228.80,538.11 1233.00,538.72 1237.20,539.33 1241.40,539.91 1245.60,540.49 1249.80,541.06 1254.00,541.61 1258.20,542.15 1262.40,542.69 1266.60,543.21 1270.80,543.72 1275.00,544.22 1279.20,544.71 1283.40,545.18 1287.60,545.65 1291.80,546.11 1296.00,546.56 1300.20,547.00 1304.40,547.43 1308.60,547.85 1312.80,548.26 1317.00,548.67 1321.20,549.06 1325.40,549.45 1329.60,549.82 1333.80,550.19 1338.00,550.55 1342.20,550.90 1346.40,551.25 1350.60,551.58 1354.80,551.91 1359.00,552.23 1363.20,552.55 1367.40,552.85 1371.60,553.15 1375.80,553.45 1380.00,553.73" fill="none" stroke="#4d8c6a" stroke-width="4" stroke-linecap="round" stroke-linejoin="round" stroke-dasharray="10 7" /><line x1="220" y1="625" x2="290" y2="625" stroke="#c85b73" stroke-width="5" stroke-linecap="round" /><text x="305" y="632" text-anchor="start" font-family="Source Han Sans SC, Microsoft YaHei, sans-serif" font-size="18" font-weight="700" fill="#c85b73">逆滤波</text><line x1="530" y1="625" x2="600" y2="625" stroke="#3b82b5" stroke-width="5" stroke-linecap="round" /><text x="615" y="632" text-anchor="start" font-family="Source Han Sans SC, Microsoft YaHei, sans-serif" font-size="18" font-weight="700" fill="#3b82b5">维纳</text><line x1="840" y1="625" x2="910" y2="625" stroke="#4d8c6a" stroke-width="5" stroke-linecap="round" stroke-dasharray="10 7" /><text x="925" y="632" text-anchor="start" font-family="Source Han Sans SC, Microsoft YaHei, sans-serif" font-size="18" font-weight="700" fill="#4d8c6a">Tikhonov</text><rect x="1040" y="595" width="330" height="75" rx="16" fill="#fff7e8" stroke="#e8c77d" stroke-width="2.5" /><text x="1205.0" y="637" text-anchor="middle" font-family="Source Han Sans SC, Microsoft YaHei, sans-serif" font-size="16" font-weight="700" fill="#8a5f19">λ 或 PSD 决定偏差—方差权衡</text></svg>