<?xml version='1.0' encoding='utf-8'?>
<svg xmlns="http://www.w3.org/2000/svg" width="1500" height="720" viewBox="0 0 1500 720" role="img" aria-label="光学像素采样处理与输出共同决定有效分辨率"><defs><marker id="arrow-blue" markerWidth="10" markerHeight="8" refX="9" refY="4" orient="auto" markerUnits="strokeWidth"><path d="M 0 0 L 10 4 L 0 8 z" fill="#3b82b5" /></marker><marker id="arrow-dark" markerWidth="10" markerHeight="8" refX="9" refY="4" orient="auto" markerUnits="strokeWidth"><path d="M 0 0 L 10 4 L 0 8 z" fill="#334e68" /></marker><marker id="arrow-red" markerWidth="10" markerHeight="8" refX="9" refY="4" orient="auto" markerUnits="strokeWidth"><path d="M 0 0 L 10 4 L 0 8 z" fill="#c85b73" /></marker><marker id="arrow-green" markerWidth="10" markerHeight="8" refX="9" refY="4" orient="auto" markerUnits="strokeWidth"><path d="M 0 0 L 10 4 L 0 8 z" fill="#4d8c6a" /></marker><marker id="arrow-gold" markerWidth="10" markerHeight="8" refX="9" refY="4" orient="auto" markerUnits="strokeWidth"><path d="M 0 0 L 10 4 L 0 8 z" fill="#c58a2d" /></marker><marker id="arrow-purple" markerWidth="10" markerHeight="8" refX="9" refY="4" orient="auto" markerUnits="strokeWidth"><path d="M 0 0 L 10 4 L 0 8 z" fill="#7b4b74" /></marker><linearGradient id="irradiance" x1="0" x2="1" y1="0" y2="0"><stop offset="0" stop-color="#eaf4ff" /><stop offset="0.45" stop-color="#3b82b5" /><stop offset="0.7" stop-color="#c85b73" /><stop offset="1" stop-color="#fff0f3" /></linearGradient></defs><rect width="1500" height="720" fill="#fbfdff" /><text x="750.0" y="43" text-anchor="middle" font-family="Source Han Sans SC, Microsoft YaHei, sans-serif" font-size="31" font-weight="700" fill="#102a43">有效分辨率是一条传递链，不等于传感器像素总数</text><rect x="35" y="115" width="250" height="125" rx="16" fill="#eaf4ff" stroke="#9bc7ee" stroke-width="2.5" /><text x="160.0" y="157" text-anchor="middle" font-family="Source Han Sans SC, Microsoft YaHei, sans-serif" font-size="21" font-weight="700" fill="#102a43">光学</text><text x="160.0" y="192" text-anchor="middle" font-family="Source Han Sans SC, Microsoft YaHei, sans-serif" font-size="16" font-weight="400" fill="#486581">衍射 · 像差 · 对焦</text><rect x="330" y="115" width="250" height="125" rx="16" fill="#fff0f3" stroke="#eab0be" stroke-width="2.5" /><text x="455.0" y="157" text-anchor="middle" font-family="Source Han Sans SC, Microsoft YaHei, sans-serif" font-size="21" font-weight="700" fill="#102a43">运动</text><text x="455.0" y="192" text-anchor="middle" font-family="Source Han Sans SC, Microsoft YaHei, sans-serif" font-size="16" font-weight="400" fill="#486581">曝光积分 · 抖动</text><rect x="625" y="115" width="250" height="125" rx="16" fill="#fff7e8" stroke="#e8c77d" stroke-width="2.5" /><text x="750.0" y="157" text-anchor="middle" font-family="Source Han Sans SC, Microsoft YaHei, sans-serif" font-size="21" font-weight="700" fill="#102a43">像素孔径</text><text x="750.0" y="192" text-anchor="middle" font-family="Source Han Sans SC, Microsoft YaHei, sans-serif" font-size="16" font-weight="400" fill="#486581">面积预滤波</text><rect x="920" y="115" width="250" height="125" rx="16" fill="#edf8f2" stroke="#9fd6b7" stroke-width="2.5" /><text x="1045.0" y="157" text-anchor="middle" font-family="Source Han Sans SC, Microsoft YaHei, sans-serif" font-size="21" font-weight="700" fill="#102a43">晶格与 CFA</text><text x="1045.0" y="192" text-anchor="middle" font-family="Source Han Sans SC, Microsoft YaHei, sans-serif" font-size="16" font-weight="400" fill="#486581">采样 · 混叠</text><rect x="1215" y="115" width="250" height="125" rx="16" fill="#f7efff" stroke="#c9a9e8" stroke-width="2.5" /><text x="1340.0" y="157" text-anchor="middle" font-family="Source Han Sans SC, Microsoft YaHei, sans-serif" font-size="21" font-weight="700" fill="#102a43">重建与输出</text><text x="1340.0" y="192" text-anchor="middle" font-family="Source Han Sans SC, Microsoft YaHei, sans-serif" font-size="16" font-weight="400" fill="#486581">去马赛克 · 缩放</text><line x1="285" y1="177" x2="323" y2="177" stroke="#527da3" stroke-width="3" stroke-linecap="round" marker-end="url(#arrow-blue)" /><line x1="580" y1="177" x2="618" y2="177" stroke="#527da3" stroke-width="3" stroke-linecap="round" marker-end="url(#arrow-blue)" /><line x1="875" y1="177" x2="913" y2="177" stroke="#527da3" stroke-width="3" stroke-linecap="round" marker-end="url(#arrow-blue)" /><line x1="1170" y1="177" x2="1208" y2="177" stroke="#527da3" stroke-width="3" stroke-linecap="round" marker-end="url(#arrow-blue)" /><text x="750" y="278" text-anchor="middle" font-family="Source Han Sans SC, Microsoft YaHei, sans-serif" font-size="19" font-weight="400" fill="#7b4b74">连续环节的 OTF 近似相乘；采样后出现频谱复制，不能再用单一低通曲线概括</text><text x="435" y="335" text-anchor="middle" font-family="Source Han Sans SC, Microsoft YaHei, sans-serif" font-size="22" font-weight="700" fill="#285b7a">提高像素数的边际收益</text><line x1="110" y1="625" x2="760" y2="625" stroke="#334e68" stroke-width="2" stroke-linecap="round" marker-end="url(#arrow-dark)" /><line x1="110" y1="625" x2="110" y2="360" stroke="#334e68" stroke-width="2" stroke-linecap="round" marker-end="url(#arrow-dark)" /><polyline points="110.00,625.00 113.25,621.05 116.50,617.17 119.75,613.34 123.00,609.57 126.25,605.85 129.50,602.19 132.75,598.59 136.00,595.03 139.25,591.53 142.50,588.09 145.75,584.69 149.00,581.35 152.25,578.05 155.50,574.80 158.75,571.61 162.00,568.46 165.25,565.35 168.50,562.30 171.75,559.28 175.00,556.32 178.25,553.39 181.50,550.51 184.75,547.68 188.00,544.88 191.25,542.13 194.50,539.42 197.75,536.75 201.00,534.12 204.25,531.53 207.50,528.97 210.75,526.46 214.00,523.98 217.25,521.54 220.50,519.13 223.75,516.76 227.00,514.43 230.25,512.13 233.50,509.86 236.75,507.63 240.00,505.44 243.25,503.27 246.50,501.14 249.75,499.04 253.00,496.97 256.25,494.93 259.50,492.92 262.75,490.94 266.00,488.99 269.25,487.07 272.50,485.18 275.75,483.31 279.00,481.48 282.25,479.67 285.50,477.89 288.75,476.13 292.00,474.40 295.25,472.70 298.50,471.02 301.75,469.37 305.00,467.74 308.25,466.14 311.50,464.56 314.75,463.00 318.00,461.47 321.25,459.96 324.50,458.47 327.75,457.00 331.00,455.56 334.25,454.13 337.50,452.73 340.75,451.35 344.00,449.99 347.25,448.65 350.50,447.33 353.75,446.03 357.00,444.75 360.25,443.49 363.50,442.25 366.75,441.02 370.00,439.82 373.25,438.63 376.50,437.46 379.75,436.30 383.00,435.17 386.25,434.05 389.50,432.95 392.75,431.86 396.00,430.79 399.25,429.74 402.50,428.70 405.75,427.68 409.00,426.67 412.25,425.68 415.50,424.70 418.75,423.73 422.00,422.79 425.25,421.85 428.50,420.93 431.75,420.02 435.00,419.13 438.25,418.25 441.50,417.38 444.75,416.53 448.00,415.69 451.25,414.86 454.50,414.04 457.75,413.24 461.00,412.44 464.25,411.66 467.50,410.89 470.75,410.14 474.00,409.39 477.25,408.65 480.50,407.93 483.75,407.22 487.00,406.51 490.25,405.82 493.50,405.14 496.75,404.47 500.00,403.80 503.25,403.15 506.50,402.51 509.75,401.88 513.00,401.25 516.25,400.64 519.50,400.03 522.75,399.44 526.00,398.85 529.25,398.27 532.50,397.70 535.75,397.14 539.00,396.59 542.25,396.04 545.50,395.51 548.75,394.98 552.00,394.46 555.25,393.94 558.50,393.44 561.75,392.94 565.00,392.45 568.25,391.97 571.50,391.49 574.75,391.02 578.00,390.56 581.25,390.11 584.50,389.66 587.75,389.22 591.00,388.78 594.25,388.35 597.50,387.93 600.75,387.51 604.00,387.11 607.25,386.70 610.50,386.30 613.75,385.91 617.00,385.53 620.25,385.15 623.50,384.77 626.75,384.40 630.00,384.04 633.25,383.68 636.50,383.33 639.75,382.98 643.00,382.64 646.25,382.30 649.50,381.97 652.75,381.64 656.00,381.32 659.25,381.00 662.50,380.69 665.75,380.38 669.00,380.08 672.25,379.78 675.50,379.49 678.75,379.20 682.00,378.91 685.25,378.63 688.50,378.35 691.75,378.08 695.00,377.81 698.25,377.54 701.50,377.28 704.75,377.03 708.00,376.77 711.25,376.52 714.50,376.28 717.75,376.03 721.00,375.80 724.25,375.56 727.50,375.33 730.75,375.10 734.00,374.88 737.25,374.65 740.50,374.44 743.75,374.22 747.00,374.01 750.25,373.80 753.50,373.60 756.75,373.39 760.00,373.19" stroke="#4d8c6a" stroke-width="4" fill="none" stroke-linejoin="round" stroke-linecap="round" /><polyline points="110.00,625.00 113.25,621.07 116.50,617.21 119.75,613.44 123.00,609.74 126.25,606.13 129.50,602.58 132.75,599.11 136.00,595.71 139.25,592.38 142.50,589.12 145.75,585.92 149.00,582.80 152.25,579.73 155.50,576.73 158.75,573.79 162.00,570.91 165.25,568.10 168.50,565.33 171.75,562.63 175.00,559.98 178.25,557.39 181.50,554.85 184.75,552.36 188.00,549.93 191.25,547.54 194.50,545.20 197.75,542.91 201.00,540.67 204.25,538.48 207.50,536.33 210.75,534.22 214.00,532.16 217.25,530.14 220.50,528.16 223.75,526.22 227.00,524.33 230.25,522.47 233.50,520.65 236.75,518.87 240.00,517.12 243.25,515.41 246.50,513.74 249.75,512.10 253.00,510.49 256.25,508.92 259.50,507.38 262.75,505.87 266.00,504.39 269.25,502.94 272.50,501.53 275.75,500.14 279.00,498.78 282.25,497.45 285.50,496.14 288.75,494.87 292.00,493.62 295.25,492.39 298.50,491.19 301.75,490.02 305.00,488.87 308.25,487.74 311.50,486.63 314.75,485.55 318.00,484.49 321.25,483.46 324.50,482.44 327.75,481.45 331.00,480.47 334.25,479.52 337.50,478.58 340.75,477.67 344.00,476.77 347.25,475.90 350.50,475.04 353.75,474.19 357.00,473.37 360.25,472.56 363.50,471.77 366.75,471.00 370.00,470.24 373.25,469.49 376.50,468.77 379.75,468.05 383.00,467.36 386.25,466.67 389.50,466.00 392.75,465.35 396.00,464.71 399.25,464.08 402.50,463.46 405.75,462.86 409.00,462.27 412.25,461.69 415.50,461.12 418.75,460.57 422.00,460.02 425.25,459.49 428.50,458.97 431.75,458.46 435.00,457.96 438.25,457.47 441.50,456.99 444.75,456.52 448.00,456.06 451.25,455.61 454.50,455.17 457.75,454.73 461.00,454.31 464.25,453.90 467.50,453.49 470.75,453.09 474.00,452.70 477.25,452.32 480.50,451.95 483.75,451.58 487.00,451.22 490.25,450.87 493.50,450.53 496.75,450.19 500.00,449.86 503.25,449.54 506.50,449.22 509.75,448.91 513.00,448.61 516.25,448.31 519.50,448.02 522.75,447.74 526.00,447.46 529.25,447.18 532.50,446.92 535.75,446.65 539.00,446.40 542.25,446.15 545.50,445.90 548.75,445.66 552.00,445.42 555.25,445.19 558.50,444.96 561.75,444.74 565.00,444.52 568.25,444.31 571.50,444.10 574.75,443.90 578.00,443.70 581.25,443.50 584.50,443.31 587.75,443.12 591.00,442.94 594.25,442.76 597.50,442.58 600.75,442.41 604.00,442.24 607.25,442.08 610.50,441.91 613.75,441.75 617.00,441.60 620.25,441.45 623.50,441.30 626.75,441.15 630.00,441.01 633.25,440.87 636.50,440.73 639.75,440.59 643.00,440.46 646.25,440.33 649.50,440.21 652.75,440.08 656.00,439.96 659.25,439.84 662.50,439.73 665.75,439.61 669.00,439.50 672.25,439.39 675.50,439.28 678.75,439.18 682.00,439.08 685.25,438.98 688.50,438.88 691.75,438.78 695.00,438.69 698.25,438.59 701.50,438.50 704.75,438.42 708.00,438.33 711.25,438.24 714.50,438.16 717.75,438.08 721.00,438.00 724.25,437.92 727.50,437.84 730.75,437.77 734.00,437.69 737.25,437.62 740.50,437.55 743.75,437.48 747.00,437.42 750.25,437.35 753.50,437.28 756.75,437.22 760.00,437.16" stroke="#3b82b5" stroke-width="4" fill="none" stroke-linejoin="round" stroke-linecap="round" /><polyline points="110.00,625.00 113.25,621.09 116.50,617.31 119.75,613.65 123.00,610.11 126.25,606.69 129.50,603.38 132.75,600.18 136.00,597.09 139.25,594.09 142.50,591.20 145.75,588.40 149.00,585.69 152.25,583.07 155.50,580.53 158.75,578.08 162.00,575.71 165.25,573.41 168.50,571.20 171.75,569.05 175.00,566.97 178.25,564.97 181.50,563.03 184.75,561.15 188.00,559.33 191.25,557.58 194.50,555.88 197.75,554.23 201.00,552.64 204.25,551.11 207.50,549.62 210.75,548.18 214.00,546.79 217.25,545.44 220.50,544.14 223.75,542.88 227.00,541.67 230.25,540.49 233.50,539.35 236.75,538.25 240.00,537.18 243.25,536.15 246.50,535.16 249.75,534.19 253.00,533.26 256.25,532.36 259.50,531.49 262.75,530.64 266.00,529.83 269.25,529.04 272.50,528.27 275.75,527.54 279.00,526.82 282.25,526.13 285.50,525.46 288.75,524.82 292.00,524.19 295.25,523.59 298.50,523.00 301.75,522.44 305.00,521.89 308.25,521.36 311.50,520.85 314.75,520.35 318.00,519.87 321.25,519.41 324.50,518.96 327.75,518.53 331.00,518.11 334.25,517.71 337.50,517.31 340.75,516.93 344.00,516.57 347.25,516.21 350.50,515.87 353.75,515.54 357.00,515.22 360.25,514.91 363.50,514.61 366.75,514.32 370.00,514.04 373.25,513.76 376.50,513.50 379.75,513.25 383.00,513.00 386.25,512.76 389.50,512.53 392.75,512.31 396.00,512.10 399.25,511.89 402.50,511.69 405.75,511.49 409.00,511.30 412.25,511.12 415.50,510.95 418.75,510.78 422.00,510.61 425.25,510.45 428.50,510.30 431.75,510.15 435.00,510.00 438.25,509.86 441.50,509.73 444.75,509.60 448.00,509.47 451.25,509.35 454.50,509.23 457.75,509.12 461.00,509.01 464.25,508.90 467.50,508.80 470.75,508.70 474.00,508.60 477.25,508.51 480.50,508.42 483.75,508.33 487.00,508.25 490.25,508.16 493.50,508.08 496.75,508.01 500.00,507.93 503.25,507.86 506.50,507.79 509.75,507.73 513.00,507.66 516.25,507.60 519.50,507.54 522.75,507.48 526.00,507.42 529.25,507.37 532.50,507.32 535.75,507.26 539.00,507.21 542.25,507.17 545.50,507.12 548.75,507.07 552.00,507.03 555.25,506.99 558.50,506.95 561.75,506.91 565.00,506.87 568.25,506.83 571.50,506.80 574.75,506.76 578.00,506.73 581.25,506.70 584.50,506.67 587.75,506.64 591.00,506.61 594.25,506.58 597.50,506.55 600.75,506.53 604.00,506.50 607.25,506.48 610.50,506.45 613.75,506.43 617.00,506.41 620.25,506.39 623.50,506.37 626.75,506.35 630.00,506.33 633.25,506.31 636.50,506.29 639.75,506.27 643.00,506.25 646.25,506.24 649.50,506.22 652.75,506.21 656.00,506.19 659.25,506.18 662.50,506.16 665.75,506.15 669.00,506.14 672.25,506.12 675.50,506.11 678.75,506.10 682.00,506.09 685.25,506.08 688.50,506.07 691.75,506.06 695.00,506.05 698.25,506.04 701.50,506.03 704.75,506.02 708.00,506.01 711.25,506.00 714.50,505.99 717.75,505.98 721.00,505.98 724.25,505.97 727.50,505.96 730.75,505.95 734.00,505.95 737.25,505.94 740.50,505.94 743.75,505.93 747.00,505.92 750.25,505.92 753.50,505.91 756.75,505.91 760.00,505.90" stroke="#c85b73" stroke-width="4" fill="none" stroke-linejoin="round" stroke-linecap="round" /><text x="760" y="663" text-anchor="end" font-family="Source Han Sans SC, Microsoft YaHei, sans-serif" font-size="16" font-weight="400" fill="#627d98">线性像素密度</text><text x="106" y="346" text-anchor="start" font-family="Source Han Sans SC, Microsoft YaHei, sans-serif" font-size="16" font-weight="400" fill="#627d98">有效细节</text><text x="635" y="385" text-anchor="middle" font-family="Source Han Sans SC, Microsoft YaHei, sans-serif" font-size="15" font-weight="700" fill="#397456">高带宽光学</text><text x="600" y="455" text-anchor="middle" font-family="Source Han Sans SC, Microsoft YaHei, sans-serif" font-size="15" font-weight="700" fill="#285b7a">中等光学</text><text x="500" y="530" text-anchor="middle" font-family="Source Han Sans SC, Microsoft YaHei, sans-serif" font-size="15" font-weight="700" fill="#a24862">低带宽/运动</text><rect x="825" y="330" width="600" height="315" rx="16" fill="#f4f9fd" stroke="#9bc7ee" stroke-width="2.5" /><text x="1125.0" y="372" text-anchor="middle" font-family="Source Han Sans SC, Microsoft YaHei, sans-serif" font-size="21" font-weight="700" fill="#285b7a">三个尺度必须分开报告</text><circle cx="885" cy="384" r="10" fill="#3b82b5" /><text x="915" y="390" text-anchor="start" font-family="Source Han Sans SC, Microsoft YaHei, sans-serif" font-size="18" font-weight="700" fill="#102a43">传感器尺度</text><text x="1060" y="423" text-anchor="start" font-family="Source Han Sans SC, Microsoft YaHei, sans-serif" font-size="17" font-weight="400" fill="#486581">νN = 1/(2p)  cycle/mm</text><circle cx="885" cy="464" r="10" fill="#3b82b5" /><text x="915" y="470" text-anchor="start" font-family="Source Han Sans SC, Microsoft YaHei, sans-serif" font-size="18" font-weight="700" fill="#102a43">画面尺度</text><text x="1060" y="503" text-anchor="start" font-family="Source Han Sans SC, Microsoft YaHei, sans-serif" font-size="17" font-weight="400" fill="#486581">LW/PH = 2ν · 画面高度</text><circle cx="885" cy="544" r="10" fill="#3b82b5" /><text x="915" y="550" text-anchor="start" font-family="Source Han Sans SC, Microsoft YaHei, sans-serif" font-size="18" font-weight="700" fill="#102a43">输出尺度</text><text x="1060" y="583" text-anchor="start" font-family="Source Han Sans SC, Microsoft YaHei, sans-serif" font-size="17" font-weight="400" fill="#486581">受缩放像素、打印与观看共同限制</text><text x="750.0" y="690" text-anchor="middle" font-family="Source Han Sans SC, Microsoft YaHei, sans-serif" font-size="20" font-weight="700" fill="#7b4b74">“2400 万像素”描述数组大小；它不自动证明 2400 万个独立、无混叠且高 SNR 的场景自由度</text></svg>