<?xml version='1.0' encoding='utf-8'?>
<svg xmlns="http://www.w3.org/2000/svg" width="1500" height="690" viewBox="0 0 1500 690" role="img" aria-label="全局快门与滚动快门的时空采样"><defs><marker id="arrow-blue" markerWidth="10" markerHeight="8" refX="9" refY="4" orient="auto" markerUnits="strokeWidth"><path d="M 0 0 L 10 4 L 0 8 z" fill="#3b82b5" /></marker><marker id="arrow-dark" markerWidth="10" markerHeight="8" refX="9" refY="4" orient="auto" markerUnits="strokeWidth"><path d="M 0 0 L 10 4 L 0 8 z" fill="#334e68" /></marker><marker id="arrow-red" markerWidth="10" markerHeight="8" refX="9" refY="4" orient="auto" markerUnits="strokeWidth"><path d="M 0 0 L 10 4 L 0 8 z" fill="#c85b73" /></marker><marker id="arrow-green" markerWidth="10" markerHeight="8" refX="9" refY="4" orient="auto" markerUnits="strokeWidth"><path d="M 0 0 L 10 4 L 0 8 z" fill="#4d8c6a" /></marker><marker id="arrow-gold" markerWidth="10" markerHeight="8" refX="9" refY="4" orient="auto" markerUnits="strokeWidth"><path d="M 0 0 L 10 4 L 0 8 z" fill="#c58a2d" /></marker></defs><rect width="1500" height="690" fill="#fbfdff" /><text x="750.0" y="43" text-anchor="middle" font-family="Source Han Sans SC, Microsoft YaHei, sans-serif" font-size="31" font-weight="700" fill="#102a43">快门不仅决定积分长度，也决定各行的时间原点</text><line x1="750" y1="82" x2="750" y2="620" stroke="#d7e0e7" stroke-width="2" stroke-linecap="round" /><text x="375" y="95" text-anchor="middle" font-family="Source Han Sans SC, Microsoft YaHei, sans-serif" font-size="25" font-weight="700" fill="#4d8c6a">全局快门</text><line x1="90" y1="485" x2="660" y2="485" stroke="#334e68" stroke-width="2" stroke-linecap="round" marker-end="url(#arrow-dark)" /><line x1="90" y1="485" x2="90" y2="145" stroke="#334e68" stroke-width="2" stroke-linecap="round" marker-end="url(#arrow-dark)" /><text x="660" y="519" text-anchor="end" font-family="Source Han Sans SC, Microsoft YaHei, sans-serif" font-size="17" font-weight="400" fill="#627d98">时间</text><text x="74" y="150" text-anchor="start" font-family="Source Han Sans SC, Microsoft YaHei, sans-serif" font-size="17" font-weight="400" fill="#627d98">行号</text><rect x="170" y="167" width="235" height="16" rx="4" fill="#4d8c6a" fill-opacity=".42" stroke="#4d8c6a" stroke-width="1.5" /><rect x="170" y="201" width="235" height="16" rx="4" fill="#4d8c6a" fill-opacity=".42" stroke="#4d8c6a" stroke-width="1.5" /><rect x="170" y="235" width="235" height="16" rx="4" fill="#4d8c6a" fill-opacity=".42" stroke="#4d8c6a" stroke-width="1.5" /><rect x="170" y="269" width="235" height="16" rx="4" fill="#4d8c6a" fill-opacity=".42" stroke="#4d8c6a" stroke-width="1.5" /><rect x="170" y="303" width="235" height="16" rx="4" fill="#4d8c6a" fill-opacity=".42" stroke="#4d8c6a" stroke-width="1.5" /><rect x="170" y="337" width="235" height="16" rx="4" fill="#4d8c6a" fill-opacity=".42" stroke="#4d8c6a" stroke-width="1.5" /><rect x="170" y="371" width="235" height="16" rx="4" fill="#4d8c6a" fill-opacity=".42" stroke="#4d8c6a" stroke-width="1.5" /><rect x="170" y="405" width="235" height="16" rx="4" fill="#4d8c6a" fill-opacity=".42" stroke="#4d8c6a" stroke-width="1.5" /><rect x="170" y="439" width="235" height="16" rx="4" fill="#4d8c6a" fill-opacity=".42" stroke="#4d8c6a" stroke-width="1.5" /><line x1="170" y1="155" x2="170" y2="465" stroke="#4d8c6a" stroke-width="3" stroke-linecap="round" stroke-dasharray="9 6" /><text x="375" y="535" text-anchor="middle" font-family="Source Han Sans SC, Microsoft YaHei, sans-serif" font-size="18" font-weight="700" fill="#4d8c6a">所有行共享同一曝光起点</text><text x="1125" y="95" text-anchor="middle" font-family="Source Han Sans SC, Microsoft YaHei, sans-serif" font-size="25" font-weight="700" fill="#c85b73">滚动快门</text><line x1="840" y1="485" x2="1410" y2="485" stroke="#334e68" stroke-width="2" stroke-linecap="round" marker-end="url(#arrow-dark)" /><line x1="840" y1="485" x2="840" y2="145" stroke="#334e68" stroke-width="2" stroke-linecap="round" marker-end="url(#arrow-dark)" /><text x="1410" y="519" text-anchor="end" font-family="Source Han Sans SC, Microsoft YaHei, sans-serif" font-size="17" font-weight="400" fill="#627d98">时间</text><text x="824" y="150" text-anchor="start" font-family="Source Han Sans SC, Microsoft YaHei, sans-serif" font-size="17" font-weight="400" fill="#627d98">行号</text><rect x="920" y="167" width="235" height="16" rx="4" fill="#c85b73" fill-opacity=".42" stroke="#c85b73" stroke-width="1.5" /><rect x="945" y="201" width="235" height="16" rx="4" fill="#c85b73" fill-opacity=".42" stroke="#c85b73" stroke-width="1.5" /><rect x="970" y="235" width="235" height="16" rx="4" fill="#c85b73" fill-opacity=".42" stroke="#c85b73" stroke-width="1.5" /><rect x="995" y="269" width="235" height="16" rx="4" fill="#c85b73" fill-opacity=".42" stroke="#c85b73" stroke-width="1.5" /><rect x="1020" y="303" width="235" height="16" rx="4" fill="#c85b73" fill-opacity=".42" stroke="#c85b73" stroke-width="1.5" /><rect x="1045" y="337" width="235" height="16" rx="4" fill="#c85b73" fill-opacity=".42" stroke="#c85b73" stroke-width="1.5" /><rect x="1070" y="371" width="235" height="16" rx="4" fill="#c85b73" fill-opacity=".42" stroke="#c85b73" stroke-width="1.5" /><rect x="1095" y="405" width="235" height="16" rx="4" fill="#c85b73" fill-opacity=".42" stroke="#c85b73" stroke-width="1.5" /><rect x="1120" y="439" width="235" height="16" rx="4" fill="#c85b73" fill-opacity=".42" stroke="#c85b73" stroke-width="1.5" /><line x1="920" y1="175" x2="1120" y2="447" stroke="#c85b73" stroke-width="3" stroke-linecap="round" stroke-dasharray="9 6" /><text x="1125" y="535" text-anchor="middle" font-family="Source Han Sans SC, Microsoft YaHei, sans-serif" font-size="18" font-weight="700" fill="#c85b73">顶部与底部相差 Tread</text><line x1="190" y1="575" x2="190" y2="640" stroke="#334e68" stroke-width="10" stroke-linecap="round" /><text x="240" y="615" text-anchor="start" font-family="Source Han Sans SC, Microsoft YaHei, sans-serif" font-size="17" font-weight="400" fill="#486581">运动竖杆仍近似竖直</text><line x1="1000" y1="575" x2="1070" y2="640" stroke="#c85b73" stroke-width="10" stroke-linecap="round" /><text x="1110" y="615" text-anchor="start" font-family="Source Han Sans SC, Microsoft YaHei, sans-serif" font-size="17" font-weight="400" fill="#a24862">逐行采样形成倾斜</text></svg>