<?xml version='1.0' encoding='utf-8'?>
<svg xmlns="http://www.w3.org/2000/svg" width="1500" height="700" viewBox="0 0 1500 700" role="img" aria-label="滚动快门与周期照明形成几何倾斜和条纹"><defs><marker id="arrow-blue" markerWidth="10" markerHeight="8" refX="9" refY="4" orient="auto" markerUnits="strokeWidth"><path d="M 0 0 L 10 4 L 0 8 z" fill="#3b82b5" /></marker><marker id="arrow-dark" markerWidth="10" markerHeight="8" refX="9" refY="4" orient="auto" markerUnits="strokeWidth"><path d="M 0 0 L 10 4 L 0 8 z" fill="#334e68" /></marker><marker id="arrow-red" markerWidth="10" markerHeight="8" refX="9" refY="4" orient="auto" markerUnits="strokeWidth"><path d="M 0 0 L 10 4 L 0 8 z" fill="#c85b73" /></marker><marker id="arrow-green" markerWidth="10" markerHeight="8" refX="9" refY="4" orient="auto" markerUnits="strokeWidth"><path d="M 0 0 L 10 4 L 0 8 z" fill="#4d8c6a" /></marker><marker id="arrow-gold" markerWidth="10" markerHeight="8" refX="9" refY="4" orient="auto" markerUnits="strokeWidth"><path d="M 0 0 L 10 4 L 0 8 z" fill="#c58a2d" /></marker><marker id="arrow-purple" markerWidth="10" markerHeight="8" refX="9" refY="4" orient="auto" markerUnits="strokeWidth"><path d="M 0 0 L 10 4 L 0 8 z" fill="#7b4b74" /></marker></defs><rect width="1500" height="700" fill="#fbfdff" /><text x="750.0" y="43" text-anchor="middle" font-family="Source Han Sans SC, Microsoft YaHei, sans-serif" font-size="31" font-weight="700" fill="#102a43">逐行时间原点把时间变化编码为空间结构</text><line x1="750" y1="82" x2="750" y2="625" stroke="#d7e0e7" stroke-width="2" stroke-linecap="round" /><text x="375" y="92" text-anchor="middle" font-family="Source Han Sans SC, Microsoft YaHei, sans-serif" font-size="24" font-weight="700" fill="#285b7a">匀速运动 → 剪切</text><rect x="120" y="145" width="500" height="360" fill="#f3f6f8" stroke="#8aa2b5" stroke-width="2" /><line x1="155" y1="167" x2="365" y2="167" stroke="#3b82b5" stroke-width="10" stroke-linecap="round" /><text x="108" y="172" text-anchor="end" font-family="Source Han Sans SC, Microsoft YaHei, sans-serif" font-size="13" font-weight="400" fill="#627d98">y0</text><line x1="177" y1="197" x2="387" y2="197" stroke="#3b82b5" stroke-width="10" stroke-linecap="round" /><text x="108" y="202" text-anchor="end" font-family="Source Han Sans SC, Microsoft YaHei, sans-serif" font-size="13" font-weight="400" fill="#627d98">y1</text><line x1="199" y1="227" x2="409" y2="227" stroke="#3b82b5" stroke-width="10" stroke-linecap="round" /><text x="108" y="232" text-anchor="end" font-family="Source Han Sans SC, Microsoft YaHei, sans-serif" font-size="13" font-weight="400" fill="#627d98">y2</text><line x1="221" y1="257" x2="431" y2="257" stroke="#3b82b5" stroke-width="10" stroke-linecap="round" /><text x="108" y="262" text-anchor="end" font-family="Source Han Sans SC, Microsoft YaHei, sans-serif" font-size="13" font-weight="400" fill="#627d98">y3</text><line x1="243" y1="287" x2="453" y2="287" stroke="#3b82b5" stroke-width="10" stroke-linecap="round" /><text x="108" y="292" text-anchor="end" font-family="Source Han Sans SC, Microsoft YaHei, sans-serif" font-size="13" font-weight="400" fill="#627d98">y4</text><line x1="265" y1="317" x2="475" y2="317" stroke="#3b82b5" stroke-width="10" stroke-linecap="round" /><text x="108" y="322" text-anchor="end" font-family="Source Han Sans SC, Microsoft YaHei, sans-serif" font-size="13" font-weight="400" fill="#627d98">y5</text><line x1="287" y1="347" x2="497" y2="347" stroke="#3b82b5" stroke-width="10" stroke-linecap="round" /><text x="108" y="352" text-anchor="end" font-family="Source Han Sans SC, Microsoft YaHei, sans-serif" font-size="13" font-weight="400" fill="#627d98">y6</text><line x1="309" y1="377" x2="519" y2="377" stroke="#3b82b5" stroke-width="10" stroke-linecap="round" /><text x="108" y="382" text-anchor="end" font-family="Source Han Sans SC, Microsoft YaHei, sans-serif" font-size="13" font-weight="400" fill="#627d98">y7</text><line x1="331" y1="407" x2="541" y2="407" stroke="#3b82b5" stroke-width="10" stroke-linecap="round" /><text x="108" y="412" text-anchor="end" font-family="Source Han Sans SC, Microsoft YaHei, sans-serif" font-size="13" font-weight="400" fill="#627d98">y8</text><line x1="353" y1="437" x2="563" y2="437" stroke="#3b82b5" stroke-width="10" stroke-linecap="round" /><text x="108" y="442" text-anchor="end" font-family="Source Han Sans SC, Microsoft YaHei, sans-serif" font-size="13" font-weight="400" fill="#627d98">y9</text><line x1="375" y1="467" x2="585" y2="467" stroke="#3b82b5" stroke-width="10" stroke-linecap="round" /><text x="108" y="472" text-anchor="end" font-family="Source Han Sans SC, Microsoft YaHei, sans-serif" font-size="13" font-weight="400" fill="#627d98">y10</text><line x1="155" y1="167" x2="375" y2="467" stroke="#c85b73" stroke-width="4" stroke-linecap="round" stroke-dasharray="9 6" /><text x="375" y="555" text-anchor="middle" font-family="Source Han Sans SC, Microsoft YaHei, sans-serif" font-size="19" font-weight="700" fill="#7b4b74">xobs(y)=x0+vx[t0+yTread/H+T/2]</text><text x="375" y="595" text-anchor="middle" font-family="Source Han Sans SC, Microsoft YaHei, sans-serif" font-size="18" font-weight="400" fill="#486581">剪切量 ∝ vx Tread；行内模糊 ∝ vx T</text><text x="1125" y="92" text-anchor="middle" font-family="Source Han Sans SC, Microsoft YaHei, sans-serif" font-size="24" font-weight="700" fill="#397456">周期照明 → 明暗条纹</text><line x1="820" y1="360" x2="1420" y2="360" stroke="#334e68" stroke-width="2" stroke-linecap="round" marker-end="url(#arrow-dark)" /><line x1="820" y1="360" x2="820" y2="145" stroke="#334e68" stroke-width="2" stroke-linecap="round" marker-end="url(#arrow-dark)" /><polyline points="820.00,166.50 822.00,166.66 824.00,167.14 826.00,167.95 828.00,169.07 830.00,170.50 832.00,172.24 834.00,174.28 836.00,176.61 838.00,179.22 840.00,182.10 842.00,185.25 844.00,188.64 846.00,192.27 848.00,196.12 850.00,200.18 852.00,204.42 854.00,208.84 856.00,213.41 858.00,218.12 860.00,222.95 862.00,227.88 864.00,232.89 866.00,237.96 868.00,243.07 870.00,248.20 872.00,253.33 874.00,258.44 876.00,263.51 878.00,268.52 880.00,273.45 882.00,278.28 884.00,282.99 886.00,287.56 888.00,291.98 890.00,296.22 892.00,300.28 894.00,304.13 896.00,307.76 898.00,311.15 900.00,314.30 902.00,317.18 904.00,319.79 906.00,322.12 908.00,324.16 910.00,325.90 912.00,327.33 914.00,328.45 916.00,329.26 918.00,329.74 920.00,329.90 922.00,329.74 924.00,329.26 926.00,328.45 928.00,327.33 930.00,325.90 932.00,324.16 934.00,322.12 936.00,319.79 938.00,317.18 940.00,314.30 942.00,311.15 944.00,307.76 946.00,304.13 948.00,300.28 950.00,296.22 952.00,291.98 954.00,287.56 956.00,282.99 958.00,278.28 960.00,273.45 962.00,268.52 964.00,263.51 966.00,258.44 968.00,253.33 970.00,248.20 972.00,243.07 974.00,237.96 976.00,232.89 978.00,227.88 980.00,222.95 982.00,218.12 984.00,213.41 986.00,208.84 988.00,204.42 990.00,200.18 992.00,196.12 994.00,192.27 996.00,188.64 998.00,185.25 1000.00,182.10 1002.00,179.22 1004.00,176.61 1006.00,174.28 1008.00,172.24 1010.00,170.50 1012.00,169.07 1014.00,167.95 1016.00,167.14 1018.00,166.66 1020.00,166.50 1022.00,166.66 1024.00,167.14 1026.00,167.95 1028.00,169.07 1030.00,170.50 1032.00,172.24 1034.00,174.28 1036.00,176.61 1038.00,179.22 1040.00,182.10 1042.00,185.25 1044.00,188.64 1046.00,192.27 1048.00,196.12 1050.00,200.18 1052.00,204.42 1054.00,208.84 1056.00,213.41 1058.00,218.12 1060.00,222.95 1062.00,227.88 1064.00,232.89 1066.00,237.96 1068.00,243.07 1070.00,248.20 1072.00,253.33 1074.00,258.44 1076.00,263.51 1078.00,268.52 1080.00,273.45 1082.00,278.28 1084.00,282.99 1086.00,287.56 1088.00,291.98 1090.00,296.22 1092.00,300.28 1094.00,304.13 1096.00,307.76 1098.00,311.15 1100.00,314.30 1102.00,317.18 1104.00,319.79 1106.00,322.12 1108.00,324.16 1110.00,325.90 1112.00,327.33 1114.00,328.45 1116.00,329.26 1118.00,329.74 1120.00,329.90 1122.00,329.74 1124.00,329.26 1126.00,328.45 1128.00,327.33 1130.00,325.90 1132.00,324.16 1134.00,322.12 1136.00,319.79 1138.00,317.18 1140.00,314.30 1142.00,311.15 1144.00,307.76 1146.00,304.13 1148.00,300.28 1150.00,296.22 1152.00,291.98 1154.00,287.56 1156.00,282.99 1158.00,278.28 1160.00,273.45 1162.00,268.52 1164.00,263.51 1166.00,258.44 1168.00,253.33 1170.00,248.20 1172.00,243.07 1174.00,237.96 1176.00,232.89 1178.00,227.88 1180.00,222.95 1182.00,218.12 1184.00,213.41 1186.00,208.84 1188.00,204.42 1190.00,200.18 1192.00,196.12 1194.00,192.27 1196.00,188.64 1198.00,185.25 1200.00,182.10 1202.00,179.22 1204.00,176.61 1206.00,174.28 1208.00,172.24 1210.00,170.50 1212.00,169.07 1214.00,167.95 1216.00,167.14 1218.00,166.66 1220.00,166.50 1222.00,166.66 1224.00,167.14 1226.00,167.95 1228.00,169.07 1230.00,170.50 1232.00,172.24 1234.00,174.28 1236.00,176.61 1238.00,179.22 1240.00,182.10 1242.00,185.25 1244.00,188.64 1246.00,192.27 1248.00,196.12 1250.00,200.18 1252.00,204.42 1254.00,208.84 1256.00,213.41 1258.00,218.12 1260.00,222.95 1262.00,227.88 1264.00,232.89 1266.00,237.96 1268.00,243.07 1270.00,248.20 1272.00,253.33 1274.00,258.44 1276.00,263.51 1278.00,268.52 1280.00,273.45 1282.00,278.28 1284.00,282.99 1286.00,287.56 1288.00,291.98 1290.00,296.22 1292.00,300.28 1294.00,304.13 1296.00,307.76 1298.00,311.15 1300.00,314.30 1302.00,317.18 1304.00,319.79 1306.00,322.12 1308.00,324.16 1310.00,325.90 1312.00,327.33 1314.00,328.45 1316.00,329.26 1318.00,329.74 1320.00,329.90 1322.00,329.74 1324.00,329.26 1326.00,328.45 1328.00,327.33 1330.00,325.90 1332.00,324.16 1334.00,322.12 1336.00,319.79 1338.00,317.18 1340.00,314.30 1342.00,311.15 1344.00,307.76 1346.00,304.13 1348.00,300.28 1350.00,296.22 1352.00,291.98 1354.00,287.56 1356.00,282.99 1358.00,278.28 1360.00,273.45 1362.00,268.52 1364.00,263.51 1366.00,258.44 1368.00,253.33 1370.00,248.20 1372.00,243.07 1374.00,237.96 1376.00,232.89 1378.00,227.88 1380.00,222.95 1382.00,218.12 1384.00,213.41 1386.00,208.84 1388.00,204.42 1390.00,200.18 1392.00,196.12 1394.00,192.27 1396.00,188.64 1398.00,185.25 1400.00,182.10 1402.00,179.22 1404.00,176.61 1406.00,174.28 1408.00,172.24 1410.00,170.50 1412.00,169.07 1414.00,167.95 1416.00,167.14 1418.00,166.66 1420.00,166.50" stroke="#c58a2d" stroke-width="4" fill="none" stroke-linejoin="round" stroke-linecap="round" /><text x="1125" y="395" text-anchor="middle" font-family="Source Han Sans SC, Microsoft YaHei, sans-serif" font-size="18" font-weight="700" fill="#8a5f19">E(t)=E0[1+m cos(2πfLt+φ)]</text><rect x="875" y="435.0" width="500" height="11.0" fill="#8b97a3" /><rect x="875" y="445.0" width="500" height="11.0" fill="#a7b3bf" /><rect x="875" y="455.0" width="500" height="11.0" fill="#d6e2ee" /><rect x="875" y="465.0" width="500" height="11.0" fill="#dce8f4" /><rect x="875" y="475.0" width="500" height="11.0" fill="#b1bdc9" /><rect x="875" y="485.0" width="500" height="11.0" fill="#8d99a5" /><rect x="875" y="495.0" width="500" height="11.0" fill="#9eaab6" /><rect x="875" y="505.0" width="500" height="11.0" fill="#cedae6" /><rect x="875" y="515.0" width="500" height="11.0" fill="#dfebf7" /><rect x="875" y="525.0" width="500" height="11.0" fill="#bbc7d3" /><rect x="875" y="535.0" width="500" height="11.0" fill="#909ca8" /><rect x="875" y="545.0" width="500" height="11.0" fill="#96a2ae" /><rect x="875" y="555.0" width="500" height="11.0" fill="#c5d1dd" /><rect x="875" y="565.0" width="500" height="11.0" fill="#e0ecf8" /><rect x="875" y="575.0" width="500" height="11.0" fill="#c5d1dd" /><rect x="875" y="585.0" width="500" height="11.0" fill="#96a2ae" /><rect x="875" y="435" width="500" height="160" fill="none" stroke="#8aa2b5" stroke-width="2" /><text x="1125" y="635" text-anchor="middle" font-family="Source Han Sans SC, Microsoft YaHei, sans-serif" font-size="18" font-weight="400" fill="#7b4b74">条纹对比被单行积分的 sinc(fL T) 因子衰减</text></svg>