<?xml version='1.0' encoding='utf-8'?>
<svg xmlns="http://www.w3.org/2000/svg" width="1500" height="740" viewBox="0 0 1500 740" role="img" aria-label="采样导致频谱周期复制并在欠采样时重叠"><defs><marker id="arrow-blue" markerWidth="10" markerHeight="8" refX="9" refY="4" orient="auto" markerUnits="strokeWidth"><path d="M 0 0 L 10 4 L 0 8 z" fill="#3b82b5" /></marker><marker id="arrow-dark" markerWidth="10" markerHeight="8" refX="9" refY="4" orient="auto" markerUnits="strokeWidth"><path d="M 0 0 L 10 4 L 0 8 z" fill="#334e68" /></marker><marker id="arrow-red" markerWidth="10" markerHeight="8" refX="9" refY="4" orient="auto" markerUnits="strokeWidth"><path d="M 0 0 L 10 4 L 0 8 z" fill="#c85b73" /></marker><marker id="arrow-green" markerWidth="10" markerHeight="8" refX="9" refY="4" orient="auto" markerUnits="strokeWidth"><path d="M 0 0 L 10 4 L 0 8 z" fill="#4d8c6a" /></marker><marker id="arrow-gold" markerWidth="10" markerHeight="8" refX="9" refY="4" orient="auto" markerUnits="strokeWidth"><path d="M 0 0 L 10 4 L 0 8 z" fill="#c58a2d" /></marker><marker id="arrow-purple" markerWidth="10" markerHeight="8" refX="9" refY="4" orient="auto" markerUnits="strokeWidth"><path d="M 0 0 L 10 4 L 0 8 z" fill="#7b4b74" /></marker><linearGradient id="irradiance" x1="0" x2="1" y1="0" y2="0"><stop offset="0" stop-color="#eaf4ff" /><stop offset="0.45" stop-color="#3b82b5" /><stop offset="0.7" stop-color="#c85b73" /><stop offset="1" stop-color="#fff0f3" /></linearGradient></defs><rect width="1500" height="740" fill="#fbfdff" /><text x="750.0" y="43" text-anchor="middle" font-family="Source Han Sans SC, Microsoft YaHei, sans-serif" font-size="31" font-weight="700" fill="#102a43">晶格采样在频域复制连续频谱；副本重叠就是混叠</text><text x="375" y="100" text-anchor="middle" font-family="Source Han Sans SC, Microsoft YaHei, sans-serif" font-size="24" font-weight="700" fill="#4d8c6a">充分采样：B &lt; fs/2</text><line x1="80" y1="315" x2="710" y2="315" stroke="#334e68" stroke-width="2" stroke-linecap="round" marker-end="url(#arrow-dark)" /><line x1="105.0" y1="309" x2="105.0" y2="323" stroke="#334e68" stroke-width="2" stroke-linecap="round" /><text x="105.0" y="347" text-anchor="middle" font-family="Source Han Sans SC, Microsoft YaHei, sans-serif" font-size="14" font-weight="400" fill="#627d98">-2fs</text><polygon points="55.00,315.00 55.00,315.00 57.50,314.60 60.00,313.41 62.50,311.46 65.00,308.79 67.50,305.48 70.00,301.60 72.50,297.25 75.00,292.54 77.50,287.58 80.00,282.50 82.50,277.42 85.00,272.46 87.50,267.75 90.00,263.40 92.50,259.52 95.00,256.21 97.50,253.54 100.00,251.59 102.50,250.40 105.00,250.00 107.50,250.40 110.00,251.59 112.50,253.54 115.00,256.21 117.50,259.52 120.00,263.40 122.50,267.75 125.00,272.46 127.50,277.42 130.00,282.50 132.50,287.58 135.00,292.54 137.50,297.25 140.00,301.60 142.50,305.48 145.00,308.79 147.50,311.46 150.00,313.41 152.50,314.60 155.00,315.00 155.00,315.00" fill="#4d8c6a33" stroke="#4d8c6a" stroke-width="2.5" /><line x1="250.0" y1="309" x2="250.0" y2="323" stroke="#334e68" stroke-width="2" stroke-linecap="round" /><text x="250.0" y="347" text-anchor="middle" font-family="Source Han Sans SC, Microsoft YaHei, sans-serif" font-size="14" font-weight="400" fill="#627d98">−fs</text><polygon points="200.00,315.00 200.00,315.00 202.50,314.60 205.00,313.41 207.50,311.46 210.00,308.79 212.50,305.48 215.00,301.60 217.50,297.25 220.00,292.54 222.50,287.58 225.00,282.50 227.50,277.42 230.00,272.46 232.50,267.75 235.00,263.40 237.50,259.52 240.00,256.21 242.50,253.54 245.00,251.59 247.50,250.40 250.00,250.00 252.50,250.40 255.00,251.59 257.50,253.54 260.00,256.21 262.50,259.52 265.00,263.40 267.50,267.75 270.00,272.46 272.50,277.42 275.00,282.50 277.50,287.58 280.00,292.54 282.50,297.25 285.00,301.60 287.50,305.48 290.00,308.79 292.50,311.46 295.00,313.41 297.50,314.60 300.00,315.00 300.00,315.00" fill="#4d8c6a33" stroke="#4d8c6a" stroke-width="2.5" /><line x1="395.0" y1="309" x2="395.0" y2="323" stroke="#334e68" stroke-width="2" stroke-linecap="round" /><text x="395.0" y="347" text-anchor="middle" font-family="Source Han Sans SC, Microsoft YaHei, sans-serif" font-size="14" font-weight="400" fill="#627d98">0</text><polygon points="345.00,315.00 345.00,315.00 347.50,314.60 350.00,313.41 352.50,311.46 355.00,308.79 357.50,305.48 360.00,301.60 362.50,297.25 365.00,292.54 367.50,287.58 370.00,282.50 372.50,277.42 375.00,272.46 377.50,267.75 380.00,263.40 382.50,259.52 385.00,256.21 387.50,253.54 390.00,251.59 392.50,250.40 395.00,250.00 397.50,250.40 400.00,251.59 402.50,253.54 405.00,256.21 407.50,259.52 410.00,263.40 412.50,267.75 415.00,272.46 417.50,277.42 420.00,282.50 422.50,287.58 425.00,292.54 427.50,297.25 430.00,301.60 432.50,305.48 435.00,308.79 437.50,311.46 440.00,313.41 442.50,314.60 445.00,315.00 445.00,315.00" fill="#4d8c6a33" stroke="#4d8c6a" stroke-width="2.5" /><line x1="540.0" y1="309" x2="540.0" y2="323" stroke="#334e68" stroke-width="2" stroke-linecap="round" /><text x="540.0" y="347" text-anchor="middle" font-family="Source Han Sans SC, Microsoft YaHei, sans-serif" font-size="14" font-weight="400" fill="#627d98">fs</text><polygon points="490.00,315.00 490.00,315.00 492.50,314.60 495.00,313.41 497.50,311.46 500.00,308.79 502.50,305.48 505.00,301.60 507.50,297.25 510.00,292.54 512.50,287.58 515.00,282.50 517.50,277.42 520.00,272.46 522.50,267.75 525.00,263.40 527.50,259.52 530.00,256.21 532.50,253.54 535.00,251.59 537.50,250.40 540.00,250.00 542.50,250.40 545.00,251.59 547.50,253.54 550.00,256.21 552.50,259.52 555.00,263.40 557.50,267.75 560.00,272.46 562.50,277.42 565.00,282.50 567.50,287.58 570.00,292.54 572.50,297.25 575.00,301.60 577.50,305.48 580.00,308.79 582.50,311.46 585.00,313.41 587.50,314.60 590.00,315.00 590.00,315.00" fill="#4d8c6a33" stroke="#4d8c6a" stroke-width="2.5" /><line x1="685.0" y1="309" x2="685.0" y2="323" stroke="#334e68" stroke-width="2" stroke-linecap="round" /><text x="685.0" y="347" text-anchor="middle" font-family="Source Han Sans SC, Microsoft YaHei, sans-serif" font-size="14" font-weight="400" fill="#627d98">2fs</text><polygon points="635.00,315.00 635.00,315.00 637.50,314.60 640.00,313.41 642.50,311.46 645.00,308.79 647.50,305.48 650.00,301.60 652.50,297.25 655.00,292.54 657.50,287.58 660.00,282.50 662.50,277.42 665.00,272.46 667.50,267.75 670.00,263.40 672.50,259.52 675.00,256.21 677.50,253.54 680.00,251.59 682.50,250.40 685.00,250.00 687.50,250.40 690.00,251.59 692.50,253.54 695.00,256.21 697.50,259.52 700.00,263.40 702.50,267.75 705.00,272.46 707.50,277.42 710.00,282.50 712.50,287.58 715.00,292.54 717.50,297.25 720.00,301.60 722.50,305.48 725.00,308.79 727.50,311.46 730.00,313.41 732.50,314.60 735.00,315.00 735.00,315.00" fill="#4d8c6a33" stroke="#4d8c6a" stroke-width="2.5" /><text x="395.0" y="375" text-anchor="middle" font-family="Source Han Sans SC, Microsoft YaHei, sans-serif" font-size="17" font-weight="400" fill="#486581">频谱副本间隔 fs = 1/p</text><text x="1100" y="100" text-anchor="middle" font-family="Source Han Sans SC, Microsoft YaHei, sans-serif" font-size="24" font-weight="700" fill="#c85b73">欠采样：B &gt; fs/2</text><line x1="805" y1="315" x2="1435" y2="315" stroke="#334e68" stroke-width="2" stroke-linecap="round" marker-end="url(#arrow-dark)" /><line x1="830.0" y1="309" x2="830.0" y2="323" stroke="#334e68" stroke-width="2" stroke-linecap="round" /><text x="830.0" y="347" text-anchor="middle" font-family="Source Han Sans SC, Microsoft YaHei, sans-serif" font-size="14" font-weight="400" fill="#627d98">-2fs</text><polygon points="737.00,315.00 737.00,315.00 741.65,314.60 746.30,313.41 750.95,311.46 755.60,308.79 760.25,305.48 764.90,301.60 769.55,297.25 774.20,292.54 778.85,287.58 783.50,282.50 788.15,277.42 792.80,272.46 797.45,267.75 802.10,263.40 806.75,259.52 811.40,256.21 816.05,253.54 820.70,251.59 825.35,250.40 830.00,250.00 834.65,250.40 839.30,251.59 843.95,253.54 848.60,256.21 853.25,259.52 857.90,263.40 862.55,267.75 867.20,272.46 871.85,277.42 876.50,282.50 881.15,287.58 885.80,292.54 890.45,297.25 895.10,301.60 899.75,305.48 904.40,308.79 909.05,311.46 913.70,313.41 918.35,314.60 923.00,315.00 923.00,315.00" fill="#c85b7333" stroke="#c85b73" stroke-width="2.5" /><line x1="975.0" y1="309" x2="975.0" y2="323" stroke="#334e68" stroke-width="2" stroke-linecap="round" /><text x="975.0" y="347" text-anchor="middle" font-family="Source Han Sans SC, Microsoft YaHei, sans-serif" font-size="14" font-weight="400" fill="#627d98">−fs</text><polygon points="882.00,315.00 882.00,315.00 886.65,314.60 891.30,313.41 895.95,311.46 900.60,308.79 905.25,305.48 909.90,301.60 914.55,297.25 919.20,292.54 923.85,287.58 928.50,282.50 933.15,277.42 937.80,272.46 942.45,267.75 947.10,263.40 951.75,259.52 956.40,256.21 961.05,253.54 965.70,251.59 970.35,250.40 975.00,250.00 979.65,250.40 984.30,251.59 988.95,253.54 993.60,256.21 998.25,259.52 1002.90,263.40 1007.55,267.75 1012.20,272.46 1016.85,277.42 1021.50,282.50 1026.15,287.58 1030.80,292.54 1035.45,297.25 1040.10,301.60 1044.75,305.48 1049.40,308.79 1054.05,311.46 1058.70,313.41 1063.35,314.60 1068.00,315.00 1068.00,315.00" fill="#c85b7333" stroke="#c85b73" stroke-width="2.5" /><line x1="1120.0" y1="309" x2="1120.0" y2="323" stroke="#334e68" stroke-width="2" stroke-linecap="round" /><text x="1120.0" y="347" text-anchor="middle" font-family="Source Han Sans SC, Microsoft YaHei, sans-serif" font-size="14" font-weight="400" fill="#627d98">0</text><polygon points="1027.00,315.00 1027.00,315.00 1031.65,314.60 1036.30,313.41 1040.95,311.46 1045.60,308.79 1050.25,305.48 1054.90,301.60 1059.55,297.25 1064.20,292.54 1068.85,287.58 1073.50,282.50 1078.15,277.42 1082.80,272.46 1087.45,267.75 1092.10,263.40 1096.75,259.52 1101.40,256.21 1106.05,253.54 1110.70,251.59 1115.35,250.40 1120.00,250.00 1124.65,250.40 1129.30,251.59 1133.95,253.54 1138.60,256.21 1143.25,259.52 1147.90,263.40 1152.55,267.75 1157.20,272.46 1161.85,277.42 1166.50,282.50 1171.15,287.58 1175.80,292.54 1180.45,297.25 1185.10,301.60 1189.75,305.48 1194.40,308.79 1199.05,311.46 1203.70,313.41 1208.35,314.60 1213.00,315.00 1213.00,315.00" fill="#c85b7333" stroke="#c85b73" stroke-width="2.5" /><line x1="1265.0" y1="309" x2="1265.0" y2="323" stroke="#334e68" stroke-width="2" stroke-linecap="round" /><text x="1265.0" y="347" text-anchor="middle" font-family="Source Han Sans SC, Microsoft YaHei, sans-serif" font-size="14" font-weight="400" fill="#627d98">fs</text><polygon points="1172.00,315.00 1172.00,315.00 1176.65,314.60 1181.30,313.41 1185.95,311.46 1190.60,308.79 1195.25,305.48 1199.90,301.60 1204.55,297.25 1209.20,292.54 1213.85,287.58 1218.50,282.50 1223.15,277.42 1227.80,272.46 1232.45,267.75 1237.10,263.40 1241.75,259.52 1246.40,256.21 1251.05,253.54 1255.70,251.59 1260.35,250.40 1265.00,250.00 1269.65,250.40 1274.30,251.59 1278.95,253.54 1283.60,256.21 1288.25,259.52 1292.90,263.40 1297.55,267.75 1302.20,272.46 1306.85,277.42 1311.50,282.50 1316.15,287.58 1320.80,292.54 1325.45,297.25 1330.10,301.60 1334.75,305.48 1339.40,308.79 1344.05,311.46 1348.70,313.41 1353.35,314.60 1358.00,315.00 1358.00,315.00" fill="#c85b7333" stroke="#c85b73" stroke-width="2.5" /><line x1="1410.0" y1="309" x2="1410.0" y2="323" stroke="#334e68" stroke-width="2" stroke-linecap="round" /><text x="1410.0" y="347" text-anchor="middle" font-family="Source Han Sans SC, Microsoft YaHei, sans-serif" font-size="14" font-weight="400" fill="#627d98">2fs</text><polygon points="1317.00,315.00 1317.00,315.00 1321.65,314.60 1326.30,313.41 1330.95,311.46 1335.60,308.79 1340.25,305.48 1344.90,301.60 1349.55,297.25 1354.20,292.54 1358.85,287.58 1363.50,282.50 1368.15,277.42 1372.80,272.46 1377.45,267.75 1382.10,263.40 1386.75,259.52 1391.40,256.21 1396.05,253.54 1400.70,251.59 1405.35,250.40 1410.00,250.00 1414.65,250.40 1419.30,251.59 1423.95,253.54 1428.60,256.21 1433.25,259.52 1437.90,263.40 1442.55,267.75 1447.20,272.46 1451.85,277.42 1456.50,282.50 1461.15,287.58 1465.80,292.54 1470.45,297.25 1475.10,301.60 1479.75,305.48 1484.40,308.79 1489.05,311.46 1493.70,313.41 1498.35,314.60 1503.00,315.00 1503.00,315.00" fill="#c85b7333" stroke="#c85b73" stroke-width="2.5" /><text x="1120.0" y="375" text-anchor="middle" font-family="Source Han Sans SC, Microsoft YaHei, sans-serif" font-size="17" font-weight="400" fill="#486581">频谱副本间隔 fs = 1/p</text><rect x="1172.0" y="185" width="41" height="130" fill="#c85b73" fill-opacity="0.18" /><text x="1193.0" y="167" text-anchor="middle" font-family="Source Han Sans SC, Microsoft YaHei, sans-serif" font-size="16" font-weight="700" fill="#a24862">重叠</text><line x1="750" y1="80" x2="750" y2="690" stroke="#d7e0e7" stroke-width="2" stroke-linecap="round" /><text x="375" y="445" text-anchor="middle" font-family="Source Han Sans SC, Microsoft YaHei, sans-serif" font-size="22" font-weight="700" fill="#285b7a">二维方形晶格的奈奎斯特区域</text><rect x="286.0" y="481.0" width="178" height="178" fill="#eaf4ff" stroke="#3b82b5" stroke-width="3" /><line x1="215" y1="570" x2="535" y2="570" stroke="#334e68" stroke-width="2" stroke-linecap="round" marker-end="url(#arrow-dark)" /><line x1="375" y1="715" x2="375" y2="415" stroke="#334e68" stroke-width="2" stroke-linecap="round" marker-end="url(#arrow-dark)" /><text x="464.0" y="597" text-anchor="middle" font-family="Source Han Sans SC, Microsoft YaHei, sans-serif" font-size="14" font-weight="400" fill="#285b7a">fs/2</text><text x="286.0" y="597" text-anchor="middle" font-family="Source Han Sans SC, Microsoft YaHei, sans-serif" font-size="14" font-weight="400" fill="#285b7a">−fs/2</text><text x="387" y="471.0" text-anchor="start" font-family="Source Han Sans SC, Microsoft YaHei, sans-serif" font-size="14" font-weight="400" fill="#285b7a">fs/2</text><circle cx="375" cy="570" r="66" fill="#4d8c6a" fill-opacity="0.18" stroke="#4d8c6a" stroke-width="2" /><text x="375" y="688" text-anchor="middle" font-family="Source Han Sans SC, Microsoft YaHei, sans-serif" font-size="16" font-weight="400" fill="#486581">无混叠支持集须落在基本频率胞元内</text><text x="1125" y="445" text-anchor="middle" font-family="Source Han Sans SC, Microsoft YaHei, sans-serif" font-size="22" font-weight="700" fill="#a24862">相差整数 fs 的正弦给出同一组样本</text><line x1="825" y1="575" x2="1420" y2="575" stroke="#9fb3c2" stroke-width="1.5" stroke-linecap="round" /><polyline points="825.00,575.00 826.49,572.88 827.98,570.76 829.46,568.65 830.95,566.54 832.44,564.43 833.92,562.34 835.41,560.25 836.90,558.18 838.39,556.12 839.88,554.08 841.36,552.05 842.85,550.04 844.34,548.05 845.83,546.08 847.31,544.14 848.80,542.22 850.29,540.32 851.77,538.46 853.26,536.62 854.75,534.81 856.24,533.04 857.73,531.30 859.21,529.59 860.70,527.92 862.19,526.29 863.67,524.70 865.16,523.15 866.65,521.63 868.14,520.17 869.62,518.74 871.11,517.36 872.60,516.03 874.09,514.74 875.58,513.50 877.06,512.31 878.55,511.18 880.04,510.09 881.52,509.05 883.01,508.07 884.50,507.14 885.99,506.26 887.48,505.44 888.96,504.68 890.45,503.97 891.94,503.32 893.42,502.72 894.91,502.18 896.40,501.70 897.89,501.28 899.38,500.92 900.86,500.62 902.35,500.38 903.84,500.20 905.33,500.07 906.81,500.01 908.30,500.01 909.79,500.06 911.27,500.18 912.76,500.36 914.25,500.59 915.74,500.89 917.23,501.24 918.71,501.66 920.20,502.13 921.69,502.66 923.17,503.25 924.66,503.89 926.15,504.59 927.64,505.35 929.12,506.17 930.61,507.04 932.10,507.96 933.59,508.94 935.08,509.97 936.56,511.05 938.05,512.19 939.54,513.37 941.02,514.60 942.51,515.88 944.00,517.21 945.49,518.59 946.98,520.01 948.46,521.47 949.95,522.98 951.44,524.52 952.92,526.11 954.41,527.74 955.90,529.41 957.39,531.11 958.88,532.84 960.36,534.61 961.85,536.42 963.34,538.25 964.83,540.11 966.31,542.00 967.80,543.92 969.29,545.86 970.77,547.83 972.26,549.82 973.75,551.82 975.24,553.85 976.73,555.89 978.21,557.95 979.70,560.02 981.19,562.11 982.67,564.20 984.16,566.30 985.65,568.41 987.14,570.53 988.62,572.64 990.11,574.76 991.60,576.88 993.09,579.00 994.58,581.12 996.06,583.23 997.55,585.33 999.04,587.43 1000.52,589.52 1002.01,591.59 1003.50,593.65 1004.99,595.70 1006.48,597.73 1007.96,599.74 1009.45,601.73 1010.94,603.70 1012.42,605.65 1013.91,607.57 1015.40,609.47 1016.89,611.34 1018.38,613.18 1019.86,614.99 1021.35,616.77 1022.84,618.51 1024.33,620.22 1025.81,621.89 1027.30,623.53 1028.79,625.13 1030.28,626.68 1031.76,628.20 1033.25,629.67 1034.74,631.10 1036.22,632.49 1037.71,633.83 1039.20,635.12 1040.69,636.36 1042.17,637.56 1043.66,638.70 1045.15,639.79 1046.64,640.84 1048.12,641.83 1049.61,642.76 1051.10,643.64 1052.59,644.47 1054.08,645.24 1055.56,645.96 1057.05,646.61 1058.54,647.22 1060.03,647.76 1061.51,648.24 1063.00,648.67 1064.49,649.04 1065.97,649.35 1067.46,649.60 1068.95,649.79 1070.44,649.92 1071.92,649.99 1073.41,650.00 1074.90,649.95 1076.39,649.84 1077.88,649.67 1079.36,649.44 1080.85,649.15 1082.34,648.80 1083.83,648.39 1085.31,647.93 1086.80,647.40 1088.29,646.82 1089.78,646.18 1091.26,645.49 1092.75,644.73 1094.24,643.92 1095.72,643.06 1097.21,642.14 1098.70,641.17 1100.19,640.15 1101.67,639.07 1103.16,637.94 1104.65,636.76 1106.14,635.54 1107.62,634.26 1109.11,632.94 1110.60,631.57 1112.09,630.15 1113.58,628.70 1115.06,627.19 1116.55,625.65 1118.04,624.07 1119.53,622.44 1121.01,620.78 1122.50,619.08 1123.99,617.35 1125.47,615.58 1126.96,613.78 1128.45,611.95 1129.94,610.09 1131.42,608.21 1132.91,606.29 1134.40,604.35 1135.89,602.39 1137.38,600.41 1138.86,598.40 1140.35,596.38 1141.84,594.34 1143.33,592.28 1144.81,590.21 1146.30,588.13 1147.79,586.03 1149.28,583.93 1150.76,581.82 1152.25,579.71 1153.74,577.59 1155.22,575.47 1156.71,573.35 1158.20,571.23 1159.69,569.12 1161.17,567.00 1162.66,564.90 1164.15,562.80 1165.64,560.72 1167.12,558.64 1168.61,556.58 1170.10,554.53 1171.59,552.50 1173.08,550.48 1174.56,548.49 1176.05,546.52 1177.54,544.57 1179.03,542.64 1180.51,540.74 1182.00,538.87 1183.49,537.02 1184.97,535.21 1186.46,533.43 1187.95,531.68 1189.44,529.97 1190.92,528.29 1192.41,526.65 1193.90,525.05 1195.39,523.49 1196.88,521.97 1198.36,520.49 1199.85,519.05 1201.34,517.66 1202.83,516.32 1204.31,515.02 1205.80,513.77 1207.29,512.57 1208.78,511.42 1210.26,510.32 1211.75,509.28 1213.24,508.28 1214.72,507.34 1216.21,506.45 1217.70,505.62 1219.19,504.84 1220.67,504.12 1222.16,503.46 1223.65,502.85 1225.14,502.30 1226.62,501.81 1228.11,501.37 1229.60,501.00 1231.09,500.68 1232.58,500.43 1234.06,500.23 1235.55,500.09 1237.04,500.02 1238.53,500.00 1240.01,500.04 1241.50,500.15 1242.99,500.31 1244.47,500.53 1245.96,500.82 1247.45,501.16 1248.94,501.56 1250.42,502.02 1251.91,502.54 1253.40,503.11 1254.89,503.74 1256.38,504.43 1257.86,505.18 1259.35,505.98 1260.84,506.84 1262.33,507.75 1263.81,508.72 1265.30,509.74 1266.79,510.81 1268.28,511.93 1269.76,513.10 1271.25,514.32 1272.74,515.59 1274.22,516.91 1275.71,518.28 1277.20,519.69 1278.69,521.14 1280.17,522.64 1281.66,524.18 1283.15,525.76 1284.64,527.37 1286.12,529.03 1287.61,530.73 1289.10,532.45 1290.59,534.22 1292.08,536.01 1293.56,537.84 1295.05,539.70 1296.54,541.58 1298.03,543.49 1299.51,545.43 1301.00,547.39 1302.49,549.37 1303.97,551.38 1305.46,553.40 1306.95,555.44 1308.44,557.49 1309.92,559.56 1311.41,561.64 1312.90,563.73 1314.39,565.83 1315.88,567.94 1317.36,570.06 1318.85,572.17 1320.34,574.29 1321.83,576.41 1323.31,578.53 1324.80,580.65 1326.29,582.76 1327.78,584.87 1329.26,586.97 1330.75,589.05 1332.24,591.13 1333.72,593.19 1335.21,595.24 1336.70,597.28 1338.19,599.29 1339.67,601.29 1341.16,603.27 1342.65,605.22 1344.14,607.15 1345.62,609.05 1347.11,610.92 1348.60,612.77 1350.09,614.59 1351.58,616.37 1353.06,618.13 1354.55,619.84 1356.04,621.52 1357.53,623.17 1359.01,624.77 1360.50,626.34 1361.99,627.87 1363.47,629.35 1364.96,630.79 1366.45,632.18 1367.94,633.53 1369.43,634.83 1370.91,636.09 1372.40,637.29 1373.89,638.45 1375.38,639.56 1376.86,640.61 1378.35,641.61 1379.84,642.56 1381.33,643.45 1382.81,644.29 1384.30,645.07 1385.79,645.80 1387.28,646.47 1388.76,647.09 1390.25,647.64 1391.74,648.14 1393.22,648.58 1394.71,648.96 1396.20,649.28 1397.69,649.55 1399.17,649.75 1400.66,649.89 1402.15,649.98 1403.64,650.00 1405.12,649.96 1406.61,649.87 1408.10,649.71 1409.59,649.49 1411.08,649.22 1412.56,648.88 1414.05,648.49 1415.54,648.04 1417.03,647.53 1418.51,646.96 1420.00,646.33" stroke="#3b82b5" stroke-width="3" fill="none" stroke-linejoin="round" stroke-linecap="round" /><polyline points="825.00,575.00 826.49,565.37 827.98,555.89 829.46,546.73 830.95,538.05 832.44,529.97 833.92,522.64 835.41,516.17 836.90,510.69 838.39,506.26 839.88,502.98 841.36,500.89 842.85,500.02 844.34,500.40 845.83,502.02 847.31,504.84 848.80,508.83 850.29,513.91 851.77,520.01 853.26,527.01 854.75,534.81 856.24,543.28 857.73,552.27 859.21,561.64 860.70,571.23 862.19,580.88 863.67,590.44 865.16,599.74 866.65,608.63 868.14,616.96 869.62,624.60 871.11,631.41 872.60,637.29 874.09,642.14 875.58,645.88 877.06,648.44 878.55,649.79 880.04,649.89 881.52,648.76 883.01,646.40 884.50,642.86 885.99,638.20 887.48,632.49 888.96,625.82 890.45,618.32 891.94,610.09 893.42,601.29 894.91,592.05 896.40,582.53 897.89,572.88 899.38,563.27 900.86,553.85 902.35,544.78 903.84,536.22 905.33,528.29 906.81,521.14 908.30,514.88 909.79,509.62 911.27,505.44 912.76,502.42 914.25,500.59 915.74,500.00 917.23,500.65 918.71,502.54 920.20,505.62 921.69,509.85 923.17,515.17 924.66,521.47 926.15,528.66 927.64,536.62 929.12,545.21 930.61,554.30 932.10,563.73 933.59,573.35 935.08,583.00 936.56,592.51 938.05,601.73 939.54,610.51 941.02,618.70 942.51,626.17 944.00,632.79 945.49,638.45 946.98,643.06 948.46,646.54 949.95,648.84 951.44,649.92 952.92,649.75 954.41,648.34 955.90,645.72 957.39,641.93 958.88,637.03 960.36,631.10 961.85,624.24 963.34,616.57 964.83,608.21 966.31,599.29 967.80,589.98 969.29,580.41 970.77,570.76 972.26,561.18 973.75,551.82 975.24,542.85 976.73,534.42 978.21,526.65 979.70,519.69 981.19,513.64 982.67,508.61 984.16,504.68 985.65,501.91 987.14,500.36 988.62,500.04 990.11,500.96 991.60,503.11 993.09,506.45 994.58,510.93 996.06,516.47 997.55,522.98 999.04,530.35 1000.52,538.46 1002.01,547.17 1003.50,556.35 1004.99,565.83 1006.48,575.47 1007.96,585.10 1009.45,594.56 1010.94,603.70 1012.42,612.36 1013.91,620.41 1015.40,627.70 1016.89,634.12 1018.38,639.56 1019.86,643.92 1021.35,647.15 1022.84,649.18 1024.33,649.99 1025.81,649.55 1027.30,647.87 1028.79,644.99 1030.28,640.95 1031.76,635.81 1033.25,629.67 1034.74,622.63 1036.22,614.79 1037.71,606.29 1039.20,597.28 1040.69,587.89 1042.17,578.30 1043.66,568.65 1045.15,559.10 1046.64,549.82 1048.12,540.95 1049.61,532.65 1051.10,525.05 1052.59,518.28 1054.08,512.44 1055.56,507.65 1057.05,503.97 1058.54,501.46 1060.03,500.18 1061.51,500.13 1063.00,501.33 1064.49,503.74 1065.97,507.34 1067.46,512.06 1068.95,517.82 1070.44,524.52 1071.92,532.07 1073.41,540.32 1074.90,549.15 1076.39,558.41 1077.88,567.94 1079.36,577.59 1080.85,587.20 1082.34,596.60 1083.83,605.65 1085.31,614.19 1086.80,622.08 1088.29,629.19 1089.78,635.40 1091.26,640.61 1092.75,644.73 1094.24,647.70 1095.72,649.47 1097.21,650.00 1098.70,649.28 1100.19,647.34 1101.67,644.20 1103.16,639.91 1104.65,634.55 1106.14,628.20 1107.62,620.97 1109.11,612.98 1110.60,604.35 1112.09,595.24 1113.58,585.80 1115.06,576.18 1116.55,566.54 1118.04,557.03 1119.53,547.83 1121.01,539.08 1122.50,530.92 1123.99,523.49 1125.47,516.91 1126.96,511.30 1128.45,506.74 1129.94,503.32 1131.42,501.08 1132.91,500.06 1134.40,500.29 1135.89,501.76 1137.38,504.43 1138.86,508.28 1140.35,513.24 1141.84,519.21 1143.33,526.11 1144.81,533.82 1146.30,542.22 1147.79,551.15 1149.28,560.48 1150.76,570.06 1152.25,579.71 1153.74,589.28 1155.22,598.62 1156.71,607.57 1158.20,615.98 1159.69,623.71 1161.17,630.63 1162.66,636.63 1164.15,641.61 1165.64,645.49 1167.12,648.19 1168.61,649.69 1170.10,649.95 1171.59,648.96 1173.08,646.75 1174.56,643.36 1176.05,638.82 1177.54,633.24 1179.03,626.68 1180.51,619.27 1182.00,611.13 1183.49,602.39 1184.97,593.19 1186.46,583.70 1187.95,574.06 1189.44,564.43 1190.92,554.98 1192.41,545.86 1193.90,537.23 1195.39,529.22 1196.88,521.97 1198.36,515.59 1199.85,510.21 1201.34,505.89 1202.83,502.72 1204.31,500.75 1205.80,500.01 1207.29,500.51 1208.78,502.24 1210.26,505.18 1211.75,509.28 1213.24,514.46 1214.72,520.65 1216.21,527.74 1217.70,535.61 1219.19,544.14 1220.67,553.17 1222.16,562.57 1223.65,572.17 1225.14,581.82 1226.62,591.36 1228.11,600.63 1229.60,609.47 1231.09,617.74 1232.58,625.30 1234.06,632.03 1235.55,637.81 1237.04,642.56 1238.53,646.18 1240.01,648.63 1241.50,649.85 1242.99,649.84 1244.47,648.58 1245.96,646.11 1247.45,642.46 1248.94,637.69 1250.42,631.88 1251.91,625.13 1253.40,617.55 1254.89,609.26 1256.38,600.41 1257.86,591.13 1259.35,581.59 1260.84,571.94 1262.33,562.34 1263.81,552.95 1265.30,543.92 1266.79,535.41 1268.28,527.56 1269.76,520.49 1271.25,514.32 1272.74,509.16 1274.22,505.09 1275.71,502.18 1277.20,500.48 1278.69,500.01 1280.17,500.78 1281.66,502.78 1283.15,505.98 1284.64,510.32 1286.12,515.74 1287.61,522.13 1289.10,529.41 1290.59,537.43 1292.08,546.08 1293.56,555.21 1295.05,564.67 1296.54,574.29 1298.03,583.93 1299.51,593.42 1301.00,602.61 1302.49,611.34 1303.97,619.46 1305.46,626.85 1306.95,633.38 1308.44,638.95 1309.92,643.45 1311.41,646.82 1312.90,649.00 1314.39,649.96 1315.88,649.67 1317.36,648.14 1318.85,645.41 1320.34,641.50 1321.83,636.50 1323.31,630.47 1324.80,623.53 1326.29,615.78 1327.78,607.36 1329.26,598.40 1330.75,589.05 1332.24,579.47 1333.72,569.82 1335.21,560.25 1336.70,550.93 1338.19,542.00 1339.67,533.63 1341.16,525.93 1342.65,519.05 1344.14,513.10 1345.62,508.17 1347.11,504.35 1348.60,501.70 1350.09,500.27 1351.58,500.07 1353.06,501.12 1354.55,503.39 1356.04,506.84 1357.53,511.42 1359.01,517.06 1360.50,523.66 1361.99,531.11 1363.47,539.28 1364.96,548.05 1366.45,557.26 1367.94,566.77 1369.43,576.41 1370.91,586.03 1372.40,595.47 1373.89,604.57 1375.38,613.18 1376.86,621.15 1378.35,628.37 1379.84,634.69 1381.33,640.03 1382.81,644.29 1384.30,647.40 1385.79,649.32 1387.28,650.00 1388.76,649.44 1390.25,647.64 1391.74,644.65 1393.22,640.49 1394.71,635.26 1396.20,629.02 1397.69,621.89 1399.17,613.99 1400.66,605.43 1402.15,596.38 1403.64,586.97 1405.12,577.36 1406.61,567.71 1408.10,558.18 1409.59,548.93 1411.08,540.11 1412.56,531.87 1414.05,524.35 1415.54,517.66 1417.03,511.93 1418.51,507.24 1420.00,503.67" stroke="#c85b73" stroke-width="3" fill="none" stroke-linejoin="round" stroke-linecap="round" stroke-dasharray="8 5" /><line x1="825.0" y1="575" x2="825.0" y2="575.0" stroke="#8aa2b5" stroke-width="1" stroke-linecap="round" /><circle cx="825.0" cy="575.0" r="6" fill="#102a43" /><line x1="884.5" y1="575" x2="884.5" y2="507.13797106504853" stroke="#8aa2b5" stroke-width="1" stroke-linecap="round" /><circle cx="884.5" cy="507.13797106504853" r="6" fill="#102a43" /><line x1="944.0" y1="575" x2="944.0" y2="517.2115067918159" stroke="#8aa2b5" stroke-width="1" stroke-linecap="round" /><circle cx="944.0" cy="517.2115067918159" r="6" fill="#102a43" /><line x1="1003.5" y1="575" x2="1003.5" y2="593.6517415373642" stroke="#8aa2b5" stroke-width="1" stroke-linecap="round" /><circle cx="1003.5" cy="593.6517415373642" r="6" fill="#102a43" /><line x1="1063.0" y1="575" x2="1063.0" y2="648.6715438046516" stroke="#8aa2b5" stroke-width="1" stroke-linecap="round" /><circle cx="1063.0" cy="648.6715438046516" r="6" fill="#102a43" /><line x1="1122.5" y1="575" x2="1122.5" y2="619.0838939219354" stroke="#8aa2b5" stroke-width="1" stroke-linecap="round" /><circle cx="1122.5" cy="619.0838939219354" r="6" fill="#102a43" /><line x1="1182.0" y1="575" x2="1182.0" y2="538.8684744423713" stroke="#8aa2b5" stroke-width="1" stroke-linecap="round" /><circle cx="1182.0" cy="538.8684744423713" r="6" fill="#102a43" /><line x1="1241.5" y1="575" x2="1241.5" y2="500.1479953678796" stroke="#8aa2b5" stroke-width="1" stroke-linecap="round" /><circle cx="1241.5" cy="500.1479953678796" r="6" fill="#102a43" /><line x1="1301.0" y1="575" x2="1301.0" y2="547.3906585486492" stroke="#8aa2b5" stroke-width="1" stroke-linecap="round" /><circle cx="1301.0" cy="547.3906585486492" r="6" fill="#102a43" /><line x1="1360.5" y1="575" x2="1360.5" y2="626.3410329446517" stroke="#8aa2b5" stroke-width="1" stroke-linecap="round" /><circle cx="1360.5" cy="626.3410329446517" r="6" fill="#102a43" /><line x1="1420.0" y1="575" x2="1420.0" y2="646.3292387221366" stroke="#8aa2b5" stroke-width="1" stroke-linecap="round" /><circle cx="1420.0" cy="646.3292387221366" r="6" fill="#102a43" /><text x="980" y="680" text-anchor="middle" font-family="Source Han Sans SC, Microsoft YaHei, sans-serif" font-size="16" font-weight="700" fill="#285b7a">低频 ν</text><text x="1270" y="680" text-anchor="middle" font-family="Source Han Sans SC, Microsoft YaHei, sans-serif" font-size="16" font-weight="700" fill="#a24862">高频 fs−ν</text></svg>