<?xml version='1.0' encoding='utf-8'?>
<svg xmlns="http://www.w3.org/2000/svg" width="1500" height="720" viewBox="0 0 1500 720" role="img" aria-label="采样相位不确定性与摩尔纹拍频"><defs><marker id="arrow-blue" markerWidth="10" markerHeight="8" refX="9" refY="4" orient="auto" markerUnits="strokeWidth"><path d="M 0 0 L 10 4 L 0 8 z" fill="#3b82b5" /></marker><marker id="arrow-dark" markerWidth="10" markerHeight="8" refX="9" refY="4" orient="auto" markerUnits="strokeWidth"><path d="M 0 0 L 10 4 L 0 8 z" fill="#334e68" /></marker><marker id="arrow-red" markerWidth="10" markerHeight="8" refX="9" refY="4" orient="auto" markerUnits="strokeWidth"><path d="M 0 0 L 10 4 L 0 8 z" fill="#c85b73" /></marker><marker id="arrow-green" markerWidth="10" markerHeight="8" refX="9" refY="4" orient="auto" markerUnits="strokeWidth"><path d="M 0 0 L 10 4 L 0 8 z" fill="#4d8c6a" /></marker><marker id="arrow-gold" markerWidth="10" markerHeight="8" refX="9" refY="4" orient="auto" markerUnits="strokeWidth"><path d="M 0 0 L 10 4 L 0 8 z" fill="#c58a2d" /></marker><marker id="arrow-purple" markerWidth="10" markerHeight="8" refX="9" refY="4" orient="auto" markerUnits="strokeWidth"><path d="M 0 0 L 10 4 L 0 8 z" fill="#7b4b74" /></marker><linearGradient id="irradiance" x1="0" x2="1" y1="0" y2="0"><stop offset="0" stop-color="#eaf4ff" /><stop offset="0.45" stop-color="#3b82b5" /><stop offset="0.7" stop-color="#c85b73" /><stop offset="1" stop-color="#fff0f3" /></linearGradient></defs><rect width="1500" height="720" fill="#fbfdff" /><text x="750.0" y="43" text-anchor="middle" font-family="Source Han Sans SC, Microsoft YaHei, sans-serif" font-size="31" font-weight="700" fill="#102a43">接近奈奎斯特边界时，相位决定样本对比；相近栅格产生低频摩尔纹</text><line x1="750" y1="82" x2="750" y2="660" stroke="#d7e0e7" stroke-width="2" stroke-linecap="round" /><text x="375" y="100" text-anchor="middle" font-family="Source Han Sans SC, Microsoft YaHei, sans-serif" font-size="24" font-weight="700" fill="#285b7a">同一高频，不同采样相位</text><line x1="85" y1="225" x2="680" y2="225" stroke="#9fb3c2" stroke-width="1.5" stroke-linecap="round" /><polyline points="85.00,225.00 86.49,219.51 87.97,214.05 89.46,208.66 90.95,203.37 92.44,198.21 93.92,193.22 95.41,188.43 96.90,183.86 98.39,179.54 99.88,175.50 101.36,171.77 102.85,168.37 104.34,165.32 105.83,162.63 107.31,160.33 108.80,158.43 110.29,156.93 111.78,155.86 113.26,155.22 114.75,155.00 116.24,155.22 117.72,155.86 119.21,156.93 120.70,158.43 122.19,160.33 123.68,162.63 125.16,165.32 126.65,168.37 128.14,171.77 129.62,175.50 131.11,179.54 132.60,183.86 134.09,188.43 135.57,193.22 137.06,198.21 138.55,203.37 140.04,208.66 141.53,214.05 143.01,219.51 144.50,225.00 145.99,230.49 147.47,235.95 148.96,241.34 150.45,246.63 151.94,251.79 153.43,256.78 154.91,261.57 156.40,266.14 157.89,270.46 159.38,274.50 160.86,278.23 162.35,281.63 163.84,284.68 165.32,287.37 166.81,289.67 168.30,291.57 169.79,293.07 171.27,294.14 172.76,294.78 174.25,295.00 175.74,294.78 177.22,294.14 178.71,293.07 180.20,291.57 181.69,289.67 183.18,287.37 184.66,284.68 186.15,281.63 187.64,278.23 189.12,274.50 190.61,270.46 192.10,266.14 193.59,261.57 195.07,256.78 196.56,251.79 198.05,246.63 199.54,241.34 201.03,235.95 202.51,230.49 204.00,225.00 205.49,219.51 206.97,214.05 208.46,208.66 209.95,203.37 211.44,198.21 212.93,193.22 214.41,188.43 215.90,183.86 217.39,179.54 218.88,175.50 220.36,171.77 221.85,168.37 223.34,165.32 224.82,162.63 226.31,160.33 227.80,158.43 229.29,156.93 230.78,155.86 232.26,155.22 233.75,155.00 235.24,155.22 236.72,155.86 238.21,156.93 239.70,158.43 241.19,160.33 242.68,162.63 244.16,165.32 245.65,168.37 247.14,171.77 248.62,175.50 250.11,179.54 251.60,183.86 253.09,188.43 254.57,193.22 256.06,198.21 257.55,203.37 259.04,208.66 260.52,214.05 262.01,219.51 263.50,225.00 264.99,230.49 266.48,235.95 267.96,241.34 269.45,246.63 270.94,251.79 272.43,256.78 273.91,261.57 275.40,266.14 276.89,270.46 278.38,274.50 279.86,278.23 281.35,281.63 282.84,284.68 284.33,287.37 285.81,289.67 287.30,291.57 288.79,293.07 290.27,294.14 291.76,294.78 293.25,295.00 294.74,294.78 296.23,294.14 297.71,293.07 299.20,291.57 300.69,289.67 302.17,287.37 303.66,284.68 305.15,281.63 306.64,278.23 308.12,274.50 309.61,270.46 311.10,266.14 312.59,261.57 314.08,256.78 315.56,251.79 317.05,246.63 318.54,241.34 320.02,235.95 321.51,230.49 323.00,225.00 324.49,219.51 325.98,214.05 327.46,208.66 328.95,203.37 330.44,198.21 331.92,193.22 333.41,188.43 334.90,183.86 336.39,179.54 337.88,175.50 339.36,171.77 340.85,168.37 342.34,165.32 343.82,162.63 345.31,160.33 346.80,158.43 348.29,156.93 349.77,155.86 351.26,155.22 352.75,155.00 354.24,155.22 355.73,155.86 357.21,156.93 358.70,158.43 360.19,160.33 361.68,162.63 363.16,165.32 364.65,168.37 366.14,171.77 367.62,175.50 369.11,179.54 370.60,183.86 372.09,188.43 373.57,193.22 375.06,198.21 376.55,203.37 378.04,208.66 379.52,214.05 381.01,219.51 382.50,225.00 383.99,230.49 385.48,235.95 386.96,241.34 388.45,246.63 389.94,251.79 391.43,256.78 392.91,261.57 394.40,266.14 395.89,270.46 397.38,274.50 398.86,278.23 400.35,281.63 401.84,284.68 403.33,287.37 404.81,289.67 406.30,291.57 407.79,293.07 409.28,294.14 410.76,294.78 412.25,295.00 413.74,294.78 415.23,294.14 416.71,293.07 418.20,291.57 419.69,289.67 421.17,287.37 422.66,284.68 424.15,281.63 425.64,278.23 427.12,274.50 428.61,270.46 430.10,266.14 431.59,261.57 433.07,256.78 434.56,251.79 436.05,246.63 437.54,241.34 439.02,235.95 440.51,230.49 442.00,225.00 443.49,219.51 444.97,214.05 446.46,208.66 447.95,203.37 449.44,198.21 450.93,193.22 452.41,188.43 453.90,183.86 455.39,179.54 456.88,175.50 458.36,171.77 459.85,168.37 461.34,165.32 462.82,162.63 464.31,160.33 465.80,158.43 467.29,156.93 468.78,155.86 470.26,155.22 471.75,155.00 473.24,155.22 474.73,155.86 476.21,156.93 477.70,158.43 479.19,160.33 480.68,162.63 482.16,165.32 483.65,168.37 485.14,171.77 486.62,175.50 488.11,179.54 489.60,183.86 491.09,188.43 492.58,193.22 494.06,198.21 495.55,203.37 497.04,208.66 498.52,214.05 500.01,219.51 501.50,225.00 502.99,230.49 504.47,235.95 505.96,241.34 507.45,246.63 508.94,251.79 510.42,256.78 511.91,261.57 513.40,266.14 514.89,270.46 516.38,274.50 517.86,278.23 519.35,281.63 520.84,284.68 522.33,287.37 523.81,289.67 525.30,291.57 526.79,293.07 528.27,294.14 529.76,294.78 531.25,295.00 532.74,294.78 534.23,294.14 535.71,293.07 537.20,291.57 538.69,289.67 540.17,287.37 541.66,284.68 543.15,281.63 544.64,278.23 546.12,274.50 547.61,270.46 549.10,266.14 550.59,261.57 552.08,256.78 553.56,251.79 555.05,246.63 556.54,241.34 558.03,235.95 559.51,230.49 561.00,225.00 562.49,219.51 563.98,214.05 565.46,208.66 566.95,203.37 568.44,198.21 569.92,193.22 571.41,188.43 572.90,183.86 574.39,179.54 575.88,175.50 577.36,171.77 578.85,168.37 580.34,165.32 581.83,162.63 583.31,160.33 584.80,158.43 586.29,156.93 587.77,155.86 589.26,155.22 590.75,155.00 592.24,155.22 593.72,155.86 595.21,156.93 596.70,158.43 598.19,160.33 599.67,162.63 601.16,165.32 602.65,168.37 604.14,171.77 605.62,175.50 607.11,179.54 608.60,183.86 610.09,188.43 611.58,193.22 613.06,198.21 614.55,203.37 616.04,208.66 617.52,214.05 619.01,219.51 620.50,225.00 621.99,230.49 623.48,235.95 624.96,241.34 626.45,246.63 627.94,251.79 629.43,256.78 630.91,261.57 632.40,266.14 633.89,270.46 635.38,274.50 636.86,278.23 638.35,281.63 639.84,284.68 641.33,287.37 642.81,289.67 644.30,291.57 645.79,293.07 647.27,294.14 648.76,294.78 650.25,295.00 651.74,294.78 653.23,294.14 654.71,293.07 656.20,291.57 657.69,289.67 659.17,287.37 660.66,284.68 662.15,281.63 663.64,278.23 665.12,274.50 666.61,270.46 668.10,266.14 669.59,261.57 671.08,256.78 672.56,251.79 674.05,246.63 675.54,241.34 677.02,235.95 678.51,230.49 680.00,225.00" stroke="#3b82b5" stroke-width="3" fill="none" stroke-linejoin="round" stroke-linecap="round" /><circle cx="85.0" cy="225.0" r="7" fill="#c85b73" /><circle cx="144.5" cy="225.0" r="7" fill="#c85b73" /><circle cx="204.0" cy="225.00000000000003" r="7" fill="#c85b73" /><circle cx="263.5" cy="224.99999999999997" r="7" fill="#c85b73" /><circle cx="323.0" cy="225.00000000000003" r="7" fill="#c85b73" /><circle cx="382.5" cy="224.99999999999994" r="7" fill="#c85b73" /><circle cx="442.0" cy="225.00000000000006" r="7" fill="#c85b73" /><circle cx="501.5" cy="224.99999999999994" r="7" fill="#c85b73" /><circle cx="561.0" cy="225.00000000000006" r="7" fill="#c85b73" /><circle cx="620.5" cy="224.99999999999991" r="7" fill="#c85b73" /><circle cx="680.0" cy="225.00000000000009" r="7" fill="#c85b73" /><text x="375" y="333" text-anchor="middle" font-family="Source Han Sans SC, Microsoft YaHei, sans-serif" font-size="17" font-weight="700" fill="#7b4b74">相位 0：样本恰落零点，观测对比为 0</text><line x1="85" y1="445" x2="680" y2="445" stroke="#9fb3c2" stroke-width="1.5" stroke-linecap="round" /><polyline points="85.00,375.00 86.49,375.22 87.97,375.86 89.46,376.93 90.95,378.43 92.44,380.33 93.92,382.63 95.41,385.32 96.90,388.37 98.39,391.77 99.88,395.50 101.36,399.54 102.85,403.86 104.34,408.43 105.83,413.22 107.31,418.21 108.80,423.37 110.29,428.66 111.78,434.05 113.26,439.51 114.75,445.00 116.24,450.49 117.72,455.95 119.21,461.34 120.70,466.63 122.19,471.79 123.68,476.78 125.16,481.57 126.65,486.14 128.14,490.46 129.62,494.50 131.11,498.23 132.60,501.63 134.09,504.68 135.57,507.37 137.06,509.67 138.55,511.57 140.04,513.07 141.53,514.14 143.01,514.78 144.50,515.00 145.99,514.78 147.47,514.14 148.96,513.07 150.45,511.57 151.94,509.67 153.43,507.37 154.91,504.68 156.40,501.63 157.89,498.23 159.38,494.50 160.86,490.46 162.35,486.14 163.84,481.57 165.32,476.78 166.81,471.79 168.30,466.63 169.79,461.34 171.27,455.95 172.76,450.49 174.25,445.00 175.74,439.51 177.22,434.05 178.71,428.66 180.20,423.37 181.69,418.21 183.18,413.22 184.66,408.43 186.15,403.86 187.64,399.54 189.12,395.50 190.61,391.77 192.10,388.37 193.59,385.32 195.07,382.63 196.56,380.33 198.05,378.43 199.54,376.93 201.03,375.86 202.51,375.22 204.00,375.00 205.49,375.22 206.97,375.86 208.46,376.93 209.95,378.43 211.44,380.33 212.93,382.63 214.41,385.32 215.90,388.37 217.39,391.77 218.88,395.50 220.36,399.54 221.85,403.86 223.34,408.43 224.82,413.22 226.31,418.21 227.80,423.37 229.29,428.66 230.78,434.05 232.26,439.51 233.75,445.00 235.24,450.49 236.72,455.95 238.21,461.34 239.70,466.63 241.19,471.79 242.68,476.78 244.16,481.57 245.65,486.14 247.14,490.46 248.62,494.50 250.11,498.23 251.60,501.63 253.09,504.68 254.57,507.37 256.06,509.67 257.55,511.57 259.04,513.07 260.52,514.14 262.01,514.78 263.50,515.00 264.99,514.78 266.48,514.14 267.96,513.07 269.45,511.57 270.94,509.67 272.43,507.37 273.91,504.68 275.40,501.63 276.89,498.23 278.38,494.50 279.86,490.46 281.35,486.14 282.84,481.57 284.33,476.78 285.81,471.79 287.30,466.63 288.79,461.34 290.27,455.95 291.76,450.49 293.25,445.00 294.74,439.51 296.23,434.05 297.71,428.66 299.20,423.37 300.69,418.21 302.17,413.22 303.66,408.43 305.15,403.86 306.64,399.54 308.12,395.50 309.61,391.77 311.10,388.37 312.59,385.32 314.08,382.63 315.56,380.33 317.05,378.43 318.54,376.93 320.02,375.86 321.51,375.22 323.00,375.00 324.49,375.22 325.98,375.86 327.46,376.93 328.95,378.43 330.44,380.33 331.92,382.63 333.41,385.32 334.90,388.37 336.39,391.77 337.88,395.50 339.36,399.54 340.85,403.86 342.34,408.43 343.82,413.22 345.31,418.21 346.80,423.37 348.29,428.66 349.77,434.05 351.26,439.51 352.75,445.00 354.24,450.49 355.73,455.95 357.21,461.34 358.70,466.63 360.19,471.79 361.68,476.78 363.16,481.57 364.65,486.14 366.14,490.46 367.62,494.50 369.11,498.23 370.60,501.63 372.09,504.68 373.57,507.37 375.06,509.67 376.55,511.57 378.04,513.07 379.52,514.14 381.01,514.78 382.50,515.00 383.99,514.78 385.48,514.14 386.96,513.07 388.45,511.57 389.94,509.67 391.43,507.37 392.91,504.68 394.40,501.63 395.89,498.23 397.38,494.50 398.86,490.46 400.35,486.14 401.84,481.57 403.33,476.78 404.81,471.79 406.30,466.63 407.79,461.34 409.28,455.95 410.76,450.49 412.25,445.00 413.74,439.51 415.23,434.05 416.71,428.66 418.20,423.37 419.69,418.21 421.17,413.22 422.66,408.43 424.15,403.86 425.64,399.54 427.12,395.50 428.61,391.77 430.10,388.37 431.59,385.32 433.07,382.63 434.56,380.33 436.05,378.43 437.54,376.93 439.02,375.86 440.51,375.22 442.00,375.00 443.49,375.22 444.97,375.86 446.46,376.93 447.95,378.43 449.44,380.33 450.93,382.63 452.41,385.32 453.90,388.37 455.39,391.77 456.88,395.50 458.36,399.54 459.85,403.86 461.34,408.43 462.82,413.22 464.31,418.21 465.80,423.37 467.29,428.66 468.78,434.05 470.26,439.51 471.75,445.00 473.24,450.49 474.73,455.95 476.21,461.34 477.70,466.63 479.19,471.79 480.68,476.78 482.16,481.57 483.65,486.14 485.14,490.46 486.62,494.50 488.11,498.23 489.60,501.63 491.09,504.68 492.58,507.37 494.06,509.67 495.55,511.57 497.04,513.07 498.52,514.14 500.01,514.78 501.50,515.00 502.99,514.78 504.47,514.14 505.96,513.07 507.45,511.57 508.94,509.67 510.42,507.37 511.91,504.68 513.40,501.63 514.89,498.23 516.38,494.50 517.86,490.46 519.35,486.14 520.84,481.57 522.33,476.78 523.81,471.79 525.30,466.63 526.79,461.34 528.27,455.95 529.76,450.49 531.25,445.00 532.74,439.51 534.23,434.05 535.71,428.66 537.20,423.37 538.69,418.21 540.17,413.22 541.66,408.43 543.15,403.86 544.64,399.54 546.12,395.50 547.61,391.77 549.10,388.37 550.59,385.32 552.08,382.63 553.56,380.33 555.05,378.43 556.54,376.93 558.03,375.86 559.51,375.22 561.00,375.00 562.49,375.22 563.98,375.86 565.46,376.93 566.95,378.43 568.44,380.33 569.92,382.63 571.41,385.32 572.90,388.37 574.39,391.77 575.88,395.50 577.36,399.54 578.85,403.86 580.34,408.43 581.83,413.22 583.31,418.21 584.80,423.37 586.29,428.66 587.77,434.05 589.26,439.51 590.75,445.00 592.24,450.49 593.72,455.95 595.21,461.34 596.70,466.63 598.19,471.79 599.67,476.78 601.16,481.57 602.65,486.14 604.14,490.46 605.62,494.50 607.11,498.23 608.60,501.63 610.09,504.68 611.58,507.37 613.06,509.67 614.55,511.57 616.04,513.07 617.52,514.14 619.01,514.78 620.50,515.00 621.99,514.78 623.48,514.14 624.96,513.07 626.45,511.57 627.94,509.67 629.43,507.37 630.91,504.68 632.40,501.63 633.89,498.23 635.38,494.50 636.86,490.46 638.35,486.14 639.84,481.57 641.33,476.78 642.81,471.79 644.30,466.63 645.79,461.34 647.27,455.95 648.76,450.49 650.25,445.00 651.74,439.51 653.23,434.05 654.71,428.66 656.20,423.37 657.69,418.21 659.17,413.22 660.66,408.43 662.15,403.86 663.64,399.54 665.12,395.50 666.61,391.77 668.10,388.37 669.59,385.32 671.08,382.63 672.56,380.33 674.05,378.43 675.54,376.93 677.02,375.86 678.51,375.22 680.00,375.00" stroke="#3b82b5" stroke-width="3" fill="none" stroke-linejoin="round" stroke-linecap="round" /><circle cx="85.0" cy="375.0" r="7" fill="#c85b73" /><circle cx="144.5" cy="515.0" r="7" fill="#c85b73" /><circle cx="204.0" cy="375.0" r="7" fill="#c85b73" /><circle cx="263.5" cy="515.0" r="7" fill="#c85b73" /><circle cx="323.0" cy="375.0" r="7" fill="#c85b73" /><circle cx="382.5" cy="515.0" r="7" fill="#c85b73" /><circle cx="442.0" cy="375.0" r="7" fill="#c85b73" /><circle cx="501.5" cy="515.0" r="7" fill="#c85b73" /><circle cx="561.0" cy="375.0" r="7" fill="#c85b73" /><circle cx="620.5" cy="515.0" r="7" fill="#c85b73" /><circle cx="680.0" cy="375.0" r="7" fill="#c85b73" /><text x="375" y="553" text-anchor="middle" font-family="Source Han Sans SC, Microsoft YaHei, sans-serif" font-size="17" font-weight="700" fill="#7b4b74">相位 π/2：样本在 ±峰值，观测对比最大</text><text x="1125" y="100" text-anchor="middle" font-family="Source Han Sans SC, Microsoft YaHei, sans-serif" font-size="24" font-weight="700" fill="#a24862">两组近频栅格的拍频</text><rect x="825" y="155" width="600" height="360" fill="#f7f9fb" stroke="#9fb3c2" stroke-width="2" /><defs><clipPath id="moire-clip"><rect x="825" y="155" width="600" height="360" /></clipPath></defs><g clip-path="url(#moire-clip)"><line x1="357" y1="155" x2="487" y2="515" stroke="#334e68" stroke-width="5" stroke-linecap="round" /><line x1="383" y1="155" x2="513" y2="515" stroke="#334e68" stroke-width="5" stroke-linecap="round" /><line x1="409" y1="155" x2="539" y2="515" stroke="#334e68" stroke-width="5" stroke-linecap="round" /><line x1="435" y1="155" x2="565" y2="515" stroke="#334e68" stroke-width="5" stroke-linecap="round" /><line x1="461" y1="155" x2="591" y2="515" stroke="#334e68" stroke-width="5" stroke-linecap="round" /><line x1="487" y1="155" x2="617" y2="515" stroke="#334e68" stroke-width="5" stroke-linecap="round" /><line x1="513" y1="155" x2="643" y2="515" stroke="#334e68" stroke-width="5" stroke-linecap="round" /><line x1="539" y1="155" x2="669" y2="515" stroke="#334e68" stroke-width="5" stroke-linecap="round" /><line x1="565" y1="155" x2="695" y2="515" stroke="#334e68" stroke-width="5" stroke-linecap="round" /><line x1="591" y1="155" x2="721" y2="515" stroke="#334e68" stroke-width="5" stroke-linecap="round" /><line x1="617" y1="155" x2="747" y2="515" stroke="#334e68" stroke-width="5" stroke-linecap="round" /><line x1="643" y1="155" x2="773" y2="515" stroke="#334e68" stroke-width="5" stroke-linecap="round" /><line x1="669" y1="155" x2="799" y2="515" stroke="#334e68" stroke-width="5" stroke-linecap="round" /><line x1="695" y1="155" x2="825" y2="515" stroke="#334e68" stroke-width="5" stroke-linecap="round" /><line x1="721" y1="155" x2="851" y2="515" stroke="#334e68" stroke-width="5" stroke-linecap="round" /><line x1="747" y1="155" x2="877" y2="515" stroke="#334e68" stroke-width="5" stroke-linecap="round" /><line x1="773" y1="155" x2="903" y2="515" stroke="#334e68" stroke-width="5" stroke-linecap="round" /><line x1="799" y1="155" x2="929" y2="515" stroke="#334e68" stroke-width="5" stroke-linecap="round" /><line x1="825" y1="155" x2="955" y2="515" stroke="#334e68" stroke-width="5" stroke-linecap="round" /><line x1="851" y1="155" x2="981" y2="515" stroke="#334e68" stroke-width="5" stroke-linecap="round" /><line x1="877" y1="155" x2="1007" y2="515" stroke="#334e68" stroke-width="5" stroke-linecap="round" /><line x1="903" y1="155" x2="1033" y2="515" stroke="#334e68" stroke-width="5" stroke-linecap="round" /><line x1="929" y1="155" x2="1059" y2="515" stroke="#334e68" stroke-width="5" stroke-linecap="round" /><line x1="955" y1="155" x2="1085" y2="515" stroke="#334e68" stroke-width="5" stroke-linecap="round" /><line x1="981" y1="155" x2="1111" y2="515" stroke="#334e68" stroke-width="5" stroke-linecap="round" /><line x1="1007" y1="155" x2="1137" y2="515" stroke="#334e68" stroke-width="5" stroke-linecap="round" /><line x1="1033" y1="155" x2="1163" y2="515" stroke="#334e68" stroke-width="5" stroke-linecap="round" /><line x1="1059" y1="155" x2="1189" y2="515" stroke="#334e68" stroke-width="5" stroke-linecap="round" /><line x1="1085" y1="155" x2="1215" y2="515" stroke="#334e68" stroke-width="5" stroke-linecap="round" /><line x1="1111" y1="155" x2="1241" y2="515" stroke="#334e68" stroke-width="5" stroke-linecap="round" /><line x1="1137" y1="155" x2="1267" y2="515" stroke="#334e68" stroke-width="5" stroke-linecap="round" /><line x1="1163" y1="155" x2="1293" y2="515" stroke="#334e68" stroke-width="5" stroke-linecap="round" /><line x1="1189" y1="155" x2="1319" y2="515" stroke="#334e68" stroke-width="5" stroke-linecap="round" /><line x1="1215" y1="155" x2="1345" y2="515" stroke="#334e68" stroke-width="5" stroke-linecap="round" /><line x1="1241" y1="155" x2="1371" y2="515" stroke="#334e68" stroke-width="5" stroke-linecap="round" /><line x1="1267" y1="155" x2="1397" y2="515" stroke="#334e68" stroke-width="5" stroke-linecap="round" /><line x1="1293" y1="155" x2="1423" y2="515" stroke="#334e68" stroke-width="5" stroke-linecap="round" /><line x1="1319" y1="155" x2="1449" y2="515" stroke="#334e68" stroke-width="5" stroke-linecap="round" /><line x1="1345" y1="155" x2="1475" y2="515" stroke="#334e68" stroke-width="5" stroke-linecap="round" /><line x1="1371" y1="155" x2="1501" y2="515" stroke="#334e68" stroke-width="5" stroke-linecap="round" /><line x1="1397" y1="155" x2="1527" y2="515" stroke="#334e68" stroke-width="5" stroke-linecap="round" /><line x1="1423" y1="155" x2="1553" y2="515" stroke="#334e68" stroke-width="5" stroke-linecap="round" /><line x1="1449" y1="155" x2="1579" y2="515" stroke="#334e68" stroke-width="5" stroke-linecap="round" /><line x1="1475" y1="155" x2="1605" y2="515" stroke="#334e68" stroke-width="5" stroke-linecap="round" /><line x1="1501" y1="155" x2="1631" y2="515" stroke="#334e68" stroke-width="5" stroke-linecap="round" /><line x1="1527" y1="155" x2="1657" y2="515" stroke="#334e68" stroke-width="5" stroke-linecap="round" /><line x1="1553" y1="155" x2="1683" y2="515" stroke="#334e68" stroke-width="5" stroke-linecap="round" /><line x1="1579" y1="155" x2="1709" y2="515" stroke="#334e68" stroke-width="5" stroke-linecap="round" /><line x1="409" y1="155" x2="304" y2="515" stroke="#3b82b5" stroke-width="4" stroke-linecap="round" /><line x1="436" y1="155" x2="331" y2="515" stroke="#3b82b5" stroke-width="4" stroke-linecap="round" /><line x1="463" y1="155" x2="358" y2="515" stroke="#3b82b5" stroke-width="4" stroke-linecap="round" /><line x1="490" y1="155" x2="385" y2="515" stroke="#3b82b5" stroke-width="4" stroke-linecap="round" /><line x1="517" y1="155" x2="412" y2="515" stroke="#3b82b5" stroke-width="4" stroke-linecap="round" /><line x1="544" y1="155" x2="439" y2="515" stroke="#3b82b5" stroke-width="4" stroke-linecap="round" /><line x1="571" y1="155" x2="466" y2="515" stroke="#3b82b5" stroke-width="4" stroke-linecap="round" /><line x1="598" y1="155" x2="493" y2="515" stroke="#3b82b5" stroke-width="4" stroke-linecap="round" /><line x1="625" y1="155" x2="520" y2="515" stroke="#3b82b5" stroke-width="4" stroke-linecap="round" /><line x1="652" y1="155" x2="547" y2="515" stroke="#3b82b5" stroke-width="4" stroke-linecap="round" /><line x1="679" y1="155" x2="574" y2="515" stroke="#3b82b5" stroke-width="4" stroke-linecap="round" /><line x1="706" y1="155" x2="601" y2="515" stroke="#3b82b5" stroke-width="4" stroke-linecap="round" /><line x1="733" y1="155" x2="628" y2="515" stroke="#3b82b5" stroke-width="4" stroke-linecap="round" /><line x1="760" y1="155" x2="655" y2="515" stroke="#3b82b5" stroke-width="4" stroke-linecap="round" /><line x1="787" y1="155" x2="682" y2="515" stroke="#3b82b5" stroke-width="4" stroke-linecap="round" /><line x1="814" y1="155" x2="709" y2="515" stroke="#3b82b5" stroke-width="4" stroke-linecap="round" /><line x1="841" y1="155" x2="736" y2="515" stroke="#3b82b5" stroke-width="4" stroke-linecap="round" /><line x1="868" y1="155" x2="763" y2="515" stroke="#3b82b5" stroke-width="4" stroke-linecap="round" /><line x1="895" y1="155" x2="790" y2="515" stroke="#3b82b5" stroke-width="4" stroke-linecap="round" /><line x1="922" y1="155" x2="817" y2="515" stroke="#3b82b5" stroke-width="4" stroke-linecap="round" /><line x1="949" y1="155" x2="844" y2="515" stroke="#3b82b5" stroke-width="4" stroke-linecap="round" /><line x1="976" y1="155" x2="871" y2="515" stroke="#3b82b5" stroke-width="4" stroke-linecap="round" /><line x1="1003" y1="155" x2="898" y2="515" stroke="#3b82b5" stroke-width="4" stroke-linecap="round" /><line x1="1030" y1="155" x2="925" y2="515" stroke="#3b82b5" stroke-width="4" stroke-linecap="round" /><line x1="1057" y1="155" x2="952" y2="515" stroke="#3b82b5" stroke-width="4" stroke-linecap="round" /><line x1="1084" y1="155" x2="979" y2="515" stroke="#3b82b5" stroke-width="4" stroke-linecap="round" /><line x1="1111" y1="155" x2="1006" y2="515" stroke="#3b82b5" stroke-width="4" stroke-linecap="round" /><line x1="1138" y1="155" x2="1033" y2="515" stroke="#3b82b5" stroke-width="4" stroke-linecap="round" /><line x1="1165" y1="155" x2="1060" y2="515" stroke="#3b82b5" stroke-width="4" stroke-linecap="round" /><line x1="1192" y1="155" x2="1087" y2="515" stroke="#3b82b5" stroke-width="4" stroke-linecap="round" /><line x1="1219" y1="155" x2="1114" y2="515" stroke="#3b82b5" stroke-width="4" stroke-linecap="round" /><line x1="1246" y1="155" x2="1141" y2="515" stroke="#3b82b5" stroke-width="4" stroke-linecap="round" /><line x1="1273" y1="155" x2="1168" y2="515" stroke="#3b82b5" stroke-width="4" stroke-linecap="round" /><line x1="1300" y1="155" x2="1195" y2="515" stroke="#3b82b5" stroke-width="4" stroke-linecap="round" /><line x1="1327" y1="155" x2="1222" y2="515" stroke="#3b82b5" stroke-width="4" stroke-linecap="round" /><line x1="1354" y1="155" x2="1249" y2="515" stroke="#3b82b5" stroke-width="4" stroke-linecap="round" /><line x1="1381" y1="155" x2="1276" y2="515" stroke="#3b82b5" stroke-width="4" stroke-linecap="round" /><line x1="1408" y1="155" x2="1303" y2="515" stroke="#3b82b5" stroke-width="4" stroke-linecap="round" /><line x1="1435" y1="155" x2="1330" y2="515" stroke="#3b82b5" stroke-width="4" stroke-linecap="round" /><line x1="1462" y1="155" x2="1357" y2="515" stroke="#3b82b5" stroke-width="4" stroke-linecap="round" /><line x1="1489" y1="155" x2="1384" y2="515" stroke="#3b82b5" stroke-width="4" stroke-linecap="round" /><line x1="1516" y1="155" x2="1411" y2="515" stroke="#3b82b5" stroke-width="4" stroke-linecap="round" /><line x1="1543" y1="155" x2="1438" y2="515" stroke="#3b82b5" stroke-width="4" stroke-linecap="round" /><line x1="1570" y1="155" x2="1465" y2="515" stroke="#3b82b5" stroke-width="4" stroke-linecap="round" /><line x1="1597" y1="155" x2="1492" y2="515" stroke="#3b82b5" stroke-width="4" stroke-linecap="round" /><line x1="1624" y1="155" x2="1519" y2="515" stroke="#3b82b5" stroke-width="4" stroke-linecap="round" /><line x1="1651" y1="155" x2="1546" y2="515" stroke="#3b82b5" stroke-width="4" stroke-linecap="round" /><line x1="1678" y1="155" x2="1573" y2="515" stroke="#3b82b5" stroke-width="4" stroke-linecap="round" /></g><text x="1125" y="555" text-anchor="middle" font-family="Source Han Sans SC, Microsoft YaHei, sans-serif" font-size="18" font-weight="400" fill="#486581">场景频率 ν1 与采样/第二栅格 ν2</text><text x="1125" y="598" text-anchor="middle" font-family="Source Han Sans SC, Microsoft YaHei, sans-serif" font-size="22" font-weight="700" fill="#a24862">产生低频包络 |ν1−ν2|</text><rect x="865" y="625" width="520" height="62" rx="16" fill="#fff0f3" stroke="#eab0be" stroke-width="2.5" /><text x="1125.0" y="667" text-anchor="middle" font-family="Source Han Sans SC, Microsoft YaHei, sans-serif" font-size="21" font-weight="700" fill="#a24862">微小位移即可让摩尔纹相位和颜色显著改变</text></svg>