<?xml version='1.0' encoding='utf-8'?>
<svg xmlns="http://www.w3.org/2000/svg" width="1500" height="620" viewBox="0 0 1500 620" role="img" aria-label="五种 Seidel 初级单色像差"><defs><marker id="arrow-blue" markerWidth="10" markerHeight="8" refX="9" refY="4" orient="auto" markerUnits="strokeWidth"><path d="M 0 0 L 10 4 L 0 8 z" fill="#3b82b5" /></marker><marker id="arrow-red" markerWidth="10" markerHeight="8" refX="9" refY="4" orient="auto" markerUnits="strokeWidth"><path d="M 0 0 L 10 4 L 0 8 z" fill="#c85b73" /></marker><marker id="arrow-dark" markerWidth="10" markerHeight="8" refX="9" refY="4" orient="auto" markerUnits="strokeWidth"><path d="M 0 0 L 10 4 L 0 8 z" fill="#334e68" /></marker><marker id="arrow-green" markerWidth="10" markerHeight="8" refX="9" refY="4" orient="auto" markerUnits="strokeWidth"><path d="M 0 0 L 10 4 L 0 8 z" fill="#4d8c6a" /></marker></defs><rect width="1500" height="620" fill="#fbfdff" /><text x="750.0" y="42" text-anchor="middle" font-family="Source Han Sans SC, Microsoft YaHei, sans-serif" font-size="30" font-weight="700" fill="#102a43">初级单色像差的典型签名</text><text x="150" y="90" text-anchor="middle" font-family="Source Han Sans SC, Microsoft YaHei, sans-serif" font-size="23" font-weight="700" fill="#3b82b5">球差</text><circle cx="150" cy="290" r="95" fill="#3b82b5" fill-opacity="0.13" /><circle cx="150" cy="290" r="70" fill="#3b82b5" fill-opacity="0.18" /><circle cx="150" cy="290" r="45" fill="#3b82b5" fill-opacity="0.28" /><circle cx="150" cy="290" r="20" fill="#3b82b5" fill-opacity="0.55" /><text x="150" y="455" text-anchor="middle" font-family="Source Han Sans SC, Microsoft YaHei, sans-serif" font-size="18" font-weight="400" fill="#486581">轴上同心扩散</text><text x="150" y="530" text-anchor="middle" font-family="Source Han Sans SC, Microsoft YaHei, sans-serif" font-size="21" font-weight="700" fill="#3b82b5">ρ⁴</text><line x1="300" y1="75" x2="300" y2="570" stroke="#d7e0e7" stroke-width="2" stroke-linecap="round" /><text x="450" y="90" text-anchor="middle" font-family="Source Han Sans SC, Microsoft YaHei, sans-serif" font-size="23" font-weight="700" fill="#c85b73">彗差</text><circle cx="395.0" cy="290.0" r="18.0" fill="#c85b73" fill-opacity="0.22" /><circle cx="407.0" cy="304.2" r="17.0" fill="#c85b73" fill-opacity="0.28" /><circle cx="419.0" cy="313.4" r="16.0" fill="#c85b73" fill-opacity="0.34" /><circle cx="431.0" cy="316.3" r="15.0" fill="#c85b73" fill-opacity="0.40" /><circle cx="443.0" cy="313.5" r="14.0" fill="#c85b73" fill-opacity="0.46" /><circle cx="455.0" cy="306.4" r="13.0" fill="#c85b73" fill-opacity="0.52" /><circle cx="467.0" cy="297.6" r="12.0" fill="#c85b73" fill-opacity="0.58" /><circle cx="479.0" cy="289.4" r="11.0" fill="#c85b73" fill-opacity="0.64" /><circle cx="491.0" cy="283.6" r="10.0" fill="#c85b73" fill-opacity="0.70" /><circle cx="503.0" cy="281.2" r="9.0" fill="#c85b73" fill-opacity="0.76" /><circle cx="515.0" cy="282.0" r="8.0" fill="#c85b73" fill-opacity="0.82" /><text x="450" y="455" text-anchor="middle" font-family="Source Han Sans SC, Microsoft YaHei, sans-serif" font-size="18" font-weight="400" fill="#486581">离轴彗星尾</text><text x="450" y="530" text-anchor="middle" font-family="Source Han Sans SC, Microsoft YaHei, sans-serif" font-size="21" font-weight="700" fill="#c85b73">hρ³</text><line x1="600" y1="75" x2="600" y2="570" stroke="#d7e0e7" stroke-width="2" stroke-linecap="round" /><text x="750" y="90" text-anchor="middle" font-family="Source Han Sans SC, Microsoft YaHei, sans-serif" font-size="23" font-weight="700" fill="#8a69b4">像散</text><line x1="670" y1="290" x2="830" y2="290" stroke="#8a69b4" stroke-width="13" stroke-linecap="round" /><line x1="750" y1="345" x2="750" y2="435" stroke="#8a69b4" stroke-width="13" stroke-linecap="round" /><text x="750" y="455" text-anchor="middle" font-family="Source Han Sans SC, Microsoft YaHei, sans-serif" font-size="18" font-weight="400" fill="#486581">正交焦线分离</text><text x="750" y="530" text-anchor="middle" font-family="Source Han Sans SC, Microsoft YaHei, sans-serif" font-size="21" font-weight="700" fill="#8a69b4">h²ρ²</text><line x1="900" y1="75" x2="900" y2="570" stroke="#d7e0e7" stroke-width="2" stroke-linecap="round" /><text x="1050" y="90" text-anchor="middle" font-family="Source Han Sans SC, Microsoft YaHei, sans-serif" font-size="23" font-weight="700" fill="#4d8c6a">场曲</text><line x1="955" y1="175" x2="955" y2="420" stroke="#334e68" stroke-width="5" stroke-linecap="round" /><polyline points="985.00,185.00 986.62,185.02 988.23,185.10 989.85,185.22 991.46,185.38 993.08,185.60 994.70,185.86 996.31,186.17 997.93,186.53 999.55,186.94 1001.16,187.40 1002.78,187.90 1004.39,188.45 1006.01,189.05 1007.63,189.70 1009.24,190.39 1010.86,191.14 1012.47,191.93 1014.09,192.77 1015.71,193.66 1017.32,194.59 1018.94,195.57 1020.56,196.60 1022.17,197.68 1023.79,198.81 1025.40,199.99 1027.02,201.21 1028.64,202.48 1030.25,203.80 1031.87,205.16 1033.48,206.58 1035.10,208.04 1036.72,209.55 1038.33,211.11 1039.95,212.72 1041.57,214.37 1043.18,216.07 1044.80,217.82 1046.41,219.62 1048.03,221.47 1049.65,223.36 1051.26,225.31 1052.88,227.30 1054.49,229.33 1056.11,231.42 1057.73,233.55 1059.34,235.74 1060.96,237.97 1062.58,240.24 1064.19,242.57 1065.81,244.94 1067.42,247.36 1069.04,249.83 1070.66,252.35 1072.27,254.92 1073.89,257.53 1075.51,260.19 1077.12,262.90 1078.74,265.66 1080.35,268.46 1081.97,271.32 1083.59,274.22 1085.20,277.17 1086.82,280.17 1088.43,283.21 1090.05,286.30 1091.67,289.44 1093.28,292.63 1094.90,295.87 1096.52,299.16 1098.13,302.49 1099.75,305.87 1101.36,309.30 1102.98,312.77 1104.60,316.30 1106.21,319.87 1107.83,323.49 1109.44,327.16 1111.06,330.88 1112.68,334.64 1114.29,338.45 1115.91,342.31 1117.53,346.22 1119.14,350.18 1120.76,354.18 1122.37,358.23 1123.99,362.33 1125.61,366.48 1127.22,370.68 1128.84,374.92 1130.45,379.21 1132.07,383.55 1133.69,387.94 1135.30,392.38 1136.92,396.86 1138.54,401.39 1140.15,405.97 1141.77,410.60 1143.38,415.28 1145.00,420.00" stroke="#4d8c6a" stroke-width="5" fill="none" stroke-linejoin="round" stroke-linecap="round" /><text x="1050" y="455" text-anchor="middle" font-family="Source Han Sans SC, Microsoft YaHei, sans-serif" font-size="18" font-weight="400" fill="#486581">最佳焦面弯曲</text><text x="1050" y="530" text-anchor="middle" font-family="Source Han Sans SC, Microsoft YaHei, sans-serif" font-size="21" font-weight="700" fill="#4d8c6a">h²ρ²</text><line x1="1200" y1="75" x2="1200" y2="570" stroke="#d7e0e7" stroke-width="2" stroke-linecap="round" /><text x="1350" y="90" text-anchor="middle" font-family="Source Han Sans SC, Microsoft YaHei, sans-serif" font-size="23" font-weight="700" fill="#c58a2d">畸变</text><polyline points="1234.40,174.40 1240.29,175.62 1246.04,176.80 1251.64,177.92 1257.11,178.99 1262.46,180.01 1267.68,180.98 1272.78,181.89 1277.78,182.76 1282.67,183.58 1287.47,184.34 1292.17,185.05 1296.79,185.72 1301.34,186.33 1305.81,186.89 1310.22,187.40 1314.56,187.86 1318.86,188.27 1323.10,188.62 1327.31,188.93 1331.48,189.18 1335.63,189.39 1339.75,189.54 1343.86,189.64 1347.95,189.69 1352.05,189.69 1356.14,189.64 1360.25,189.54 1364.37,189.39 1368.52,189.18 1372.69,188.93 1376.90,188.62 1381.14,188.27 1385.44,187.86 1389.78,187.40 1394.19,186.89 1398.66,186.33 1403.21,185.72 1407.83,185.05 1412.53,184.34 1417.33,183.58 1422.22,182.76 1427.22,181.89 1432.32,180.98 1437.54,180.01 1442.89,178.99 1448.36,177.92 1453.96,176.80 1459.71,175.62 1465.60,174.40" stroke="#c58a2d" stroke-width="2" fill="none" stroke-linejoin="round" stroke-linecap="round" /><polyline points="1234.40,174.40 1235.62,180.29 1236.80,186.04 1237.92,191.64 1238.99,197.11 1240.01,202.46 1240.98,207.68 1241.89,212.78 1242.76,217.78 1243.58,222.67 1244.34,227.47 1245.05,232.17 1245.72,236.79 1246.33,241.34 1246.89,245.81 1247.40,250.22 1247.86,254.56 1248.27,258.86 1248.62,263.10 1248.93,267.31 1249.18,271.48 1249.39,275.63 1249.54,279.75 1249.64,283.86 1249.69,287.95 1249.69,292.05 1249.64,296.14 1249.54,300.25 1249.39,304.37 1249.18,308.52 1248.93,312.69 1248.62,316.90 1248.27,321.14 1247.86,325.44 1247.40,329.78 1246.89,334.19 1246.33,338.66 1245.72,343.21 1245.05,347.83 1244.34,352.53 1243.58,357.33 1242.76,362.22 1241.89,367.22 1240.98,372.32 1240.01,377.54 1238.99,382.89 1237.92,388.36 1236.80,393.96 1235.62,399.71 1234.40,405.60" stroke="#c58a2d" stroke-width="2" fill="none" stroke-linejoin="round" stroke-linecap="round" /><polyline points="1245.88,237.94 1251.30,238.55 1256.58,239.14 1261.71,239.70 1266.71,240.23 1271.59,240.74 1276.34,241.23 1280.98,241.68 1285.51,242.12 1289.93,242.53 1294.26,242.91 1298.50,243.26 1302.65,243.60 1306.72,243.90 1310.73,244.18 1314.67,244.44 1318.54,244.67 1322.37,244.87 1326.15,245.05 1329.89,245.20 1333.59,245.33 1337.27,245.43 1340.92,245.51 1344.56,245.56 1348.19,245.58 1351.81,245.58 1355.44,245.56 1359.08,245.51 1362.73,245.43 1366.41,245.33 1370.11,245.20 1373.85,245.05 1377.63,244.87 1381.46,244.67 1385.33,244.44 1389.27,244.18 1393.28,243.90 1397.35,243.60 1401.50,243.26 1405.74,242.91 1410.07,242.53 1414.49,242.12 1419.02,241.68 1423.66,241.23 1428.41,240.74 1433.29,240.23 1438.29,239.70 1443.42,239.14 1448.70,238.55 1454.12,237.94" stroke="#c58a2d" stroke-width="2" fill="none" stroke-linejoin="round" stroke-linecap="round" /><polyline points="1297.94,185.88 1298.55,191.30 1299.14,196.58 1299.70,201.71 1300.23,206.71 1300.74,211.59 1301.23,216.34 1301.68,220.98 1302.12,225.51 1302.53,229.93 1302.91,234.26 1303.26,238.50 1303.60,242.65 1303.90,246.72 1304.18,250.73 1304.44,254.67 1304.67,258.54 1304.87,262.37 1305.05,266.15 1305.20,269.89 1305.33,273.59 1305.43,277.27 1305.51,280.92 1305.56,284.56 1305.58,288.19 1305.58,291.81 1305.56,295.44 1305.51,299.08 1305.43,302.73 1305.33,306.41 1305.20,310.11 1305.05,313.85 1304.87,317.63 1304.67,321.46 1304.44,325.33 1304.18,329.27 1303.90,333.28 1303.60,337.35 1303.26,341.50 1302.91,345.74 1302.53,350.07 1302.12,354.49 1301.68,359.02 1301.23,363.66 1300.74,368.41 1300.23,373.29 1299.70,378.29 1299.14,383.42 1298.55,388.70 1297.94,394.12" stroke="#c58a2d" stroke-width="2" fill="none" stroke-linejoin="round" stroke-linecap="round" /><polyline points="1249.70,290.00 1254.97,290.00 1260.09,290.00 1265.07,290.00 1269.91,290.00 1274.63,290.00 1279.23,290.00 1283.71,290.00 1288.08,290.00 1292.35,290.00 1296.52,290.00 1300.60,290.00 1304.60,290.00 1308.52,290.00 1312.37,290.00 1316.15,290.00 1319.87,290.00 1323.54,290.00 1327.16,290.00 1330.75,290.00 1334.29,290.00 1337.81,290.00 1341.31,290.00 1344.79,290.00 1348.27,290.00 1351.73,290.00 1355.21,290.00 1358.69,290.00 1362.19,290.00 1365.71,290.00 1369.25,290.00 1372.84,290.00 1376.46,290.00 1380.13,290.00 1383.85,290.00 1387.63,290.00 1391.48,290.00 1395.40,290.00 1399.40,290.00 1403.48,290.00 1407.65,290.00 1411.92,290.00 1416.29,290.00 1420.77,290.00 1425.37,290.00 1430.09,290.00 1434.93,290.00 1439.91,290.00 1445.03,290.00 1450.30,290.00" stroke="#c58a2d" stroke-width="2" fill="none" stroke-linejoin="round" stroke-linecap="round" /><polyline points="1350.00,189.70 1350.00,194.97 1350.00,200.09 1350.00,205.07 1350.00,209.91 1350.00,214.63 1350.00,219.23 1350.00,223.71 1350.00,228.08 1350.00,232.35 1350.00,236.52 1350.00,240.60 1350.00,244.60 1350.00,248.52 1350.00,252.37 1350.00,256.15 1350.00,259.87 1350.00,263.54 1350.00,267.16 1350.00,270.75 1350.00,274.29 1350.00,277.81 1350.00,281.31 1350.00,284.79 1350.00,288.27 1350.00,291.73 1350.00,295.21 1350.00,298.69 1350.00,302.19 1350.00,305.71 1350.00,309.25 1350.00,312.84 1350.00,316.46 1350.00,320.13 1350.00,323.85 1350.00,327.63 1350.00,331.48 1350.00,335.40 1350.00,339.40 1350.00,343.48 1350.00,347.65 1350.00,351.92 1350.00,356.29 1350.00,360.77 1350.00,365.37 1350.00,370.09 1350.00,374.93 1350.00,379.91 1350.00,385.03 1350.00,390.30" stroke="#c58a2d" stroke-width="2" fill="none" stroke-linejoin="round" stroke-linecap="round" /><polyline points="1245.88,342.06 1251.30,341.45 1256.58,340.86 1261.71,340.30 1266.71,339.77 1271.59,339.26 1276.34,338.77 1280.98,338.32 1285.51,337.88 1289.93,337.47 1294.26,337.09 1298.50,336.74 1302.65,336.40 1306.72,336.10 1310.73,335.82 1314.67,335.56 1318.54,335.33 1322.37,335.13 1326.15,334.95 1329.89,334.80 1333.59,334.67 1337.27,334.57 1340.92,334.49 1344.56,334.44 1348.19,334.42 1351.81,334.42 1355.44,334.44 1359.08,334.49 1362.73,334.57 1366.41,334.67 1370.11,334.80 1373.85,334.95 1377.63,335.13 1381.46,335.33 1385.33,335.56 1389.27,335.82 1393.28,336.10 1397.35,336.40 1401.50,336.74 1405.74,337.09 1410.07,337.47 1414.49,337.88 1419.02,338.32 1423.66,338.77 1428.41,339.26 1433.29,339.77 1438.29,340.30 1443.42,340.86 1448.70,341.45 1454.12,342.06" stroke="#c58a2d" stroke-width="2" fill="none" stroke-linejoin="round" stroke-linecap="round" /><polyline points="1402.06,185.88 1401.45,191.30 1400.86,196.58 1400.30,201.71 1399.77,206.71 1399.26,211.59 1398.77,216.34 1398.32,220.98 1397.88,225.51 1397.47,229.93 1397.09,234.26 1396.74,238.50 1396.40,242.65 1396.10,246.72 1395.82,250.73 1395.56,254.67 1395.33,258.54 1395.13,262.37 1394.95,266.15 1394.80,269.89 1394.67,273.59 1394.57,277.27 1394.49,280.92 1394.44,284.56 1394.42,288.19 1394.42,291.81 1394.44,295.44 1394.49,299.08 1394.57,302.73 1394.67,306.41 1394.80,310.11 1394.95,313.85 1395.13,317.63 1395.33,321.46 1395.56,325.33 1395.82,329.27 1396.10,333.28 1396.40,337.35 1396.74,341.50 1397.09,345.74 1397.47,350.07 1397.88,354.49 1398.32,359.02 1398.77,363.66 1399.26,368.41 1399.77,373.29 1400.30,378.29 1400.86,383.42 1401.45,388.70 1402.06,394.12" stroke="#c58a2d" stroke-width="2" fill="none" stroke-linejoin="round" stroke-linecap="round" /><polyline points="1234.40,405.60 1240.29,404.38 1246.04,403.20 1251.64,402.08 1257.11,401.01 1262.46,399.99 1267.68,399.02 1272.78,398.11 1277.78,397.24 1282.67,396.42 1287.47,395.66 1292.17,394.95 1296.79,394.28 1301.34,393.67 1305.81,393.11 1310.22,392.60 1314.56,392.14 1318.86,391.73 1323.10,391.38 1327.31,391.07 1331.48,390.82 1335.63,390.61 1339.75,390.46 1343.86,390.36 1347.95,390.31 1352.05,390.31 1356.14,390.36 1360.25,390.46 1364.37,390.61 1368.52,390.82 1372.69,391.07 1376.90,391.38 1381.14,391.73 1385.44,392.14 1389.78,392.60 1394.19,393.11 1398.66,393.67 1403.21,394.28 1407.83,394.95 1412.53,395.66 1417.33,396.42 1422.22,397.24 1427.22,398.11 1432.32,399.02 1437.54,399.99 1442.89,401.01 1448.36,402.08 1453.96,403.20 1459.71,404.38 1465.60,405.60" stroke="#c58a2d" stroke-width="2" fill="none" stroke-linejoin="round" stroke-linecap="round" /><polyline points="1465.60,174.40 1464.38,180.29 1463.20,186.04 1462.08,191.64 1461.01,197.11 1459.99,202.46 1459.02,207.68 1458.11,212.78 1457.24,217.78 1456.42,222.67 1455.66,227.47 1454.95,232.17 1454.28,236.79 1453.67,241.34 1453.11,245.81 1452.60,250.22 1452.14,254.56 1451.73,258.86 1451.38,263.10 1451.07,267.31 1450.82,271.48 1450.61,275.63 1450.46,279.75 1450.36,283.86 1450.31,287.95 1450.31,292.05 1450.36,296.14 1450.46,300.25 1450.61,304.37 1450.82,308.52 1451.07,312.69 1451.38,316.90 1451.73,321.14 1452.14,325.44 1452.60,329.78 1453.11,334.19 1453.67,338.66 1454.28,343.21 1454.95,347.83 1455.66,352.53 1456.42,357.33 1457.24,362.22 1458.11,367.22 1459.02,372.32 1459.99,377.54 1461.01,382.89 1462.08,388.36 1463.20,393.96 1464.38,399.71 1465.60,405.60" stroke="#c58a2d" stroke-width="2" fill="none" stroke-linejoin="round" stroke-linecap="round" /><text x="1350" y="455" text-anchor="middle" font-family="Source Han Sans SC, Microsoft YaHei, sans-serif" font-size="18" font-weight="400" fill="#486581">位置映射弯曲</text><text x="1350" y="530" text-anchor="middle" font-family="Source Han Sans SC, Microsoft YaHei, sans-serif" font-size="21" font-weight="700" fill="#c58a2d">h³ρ</text></svg>