<?xml version='1.0' encoding='utf-8'?>
<svg xmlns="http://www.w3.org/2000/svg" width="1500" height="690" viewBox="0 0 1500 690" role="img" aria-label="安全快门的概率解释与防抖档数"><defs><marker id="arrow-blue" markerWidth="10" markerHeight="8" refX="9" refY="4" orient="auto" markerUnits="strokeWidth"><path d="M 0 0 L 10 4 L 0 8 z" fill="#3b82b5" /></marker><marker id="arrow-dark" markerWidth="10" markerHeight="8" refX="9" refY="4" orient="auto" markerUnits="strokeWidth"><path d="M 0 0 L 10 4 L 0 8 z" fill="#334e68" /></marker><marker id="arrow-red" markerWidth="10" markerHeight="8" refX="9" refY="4" orient="auto" markerUnits="strokeWidth"><path d="M 0 0 L 10 4 L 0 8 z" fill="#c85b73" /></marker><marker id="arrow-green" markerWidth="10" markerHeight="8" refX="9" refY="4" orient="auto" markerUnits="strokeWidth"><path d="M 0 0 L 10 4 L 0 8 z" fill="#4d8c6a" /></marker><marker id="arrow-gold" markerWidth="10" markerHeight="8" refX="9" refY="4" orient="auto" markerUnits="strokeWidth"><path d="M 0 0 L 10 4 L 0 8 z" fill="#c58a2d" /></marker><marker id="arrow-purple" markerWidth="10" markerHeight="8" refX="9" refY="4" orient="auto" markerUnits="strokeWidth"><path d="M 0 0 L 10 4 L 0 8 z" fill="#7b4b74" /></marker></defs><rect width="1500" height="690" fill="#fbfdff" /><text x="750.0" y="43" text-anchor="middle" font-family="Source Han Sans SC, Microsoft YaHei, sans-serif" font-size="31" font-weight="700" fill="#102a43">“安全”不是分界线，而是模糊半径小于阈值的成功概率</text><line x1="750" y1="82" x2="750" y2="610" stroke="#d7e0e7" stroke-width="2" stroke-linecap="round" /><text x="375" y="92" text-anchor="middle" font-family="Source Han Sans SC, Microsoft YaHei, sans-serif" font-size="24" font-weight="700" fill="#285b7a">二维抖动位移分布</text><circle cx="375" cy="340" r="210" fill="#3b82b5" fill-opacity="0.07" /><circle cx="375" cy="340" r="165" fill="#3b82b5" fill-opacity="0.1" /><circle cx="375" cy="340" r="120" fill="#3b82b5" fill-opacity="0.16" /><circle cx="375" cy="340" r="75" fill="#3b82b5" fill-opacity="0.26" /><circle cx="375" cy="340" r="35" fill="#3b82b5" fill-opacity="0.48" /><circle cx="375" cy="340" r="105" fill="none" stroke="#c85b73" stroke-width="4" stroke-dasharray="10 7" /><text x="495" y="260" text-anchor="middle" font-family="Source Han Sans SC, Microsoft YaHei, sans-serif" font-size="18" font-weight="700" fill="#a24862">容许半径 c</text><line x1="375" y1="340" x2="473" y2="302" stroke="#c85b73" stroke-width="3" stroke-linecap="round" marker-end="url(#arrow-red)" /><text x="375" y="590" text-anchor="middle" font-family="Source Han Sans SC, Microsoft YaHei, sans-serif" font-size="20" font-weight="700" fill="#7b4b74">P(r≤c)=1−exp[−c²/(2σx²)]</text><text x="1125" y="92" text-anchor="middle" font-family="Source Han Sans SC, Microsoft YaHei, sans-serif" font-size="24" font-weight="700" fill="#397456">成功概率随曝光时间平滑下降</text><line x1="825" y1="535" x2="1420" y2="535" stroke="#334e68" stroke-width="2" stroke-linecap="round" marker-end="url(#arrow-dark)" /><line x1="825" y1="535" x2="825" y2="150" stroke="#334e68" stroke-width="2" stroke-linecap="round" marker-end="url(#arrow-dark)" /><line x1="825.0" y1="150" x2="825.0" y2="535" stroke="#e0e7ec" stroke-width="1.2" stroke-linecap="round" /><text x="825.0" y="568" text-anchor="middle" font-family="Source Han Sans SC, Microsoft YaHei, sans-serif" font-size="15" font-weight="400" fill="#627d98">1/1000</text><line x1="973.75" y1="150" x2="973.75" y2="535" stroke="#e0e7ec" stroke-width="1.2" stroke-linecap="round" /><text x="973.75" y="568" text-anchor="middle" font-family="Source Han Sans SC, Microsoft YaHei, sans-serif" font-size="15" font-weight="400" fill="#627d98">1/250</text><line x1="1122.5" y1="150" x2="1122.5" y2="535" stroke="#e0e7ec" stroke-width="1.2" stroke-linecap="round" /><text x="1122.5" y="568" text-anchor="middle" font-family="Source Han Sans SC, Microsoft YaHei, sans-serif" font-size="15" font-weight="400" fill="#627d98">1/60</text><line x1="1271.25" y1="150" x2="1271.25" y2="535" stroke="#e0e7ec" stroke-width="1.2" stroke-linecap="round" /><text x="1271.25" y="568" text-anchor="middle" font-family="Source Han Sans SC, Microsoft YaHei, sans-serif" font-size="15" font-weight="400" fill="#627d98">1/15</text><line x1="1420.0" y1="150" x2="1420.0" y2="535" stroke="#e0e7ec" stroke-width="1.2" stroke-linecap="round" /><text x="1420.0" y="568" text-anchor="middle" font-family="Source Han Sans SC, Microsoft YaHei, sans-serif" font-size="15" font-weight="400" fill="#627d98">1/4</text><line x1="825" y1="535" x2="1420" y2="535" stroke="#e0e7ec" stroke-width="1.2" stroke-linecap="round" /><text x="809" y="540" text-anchor="end" font-family="Source Han Sans SC, Microsoft YaHei, sans-serif" font-size="15" font-weight="400" fill="#627d98">0.00</text><line x1="825" y1="438.75" x2="1420" y2="438.75" stroke="#e0e7ec" stroke-width="1.2" stroke-linecap="round" /><text x="809" y="443.75" text-anchor="end" font-family="Source Han Sans SC, Microsoft YaHei, sans-serif" font-size="15" font-weight="400" fill="#627d98">0.25</text><line x1="825" y1="342.5" x2="1420" y2="342.5" stroke="#e0e7ec" stroke-width="1.2" stroke-linecap="round" /><text x="809" y="347.5" text-anchor="end" font-family="Source Han Sans SC, Microsoft YaHei, sans-serif" font-size="15" font-weight="400" fill="#627d98">0.50</text><line x1="825" y1="246.25" x2="1420" y2="246.25" stroke="#e0e7ec" stroke-width="1.2" stroke-linecap="round" /><text x="809" y="251.25" text-anchor="end" font-family="Source Han Sans SC, Microsoft YaHei, sans-serif" font-size="15" font-weight="400" fill="#627d98">0.75</text><line x1="825" y1="150.0" x2="1420" y2="150.0" stroke="#e0e7ec" stroke-width="1.2" stroke-linecap="round" /><text x="809" y="155.0" text-anchor="end" font-family="Source Han Sans SC, Microsoft YaHei, sans-serif" font-size="15" font-weight="400" fill="#627d98">1.00</text><polyline points="825.00,162.92 827.98,163.37 830.95,163.83 833.92,164.30 836.90,164.79 839.88,165.30 842.85,165.82 845.83,166.36 848.80,166.92 851.77,167.49 854.75,168.09 857.73,168.70 860.70,169.33 863.67,169.98 866.65,170.66 869.62,171.35 872.60,172.07 875.58,172.81 878.55,173.57 881.52,174.36 884.50,175.17 887.48,176.01 890.45,176.87 893.42,177.76 896.40,178.67 899.38,179.61 902.35,180.58 905.33,181.58 908.30,182.61 911.27,183.67 914.25,184.76 917.23,185.89 920.20,187.04 923.17,188.23 926.15,189.45 929.12,190.71 932.10,192.00 935.08,193.33 938.05,194.69 941.02,196.10 944.00,197.53 946.98,199.01 949.95,200.53 952.92,202.09 955.90,203.68 958.88,205.32 961.85,207.00 964.83,208.72 967.80,210.48 970.77,212.29 973.75,214.14 976.73,216.03 979.70,217.97 982.67,219.95 985.65,221.97 988.62,224.04 991.60,226.16 994.58,228.32 997.55,230.53 1000.52,232.78 1003.50,235.07 1006.48,237.42 1009.45,239.80 1012.42,242.24 1015.40,244.71 1018.38,247.24 1021.35,249.80 1024.33,252.41 1027.30,255.06 1030.28,257.76 1033.25,260.49 1036.22,263.27 1039.20,266.09 1042.17,268.95 1045.15,271.84 1048.12,274.78 1051.10,277.75 1054.08,280.75 1057.05,283.79 1060.03,286.86 1063.00,289.97 1065.97,293.10 1068.95,296.26 1071.92,299.45 1074.90,302.66 1077.88,305.89 1080.85,309.15 1083.83,312.43 1086.80,315.72 1089.78,319.04 1092.75,322.36 1095.72,325.70 1098.70,329.05 1101.67,332.40 1104.65,335.77 1107.62,339.13 1110.60,342.50 1113.58,345.87 1116.55,349.23 1119.53,352.60 1122.50,355.95 1125.47,359.30 1128.45,362.64 1131.42,365.96 1134.40,369.28 1137.38,372.57 1140.35,375.85 1143.33,379.11 1146.30,382.34 1149.28,385.55 1152.25,388.74 1155.22,391.90 1158.20,395.03 1161.17,398.14 1164.15,401.21 1167.12,404.25 1170.10,407.25 1173.08,410.22 1176.05,413.16 1179.03,416.05 1182.00,418.91 1184.97,421.73 1187.95,424.51 1190.92,427.24 1193.90,429.94 1196.88,432.59 1199.85,435.20 1202.83,437.76 1205.80,440.29 1208.78,442.76 1211.75,445.20 1214.72,447.58 1217.70,449.93 1220.67,452.22 1223.65,454.47 1226.62,456.68 1229.60,458.84 1232.58,460.96 1235.55,463.03 1238.53,465.05 1241.50,467.03 1244.47,468.97 1247.45,470.86 1250.42,472.71 1253.40,474.52 1256.38,476.28 1259.35,478.00 1262.33,479.68 1265.30,481.32 1268.28,482.91 1271.25,484.47 1274.22,485.99 1277.20,487.47 1280.17,488.90 1283.15,490.31 1286.12,491.67 1289.10,493.00 1292.08,494.29 1295.05,495.55 1298.03,496.77 1301.00,497.96 1303.97,499.11 1306.95,500.24 1309.92,501.33 1312.90,502.39 1315.88,503.42 1318.85,504.42 1321.83,505.39 1324.80,506.33 1327.78,507.24 1330.75,508.13 1333.72,508.99 1336.70,509.83 1339.67,510.64 1342.65,511.43 1345.62,512.19 1348.60,512.93 1351.58,513.65 1354.55,514.34 1357.53,515.02 1360.50,515.67 1363.47,516.30 1366.45,516.91 1369.43,517.51 1372.40,518.08 1375.38,518.64 1378.35,519.18 1381.33,519.70 1384.30,520.21 1387.28,520.70 1390.25,521.17 1393.22,521.63 1396.20,522.08 1399.17,522.51 1402.15,522.92 1405.12,523.33 1408.10,523.71 1411.08,524.09 1414.05,524.46 1417.03,524.81 1420.00,525.15" stroke="#c85b73" stroke-width="5" fill="none" stroke-linejoin="round" stroke-linecap="round" /><text x="1134.4" y="296.3" text-anchor="start" font-family="Source Han Sans SC, Microsoft YaHei, sans-serif" font-size="18" font-weight="700" fill="#c85b73">无防抖</text><polyline points="825.00,151.63 827.98,151.69 830.95,151.75 833.92,151.81 836.90,151.87 839.88,151.94 842.85,152.01 845.83,152.08 848.80,152.15 851.77,152.23 854.75,152.31 857.73,152.39 860.70,152.48 863.67,152.56 866.65,152.65 869.62,152.75 872.60,152.85 875.58,152.95 878.55,153.05 881.52,153.16 884.50,153.27 887.48,153.39 890.45,153.50 893.42,153.63 896.40,153.76 899.38,153.89 902.35,154.03 905.33,154.17 908.30,154.31 911.27,154.47 914.25,154.62 917.23,154.79 920.20,154.95 923.17,155.13 926.15,155.31 929.12,155.50 932.10,155.69 935.08,155.89 938.05,156.09 941.02,156.31 944.00,156.53 946.98,156.76 949.95,156.99 952.92,157.24 955.90,157.49 958.88,157.75 961.85,158.02 964.83,158.30 967.80,158.59 970.77,158.89 973.75,159.20 976.73,159.52 979.70,159.85 982.67,160.19 985.65,160.54 988.62,160.91 991.60,161.29 994.58,161.67 997.55,162.08 1000.52,162.49 1003.50,162.92 1006.48,163.37 1009.45,163.83 1012.42,164.30 1015.40,164.79 1018.38,165.30 1021.35,165.82 1024.33,166.36 1027.30,166.92 1030.28,167.49 1033.25,168.09 1036.22,168.70 1039.20,169.33 1042.17,169.98 1045.15,170.66 1048.12,171.35 1051.10,172.07 1054.08,172.81 1057.05,173.57 1060.03,174.36 1063.00,175.17 1065.97,176.01 1068.95,176.87 1071.92,177.76 1074.90,178.67 1077.88,179.61 1080.85,180.58 1083.83,181.58 1086.80,182.61 1089.78,183.67 1092.75,184.76 1095.72,185.89 1098.70,187.04 1101.67,188.23 1104.65,189.45 1107.62,190.71 1110.60,192.00 1113.58,193.33 1116.55,194.69 1119.53,196.10 1122.50,197.53 1125.47,199.01 1128.45,200.53 1131.42,202.09 1134.40,203.68 1137.38,205.32 1140.35,207.00 1143.33,208.72 1146.30,210.48 1149.28,212.29 1152.25,214.14 1155.22,216.03 1158.20,217.97 1161.17,219.95 1164.15,221.97 1167.12,224.04 1170.10,226.16 1173.08,228.32 1176.05,230.53 1179.03,232.78 1182.00,235.07 1184.97,237.42 1187.95,239.80 1190.92,242.24 1193.90,244.71 1196.88,247.24 1199.85,249.80 1202.83,252.41 1205.80,255.06 1208.78,257.76 1211.75,260.49 1214.72,263.27 1217.70,266.09 1220.67,268.95 1223.65,271.84 1226.62,274.78 1229.60,277.75 1232.58,280.75 1235.55,283.79 1238.53,286.86 1241.50,289.97 1244.47,293.10 1247.45,296.26 1250.42,299.45 1253.40,302.66 1256.38,305.89 1259.35,309.15 1262.33,312.43 1265.30,315.72 1268.28,319.04 1271.25,322.36 1274.22,325.70 1277.20,329.05 1280.17,332.40 1283.15,335.77 1286.12,339.13 1289.10,342.50 1292.08,345.87 1295.05,349.23 1298.03,352.60 1301.00,355.95 1303.97,359.30 1306.95,362.64 1309.92,365.96 1312.90,369.28 1315.88,372.57 1318.85,375.85 1321.83,379.11 1324.80,382.34 1327.78,385.55 1330.75,388.74 1333.72,391.90 1336.70,395.03 1339.67,398.14 1342.65,401.21 1345.62,404.25 1348.60,407.25 1351.58,410.22 1354.55,413.16 1357.53,416.05 1360.50,418.91 1363.47,421.73 1366.45,424.51 1369.43,427.24 1372.40,429.94 1375.38,432.59 1378.35,435.20 1381.33,437.76 1384.30,440.29 1387.28,442.76 1390.25,445.20 1393.22,447.58 1396.20,449.93 1399.17,452.22 1402.15,454.47 1405.12,456.68 1408.10,458.84 1411.08,460.96 1414.05,463.03 1417.03,465.05 1420.00,467.03" stroke="#4d8c6a" stroke-width="5" fill="none" stroke-linejoin="round" stroke-linecap="round" /><text x="1312.9" y="296.3" text-anchor="start" font-family="Source Han Sans SC, Microsoft YaHei, sans-serif" font-size="18" font-weight="700" fill="#4d8c6a">防抖后</text><line x1="825" y1="342.5" x2="1420" y2="342.5" stroke="#7b4b74" stroke-width="2" stroke-linecap="round" stroke-dasharray="8 6" /><text x="1420" y="330.5" text-anchor="end" font-family="Source Han Sans SC, Microsoft YaHei, sans-serif" font-size="16" font-weight="400" fill="#7b4b74">例如 50% 成功率</text><text x="1125" y="590" text-anchor="middle" font-family="Source Han Sans SC, Microsoft YaHei, sans-serif" font-size="19" font-weight="400" fill="#7b4b74">“若干档防抖”是同一成功率下可延长的时间倍率</text></svg>