<?xml version='1.0' encoding='utf-8'?>
<svg xmlns="http://www.w3.org/2000/svg" width="1500" height="760" viewBox="0 0 1500 760" role="img" aria-label="噪声与细节在局部变化中的重叠"><defs><marker id="arrow-blue" markerWidth="10" markerHeight="8" refX="9" refY="4" orient="auto" markerUnits="strokeWidth"><path d="M 0 0 L 10 4 L 0 8 z" fill="#3b82b5" /></marker><marker id="arrow-dark" markerWidth="10" markerHeight="8" refX="9" refY="4" orient="auto" markerUnits="strokeWidth"><path d="M 0 0 L 10 4 L 0 8 z" fill="#334e68" /></marker><marker id="arrow-red" markerWidth="10" markerHeight="8" refX="9" refY="4" orient="auto" markerUnits="strokeWidth"><path d="M 0 0 L 10 4 L 0 8 z" fill="#c85b73" /></marker><marker id="arrow-green" markerWidth="10" markerHeight="8" refX="9" refY="4" orient="auto" markerUnits="strokeWidth"><path d="M 0 0 L 10 4 L 0 8 z" fill="#4d8c6a" /></marker><marker id="arrow-gold" markerWidth="10" markerHeight="8" refX="9" refY="4" orient="auto" markerUnits="strokeWidth"><path d="M 0 0 L 10 4 L 0 8 z" fill="#c58a2d" /></marker><marker id="arrow-purple" markerWidth="10" markerHeight="8" refX="9" refY="4" orient="auto" markerUnits="strokeWidth"><path d="M 0 0 L 10 4 L 0 8 z" fill="#7b4b74" /></marker></defs><rect width="1500" height="760" fill="#fbfdff" /><text x="750" y="43" text-anchor="middle" font-family="Source Han Sans SC, Microsoft YaHei, sans-serif" font-size="30" font-weight="700" fill="#102a43">观测只有一组像素值：快速变化既可能是结构，也可能是噪声</text><rect x="65" y="115" width="275" height="475" rx="16" fill="#ffffff" stroke="#b9c7d3" stroke-width="2.5" /><text x="202.5" y="157" text-anchor="middle" font-family="Source Han Sans SC, Microsoft YaHei, sans-serif" font-size="20" font-weight="700" fill="#102a43">平坦区域</text><text x="202.5" y="191" text-anchor="middle" font-family="Source Han Sans SC, Microsoft YaHei, sans-serif" font-size="15" font-weight="400" fill="#486581">小幅起伏多半可平均</text><line x1="93" y1="500" x2="312" y2="500" stroke="#c7d4df" stroke-width="2" stroke-linecap="round" /><polyline points="93.00,396.80 96.65,375.96 100.30,361.80 103.95,375.34 107.60,370.48 111.25,393.52 114.90,376.04 118.55,378.13 122.20,359.52 125.85,370.37 129.50,372.83 133.15,382.87 136.80,384.38 140.45,372.72 144.10,354.12 147.75,399.31 151.40,412.09 155.05,344.51 158.70,349.80 162.35,363.21 166.00,367.14 169.65,378.04 173.30,377.35 176.95,389.17 180.60,363.71 184.25,375.17 187.90,399.61 191.55,379.53 195.20,380.06 198.85,381.47 202.50,344.79 206.15,356.88 209.80,417.13 213.45,365.29 217.10,357.08 220.75,353.45 224.40,360.86 228.05,400.51 231.70,359.68 235.35,371.15 239.00,351.27 242.65,365.42 246.30,393.45 249.95,345.59 253.60,389.02 257.25,356.14 260.90,365.88 264.55,379.95 268.20,404.32 271.85,384.43 275.50,385.14 279.15,374.74 282.80,375.15 286.45,349.06 290.10,366.14 293.75,355.44 297.40,388.68 301.05,378.45 304.70,359.03 308.35,358.24 312.00,362.38" stroke="#c85b73" stroke-width="3" fill="none" stroke-linejoin="round" stroke-linecap="round" /><polyline points="93.00,372.60 96.65,372.60 100.30,372.60 103.95,372.60 107.60,372.60 111.25,372.60 114.90,372.60 118.55,372.60 122.20,372.60 125.85,372.60 129.50,372.60 133.15,372.60 136.80,372.60 140.45,372.60 144.10,372.60 147.75,372.60 151.40,372.60 155.05,372.60 158.70,372.60 162.35,372.60 166.00,372.60 169.65,372.60 173.30,372.60 176.95,372.60 180.60,372.60 184.25,372.60 187.90,372.60 191.55,372.60 195.20,372.60 198.85,372.60 202.50,372.60 206.15,372.60 209.80,372.60 213.45,372.60 217.10,372.60 220.75,372.60 224.40,372.60 228.05,372.60 231.70,372.60 235.35,372.60 239.00,372.60 242.65,372.60 246.30,372.60 249.95,372.60 253.60,372.60 257.25,372.60 260.90,372.60 264.55,372.60 268.20,372.60 271.85,372.60 275.50,372.60 279.15,372.60 282.80,372.60 286.45,372.60 290.10,372.60 293.75,372.60 297.40,372.60 301.05,372.60 304.70,372.60 308.35,372.60 312.00,372.60" stroke="#3b82b5" stroke-width="5" fill="none" stroke-linejoin="round" stroke-linecap="round" /><text x="202" y="548" text-anchor="middle" font-family="Source Han Sans SC, Microsoft YaHei, sans-serif" font-size="14" font-weight="400" fill="#627d98">蓝：潜在信号　红：一次观测</text><rect x="430" y="115" width="275" height="475" rx="16" fill="#ffffff" stroke="#b9c7d3" stroke-width="2.5" /><text x="567.5" y="157" text-anchor="middle" font-family="Source Han Sans SC, Microsoft YaHei, sans-serif" font-size="20" font-weight="700" fill="#102a43">真实边缘</text><text x="567.5" y="191" text-anchor="middle" font-family="Source Han Sans SC, Microsoft YaHei, sans-serif" font-size="15" font-weight="400" fill="#486581">跨边平均会产生偏差</text><line x1="458" y1="500" x2="677" y2="500" stroke="#c7d4df" stroke-width="2" stroke-linecap="round" /><polyline points="458.00,436.24 461.65,443.30 465.30,410.40 468.95,439.15 472.60,435.56 476.25,412.99 479.90,430.27 483.55,438.55 487.20,421.30 490.85,433.60 494.50,415.94 498.15,432.65 501.80,440.81 505.45,402.51 509.10,416.67 512.75,429.50 516.40,432.61 520.05,446.83 523.70,437.99 527.35,446.06 531.00,421.16 534.65,417.14 538.30,435.08 541.95,437.05 545.60,426.82 549.25,431.46 552.90,425.10 556.55,425.54 560.20,426.53 563.85,423.92 567.50,442.86 571.15,300.51 574.80,332.23 578.45,307.59 582.10,312.16 585.75,304.55 589.40,311.08 593.05,306.13 596.70,329.79 600.35,315.06 604.00,318.27 607.65,304.76 611.30,306.79 614.95,314.27 618.60,315.10 622.25,317.38 625.90,310.64 629.55,304.13 633.20,301.01 636.85,310.90 640.50,321.48 644.15,318.85 647.80,300.96 651.45,321.42 655.10,313.32 658.75,336.05 662.40,299.14 666.05,308.81 669.70,316.85 673.35,311.87 677.00,302.41" stroke="#c85b73" stroke-width="3" fill="none" stroke-linejoin="round" stroke-linecap="round" /><polyline points="458.00,431.40 461.65,431.40 465.30,431.40 468.95,431.40 472.60,431.40 476.25,431.40 479.90,431.40 483.55,431.40 487.20,431.40 490.85,431.40 494.50,431.40 498.15,431.40 501.80,431.40 505.45,431.40 509.10,431.40 512.75,431.40 516.40,431.40 520.05,431.40 523.70,431.40 527.35,431.40 531.00,431.40 534.65,431.40 538.30,431.40 541.95,431.40 545.60,431.40 549.25,431.40 552.90,431.40 556.55,431.40 560.20,431.40 563.85,431.40 567.50,431.40 571.15,308.90 574.80,308.90 578.45,308.90 582.10,308.90 585.75,308.90 589.40,308.90 593.05,308.90 596.70,308.90 600.35,308.90 604.00,308.90 607.65,308.90 611.30,308.90 614.95,308.90 618.60,308.90 622.25,308.90 625.90,308.90 629.55,308.90 633.20,308.90 636.85,308.90 640.50,308.90 644.15,308.90 647.80,308.90 651.45,308.90 655.10,308.90 658.75,308.90 662.40,308.90 666.05,308.90 669.70,308.90 673.35,308.90 677.00,308.90" stroke="#3b82b5" stroke-width="5" fill="none" stroke-linejoin="round" stroke-linecap="round" /><text x="567" y="548" text-anchor="middle" font-family="Source Han Sans SC, Microsoft YaHei, sans-serif" font-size="14" font-weight="400" fill="#627d98">蓝：潜在信号　红：一次观测</text><rect x="795" y="115" width="275" height="475" rx="16" fill="#ffffff" stroke="#b9c7d3" stroke-width="2.5" /><text x="932.5" y="157" text-anchor="middle" font-family="Source Han Sans SC, Microsoft YaHei, sans-serif" font-size="20" font-weight="700" fill="#102a43">细密纹理</text><text x="932.5" y="191" text-anchor="middle" font-family="Source Han Sans SC, Microsoft YaHei, sans-serif" font-size="15" font-weight="400" fill="#486581">频率上可能像噪声</text><line x1="823" y1="500" x2="1042" y2="500" stroke="#c7d4df" stroke-width="2" stroke-linecap="round" /><polyline points="823.00,374.34 826.65,341.47 830.30,334.11 833.95,363.83 837.60,401.38 841.25,395.65 844.90,416.76 848.55,375.79 852.20,343.96 855.85,341.32 859.50,346.66 863.15,371.33 866.80,377.16 870.45,411.81 874.10,405.13 877.75,362.84 881.40,354.66 885.05,340.86 888.70,356.68 892.35,381.80 896.00,421.84 899.65,417.76 903.30,387.41 906.95,368.65 910.60,347.62 914.25,334.27 917.90,376.64 921.55,398.47 925.20,402.99 928.85,401.08 932.50,352.03 936.15,345.05 939.80,351.64 943.45,345.81 947.10,378.65 950.75,398.11 954.40,426.87 958.05,390.43 961.70,344.39 965.35,333.17 969.00,326.04 972.65,372.89 976.30,390.62 979.95,411.80 983.60,384.09 987.25,384.02 990.90,329.98 994.55,331.38 998.20,349.10 1001.85,388.55 1005.50,419.26 1009.15,427.22 1012.80,385.37 1016.45,367.87 1020.10,322.51 1023.75,333.73 1027.40,359.25 1031.05,382.95 1034.70,412.83 1038.35,391.62 1042.00,392.24" stroke="#c85b73" stroke-width="3" fill="none" stroke-linejoin="round" stroke-linecap="round" /><polyline points="823.00,372.60 826.65,343.47 830.30,333.61 833.95,349.56 837.60,380.75 841.25,406.55 844.90,409.88 848.55,388.54 852.20,356.66 855.85,335.32 859.50,338.65 863.15,364.45 866.80,395.64 870.45,411.59 874.10,401.73 877.75,372.60 881.40,343.47 885.05,333.61 888.70,349.56 892.35,380.75 896.00,406.55 899.65,409.88 903.30,388.54 906.95,356.66 910.60,335.32 914.25,338.65 917.90,364.45 921.55,395.64 925.20,411.59 928.85,401.73 932.50,372.60 936.15,343.47 939.80,333.61 943.45,349.56 947.10,380.75 950.75,406.55 954.40,409.88 958.05,388.54 961.70,356.66 965.35,335.32 969.00,338.65 972.65,364.45 976.30,395.64 979.95,411.59 983.60,401.73 987.25,372.60 990.90,343.47 994.55,333.61 998.20,349.56 1001.85,380.75 1005.50,406.55 1009.15,409.88 1012.80,388.54 1016.45,356.66 1020.10,335.32 1023.75,338.65 1027.40,364.45 1031.05,395.64 1034.70,411.59 1038.35,401.73 1042.00,372.60" stroke="#3b82b5" stroke-width="5" fill="none" stroke-linejoin="round" stroke-linecap="round" /><text x="932" y="548" text-anchor="middle" font-family="Source Han Sans SC, Microsoft YaHei, sans-serif" font-size="14" font-weight="400" fill="#627d98">蓝：潜在信号　红：一次观测</text><rect x="1160" y="115" width="275" height="475" rx="16" fill="#ffffff" stroke="#b9c7d3" stroke-width="2.5" /><text x="1297.5" y="157" text-anchor="middle" font-family="Source Han Sans SC, Microsoft YaHei, sans-serif" font-size="20" font-weight="700" fill="#102a43">低信噪比</text><text x="1297.5" y="191" text-anchor="middle" font-family="Source Han Sans SC, Microsoft YaHei, sans-serif" font-size="15" font-weight="400" fill="#486581">单帧中出现多种解释</text><line x1="1188" y1="500" x2="1407" y2="500" stroke="#c7d4df" stroke-width="2" stroke-linecap="round" /><polyline points="1188.00,392.28 1191.65,323.14 1195.30,360.57 1198.95,284.08 1202.60,345.18 1206.25,386.49 1209.90,302.31 1213.55,362.54 1217.20,386.65 1220.85,390.86 1224.50,425.68 1228.15,412.35 1231.80,364.06 1235.45,419.23 1239.10,389.55 1242.75,404.58 1246.40,361.52 1250.05,333.32 1253.70,328.32 1257.35,362.45 1261.00,382.05 1264.65,346.71 1268.30,331.92 1271.95,352.06 1275.60,276.79 1279.25,388.61 1282.90,418.84 1286.55,407.30 1290.20,350.44 1293.85,420.84 1297.50,379.42 1301.15,428.16 1304.80,364.07 1308.45,320.87 1312.10,306.89 1315.75,326.56 1319.40,316.54 1323.05,396.43 1326.70,313.21 1330.35,314.97 1334.00,460.60 1337.65,442.27 1341.30,365.99 1344.95,360.56 1348.60,328.65 1352.25,365.35 1355.90,403.37 1359.55,383.14 1363.20,289.85 1366.85,348.08 1370.50,421.64 1374.15,365.23 1377.80,339.14 1381.45,377.80 1385.10,361.48 1388.75,373.80 1392.40,396.08 1396.05,437.46 1399.70,388.90 1403.35,353.17 1407.00,397.02" stroke="#c85b73" stroke-width="3" fill="none" stroke-linejoin="round" stroke-linecap="round" /><polyline points="1188.00,372.60 1191.65,362.63 1195.30,354.39 1198.95,349.30 1202.60,348.23 1206.25,351.38 1209.90,358.20 1213.55,367.51 1217.20,377.69 1220.85,387.00 1224.50,393.82 1228.15,396.97 1231.80,395.90 1235.45,390.81 1239.10,382.57 1242.75,372.60 1246.40,362.63 1250.05,354.39 1253.70,349.30 1257.35,348.23 1261.00,351.38 1264.65,358.20 1268.30,367.51 1271.95,377.69 1275.60,387.00 1279.25,393.82 1282.90,396.97 1286.55,395.90 1290.20,390.81 1293.85,382.57 1297.50,372.60 1301.15,362.63 1304.80,354.39 1308.45,349.30 1312.10,348.23 1315.75,351.38 1319.40,358.20 1323.05,367.51 1326.70,377.69 1330.35,387.00 1334.00,393.82 1337.65,396.97 1341.30,395.90 1344.95,390.81 1348.60,382.57 1352.25,372.60 1355.90,362.63 1359.55,354.39 1363.20,349.30 1366.85,348.23 1370.50,351.38 1374.15,358.20 1377.80,367.51 1381.45,377.69 1385.10,387.00 1388.75,393.82 1392.40,396.97 1396.05,395.90 1399.70,390.81 1403.35,382.57 1407.00,372.60" stroke="#3b82b5" stroke-width="5" fill="none" stroke-linejoin="round" stroke-linecap="round" /><text x="1297" y="548" text-anchor="middle" font-family="Source Han Sans SC, Microsoft YaHei, sans-serif" font-size="14" font-weight="400" fill="#627d98">蓝：潜在信号　红：一次观测</text><rect x="210" y="635" width="1080" height="72" rx="16" fill="#fff7e8" stroke="#e8c77d" stroke-width="2.5" /><text x="750.0" y="677" text-anchor="middle" font-family="Source Han Sans SC, Microsoft YaHei, sans-serif" font-size="20" font-weight="700" fill="#8a5f19">仅凭单帧局部高频，算法不能无条件知道哪些起伏应删除</text><text x="750.0" y="711" text-anchor="middle" font-family="Source Han Sans SC, Microsoft YaHei, sans-serif" font-size="15" font-weight="400" fill="#486581">降噪必须引入平滑性、重复性、训练分布或多帧一致性等先验</text></svg>