<?xml version='1.0' encoding='utf-8'?>
<svg xmlns="http://www.w3.org/2000/svg" width="1500" height="620" viewBox="0 0 1500 620" role="img" aria-label="斜边法 MTF 处理流程"><defs><marker id="arrow-blue" markerWidth="10" markerHeight="8" refX="9" refY="4" orient="auto" markerUnits="strokeWidth"><path d="M 0 0 L 10 4 L 0 8 z" fill="#3b82b5" /></marker><marker id="arrow-red" markerWidth="10" markerHeight="8" refX="9" refY="4" orient="auto" markerUnits="strokeWidth"><path d="M 0 0 L 10 4 L 0 8 z" fill="#c85b73" /></marker><marker id="arrow-dark" markerWidth="10" markerHeight="8" refX="9" refY="4" orient="auto" markerUnits="strokeWidth"><path d="M 0 0 L 10 4 L 0 8 z" fill="#334e68" /></marker><marker id="arrow-green" markerWidth="10" markerHeight="8" refX="9" refY="4" orient="auto" markerUnits="strokeWidth"><path d="M 0 0 L 10 4 L 0 8 z" fill="#4d8c6a" /></marker></defs><rect width="1500" height="620" fill="#fbfdff" /><text x="750.0" y="42" text-anchor="middle" font-family="Source Han Sans SC, Microsoft YaHei, sans-serif" font-size="30" font-weight="700" fill="#102a43">斜边法：从亚像素边缘到频率响应</text><text x="170" y="95" text-anchor="middle" font-family="Source Han Sans SC, Microsoft YaHei, sans-serif" font-size="21" font-weight="700" fill="#486581">倾斜边缘 ROI</text><text x="520" y="95" text-anchor="middle" font-family="Source Han Sans SC, Microsoft YaHei, sans-serif" font-size="21" font-weight="700" fill="#3b82b5">ESF</text><text x="880" y="95" text-anchor="middle" font-family="Source Han Sans SC, Microsoft YaHei, sans-serif" font-size="21" font-weight="700" fill="#c85b73">LSF = d(ESF)/dx</text><text x="1240" y="95" text-anchor="middle" font-family="Source Han Sans SC, Microsoft YaHei, sans-serif" font-size="21" font-weight="700" fill="#4d8c6a">MTF = |F(LSF)|</text><rect x="70" y="145" width="200" height="330" fill="#f3f6f8" stroke="#8aa2b5" stroke-width="2" /><line x1="90.0" y1="145" x2="90.0" y2="475" stroke="#c9d4dd" stroke-width="1" stroke-linecap="round" /><line x1="110.0" y1="145" x2="110.0" y2="475" stroke="#c9d4dd" stroke-width="1" stroke-linecap="round" /><line x1="130.0" y1="145" x2="130.0" y2="475" stroke="#c9d4dd" stroke-width="1" stroke-linecap="round" /><line x1="150.0" y1="145" x2="150.0" y2="475" stroke="#c9d4dd" stroke-width="1" stroke-linecap="round" /><line x1="170.0" y1="145" x2="170.0" y2="475" stroke="#c9d4dd" stroke-width="1" stroke-linecap="round" /><line x1="190.0" y1="145" x2="190.0" y2="475" stroke="#c9d4dd" stroke-width="1" stroke-linecap="round" /><line x1="210.0" y1="145" x2="210.0" y2="475" stroke="#c9d4dd" stroke-width="1" stroke-linecap="round" /><line x1="230.0" y1="145" x2="230.0" y2="475" stroke="#c9d4dd" stroke-width="1" stroke-linecap="round" /><line x1="250.0" y1="145" x2="250.0" y2="475" stroke="#c9d4dd" stroke-width="1" stroke-linecap="round" /><line x1="70" y1="168.57142857142858" x2="270" y2="168.57142857142858" stroke="#c9d4dd" stroke-width="1" stroke-linecap="round" /><line x1="70" y1="192.14285714285714" x2="270" y2="192.14285714285714" stroke="#c9d4dd" stroke-width="1" stroke-linecap="round" /><line x1="70" y1="215.71428571428572" x2="270" y2="215.71428571428572" stroke="#c9d4dd" stroke-width="1" stroke-linecap="round" /><line x1="70" y1="239.28571428571428" x2="270" y2="239.28571428571428" stroke="#c9d4dd" stroke-width="1" stroke-linecap="round" /><line x1="70" y1="262.8571428571429" x2="270" y2="262.8571428571429" stroke="#c9d4dd" stroke-width="1" stroke-linecap="round" /><line x1="70" y1="286.42857142857144" x2="270" y2="286.42857142857144" stroke="#c9d4dd" stroke-width="1" stroke-linecap="round" /><line x1="70" y1="310.0" x2="270" y2="310.0" stroke="#c9d4dd" stroke-width="1" stroke-linecap="round" /><line x1="70" y1="333.57142857142856" x2="270" y2="333.57142857142856" stroke="#c9d4dd" stroke-width="1" stroke-linecap="round" /><line x1="70" y1="357.1428571428571" x2="270" y2="357.1428571428571" stroke="#c9d4dd" stroke-width="1" stroke-linecap="round" /><line x1="70" y1="380.7142857142857" x2="270" y2="380.7142857142857" stroke="#c9d4dd" stroke-width="1" stroke-linecap="round" /><line x1="70" y1="404.2857142857143" x2="270" y2="404.2857142857143" stroke="#c9d4dd" stroke-width="1" stroke-linecap="round" /><line x1="70" y1="427.85714285714283" x2="270" y2="427.85714285714283" stroke="#c9d4dd" stroke-width="1" stroke-linecap="round" /><line x1="70" y1="451.42857142857144" x2="270" y2="451.42857142857144" stroke="#c9d4dd" stroke-width="1" stroke-linecap="round" /><polygon points="70,475 270,475 270,215 70,285" fill="#263746" /><line x1="395" y1="470" x2="645" y2="470" stroke="#334e68" stroke-width="2" stroke-linecap="round" marker-end="url(#arrow-dark)" /><line x1="395" y1="470" x2="395" y2="160" stroke="#334e68" stroke-width="2" stroke-linecap="round" marker-end="url(#arrow-dark)" /><polyline points="395.00,469.95 396.40,469.95 397.79,469.94 399.19,469.94 400.59,469.93 401.98,469.92 403.38,469.92 404.78,469.91 406.17,469.90 407.57,469.89 408.97,469.88 410.36,469.86 411.76,469.85 413.16,469.83 414.55,469.82 415.95,469.80 417.35,469.77 418.74,469.75 420.14,469.73 421.54,469.70 422.93,469.67 424.33,469.63 425.73,469.59 427.12,469.55 428.52,469.51 429.92,469.46 431.31,469.40 432.71,469.34 434.11,469.27 435.50,469.19 436.90,469.11 438.30,469.02 439.69,468.92 441.09,468.81 442.49,468.68 443.88,468.55 445.28,468.40 446.68,468.23 448.07,468.05 449.47,467.85 450.87,467.63 452.26,467.39 453.66,467.12 455.06,466.83 456.45,466.50 457.85,466.15 459.25,465.76 460.64,465.32 462.04,464.85 463.44,464.33 464.83,463.75 466.23,463.12 467.63,462.43 469.02,461.66 470.42,460.83 471.82,459.91 473.21,458.91 474.61,457.81 476.01,456.60 477.40,455.28 478.80,453.84 480.20,452.27 481.59,450.55 482.99,448.68 484.39,446.64 485.78,444.43 487.18,442.02 488.58,439.42 489.97,436.60 491.37,433.55 492.77,430.27 494.16,426.74 495.56,422.95 496.96,418.89 498.35,414.55 499.75,409.93 501.15,405.03 502.54,399.83 503.94,394.35 505.34,388.59 506.73,382.55 508.13,376.25 509.53,369.69 510.92,362.91 512.32,355.92 513.72,348.74 515.11,341.41 516.51,333.95 517.91,326.41 519.30,318.81 520.70,311.19 522.09,303.59 523.49,296.05 524.89,288.59 526.28,281.26 527.68,274.08 529.08,267.09 530.47,260.31 531.87,253.75 533.27,247.45 534.66,241.41 536.06,235.65 537.46,230.17 538.85,224.97 540.25,220.07 541.65,215.45 543.04,211.11 544.44,207.05 545.84,203.26 547.23,199.73 548.63,196.45 550.03,193.40 551.42,190.58 552.82,187.98 554.22,185.57 555.61,183.36 557.01,181.32 558.41,179.45 559.80,177.73 561.20,176.16 562.60,174.72 563.99,173.40 565.39,172.19 566.79,171.09 568.18,170.09 569.58,169.17 570.98,168.34 572.37,167.57 573.77,166.88 575.17,166.25 576.56,165.67 577.96,165.15 579.36,164.68 580.75,164.24 582.15,163.85 583.55,163.50 584.94,163.17 586.34,162.88 587.74,162.61 589.13,162.37 590.53,162.15 591.93,161.95 593.32,161.77 594.72,161.60 596.12,161.45 597.51,161.32 598.91,161.19 600.31,161.08 601.70,160.98 603.10,160.89 604.50,160.81 605.89,160.73 607.29,160.66 608.69,160.60 610.08,160.54 611.48,160.49 612.88,160.45 614.27,160.41 615.67,160.37 617.07,160.33 618.46,160.30 619.86,160.27 621.26,160.25 622.65,160.23 624.05,160.20 625.45,160.18 626.84,160.17 628.24,160.15 629.64,160.14 631.03,160.12 632.43,160.11 633.83,160.10 635.22,160.09 636.62,160.08 638.02,160.08 639.41,160.07 640.81,160.06 642.21,160.06 643.60,160.05 645.00,160.05" stroke="#3b82b5" stroke-width="4" fill="none" stroke-linejoin="round" stroke-linecap="round" /><line x1="755" y1="470" x2="1005" y2="470" stroke="#334e68" stroke-width="2" stroke-linecap="round" marker-end="url(#arrow-dark)" /><line x1="755" y1="470" x2="755" y2="160" stroke="#334e68" stroke-width="2" stroke-linecap="round" marker-end="url(#arrow-dark)" /><polyline points="755.00,470.00 756.40,470.00 757.79,470.00 759.19,470.00 760.59,470.00 761.98,470.00 763.38,470.00 764.78,470.00 766.17,470.00 767.57,470.00 768.97,470.00 770.36,470.00 771.76,470.00 773.16,470.00 774.55,470.00 775.95,470.00 777.35,470.00 778.74,470.00 780.14,470.00 781.54,470.00 782.93,470.00 784.33,470.00 785.73,470.00 787.12,470.00 788.52,470.00 789.92,470.00 791.31,470.00 792.71,469.99 794.11,469.99 795.50,469.99 796.90,469.98 798.30,469.98 799.69,469.97 801.09,469.96 802.49,469.94 803.88,469.92 805.28,469.90 806.68,469.86 808.07,469.81 809.47,469.75 810.87,469.67 812.26,469.57 813.66,469.44 815.06,469.27 816.45,469.05 817.85,468.78 819.25,468.44 820.64,468.02 822.04,467.49 823.44,466.84 824.83,466.05 826.23,465.09 827.63,463.93 829.02,462.53 830.42,460.86 831.82,458.89 833.21,456.56 834.61,453.83 836.01,450.67 837.40,447.01 838.80,442.81 840.20,438.02 841.59,432.60 842.99,426.50 844.39,419.69 845.78,412.14 847.18,403.83 848.58,394.74 849.97,384.89 851.37,374.28 852.77,362.96 854.16,350.96 855.56,338.35 856.96,325.22 858.35,311.66 859.75,297.81 861.15,283.78 862.54,269.74 863.94,255.84 865.34,242.25 866.73,229.14 868.13,216.71 869.53,205.12 870.92,194.55 872.32,185.14 873.72,177.07 875.11,170.44 876.51,165.37 877.91,161.94 879.30,160.22 880.70,160.22 882.09,161.94 883.49,165.37 884.89,170.44 886.28,177.07 887.68,185.14 889.08,194.55 890.47,205.12 891.87,216.71 893.27,229.14 894.66,242.25 896.06,255.84 897.46,269.74 898.85,283.78 900.25,297.81 901.65,311.66 903.04,325.22 904.44,338.35 905.84,350.96 907.23,362.96 908.63,374.28 910.03,384.89 911.42,394.74 912.82,403.83 914.22,412.14 915.61,419.69 917.01,426.50 918.41,432.60 919.80,438.02 921.20,442.81 922.60,447.01 923.99,450.67 925.39,453.83 926.79,456.56 928.18,458.89 929.58,460.86 930.98,462.53 932.37,463.93 933.77,465.09 935.17,466.05 936.56,466.84 937.96,467.49 939.36,468.02 940.75,468.44 942.15,468.78 943.55,469.05 944.94,469.27 946.34,469.44 947.74,469.57 949.13,469.67 950.53,469.75 951.93,469.81 953.32,469.86 954.72,469.90 956.12,469.92 957.51,469.94 958.91,469.96 960.31,469.97 961.70,469.98 963.10,469.98 964.50,469.99 965.89,469.99 967.29,469.99 968.69,470.00 970.08,470.00 971.48,470.00 972.88,470.00 974.27,470.00 975.67,470.00 977.07,470.00 978.46,470.00 979.86,470.00 981.26,470.00 982.65,470.00 984.05,470.00 985.45,470.00 986.84,470.00 988.24,470.00 989.64,470.00 991.03,470.00 992.43,470.00 993.83,470.00 995.22,470.00 996.62,470.00 998.02,470.00 999.41,470.00 1000.81,470.00 1002.21,470.00 1003.60,470.00 1005.00,470.00" stroke="#c85b73" stroke-width="4" fill="none" stroke-linejoin="round" stroke-linecap="round" /><line x1="1115" y1="470" x2="1365" y2="470" stroke="#334e68" stroke-width="2" stroke-linecap="round" marker-end="url(#arrow-dark)" /><line x1="1115" y1="470" x2="1115" y2="160" stroke="#334e68" stroke-width="2" stroke-linecap="round" marker-end="url(#arrow-dark)" /><polyline points="1115.00,160.00 1116.40,160.07 1117.79,160.30 1119.19,160.67 1120.59,161.18 1121.98,161.84 1123.38,162.65 1124.78,163.61 1126.17,164.70 1127.57,165.94 1128.97,167.31 1130.36,168.83 1131.76,170.48 1133.16,172.26 1134.55,174.17 1135.95,176.21 1137.35,178.38 1138.74,180.67 1140.14,183.08 1141.54,185.60 1142.93,188.24 1144.33,190.98 1145.73,193.83 1147.12,196.78 1148.52,199.83 1149.92,202.97 1151.31,206.20 1152.71,209.52 1154.11,212.92 1155.50,216.39 1156.90,219.94 1158.30,223.56 1159.69,227.24 1161.09,230.98 1162.49,234.77 1163.88,238.61 1165.28,242.50 1166.68,246.43 1168.07,250.40 1169.47,254.40 1170.87,258.43 1172.26,262.48 1173.66,266.55 1175.06,270.64 1176.45,274.74 1177.85,278.84 1179.25,282.95 1180.64,287.06 1182.04,291.16 1183.44,295.26 1184.83,299.34 1186.23,303.40 1187.63,307.45 1189.02,311.48 1190.42,315.47 1191.82,319.44 1193.21,323.38 1194.61,327.28 1196.01,331.15 1197.40,334.97 1198.80,338.76 1200.20,342.49 1201.59,346.18 1202.99,349.83 1204.39,353.41 1205.78,356.95 1207.18,360.43 1208.58,363.86 1209.97,367.22 1211.37,370.53 1212.77,373.78 1214.16,376.96 1215.56,380.09 1216.96,383.15 1218.35,386.14 1219.75,389.07 1221.15,391.94 1222.54,394.74 1223.94,397.47 1225.34,400.14 1226.73,402.74 1228.13,405.28 1229.53,407.75 1230.92,410.15 1232.32,412.49 1233.72,414.77 1235.11,416.98 1236.51,419.12 1237.91,421.20 1239.30,423.22 1240.70,425.18 1242.09,427.08 1243.49,428.91 1244.89,430.69 1246.28,432.40 1247.68,434.06 1249.08,435.66 1250.47,437.21 1251.87,438.70 1253.27,440.14 1254.66,441.53 1256.06,442.86 1257.46,444.14 1258.85,445.38 1260.25,446.57 1261.65,447.71 1263.04,448.80 1264.44,449.85 1265.84,450.86 1267.23,451.83 1268.63,452.75 1270.03,453.64 1271.42,454.49 1272.82,455.30 1274.22,456.07 1275.61,456.82 1277.01,457.52 1278.41,458.20 1279.80,458.84 1281.20,459.46 1282.60,460.04 1283.99,460.60 1285.39,461.13 1286.79,461.63 1288.18,462.11 1289.58,462.57 1290.98,463.00 1292.37,463.41 1293.77,463.80 1295.17,464.17 1296.56,464.52 1297.96,464.85 1299.36,465.16 1300.75,465.46 1302.15,465.74 1303.55,466.00 1304.94,466.25 1306.34,466.49 1307.74,466.71 1309.13,466.92 1310.53,467.12 1311.93,467.31 1313.32,467.48 1314.72,467.65 1316.12,467.81 1317.51,467.95 1318.91,468.09 1320.31,468.22 1321.70,468.34 1323.10,468.45 1324.50,468.56 1325.89,468.66 1327.29,468.75 1328.69,468.84 1330.08,468.92 1331.48,469.00 1332.88,469.07 1334.27,469.14 1335.67,469.20 1337.07,469.26 1338.46,469.31 1339.86,469.36 1341.26,469.41 1342.65,469.45 1344.05,469.50 1345.45,469.53 1346.84,469.57 1348.24,469.60 1349.64,469.63 1351.03,469.66 1352.43,469.69 1353.83,469.71 1355.22,469.73 1356.62,469.76 1358.02,469.78 1359.41,469.79 1360.81,469.81 1362.21,469.83 1363.60,469.84 1365.00,469.85" stroke="#4d8c6a" stroke-width="4" fill="none" stroke-linejoin="round" stroke-linecap="round" /><line x1="285" y1="310" x2="390" y2="310" stroke="#627d98" stroke-width="3" stroke-linecap="round" marker-end="url(#arrow-dark)" /><text x="337.5" y="285" text-anchor="middle" font-family="Source Han Sans SC, Microsoft YaHei, sans-serif" font-size="17" font-weight="400" fill="#627d98">合箱/线性化</text><line x1="645" y1="310" x2="750" y2="310" stroke="#627d98" stroke-width="3" stroke-linecap="round" marker-end="url(#arrow-dark)" /><text x="697.5" y="285" text-anchor="middle" font-family="Source Han Sans SC, Microsoft YaHei, sans-serif" font-size="17" font-weight="400" fill="#627d98">求导</text><line x1="1005" y1="310" x2="1110" y2="310" stroke="#627d98" stroke-width="3" stroke-linecap="round" marker-end="url(#arrow-dark)" /><text x="1057.5" y="285" text-anchor="middle" font-family="Source Han Sans SC, Microsoft YaHei, sans-serif" font-size="17" font-weight="400" fill="#627d98">傅里叶变换</text><text x="750.0" y="565" text-anchor="middle" font-family="Source Han Sans SC, Microsoft YaHei, sans-serif" font-size="20" font-weight="400" fill="#7b4b74">锐化、gamma、去马赛克和噪声都会进入实测曲线</text></svg>