<?xml version='1.0' encoding='utf-8'?>
<svg xmlns="http://www.w3.org/2000/svg" width="1500" height="720" viewBox="0 0 1500 720" role="img" aria-label="光谱经三类响应函数积分成为三刺激值"><defs><marker id="arrow-blue" markerWidth="10" markerHeight="8" refX="9" refY="4" orient="auto" markerUnits="strokeWidth"><path d="M 0 0 L 10 4 L 0 8 z" fill="#3b82b5" /></marker><marker id="arrow-dark" markerWidth="10" markerHeight="8" refX="9" refY="4" orient="auto" markerUnits="strokeWidth"><path d="M 0 0 L 10 4 L 0 8 z" fill="#334e68" /></marker><marker id="arrow-red" markerWidth="10" markerHeight="8" refX="9" refY="4" orient="auto" markerUnits="strokeWidth"><path d="M 0 0 L 10 4 L 0 8 z" fill="#c85b73" /></marker><marker id="arrow-green" markerWidth="10" markerHeight="8" refX="9" refY="4" orient="auto" markerUnits="strokeWidth"><path d="M 0 0 L 10 4 L 0 8 z" fill="#4d8c6a" /></marker><marker id="arrow-gold" markerWidth="10" markerHeight="8" refX="9" refY="4" orient="auto" markerUnits="strokeWidth"><path d="M 0 0 L 10 4 L 0 8 z" fill="#c58a2d" /></marker><marker id="arrow-purple" markerWidth="10" markerHeight="8" refX="9" refY="4" orient="auto" markerUnits="strokeWidth"><path d="M 0 0 L 10 4 L 0 8 z" fill="#7b4b74" /></marker></defs><rect width="1500" height="720" fill="#fbfdff" /><text x="750.0" y="43" text-anchor="middle" font-family="Source Han Sans SC, Microsoft YaHei, sans-serif" font-size="31" font-weight="700" fill="#102a43">颜色测量把无限维光谱投影为三个线性响应</text><rect x="35" y="115" width="335" height="430" rx="16" fill="#f4f9fd" stroke="#9bc7ee" stroke-width="2.5" /><text x="202.5" y="157" text-anchor="middle" font-family="Source Han Sans SC, Microsoft YaHei, sans-serif" font-size="21" font-weight="700" fill="#285b7a">入眼光谱 s(λ)</text><text x="202.5" y="192" text-anchor="middle" font-family="Source Han Sans SC, Microsoft YaHei, sans-serif" font-size="16" font-weight="400" fill="#486581">物理量：随波长连续变化</text><line x1="75" y1="460" x2="335" y2="460" stroke="#334e68" stroke-width="2" stroke-linecap="round" marker-end="url(#arrow-dark)" /><line x1="75" y1="460" x2="75" y2="210" stroke="#334e68" stroke-width="2" stroke-linecap="round" marker-end="url(#arrow-dark)" /><text x="335" y="492" text-anchor="end" font-family="Source Han Sans SC, Microsoft YaHei, sans-serif" font-size="15" font-weight="400" fill="#627d98">λ</text><polyline points="75.00,423.40 76.62,422.86 78.25,422.25 79.88,421.59 81.50,420.85 83.12,420.05 84.75,419.17 86.38,418.21 88.00,417.17 89.62,416.03 91.25,414.81 92.88,413.49 94.50,412.07 96.12,410.56 97.75,408.93 99.38,407.21 101.00,405.37 102.62,403.43 104.25,401.39 105.88,399.24 107.50,396.98 109.12,394.63 110.75,392.18 112.38,389.65 114.00,387.03 115.62,384.33 117.25,381.56 118.88,378.74 120.50,375.86 122.12,372.95 123.75,370.02 125.38,367.07 127.00,364.12 128.62,361.20 130.25,358.30 131.88,355.45 133.50,352.67 135.12,349.97 136.75,347.36 138.38,344.86 140.00,342.50 141.62,340.27 143.25,338.20 144.88,336.31 146.50,334.60 148.12,333.08 149.75,331.78 151.38,330.68 153.00,329.81 154.62,329.18 156.25,328.77 157.88,328.60 159.50,328.68 161.12,328.99 162.75,329.53 164.38,330.31 166.00,331.31 167.62,332.53 169.25,333.97 170.88,335.60 172.50,337.42 174.12,339.42 175.75,341.58 177.38,343.89 179.00,346.33 180.62,348.89 182.25,351.55 183.88,354.29 185.50,357.10 187.12,359.96 188.75,362.86 190.38,365.76 192.00,368.67 193.62,371.56 195.25,374.42 196.88,377.22 198.50,379.96 200.12,382.61 201.75,385.17 203.38,387.61 205.00,389.93 206.62,392.10 208.25,394.11 209.88,395.94 211.50,397.59 213.12,399.03 214.75,400.25 216.38,401.24 218.00,401.98 219.62,402.46 221.25,402.67 222.88,402.61 224.50,402.26 226.12,401.62 227.75,400.69 229.38,399.48 231.00,397.99 232.62,396.23 234.25,394.22 235.88,391.98 237.50,389.55 239.12,386.95 240.75,384.22 242.38,381.40 244.00,378.54 245.62,375.69 247.25,372.90 248.88,370.23 250.50,367.72 252.12,365.42 253.75,363.39 255.38,361.66 257.00,360.28 258.62,359.27 260.25,358.66 261.88,358.48 263.50,358.71 265.12,359.38 266.75,360.45 268.38,361.93 270.00,363.77 271.62,365.96 273.25,368.45 274.88,371.20 276.50,374.16 278.12,377.30 279.75,380.55 281.38,383.87 283.00,387.22 284.62,390.55 286.25,393.82 287.88,397.00 289.50,400.06 291.12,402.97 292.75,405.72 294.38,408.29 296.00,410.66 297.62,412.84 299.25,414.82 300.88,416.60 302.50,418.20 304.12,419.62 305.75,420.86 307.38,421.95 309.00,422.90 310.62,423.71 312.25,424.40 313.88,424.98 315.50,425.48 317.12,425.89 318.75,426.23 320.38,426.51 322.00,426.74 323.62,426.92 325.25,427.07 326.88,427.19 328.50,427.28 330.12,427.36 331.75,427.42 333.38,427.46 335.00,427.49" stroke="#3b82b5" stroke-width="5" fill="none" stroke-linejoin="round" stroke-linecap="round" /><text x="205" y="510" text-anchor="middle" font-family="Source Han Sans SC, Microsoft YaHei, sans-serif" font-size="17" font-weight="700" fill="#7b4b74">一个函数：自由度远多于 3</text><line x1="375" y1="330" x2="435" y2="330" stroke="#3b82b5" stroke-width="4" stroke-linecap="round" marker-end="url(#arrow-blue)" /><rect x="440" y="115" width="420" height="430" rx="16" fill="#fffaf1" stroke="#e8c77d" stroke-width="2.5" /><text x="650.0" y="157" text-anchor="middle" font-family="Source Han Sans SC, Microsoft YaHei, sans-serif" font-size="21" font-weight="700" fill="#8a5f19">三类光谱灵敏度</text><text x="650.0" y="192" text-anchor="middle" font-family="Source Han Sans SC, Microsoft YaHei, sans-serif" font-size="16" font-weight="400" fill="#486581">L、M、S 锥体或等价配色函数</text><line x1="485" y1="455" x2="820" y2="455" stroke="#334e68" stroke-width="2" stroke-linecap="round" marker-end="url(#arrow-dark)" /><line x1="485" y1="455" x2="485" y2="220" stroke="#334e68" stroke-width="2" stroke-linecap="round" marker-end="url(#arrow-dark)" /><text x="820" y="487" text-anchor="end" font-family="Source Han Sans SC, Microsoft YaHei, sans-serif" font-size="15" font-weight="400" fill="#627d98">λ</text><polyline points="485.00,454.87 487.23,454.85 489.47,454.83 491.70,454.80 493.93,454.78 496.17,454.74 498.40,454.71 500.63,454.67 502.87,454.63 505.10,454.58 507.33,454.53 509.57,454.47 511.80,454.40 514.03,454.32 516.27,454.24 518.50,454.15 520.73,454.04 522.97,453.93 525.20,453.80 527.43,453.67 529.67,453.51 531.90,453.34 534.13,453.16 536.37,452.95 538.60,452.73 540.83,452.48 543.07,452.21 545.30,451.92 547.53,451.60 549.77,451.25 552.00,450.86 554.23,450.45 556.47,450.00 558.70,449.51 560.93,448.99 563.17,448.42 565.40,447.80 567.63,447.14 569.87,446.43 572.10,445.66 574.33,444.84 576.57,443.96 578.80,443.02 581.03,442.01 583.27,440.94 585.50,439.80 587.73,438.58 589.97,437.29 592.20,435.92 594.43,434.47 596.67,432.93 598.90,431.32 601.13,429.61 603.37,427.81 605.60,425.93 607.83,423.95 610.07,421.88 612.30,419.71 614.53,417.44 616.77,415.08 619.00,412.63 621.23,410.08 623.47,407.43 625.70,404.69 627.93,401.85 630.17,398.93 632.40,395.92 634.63,392.82 636.87,389.64 639.10,386.39 641.33,383.06 643.57,379.66 645.80,376.19 648.03,372.67 650.27,369.10 652.50,365.48 654.73,361.83 656.97,358.14 659.20,354.44 661.43,350.72 663.67,347.00 665.90,343.28 668.13,339.57 670.37,335.89 672.60,332.24 674.83,328.64 677.07,325.09 679.30,321.60 681.53,318.20 683.77,314.87 686.00,311.64 688.23,308.52 690.47,305.51 692.70,302.63 694.93,299.89 697.17,297.29 699.40,294.84 701.63,292.56 703.87,290.45 706.10,288.51 708.33,286.76 710.57,285.20 712.80,283.84 715.03,282.67 717.27,281.72 719.50,280.97 721.73,280.43 723.97,280.11 726.20,280.00 728.43,280.11 730.67,280.43 732.90,280.97 735.13,281.72 737.37,282.67 739.60,283.84 741.83,285.20 744.07,286.76 746.30,288.51 748.53,290.45 750.77,292.56 753.00,294.84 755.23,297.29 757.47,299.89 759.70,302.63 761.93,305.51 764.17,308.52 766.40,311.64 768.63,314.87 770.87,318.20 773.10,321.60 775.33,325.09 777.57,328.64 779.80,332.24 782.03,335.89 784.27,339.57 786.50,343.28 788.73,347.00 790.97,350.72 793.20,354.44 795.43,358.14 797.67,361.83 799.90,365.48 802.13,369.10 804.37,372.67 806.60,376.19 808.83,379.66 811.07,383.06 813.30,386.39 815.53,389.64 817.77,392.82 820.00,395.92" stroke="#c85b73" stroke-width="4" fill="none" stroke-linejoin="round" stroke-linecap="round" /><text x="726.2" y="265" text-anchor="middle" font-family="Source Han Sans SC, Microsoft YaHei, sans-serif" font-size="18" font-weight="700" fill="#c85b73">L</text><polyline points="485.00,454.07 487.23,453.94 489.47,453.80 491.70,453.64 493.93,453.47 496.17,453.27 498.40,453.06 500.63,452.81 502.87,452.55 505.10,452.25 507.33,451.93 509.57,451.57 511.80,451.17 514.03,450.73 516.27,450.26 518.50,449.73 520.73,449.16 522.97,448.54 525.20,447.86 527.43,447.12 529.67,446.32 531.90,445.45 534.13,444.51 536.37,443.50 538.60,442.41 540.83,441.23 543.07,439.97 545.30,438.62 547.53,437.17 549.77,435.63 552.00,433.98 554.23,432.23 556.47,430.37 558.70,428.41 560.93,426.32 563.17,424.13 565.40,421.81 567.63,419.38 569.87,416.83 572.10,414.16 574.33,411.36 576.57,408.45 578.80,405.42 581.03,402.28 583.27,399.02 585.50,395.65 587.73,392.17 589.97,388.60 592.20,384.93 594.43,381.16 596.67,377.32 598.90,373.40 601.13,369.42 603.37,365.38 605.60,361.29 607.83,357.17 610.07,353.02 612.30,348.86 614.53,344.70 616.77,340.55 619.00,336.43 621.23,332.35 623.47,328.32 625.70,324.37 627.93,320.49 630.17,316.72 632.40,313.05 634.63,309.52 636.87,306.12 639.10,302.88 641.33,299.81 643.57,296.92 645.80,294.22 648.03,291.73 650.27,289.46 652.50,287.41 654.73,285.59 656.97,284.02 659.20,282.70 661.43,281.64 663.67,280.84 665.90,280.30 668.13,280.03 670.37,280.03 672.60,280.30 674.83,280.84 677.07,281.64 679.30,282.70 681.53,284.02 683.77,285.59 686.00,287.41 688.23,289.46 690.47,291.73 692.70,294.22 694.93,296.92 697.17,299.81 699.40,302.88 701.63,306.12 703.87,309.52 706.10,313.05 708.33,316.72 710.57,320.49 712.80,324.37 715.03,328.32 717.27,332.35 719.50,336.43 721.73,340.55 723.97,344.70 726.20,348.86 728.43,353.02 730.67,357.17 732.90,361.29 735.13,365.38 737.37,369.42 739.60,373.40 741.83,377.32 744.07,381.16 746.30,384.93 748.53,388.60 750.77,392.17 753.00,395.65 755.23,399.02 757.47,402.28 759.70,405.42 761.93,408.45 764.17,411.36 766.40,414.16 768.63,416.83 770.87,419.38 773.10,421.81 775.33,424.13 777.57,426.32 779.80,428.41 782.03,430.37 784.27,432.23 786.50,433.98 788.73,435.63 790.97,437.17 793.20,438.62 795.43,439.97 797.67,441.23 799.90,442.41 802.13,443.50 804.37,444.51 806.60,445.45 808.83,446.32 811.07,447.12 813.30,447.86 815.53,448.54 817.77,449.16 820.00,449.73" stroke="#4d8c6a" stroke-width="4" fill="none" stroke-linejoin="round" stroke-linecap="round" /><text x="669.25" y="265" text-anchor="middle" font-family="Source Han Sans SC, Microsoft YaHei, sans-serif" font-size="18" font-weight="700" fill="#4d8c6a">M</text><polyline points="485.00,435.02 487.23,432.60 489.47,429.97 491.70,427.12 493.93,424.03 496.17,420.71 498.40,417.15 500.63,413.35 502.87,409.31 505.10,405.04 507.33,400.53 509.57,395.79 511.80,390.84 514.03,385.70 516.27,380.37 518.50,374.88 520.73,369.25 522.97,363.51 525.20,357.68 527.43,351.80 529.67,345.91 531.90,340.03 534.13,334.21 536.37,328.49 538.60,322.90 540.83,317.50 543.07,312.31 545.30,307.38 547.53,302.75 549.77,298.46 552.00,294.55 554.23,291.05 556.47,287.98 558.70,285.38 560.93,283.28 563.17,281.68 565.40,280.61 567.63,280.07 569.87,280.07 572.10,280.61 574.33,281.68 576.57,283.28 578.80,285.38 581.03,287.98 583.27,291.05 585.50,294.55 587.73,298.46 589.97,302.75 592.20,307.38 594.43,312.31 596.67,317.50 598.90,322.90 601.13,328.49 603.37,334.21 605.60,340.03 607.83,345.91 610.07,351.80 612.30,357.68 614.53,363.51 616.77,369.25 619.00,374.88 621.23,380.37 623.47,385.70 625.70,390.84 627.93,395.79 630.17,400.53 632.40,405.04 634.63,409.31 636.87,413.35 639.10,417.15 641.33,420.71 643.57,424.03 645.80,427.12 648.03,429.97 650.27,432.60 652.50,435.02 654.73,437.23 656.97,439.25 659.20,441.08 661.43,442.73 663.67,444.22 665.90,445.56 668.13,446.76 670.37,447.83 672.60,448.78 674.83,449.62 677.07,450.36 679.30,451.01 681.53,451.58 683.77,452.08 686.00,452.51 688.23,452.89 690.47,453.21 692.70,453.49 694.93,453.73 697.17,453.94 699.40,454.11 701.63,454.26 703.87,454.38 706.10,454.49 708.33,454.58 710.57,454.65 712.80,454.72 715.03,454.77 717.27,454.81 719.50,454.85 721.73,454.87 723.97,454.90 726.20,454.92 728.43,454.93 730.67,454.95 732.90,454.96 735.13,454.97 737.37,454.97 739.60,454.98 741.83,454.98 744.07,454.99 746.30,454.99 748.53,454.99 750.77,454.99 753.00,455.00 755.23,455.00 757.47,455.00 759.70,455.00 761.93,455.00 764.17,455.00 766.40,455.00 768.63,455.00 770.87,455.00 773.10,455.00 775.33,455.00 777.57,455.00 779.80,455.00 782.03,455.00 784.27,455.00 786.50,455.00 788.73,455.00 790.97,455.00 793.20,455.00 795.43,455.00 797.67,455.00 799.90,455.00 802.13,455.00 804.37,455.00 806.60,455.00 808.83,455.00 811.07,455.00 813.30,455.00 815.53,455.00 817.77,455.00 820.00,455.00" stroke="#3b82b5" stroke-width="4" fill="none" stroke-linejoin="round" stroke-linecap="round" /><text x="568.75" y="265" text-anchor="middle" font-family="Source Han Sans SC, Microsoft YaHei, sans-serif" font-size="18" font-weight="700" fill="#3b82b5">S</text><text x="650" y="510" text-anchor="middle" font-family="Source Han Sans SC, Microsoft YaHei, sans-serif" font-size="17" font-weight="700" fill="#7b4b74">每个响应 = ∫s(λ)qᵢ(λ)dλ</text><line x1="865" y1="330" x2="925" y2="330" stroke="#3b82b5" stroke-width="4" stroke-linecap="round" marker-end="url(#arrow-blue)" /><rect x="930" y="115" width="250" height="430" rx="16" fill="#edf8f2" stroke="#9fd6b7" stroke-width="2.5" /><text x="1055.0" y="157" text-anchor="middle" font-family="Source Han Sans SC, Microsoft YaHei, sans-serif" font-size="21" font-weight="700" fill="#397456">三刺激向量</text><text x="1055.0" y="192" text-anchor="middle" font-family="Source Han Sans SC, Microsoft YaHei, sans-serif" font-size="16" font-weight="400" fill="#486581">只保留三个内积</text><circle cx="1005" cy="245" r="24" fill="#c85b73" fill-opacity="0.22" stroke="#c85b73" stroke-width="3" /><text x="1005" y="252" text-anchor="middle" font-family="Source Han Sans SC, Microsoft YaHei, sans-serif" font-size="22" font-weight="700" fill="#c85b73">L</text><text x="1060" y="251" text-anchor="start" font-family="Source Han Sans SC, Microsoft YaHei, sans-serif" font-size="18" font-weight="400" fill="#486581">t1</text><circle cx="1005" cy="337" r="24" fill="#4d8c6a" fill-opacity="0.22" stroke="#4d8c6a" stroke-width="3" /><text x="1005" y="344" text-anchor="middle" font-family="Source Han Sans SC, Microsoft YaHei, sans-serif" font-size="22" font-weight="700" fill="#4d8c6a">M</text><text x="1060" y="343" text-anchor="start" font-family="Source Han Sans SC, Microsoft YaHei, sans-serif" font-size="18" font-weight="400" fill="#486581">t2</text><circle cx="1005" cy="429" r="24" fill="#3b82b5" fill-opacity="0.22" stroke="#3b82b5" stroke-width="3" /><text x="1005" y="436" text-anchor="middle" font-family="Source Han Sans SC, Microsoft YaHei, sans-serif" font-size="22" font-weight="700" fill="#3b82b5">S</text><text x="1060" y="435" text-anchor="start" font-family="Source Han Sans SC, Microsoft YaHei, sans-serif" font-size="18" font-weight="400" fill="#486581">t3</text><line x1="1185" y1="330" x2="1245" y2="330" stroke="#3b82b5" stroke-width="4" stroke-linecap="round" marker-end="url(#arrow-blue)" /><rect x="1250" y="115" width="215" height="430" rx="16" fill="#f7efff" stroke="#c9a9e8" stroke-width="2.5" /><text x="1357.5" y="157" text-anchor="middle" font-family="Source Han Sans SC, Microsoft YaHei, sans-serif" font-size="21" font-weight="700" fill="#7b4b74">坐标变换</text><text x="1357.5" y="192" text-anchor="middle" font-family="Source Han Sans SC, Microsoft YaHei, sans-serif" font-size="16" font-weight="400" fill="#486581">LMS ↔ XYZ ↔ RGB</text><text x="1357" y="270" text-anchor="middle" font-family="Source Han Sans SC, Microsoft YaHei, sans-serif" font-size="25" font-weight="700" fill="#7b4b74">[X Y Z]ᵀ</text><line x1="1300" y1="305" x2="1415" y2="305" stroke="#9a79b1" stroke-width="2" stroke-linecap="round" /><text x="1357" y="355" text-anchor="middle" font-family="Source Han Sans SC, Microsoft YaHei, sans-serif" font-size="17" font-weight="400" fill="#486581">x = X/(X+Y+Z)</text><text x="1357" y="395" text-anchor="middle" font-family="Source Han Sans SC, Microsoft YaHei, sans-serif" font-size="17" font-weight="400" fill="#486581">y = Y/(X+Y+Z)</text><text x="1357" y="475" text-anchor="middle" font-family="Source Han Sans SC, Microsoft YaHei, sans-serif" font-size="15" font-weight="400" fill="#a24862">尺度被色度归一化消去</text><rect x="130" y="605" width="1240" height="72" rx="16" fill="#eef5fb" stroke="#a8c8e0" stroke-width="2.5" /><text x="750.0" y="647" text-anchor="middle" font-family="Source Han Sans SC, Microsoft YaHei, sans-serif" font-size="21" font-weight="700" fill="#285b7a">tᵢ = k∫s(λ)qᵢ(λ)dλ：投影是线性的；XYZ 不是新的光谱，而是同一三维响应空间的一组坐标</text></svg>