<?xml version='1.0' encoding='utf-8'?>
<svg xmlns="http://www.w3.org/2000/svg" width="1500" height="680" viewBox="0 0 1500 680" role="img" aria-label="光学和机身防抖的闭环与频率响应"><defs><marker id="arrow-blue" markerWidth="10" markerHeight="8" refX="9" refY="4" orient="auto" markerUnits="strokeWidth"><path d="M 0 0 L 10 4 L 0 8 z" fill="#3b82b5" /></marker><marker id="arrow-dark" markerWidth="10" markerHeight="8" refX="9" refY="4" orient="auto" markerUnits="strokeWidth"><path d="M 0 0 L 10 4 L 0 8 z" fill="#334e68" /></marker><marker id="arrow-red" markerWidth="10" markerHeight="8" refX="9" refY="4" orient="auto" markerUnits="strokeWidth"><path d="M 0 0 L 10 4 L 0 8 z" fill="#c85b73" /></marker><marker id="arrow-green" markerWidth="10" markerHeight="8" refX="9" refY="4" orient="auto" markerUnits="strokeWidth"><path d="M 0 0 L 10 4 L 0 8 z" fill="#4d8c6a" /></marker><marker id="arrow-gold" markerWidth="10" markerHeight="8" refX="9" refY="4" orient="auto" markerUnits="strokeWidth"><path d="M 0 0 L 10 4 L 0 8 z" fill="#c58a2d" /></marker><marker id="arrow-purple" markerWidth="10" markerHeight="8" refX="9" refY="4" orient="auto" markerUnits="strokeWidth"><path d="M 0 0 L 10 4 L 0 8 z" fill="#7b4b74" /></marker></defs><rect width="1500" height="680" fill="#fbfdff" /><text x="750.0" y="43" text-anchor="middle" font-family="Source Han Sans SC, Microsoft YaHei, sans-serif" font-size="31" font-weight="700" fill="#102a43">防抖降低有限频带内的相机姿态方差，不会改变主体自身运动</text><rect x="35" y="120" width="250" height="125" rx="16" fill="#fff0f3" stroke="#eab0be" stroke-width="2.5" /><text x="160.0" y="163" text-anchor="middle" font-family="Source Han Sans SC, Microsoft YaHei, sans-serif" font-size="21" font-weight="700" fill="#102a43">手部角运动</text><text x="160.0" y="198" text-anchor="middle" font-family="Source Han Sans SC, Microsoft YaHei, sans-serif" font-size="16" font-weight="400" fill="#486581">θhand(t)</text><rect x="330" y="120" width="250" height="125" rx="16" fill="#eaf4ff" stroke="#9bc7ee" stroke-width="2.5" /><text x="455.0" y="163" text-anchor="middle" font-family="Source Han Sans SC, Microsoft YaHei, sans-serif" font-size="21" font-weight="700" fill="#102a43">陀螺仪</text><text x="455.0" y="198" text-anchor="middle" font-family="Source Han Sans SC, Microsoft YaHei, sans-serif" font-size="16" font-weight="400" fill="#486581">测角速度 + 传感噪声</text><rect x="625" y="120" width="250" height="125" rx="16" fill="#f7efff" stroke="#c9a9e8" stroke-width="2.5" /><text x="750.0" y="163" text-anchor="middle" font-family="Source Han Sans SC, Microsoft YaHei, sans-serif" font-size="21" font-weight="700" fill="#102a43">控制器</text><text x="750.0" y="198" text-anchor="middle" font-family="Source Han Sans SC, Microsoft YaHei, sans-serif" font-size="16" font-weight="400" fill="#486581">带宽 · 延迟 · 预测</text><rect x="920" y="120" width="250" height="125" rx="16" fill="#edf8f2" stroke="#9fd6b7" stroke-width="2.5" /><text x="1045.0" y="163" text-anchor="middle" font-family="Source Han Sans SC, Microsoft YaHei, sans-serif" font-size="21" font-weight="700" fill="#102a43">执行器</text><text x="1045.0" y="198" text-anchor="middle" font-family="Source Han Sans SC, Microsoft YaHei, sans-serif" font-size="16" font-weight="400" fill="#486581">OIS 镜组 / IBIS 传感器</text><rect x="1215" y="120" width="250" height="125" rx="16" fill="#fff7e8" stroke="#e8c77d" stroke-width="2.5" /><text x="1340.0" y="163" text-anchor="middle" font-family="Source Han Sans SC, Microsoft YaHei, sans-serif" font-size="21" font-weight="700" fill="#102a43">残余轨迹</text><text x="1340.0" y="198" text-anchor="middle" font-family="Source Han Sans SC, Microsoft YaHei, sans-serif" font-size="16" font-weight="400" fill="#486581">θres(t)</text><line x1="285" y1="182" x2="323" y2="182" stroke="#527da3" stroke-width="3" stroke-linecap="round" marker-end="url(#arrow-blue)" /><line x1="580" y1="182" x2="618" y2="182" stroke="#527da3" stroke-width="3" stroke-linecap="round" marker-end="url(#arrow-blue)" /><line x1="875" y1="182" x2="913" y2="182" stroke="#527da3" stroke-width="3" stroke-linecap="round" marker-end="url(#arrow-blue)" /><line x1="1170" y1="182" x2="1208" y2="182" stroke="#527da3" stroke-width="3" stroke-linecap="round" marker-end="url(#arrow-blue)" /><text x="400" y="315" text-anchor="middle" font-family="Source Han Sans SC, Microsoft YaHei, sans-serif" font-size="22" font-weight="700" fill="#285b7a">闭环灵敏度 |S(jω)|</text><line x1="100" y1="585" x2="700" y2="585" stroke="#334e68" stroke-width="2" stroke-linecap="round" marker-end="url(#arrow-dark)" /><line x1="100" y1="585" x2="100" y2="360" stroke="#334e68" stroke-width="2" stroke-linecap="round" marker-end="url(#arrow-dark)" /><polyline points="100.00,566.98 103.00,566.98 106.00,566.98 109.00,566.98 112.00,566.97 115.00,566.97 118.00,566.97 121.00,566.97 124.00,566.96 127.00,566.96 130.00,566.96 133.00,566.95 136.00,566.95 139.00,566.95 142.00,566.94 145.00,566.94 148.00,566.93 151.00,566.92 154.00,566.92 157.00,566.91 160.00,566.90 163.00,566.90 166.00,566.89 169.00,566.88 172.00,566.87 175.00,566.86 178.00,566.85 181.00,566.83 184.00,566.82 187.00,566.80 190.00,566.79 193.00,566.77 196.00,566.75 199.00,566.73 202.00,566.71 205.00,566.68 208.00,566.66 211.00,566.63 214.00,566.60 217.00,566.56 220.00,566.53 223.00,566.49 226.00,566.45 229.00,566.40 232.00,566.35 235.00,566.30 238.00,566.24 241.00,566.17 244.00,566.11 247.00,566.03 250.00,565.95 253.00,565.86 256.00,565.77 259.00,565.67 262.00,565.56 265.00,565.44 268.00,565.31 271.00,565.17 274.00,565.02 277.00,564.86 280.00,564.68 283.00,564.49 286.00,564.28 289.00,564.06 292.00,563.82 295.00,563.56 298.00,563.28 301.00,562.97 304.00,562.64 307.00,562.29 310.00,561.91 313.00,561.49 316.00,561.05 319.00,560.57 322.00,560.05 325.00,559.49 328.00,558.89 331.00,558.25 334.00,557.55 337.00,556.80 340.00,556.00 343.00,555.13 346.00,554.21 349.00,553.21 352.00,552.15 355.00,551.00 358.00,549.78 361.00,548.48 364.00,547.08 367.00,545.60 370.00,544.01 373.00,542.32 376.00,540.53 379.00,538.63 382.00,536.61 385.00,534.48 388.00,532.23 391.00,529.85 394.00,527.35 397.00,524.72 400.00,521.97 403.00,519.08 406.00,516.08 409.00,512.94 412.00,509.69 415.00,506.31 418.00,502.82 421.00,499.23 424.00,495.53 427.00,491.75 430.00,487.87 433.00,483.93 436.00,479.92 439.00,475.86 442.00,471.76 445.00,467.64 448.00,463.50 451.00,459.36 454.00,455.24 457.00,451.14 460.00,447.08 463.00,443.07 466.00,439.13 469.00,435.25 472.00,431.47 475.00,427.77 478.00,424.18 481.00,420.69 484.00,417.31 487.00,414.06 490.00,410.92 493.00,407.92 496.00,405.03 499.00,402.28 502.00,399.65 505.00,397.15 508.00,394.77 511.00,392.52 514.00,390.39 517.00,388.37 520.00,386.47 523.00,384.68 526.00,382.99 529.00,381.40 532.00,379.92 535.00,378.52 538.00,377.22 541.00,376.00 544.00,374.85 547.00,373.79 550.00,372.79 553.00,371.87 556.00,371.00 559.00,370.20 562.00,369.45 565.00,368.75 568.00,368.11 571.00,367.51 574.00,366.95 577.00,366.43 580.00,365.95 583.00,365.51 586.00,365.09 589.00,364.71 592.00,364.36 595.00,364.03 598.00,363.72 601.00,363.44 604.00,363.18 607.00,362.94 610.00,362.72 613.00,362.51 616.00,362.32 619.00,362.14 622.00,361.98 625.00,361.83 628.00,361.69 631.00,361.56 634.00,361.44 637.00,361.33 640.00,361.23 643.00,361.14 646.00,361.05 649.00,360.97 652.00,360.89 655.00,360.83 658.00,360.76 661.00,360.70 664.00,360.65 667.00,360.60 670.00,360.55 673.00,360.51 676.00,360.47 679.00,360.44 682.00,360.40 685.00,360.37 688.00,360.34 691.00,360.32 694.00,360.29 697.00,360.27 700.00,360.25" stroke="#3b82b5" stroke-width="5" fill="none" stroke-linejoin="round" stroke-linecap="round" /><line x1="448.0" y1="360" x2="448.0" y2="585" stroke="#c85b73" stroke-width="2" stroke-linecap="round" stroke-dasharray="8 6" /><text x="250" y="535" text-anchor="middle" font-family="Source Han Sans SC, Microsoft YaHei, sans-serif" font-size="17" font-weight="700" fill="#285b7a">低频被抑制</text><text x="520" y="405" text-anchor="middle" font-family="Source Han Sans SC, Microsoft YaHei, sans-serif" font-size="17" font-weight="700" fill="#a24862">带宽外残余</text><text x="448.0" y="340" text-anchor="middle" font-family="Source Han Sans SC, Microsoft YaHei, sans-serif" font-size="16" font-weight="400" fill="#a24862">控制带宽</text><rect x="790" y="330" width="300" height="115" rx="16" fill="#edf8f2" stroke="#9fd6b7" stroke-width="2.5" /><text x="940.0" y="373" text-anchor="middle" font-family="Source Han Sans SC, Microsoft YaHei, sans-serif" font-size="21" font-weight="700" fill="#397456">OIS</text><text x="940.0" y="408" text-anchor="middle" font-family="Source Han Sans SC, Microsoft YaHei, sans-serif" font-size="16" font-weight="400" fill="#486581">移动镜组，补偿光线角度</text><rect x="1130" y="330" width="300" height="115" rx="16" fill="#eaf4ff" stroke="#9bc7ee" stroke-width="2.5" /><text x="1280.0" y="373" text-anchor="middle" font-family="Source Han Sans SC, Microsoft YaHei, sans-serif" font-size="21" font-weight="700" fill="#285b7a">IBIS</text><text x="1280.0" y="408" text-anchor="middle" font-family="Source Han Sans SC, Microsoft YaHei, sans-serif" font-size="16" font-weight="400" fill="#486581">移动传感器，依赖焦距模型</text><rect x="790" y="485" width="300" height="115" rx="16" fill="#fff7e8" stroke="#e8c77d" stroke-width="2.5" /><text x="940.0" y="528" text-anchor="middle" font-family="Source Han Sans SC, Microsoft YaHei, sans-serif" font-size="21" font-weight="700" fill="#8a5f19">电子防抖</text><text x="940.0" y="563" text-anchor="middle" font-family="Source Han Sans SC, Microsoft YaHei, sans-serif" font-size="16" font-weight="400" fill="#486581">估计后裁切/重采样</text><rect x="1130" y="485" width="300" height="115" rx="16" fill="#fff0f3" stroke="#eab0be" stroke-width="2.5" /><text x="1280.0" y="528" text-anchor="middle" font-family="Source Han Sans SC, Microsoft YaHei, sans-serif" font-size="21" font-weight="700" fill="#a24862">共同限制</text><text x="1280.0" y="563" text-anchor="middle" font-family="Source Han Sans SC, Microsoft YaHei, sans-serif" font-size="16" font-weight="400" fill="#486581">行程、延迟、频带与主体运动</text><text x="400" y="635" text-anchor="middle" font-family="Source Han Sans SC, Microsoft YaHei, sans-serif" font-size="19" font-weight="400" fill="#7b4b74">残余角方差 = ∫|S(ω)|² Φθ(ω)dω</text></svg>