<?xml version='1.0' encoding='utf-8'?>
<svg xmlns="http://www.w3.org/2000/svg" width="1500" height="900" viewBox="0 0 1500 900" role="img" aria-label="照片症状与成像阶段原因矩阵"><defs><marker id="arrow-blue" markerWidth="10" markerHeight="8" refX="9" refY="4" orient="auto" markerUnits="strokeWidth"><path d="M 0 0 L 10 4 L 0 8 z" fill="#3b82b5" /></marker><marker id="arrow-dark" markerWidth="10" markerHeight="8" refX="9" refY="4" orient="auto" markerUnits="strokeWidth"><path d="M 0 0 L 10 4 L 0 8 z" fill="#334e68" /></marker><marker id="arrow-red" markerWidth="10" markerHeight="8" refX="9" refY="4" orient="auto" markerUnits="strokeWidth"><path d="M 0 0 L 10 4 L 0 8 z" fill="#c85b73" /></marker><marker id="arrow-green" markerWidth="10" markerHeight="8" refX="9" refY="4" orient="auto" markerUnits="strokeWidth"><path d="M 0 0 L 10 4 L 0 8 z" fill="#4d8c6a" /></marker><marker id="arrow-gold" markerWidth="10" markerHeight="8" refX="9" refY="4" orient="auto" markerUnits="strokeWidth"><path d="M 0 0 L 10 4 L 0 8 z" fill="#c58a2d" /></marker><marker id="arrow-purple" markerWidth="10" markerHeight="8" refX="9" refY="4" orient="auto" markerUnits="strokeWidth"><path d="M 0 0 L 10 4 L 0 8 z" fill="#7b4b74" /></marker></defs><rect width="1500" height="900" fill="#fbfdff" /><text x="750" y="43" text-anchor="middle" font-family="Source Han Sans SC, Microsoft YaHei, sans-serif" font-size="30" font-weight="700" fill="#102a43">同一种症状可由不同阶段产生；交叉格是候选假设，不是自动结论</text><rect x="310" y="95" width="195" height="55" rx="16" fill="#eef5fb" stroke="#a8c8e0" stroke-width="2.5" /><text x="407.5" y="137" text-anchor="middle" font-family="Source Han Sans SC, Microsoft YaHei, sans-serif" font-size="15" font-weight="700" fill="#102a43">几何与运动</text><rect x="515" y="95" width="195" height="55" rx="16" fill="#eef5fb" stroke="#a8c8e0" stroke-width="2.5" /><text x="612.5" y="137" text-anchor="middle" font-family="Source Han Sans SC, Microsoft YaHei, sans-serif" font-size="15" font-weight="700" fill="#102a43">光学与对焦</text><rect x="720" y="95" width="195" height="55" rx="16" fill="#eef5fb" stroke="#a8c8e0" stroke-width="2.5" /><text x="817.5" y="137" text-anchor="middle" font-family="Source Han Sans SC, Microsoft YaHei, sans-serif" font-size="15" font-weight="700" fill="#102a43">曝光与传感器</text><rect x="925" y="95" width="195" height="55" rx="16" fill="#eef5fb" stroke="#a8c8e0" stroke-width="2.5" /><text x="1022.5" y="137" text-anchor="middle" font-family="Source Han Sans SC, Microsoft YaHei, sans-serif" font-size="15" font-weight="700" fill="#102a43">计算处理</text><rect x="1130" y="95" width="195" height="55" rx="16" fill="#eef5fb" stroke="#a8c8e0" stroke-width="2.5" /><text x="1227.5" y="137" text-anchor="middle" font-family="Source Han Sans SC, Microsoft YaHei, sans-serif" font-size="15" font-weight="700" fill="#102a43">输出与观看</text><rect x="45" y="155" width="240" height="80" rx="16" fill="#eaf4ff" stroke="#b9c7d3" stroke-width="2.5" /><text x="165.0" y="197" text-anchor="middle" font-family="Source Han Sans SC, Microsoft YaHei, sans-serif" font-size="16" font-weight="700" fill="#102a43">虚：边缘不清</text><rect x="310" y="155" width="195" height="80" rx="9" fill="#ffffff" stroke="#d5dee6" stroke-width="2" /><rect x="515" y="155" width="195" height="80" rx="9" fill="#ffffff" stroke="#d5dee6" stroke-width="2" /><rect x="720" y="155" width="195" height="80" rx="9" fill="#ffffff" stroke="#d5dee6" stroke-width="2" /><rect x="925" y="155" width="195" height="80" rx="9" fill="#ffffff" stroke="#d5dee6" stroke-width="2" /><rect x="1130" y="155" width="195" height="80" rx="9" fill="#ffffff" stroke="#d5dee6" stroke-width="2" /><rect x="45" y="247" width="240" height="80" rx="16" fill="#edf8f2" stroke="#b9c7d3" stroke-width="2.5" /><text x="165.0" y="289" text-anchor="middle" font-family="Source Han Sans SC, Microsoft YaHei, sans-serif" font-size="16" font-weight="700" fill="#102a43">糊或变形</text><rect x="310" y="247" width="195" height="80" rx="9" fill="#ffffff" stroke="#d5dee6" stroke-width="2" /><rect x="515" y="247" width="195" height="80" rx="9" fill="#ffffff" stroke="#d5dee6" stroke-width="2" /><rect x="720" y="247" width="195" height="80" rx="9" fill="#ffffff" stroke="#d5dee6" stroke-width="2" /><rect x="925" y="247" width="195" height="80" rx="9" fill="#ffffff" stroke="#d5dee6" stroke-width="2" /><rect x="1130" y="247" width="195" height="80" rx="9" fill="#ffffff" stroke="#d5dee6" stroke-width="2" /><rect x="45" y="339" width="240" height="80" rx="16" fill="#fff7e8" stroke="#b9c7d3" stroke-width="2.5" /><text x="165.0" y="381" text-anchor="middle" font-family="Source Han Sans SC, Microsoft YaHei, sans-serif" font-size="16" font-weight="700" fill="#102a43">噪或脏</text><rect x="310" y="339" width="195" height="80" rx="9" fill="#ffffff" stroke="#d5dee6" stroke-width="2" /><rect x="515" y="339" width="195" height="80" rx="9" fill="#ffffff" stroke="#d5dee6" stroke-width="2" /><rect x="720" y="339" width="195" height="80" rx="9" fill="#ffffff" stroke="#d5dee6" stroke-width="2" /><rect x="925" y="339" width="195" height="80" rx="9" fill="#ffffff" stroke="#d5dee6" stroke-width="2" /><rect x="1130" y="339" width="195" height="80" rx="9" fill="#ffffff" stroke="#d5dee6" stroke-width="2" /><rect x="45" y="431" width="240" height="80" rx="16" fill="#fff0f3" stroke="#b9c7d3" stroke-width="2.5" /><text x="165.0" y="473" text-anchor="middle" font-family="Source Han Sans SC, Microsoft YaHei, sans-serif" font-size="16" font-weight="700" fill="#102a43">高光无层次</text><rect x="310" y="431" width="195" height="80" rx="9" fill="#ffffff" stroke="#d5dee6" stroke-width="2" /><rect x="515" y="431" width="195" height="80" rx="9" fill="#ffffff" stroke="#d5dee6" stroke-width="2" /><rect x="720" y="431" width="195" height="80" rx="9" fill="#ffffff" stroke="#d5dee6" stroke-width="2" /><rect x="925" y="431" width="195" height="80" rx="9" fill="#ffffff" stroke="#d5dee6" stroke-width="2" /><rect x="1130" y="431" width="195" height="80" rx="9" fill="#ffffff" stroke="#d5dee6" stroke-width="2" /><rect x="45" y="523" width="240" height="80" rx="16" fill="#f7efff" stroke="#b9c7d3" stroke-width="2.5" /><text x="165.0" y="565" text-anchor="middle" font-family="Source Han Sans SC, Microsoft YaHei, sans-serif" font-size="16" font-weight="700" fill="#102a43">色彩异常</text><rect x="310" y="523" width="195" height="80" rx="9" fill="#ffffff" stroke="#d5dee6" stroke-width="2" /><rect x="515" y="523" width="195" height="80" rx="9" fill="#ffffff" stroke="#d5dee6" stroke-width="2" /><rect x="720" y="523" width="195" height="80" rx="9" fill="#ffffff" stroke="#d5dee6" stroke-width="2" /><rect x="925" y="523" width="195" height="80" rx="9" fill="#ffffff" stroke="#d5dee6" stroke-width="2" /><rect x="1130" y="523" width="195" height="80" rx="9" fill="#ffffff" stroke="#d5dee6" stroke-width="2" /><rect x="45" y="615" width="240" height="80" rx="16" fill="#eef5fb" stroke="#b9c7d3" stroke-width="2.5" /><text x="165.0" y="657" text-anchor="middle" font-family="Source Han Sans SC, Microsoft YaHei, sans-serif" font-size="16" font-weight="700" fill="#102a43">细节不自然</text><rect x="310" y="615" width="195" height="80" rx="9" fill="#ffffff" stroke="#d5dee6" stroke-width="2" /><rect x="515" y="615" width="195" height="80" rx="9" fill="#ffffff" stroke="#d5dee6" stroke-width="2" /><rect x="720" y="615" width="195" height="80" rx="9" fill="#ffffff" stroke="#d5dee6" stroke-width="2" /><rect x="925" y="615" width="195" height="80" rx="9" fill="#ffffff" stroke="#d5dee6" stroke-width="2" /><rect x="1130" y="615" width="195" height="80" rx="9" fill="#ffffff" stroke="#d5dee6" stroke-width="2" /><circle cx="341.5" cy="195.0" r="6" fill="#3b82b5" /><text x="413.5" y="201.0" text-anchor="middle" font-family="Source Han Sans SC, Microsoft YaHei, sans-serif" font-size="13" font-weight="400" fill="#334e68">视点变化</text><circle cx="546.5" cy="195.0" r="6" fill="#4d8c6a" /><text x="618.5" y="190.0" text-anchor="middle" font-family="Source Han Sans SC, Microsoft YaHei, sans-serif" font-size="12" font-weight="400" fill="#334e68">失焦·像差</text><text x="618.5" y="211.0" text-anchor="middle" font-family="Source Han Sans SC, Microsoft YaHei, sans-serif" font-size="12" font-weight="400" fill="#334e68">景深·衍射</text><circle cx="751.5" cy="195.0" r="6" fill="#c58a2d" /><text x="823.5" y="201.0" text-anchor="middle" font-family="Source Han Sans SC, Microsoft YaHei, sans-serif" font-size="13" font-weight="400" fill="#334e68">低信噪比</text><circle cx="956.5" cy="195.0" r="6" fill="#7b4b74" /><text x="1028.5" y="201.0" text-anchor="middle" font-family="Source Han Sans SC, Microsoft YaHei, sans-serif" font-size="13" font-weight="400" fill="#334e68">降噪·缩放</text><circle cx="1161.5" cy="195.0" r="6" fill="#a24862" /><text x="1233.5" y="201.0" text-anchor="middle" font-family="Source Han Sans SC, Microsoft YaHei, sans-serif" font-size="13" font-weight="400" fill="#334e68">观看倍率</text><circle cx="341.5" cy="287.0" r="6" fill="#3b82b5" /><text x="413.5" y="282.0" text-anchor="middle" font-family="Source Han Sans SC, Microsoft YaHei, sans-serif" font-size="12" font-weight="400" fill="#334e68">相机/主体运动</text><text x="413.5" y="303.0" text-anchor="middle" font-family="Source Han Sans SC, Microsoft YaHei, sans-serif" font-size="12" font-weight="400" fill="#334e68">滚动快门</text><circle cx="546.5" cy="287.0" r="6" fill="#4d8c6a" /><text x="618.5" y="293.0" text-anchor="middle" font-family="Source Han Sans SC, Microsoft YaHei, sans-serif" font-size="13" font-weight="400" fill="#334e68">防抖耦合</text><circle cx="956.5" cy="287.0" r="6" fill="#7b4b74" /><text x="1028.5" y="293.0" text-anchor="middle" font-family="Source Han Sans SC, Microsoft YaHei, sans-serif" font-size="13" font-weight="400" fill="#334e68">配准错误</text><circle cx="1161.5" cy="287.0" r="6" fill="#a24862" /><text x="1233.5" y="293.0" text-anchor="middle" font-family="Source Han Sans SC, Microsoft YaHei, sans-serif" font-size="13" font-weight="400" fill="#334e68">播放插值</text><circle cx="751.5" cy="379.0" r="6" fill="#c58a2d" /><text x="823.5" y="374.0" text-anchor="middle" font-family="Source Han Sans SC, Microsoft YaHei, sans-serif" font-size="12" font-weight="400" fill="#334e68">光子·读出</text><text x="823.5" y="395.0" text-anchor="middle" font-family="Source Han Sans SC, Microsoft YaHei, sans-serif" font-size="12" font-weight="400" fill="#334e68">暗电流</text><circle cx="956.5" cy="379.0" r="6" fill="#7b4b74" /><text x="1028.5" y="374.0" text-anchor="middle" font-family="Source Han Sans SC, Microsoft YaHei, sans-serif" font-size="12" font-weight="400" fill="#334e68">提亮·去马赛克</text><text x="1028.5" y="395.0" text-anchor="middle" font-family="Source Han Sans SC, Microsoft YaHei, sans-serif" font-size="12" font-weight="400" fill="#334e68">压缩</text><circle cx="1161.5" cy="379.0" r="6" fill="#a24862" /><text x="1233.5" y="385.0" text-anchor="middle" font-family="Source Han Sans SC, Microsoft YaHei, sans-serif" font-size="13" font-weight="400" fill="#334e68">显示黑位</text><circle cx="546.5" cy="471.0" r="6" fill="#4d8c6a" /><text x="618.5" y="477.0" text-anchor="middle" font-family="Source Han Sans SC, Microsoft YaHei, sans-serif" font-size="13" font-weight="400" fill="#334e68">眩光</text><circle cx="751.5" cy="471.0" r="6" fill="#c58a2d" /><text x="823.5" y="477.0" text-anchor="middle" font-family="Source Han Sans SC, Microsoft YaHei, sans-serif" font-size="13" font-weight="400" fill="#334e68">满阱/通道剪切</text><circle cx="956.5" cy="471.0" r="6" fill="#7b4b74" /><text x="1028.5" y="477.0" text-anchor="middle" font-family="Source Han Sans SC, Microsoft YaHei, sans-serif" font-size="13" font-weight="400" fill="#334e68">色调映射</text><circle cx="1161.5" cy="471.0" r="6" fill="#a24862" /><text x="1233.5" y="477.0" text-anchor="middle" font-family="Source Han Sans SC, Microsoft YaHei, sans-serif" font-size="13" font-weight="400" fill="#334e68">峰值受限</text><circle cx="546.5" cy="563.0" r="6" fill="#4d8c6a" /><text x="618.5" y="569.0" text-anchor="middle" font-family="Source Han Sans SC, Microsoft YaHei, sans-serif" font-size="13" font-weight="400" fill="#334e68">光谱与镀膜</text><circle cx="751.5" cy="563.0" r="6" fill="#c58a2d" /><text x="823.5" y="569.0" text-anchor="middle" font-family="Source Han Sans SC, Microsoft YaHei, sans-serif" font-size="13" font-weight="400" fill="#334e68">白平衡基准</text><circle cx="956.5" cy="563.0" r="6" fill="#7b4b74" /><text x="1028.5" y="569.0" text-anchor="middle" font-family="Source Han Sans SC, Microsoft YaHei, sans-serif" font-size="13" font-weight="400" fill="#334e68">配置/变换错误</text><circle cx="1161.5" cy="563.0" r="6" fill="#a24862" /><text x="1233.5" y="569.0" text-anchor="middle" font-family="Source Han Sans SC, Microsoft YaHei, sans-serif" font-size="13" font-weight="400" fill="#334e68">设备与环境</text><circle cx="341.5" cy="655.0" r="6" fill="#3b82b5" /><text x="413.5" y="661.0" text-anchor="middle" font-family="Source Han Sans SC, Microsoft YaHei, sans-serif" font-size="13" font-weight="400" fill="#334e68">混叠</text><circle cx="546.5" cy="655.0" r="6" fill="#4d8c6a" /><text x="618.5" y="661.0" text-anchor="middle" font-family="Source Han Sans SC, Microsoft YaHei, sans-serif" font-size="13" font-weight="400" fill="#334e68">像差结构</text><circle cx="751.5" cy="655.0" r="6" fill="#c58a2d" /><text x="823.5" y="661.0" text-anchor="middle" font-family="Source Han Sans SC, Microsoft YaHei, sans-serif" font-size="13" font-weight="400" fill="#334e68">采样相位</text><circle cx="956.5" cy="655.0" r="6" fill="#7b4b74" /><text x="1028.5" y="650.0" text-anchor="middle" font-family="Source Han Sans SC, Microsoft YaHei, sans-serif" font-size="12" font-weight="400" fill="#334e68">锐化·AI</text><text x="1028.5" y="671.0" text-anchor="middle" font-family="Source Han Sans SC, Microsoft YaHei, sans-serif" font-size="12" font-weight="400" fill="#334e68">JPEG</text><circle cx="1161.5" cy="655.0" r="6" fill="#a24862" /><text x="1233.5" y="661.0" text-anchor="middle" font-family="Source Han Sans SC, Microsoft YaHei, sans-serif" font-size="13" font-weight="400" fill="#334e68">缩放算法</text><rect x="270" y="775" width="960" height="72" rx="16" fill="#fff7e8" stroke="#e8c77d" stroke-width="2.5" /><text x="750.0" y="817" text-anchor="middle" font-family="Source Han Sans SC, Microsoft YaHei, sans-serif" font-size="18" font-weight="700" fill="#8a5f19">从 RAW 到最终介质逐级比较：首次出现差异的阶段，通常比症状名称更有诊断力</text></svg>