<?xml version='1.0' encoding='utf-8'?>
<svg xmlns="http://www.w3.org/2000/svg" width="1500" height="790" viewBox="0 0 1500 790" role="img" aria-label="摄影系统质量预算与瓶颈"><defs><marker id="arrow-blue" markerWidth="10" markerHeight="8" refX="9" refY="4" orient="auto" markerUnits="strokeWidth"><path d="M 0 0 L 10 4 L 0 8 z" fill="#3b82b5" /></marker><marker id="arrow-dark" markerWidth="10" markerHeight="8" refX="9" refY="4" orient="auto" markerUnits="strokeWidth"><path d="M 0 0 L 10 4 L 0 8 z" fill="#334e68" /></marker><marker id="arrow-red" markerWidth="10" markerHeight="8" refX="9" refY="4" orient="auto" markerUnits="strokeWidth"><path d="M 0 0 L 10 4 L 0 8 z" fill="#c85b73" /></marker><marker id="arrow-green" markerWidth="10" markerHeight="8" refX="9" refY="4" orient="auto" markerUnits="strokeWidth"><path d="M 0 0 L 10 4 L 0 8 z" fill="#4d8c6a" /></marker><marker id="arrow-gold" markerWidth="10" markerHeight="8" refX="9" refY="4" orient="auto" markerUnits="strokeWidth"><path d="M 0 0 L 10 4 L 0 8 z" fill="#c58a2d" /></marker><marker id="arrow-purple" markerWidth="10" markerHeight="8" refX="9" refY="4" orient="auto" markerUnits="strokeWidth"><path d="M 0 0 L 10 4 L 0 8 z" fill="#7b4b74" /></marker></defs><rect width="1500" height="790" fill="#fbfdff" /><text x="750" y="43" text-anchor="middle" font-family="Source Han Sans SC, Microsoft YaHei, sans-serif" font-size="30" font-weight="700" fill="#102a43">最终质量由整条链共同决定：强项不能自动补偿已经丢失的信息</text><rect x="35" y="155" width="180" height="145" rx="16" fill="#eaf4ff" stroke="#9bc7ee" stroke-width="2.5" /><text x="125.0" y="197" text-anchor="middle" font-family="Source Han Sans SC, Microsoft YaHei, sans-serif" font-size="19" font-weight="700" fill="#102a43">场景</text><text x="125.0" y="231" text-anchor="middle" font-family="Source Han Sans SC, Microsoft YaHei, sans-serif" font-size="15" font-weight="400" fill="#486581">光子 · 运动</text><rect x="285" y="155" width="180" height="145" rx="16" fill="#edf8f2" stroke="#9fd6b7" stroke-width="2.5" /><text x="375.0" y="197" text-anchor="middle" font-family="Source Han Sans SC, Microsoft YaHei, sans-serif" font-size="19" font-weight="700" fill="#102a43">镜头</text><text x="375.0" y="231" text-anchor="middle" font-family="Source Han Sans SC, Microsoft YaHei, sans-serif" font-size="15" font-weight="400" fill="#486581">视角 · 入瞳 · MTF</text><rect x="535" y="155" width="180" height="145" rx="16" fill="#fff7e8" stroke="#e8c77d" stroke-width="2.5" /><text x="625.0" y="197" text-anchor="middle" font-family="Source Han Sans SC, Microsoft YaHei, sans-serif" font-size="19" font-weight="700" fill="#102a43">传感器</text><text x="625.0" y="231" text-anchor="middle" font-family="Source Han Sans SC, Microsoft YaHei, sans-serif" font-size="15" font-weight="400" fill="#486581">采样 · 满阱 · 读出</text><rect x="785" y="155" width="180" height="145" rx="16" fill="#f7efff" stroke="#c9a9e8" stroke-width="2.5" /><text x="875.0" y="197" text-anchor="middle" font-family="Source Han Sans SC, Microsoft YaHei, sans-serif" font-size="19" font-weight="700" fill="#102a43">计算</text><text x="875.0" y="231" text-anchor="middle" font-family="Source Han Sans SC, Microsoft YaHei, sans-serif" font-size="15" font-weight="400" fill="#486581">对齐 · 降噪 · 色调</text><rect x="1035" y="155" width="180" height="145" rx="16" fill="#fff0f3" stroke="#eab0be" stroke-width="2.5" /><text x="1125.0" y="197" text-anchor="middle" font-family="Source Han Sans SC, Microsoft YaHei, sans-serif" font-size="19" font-weight="700" fill="#102a43">输出</text><text x="1125.0" y="231" text-anchor="middle" font-family="Source Han Sans SC, Microsoft YaHei, sans-serif" font-size="15" font-weight="400" fill="#486581">尺寸 · 介质 · 压缩</text><rect x="1285" y="155" width="180" height="145" rx="16" fill="#eef5fb" stroke="#a8c8e0" stroke-width="2.5" /><text x="1375.0" y="197" text-anchor="middle" font-family="Source Han Sans SC, Microsoft YaHei, sans-serif" font-size="19" font-weight="700" fill="#102a43">观看</text><text x="1375.0" y="231" text-anchor="middle" font-family="Source Han Sans SC, Microsoft YaHei, sans-serif" font-size="15" font-weight="400" fill="#486581">距离 · 环境 · 任务</text><line x1="215" y1="228" x2="275" y2="228" stroke="#527da3" stroke-width="4" stroke-linecap="round" marker-end="url(#arrow-blue)" /><line x1="465" y1="228" x2="525" y2="228" stroke="#527da3" stroke-width="4" stroke-linecap="round" marker-end="url(#arrow-blue)" /><line x1="715" y1="228" x2="775" y2="228" stroke="#527da3" stroke-width="4" stroke-linecap="round" marker-end="url(#arrow-blue)" /><line x1="965" y1="228" x2="1025" y2="228" stroke="#527da3" stroke-width="4" stroke-linecap="round" marker-end="url(#arrow-blue)" /><line x1="1215" y1="228" x2="1275" y2="228" stroke="#527da3" stroke-width="4" stroke-linecap="round" marker-end="url(#arrow-blue)" /><text x="65" y="434" text-anchor="start" font-family="Source Han Sans SC, Microsoft YaHei, sans-serif" font-size="18" font-weight="700" fill="#3b82b5">空间细节</text><rect x="210" y="410" width="150" height="34" rx="7" fill="#e5edf3" /><rect x="210" y="410" width="142.5" height="34" rx="7" fill="#3b82b5" fill-opacity=".78" /><rect x="410" y="410" width="150" height="34" rx="7" fill="#e5edf3" /><rect x="410" y="410" width="108.0" height="34" rx="7" fill="#3b82b5" fill-opacity=".78" /><rect x="610" y="410" width="150" height="34" rx="7" fill="#e5edf3" /><rect x="610" y="410" width="93.0" height="34" rx="7" fill="#3b82b5" fill-opacity=".78" /><rect x="810" y="410" width="150" height="34" rx="7" fill="#e5edf3" /><rect x="810" y="410" width="99.0" height="34" rx="7" fill="#3b82b5" fill-opacity=".78" /><rect x="1010" y="410" width="150" height="34" rx="7" fill="#e5edf3" /><rect x="1010" y="410" width="82.5" height="34" rx="7" fill="#3b82b5" fill-opacity=".78" /><rect x="1210" y="410" width="150" height="34" rx="7" fill="#e5edf3" /><rect x="1210" y="410" width="82.5" height="34" rx="7" fill="#3b82b5" fill-opacity=".78" /><text x="65" y="526" text-anchor="start" font-family="Source Han Sans SC, Microsoft YaHei, sans-serif" font-size="18" font-weight="700" fill="#4d8c6a">信噪比</text><rect x="210" y="502" width="150" height="34" rx="7" fill="#e5edf3" /><rect x="210" y="502" width="63.0" height="34" rx="7" fill="#4d8c6a" fill-opacity=".78" /><rect x="410" y="502" width="150" height="34" rx="7" fill="#e5edf3" /><rect x="410" y="502" width="82.5" height="34" rx="7" fill="#4d8c6a" fill-opacity=".78" /><rect x="610" y="502" width="150" height="34" rx="7" fill="#e5edf3" /><rect x="610" y="502" width="102.00000000000001" height="34" rx="7" fill="#4d8c6a" fill-opacity=".78" /><rect x="810" y="502" width="150" height="34" rx="7" fill="#e5edf3" /><rect x="810" y="502" width="117.0" height="34" rx="7" fill="#4d8c6a" fill-opacity=".78" /><rect x="1010" y="502" width="150" height="34" rx="7" fill="#e5edf3" /><rect x="1010" y="502" width="105.0" height="34" rx="7" fill="#4d8c6a" fill-opacity=".78" /><rect x="1210" y="502" width="150" height="34" rx="7" fill="#e5edf3" /><rect x="1210" y="502" width="105.0" height="34" rx="7" fill="#4d8c6a" fill-opacity=".78" /><text x="65" y="618" text-anchor="start" font-family="Source Han Sans SC, Microsoft YaHei, sans-serif" font-size="18" font-weight="700" fill="#c85b73">时间一致性</text><rect x="210" y="594" width="150" height="34" rx="7" fill="#e5edf3" /><rect x="210" y="594" width="93.0" height="34" rx="7" fill="#c85b73" fill-opacity=".78" /><rect x="410" y="594" width="150" height="34" rx="7" fill="#e5edf3" /><rect x="410" y="594" width="93.0" height="34" rx="7" fill="#c85b73" fill-opacity=".78" /><rect x="610" y="594" width="150" height="34" rx="7" fill="#e5edf3" /><rect x="610" y="594" width="87.0" height="34" rx="7" fill="#c85b73" fill-opacity=".78" /><rect x="810" y="594" width="150" height="34" rx="7" fill="#e5edf3" /><rect x="810" y="594" width="57.0" height="34" rx="7" fill="#c85b73" fill-opacity=".78" /><rect x="1010" y="594" width="150" height="34" rx="7" fill="#e5edf3" /><rect x="1010" y="594" width="57.0" height="34" rx="7" fill="#c85b73" fill-opacity=".78" /><rect x="1210" y="594" width="150" height="34" rx="7" fill="#e5edf3" /><rect x="1210" y="594" width="57.0" height="34" rx="7" fill="#c85b73" fill-opacity=".78" /><rect x="250" y="705" width="1000" height="52" rx="16" fill="#ffffff" stroke="#b9c7d3" stroke-width="2.5" /><text x="750.0" y="747" text-anchor="middle" font-family="Source Han Sans SC, Microsoft YaHei, sans-serif" font-size="18" font-weight="700" fill="#334e68">不同质量维度有不同瓶颈；不存在一个“总画质分”能替代任务权重</text></svg>