<?xml version='1.0' encoding='utf-8'?>
<svg xmlns="http://www.w3.org/2000/svg" width="1500" height="810" viewBox="0 0 1500 810" role="img" aria-label="手机可换镜头系统与中画幅的交叉优势"><defs><marker id="arrow-blue" markerWidth="10" markerHeight="8" refX="9" refY="4" orient="auto" markerUnits="strokeWidth"><path d="M 0 0 L 10 4 L 0 8 z" fill="#3b82b5" /></marker><marker id="arrow-dark" markerWidth="10" markerHeight="8" refX="9" refY="4" orient="auto" markerUnits="strokeWidth"><path d="M 0 0 L 10 4 L 0 8 z" fill="#334e68" /></marker><marker id="arrow-red" markerWidth="10" markerHeight="8" refX="9" refY="4" orient="auto" markerUnits="strokeWidth"><path d="M 0 0 L 10 4 L 0 8 z" fill="#c85b73" /></marker><marker id="arrow-green" markerWidth="10" markerHeight="8" refX="9" refY="4" orient="auto" markerUnits="strokeWidth"><path d="M 0 0 L 10 4 L 0 8 z" fill="#4d8c6a" /></marker><marker id="arrow-gold" markerWidth="10" markerHeight="8" refX="9" refY="4" orient="auto" markerUnits="strokeWidth"><path d="M 0 0 L 10 4 L 0 8 z" fill="#c58a2d" /></marker><marker id="arrow-purple" markerWidth="10" markerHeight="8" refX="9" refY="4" orient="auto" markerUnits="strokeWidth"><path d="M 0 0 L 10 4 L 0 8 z" fill="#7b4b74" /></marker></defs><rect width="1500" height="810" fill="#fbfdff" /><text x="750" y="43" text-anchor="middle" font-family="Source Han Sans SC, Microsoft YaHei, sans-serif" font-size="30" font-weight="700" fill="#102a43">系统优势会随照度、运动、输出和携带约束交叉，不形成永恒等级</text><text x="170" y="115" text-anchor="middle" font-family="Source Han Sans SC, Microsoft YaHei, sans-serif" font-size="20" font-weight="700" fill="#334e68">任务维度</text><text x="570" y="115" text-anchor="middle" font-family="Source Han Sans SC, Microsoft YaHei, sans-serif" font-size="20" font-weight="700" fill="#3b82b5">手机</text><text x="870" y="115" text-anchor="middle" font-family="Source Han Sans SC, Microsoft YaHei, sans-serif" font-size="20" font-weight="700" fill="#4d8c6a">可换镜头系统</text><text x="1170" y="115" text-anchor="middle" font-family="Source Han Sans SC, Microsoft YaHei, sans-serif" font-size="20" font-weight="700" fill="#c58a2d">中画幅</text><rect x="55" y="155" width="1390" height="82" rx="9" fill="#f7fafc" /><text x="170" y="205" text-anchor="middle" font-family="Source Han Sans SC, Microsoft YaHei, sans-serif" font-size="18" font-weight="700" fill="#334e68">随身与响应</text><rect x="455" y="180" width="220" height="32" rx="7" fill="#dfe7ee" /><rect x="455" y="180" width="209.0" height="32" rx="7" fill="#3b82b5" fill-opacity=".78" /><rect x="755" y="180" width="220" height="32" rx="7" fill="#dfe7ee" /><rect x="755" y="180" width="143.0" height="32" rx="7" fill="#4d8c6a" fill-opacity=".78" /><rect x="1055" y="180" width="220" height="32" rx="7" fill="#dfe7ee" /><rect x="1055" y="180" width="83.6" height="32" rx="7" fill="#c58a2d" fill-opacity=".78" /><rect x="55" y="260" width="1390" height="82" rx="9" fill="#eef4f8" /><text x="170" y="310" text-anchor="middle" font-family="Source Han Sans SC, Microsoft YaHei, sans-serif" font-size="18" font-weight="700" fill="#334e68">计算融合</text><rect x="455" y="285" width="220" height="32" rx="7" fill="#dfe7ee" /><rect x="455" y="285" width="180.39999999999998" height="32" rx="7" fill="#3b82b5" fill-opacity=".78" /><rect x="755" y="285" width="220" height="32" rx="7" fill="#dfe7ee" /><rect x="755" y="285" width="171.6" height="32" rx="7" fill="#4d8c6a" fill-opacity=".78" /><rect x="1055" y="285" width="220" height="32" rx="7" fill="#dfe7ee" /><rect x="1055" y="285" width="105.6" height="32" rx="7" fill="#c58a2d" fill-opacity=".78" /><rect x="55" y="365" width="1390" height="82" rx="9" fill="#f7fafc" /><text x="170" y="415" text-anchor="middle" font-family="Source Han Sans SC, Microsoft YaHei, sans-serif" font-size="18" font-weight="700" fill="#334e68">弱光/运动</text><rect x="455" y="390" width="220" height="32" rx="7" fill="#dfe7ee" /><rect x="455" y="390" width="127.6" height="32" rx="7" fill="#3b82b5" fill-opacity=".78" /><rect x="755" y="390" width="220" height="32" rx="7" fill="#dfe7ee" /><rect x="755" y="390" width="193.6" height="32" rx="7" fill="#4d8c6a" fill-opacity=".78" /><rect x="1055" y="390" width="220" height="32" rx="7" fill="#dfe7ee" /><rect x="1055" y="390" width="158.4" height="32" rx="7" fill="#c58a2d" fill-opacity=".78" /><rect x="55" y="470" width="1390" height="82" rx="9" fill="#eef4f8" /><text x="170" y="520" text-anchor="middle" font-family="Source Han Sans SC, Microsoft YaHei, sans-serif" font-size="18" font-weight="700" fill="#334e68">大输出余量</text><rect x="455" y="495" width="220" height="32" rx="7" fill="#dfe7ee" /><rect x="455" y="495" width="110.0" height="32" rx="7" fill="#3b82b5" fill-opacity=".78" /><rect x="755" y="495" width="220" height="32" rx="7" fill="#dfe7ee" /><rect x="755" y="495" width="184.79999999999998" height="32" rx="7" fill="#4d8c6a" fill-opacity=".78" /><rect x="1055" y="495" width="220" height="32" rx="7" fill="#dfe7ee" /><rect x="1055" y="495" width="209.0" height="32" rx="7" fill="#c58a2d" fill-opacity=".78" /><rect x="55" y="575" width="1390" height="82" rx="9" fill="#f7fafc" /><text x="170" y="625" text-anchor="middle" font-family="Source Han Sans SC, Microsoft YaHei, sans-serif" font-size="18" font-weight="700" fill="#334e68">镜头与控制</text><rect x="455" y="600" width="220" height="32" rx="7" fill="#dfe7ee" /><rect x="455" y="600" width="158.4" height="32" rx="7" fill="#3b82b5" fill-opacity=".78" /><rect x="755" y="600" width="220" height="32" rx="7" fill="#dfe7ee" /><rect x="755" y="600" width="180.39999999999998" height="32" rx="7" fill="#4d8c6a" fill-opacity=".78" /><rect x="1055" y="600" width="220" height="32" rx="7" fill="#dfe7ee" /><rect x="1055" y="600" width="154.0" height="32" rx="7" fill="#c58a2d" fill-opacity=".78" /><rect x="240" y="720" width="1020" height="58" rx="16" fill="#ffffff" stroke="#b9c7d3" stroke-width="2.5" /><text x="750.0" y="762" text-anchor="middle" font-family="Source Han Sans SC, Microsoft YaHei, sans-serif" font-size="18" font-weight="700" fill="#334e68">条长只是关系示意，不是跨型号实测分数；具体技术代际可改变交叉点</text></svg>