<?xml version='1.0' encoding='utf-8'?>
<svg xmlns="http://www.w3.org/2000/svg" width="1300" height="690" viewBox="0 0 1300 690" role="img" aria-label="薄会聚透镜的近轴成像"><defs><marker id="arrow-blue" markerWidth="10" markerHeight="8" refX="9" refY="4" orient="auto" markerUnits="strokeWidth"><path d="M 0 0 L 10 4 L 0 8 z" fill="#3b82b5" /></marker><marker id="arrow-red" markerWidth="10" markerHeight="8" refX="9" refY="4" orient="auto" markerUnits="strokeWidth"><path d="M 0 0 L 10 4 L 0 8 z" fill="#c85b73" /></marker><marker id="arrow-dark" markerWidth="10" markerHeight="8" refX="9" refY="4" orient="auto" markerUnits="strokeWidth"><path d="M 0 0 L 10 4 L 0 8 z" fill="#334e68" /></marker></defs><rect width="1300" height="690" fill="#fbfdff" /><text x="650.0" y="45" text-anchor="middle" font-family="Source Han Sans SC, Microsoft YaHei, sans-serif" font-size="30" font-weight="700" fill="#102a43">薄透镜：三条特征光线与同一共轭像点</text><line x1="80" y1="350" x2="1215" y2="350" stroke="#829ab1" stroke-width="2" stroke-linecap="round" marker-end="url(#arrow-dark)" /><text x="1190" y="332" text-anchor="middle" font-family="Source Han Sans SC, Microsoft YaHei, sans-serif" font-size="20" font-weight="400" fill="#627d98">光轴 z</text><path d="M 650 85 C 588 155 588 545 650 615 C 712 545 712 155 650 85 Z" fill="#eaf4ff" fill-opacity="0.8" stroke="#5595c5" stroke-width="3" /><line x1="650" y1="90" x2="650" y2="610" stroke="#3b82b5" stroke-width="2" stroke-linecap="round" stroke-dasharray="8 7" /><text x="650" y="647" text-anchor="middle" font-family="Source Han Sans SC, Microsoft YaHei, sans-serif" font-size="20" font-weight="600" fill="#2f6f9f">薄透镜平面</text><line x1="490" y1="340" x2="490" y2="360" stroke="#334e68" stroke-width="3" stroke-linecap="round" /><text x="490" y="388" text-anchor="middle" font-family="Source Han Sans SC, Microsoft YaHei, sans-serif" font-size="22" font-weight="700" fill="#243b53">F</text><line x1="810" y1="340" x2="810" y2="360" stroke="#334e68" stroke-width="3" stroke-linecap="round" /><text x="810" y="388" text-anchor="middle" font-family="Source Han Sans SC, Microsoft YaHei, sans-serif" font-size="22" font-weight="700" fill="#243b53">F′</text><line x1="300" y1="350" x2="300" y2="160" stroke="#285b7a" stroke-width="5" stroke-linecap="round" marker-end="url(#arrow-blue)" /><text x="292" y="135" text-anchor="middle" font-family="Source Han Sans SC, Microsoft YaHei, sans-serif" font-size="22" font-weight="700" fill="#285b7a">物体 yₒ</text><line x1="945" y1="350" x2="945" y2="510" stroke="#9a4059" stroke-width="5" stroke-linecap="round" marker-end="url(#arrow-red)" /><text x="963" y="540" text-anchor="middle" font-family="Source Han Sans SC, Microsoft YaHei, sans-serif" font-size="22" font-weight="700" fill="#9a4059">倒立实像 yᵢ</text><line x1="300" y1="160" x2="650" y2="160" stroke="#3b82b5" stroke-width="3" stroke-linecap="round" /><line x1="650" y1="160" x2="945" y2="510" stroke="#3b82b5" stroke-width="3" stroke-linecap="round" /><line x1="300" y1="160" x2="945" y2="510" stroke="#5f8f72" stroke-width="3" stroke-linecap="round" /><line x1="300" y1="160" x2="650" y2="510" stroke="#c58a2d" stroke-width="3" stroke-linecap="round" /><line x1="650" y1="510" x2="945" y2="510" stroke="#c58a2d" stroke-width="3" stroke-linecap="round" /><line x1="300" y1="610" x2="650" y2="610" stroke="#334e68" stroke-width="2" stroke-linecap="round" /><line x1="300" y1="598" x2="300" y2="622" stroke="#334e68" stroke-width="2" stroke-linecap="round" /><line x1="650" y1="598" x2="650" y2="622" stroke="#334e68" stroke-width="2" stroke-linecap="round" /><text x="475.0" y="642" text-anchor="middle" font-family="Source Han Sans SC, Microsoft YaHei, sans-serif" font-size="21" font-weight="600" fill="#243b53">s = −zₒ</text><line x1="650" y1="610" x2="945" y2="610" stroke="#334e68" stroke-width="2" stroke-linecap="round" /><line x1="945" y1="598" x2="945" y2="622" stroke="#334e68" stroke-width="2" stroke-linecap="round" /><text x="797.5" y="642" text-anchor="middle" font-family="Source Han Sans SC, Microsoft YaHei, sans-serif" font-size="21" font-weight="600" fill="#243b53">s′ = zᵢ</text><text x="640" y="78" text-anchor="middle" font-family="Source Han Sans SC, Microsoft YaHei, sans-serif" font-size="23" font-weight="600" fill="#7b3651">1/zᵢ - 1/zₒ = 1/f</text></svg>