<?xml version='1.0' encoding='utf-8'?>
<svg xmlns="http://www.w3.org/2000/svg" width="1500" height="720" viewBox="0 0 1500 720" role="img" aria-label="单调色调曲线的toe中间调shoulder与局部斜率"><defs><marker id="arrow-blue" markerWidth="10" markerHeight="8" refX="9" refY="4" orient="auto" markerUnits="strokeWidth"><path d="M 0 0 L 10 4 L 0 8 z" fill="#3b82b5" /></marker><marker id="arrow-dark" markerWidth="10" markerHeight="8" refX="9" refY="4" orient="auto" markerUnits="strokeWidth"><path d="M 0 0 L 10 4 L 0 8 z" fill="#334e68" /></marker><marker id="arrow-red" markerWidth="10" markerHeight="8" refX="9" refY="4" orient="auto" markerUnits="strokeWidth"><path d="M 0 0 L 10 4 L 0 8 z" fill="#c85b73" /></marker><marker id="arrow-green" markerWidth="10" markerHeight="8" refX="9" refY="4" orient="auto" markerUnits="strokeWidth"><path d="M 0 0 L 10 4 L 0 8 z" fill="#4d8c6a" /></marker><marker id="arrow-gold" markerWidth="10" markerHeight="8" refX="9" refY="4" orient="auto" markerUnits="strokeWidth"><path d="M 0 0 L 10 4 L 0 8 z" fill="#c58a2d" /></marker><marker id="arrow-purple" markerWidth="10" markerHeight="8" refX="9" refY="4" orient="auto" markerUnits="strokeWidth"><path d="M 0 0 L 10 4 L 0 8 z" fill="#7b4b74" /></marker></defs><rect width="1500" height="720" fill="#fbfdff" /><text x="750.0" y="43" text-anchor="middle" font-family="Source Han Sans SC, Microsoft YaHei, sans-serif" font-size="31" font-weight="700" fill="#102a43">色调曲线重新分配对比：局部斜率决定邻近亮度差如何变化</text><line x1="750" y1="85" x2="750" y2="660" stroke="#d7e0e7" stroke-width="2" stroke-linecap="round" /><text x="375" y="105" text-anchor="middle" font-family="Source Han Sans SC, Microsoft YaHei, sans-serif" font-size="24" font-weight="700" fill="#285b7a">单调 S 曲线</text><line x1="90" y1="585" x2="690" y2="585" stroke="#334e68" stroke-width="2" stroke-linecap="round" marker-end="url(#arrow-dark)" /><line x1="90" y1="585" x2="90" y2="155" stroke="#334e68" stroke-width="2" stroke-linecap="round" marker-end="url(#arrow-dark)" /><text x="690" y="616" text-anchor="end" font-family="Source Han Sans SC, Microsoft YaHei, sans-serif" font-size="15" font-weight="400" fill="#627d98">输入 x</text><text x="86" y="143" text-anchor="start" font-family="Source Han Sans SC, Microsoft YaHei, sans-serif" font-size="15" font-weight="400" fill="#627d98">输出 T(x)</text><polyline points="90.00,585.00 92.00,584.69 94.00,584.38 96.00,584.06 98.00,583.73 100.00,583.40 102.00,583.06 104.00,582.71 106.00,582.35 108.00,581.98 110.00,581.61 112.00,581.23 114.00,580.84 116.00,580.44 118.00,580.04 120.00,579.62 122.00,579.20 124.00,578.76 126.00,578.32 128.00,577.87 130.00,577.40 132.00,576.93 134.00,576.45 136.00,575.96 138.00,575.45 140.00,574.94 142.00,574.42 144.00,573.88 146.00,573.33 148.00,572.77 150.00,572.20 152.00,571.62 154.00,571.03 156.00,570.42 158.00,569.80 160.00,569.17 162.00,568.53 164.00,567.87 166.00,567.20 168.00,566.51 170.00,565.81 172.00,565.10 174.00,564.37 176.00,563.63 178.00,562.88 180.00,562.10 182.00,561.32 184.00,560.51 186.00,559.70 188.00,558.86 190.00,558.01 192.00,557.14 194.00,556.26 196.00,555.36 198.00,554.44 200.00,553.50 202.00,552.55 204.00,551.58 206.00,550.59 208.00,549.58 210.00,548.56 212.00,547.51 214.00,546.45 216.00,545.36 218.00,544.26 220.00,543.14 222.00,541.99 224.00,540.83 226.00,539.64 228.00,538.44 230.00,537.21 232.00,535.97 234.00,534.70 236.00,533.41 238.00,532.10 240.00,530.76 242.00,529.41 244.00,528.03 246.00,526.63 248.00,525.21 250.00,523.76 252.00,522.30 254.00,520.80 256.00,519.29 258.00,517.75 260.00,516.19 262.00,514.61 264.00,513.00 266.00,511.37 268.00,509.71 270.00,508.03 272.00,506.33 274.00,504.60 276.00,502.85 278.00,501.07 280.00,499.28 282.00,497.45 284.00,495.61 286.00,493.74 288.00,491.84 290.00,489.92 292.00,487.98 294.00,486.02 296.00,484.03 298.00,482.02 300.00,479.98 302.00,477.92 304.00,475.84 306.00,473.74 308.00,471.61 310.00,469.46 312.00,467.29 314.00,465.10 316.00,462.89 318.00,460.65 320.00,458.40 322.00,456.12 324.00,453.83 326.00,451.51 328.00,449.18 330.00,446.82 332.00,444.45 334.00,442.06 336.00,439.65 338.00,437.23 340.00,434.79 342.00,432.33 344.00,429.85 346.00,427.37 348.00,424.86 350.00,422.34 352.00,419.81 354.00,417.27 356.00,414.71 358.00,412.14 360.00,409.57 362.00,406.98 364.00,404.38 366.00,401.77 368.00,399.15 370.00,396.53 372.00,393.89 374.00,391.25 376.00,388.61 378.00,385.96 380.00,383.31 382.00,380.65 384.00,377.99 386.00,375.33 388.00,372.66 390.00,370.00 392.00,367.34 394.00,364.67 396.00,362.01 398.00,359.35 400.00,356.69 402.00,354.04 404.00,351.39 406.00,348.75 408.00,346.11 410.00,343.47 412.00,340.85 414.00,338.23 416.00,335.62 418.00,333.02 420.00,330.43 422.00,327.86 424.00,325.29 426.00,322.73 428.00,320.19 430.00,317.66 432.00,315.14 434.00,312.63 436.00,310.15 438.00,307.67 440.00,305.21 442.00,302.77 444.00,300.35 446.00,297.94 448.00,295.55 450.00,293.18 452.00,290.82 454.00,288.49 456.00,286.17 458.00,283.88 460.00,281.60 462.00,279.35 464.00,277.11 466.00,274.90 468.00,272.71 470.00,270.54 472.00,268.39 474.00,266.26 476.00,264.16 478.00,262.08 480.00,260.02 482.00,257.98 484.00,255.97 486.00,253.98 488.00,252.02 490.00,250.08 492.00,248.16 494.00,246.26 496.00,244.39 498.00,242.55 500.00,240.72 502.00,238.93 504.00,237.15 506.00,235.40 508.00,233.67 510.00,231.97 512.00,230.29 514.00,228.63 516.00,227.00 518.00,225.39 520.00,223.81 522.00,222.25 524.00,220.71 526.00,219.20 528.00,217.70 530.00,216.24 532.00,214.79 534.00,213.37 536.00,211.97 538.00,210.59 540.00,209.24 542.00,207.90 544.00,206.59 546.00,205.30 548.00,204.03 550.00,202.79 552.00,201.56 554.00,200.36 556.00,199.17 558.00,198.01 560.00,196.86 562.00,195.74 564.00,194.64 566.00,193.55 568.00,192.49 570.00,191.44 572.00,190.42 574.00,189.41 576.00,188.42 578.00,187.45 580.00,186.50 582.00,185.56 584.00,184.64 586.00,183.74 588.00,182.86 590.00,181.99 592.00,181.14 594.00,180.30 596.00,179.49 598.00,178.68 600.00,177.90 602.00,177.12 604.00,176.37 606.00,175.63 608.00,174.90 610.00,174.19 612.00,173.49 614.00,172.80 616.00,172.13 618.00,171.47 620.00,170.83 622.00,170.20 624.00,169.58 626.00,168.97 628.00,168.38 630.00,167.80 632.00,167.23 634.00,166.67 636.00,166.12 638.00,165.58 640.00,165.06 642.00,164.55 644.00,164.04 646.00,163.55 648.00,163.07 650.00,162.60 652.00,162.13 654.00,161.68 656.00,161.24 658.00,160.80 660.00,160.38 662.00,159.96 664.00,159.56 666.00,159.16 668.00,158.77 670.00,158.39 672.00,158.02 674.00,157.65 676.00,157.29 678.00,156.94 680.00,156.60 682.00,156.27 684.00,155.94 686.00,155.62 688.00,155.31 690.00,155.00" stroke="#3b82b5" stroke-width="5" fill="none" stroke-linejoin="round" stroke-linecap="round" /><line x1="90" y1="585" x2="690" y2="155" stroke="#8aa2b5" stroke-width="2" stroke-linecap="round" stroke-dasharray="8 5" /><circle cx="198.0" cy="554.4400135375968" r="7" fill="#7b4b74" /><text x="218.0" y="536.4400135375968" text-anchor="start" font-family="Source Han Sans SC, Microsoft YaHei, sans-serif" font-size="16" font-weight="700" fill="#7b4b74">toe</text><circle cx="390.0" cy="369.99999999999994" r="7" fill="#4d8c6a" /><text x="410.0" y="351.99999999999994" text-anchor="start" font-family="Source Han Sans SC, Microsoft YaHei, sans-serif" font-size="16" font-weight="700" fill="#4d8c6a">中间调高斜率</text><circle cx="588.0" cy="182.85704740218063" r="7" fill="#c85b73" /><text x="568.0" y="164.85704740218063" text-anchor="end" font-family="Source Han Sans SC, Microsoft YaHei, sans-serif" font-size="16" font-weight="700" fill="#c85b73">shoulder</text><text x="375" y="630" text-anchor="middle" font-family="Source Han Sans SC, Microsoft YaHei, sans-serif" font-size="17" font-weight="400" fill="#7b4b74">端点固定时，提高某段对比必然挤压其他区间</text><text x="1125" y="105" text-anchor="middle" font-family="Source Han Sans SC, Microsoft YaHei, sans-serif" font-size="24" font-weight="700" fill="#a24862">局部对比增益</text><line x1="830" y1="585" x2="1420" y2="585" stroke="#334e68" stroke-width="2" stroke-linecap="round" marker-end="url(#arrow-dark)" /><line x1="830" y1="585" x2="830" y2="155" stroke="#334e68" stroke-width="2" stroke-linecap="round" marker-end="url(#arrow-dark)" /><text x="1420" y="616" text-anchor="end" font-family="Source Han Sans SC, Microsoft YaHei, sans-serif" font-size="15" font-weight="400" fill="#627d98">输入 x</text><text x="826" y="143" text-anchor="start" font-family="Source Han Sans SC, Microsoft YaHei, sans-serif" font-size="15" font-weight="400" fill="#627d98">T′(x)</text><polyline points="830.00,539.51 831.97,538.50 833.93,537.47 835.90,536.42 837.87,535.35 839.83,534.25 841.80,533.13 843.77,531.99 845.73,530.83 847.70,529.64 849.67,528.43 851.63,527.20 853.60,525.94 855.57,524.65 857.53,523.34 859.50,522.01 861.47,520.64 863.43,519.25 865.40,517.84 867.37,516.40 869.33,514.93 871.30,513.43 873.27,511.90 875.23,510.34 877.20,508.76 879.17,507.14 881.13,505.50 883.10,503.82 885.07,502.11 887.03,500.38 889.00,498.61 890.97,496.81 892.93,494.97 894.90,493.11 896.87,491.21 898.83,489.28 900.80,487.32 902.77,485.32 904.73,483.29 906.70,481.22 908.67,479.12 910.63,476.98 912.60,474.81 914.57,472.61 916.53,470.37 918.50,468.09 920.47,465.78 922.43,463.43 924.40,461.04 926.37,458.62 928.33,456.17 930.30,453.67 932.27,451.14 934.23,448.58 936.20,445.98 938.17,443.34 940.13,440.67 942.10,437.96 944.07,435.21 946.03,432.43 948.00,429.61 949.97,426.76 951.93,423.87 953.90,420.95 955.87,418.00 957.83,415.00 959.80,411.98 961.77,408.92 963.73,405.84 965.70,402.71 967.67,399.56 969.63,396.38 971.60,393.17 973.57,389.92 975.53,386.65 977.50,383.35 979.47,380.03 981.43,376.68 983.40,373.30 985.37,369.90 987.33,366.48 989.30,363.04 991.27,359.57 993.23,356.09 995.20,352.59 997.17,349.08 999.13,345.55 1001.10,342.00 1003.07,338.45 1005.03,334.88 1007.00,331.31 1008.97,327.73 1010.93,324.14 1012.90,320.55 1014.87,316.96 1016.83,313.37 1018.80,309.79 1020.77,306.21 1022.73,302.63 1024.70,299.07 1026.67,295.52 1028.63,291.98 1030.60,288.45 1032.57,284.95 1034.53,281.46 1036.50,278.00 1038.47,274.56 1040.43,271.16 1042.40,267.78 1044.37,264.43 1046.33,261.12 1048.30,257.85 1050.27,254.62 1052.23,251.43 1054.20,248.29 1056.17,245.20 1058.13,242.15 1060.10,239.16 1062.07,236.23 1064.03,233.36 1066.00,230.54 1067.97,227.79 1069.93,225.11 1071.90,222.49 1073.87,219.95 1075.83,217.48 1077.80,215.09 1079.77,212.77 1081.73,210.53 1083.70,208.38 1085.67,206.31 1087.63,204.33 1089.60,202.44 1091.57,200.64 1093.53,198.93 1095.50,197.31 1097.47,195.79 1099.43,194.37 1101.40,193.05 1103.37,191.83 1105.33,190.71 1107.30,189.69 1109.27,188.78 1111.23,187.97 1113.20,187.27 1115.17,186.68 1117.13,186.19 1119.10,185.81 1121.07,185.54 1123.03,185.37 1125.00,185.32 1126.97,185.37 1128.93,185.54 1130.90,185.81 1132.87,186.19 1134.83,186.68 1136.80,187.27 1138.77,187.97 1140.73,188.78 1142.70,189.69 1144.67,190.71 1146.63,191.83 1148.60,193.05 1150.57,194.37 1152.53,195.79 1154.50,197.31 1156.47,198.93 1158.43,200.64 1160.40,202.44 1162.37,204.33 1164.33,206.31 1166.30,208.38 1168.27,210.53 1170.23,212.77 1172.20,215.09 1174.17,217.48 1176.13,219.95 1178.10,222.49 1180.07,225.11 1182.03,227.79 1184.00,230.54 1185.97,233.36 1187.93,236.23 1189.90,239.16 1191.87,242.15 1193.83,245.20 1195.80,248.29 1197.77,251.43 1199.73,254.62 1201.70,257.85 1203.67,261.12 1205.63,264.43 1207.60,267.78 1209.57,271.16 1211.53,274.56 1213.50,278.00 1215.47,281.46 1217.43,284.95 1219.40,288.45 1221.37,291.98 1223.33,295.52 1225.30,299.07 1227.27,302.63 1229.23,306.21 1231.20,309.79 1233.17,313.37 1235.13,316.96 1237.10,320.55 1239.07,324.14 1241.03,327.73 1243.00,331.31 1244.97,334.88 1246.93,338.45 1248.90,342.00 1250.87,345.55 1252.83,349.08 1254.80,352.59 1256.77,356.09 1258.73,359.57 1260.70,363.04 1262.67,366.48 1264.63,369.90 1266.60,373.30 1268.57,376.68 1270.53,380.03 1272.50,383.35 1274.47,386.65 1276.43,389.92 1278.40,393.17 1280.37,396.38 1282.33,399.56 1284.30,402.71 1286.27,405.84 1288.23,408.92 1290.20,411.98 1292.17,415.00 1294.13,418.00 1296.10,420.95 1298.07,423.87 1300.03,426.76 1302.00,429.61 1303.97,432.43 1305.93,435.21 1307.90,437.96 1309.87,440.67 1311.83,443.34 1313.80,445.98 1315.77,448.58 1317.73,451.14 1319.70,453.67 1321.67,456.17 1323.63,458.62 1325.60,461.04 1327.57,463.43 1329.53,465.78 1331.50,468.09 1333.47,470.37 1335.43,472.61 1337.40,474.81 1339.37,476.98 1341.33,479.12 1343.30,481.22 1345.27,483.29 1347.23,485.32 1349.20,487.32 1351.17,489.28 1353.13,491.21 1355.10,493.11 1357.07,494.97 1359.03,496.81 1361.00,498.61 1362.97,500.38 1364.93,502.11 1366.90,503.82 1368.87,505.50 1370.83,507.14 1372.80,508.76 1374.77,510.34 1376.73,511.90 1378.70,513.43 1380.67,514.93 1382.63,516.40 1384.60,517.84 1386.57,519.25 1388.53,520.64 1390.50,522.01 1392.47,523.34 1394.43,524.65 1396.40,525.94 1398.37,527.20 1400.33,528.43 1402.30,529.64 1404.27,530.83 1406.23,531.99 1408.20,533.13 1410.17,534.25 1412.13,535.35 1414.10,536.42 1416.07,537.47 1418.03,538.50 1420.00,539.51" stroke="#c85b73" stroke-width="5" fill="none" stroke-linejoin="round" stroke-linecap="round" /><line x1="830" y1="370.0" x2="1420" y2="370.0" stroke="#8aa2b5" stroke-width="2" stroke-linecap="round" stroke-dasharray="8 5" /><text x="1410" y="358.0" text-anchor="end" font-family="Source Han Sans SC, Microsoft YaHei, sans-serif" font-size="15" font-weight="400" fill="#627d98">斜率 1：局部对比不变</text><text x="1125" y="630" text-anchor="middle" font-family="Source Han Sans SC, Microsoft YaHei, sans-serif" font-size="17" font-weight="400" fill="#7b4b74">曝光域对比增益还可写为 xT′(x)/T(x)</text></svg>