<?xml version='1.0' encoding='utf-8'?>
<svg xmlns="http://www.w3.org/2000/svg" width="1500" height="720" viewBox="0 0 1500 720" role="img" aria-label="线性sRGB和幂律的OETF与EOTF曲线"><defs><marker id="arrow-blue" markerWidth="10" markerHeight="8" refX="9" refY="4" orient="auto" markerUnits="strokeWidth"><path d="M 0 0 L 10 4 L 0 8 z" fill="#3b82b5" /></marker><marker id="arrow-dark" markerWidth="10" markerHeight="8" refX="9" refY="4" orient="auto" markerUnits="strokeWidth"><path d="M 0 0 L 10 4 L 0 8 z" fill="#334e68" /></marker><marker id="arrow-red" markerWidth="10" markerHeight="8" refX="9" refY="4" orient="auto" markerUnits="strokeWidth"><path d="M 0 0 L 10 4 L 0 8 z" fill="#c85b73" /></marker><marker id="arrow-green" markerWidth="10" markerHeight="8" refX="9" refY="4" orient="auto" markerUnits="strokeWidth"><path d="M 0 0 L 10 4 L 0 8 z" fill="#4d8c6a" /></marker><marker id="arrow-gold" markerWidth="10" markerHeight="8" refX="9" refY="4" orient="auto" markerUnits="strokeWidth"><path d="M 0 0 L 10 4 L 0 8 z" fill="#c58a2d" /></marker><marker id="arrow-purple" markerWidth="10" markerHeight="8" refX="9" refY="4" orient="auto" markerUnits="strokeWidth"><path d="M 0 0 L 10 4 L 0 8 z" fill="#7b4b74" /></marker></defs><rect width="1500" height="720" fill="#fbfdff" /><text x="750.0" y="43" text-anchor="middle" font-family="Source Han Sans SC, Microsoft YaHei, sans-serif" font-size="31" font-weight="700" fill="#102a43">非线性编码把更多码值分配给低亮度，但不改变原始光子统计</text><line x1="750" y1="85" x2="750" y2="655" stroke="#d7e0e7" stroke-width="2" stroke-linecap="round" /><text x="380.0" y="105" text-anchor="middle" font-family="Source Han Sans SC, Microsoft YaHei, sans-serif" font-size="23" font-weight="700" fill="#285b7a">OETF：线性光 → 码值</text><line x1="110" y1="545" x2="660" y2="545" stroke="#334e68" stroke-width="2" stroke-linecap="round" marker-end="url(#arrow-dark)" /><line x1="110" y1="545" x2="110" y2="160" stroke="#334e68" stroke-width="2" stroke-linecap="round" marker-end="url(#arrow-dark)" /><text x="660" y="576" text-anchor="end" font-family="Source Han Sans SC, Microsoft YaHei, sans-serif" font-size="15" font-weight="400" fill="#627d98">输入</text><text x="106" y="148" text-anchor="start" font-family="Source Han Sans SC, Microsoft YaHei, sans-serif" font-size="15" font-weight="400" fill="#627d98">输出</text><line x1="110" y1="160" x2="110" y2="545" stroke="#e0e7ec" stroke-width="1" stroke-linecap="round" /><line x1="110" y1="545" x2="660" y2="545" stroke="#e0e7ec" stroke-width="1" stroke-linecap="round" /><line x1="247.5" y1="160" x2="247.5" y2="545" stroke="#e0e7ec" stroke-width="1" stroke-linecap="round" /><line x1="110" y1="448.75" x2="660" y2="448.75" stroke="#e0e7ec" stroke-width="1" stroke-linecap="round" /><line x1="385.0" y1="160" x2="385.0" y2="545" stroke="#e0e7ec" stroke-width="1" stroke-linecap="round" /><line x1="110" y1="352.5" x2="660" y2="352.5" stroke="#e0e7ec" stroke-width="1" stroke-linecap="round" /><line x1="522.5" y1="160" x2="522.5" y2="545" stroke="#e0e7ec" stroke-width="1" stroke-linecap="round" /><line x1="110" y1="256.25" x2="660" y2="256.25" stroke="#e0e7ec" stroke-width="1" stroke-linecap="round" /><line x1="660.0" y1="160" x2="660.0" y2="545" stroke="#e0e7ec" stroke-width="1" stroke-linecap="round" /><line x1="110" y1="160.0" x2="660" y2="160.0" stroke="#e0e7ec" stroke-width="1" stroke-linecap="round" /><polyline points="110.00,545.00 112.75,543.08 115.50,541.15 118.25,539.23 121.00,537.30 123.75,535.38 126.50,533.45 129.25,531.52 132.00,529.60 134.75,527.67 137.50,525.75 140.25,523.83 143.00,521.90 145.75,519.98 148.50,518.05 151.25,516.12 154.00,514.20 156.75,512.27 159.50,510.35 162.25,508.43 165.00,506.50 167.75,504.57 170.50,502.65 173.25,500.73 176.00,498.80 178.75,496.88 181.50,494.95 184.25,493.02 187.00,491.10 189.75,489.18 192.50,487.25 195.25,485.32 198.00,483.40 200.75,481.48 203.50,479.55 206.25,477.62 209.00,475.70 211.75,473.77 214.50,471.85 217.25,469.93 220.00,468.00 222.75,466.07 225.50,464.15 228.25,462.23 231.00,460.30 233.75,458.38 236.50,456.45 239.25,454.52 242.00,452.60 244.75,450.68 247.50,448.75 250.25,446.82 253.00,444.90 255.75,442.98 258.50,441.05 261.25,439.12 264.00,437.20 266.75,435.27 269.50,433.35 272.25,431.43 275.00,429.50 277.75,427.57 280.50,425.65 283.25,423.73 286.00,421.80 288.75,419.88 291.50,417.95 294.25,416.02 297.00,414.10 299.75,412.18 302.50,410.25 305.25,408.33 308.00,406.40 310.75,404.48 313.50,402.55 316.25,400.62 319.00,398.70 321.75,396.77 324.50,394.85 327.25,392.92 330.00,391.00 332.75,389.07 335.50,387.15 338.25,385.23 341.00,383.30 343.75,381.38 346.50,379.45 349.25,377.52 352.00,375.60 354.75,373.68 357.50,371.75 360.25,369.82 363.00,367.90 365.75,365.98 368.50,364.05 371.25,362.12 374.00,360.20 376.75,358.27 379.50,356.35 382.25,354.43 385.00,352.50 387.75,350.57 390.50,348.65 393.25,346.73 396.00,344.80 398.75,342.88 401.50,340.95 404.25,339.02 407.00,337.10 409.75,335.17 412.50,333.25 415.25,331.32 418.00,329.40 420.75,327.48 423.50,325.55 426.25,323.62 429.00,321.70 431.75,319.77 434.50,317.85 437.25,315.93 440.00,314.00 442.75,312.08 445.50,310.15 448.25,308.23 451.00,306.30 453.75,304.38 456.50,302.45 459.25,300.52 462.00,298.60 464.75,296.67 467.50,294.75 470.25,292.82 473.00,290.90 475.75,288.97 478.50,287.05 481.25,285.12 484.00,283.20 486.75,281.27 489.50,279.35 492.25,277.43 495.00,275.50 497.75,273.57 500.50,271.65 503.25,269.73 506.00,267.80 508.75,265.88 511.50,263.95 514.25,262.02 517.00,260.10 519.75,258.18 522.50,256.25 525.25,254.32 528.00,252.40 530.75,250.48 533.50,248.55 536.25,246.62 539.00,244.70 541.75,242.77 544.50,240.85 547.25,238.93 550.00,237.00 552.75,235.07 555.50,233.15 558.25,231.23 561.00,229.30 563.75,227.38 566.50,225.45 569.25,223.53 572.00,221.60 574.75,219.68 577.50,217.75 580.25,215.82 583.00,213.90 585.75,211.98 588.50,210.05 591.25,208.12 594.00,206.20 596.75,204.27 599.50,202.35 602.25,200.43 605.00,198.50 607.75,196.57 610.50,194.65 613.25,192.72 616.00,190.80 618.75,188.88 621.50,186.95 624.25,185.02 627.00,183.10 629.75,181.18 632.50,179.25 635.25,177.32 638.00,175.40 640.75,173.48 643.50,171.55 646.25,169.62 649.00,167.70 651.75,165.77 654.50,163.85 657.25,161.93 660.00,160.00" stroke="#8aa2b5" stroke-width="4" fill="none" stroke-linejoin="round" stroke-linecap="round" stroke-dasharray="8 5" /><polyline points="110.00,545.00 112.75,521.51 115.50,506.56 118.25,495.58 121.00,486.59 123.75,478.84 126.50,471.95 129.25,465.70 132.00,459.95 134.75,454.60 137.50,449.60 140.25,444.87 143.00,440.40 145.75,436.13 148.50,432.05 151.25,428.14 154.00,424.38 156.75,420.75 159.50,417.25 162.25,413.85 165.00,410.56 167.75,407.37 170.50,404.26 173.25,401.23 176.00,398.28 178.75,395.40 181.50,392.59 184.25,389.83 187.00,387.14 189.75,384.51 192.50,381.92 195.25,379.39 198.00,376.90 200.75,374.46 203.50,372.06 206.25,369.70 209.00,367.38 211.75,365.10 214.50,362.85 217.25,360.64 220.00,358.46 222.75,356.31 225.50,354.19 228.25,352.10 231.00,350.04 233.75,348.01 236.50,346.00 239.25,344.02 242.00,342.06 244.75,340.13 247.50,338.22 250.25,336.33 253.00,334.46 255.75,332.61 258.50,330.79 261.25,328.98 264.00,327.19 266.75,325.43 269.50,323.67 272.25,321.94 275.00,320.22 277.75,318.53 280.50,316.84 283.25,315.17 286.00,313.52 288.75,311.88 291.50,310.26 294.25,308.65 297.00,307.06 299.75,305.48 302.50,303.91 305.25,302.35 308.00,300.81 310.75,299.28 313.50,297.77 316.25,296.26 319.00,294.77 321.75,293.28 324.50,291.81 327.25,290.35 330.00,288.90 332.75,287.46 335.50,286.04 338.25,284.62 341.00,283.21 343.75,281.81 346.50,280.42 349.25,279.04 352.00,277.67 354.75,276.31 357.50,274.96 360.25,273.61 363.00,272.28 365.75,270.95 368.50,269.63 371.25,268.32 374.00,267.02 376.75,265.72 379.50,264.44 382.25,263.16 385.00,261.89 387.75,260.62 390.50,259.37 393.25,258.12 396.00,256.87 398.75,255.64 401.50,254.41 404.25,253.19 407.00,251.97 409.75,250.76 412.50,249.56 415.25,248.36 418.00,247.17 420.75,245.99 423.50,244.81 426.25,243.64 429.00,242.48 431.75,241.32 434.50,240.16 437.25,239.01 440.00,237.87 442.75,236.73 445.50,235.60 448.25,234.48 451.00,233.35 453.75,232.24 456.50,231.13 459.25,230.02 462.00,228.92 464.75,227.83 467.50,226.74 470.25,225.65 473.00,224.57 475.75,223.49 478.50,222.42 481.25,221.36 484.00,220.30 486.75,219.24 489.50,218.18 492.25,217.14 495.00,216.09 497.75,215.05 500.50,214.02 503.25,212.99 506.00,211.96 508.75,210.94 511.50,209.92 514.25,208.90 517.00,207.89 519.75,206.89 522.50,205.88 525.25,204.88 528.00,203.89 530.75,202.90 533.50,201.91 536.25,200.93 539.00,199.95 541.75,198.97 544.50,198.00 547.25,197.03 550.00,196.06 552.75,195.10 555.50,194.14 558.25,193.19 561.00,192.23 563.75,191.29 566.50,190.34 569.25,189.40 572.00,188.46 574.75,187.53 577.50,186.59 580.25,185.67 583.00,184.74 585.75,183.82 588.50,182.90 591.25,181.98 594.00,181.07 596.75,180.16 599.50,179.25 602.25,178.35 605.00,177.45 607.75,176.55 610.50,175.65 613.25,174.76 616.00,173.87 618.75,172.98 621.50,172.10 624.25,171.22 627.00,170.34 629.75,169.46 632.50,168.59 635.25,167.72 638.00,166.85 640.75,165.98 643.50,165.12 646.25,164.26 649.00,163.40 651.75,162.55 654.50,161.70 657.25,160.85 660.00,160.00" stroke="#3b82b5" stroke-width="4" fill="none" stroke-linejoin="round" stroke-linecap="round" /><polyline points="110.00,545.00 112.75,510.36 115.50,497.54 118.25,487.93 121.00,479.96 123.75,473.01 126.50,466.79 129.25,461.12 132.00,455.87 134.75,450.97 137.50,446.35 140.25,441.99 143.00,437.83 145.75,433.86 148.50,430.05 151.25,426.39 154.00,422.86 156.75,419.45 159.50,416.14 162.25,412.93 165.00,409.82 167.75,406.79 170.50,403.83 173.25,400.95 176.00,398.14 178.75,395.39 181.50,392.70 184.25,390.06 187.00,387.48 189.75,384.95 192.50,382.46 195.25,380.02 198.00,377.62 200.75,375.26 203.50,372.95 206.25,370.66 209.00,368.42 211.75,366.20 214.50,364.02 217.25,361.87 220.00,359.75 222.75,357.66 225.50,355.60 228.25,353.56 231.00,351.55 233.75,349.57 236.50,347.60 239.25,345.67 242.00,343.75 244.75,341.85 247.50,339.98 250.25,338.13 253.00,336.29 255.75,334.48 258.50,332.68 261.25,330.90 264.00,329.14 266.75,327.40 269.50,325.67 272.25,323.96 275.00,322.26 277.75,320.59 280.50,318.92 283.25,317.27 286.00,315.63 288.75,314.01 291.50,312.40 294.25,310.81 297.00,309.23 299.75,307.66 302.50,306.10 305.25,304.55 308.00,303.02 310.75,301.50 313.50,299.99 316.25,298.49 319.00,297.00 321.75,295.52 324.50,294.05 327.25,292.60 330.00,291.15 332.75,289.71 335.50,288.28 338.25,286.87 341.00,285.46 343.75,284.06 346.50,282.67 349.25,281.28 352.00,279.91 354.75,278.54 357.50,277.19 360.25,275.84 363.00,274.50 365.75,273.17 368.50,271.84 371.25,270.52 374.00,269.22 376.75,267.91 379.50,266.62 382.25,265.33 385.00,264.05 387.75,262.78 390.50,261.51 393.25,260.25 396.00,259.00 398.75,257.75 401.50,256.51 404.25,255.28 407.00,254.05 409.75,252.83 412.50,251.61 415.25,250.40 418.00,249.20 420.75,248.00 423.50,246.81 426.25,245.62 429.00,244.44 431.75,243.27 434.50,242.10 437.25,240.93 440.00,239.77 442.75,238.62 445.50,237.47 448.25,236.33 451.00,235.19 453.75,234.06 456.50,232.93 459.25,231.81 462.00,230.69 464.75,229.57 467.50,228.47 470.25,227.36 473.00,226.26 475.75,225.17 478.50,224.07 481.25,222.99 484.00,221.91 486.75,220.83 489.50,219.76 492.25,218.69 495.00,217.62 497.75,216.56 500.50,215.50 503.25,214.45 506.00,213.40 508.75,212.36 511.50,211.32 514.25,210.28 517.00,209.25 519.75,208.22 522.50,207.19 525.25,206.17 528.00,205.15 530.75,204.14 533.50,203.13 536.25,202.12 539.00,201.12 541.75,200.12 544.50,199.12 547.25,198.12 550.00,197.14 552.75,196.15 555.50,195.17 558.25,194.19 561.00,193.21 563.75,192.24 566.50,191.26 569.25,190.30 572.00,189.33 574.75,188.37 577.50,187.42 580.25,186.46 583.00,185.51 585.75,184.56 588.50,183.62 591.25,182.67 594.00,181.73 596.75,180.80 599.50,179.86 602.25,178.93 605.00,178.00 607.75,177.08 610.50,176.16 613.25,175.24 616.00,174.32 618.75,173.40 621.50,172.49 624.25,171.58 627.00,170.68 629.75,169.77 632.50,168.87 635.25,167.97 638.00,167.08 640.75,166.18 643.50,165.29 646.25,164.41 649.00,163.52 651.75,162.64 654.50,161.75 657.25,160.88 660.00,160.00" stroke="#7b4b74" stroke-width="4" fill="none" stroke-linejoin="round" stroke-linecap="round" /><line x1="168" y1="594" x2="210" y2="594" stroke="#8aa2b5" stroke-width="4" stroke-linecap="round" stroke-dasharray="8 5" /><text x="220" y="600" text-anchor="start" font-family="Source Han Sans SC, Microsoft YaHei, sans-serif" font-size="15" font-weight="700" fill="#8aa2b5">线性</text><line x1="333" y1="594" x2="375" y2="594" stroke="#3b82b5" stroke-width="4" stroke-linecap="round" /><text x="385" y="600" text-anchor="start" font-family="Source Han Sans SC, Microsoft YaHei, sans-serif" font-size="15" font-weight="700" fill="#3b82b5">sRGB</text><line x1="498" y1="594" x2="540" y2="594" stroke="#7b4b74" stroke-width="4" stroke-linecap="round" /><text x="550" y="600" text-anchor="start" font-family="Source Han Sans SC, Microsoft YaHei, sans-serif" font-size="15" font-weight="700" fill="#7b4b74">幂律 2.2</text><text x="1120.0" y="105" text-anchor="middle" font-family="Source Han Sans SC, Microsoft YaHei, sans-serif" font-size="23" font-weight="700" fill="#a24862">EOTF：码值 → 显示光</text><line x1="850" y1="545" x2="1400" y2="545" stroke="#334e68" stroke-width="2" stroke-linecap="round" marker-end="url(#arrow-dark)" /><line x1="850" y1="545" x2="850" y2="160" stroke="#334e68" stroke-width="2" stroke-linecap="round" marker-end="url(#arrow-dark)" /><text x="1400" y="576" text-anchor="end" font-family="Source Han Sans SC, Microsoft YaHei, sans-serif" font-size="15" font-weight="400" fill="#627d98">输入</text><text x="846" y="148" text-anchor="start" font-family="Source Han Sans SC, Microsoft YaHei, sans-serif" font-size="15" font-weight="400" fill="#627d98">输出</text><line x1="850" y1="160" x2="850" y2="545" stroke="#e0e7ec" stroke-width="1" stroke-linecap="round" /><line x1="850" y1="545" x2="1400" y2="545" stroke="#e0e7ec" stroke-width="1" stroke-linecap="round" /><line x1="987.5" y1="160" x2="987.5" y2="545" stroke="#e0e7ec" stroke-width="1" stroke-linecap="round" /><line x1="850" y1="448.75" x2="1400" y2="448.75" stroke="#e0e7ec" stroke-width="1" stroke-linecap="round" /><line x1="1125.0" y1="160" x2="1125.0" y2="545" stroke="#e0e7ec" stroke-width="1" stroke-linecap="round" /><line x1="850" y1="352.5" x2="1400" y2="352.5" stroke="#e0e7ec" stroke-width="1" stroke-linecap="round" /><line x1="1262.5" y1="160" x2="1262.5" y2="545" stroke="#e0e7ec" stroke-width="1" stroke-linecap="round" /><line x1="850" y1="256.25" x2="1400" y2="256.25" stroke="#e0e7ec" stroke-width="1" stroke-linecap="round" /><line x1="1400.0" y1="160" x2="1400.0" y2="545" stroke="#e0e7ec" stroke-width="1" stroke-linecap="round" /><line x1="850" y1="160.0" x2="1400" y2="160.0" stroke="#e0e7ec" stroke-width="1" stroke-linecap="round" /><polyline points="850.00,545.00 852.75,543.08 855.50,541.15 858.25,539.23 861.00,537.30 863.75,535.38 866.50,533.45 869.25,531.52 872.00,529.60 874.75,527.67 877.50,525.75 880.25,523.83 883.00,521.90 885.75,519.98 888.50,518.05 891.25,516.12 894.00,514.20 896.75,512.27 899.50,510.35 902.25,508.43 905.00,506.50 907.75,504.57 910.50,502.65 913.25,500.73 916.00,498.80 918.75,496.88 921.50,494.95 924.25,493.02 927.00,491.10 929.75,489.18 932.50,487.25 935.25,485.32 938.00,483.40 940.75,481.48 943.50,479.55 946.25,477.62 949.00,475.70 951.75,473.77 954.50,471.85 957.25,469.93 960.00,468.00 962.75,466.07 965.50,464.15 968.25,462.23 971.00,460.30 973.75,458.38 976.50,456.45 979.25,454.52 982.00,452.60 984.75,450.68 987.50,448.75 990.25,446.82 993.00,444.90 995.75,442.98 998.50,441.05 1001.25,439.12 1004.00,437.20 1006.75,435.27 1009.50,433.35 1012.25,431.43 1015.00,429.50 1017.75,427.57 1020.50,425.65 1023.25,423.73 1026.00,421.80 1028.75,419.88 1031.50,417.95 1034.25,416.02 1037.00,414.10 1039.75,412.18 1042.50,410.25 1045.25,408.33 1048.00,406.40 1050.75,404.48 1053.50,402.55 1056.25,400.62 1059.00,398.70 1061.75,396.77 1064.50,394.85 1067.25,392.92 1070.00,391.00 1072.75,389.07 1075.50,387.15 1078.25,385.23 1081.00,383.30 1083.75,381.38 1086.50,379.45 1089.25,377.52 1092.00,375.60 1094.75,373.68 1097.50,371.75 1100.25,369.82 1103.00,367.90 1105.75,365.98 1108.50,364.05 1111.25,362.12 1114.00,360.20 1116.75,358.27 1119.50,356.35 1122.25,354.43 1125.00,352.50 1127.75,350.57 1130.50,348.65 1133.25,346.73 1136.00,344.80 1138.75,342.88 1141.50,340.95 1144.25,339.02 1147.00,337.10 1149.75,335.17 1152.50,333.25 1155.25,331.32 1158.00,329.40 1160.75,327.48 1163.50,325.55 1166.25,323.62 1169.00,321.70 1171.75,319.77 1174.50,317.85 1177.25,315.93 1180.00,314.00 1182.75,312.08 1185.50,310.15 1188.25,308.23 1191.00,306.30 1193.75,304.38 1196.50,302.45 1199.25,300.52 1202.00,298.60 1204.75,296.67 1207.50,294.75 1210.25,292.82 1213.00,290.90 1215.75,288.97 1218.50,287.05 1221.25,285.12 1224.00,283.20 1226.75,281.27 1229.50,279.35 1232.25,277.43 1235.00,275.50 1237.75,273.57 1240.50,271.65 1243.25,269.73 1246.00,267.80 1248.75,265.88 1251.50,263.95 1254.25,262.02 1257.00,260.10 1259.75,258.18 1262.50,256.25 1265.25,254.32 1268.00,252.40 1270.75,250.48 1273.50,248.55 1276.25,246.62 1279.00,244.70 1281.75,242.77 1284.50,240.85 1287.25,238.93 1290.00,237.00 1292.75,235.07 1295.50,233.15 1298.25,231.23 1301.00,229.30 1303.75,227.38 1306.50,225.45 1309.25,223.53 1312.00,221.60 1314.75,219.68 1317.50,217.75 1320.25,215.82 1323.00,213.90 1325.75,211.98 1328.50,210.05 1331.25,208.12 1334.00,206.20 1336.75,204.27 1339.50,202.35 1342.25,200.43 1345.00,198.50 1347.75,196.57 1350.50,194.65 1353.25,192.72 1356.00,190.80 1358.75,188.88 1361.50,186.95 1364.25,185.02 1367.00,183.10 1369.75,181.18 1372.50,179.25 1375.25,177.32 1378.00,175.40 1380.75,173.48 1383.50,171.55 1386.25,169.62 1389.00,167.70 1391.75,165.77 1394.50,163.85 1397.25,161.93 1400.00,160.00" stroke="#8aa2b5" stroke-width="4" fill="none" stroke-linejoin="round" stroke-linecap="round" stroke-dasharray="8 5" /><polyline points="850.00,545.00 852.75,544.85 855.50,544.70 858.25,544.55 861.00,544.40 863.75,544.26 866.50,544.11 869.25,543.96 872.00,543.81 874.75,543.65 877.50,543.48 880.25,543.31 883.00,543.11 885.75,542.91 888.50,542.70 891.25,542.47 894.00,542.23 896.75,541.98 899.50,541.71 902.25,541.43 905.00,541.14 907.75,540.84 910.50,540.52 913.25,540.18 916.00,539.84 918.75,539.48 921.50,539.10 924.25,538.71 927.00,538.31 929.75,537.89 932.50,537.45 935.25,537.00 938.00,536.54 940.75,536.06 943.50,535.56 946.25,535.05 949.00,534.52 951.75,533.98 954.50,533.42 957.25,532.85 960.00,532.25 962.75,531.65 965.50,531.02 968.25,530.38 971.00,529.72 973.75,529.05 976.50,528.36 979.25,527.65 982.00,526.92 984.75,526.17 987.50,525.41 990.25,524.63 993.00,523.84 995.75,523.02 998.50,522.19 1001.25,521.34 1004.00,520.47 1006.75,519.58 1009.50,518.67 1012.25,517.75 1015.00,516.80 1017.75,515.84 1020.50,514.86 1023.25,513.86 1026.00,512.84 1028.75,511.80 1031.50,510.74 1034.25,509.66 1037.00,508.57 1039.75,507.45 1042.50,506.31 1045.25,505.16 1048.00,503.98 1050.75,502.79 1053.50,501.57 1056.25,500.33 1059.00,499.08 1061.75,497.80 1064.50,496.50 1067.25,495.18 1070.00,493.85 1072.75,492.49 1075.50,491.11 1078.25,489.70 1081.00,488.28 1083.75,486.84 1086.50,485.37 1089.25,483.89 1092.00,482.38 1094.75,480.85 1097.50,479.30 1100.25,477.73 1103.00,476.14 1105.75,474.52 1108.50,472.88 1111.25,471.22 1114.00,469.54 1116.75,467.84 1119.50,466.11 1122.25,464.36 1125.00,462.59 1127.75,460.80 1130.50,458.99 1133.25,457.15 1136.00,455.29 1138.75,453.40 1141.50,451.50 1144.25,449.57 1147.00,447.61 1149.75,445.64 1152.50,443.64 1155.25,441.62 1158.00,439.57 1160.75,437.50 1163.50,435.41 1166.25,433.30 1169.00,431.16 1171.75,428.99 1174.50,426.81 1177.25,424.59 1180.00,422.36 1182.75,420.10 1185.50,417.82 1188.25,415.51 1191.00,413.18 1193.75,410.82 1196.50,408.44 1199.25,406.04 1202.00,403.61 1204.75,401.16 1207.50,398.68 1210.25,396.18 1213.00,393.65 1215.75,391.09 1218.50,388.52 1221.25,385.91 1224.00,383.29 1226.75,380.63 1229.50,377.96 1232.25,375.25 1235.00,372.52 1237.75,369.77 1240.50,366.99 1243.25,364.19 1246.00,361.36 1248.75,358.50 1251.50,355.62 1254.25,352.71 1257.00,349.77 1259.75,346.81 1262.50,343.83 1265.25,340.82 1268.00,337.78 1270.75,334.72 1273.50,331.62 1276.25,328.51 1279.00,325.36 1281.75,322.19 1284.50,319.00 1287.25,315.78 1290.00,312.53 1292.75,309.25 1295.50,305.95 1298.25,302.62 1301.00,299.26 1303.75,295.88 1306.50,292.47 1309.25,289.03 1312.00,285.56 1314.75,282.07 1317.50,278.55 1320.25,275.01 1323.00,271.43 1325.75,267.83 1328.50,264.20 1331.25,260.54 1334.00,256.86 1336.75,253.15 1339.50,249.41 1342.25,245.64 1345.00,241.85 1347.75,238.02 1350.50,234.17 1353.25,230.29 1356.00,226.39 1358.75,222.45 1361.50,218.49 1364.25,214.49 1367.00,210.47 1369.75,206.43 1372.50,202.35 1375.25,198.24 1378.00,194.11 1380.75,189.95 1383.50,185.75 1386.25,181.53 1389.00,177.28 1391.75,173.01 1394.50,168.70 1397.25,164.36 1400.00,160.00" stroke="#3b82b5" stroke-width="4" fill="none" stroke-linejoin="round" stroke-linecap="round" /><polyline points="850.00,545.00 852.75,545.00 855.50,544.98 858.25,544.96 861.00,544.93 863.75,544.88 866.50,544.83 869.25,544.76 872.00,544.68 874.75,544.58 877.50,544.47 880.25,544.35 883.00,544.21 885.75,544.06 888.50,543.89 891.25,543.71 894.00,543.51 896.75,543.30 899.50,543.07 902.25,542.83 905.00,542.57 907.75,542.30 910.50,542.00 913.25,541.70 916.00,541.37 918.75,541.03 921.50,540.67 924.25,540.30 927.00,539.91 929.75,539.50 932.50,539.07 935.25,538.63 938.00,538.17 940.75,537.69 943.50,537.19 946.25,536.68 949.00,536.15 951.75,535.60 954.50,535.03 957.25,534.44 960.00,533.84 962.75,533.22 965.50,532.57 968.25,531.91 971.00,531.23 973.75,530.54 976.50,529.82 979.25,529.08 982.00,528.33 984.75,527.56 987.50,526.76 990.25,525.95 993.00,525.12 995.75,524.27 998.50,523.40 1001.25,522.51 1004.00,521.60 1006.75,520.67 1009.50,519.72 1012.25,518.75 1015.00,517.76 1017.75,516.76 1020.50,515.73 1023.25,514.68 1026.00,513.61 1028.75,512.52 1031.50,511.41 1034.25,510.28 1037.00,509.13 1039.75,507.96 1042.50,506.77 1045.25,505.56 1048.00,504.33 1050.75,503.07 1053.50,501.80 1056.25,500.50 1059.00,499.19 1061.75,497.85 1064.50,496.49 1067.25,495.11 1070.00,493.71 1072.75,492.29 1075.50,490.85 1078.25,489.39 1081.00,487.90 1083.75,486.40 1086.50,484.87 1089.25,483.32 1092.00,481.75 1094.75,480.16 1097.50,478.54 1100.25,476.91 1103.00,475.25 1105.75,473.57 1108.50,471.87 1111.25,470.15 1114.00,468.41 1116.75,466.64 1119.50,464.85 1122.25,463.04 1125.00,461.21 1127.75,459.36 1130.50,457.48 1133.25,455.58 1136.00,453.66 1138.75,451.72 1141.50,449.75 1144.25,447.76 1147.00,445.75 1149.75,443.72 1152.50,441.66 1155.25,439.58 1158.00,437.48 1160.75,435.36 1163.50,433.21 1166.25,431.05 1169.00,428.85 1171.75,426.64 1174.50,424.40 1177.25,422.14 1180.00,419.86 1182.75,417.56 1185.50,415.23 1188.25,412.87 1191.00,410.50 1193.75,408.10 1196.50,405.68 1199.25,403.24 1202.00,400.77 1204.75,398.28 1207.50,395.77 1210.25,393.23 1213.00,390.67 1215.75,388.08 1218.50,385.48 1221.25,382.85 1224.00,380.19 1226.75,377.51 1229.50,374.81 1232.25,372.09 1235.00,369.34 1237.75,366.57 1240.50,363.77 1243.25,360.95 1246.00,358.11 1248.75,355.24 1251.50,352.35 1254.25,349.43 1257.00,346.50 1259.75,343.53 1262.50,340.55 1265.25,337.54 1268.00,334.50 1270.75,331.44 1273.50,328.36 1276.25,325.25 1279.00,322.12 1281.75,318.97 1284.50,315.79 1287.25,312.58 1290.00,309.35 1292.75,306.10 1295.50,302.83 1298.25,299.52 1301.00,296.20 1303.75,292.85 1306.50,289.48 1309.25,286.08 1312.00,282.65 1314.75,279.21 1317.50,275.73 1320.25,272.24 1323.00,268.71 1325.75,265.17 1328.50,261.60 1331.25,258.00 1334.00,254.38 1336.75,250.74 1339.50,247.07 1342.25,243.37 1345.00,239.65 1347.75,235.91 1350.50,232.14 1353.25,228.34 1356.00,224.53 1358.75,220.68 1361.50,216.81 1364.25,212.92 1367.00,209.00 1369.75,205.05 1372.50,201.08 1375.25,197.09 1378.00,193.07 1380.75,189.02 1383.50,184.95 1386.25,180.86 1389.00,176.74 1391.75,172.59 1394.50,168.42 1397.25,164.22 1400.00,160.00" stroke="#7b4b74" stroke-width="4" fill="none" stroke-linejoin="round" stroke-linecap="round" /><line x1="908" y1="594" x2="950" y2="594" stroke="#8aa2b5" stroke-width="4" stroke-linecap="round" stroke-dasharray="8 5" /><text x="960" y="600" text-anchor="start" font-family="Source Han Sans SC, Microsoft YaHei, sans-serif" font-size="15" font-weight="700" fill="#8aa2b5">线性</text><line x1="1073" y1="594" x2="1115" y2="594" stroke="#3b82b5" stroke-width="4" stroke-linecap="round" /><text x="1125" y="600" text-anchor="start" font-family="Source Han Sans SC, Microsoft YaHei, sans-serif" font-size="15" font-weight="700" fill="#3b82b5">sRGB</text><line x1="1238" y1="594" x2="1280" y2="594" stroke="#7b4b74" stroke-width="4" stroke-linecap="round" /><text x="1290" y="600" text-anchor="start" font-family="Source Han Sans SC, Microsoft YaHei, sans-serif" font-size="15" font-weight="700" fill="#7b4b74">幂律 2.2</text><text x="375" y="665" text-anchor="middle" font-family="Source Han Sans SC, Microsoft YaHei, sans-serif" font-size="17" font-weight="400" fill="#397456">暗部被拉开：相同码差对应更小的线性光差</text><text x="1125" y="665" text-anchor="middle" font-family="Source Han Sans SC, Microsoft YaHei, sans-serif" font-size="17" font-weight="400" fill="#a24862">显示端把码值重新弯回物理亮度</text></svg>