<?xml version='1.0' encoding='utf-8'?>
<svg xmlns="http://www.w3.org/2000/svg" width="1500" height="740" viewBox="0 0 1500 740" role="img" aria-label="反遮罩锐化的空域结构和频率响应"><defs><marker id="arrow-blue" markerWidth="10" markerHeight="8" refX="9" refY="4" orient="auto" markerUnits="strokeWidth"><path d="M 0 0 L 10 4 L 0 8 z" fill="#3b82b5" /></marker><marker id="arrow-dark" markerWidth="10" markerHeight="8" refX="9" refY="4" orient="auto" markerUnits="strokeWidth"><path d="M 0 0 L 10 4 L 0 8 z" fill="#334e68" /></marker><marker id="arrow-red" markerWidth="10" markerHeight="8" refX="9" refY="4" orient="auto" markerUnits="strokeWidth"><path d="M 0 0 L 10 4 L 0 8 z" fill="#c85b73" /></marker><marker id="arrow-green" markerWidth="10" markerHeight="8" refX="9" refY="4" orient="auto" markerUnits="strokeWidth"><path d="M 0 0 L 10 4 L 0 8 z" fill="#4d8c6a" /></marker><marker id="arrow-gold" markerWidth="10" markerHeight="8" refX="9" refY="4" orient="auto" markerUnits="strokeWidth"><path d="M 0 0 L 10 4 L 0 8 z" fill="#c58a2d" /></marker><marker id="arrow-purple" markerWidth="10" markerHeight="8" refX="9" refY="4" orient="auto" markerUnits="strokeWidth"><path d="M 0 0 L 10 4 L 0 8 z" fill="#7b4b74" /></marker></defs><rect width="1500" height="740" fill="#fbfdff" /><text x="750" y="43" text-anchor="middle" font-family="Source Han Sans SC, Microsoft YaHei, sans-serif" font-size="30" font-weight="700" fill="#102a43">反遮罩锐化：从原图减去低通得到高频掩模，再按增益加回</text><rect x="45" y="105" width="240" height="105" rx="16" fill="#eaf4ff" stroke="#9bc7ee" stroke-width="2.5" /><text x="165.0" y="147" text-anchor="middle" font-family="Source Han Sans SC, Microsoft YaHei, sans-serif" font-size="18" font-weight="700" fill="#102a43">输入 f</text><rect x="345" y="105" width="240" height="105" rx="16" fill="#edf8f2" stroke="#9fd6b7" stroke-width="2.5" /><text x="465.0" y="147" text-anchor="middle" font-family="Source Han Sans SC, Microsoft YaHei, sans-serif" font-size="18" font-weight="700" fill="#102a43">低通 Gσ*f</text><rect x="645" y="105" width="240" height="105" rx="16" fill="#fff7e8" stroke="#e8c77d" stroke-width="2.5" /><text x="765.0" y="147" text-anchor="middle" font-family="Source Han Sans SC, Microsoft YaHei, sans-serif" font-size="18" font-weight="700" fill="#102a43">掩模 f−Gσ*f</text><rect x="1005" y="105" width="240" height="105" rx="16" fill="#fff0f3" stroke="#eab0be" stroke-width="2.5" /><text x="1125.0" y="147" text-anchor="middle" font-family="Source Han Sans SC, Microsoft YaHei, sans-serif" font-size="18" font-weight="700" fill="#102a43">输出 f+αm</text><line x1="285" y1="157" x2="335" y2="157" stroke="#527da3" stroke-width="3" stroke-linecap="round" marker-end="url(#arrow-blue)" /><line x1="585" y1="157" x2="635" y2="157" stroke="#527da3" stroke-width="3" stroke-linecap="round" marker-end="url(#arrow-blue)" /><line x1="885" y1="157" x2="995" y2="157" stroke="#527da3" stroke-width="3" stroke-linecap="round" marker-end="url(#arrow-blue)" /><line x1="165" y1="220" x2="165" y2="275" stroke="#527da3" stroke-width="3" stroke-linecap="round" /><line x1="165" y1="275" x2="1125" y2="275" stroke="#527da3" stroke-width="3" stroke-linecap="round" /><line x1="1125" y1="275" x2="1125" y2="220" stroke="#527da3" stroke-width="3" stroke-linecap="round" marker-end="url(#arrow-blue)" /><text x="935" y="250" text-anchor="middle" font-family="Source Han Sans SC, Microsoft YaHei, sans-serif" font-size="16" font-weight="400" fill="#627d98">原图直通</text><line x1="160" y1="635" x2="1340" y2="635" stroke="#334e68" stroke-width="2" stroke-linecap="round" marker-end="url(#arrow-dark)" /><line x1="160" y1="635" x2="160" y2="350" stroke="#334e68" stroke-width="2" stroke-linecap="round" marker-end="url(#arrow-dark)" /><text x="1340" y="666" text-anchor="end" font-family="Source Han Sans SC, Microsoft YaHei, sans-serif" font-size="15" font-weight="400" fill="#627d98">归一化空间频率 ν</text><text x="156" y="338" text-anchor="start" font-family="Source Han Sans SC, Microsoft YaHei, sans-serif" font-size="15" font-weight="400" fill="#627d98">增益 K(ν)</text><line x1="160" y1="555" x2="1340" y2="555" stroke="#9aa9b5" stroke-width="2" stroke-linecap="round" stroke-dasharray="8 8" /><text x="150" y="562" text-anchor="end" font-family="Source Han Sans SC, Microsoft YaHei, sans-serif" font-size="15" font-weight="400" fill="#627d98">1</text><polyline points="160.00,555.00 165.90,555.00 171.80,554.99 177.70,554.97 183.60,554.94 189.50,554.91 195.40,554.87 201.30,554.82 207.20,554.77 213.10,554.71 219.00,554.64 224.90,554.57 230.80,554.48 236.70,554.40 242.60,554.30 248.50,554.20 254.40,554.09 260.30,553.97 266.20,553.85 272.10,553.72 278.00,553.59 283.90,553.44 289.80,553.30 295.70,553.14 301.60,552.98 307.50,552.81 313.40,552.64 319.30,552.46 325.20,552.27 331.10,552.08 337.00,551.89 342.90,551.69 348.80,551.48 354.70,551.27 360.60,551.05 366.50,550.82 372.40,550.60 378.30,550.36 384.20,550.13 390.10,549.88 396.00,549.64 401.90,549.38 407.80,549.13 413.70,548.87 419.60,548.60 425.50,548.34 431.40,548.06 437.30,547.79 443.20,547.51 449.10,547.23 455.00,546.94 460.90,546.65 466.80,546.36 472.70,546.06 478.60,545.77 484.50,545.47 490.40,545.16 496.30,544.86 502.20,544.55 508.10,544.24 514.00,543.93 519.90,543.62 525.80,543.30 531.70,542.99 537.60,542.67 543.50,542.35 549.40,542.03 555.30,541.71 561.20,541.38 567.10,541.06 573.00,540.74 578.90,540.41 584.80,540.09 590.70,539.76 596.60,539.44 602.50,539.11 608.40,538.78 614.30,538.46 620.20,538.13 626.10,537.81 632.00,537.49 637.90,537.16 643.80,536.84 649.70,536.52 655.60,536.20 661.50,535.88 667.40,535.56 673.30,535.24 679.20,534.92 685.10,534.61 691.00,534.30 696.90,533.98 702.80,533.67 708.70,533.37 714.60,533.06 720.50,532.75 726.40,532.45 732.30,532.15 738.20,531.85 744.10,531.56 750.00,531.26 755.90,530.97 761.80,530.68 767.70,530.40 773.60,530.11 779.50,529.83 785.40,529.55 791.30,529.27 797.20,529.00 803.10,528.73 809.00,528.46 814.90,528.20 820.80,527.93 826.70,527.68 832.60,527.42 838.50,527.17 844.40,526.92 850.30,526.67 856.20,526.42 862.10,526.18 868.00,525.94 873.90,525.71 879.80,525.48 885.70,525.25 891.60,525.02 897.50,524.80 903.40,524.58 909.30,524.37 915.20,524.16 921.10,523.95 927.00,523.74 932.90,523.54 938.80,523.34 944.70,523.14 950.60,522.95 956.50,522.76 962.40,522.57 968.30,522.39 974.20,522.21 980.10,522.03 986.00,521.85 991.90,521.68 997.80,521.52 1003.70,521.35 1009.60,521.19 1015.50,521.03 1021.40,520.87 1027.30,520.72 1033.20,520.57 1039.10,520.42 1045.00,520.28 1050.90,520.14 1056.80,520.00 1062.70,519.87 1068.60,519.73 1074.50,519.60 1080.40,519.48 1086.30,519.35 1092.20,519.23 1098.10,519.11 1104.00,518.99 1109.90,518.88 1115.80,518.77 1121.70,518.66 1127.60,518.55 1133.50,518.45 1139.40,518.35 1145.30,518.25 1151.20,518.15 1157.10,518.06 1163.00,517.97 1168.90,517.88 1174.80,517.79 1180.70,517.71 1186.60,517.62 1192.50,517.54 1198.40,517.46 1204.30,517.39 1210.20,517.31 1216.10,517.24 1222.00,517.17 1227.90,517.10 1233.80,517.03 1239.70,516.96 1245.60,516.90 1251.50,516.84 1257.40,516.78 1263.30,516.72 1269.20,516.66 1275.10,516.61 1281.00,516.55 1286.90,516.50 1292.80,516.45 1298.70,516.40 1304.60,516.35 1310.50,516.31 1316.40,516.26 1322.30,516.22 1328.20,516.17 1334.10,516.13 1340.00,516.09" fill="none" stroke="#4d8c6a" stroke-width="4" stroke-linecap="round" stroke-linejoin="round" /><text x="1330" y="508.0929488978917" text-anchor="end" font-family="Source Han Sans SC, Microsoft YaHei, sans-serif" font-size="16" font-weight="700" fill="#4d8c6a">α=0.5</text><polyline points="160.00,555.00 165.90,554.99 171.80,554.97 177.70,554.94 183.60,554.88 189.50,554.82 195.40,554.74 201.30,554.65 207.20,554.54 213.10,554.42 219.00,554.28 224.90,554.13 230.80,553.97 236.70,553.79 242.60,553.60 248.50,553.40 254.40,553.18 260.30,552.95 266.20,552.70 272.10,552.44 278.00,552.17 283.90,551.89 289.80,551.59 295.70,551.28 301.60,550.96 307.50,550.62 313.40,550.28 319.30,549.92 325.20,549.55 331.10,549.17 337.00,548.78 342.90,548.37 348.80,547.96 354.70,547.53 360.60,547.10 366.50,546.65 372.40,546.19 378.30,545.73 384.20,545.25 390.10,544.77 396.00,544.27 401.90,543.77 407.80,543.26 413.70,542.74 419.60,542.21 425.50,541.67 431.40,541.13 437.30,540.58 443.20,540.02 449.10,539.45 455.00,538.88 460.90,538.30 466.80,537.72 472.70,537.13 478.60,536.53 484.50,535.93 490.40,535.33 496.30,534.72 502.20,534.10 508.10,533.48 514.00,532.86 519.90,532.23 525.80,531.60 531.70,530.97 537.60,530.33 543.50,529.70 549.40,529.05 555.30,528.41 561.20,527.77 567.10,527.12 573.00,526.47 578.90,525.82 584.80,525.17 590.70,524.52 596.60,523.87 602.50,523.22 608.40,522.57 614.30,521.92 620.20,521.27 626.10,520.62 632.00,519.97 637.90,519.32 643.80,518.68 649.70,518.04 655.60,517.39 661.50,516.75 667.40,516.12 673.30,515.48 679.20,514.85 685.10,514.22 691.00,513.59 696.90,512.97 702.80,512.35 708.70,511.73 714.60,511.12 720.50,510.51 726.40,509.90 732.30,509.30 738.20,508.71 744.10,508.11 750.00,507.53 755.90,506.94 761.80,506.36 767.70,505.79 773.60,505.22 779.50,504.66 785.40,504.10 791.30,503.55 797.20,503.00 803.10,502.46 809.00,501.92 814.90,501.39 820.80,500.87 826.70,500.35 832.60,499.84 838.50,499.33 844.40,498.83 850.30,498.34 856.20,497.85 862.10,497.37 868.00,496.89 873.90,496.42 879.80,495.96 885.70,495.50 891.60,495.05 897.50,494.60 903.40,494.17 909.30,493.74 915.20,493.31 921.10,492.89 927.00,492.48 932.90,492.07 938.80,491.67 944.70,491.28 950.60,490.89 956.50,490.51 962.40,490.14 968.30,489.77 974.20,489.41 980.10,489.06 986.00,488.71 991.90,488.37 997.80,488.03 1003.70,487.70 1009.60,487.38 1015.50,487.06 1021.40,486.75 1027.30,486.44 1033.20,486.14 1039.10,485.85 1045.00,485.56 1050.90,485.28 1056.80,485.00 1062.70,484.73 1068.60,484.46 1074.50,484.21 1080.40,483.95 1086.30,483.70 1092.20,483.46 1098.10,483.22 1104.00,482.99 1109.90,482.76 1115.80,482.54 1121.70,482.32 1127.60,482.11 1133.50,481.90 1139.40,481.70 1145.30,481.50 1151.20,481.31 1157.10,481.12 1163.00,480.94 1168.90,480.76 1174.80,480.58 1180.70,480.41 1186.60,480.24 1192.50,480.08 1198.40,479.92 1204.30,479.77 1210.20,479.62 1216.10,479.47 1222.00,479.33 1227.90,479.19 1233.80,479.06 1239.70,478.93 1245.60,478.80 1251.50,478.68 1257.40,478.56 1263.30,478.44 1269.20,478.32 1275.10,478.21 1281.00,478.11 1286.90,478.00 1292.80,477.90 1298.70,477.80 1304.60,477.70 1310.50,477.61 1316.40,477.52 1322.30,477.43 1328.20,477.35 1334.10,477.27 1340.00,477.19" fill="none" stroke="#3b82b5" stroke-width="4" stroke-linecap="round" stroke-linejoin="round" /><text x="1330" y="469.1858977957834" text-anchor="end" font-family="Source Han Sans SC, Microsoft YaHei, sans-serif" font-size="16" font-weight="700" fill="#3b82b5">α=1</text><polyline points="160.00,555.00 165.90,554.99 171.80,554.94 177.70,554.87 183.60,554.77 189.50,554.64 195.40,554.48 201.30,554.30 207.20,554.08 213.10,553.84 219.00,553.57 224.90,553.27 230.80,552.94 236.70,552.58 242.60,552.20 248.50,551.79 254.40,551.36 260.30,550.89 266.20,550.40 272.10,549.89 278.00,549.34 283.90,548.77 289.80,548.18 295.70,547.56 301.60,546.92 307.50,546.25 313.40,545.56 319.30,544.84 325.20,544.10 331.10,543.34 337.00,542.55 342.90,541.74 348.80,540.91 354.70,540.06 360.60,539.19 366.50,538.30 372.40,537.38 378.30,536.45 384.20,535.50 390.10,534.53 396.00,533.54 401.90,532.54 407.80,531.51 413.70,530.47 419.60,529.42 425.50,528.34 431.40,527.26 437.30,526.15 443.20,525.04 449.10,523.91 455.00,522.76 460.90,521.61 466.80,520.44 472.70,519.26 478.60,518.07 484.50,516.87 490.40,515.65 496.30,514.43 502.20,513.20 508.10,511.97 514.00,510.72 519.90,509.47 525.80,508.21 531.70,506.94 537.60,505.67 543.50,504.39 549.40,503.11 555.30,501.82 561.20,500.53 567.10,499.24 573.00,497.94 578.90,496.64 584.80,495.34 590.70,494.04 596.60,492.74 602.50,491.44 608.40,490.14 614.30,488.84 620.20,487.54 626.10,486.24 632.00,484.94 637.90,483.65 643.80,482.36 649.70,481.07 655.60,479.79 661.50,478.51 667.40,477.23 673.30,475.96 679.20,474.70 685.10,473.44 691.00,472.18 696.90,470.94 702.80,469.70 708.70,468.46 714.60,467.24 720.50,466.02 726.40,464.81 732.30,463.60 738.20,462.41 744.10,461.23 750.00,460.05 755.90,458.88 761.80,457.73 767.70,456.58 773.60,455.44 779.50,454.32 785.40,453.20 791.30,452.10 797.20,451.00 803.10,449.92 809.00,448.85 814.90,447.79 820.80,446.74 826.70,445.70 832.60,444.68 838.50,443.66 844.40,442.66 850.30,441.67 856.20,440.70 862.10,439.73 868.00,438.78 873.90,437.84 879.80,436.91 885.70,436.00 891.60,435.10 897.50,434.21 903.40,433.33 909.30,432.47 915.20,431.62 921.10,430.78 927.00,429.96 932.90,429.15 938.80,428.35 944.70,427.56 950.60,426.79 956.50,426.03 962.40,425.28 968.30,424.55 974.20,423.82 980.10,423.11 986.00,422.42 991.90,421.73 997.80,421.06 1003.70,420.40 1009.60,419.75 1015.50,419.12 1021.40,418.49 1027.30,417.88 1033.20,417.28 1039.10,416.70 1045.00,416.12 1050.90,415.55 1056.80,415.00 1062.70,414.46 1068.60,413.93 1074.50,413.41 1080.40,412.90 1086.30,412.41 1092.20,411.92 1098.10,411.44 1104.00,410.98 1109.90,410.52 1115.80,410.08 1121.70,409.64 1127.60,409.22 1133.50,408.80 1139.40,408.40 1145.30,408.00 1151.20,407.62 1157.10,407.24 1163.00,406.87 1168.90,406.51 1174.80,406.16 1180.70,405.82 1186.60,405.49 1192.50,405.16 1198.40,404.85 1204.30,404.54 1210.20,404.24 1216.10,403.95 1222.00,403.66 1227.90,403.39 1233.80,403.12 1239.70,402.86 1245.60,402.60 1251.50,402.35 1257.40,402.11 1263.30,401.88 1269.20,401.65 1275.10,401.43 1281.00,401.21 1286.90,401.00 1292.80,400.80 1298.70,400.60 1304.60,400.41 1310.50,400.22 1316.40,400.04 1322.30,399.87 1328.20,399.70 1334.10,399.53 1340.00,399.37" fill="none" stroke="#c85b73" stroke-width="4" stroke-linecap="round" stroke-linejoin="round" /><text x="1330" y="391.3717955915668" text-anchor="end" font-family="Source Han Sans SC, Microsoft YaHei, sans-serif" font-size="16" font-weight="700" fill="#c85b73">α=2</text><text x="750" y="690" text-anchor="middle" font-family="Source Han Sans SC, Microsoft YaHei, sans-serif" font-size="18" font-weight="700" fill="#7b4b74">K(0)=1：平均亮度不变；高频平台趋近 1+α，但噪声也按同一增益放大</text></svg>