<?xml version='1.0' encoding='utf-8'?>
<svg xmlns="http://www.w3.org/2000/svg" width="1200" height="500" viewBox="0 0 1200 500" role="img" aria-label="消失点与平面单应校正"><defs><marker id="arrow-blue" markerWidth="10" markerHeight="8" refX="9" refY="4" orient="auto" markerUnits="strokeWidth"><path d="M 0 0 L 10 4 L 0 8 z" fill="#3b82b5" /></marker><marker id="arrow-red" markerWidth="10" markerHeight="8" refX="9" refY="4" orient="auto" markerUnits="strokeWidth"><path d="M 0 0 L 10 4 L 0 8 z" fill="#c85b73" /></marker><marker id="arrow-dark" markerWidth="10" markerHeight="8" refX="9" refY="4" orient="auto" markerUnits="strokeWidth"><path d="M 0 0 L 10 4 L 0 8 z" fill="#334e68" /></marker><marker id="arrow-green" markerWidth="10" markerHeight="8" refX="9" refY="4" orient="auto" markerUnits="strokeWidth"><path d="M 0 0 L 10 4 L 0 8 z" fill="#4d8c6a" /></marker></defs><line x1="600" y1="60" x2="600" y2="480" stroke="#c6d2dc" stroke-width="2" stroke-linecap="round" /><text x="300" y="20" text-anchor="middle" font-family="Source Han Sans SC, Microsoft YaHei, sans-serif" font-size="24" font-weight="600" fill="#285b7a">平行方向在图像中共享消失点</text><line x1="20" y1="100" x2="580" y2="100" stroke="#8aa2b5" stroke-width="2" stroke-linecap="round" stroke-dasharray="10 8" /><circle cx="300" cy="100" r="8" fill="#a24862" /><text x="300" y="80" text-anchor="middle" font-family="Source Han Sans SC, Microsoft YaHei, sans-serif" font-size="22" font-weight="600" fill="#a24862">消失点</text><text x="100" y="85" text-anchor="start" font-family="Source Han Sans SC, Microsoft YaHei, sans-serif" font-size="22" font-weight="400" fill="#627d98">地平线</text><line x1="60" y1="450" x2="300" y2="100" stroke="#4b88b4" stroke-width="3" stroke-linecap="round" /><line x1="200" y1="450" x2="300" y2="100" stroke="#4b88b4" stroke-width="3" stroke-linecap="round" /><line x1="400" y1="450" x2="300" y2="100" stroke="#4b88b4" stroke-width="3" stroke-linecap="round" /><line x1="540" y1="450" x2="300" y2="100" stroke="#4b88b4" stroke-width="3" stroke-linecap="round" /><line x1="256.8" y1="163.0" x2="343.2" y2="163.0" stroke="#9fbdd3" stroke-width="2" stroke-linecap="round" /><line x1="213.60000000000002" y1="226.0" x2="386.4" y2="226.0" stroke="#9fbdd3" stroke-width="2" stroke-linecap="round" /><line x1="170.39999999999998" y1="289.0" x2="429.6" y2="289.0" stroke="#9fbdd3" stroke-width="2" stroke-linecap="round" /><line x1="127.20000000000002" y1="352.0" x2="472.79999999999995" y2="352.0" stroke="#9fbdd3" stroke-width="2" stroke-linecap="round" /><line x1="84.0" y1="415.0" x2="516.0" y2="415.0" stroke="#9fbdd3" stroke-width="2" stroke-linecap="round" /><text x="300" y="480" text-anchor="middle" font-family="Source Han Sans SC, Microsoft YaHei, sans-serif" font-size="22" font-weight="400" fill="#486581">地面网格中的三维平行线仍由方向决定</text><text x="900" y="20" text-anchor="middle" font-family="Source Han Sans SC, Microsoft YaHei, sans-serif" font-size="24" font-weight="600" fill="#8b5e20">单应变换校正一个平面</text><polyline points="620.00,120.00 890.00,80.00 840.00,400.00 640.00,455.00 620.00,120.00" stroke="#c58a2d" stroke-width="4" fill="#fff1d9" stroke-linejoin="round" stroke-linecap="round" /><polyline points="687.50,110.00 687.58,121.04 687.67,132.08 687.75,143.12 687.83,154.17 687.92,165.21 688.00,176.25 688.08,187.29 688.17,198.33 688.25,209.37 688.33,220.42 688.42,231.46 688.50,242.50 688.58,253.54 688.67,264.58 688.75,275.62 688.83,286.67 688.92,297.71 689.00,308.75 689.08,319.79 689.17,330.83 689.25,341.88 689.33,352.92 689.42,363.96 689.50,375.00 689.58,386.04 689.67,397.08 689.75,408.12 689.83,419.17 689.92,430.21 690.00,441.25" stroke="#deb46f" stroke-width="2" fill="none" stroke-linejoin="round" stroke-linecap="round" /><polyline points="755.00,100.00 754.50,110.92 754.00,121.83 753.50,132.75 753.00,143.67 752.50,154.58 752.00,165.50 751.50,176.42 751.00,187.33 750.50,198.25 750.00,209.17 749.50,220.08 749.00,231.00 748.50,241.92 748.00,252.83 747.50,263.75 747.00,274.67 746.50,285.58 746.00,296.50 745.50,307.42 745.00,318.33 744.50,329.25 744.00,340.17 743.50,351.08 743.00,362.00 742.50,372.92 742.00,383.83 741.50,394.75 741.00,405.67 740.50,416.58 740.00,427.50" stroke="#deb46f" stroke-width="2" fill="none" stroke-linejoin="round" stroke-linecap="round" /><polyline points="822.50,90.00 821.42,100.79 820.33,111.58 819.25,122.38 818.17,133.17 817.08,143.96 816.00,154.75 814.92,165.54 813.83,176.33 812.75,187.12 811.67,197.92 810.58,208.71 809.50,219.50 808.42,230.29 807.33,241.08 806.25,251.88 805.17,262.67 804.08,273.46 803.00,284.25 801.92,295.04 800.83,305.83 799.75,316.62 798.67,327.42 797.58,338.21 796.50,349.00 795.42,359.79 794.33,370.58 793.25,381.38 792.17,392.17 791.08,402.96 790.00,413.75" stroke="#deb46f" stroke-width="2" fill="none" stroke-linejoin="round" stroke-linecap="round" /><polyline points="625.00,203.75 633.42,202.29 641.83,200.83 650.25,199.38 658.67,197.92 667.08,196.46 675.50,195.00 683.92,193.54 692.33,192.08 700.75,190.62 709.17,189.17 717.58,187.71 726.00,186.25 734.42,184.79 742.83,183.33 751.25,181.88 759.67,180.42 768.08,178.96 776.50,177.50 784.92,176.04 793.33,174.58 801.75,173.12 810.17,171.67 818.58,170.21 827.00,168.75 835.42,167.29 843.83,165.83 852.25,164.38 860.67,162.92 869.08,161.46 877.50,160.00" stroke="#deb46f" stroke-width="2" fill="none" stroke-linejoin="round" stroke-linecap="round" /><polyline points="630.00,287.50 637.83,285.92 645.67,284.33 653.50,282.75 661.33,281.17 669.17,279.58 677.00,278.00 684.83,276.42 692.67,274.83 700.50,273.25 708.33,271.67 716.17,270.08 724.00,268.50 731.83,266.92 739.67,265.33 747.50,263.75 755.33,262.17 763.17,260.58 771.00,259.00 778.83,257.42 786.67,255.83 794.50,254.25 802.33,252.67 810.17,251.08 818.00,249.50 825.83,247.92 833.67,246.33 841.50,244.75 849.33,243.17 857.17,241.58 865.00,240.00" stroke="#deb46f" stroke-width="2" fill="none" stroke-linejoin="round" stroke-linecap="round" /><polyline points="635.00,371.25 642.25,369.54 649.50,367.83 656.75,366.12 664.00,364.42 671.25,362.71 678.50,361.00 685.75,359.29 693.00,357.58 700.25,355.87 707.50,354.17 714.75,352.46 722.00,350.75 729.25,349.04 736.50,347.33 743.75,345.62 751.00,343.92 758.25,342.21 765.50,340.50 772.75,338.79 780.00,337.08 787.25,335.38 794.50,333.67 801.75,331.96 809.00,330.25 816.25,328.54 823.50,326.83 830.75,325.12 838.00,323.42 845.25,321.71 852.50,320.00" stroke="#deb46f" stroke-width="2" fill="none" stroke-linejoin="round" stroke-linecap="round" /><line x1="860" y1="360" x2="930" y2="360" stroke="#4d8c6a" stroke-width="3" stroke-linecap="round" marker-end="url(#arrow-green)" /><text x="890" y="400" text-anchor="middle" font-family="Source Han Sans SC, Microsoft YaHei, sans-serif" font-size="22" font-weight="600" fill="#397456">平面校正</text><rect x="940" y="100" width="240" height="320" fill="#eef8f2" stroke="#5ca47a" stroke-width="4" /><line x1="1000" y1="100" x2="1000" y2="420" stroke="#9bc9ab" stroke-width="2" stroke-linecap="round" /><line x1="1060" y1="100" x2="1060" y2="420" stroke="#9bc9ab" stroke-width="2" stroke-linecap="round" /><line x1="1120" y1="100" x2="1120" y2="420" stroke="#9bc9ab" stroke-width="2" stroke-linecap="round" /><line x1="940" y1="180" x2="1180" y2="180" stroke="#9bc9ab" stroke-width="2" stroke-linecap="round" /><line x1="940" y1="260" x2="1180" y2="260" stroke="#9bc9ab" stroke-width="2" stroke-linecap="round" /><line x1="940" y1="340" x2="1180" y2="340" stroke="#9bc9ab" stroke-width="2" stroke-linecap="round" /><text x="900" y="480" text-anchor="middle" font-family="Source Han Sans SC, Microsoft YaHei, sans-serif" font-size="22" font-weight="400" fill="#397456">矩形化需要拉伸与重采样</text></svg>