<?xml version='1.0' encoding='utf-8'?>
<svg xmlns="http://www.w3.org/2000/svg" width="1400" height="620" viewBox="0 0 1400 620" role="img" aria-label="理想与像差波前"><defs><marker id="arrow-blue" markerWidth="10" markerHeight="8" refX="9" refY="4" orient="auto" markerUnits="strokeWidth"><path d="M 0 0 L 10 4 L 0 8 z" fill="#3b82b5" /></marker><marker id="arrow-red" markerWidth="10" markerHeight="8" refX="9" refY="4" orient="auto" markerUnits="strokeWidth"><path d="M 0 0 L 10 4 L 0 8 z" fill="#c85b73" /></marker><marker id="arrow-dark" markerWidth="10" markerHeight="8" refX="9" refY="4" orient="auto" markerUnits="strokeWidth"><path d="M 0 0 L 10 4 L 0 8 z" fill="#334e68" /></marker><marker id="arrow-green" markerWidth="10" markerHeight="8" refX="9" refY="4" orient="auto" markerUnits="strokeWidth"><path d="M 0 0 L 10 4 L 0 8 z" fill="#4d8c6a" /></marker></defs><rect width="1400" height="620" fill="#fbfdff" /><text x="700.0" y="42" text-anchor="middle" font-family="Source Han Sans SC, Microsoft YaHei, sans-serif" font-size="30" font-weight="700" fill="#102a43">波前误差改变局部法线与焦点相位</text><line x1="700" y1="80" x2="700" y2="560" stroke="#c6d2dc" stroke-width="2" stroke-linecap="round" /><text x="350" y="92" text-anchor="middle" font-family="Source Han Sans SC, Microsoft YaHei, sans-serif" font-size="24" font-weight="700" fill="#3b82b5">理想参考球面</text><ellipse cx="130" cy="330" rx="26" ry="160" fill="#eaf4ff" stroke="#5595c5" stroke-width="3" /><line x1="130" y1="205" x2="560" y2="330" stroke="#3b82b5" stroke-width="2.2" stroke-linecap="round" /><line x1="130" y1="260" x2="560" y2="330" stroke="#3b82b5" stroke-width="2.2" stroke-linecap="round" /><line x1="130" y1="330" x2="560" y2="330" stroke="#3b82b5" stroke-width="2.2" stroke-linecap="round" /><line x1="130" y1="400" x2="560" y2="330" stroke="#3b82b5" stroke-width="2.2" stroke-linecap="round" /><line x1="130" y1="455" x2="560" y2="330" stroke="#3b82b5" stroke-width="2.2" stroke-linecap="round" /><circle cx="560" cy="330" r="8" fill="#3b82b5" /><text x="560" y="308" text-anchor="middle" font-family="Source Han Sans SC, Microsoft YaHei, sans-serif" font-size="19" font-weight="700" fill="#3b82b5">理想像点</text><polyline points="353.28,170.00 351.95,173.23 350.65,176.46 349.37,179.70 348.12,182.93 346.90,186.16 345.70,189.39 344.53,192.63 343.39,195.86 342.28,199.09 341.19,202.32 340.13,205.56 339.10,208.79 338.10,212.02 337.12,215.25 336.17,218.48 335.24,221.72 334.35,224.95 333.48,228.18 332.63,231.41 331.82,234.65 331.03,237.88 330.27,241.11 329.54,244.34 328.83,247.58 328.15,250.81 327.50,254.04 326.88,257.27 326.28,260.51 325.71,263.74 325.16,266.97 324.65,270.20 324.16,273.43 323.70,276.67 323.26,279.90 322.86,283.13 322.48,286.36 322.12,289.60 321.80,292.83 321.50,296.06 321.23,299.29 320.98,302.53 320.76,305.76 320.57,308.99 320.41,312.22 320.28,315.45 320.17,318.69 320.08,321.92 320.03,325.15 320.00,328.38 320.00,331.62 320.03,334.85 320.08,338.08 320.17,341.31 320.28,344.55 320.41,347.78 320.57,351.01 320.76,354.24 320.98,357.47 321.23,360.71 321.50,363.94 321.80,367.17 322.12,370.40 322.48,373.64 322.86,376.87 323.26,380.10 323.70,383.33 324.16,386.57 324.65,389.80 325.16,393.03 325.71,396.26 326.28,399.49 326.88,402.73 327.50,405.96 328.15,409.19 328.83,412.42 329.54,415.66 330.27,418.89 331.03,422.12 331.82,425.35 332.63,428.59 333.48,431.82 334.35,435.05 335.24,438.28 336.17,441.52 337.12,444.75 338.10,447.98 339.10,451.21 340.13,454.44 341.19,457.68 342.28,460.91 343.39,464.14 344.53,467.37 345.70,470.61 346.90,473.84 348.12,477.07 349.37,480.30 350.65,483.54 351.95,486.77 353.28,490.00" stroke="#4d8c6a" stroke-width="4" fill="none" stroke-linejoin="round" stroke-linecap="round" /><text x="350" y="535" text-anchor="middle" font-family="Source Han Sans SC, Microsoft YaHei, sans-serif" font-size="21" font-weight="700" fill="#397456">W = 0</text><text x="1050" y="92" text-anchor="middle" font-family="Source Han Sans SC, Microsoft YaHei, sans-serif" font-size="24" font-weight="700" fill="#c85b73">含像差的真实波前</text><ellipse cx="830" cy="330" rx="26" ry="160" fill="#eaf4ff" stroke="#5595c5" stroke-width="3" /><line x1="830" y1="205" x2="1316.25" y2="358.125" stroke="#c85b73" stroke-width="2.2" stroke-linecap="round" /><line x1="830" y1="260" x2="1291.5" y2="338.82" stroke="#c85b73" stroke-width="2.2" stroke-linecap="round" /><line x1="830" y1="330" x2="1260.0" y2="330.0" stroke="#c85b73" stroke-width="2.2" stroke-linecap="round" /><line x1="830" y1="400" x2="1291.5" y2="321.18" stroke="#c85b73" stroke-width="2.2" stroke-linecap="round" /><line x1="830" y1="455" x2="1316.25" y2="301.875" stroke="#c85b73" stroke-width="2.2" stroke-linecap="round" /><ellipse cx="1295" cy="330" rx="55" ry="24" fill="#efb6c5" fill-opacity="0.65" stroke="#c85b73" stroke-width="2" /><text x="1295" y="288" text-anchor="middle" font-family="Source Han Sans SC, Microsoft YaHei, sans-serif" font-size="19" font-weight="700" fill="#c85b73">有限能量分布</text><polyline points="1052.40,170.00 1050.56,173.23 1048.69,176.46 1046.80,179.70 1044.90,182.93 1042.99,186.16 1041.08,189.39 1039.18,192.63 1037.29,195.86 1035.41,199.09 1033.56,202.32 1031.75,205.56 1029.96,208.79 1028.23,212.02 1026.54,215.25 1024.90,218.48 1023.32,221.72 1021.81,224.95 1020.37,228.18 1019.00,231.41 1017.72,234.65 1016.51,237.88 1015.39,241.11 1014.36,244.34 1013.42,247.58 1012.57,250.81 1011.83,254.04 1011.18,257.27 1010.62,260.51 1010.17,263.74 1009.82,266.97 1009.57,270.20 1009.41,273.43 1009.36,276.67 1009.40,279.90 1009.53,283.13 1009.76,286.36 1010.08,289.60 1010.48,292.83 1010.96,296.06 1011.53,299.29 1012.17,302.53 1012.88,305.76 1013.66,308.99 1014.50,312.22 1015.40,315.45 1016.35,318.69 1017.34,321.92 1018.38,325.15 1019.45,328.38 1020.55,331.62 1021.68,334.85 1022.83,338.08 1023.98,341.31 1025.15,344.55 1026.32,347.78 1027.49,351.01 1028.64,354.24 1029.79,357.47 1030.92,360.71 1032.03,363.94 1033.11,367.17 1034.17,370.40 1035.19,373.64 1036.18,376.87 1037.13,380.10 1038.04,383.33 1038.91,386.57 1039.73,389.80 1040.51,393.03 1041.24,396.26 1041.93,399.49 1042.58,402.73 1043.18,405.96 1043.73,409.19 1044.24,412.42 1044.72,415.66 1045.15,418.89 1045.55,422.12 1045.92,425.35 1046.27,428.59 1046.58,431.82 1046.88,435.05 1047.16,438.28 1047.43,441.52 1047.70,444.75 1047.96,447.98 1048.24,451.21 1048.52,454.44 1048.82,457.68 1049.14,460.91 1049.50,464.14 1049.89,467.37 1050.32,470.61 1050.80,473.84 1051.34,477.07 1051.94,480.30 1052.60,483.54 1053.34,486.77 1054.16,490.00" stroke="#7b4b74" stroke-width="4" fill="none" stroke-linejoin="round" stroke-linecap="round" /><text x="1050" y="535" text-anchor="middle" font-family="Source Han Sans SC, Microsoft YaHei, sans-serif" font-size="21" font-weight="700" fill="#7b4b74">W(ρ,φ) ≠ 0</text></svg>